<?xml version="1.0" encoding="utf-8"?>
<svg xmlns="http://www.w3.org/2000/svg" xmlns:xlink="http://www.w3.org/1999/xlink" width="600" height="400" viewBox="0 0 2400 1600">
<defs>
  <clipPath id="clip240">
    <rect x="0" y="0" width="2400" height="1600"/>
  </clipPath>
</defs>
<path clip-path="url(#clip240)" d="M0 1600 L2400 1600 L2400 0 L0 0  Z" fill="#ffffff" fill-rule="evenodd" fill-opacity="1"/>
<defs>
  <clipPath id="clip241">
    <rect x="343" y="183" width="2010" height="1303"/>
  </clipPath>
</defs>
<path clip-path="url(#clip240)" d="M343.315 1486.45 L2352.76 1486.45 L2352.76 183.952 L343.315 183.952  Z" fill="#ffffff" fill-rule="evenodd" fill-opacity="1"/>
<polyline clip-path="url(#clip241)" style="stroke:#000000; stroke-linecap:round; stroke-linejoin:round; stroke-width:2; stroke-opacity:0.1; fill:none" points="400.186,1486.45 400.186,183.952 "/>
<polyline clip-path="url(#clip241)" style="stroke:#000000; stroke-linecap:round; stroke-linejoin:round; stroke-width:2; stroke-opacity:0.1; fill:none" points="716.444,1486.45 716.444,183.952 "/>
<polyline clip-path="url(#clip241)" style="stroke:#000000; stroke-linecap:round; stroke-linejoin:round; stroke-width:2; stroke-opacity:0.1; fill:none" points="1032.7,1486.45 1032.7,183.952 "/>
<polyline clip-path="url(#clip241)" style="stroke:#000000; stroke-linecap:round; stroke-linejoin:round; stroke-width:2; stroke-opacity:0.1; fill:none" points="1348.96,1486.45 1348.96,183.952 "/>
<polyline clip-path="url(#clip241)" style="stroke:#000000; stroke-linecap:round; stroke-linejoin:round; stroke-width:2; stroke-opacity:0.1; fill:none" points="1665.22,1486.45 1665.22,183.952 "/>
<polyline clip-path="url(#clip241)" style="stroke:#000000; stroke-linecap:round; stroke-linejoin:round; stroke-width:2; stroke-opacity:0.1; fill:none" points="1981.48,1486.45 1981.48,183.952 "/>
<polyline clip-path="url(#clip241)" style="stroke:#000000; stroke-linecap:round; stroke-linejoin:round; stroke-width:2; stroke-opacity:0.1; fill:none" points="2297.74,1486.45 2297.74,183.952 "/>
<polyline clip-path="url(#clip241)" style="stroke:#000000; stroke-linecap:round; stroke-linejoin:round; stroke-width:2; stroke-opacity:0.1; fill:none" points="343.315,1381.41 2352.76,1381.41 "/>
<polyline clip-path="url(#clip241)" style="stroke:#000000; stroke-linecap:round; stroke-linejoin:round; stroke-width:2; stroke-opacity:0.1; fill:none" points="343.315,1084.85 2352.76,1084.85 "/>
<polyline clip-path="url(#clip241)" style="stroke:#000000; stroke-linecap:round; stroke-linejoin:round; stroke-width:2; stroke-opacity:0.1; fill:none" points="343.315,788.286 2352.76,788.286 "/>
<polyline clip-path="url(#clip241)" style="stroke:#000000; stroke-linecap:round; stroke-linejoin:round; stroke-width:2; stroke-opacity:0.1; fill:none" points="343.315,491.721 2352.76,491.721 "/>
<polyline clip-path="url(#clip241)" style="stroke:#000000; stroke-linecap:round; stroke-linejoin:round; stroke-width:2; stroke-opacity:0.1; fill:none" points="343.315,195.156 2352.76,195.156 "/>
<polyline clip-path="url(#clip240)" style="stroke:#000000; stroke-linecap:round; stroke-linejoin:round; stroke-width:4; stroke-opacity:1; fill:none" points="343.315,1486.45 2352.76,1486.45 "/>
<polyline clip-path="url(#clip240)" style="stroke:#000000; stroke-linecap:round; stroke-linejoin:round; stroke-width:4; stroke-opacity:1; fill:none" points="400.186,1486.45 400.186,1467.55 "/>
<polyline clip-path="url(#clip240)" style="stroke:#000000; stroke-linecap:round; stroke-linejoin:round; stroke-width:4; stroke-opacity:1; fill:none" points="716.444,1486.45 716.444,1467.55 "/>
<polyline clip-path="url(#clip240)" style="stroke:#000000; stroke-linecap:round; stroke-linejoin:round; stroke-width:4; stroke-opacity:1; fill:none" points="1032.7,1486.45 1032.7,1467.55 "/>
<polyline clip-path="url(#clip240)" style="stroke:#000000; stroke-linecap:round; stroke-linejoin:round; stroke-width:4; stroke-opacity:1; fill:none" points="1348.96,1486.45 1348.96,1467.55 "/>
<polyline clip-path="url(#clip240)" style="stroke:#000000; stroke-linecap:round; stroke-linejoin:round; stroke-width:4; stroke-opacity:1; fill:none" points="1665.22,1486.45 1665.22,1467.55 "/>
<polyline clip-path="url(#clip240)" style="stroke:#000000; stroke-linecap:round; stroke-linejoin:round; stroke-width:4; stroke-opacity:1; fill:none" points="1981.48,1486.45 1981.48,1467.55 "/>
<polyline clip-path="url(#clip240)" style="stroke:#000000; stroke-linecap:round; stroke-linejoin:round; stroke-width:4; stroke-opacity:1; fill:none" points="2297.74,1486.45 2297.74,1467.55 "/>
<path clip-path="url(#clip240)" d="M339.167 1532.02 L368.843 1532.02 L368.843 1535.95 L339.167 1535.95 L339.167 1532.02 Z" fill="#000000" fill-rule="nonzero" fill-opacity="1" /><path clip-path="url(#clip240)" d="M379.746 1544.91 L387.385 1544.91 L387.385 1518.55 L379.075 1520.21 L379.075 1515.95 L387.338 1514.29 L392.014 1514.29 L392.014 1544.91 L399.653 1544.91 L399.653 1548.85 L379.746 1548.85 L379.746 1544.91 Z" fill="#000000" fill-rule="nonzero" fill-opacity="1" /><path clip-path="url(#clip240)" d="M409.144 1514.29 L427.5 1514.29 L427.5 1518.22 L413.426 1518.22 L413.426 1526.7 Q414.445 1526.35 415.463 1526.19 Q416.482 1526 417.5 1526 Q423.287 1526 426.667 1529.17 Q430.046 1532.34 430.046 1537.76 Q430.046 1543.34 426.574 1546.44 Q423.102 1549.52 416.783 1549.52 Q414.607 1549.52 412.338 1549.15 Q410.093 1548.78 407.685 1548.04 L407.685 1543.34 Q409.769 1544.47 411.991 1545.03 Q414.213 1545.58 416.69 1545.58 Q420.695 1545.58 423.033 1543.48 Q425.371 1541.37 425.371 1537.76 Q425.371 1534.15 423.033 1532.04 Q420.695 1529.94 416.69 1529.94 Q414.815 1529.94 412.94 1530.35 Q411.088 1530.77 409.144 1531.65 L409.144 1514.29 Z" fill="#000000" fill-rule="nonzero" fill-opacity="1" /><path clip-path="url(#clip240)" d="M449.259 1517.37 Q445.648 1517.37 443.82 1520.93 Q442.014 1524.47 442.014 1531.6 Q442.014 1538.71 443.82 1542.27 Q445.648 1545.82 449.259 1545.82 Q452.894 1545.82 454.699 1542.27 Q456.528 1538.71 456.528 1531.6 Q456.528 1524.47 454.699 1520.93 Q452.894 1517.37 449.259 1517.37 M449.259 1513.66 Q455.069 1513.66 458.125 1518.27 Q461.204 1522.85 461.204 1531.6 Q461.204 1540.33 458.125 1544.94 Q455.069 1549.52 449.259 1549.52 Q443.449 1549.52 440.37 1544.94 Q437.315 1540.33 437.315 1531.6 Q437.315 1522.85 440.37 1518.27 Q443.449 1513.66 449.259 1513.66 Z" fill="#000000" fill-rule="nonzero" fill-opacity="1" /><path clip-path="url(#clip240)" d="M655.426 1532.02 L685.102 1532.02 L685.102 1535.95 L655.426 1535.95 L655.426 1532.02 Z" fill="#000000" fill-rule="nonzero" fill-opacity="1" /><path clip-path="url(#clip240)" d="M696.005 1544.91 L703.643 1544.91 L703.643 1518.55 L695.333 1520.21 L695.333 1515.95 L703.597 1514.29 L708.273 1514.29 L708.273 1544.91 L715.912 1544.91 L715.912 1548.85 L696.005 1548.85 L696.005 1544.91 Z" fill="#000000" fill-rule="nonzero" fill-opacity="1" /><path clip-path="url(#clip240)" d="M735.356 1517.37 Q731.745 1517.37 729.916 1520.93 Q728.111 1524.47 728.111 1531.6 Q728.111 1538.71 729.916 1542.27 Q731.745 1545.82 735.356 1545.82 Q738.99 1545.82 740.796 1542.27 Q742.625 1538.71 742.625 1531.6 Q742.625 1524.47 740.796 1520.93 Q738.99 1517.37 735.356 1517.37 M735.356 1513.66 Q741.166 1513.66 744.222 1518.27 Q747.301 1522.85 747.301 1531.6 Q747.301 1540.33 744.222 1544.94 Q741.166 1549.52 735.356 1549.52 Q729.546 1549.52 726.467 1544.94 Q723.412 1540.33 723.412 1531.6 Q723.412 1522.85 726.467 1518.27 Q729.546 1513.66 735.356 1513.66 Z" fill="#000000" fill-rule="nonzero" fill-opacity="1" /><path clip-path="url(#clip240)" d="M765.518 1517.37 Q761.907 1517.37 760.078 1520.93 Q758.273 1524.47 758.273 1531.6 Q758.273 1538.71 760.078 1542.27 Q761.907 1545.82 765.518 1545.82 Q769.152 1545.82 770.958 1542.27 Q772.787 1538.71 772.787 1531.6 Q772.787 1524.47 770.958 1520.93 Q769.152 1517.37 765.518 1517.37 M765.518 1513.66 Q771.328 1513.66 774.384 1518.27 Q777.462 1522.85 777.462 1531.6 Q777.462 1540.33 774.384 1544.94 Q771.328 1549.52 765.518 1549.52 Q759.708 1549.52 756.629 1544.94 Q753.574 1540.33 753.574 1531.6 Q753.574 1522.85 756.629 1518.27 Q759.708 1513.66 765.518 1513.66 Z" fill="#000000" fill-rule="nonzero" fill-opacity="1" /><path clip-path="url(#clip240)" d="M986.766 1532.02 L1016.44 1532.02 L1016.44 1535.95 L986.766 1535.95 L986.766 1532.02 Z" fill="#000000" fill-rule="nonzero" fill-opacity="1" /><path clip-path="url(#clip240)" d="M1026.58 1514.29 L1044.94 1514.29 L1044.94 1518.22 L1030.86 1518.22 L1030.86 1526.7 Q1031.88 1526.35 1032.9 1526.19 Q1033.92 1526 1034.94 1526 Q1040.72 1526 1044.1 1529.17 Q1047.48 1532.34 1047.48 1537.76 Q1047.48 1543.34 1044.01 1546.44 Q1040.54 1549.52 1034.22 1549.52 Q1032.04 1549.52 1029.77 1549.15 Q1027.53 1548.78 1025.12 1548.04 L1025.12 1543.34 Q1027.21 1544.47 1029.43 1545.03 Q1031.65 1545.58 1034.13 1545.58 Q1038.13 1545.58 1040.47 1543.48 Q1042.81 1541.37 1042.81 1537.76 Q1042.81 1534.15 1040.47 1532.04 Q1038.13 1529.94 1034.13 1529.94 Q1032.25 1529.94 1030.38 1530.35 Q1028.52 1530.77 1026.58 1531.65 L1026.58 1514.29 Z" fill="#000000" fill-rule="nonzero" fill-opacity="1" /><path clip-path="url(#clip240)" d="M1066.7 1517.37 Q1063.08 1517.37 1061.26 1520.93 Q1059.45 1524.47 1059.45 1531.6 Q1059.45 1538.71 1061.26 1542.27 Q1063.08 1545.82 1066.7 1545.82 Q1070.33 1545.82 1072.14 1542.27 Q1073.96 1538.71 1073.96 1531.6 Q1073.96 1524.47 1072.14 1520.93 Q1070.33 1517.37 1066.7 1517.37 M1066.7 1513.66 Q1072.51 1513.66 1075.56 1518.27 Q1078.64 1522.85 1078.64 1531.6 Q1078.64 1540.33 1075.56 1544.94 Q1072.51 1549.52 1066.7 1549.52 Q1060.89 1549.52 1057.81 1544.94 Q1054.75 1540.33 1054.75 1531.6 Q1054.75 1522.85 1057.81 1518.27 Q1060.89 1513.66 1066.7 1513.66 Z" fill="#000000" fill-rule="nonzero" fill-opacity="1" /><path clip-path="url(#clip240)" d="M1348.96 1517.37 Q1345.35 1517.37 1343.52 1520.93 Q1341.72 1524.47 1341.72 1531.6 Q1341.72 1538.71 1343.52 1542.27 Q1345.35 1545.82 1348.96 1545.82 Q1352.6 1545.82 1354.4 1542.27 Q1356.23 1538.71 1356.23 1531.6 Q1356.23 1524.47 1354.4 1520.93 Q1352.6 1517.37 1348.96 1517.37 M1348.96 1513.66 Q1354.77 1513.66 1357.83 1518.27 Q1360.91 1522.85 1360.91 1531.6 Q1360.91 1540.33 1357.83 1544.94 Q1354.77 1549.52 1348.96 1549.52 Q1343.15 1549.52 1340.07 1544.94 Q1337.02 1540.33 1337.02 1531.6 Q1337.02 1522.85 1340.07 1518.27 Q1343.15 1513.66 1348.96 1513.66 Z" fill="#000000" fill-rule="nonzero" fill-opacity="1" /><path clip-path="url(#clip240)" d="M1639.92 1514.29 L1658.28 1514.29 L1658.28 1518.22 L1644.2 1518.22 L1644.2 1526.7 Q1645.22 1526.35 1646.24 1526.19 Q1647.26 1526 1648.28 1526 Q1654.06 1526 1657.44 1529.17 Q1660.82 1532.34 1660.82 1537.76 Q1660.82 1543.34 1657.35 1546.44 Q1653.88 1549.52 1647.56 1549.52 Q1645.38 1549.52 1643.11 1549.15 Q1640.87 1548.78 1638.46 1548.04 L1638.46 1543.34 Q1640.54 1544.47 1642.77 1545.03 Q1644.99 1545.58 1647.47 1545.58 Q1651.47 1545.58 1653.81 1543.48 Q1656.15 1541.37 1656.15 1537.76 Q1656.15 1534.15 1653.81 1532.04 Q1651.47 1529.94 1647.47 1529.94 Q1645.59 1529.94 1643.72 1530.35 Q1641.86 1530.77 1639.92 1531.65 L1639.92 1514.29 Z" fill="#000000" fill-rule="nonzero" fill-opacity="1" /><path clip-path="url(#clip240)" d="M1680.04 1517.37 Q1676.42 1517.37 1674.6 1520.93 Q1672.79 1524.47 1672.79 1531.6 Q1672.79 1538.71 1674.6 1542.27 Q1676.42 1545.82 1680.04 1545.82 Q1683.67 1545.82 1685.48 1542.27 Q1687.3 1538.71 1687.3 1531.6 Q1687.3 1524.47 1685.48 1520.93 Q1683.67 1517.37 1680.04 1517.37 M1680.04 1513.66 Q1685.85 1513.66 1688.9 1518.27 Q1691.98 1522.85 1691.98 1531.6 Q1691.98 1540.33 1688.9 1544.94 Q1685.85 1549.52 1680.04 1549.52 Q1674.23 1549.52 1671.15 1544.94 Q1668.09 1540.33 1668.09 1531.6 Q1668.09 1522.85 1671.15 1518.27 Q1674.23 1513.66 1680.04 1513.66 Z" fill="#000000" fill-rule="nonzero" fill-opacity="1" /><path clip-path="url(#clip240)" d="M1941.09 1544.91 L1948.72 1544.91 L1948.72 1518.55 L1940.41 1520.21 L1940.41 1515.95 L1948.68 1514.29 L1953.35 1514.29 L1953.35 1544.91 L1960.99 1544.91 L1960.99 1548.85 L1941.09 1548.85 L1941.09 1544.91 Z" fill="#000000" fill-rule="nonzero" fill-opacity="1" /><path clip-path="url(#clip240)" d="M1980.44 1517.37 Q1976.83 1517.37 1975 1520.93 Q1973.19 1524.47 1973.19 1531.6 Q1973.19 1538.71 1975 1542.27 Q1976.83 1545.82 1980.44 1545.82 Q1984.07 1545.82 1985.88 1542.27 Q1987.71 1538.71 1987.71 1531.6 Q1987.71 1524.47 1985.88 1520.93 Q1984.07 1517.37 1980.44 1517.37 M1980.44 1513.66 Q1986.25 1513.66 1989.3 1518.27 Q1992.38 1522.85 1992.38 1531.6 Q1992.38 1540.33 1989.3 1544.94 Q1986.25 1549.52 1980.44 1549.52 Q1974.63 1549.52 1971.55 1544.94 Q1968.49 1540.33 1968.49 1531.6 Q1968.49 1522.85 1971.55 1518.27 Q1974.63 1513.66 1980.44 1513.66 Z" fill="#000000" fill-rule="nonzero" fill-opacity="1" /><path clip-path="url(#clip240)" d="M2010.6 1517.37 Q2006.99 1517.37 2005.16 1520.93 Q2003.35 1524.47 2003.35 1531.6 Q2003.35 1538.71 2005.16 1542.27 Q2006.99 1545.82 2010.6 1545.82 Q2014.23 1545.82 2016.04 1542.27 Q2017.87 1538.71 2017.87 1531.6 Q2017.87 1524.47 2016.04 1520.93 Q2014.23 1517.37 2010.6 1517.37 M2010.6 1513.66 Q2016.41 1513.66 2019.47 1518.27 Q2022.54 1522.85 2022.54 1531.6 Q2022.54 1540.33 2019.47 1544.94 Q2016.41 1549.52 2010.6 1549.52 Q2004.79 1549.52 2001.71 1544.94 Q1998.66 1540.33 1998.66 1531.6 Q1998.66 1522.85 2001.71 1518.27 Q2004.79 1513.66 2010.6 1513.66 Z" fill="#000000" fill-rule="nonzero" fill-opacity="1" /><path clip-path="url(#clip240)" d="M2257.34 1544.91 L2264.98 1544.91 L2264.98 1518.55 L2256.67 1520.21 L2256.67 1515.95 L2264.94 1514.29 L2269.61 1514.29 L2269.61 1544.91 L2277.25 1544.91 L2277.25 1548.85 L2257.34 1548.85 L2257.34 1544.91 Z" fill="#000000" fill-rule="nonzero" fill-opacity="1" /><path clip-path="url(#clip240)" d="M2286.74 1514.29 L2305.1 1514.29 L2305.1 1518.22 L2291.03 1518.22 L2291.03 1526.7 Q2292.04 1526.35 2293.06 1526.19 Q2294.08 1526 2295.1 1526 Q2300.89 1526 2304.27 1529.17 Q2307.65 1532.34 2307.65 1537.76 Q2307.65 1543.34 2304.17 1546.44 Q2300.7 1549.52 2294.38 1549.52 Q2292.21 1549.52 2289.94 1549.15 Q2287.69 1548.78 2285.28 1548.04 L2285.28 1543.34 Q2287.37 1544.47 2289.59 1545.03 Q2291.81 1545.58 2294.29 1545.58 Q2298.29 1545.58 2300.63 1543.48 Q2302.97 1541.37 2302.97 1537.76 Q2302.97 1534.15 2300.63 1532.04 Q2298.29 1529.94 2294.29 1529.94 Q2292.41 1529.94 2290.54 1530.35 Q2288.69 1530.77 2286.74 1531.65 L2286.74 1514.29 Z" fill="#000000" fill-rule="nonzero" fill-opacity="1" /><path clip-path="url(#clip240)" d="M2326.86 1517.37 Q2323.25 1517.37 2321.42 1520.93 Q2319.61 1524.47 2319.61 1531.6 Q2319.61 1538.71 2321.42 1542.27 Q2323.25 1545.82 2326.86 1545.82 Q2330.49 1545.82 2332.3 1542.27 Q2334.13 1538.71 2334.13 1531.6 Q2334.13 1524.47 2332.3 1520.93 Q2330.49 1517.37 2326.86 1517.37 M2326.86 1513.66 Q2332.67 1513.66 2335.72 1518.27 Q2338.8 1522.85 2338.8 1531.6 Q2338.8 1540.33 2335.72 1544.94 Q2332.67 1549.52 2326.86 1549.52 Q2321.05 1549.52 2317.97 1544.94 Q2314.91 1540.33 2314.91 1531.6 Q2314.91 1522.85 2317.97 1518.27 Q2321.05 1513.66 2326.86 1513.66 Z" fill="#000000" fill-rule="nonzero" fill-opacity="1" /><polyline clip-path="url(#clip240)" style="stroke:#000000; stroke-linecap:round; stroke-linejoin:round; stroke-width:4; stroke-opacity:1; fill:none" points="343.315,1486.45 343.315,183.952 "/>
<polyline clip-path="url(#clip240)" style="stroke:#000000; stroke-linecap:round; stroke-linejoin:round; stroke-width:4; stroke-opacity:1; fill:none" points="343.315,1381.41 362.212,1381.41 "/>
<polyline clip-path="url(#clip240)" style="stroke:#000000; stroke-linecap:round; stroke-linejoin:round; stroke-width:4; stroke-opacity:1; fill:none" points="343.315,1084.85 362.212,1084.85 "/>
<polyline clip-path="url(#clip240)" style="stroke:#000000; stroke-linecap:round; stroke-linejoin:round; stroke-width:4; stroke-opacity:1; fill:none" points="343.315,788.286 362.212,788.286 "/>
<polyline clip-path="url(#clip240)" style="stroke:#000000; stroke-linecap:round; stroke-linejoin:round; stroke-width:4; stroke-opacity:1; fill:none" points="343.315,491.721 362.212,491.721 "/>
<polyline clip-path="url(#clip240)" style="stroke:#000000; stroke-linecap:round; stroke-linejoin:round; stroke-width:4; stroke-opacity:1; fill:none" points="343.315,195.156 362.212,195.156 "/>
<path clip-path="url(#clip240)" d="M50.9921 1388.31 L80.6679 1388.31 L80.6679 1392.25 L50.9921 1392.25 L50.9921 1388.31 Z" fill="#000000" fill-rule="nonzero" fill-opacity="1" /><path clip-path="url(#clip240)" d="M94.7882 1401.21 L111.108 1401.21 L111.108 1405.14 L89.1632 1405.14 L89.1632 1401.21 Q91.8252 1398.45 96.4085 1393.82 Q101.015 1389.17 102.196 1387.83 Q104.441 1385.3 105.321 1383.57 Q106.223 1381.81 106.223 1380.12 Q106.223 1377.36 104.279 1375.63 Q102.358 1373.89 99.2558 1373.89 Q97.0567 1373.89 94.603 1374.66 Q92.1725 1375.42 89.3947 1376.97 L89.3947 1372.25 Q92.2188 1371.11 94.6724 1370.54 Q97.1261 1369.96 99.1632 1369.96 Q104.534 1369.96 107.728 1372.64 Q110.922 1375.33 110.922 1379.82 Q110.922 1381.95 110.112 1383.87 Q109.325 1385.77 107.219 1388.36 Q106.64 1389.03 103.538 1392.25 Q100.436 1395.44 94.7882 1401.21 Z" fill="#000000" fill-rule="nonzero" fill-opacity="1" /><path clip-path="url(#clip240)" d="M120.922 1399.26 L125.807 1399.26 L125.807 1405.14 L120.922 1405.14 L120.922 1399.26 Z" fill="#000000" fill-rule="nonzero" fill-opacity="1" /><path clip-path="url(#clip240)" d="M145.992 1373.66 Q142.381 1373.66 140.552 1377.23 Q138.746 1380.77 138.746 1387.9 Q138.746 1395 140.552 1398.57 Q142.381 1402.11 145.992 1402.11 Q149.626 1402.11 151.431 1398.57 Q153.26 1395 153.26 1387.9 Q153.26 1380.77 151.431 1377.23 Q149.626 1373.66 145.992 1373.66 M145.992 1369.96 Q151.802 1369.96 154.857 1374.56 Q157.936 1379.15 157.936 1387.9 Q157.936 1396.62 154.857 1401.23 Q151.802 1405.81 145.992 1405.81 Q140.181 1405.81 137.103 1401.23 Q134.047 1396.62 134.047 1387.9 Q134.047 1379.15 137.103 1374.56 Q140.181 1369.96 145.992 1369.96 Z" fill="#000000" fill-rule="nonzero" fill-opacity="1" /><path clip-path="url(#clip240)" d="M194.325 1379.68 L183.746 1390.3 L194.325 1400.88 L191.57 1403.68 L180.945 1393.06 L170.32 1403.68 L167.589 1400.88 L178.144 1390.3 L167.589 1379.68 L170.32 1376.88 L180.945 1387.5 L191.57 1376.88 L194.325 1379.68 Z" fill="#000000" fill-rule="nonzero" fill-opacity="1" /><path clip-path="url(#clip240)" d="M206.686 1401.21 L214.325 1401.21 L214.325 1374.84 L206.014 1376.51 L206.014 1372.25 L214.278 1370.58 L218.954 1370.58 L218.954 1401.21 L226.593 1401.21 L226.593 1405.14 L206.686 1405.14 L206.686 1401.21 Z" fill="#000000" fill-rule="nonzero" fill-opacity="1" /><path clip-path="url(#clip240)" d="M246.037 1373.66 Q242.426 1373.66 240.598 1377.23 Q238.792 1380.77 238.792 1387.9 Q238.792 1395 240.598 1398.57 Q242.426 1402.11 246.037 1402.11 Q249.672 1402.11 251.477 1398.57 Q253.306 1395 253.306 1387.9 Q253.306 1380.77 251.477 1377.23 Q249.672 1373.66 246.037 1373.66 M246.037 1369.96 Q251.848 1369.96 254.903 1374.56 Q257.982 1379.15 257.982 1387.9 Q257.982 1396.62 254.903 1401.23 Q251.848 1405.81 246.037 1405.81 Q240.227 1405.81 237.149 1401.23 Q234.093 1396.62 234.093 1387.9 Q234.093 1379.15 237.149 1374.56 Q240.227 1369.96 246.037 1369.96 Z" fill="#000000" fill-rule="nonzero" fill-opacity="1" /><path clip-path="url(#clip240)" d="M257.982 1364.06 L282.093 1364.06 L282.093 1367.26 L257.982 1367.26 L257.982 1364.06 Z" fill="#000000" fill-rule="nonzero" fill-opacity="1" /><path clip-path="url(#clip240)" d="M290.331 1349.65 L305.246 1349.65 L305.246 1352.85 L293.811 1352.85 L293.811 1359.73 Q294.638 1359.45 295.466 1359.32 Q296.293 1359.17 297.121 1359.17 Q301.823 1359.17 304.569 1361.75 Q307.315 1364.32 307.315 1368.72 Q307.315 1373.26 304.493 1375.78 Q301.672 1378.28 296.538 1378.28 Q294.77 1378.28 292.927 1377.98 Q291.102 1377.68 289.146 1377.07 L289.146 1373.26 Q290.839 1374.18 292.644 1374.63 Q294.45 1375.08 296.462 1375.08 Q299.716 1375.08 301.616 1373.37 Q303.515 1371.66 303.515 1368.72 Q303.515 1365.79 301.616 1364.08 Q299.716 1362.37 296.462 1362.37 Q294.939 1362.37 293.416 1362.7 Q291.911 1363.04 290.331 1363.76 L290.331 1349.65 Z" fill="#000000" fill-rule="nonzero" fill-opacity="1" /><path clip-path="url(#clip240)" d="M50.9921 1091.75 L80.6679 1091.75 L80.6679 1095.68 L50.9921 1095.68 L50.9921 1091.75 Z" fill="#000000" fill-rule="nonzero" fill-opacity="1" /><path clip-path="url(#clip240)" d="M91.5706 1104.64 L99.2095 1104.64 L99.2095 1078.28 L90.8993 1079.94 L90.8993 1075.68 L99.1632 1074.02 L103.839 1074.02 L103.839 1104.64 L111.478 1104.64 L111.478 1108.58 L91.5706 1108.58 L91.5706 1104.64 Z" fill="#000000" fill-rule="nonzero" fill-opacity="1" /><path clip-path="url(#clip240)" d="M120.922 1102.7 L125.807 1102.7 L125.807 1108.58 L120.922 1108.58 L120.922 1102.7 Z" fill="#000000" fill-rule="nonzero" fill-opacity="1" /><path clip-path="url(#clip240)" d="M145.992 1077.1 Q142.381 1077.1 140.552 1080.66 Q138.746 1084.2 138.746 1091.33 Q138.746 1098.44 140.552 1102 Q142.381 1105.55 145.992 1105.55 Q149.626 1105.55 151.431 1102 Q153.26 1098.44 153.26 1091.33 Q153.26 1084.2 151.431 1080.66 Q149.626 1077.1 145.992 1077.1 M145.992 1073.39 Q151.802 1073.39 154.857 1078 Q157.936 1082.58 157.936 1091.33 Q157.936 1100.06 154.857 1104.67 Q151.802 1109.25 145.992 1109.25 Q140.181 1109.25 137.103 1104.67 Q134.047 1100.06 134.047 1091.33 Q134.047 1082.58 137.103 1078 Q140.181 1073.39 145.992 1073.39 Z" fill="#000000" fill-rule="nonzero" fill-opacity="1" /><path clip-path="url(#clip240)" d="M194.325 1083.12 L183.746 1093.74 L194.325 1104.32 L191.57 1107.12 L180.945 1096.49 L170.32 1107.12 L167.589 1104.32 L178.144 1093.74 L167.589 1083.12 L170.32 1080.31 L180.945 1090.94 L191.57 1080.31 L194.325 1083.12 Z" fill="#000000" fill-rule="nonzero" fill-opacity="1" /><path clip-path="url(#clip240)" d="M206.686 1104.64 L214.325 1104.64 L214.325 1078.28 L206.014 1079.94 L206.014 1075.68 L214.278 1074.02 L218.954 1074.02 L218.954 1104.64 L226.593 1104.64 L226.593 1108.58 L206.686 1108.58 L206.686 1104.64 Z" fill="#000000" fill-rule="nonzero" fill-opacity="1" /><path clip-path="url(#clip240)" d="M246.037 1077.1 Q242.426 1077.1 240.598 1080.66 Q238.792 1084.2 238.792 1091.33 Q238.792 1098.44 240.598 1102 Q242.426 1105.55 246.037 1105.55 Q249.672 1105.55 251.477 1102 Q253.306 1098.44 253.306 1091.33 Q253.306 1084.2 251.477 1080.66 Q249.672 1077.1 246.037 1077.1 M246.037 1073.39 Q251.848 1073.39 254.903 1078 Q257.982 1082.58 257.982 1091.33 Q257.982 1100.06 254.903 1104.67 Q251.848 1109.25 246.037 1109.25 Q240.227 1109.25 237.149 1104.67 Q234.093 1100.06 234.093 1091.33 Q234.093 1082.58 237.149 1078 Q240.227 1073.39 246.037 1073.39 Z" fill="#000000" fill-rule="nonzero" fill-opacity="1" /><path clip-path="url(#clip240)" d="M257.982 1067.49 L282.093 1067.49 L282.093 1070.69 L257.982 1070.69 L257.982 1067.49 Z" fill="#000000" fill-rule="nonzero" fill-opacity="1" /><path clip-path="url(#clip240)" d="M290.331 1053.09 L305.246 1053.09 L305.246 1056.28 L293.811 1056.28 L293.811 1063.17 Q294.638 1062.89 295.466 1062.75 Q296.293 1062.6 297.121 1062.6 Q301.823 1062.6 304.569 1065.18 Q307.315 1067.76 307.315 1072.16 Q307.315 1076.69 304.493 1079.21 Q301.672 1081.71 296.538 1081.71 Q294.77 1081.71 292.927 1081.41 Q291.102 1081.11 289.146 1080.51 L289.146 1076.69 Q290.839 1077.61 292.644 1078.06 Q294.45 1078.52 296.462 1078.52 Q299.716 1078.52 301.616 1076.8 Q303.515 1075.09 303.515 1072.16 Q303.515 1069.22 301.616 1067.51 Q299.716 1065.8 296.462 1065.8 Q294.939 1065.8 293.416 1066.14 Q291.911 1066.48 290.331 1067.19 L290.331 1053.09 Z" fill="#000000" fill-rule="nonzero" fill-opacity="1" /><path clip-path="url(#clip240)" d="M295.37 774.084 Q291.759 774.084 289.93 777.649 Q288.125 781.191 288.125 788.32 Q288.125 795.427 289.93 798.992 Q291.759 802.533 295.37 802.533 Q299.004 802.533 300.81 798.992 Q302.639 795.427 302.639 788.32 Q302.639 781.191 300.81 777.649 Q299.004 774.084 295.37 774.084 M295.37 770.381 Q301.18 770.381 304.236 774.987 Q307.315 779.57 307.315 788.32 Q307.315 797.047 304.236 801.654 Q301.18 806.237 295.37 806.237 Q289.56 806.237 286.481 801.654 Q283.426 797.047 283.426 788.32 Q283.426 779.57 286.481 774.987 Q289.56 770.381 295.37 770.381 Z" fill="#000000" fill-rule="nonzero" fill-opacity="1" /><path clip-path="url(#clip240)" d="M91.5706 511.513 L99.2095 511.513 L99.2095 485.148 L90.8993 486.814 L90.8993 482.555 L99.1632 480.889 L103.839 480.889 L103.839 511.513 L111.478 511.513 L111.478 515.449 L91.5706 515.449 L91.5706 511.513 Z" fill="#000000" fill-rule="nonzero" fill-opacity="1" /><path clip-path="url(#clip240)" d="M120.922 509.569 L125.807 509.569 L125.807 515.449 L120.922 515.449 L120.922 509.569 Z" fill="#000000" fill-rule="nonzero" fill-opacity="1" /><path clip-path="url(#clip240)" d="M145.992 483.967 Q142.381 483.967 140.552 487.532 Q138.746 491.074 138.746 498.203 Q138.746 505.31 140.552 508.875 Q142.381 512.416 145.992 512.416 Q149.626 512.416 151.431 508.875 Q153.26 505.31 153.26 498.203 Q153.26 491.074 151.431 487.532 Q149.626 483.967 145.992 483.967 M145.992 480.264 Q151.802 480.264 154.857 484.87 Q157.936 489.453 157.936 498.203 Q157.936 506.93 154.857 511.537 Q151.802 516.12 145.992 516.12 Q140.181 516.12 137.103 511.537 Q134.047 506.93 134.047 498.203 Q134.047 489.453 137.103 484.87 Q140.181 480.264 145.992 480.264 Z" fill="#000000" fill-rule="nonzero" fill-opacity="1" /><path clip-path="url(#clip240)" d="M194.325 489.986 L183.746 500.611 L194.325 511.189 L191.57 513.99 L180.945 503.365 L170.32 513.99 L167.589 511.189 L178.144 500.611 L167.589 489.986 L170.32 487.185 L180.945 497.81 L191.57 487.185 L194.325 489.986 Z" fill="#000000" fill-rule="nonzero" fill-opacity="1" /><path clip-path="url(#clip240)" d="M206.686 511.513 L214.325 511.513 L214.325 485.148 L206.014 486.814 L206.014 482.555 L214.278 480.889 L218.954 480.889 L218.954 511.513 L226.593 511.513 L226.593 515.449 L206.686 515.449 L206.686 511.513 Z" fill="#000000" fill-rule="nonzero" fill-opacity="1" /><path clip-path="url(#clip240)" d="M246.037 483.967 Q242.426 483.967 240.598 487.532 Q238.792 491.074 238.792 498.203 Q238.792 505.31 240.598 508.875 Q242.426 512.416 246.037 512.416 Q249.672 512.416 251.477 508.875 Q253.306 505.31 253.306 498.203 Q253.306 491.074 251.477 487.532 Q249.672 483.967 246.037 483.967 M246.037 480.264 Q251.848 480.264 254.903 484.87 Q257.982 489.453 257.982 498.203 Q257.982 506.93 254.903 511.537 Q251.848 516.12 246.037 516.12 Q240.227 516.12 237.149 511.537 Q234.093 506.93 234.093 498.203 Q234.093 489.453 237.149 484.87 Q240.227 480.264 246.037 480.264 Z" fill="#000000" fill-rule="nonzero" fill-opacity="1" /><path clip-path="url(#clip240)" d="M257.982 474.365 L282.093 474.365 L282.093 477.562 L257.982 477.562 L257.982 474.365 Z" fill="#000000" fill-rule="nonzero" fill-opacity="1" /><path clip-path="url(#clip240)" d="M290.331 459.958 L305.246 459.958 L305.246 463.155 L293.811 463.155 L293.811 470.039 Q294.638 469.757 295.466 469.625 Q296.293 469.475 297.121 469.475 Q301.823 469.475 304.569 472.052 Q307.315 474.628 307.315 479.029 Q307.315 483.562 304.493 486.082 Q301.672 488.584 296.538 488.584 Q294.77 488.584 292.927 488.283 Q291.102 487.982 289.146 487.38 L289.146 483.562 Q290.839 484.483 292.644 484.935 Q294.45 485.386 296.462 485.386 Q299.716 485.386 301.616 483.675 Q303.515 481.963 303.515 479.029 Q303.515 476.095 301.616 474.384 Q299.716 472.672 296.462 472.672 Q294.939 472.672 293.416 473.011 Q291.911 473.349 290.331 474.064 L290.331 459.958 Z" fill="#000000" fill-rule="nonzero" fill-opacity="1" /><path clip-path="url(#clip240)" d="M94.7882 214.949 L111.108 214.949 L111.108 218.884 L89.1632 218.884 L89.1632 214.949 Q91.8252 212.194 96.4085 207.565 Q101.015 202.912 102.196 201.569 Q104.441 199.046 105.321 197.31 Q106.223 195.551 106.223 193.861 Q106.223 191.106 104.279 189.37 Q102.358 187.634 99.2558 187.634 Q97.0567 187.634 94.603 188.398 Q92.1725 189.162 89.3947 190.713 L89.3947 185.991 Q92.2188 184.856 94.6724 184.278 Q97.1261 183.699 99.1632 183.699 Q104.534 183.699 107.728 186.384 Q110.922 189.069 110.922 193.56 Q110.922 195.69 110.112 197.611 Q109.325 199.509 107.219 202.102 Q106.64 202.773 103.538 205.99 Q100.436 209.185 94.7882 214.949 Z" fill="#000000" fill-rule="nonzero" fill-opacity="1" /><path clip-path="url(#clip240)" d="M120.922 213.004 L125.807 213.004 L125.807 218.884 L120.922 218.884 L120.922 213.004 Z" fill="#000000" fill-rule="nonzero" fill-opacity="1" /><path clip-path="url(#clip240)" d="M145.992 187.403 Q142.381 187.403 140.552 190.967 Q138.746 194.509 138.746 201.639 Q138.746 208.745 140.552 212.31 Q142.381 215.852 145.992 215.852 Q149.626 215.852 151.431 212.31 Q153.26 208.745 153.26 201.639 Q153.26 194.509 151.431 190.967 Q149.626 187.403 145.992 187.403 M145.992 183.699 Q151.802 183.699 154.857 188.305 Q157.936 192.889 157.936 201.639 Q157.936 210.365 154.857 214.972 Q151.802 219.555 145.992 219.555 Q140.181 219.555 137.103 214.972 Q134.047 210.365 134.047 201.639 Q134.047 192.889 137.103 188.305 Q140.181 183.699 145.992 183.699 Z" fill="#000000" fill-rule="nonzero" fill-opacity="1" /><path clip-path="url(#clip240)" d="M194.325 193.421 L183.746 204.046 L194.325 214.625 L191.57 217.426 L180.945 206.801 L170.32 217.426 L167.589 214.625 L178.144 204.046 L167.589 193.421 L170.32 190.62 L180.945 201.245 L191.57 190.62 L194.325 193.421 Z" fill="#000000" fill-rule="nonzero" fill-opacity="1" /><path clip-path="url(#clip240)" d="M206.686 214.949 L214.325 214.949 L214.325 188.583 L206.014 190.25 L206.014 185.991 L214.278 184.324 L218.954 184.324 L218.954 214.949 L226.593 214.949 L226.593 218.884 L206.686 218.884 L206.686 214.949 Z" fill="#000000" fill-rule="nonzero" fill-opacity="1" /><path clip-path="url(#clip240)" d="M246.037 187.403 Q242.426 187.403 240.598 190.967 Q238.792 194.509 238.792 201.639 Q238.792 208.745 240.598 212.31 Q242.426 215.852 246.037 215.852 Q249.672 215.852 251.477 212.31 Q253.306 208.745 253.306 201.639 Q253.306 194.509 251.477 190.967 Q249.672 187.403 246.037 187.403 M246.037 183.699 Q251.848 183.699 254.903 188.305 Q257.982 192.889 257.982 201.639 Q257.982 210.365 254.903 214.972 Q251.848 219.555 246.037 219.555 Q240.227 219.555 237.149 214.972 Q234.093 210.365 234.093 201.639 Q234.093 192.889 237.149 188.305 Q240.227 183.699 246.037 183.699 Z" fill="#000000" fill-rule="nonzero" fill-opacity="1" /><path clip-path="url(#clip240)" d="M257.982 177.8 L282.093 177.8 L282.093 180.998 L257.982 180.998 L257.982 177.8 Z" fill="#000000" fill-rule="nonzero" fill-opacity="1" /><path clip-path="url(#clip240)" d="M290.331 163.394 L305.246 163.394 L305.246 166.591 L293.811 166.591 L293.811 173.474 Q294.638 173.192 295.466 173.061 Q296.293 172.91 297.121 172.91 Q301.823 172.91 304.569 175.487 Q307.315 178.064 307.315 182.465 Q307.315 186.997 304.493 189.517 Q301.672 192.019 296.538 192.019 Q294.77 192.019 292.927 191.718 Q291.102 191.417 289.146 190.815 L289.146 186.997 Q290.839 187.919 292.644 188.37 Q294.45 188.822 296.462 188.822 Q299.716 188.822 301.616 187.11 Q303.515 185.399 303.515 182.465 Q303.515 179.531 301.616 177.819 Q299.716 176.108 296.462 176.108 Q294.939 176.108 293.416 176.446 Q291.911 176.785 290.331 177.499 L290.331 163.394 Z" fill="#000000" fill-rule="nonzero" fill-opacity="1" /><path clip-path="url(#clip240)" d="M446.932 55.2604 L446.932 30.7119 L454.385 30.7119 L454.385 93.744 L446.932 93.744 L446.932 86.9385 Q444.582 90.9894 440.977 92.9743 Q437.412 94.9188 432.389 94.9188 Q424.166 94.9188 418.981 88.3563 Q413.836 81.7938 413.836 71.0994 Q413.836 60.4051 418.981 53.8426 Q424.166 47.2801 432.389 47.2801 Q437.412 47.2801 440.977 49.2651 Q444.582 51.2095 446.932 55.2604 M421.533 71.0994 Q421.533 79.3228 424.895 84.0218 Q428.298 88.6804 434.212 88.6804 Q440.126 88.6804 443.529 84.0218 Q446.932 79.3228 446.932 71.0994 Q446.932 62.8761 443.529 58.2176 Q440.126 53.5185 434.212 53.5185 Q428.298 53.5185 424.895 58.2176 Q421.533 62.8761 421.533 71.0994 Z" fill="#000000" fill-rule="nonzero" fill-opacity="1" /><path clip-path="url(#clip240)" d="M469.738 48.3739 L477.192 48.3739 L477.192 93.744 L469.738 93.744 L469.738 48.3739 M469.738 30.7119 L477.192 30.7119 L477.192 40.1505 L469.738 40.1505 L469.738 30.7119 Z" fill="#000000" fill-rule="nonzero" fill-opacity="1" /><path clip-path="url(#clip240)" d="M515.757 30.7119 L515.757 36.9098 L508.627 36.9098 Q504.617 36.9098 503.037 38.5302 Q501.498 40.1505 501.498 44.3635 L501.498 48.3739 L513.772 48.3739 L513.772 54.1667 L501.498 54.1667 L501.498 93.744 L494.003 93.744 L494.003 54.1667 L486.874 54.1667 L486.874 48.3739 L494.003 48.3739 L494.003 45.2142 Q494.003 37.639 497.528 34.1957 Q501.052 30.7119 508.708 30.7119 L515.757 30.7119 Z" fill="#000000" fill-rule="nonzero" fill-opacity="1" /><path clip-path="url(#clip240)" d="M544.964 30.7119 L544.964 36.9098 L537.834 36.9098 Q533.824 36.9098 532.244 38.5302 Q530.705 40.1505 530.705 44.3635 L530.705 48.3739 L542.979 48.3739 L542.979 54.1667 L530.705 54.1667 L530.705 93.744 L523.21 93.744 L523.21 54.1667 L516.081 54.1667 L516.081 48.3739 L523.21 48.3739 L523.21 45.2142 Q523.21 37.639 526.735 34.1957 Q530.259 30.7119 537.915 30.7119 L544.964 30.7119 Z" fill="#000000" fill-rule="nonzero" fill-opacity="1" /><path clip-path="url(#clip240)" d="M590.01 69.1955 L590.01 72.8413 L555.739 72.8413 Q556.225 80.5381 560.357 84.589 Q564.53 88.5994 571.943 88.5994 Q576.237 88.5994 580.247 87.5461 Q584.298 86.4929 588.268 84.3864 L588.268 91.435 Q584.257 93.1364 580.045 94.0276 Q575.832 94.9188 571.497 94.9188 Q560.641 94.9188 554.281 88.5994 Q547.961 82.2799 547.961 71.5045 Q547.961 60.3645 553.957 53.8426 Q559.993 47.2801 570.201 47.2801 Q579.356 47.2801 584.663 53.1944 Q590.01 59.0683 590.01 69.1955 M582.556 67.008 Q582.475 60.8912 579.113 57.2454 Q575.791 53.5995 570.282 53.5995 Q564.043 53.5995 560.276 57.1238 Q556.549 60.6481 555.982 67.0485 L582.556 67.008 Z" fill="#000000" fill-rule="nonzero" fill-opacity="1" /><path clip-path="url(#clip240)" d="M628.534 55.3414 Q627.278 54.6123 625.779 54.2882 Q624.321 53.9236 622.539 53.9236 Q616.219 53.9236 612.816 58.0555 Q609.454 62.1469 609.454 69.8437 L609.454 93.744 L601.96 93.744 L601.96 48.3739 L609.454 48.3739 L609.454 55.4224 Q611.804 51.2905 615.571 49.3056 Q619.338 47.2801 624.726 47.2801 Q625.496 47.2801 626.427 47.4017 Q627.359 47.4827 628.493 47.6852 L628.534 55.3414 Z" fill="#000000" fill-rule="nonzero" fill-opacity="1" /><path clip-path="url(#clip240)" d="M673.337 69.1955 L673.337 72.8413 L639.066 72.8413 Q639.552 80.5381 643.684 84.589 Q647.857 88.5994 655.27 88.5994 Q659.564 88.5994 663.574 87.5461 Q667.625 86.4929 671.595 84.3864 L671.595 91.435 Q667.585 93.1364 663.372 94.0276 Q659.159 94.9188 654.824 94.9188 Q643.968 94.9188 637.608 88.5994 Q631.288 82.2799 631.288 71.5045 Q631.288 60.3645 637.284 53.8426 Q643.32 47.2801 653.528 47.2801 Q662.683 47.2801 667.99 53.1944 Q673.337 59.0683 673.337 69.1955 M665.883 67.008 Q665.802 60.8912 662.44 57.2454 Q659.118 53.5995 653.609 53.5995 Q647.371 53.5995 643.603 57.1238 Q639.876 60.6481 639.309 67.0485 L665.883 67.008 Z" fill="#000000" fill-rule="nonzero" fill-opacity="1" /><path clip-path="url(#clip240)" d="M723.285 66.3599 L723.285 93.744 L715.831 93.744 L715.831 66.6029 Q715.831 60.162 713.319 56.9618 Q710.808 53.7616 705.785 53.7616 Q699.749 53.7616 696.265 57.6099 Q692.781 61.4583 692.781 68.1018 L692.781 93.744 L685.287 93.744 L685.287 48.3739 L692.781 48.3739 L692.781 55.4224 Q695.455 51.331 699.06 49.3056 Q702.706 47.2801 707.445 47.2801 Q715.264 47.2801 719.274 52.1412 Q723.285 56.9618 723.285 66.3599 Z" fill="#000000" fill-rule="nonzero" fill-opacity="1" /><path clip-path="url(#clip240)" d="M770.802 50.1158 L770.802 57.0833 Q767.642 55.3414 764.442 54.4907 Q761.282 53.5995 758.041 53.5995 Q750.79 53.5995 746.78 58.2176 Q742.769 62.7951 742.769 71.0994 Q742.769 79.4038 746.78 84.0218 Q750.79 88.5994 758.041 88.5994 Q761.282 88.5994 764.442 87.7487 Q767.642 86.8575 770.802 85.1156 L770.802 92.0021 Q767.682 93.4604 764.32 94.1896 Q760.998 94.9188 757.231 94.9188 Q746.982 94.9188 740.946 88.4778 Q734.911 82.0369 734.911 71.0994 Q734.911 60 740.987 53.64 Q747.104 47.2801 757.717 47.2801 Q761.16 47.2801 764.442 48.0093 Q767.723 48.6979 770.802 50.1158 Z" fill="#000000" fill-rule="nonzero" fill-opacity="1" /><path clip-path="url(#clip240)" d="M822.572 69.1955 L822.572 72.8413 L788.302 72.8413 Q788.788 80.5381 792.92 84.589 Q797.092 88.5994 804.505 88.5994 Q808.799 88.5994 812.81 87.5461 Q816.86 86.4929 820.83 84.3864 L820.83 91.435 Q816.82 93.1364 812.607 94.0276 Q808.394 94.9188 804.06 94.9188 Q793.203 94.9188 786.843 88.5994 Q780.524 82.2799 780.524 71.5045 Q780.524 60.3645 786.519 53.8426 Q792.555 47.2801 802.763 47.2801 Q811.918 47.2801 817.225 53.1944 Q822.572 59.0683 822.572 69.1955 M815.119 67.008 Q815.037 60.8912 811.675 57.2454 Q808.354 53.5995 802.844 53.5995 Q796.606 53.5995 792.839 57.1238 Q789.112 60.6481 788.545 67.0485 L815.119 67.008 Z" fill="#000000" fill-rule="nonzero" fill-opacity="1" /><path clip-path="url(#clip240)" d="M893.747 71.0994 Q893.747 62.8761 890.344 58.2176 Q886.982 53.5185 881.067 53.5185 Q875.153 53.5185 871.75 58.2176 Q868.388 62.8761 868.388 71.0994 Q868.388 79.3228 871.75 84.0218 Q875.153 88.6804 881.067 88.6804 Q886.982 88.6804 890.344 84.0218 Q893.747 79.3228 893.747 71.0994 M868.388 55.2604 Q870.737 51.2095 874.302 49.2651 Q877.908 47.2801 882.89 47.2801 Q891.154 47.2801 896.299 53.8426 Q901.484 60.4051 901.484 71.0994 Q901.484 81.7938 896.299 88.3563 Q891.154 94.9188 882.89 94.9188 Q877.908 94.9188 874.302 92.9743 Q870.737 90.9894 868.388 86.9385 L868.388 93.744 L860.894 93.744 L860.894 30.7119 L868.388 30.7119 L868.388 55.2604 Z" fill="#000000" fill-rule="nonzero" fill-opacity="1" /><path clip-path="url(#clip240)" d="M952.647 69.1955 L952.647 72.8413 L918.376 72.8413 Q918.862 80.5381 922.994 84.589 Q927.167 88.5994 934.58 88.5994 Q938.874 88.5994 942.884 87.5461 Q946.935 86.4929 950.905 84.3864 L950.905 91.435 Q946.894 93.1364 942.681 94.0276 Q938.469 94.9188 934.134 94.9188 Q923.278 94.9188 916.918 88.5994 Q910.598 82.2799 910.598 71.5045 Q910.598 60.3645 916.594 53.8426 Q922.63 47.2801 932.838 47.2801 Q941.993 47.2801 947.3 53.1944 Q952.647 59.0683 952.647 69.1955 M945.193 67.008 Q945.112 60.8912 941.75 57.2454 Q938.428 53.5995 932.919 53.5995 Q926.68 53.5995 922.913 57.1238 Q919.186 60.6481 918.619 67.0485 L945.193 67.008 Z" fill="#000000" fill-rule="nonzero" fill-opacity="1" /><path clip-path="url(#clip240)" d="M972.253 35.492 L972.253 48.3739 L987.606 48.3739 L987.606 54.1667 L972.253 54.1667 L972.253 78.7962 Q972.253 84.3459 973.752 85.9258 Q975.291 87.5056 979.95 87.5056 L987.606 87.5056 L987.606 93.744 L979.95 93.744 Q971.321 93.744 968.04 90.5438 Q964.759 87.3031 964.759 78.7962 L964.759 54.1667 L959.29 54.1667 L959.29 48.3739 L964.759 48.3739 L964.759 35.492 L972.253 35.492 Z" fill="#000000" fill-rule="nonzero" fill-opacity="1" /><path clip-path="url(#clip240)" d="M993.075 48.3739 L1000.53 48.3739 L1009.85 83.7788 L1019.12 48.3739 L1027.91 48.3739 L1037.23 83.7788 L1046.51 48.3739 L1053.96 48.3739 L1042.09 93.744 L1033.3 93.744 L1023.54 56.5567 L1013.73 93.744 L1004.94 93.744 L993.075 48.3739 Z" fill="#000000" fill-rule="nonzero" fill-opacity="1" /><path clip-path="url(#clip240)" d="M1104.07 69.1955 L1104.07 72.8413 L1069.8 72.8413 Q1070.28 80.5381 1074.42 84.589 Q1078.59 88.5994 1086 88.5994 Q1090.3 88.5994 1094.31 87.5461 Q1098.36 86.4929 1102.33 84.3864 L1102.33 91.435 Q1098.32 93.1364 1094.1 94.0276 Q1089.89 94.9188 1085.56 94.9188 Q1074.7 94.9188 1068.34 88.5994 Q1062.02 82.2799 1062.02 71.5045 Q1062.02 60.3645 1068.02 53.8426 Q1074.05 47.2801 1084.26 47.2801 Q1093.42 47.2801 1098.72 53.1944 Q1104.07 59.0683 1104.07 69.1955 M1096.62 67.008 Q1096.53 60.8912 1093.17 57.2454 Q1089.85 53.5995 1084.34 53.5995 Q1078.1 53.5995 1074.34 57.1238 Q1070.61 60.6481 1070.04 67.0485 L1096.62 67.008 Z" fill="#000000" fill-rule="nonzero" fill-opacity="1" /><path clip-path="url(#clip240)" d="M1155.11 69.1955 L1155.11 72.8413 L1120.84 72.8413 Q1121.33 80.5381 1125.46 84.589 Q1129.63 88.5994 1137.04 88.5994 Q1141.34 88.5994 1145.35 87.5461 Q1149.4 86.4929 1153.37 84.3864 L1153.37 91.435 Q1149.36 93.1364 1145.15 94.0276 Q1140.93 94.9188 1136.6 94.9188 Q1125.74 94.9188 1119.38 88.5994 Q1113.06 82.2799 1113.06 71.5045 Q1113.06 60.3645 1119.06 53.8426 Q1125.09 47.2801 1135.3 47.2801 Q1144.46 47.2801 1149.76 53.1944 Q1155.11 59.0683 1155.11 69.1955 M1147.66 67.008 Q1147.58 60.8912 1144.21 57.2454 Q1140.89 53.5995 1135.38 53.5995 Q1129.14 53.5995 1125.38 57.1238 Q1121.65 60.6481 1121.08 67.0485 L1147.66 67.008 Z" fill="#000000" fill-rule="nonzero" fill-opacity="1" /><path clip-path="url(#clip240)" d="M1205.06 66.3599 L1205.06 93.744 L1197.6 93.744 L1197.6 66.6029 Q1197.6 60.162 1195.09 56.9618 Q1192.58 53.7616 1187.56 53.7616 Q1181.52 53.7616 1178.04 57.6099 Q1174.56 61.4583 1174.56 68.1018 L1174.56 93.744 L1167.06 93.744 L1167.06 48.3739 L1174.56 48.3739 L1174.56 55.4224 Q1177.23 51.331 1180.83 49.3056 Q1184.48 47.2801 1189.22 47.2801 Q1197.04 47.2801 1201.05 52.1412 Q1205.06 56.9618 1205.06 66.3599 Z" fill="#000000" fill-rule="nonzero" fill-opacity="1" /><path clip-path="url(#clip240)" d="M1269.27 30.7119 L1269.27 36.9098 L1262.14 36.9098 Q1258.13 36.9098 1256.55 38.5302 Q1255.01 40.1505 1255.01 44.3635 L1255.01 48.3739 L1267.28 48.3739 L1267.28 54.1667 L1255.01 54.1667 L1255.01 93.744 L1247.51 93.744 L1247.51 54.1667 L1240.38 54.1667 L1240.38 48.3739 L1247.51 48.3739 L1247.51 45.2142 Q1247.51 37.639 1251.04 34.1957 Q1254.56 30.7119 1262.22 30.7119 L1269.27 30.7119 Z" fill="#000000" fill-rule="nonzero" fill-opacity="1" /><path clip-path="url(#clip240)" d="M1275.5 48.3739 L1282.96 48.3739 L1282.96 93.744 L1275.5 93.744 L1275.5 48.3739 M1275.5 30.7119 L1282.96 30.7119 L1282.96 40.1505 L1275.5 40.1505 L1275.5 30.7119 Z" fill="#000000" fill-rule="nonzero" fill-opacity="1" /><path clip-path="url(#clip240)" d="M1336.27 66.3599 L1336.27 93.744 L1328.81 93.744 L1328.81 66.6029 Q1328.81 60.162 1326.3 56.9618 Q1323.79 53.7616 1318.77 53.7616 Q1312.73 53.7616 1309.25 57.6099 Q1305.76 61.4583 1305.76 68.1018 L1305.76 93.744 L1298.27 93.744 L1298.27 48.3739 L1305.76 48.3739 L1305.76 55.4224 Q1308.44 51.331 1312.04 49.3056 Q1315.69 47.2801 1320.43 47.2801 Q1328.25 47.2801 1332.26 52.1412 Q1336.27 56.9618 1336.27 66.3599 Z" fill="#000000" fill-rule="nonzero" fill-opacity="1" /><path clip-path="url(#clip240)" d="M1371.75 70.9374 Q1362.72 70.9374 1359.24 73.0034 Q1355.75 75.0693 1355.75 80.0519 Q1355.75 84.0218 1358.34 86.3714 Q1360.98 88.6804 1365.47 88.6804 Q1371.67 88.6804 1375.4 84.3054 Q1379.17 79.8899 1379.17 72.5983 L1379.17 70.9374 L1371.75 70.9374 M1386.62 67.8587 L1386.62 93.744 L1379.17 93.744 L1379.17 86.8575 Q1376.61 90.9894 1372.81 92.9743 Q1369 94.9188 1363.49 94.9188 Q1356.52 94.9188 1352.39 91.0299 Q1348.3 87.1005 1348.3 80.5381 Q1348.3 72.8818 1353.4 68.993 Q1358.55 65.1041 1368.72 65.1041 L1379.17 65.1041 L1379.17 64.3749 Q1379.17 59.2303 1375.76 56.4352 Q1372.4 53.5995 1366.28 53.5995 Q1362.4 53.5995 1358.71 54.5312 Q1355.02 55.463 1351.62 57.3264 L1351.62 50.4398 Q1355.71 48.86 1359.56 48.0903 Q1363.41 47.2801 1367.05 47.2801 Q1376.9 47.2801 1381.76 52.3843 Q1386.62 57.4884 1386.62 67.8587 Z" fill="#000000" fill-rule="nonzero" fill-opacity="1" /><path clip-path="url(#clip240)" d="M1401.97 30.7119 L1409.43 30.7119 L1409.43 93.744 L1401.97 93.744 L1401.97 30.7119 Z" fill="#000000" fill-rule="nonzero" fill-opacity="1" /><path clip-path="url(#clip240)" d="M1425.02 30.7119 L1432.48 30.7119 L1432.48 93.744 L1425.02 93.744 L1425.02 30.7119 Z" fill="#000000" fill-rule="nonzero" fill-opacity="1" /><path clip-path="url(#clip240)" d="M1466.95 97.9569 Q1463.79 106.059 1460.79 108.53 Q1457.79 111.001 1452.77 111.001 L1446.82 111.001 L1446.82 104.762 L1451.19 104.762 Q1454.27 104.762 1455.97 103.304 Q1457.67 101.846 1459.74 96.4176 L1461.08 93.0148 L1442.73 48.3739 L1450.62 48.3739 L1464.8 83.8598 L1478.98 48.3739 L1486.88 48.3739 L1466.95 97.9569 Z" fill="#000000" fill-rule="nonzero" fill-opacity="1" /><path clip-path="url(#clip240)" d="M1556.19 50.1158 L1556.19 57.0833 Q1553.03 55.3414 1549.83 54.4907 Q1546.67 53.5995 1543.43 53.5995 Q1536.18 53.5995 1532.17 58.2176 Q1528.16 62.7951 1528.16 71.0994 Q1528.16 79.4038 1532.17 84.0218 Q1536.18 88.5994 1543.43 88.5994 Q1546.67 88.5994 1549.83 87.7487 Q1553.03 86.8575 1556.19 85.1156 L1556.19 92.0021 Q1553.07 93.4604 1549.71 94.1896 Q1546.39 94.9188 1542.62 94.9188 Q1532.37 94.9188 1526.34 88.4778 Q1520.3 82.0369 1520.3 71.0994 Q1520.3 60 1526.38 53.64 Q1532.49 47.2801 1543.11 47.2801 Q1546.55 47.2801 1549.83 48.0093 Q1553.11 48.6979 1556.19 50.1158 Z" fill="#000000" fill-rule="nonzero" fill-opacity="1" /><path clip-path="url(#clip240)" d="M1586.73 53.5995 Q1580.74 53.5995 1577.26 58.2986 Q1573.77 62.9571 1573.77 71.0994 Q1573.77 79.2418 1577.22 83.9408 Q1580.7 88.5994 1586.73 88.5994 Q1592.69 88.5994 1596.17 83.9003 Q1599.66 79.2013 1599.66 71.0994 Q1599.66 63.0381 1596.17 58.3391 Q1592.69 53.5995 1586.73 53.5995 M1586.73 47.2801 Q1596.46 47.2801 1602.01 53.5995 Q1607.56 59.9189 1607.56 71.0994 Q1607.56 82.2394 1602.01 88.5994 Q1596.46 94.9188 1586.73 94.9188 Q1576.97 94.9188 1571.42 88.5994 Q1565.91 82.2394 1565.91 71.0994 Q1565.91 59.9189 1571.42 53.5995 Q1576.97 47.2801 1586.73 47.2801 Z" fill="#000000" fill-rule="nonzero" fill-opacity="1" /><path clip-path="url(#clip240)" d="M1655.24 57.0833 Q1658.03 52.0602 1661.92 49.6702 Q1665.81 47.2801 1671.07 47.2801 Q1678.16 47.2801 1682.01 52.2627 Q1685.86 57.2048 1685.86 66.3599 L1685.86 93.744 L1678.37 93.744 L1678.37 66.6029 Q1678.37 60.081 1676.06 56.9213 Q1673.75 53.7616 1669.01 53.7616 Q1663.22 53.7616 1659.85 57.6099 Q1656.49 61.4583 1656.49 68.1018 L1656.49 93.744 L1649 93.744 L1649 66.6029 Q1649 60.0405 1646.69 56.9213 Q1644.38 53.7616 1639.56 53.7616 Q1633.85 53.7616 1630.48 57.6504 Q1627.12 61.4988 1627.12 68.1018 L1627.12 93.744 L1619.63 93.744 L1619.63 48.3739 L1627.12 48.3739 L1627.12 55.4224 Q1629.67 51.25 1633.24 49.2651 Q1636.8 47.2801 1641.71 47.2801 Q1646.65 47.2801 1650.09 49.7917 Q1653.57 52.3032 1655.24 57.0833 Z" fill="#000000" fill-rule="nonzero" fill-opacity="1" /><path clip-path="url(#clip240)" d="M1707.94 86.9385 L1707.94 111.001 L1700.44 111.001 L1700.44 48.3739 L1707.94 48.3739 L1707.94 55.2604 Q1710.29 51.2095 1713.85 49.2651 Q1717.46 47.2801 1722.44 47.2801 Q1730.7 47.2801 1735.85 53.8426 Q1741.03 60.4051 1741.03 71.0994 Q1741.03 81.7938 1735.85 88.3563 Q1730.7 94.9188 1722.44 94.9188 Q1717.46 94.9188 1713.85 92.9743 Q1710.29 90.9894 1707.94 86.9385 M1733.3 71.0994 Q1733.3 62.8761 1729.89 58.2176 Q1726.53 53.5185 1720.62 53.5185 Q1714.7 53.5185 1711.3 58.2176 Q1707.94 62.8761 1707.94 71.0994 Q1707.94 79.3228 1711.3 84.0218 Q1714.7 88.6804 1720.62 88.6804 Q1726.53 88.6804 1729.89 84.0218 Q1733.3 79.3228 1733.3 71.0994 Z" fill="#000000" fill-rule="nonzero" fill-opacity="1" /><path clip-path="url(#clip240)" d="M1752.62 75.839 L1752.62 48.3739 L1760.07 48.3739 L1760.07 75.5554 Q1760.07 81.9964 1762.58 85.2371 Q1765.1 88.4373 1770.12 88.4373 Q1776.16 88.4373 1779.64 84.589 Q1783.16 80.7406 1783.16 74.0971 L1783.16 48.3739 L1790.62 48.3739 L1790.62 93.744 L1783.16 93.744 L1783.16 86.7764 Q1780.45 90.9084 1776.84 92.9338 Q1773.28 94.9188 1768.54 94.9188 Q1760.72 94.9188 1756.67 90.0577 Q1752.62 85.1966 1752.62 75.839 M1771.37 47.2801 L1771.37 47.2801 Z" fill="#000000" fill-rule="nonzero" fill-opacity="1" /><path clip-path="url(#clip240)" d="M1813.34 35.492 L1813.34 48.3739 L1828.7 48.3739 L1828.7 54.1667 L1813.34 54.1667 L1813.34 78.7962 Q1813.34 84.3459 1814.84 85.9258 Q1816.38 87.5056 1821.04 87.5056 L1828.7 87.5056 L1828.7 93.744 L1821.04 93.744 Q1812.41 93.744 1809.13 90.5438 Q1805.85 87.3031 1805.85 78.7962 L1805.85 54.1667 L1800.38 54.1667 L1800.38 48.3739 L1805.85 48.3739 L1805.85 35.492 L1813.34 35.492 Z" fill="#000000" fill-rule="nonzero" fill-opacity="1" /><path clip-path="url(#clip240)" d="M1877.31 69.1955 L1877.31 72.8413 L1843.04 72.8413 Q1843.52 80.5381 1847.65 84.589 Q1851.83 88.5994 1859.24 88.5994 Q1863.53 88.5994 1867.54 87.5461 Q1871.59 86.4929 1875.56 84.3864 L1875.56 91.435 Q1871.55 93.1364 1867.34 94.0276 Q1863.13 94.9188 1858.79 94.9188 Q1847.94 94.9188 1841.58 88.5994 Q1835.26 82.2799 1835.26 71.5045 Q1835.26 60.3645 1841.25 53.8426 Q1847.29 47.2801 1857.5 47.2801 Q1866.65 47.2801 1871.96 53.1944 Q1877.31 59.0683 1877.31 69.1955 M1869.85 67.008 Q1869.77 60.8912 1866.41 57.2454 Q1863.09 53.5995 1857.58 53.5995 Q1851.34 53.5995 1847.57 57.1238 Q1843.85 60.6481 1843.28 67.0485 L1869.85 67.008 Z" fill="#000000" fill-rule="nonzero" fill-opacity="1" /><path clip-path="url(#clip240)" d="M1919.4 55.2604 L1919.4 30.7119 L1926.85 30.7119 L1926.85 93.744 L1919.4 93.744 L1919.4 86.9385 Q1917.05 90.9894 1913.44 92.9743 Q1909.88 94.9188 1904.85 94.9188 Q1896.63 94.9188 1891.44 88.3563 Q1886.3 81.7938 1886.3 71.0994 Q1886.3 60.4051 1891.44 53.8426 Q1896.63 47.2801 1904.85 47.2801 Q1909.88 47.2801 1913.44 49.2651 Q1917.05 51.2095 1919.4 55.2604 M1894 71.0994 Q1894 79.3228 1897.36 84.0218 Q1900.76 88.6804 1906.68 88.6804 Q1912.59 88.6804 1915.99 84.0218 Q1919.4 79.3228 1919.4 71.0994 Q1919.4 62.8761 1915.99 58.2176 Q1912.59 53.5185 1906.68 53.5185 Q1900.76 53.5185 1897.36 58.2176 Q1894 62.8761 1894 71.0994 Z" fill="#000000" fill-rule="nonzero" fill-opacity="1" /><path clip-path="url(#clip240)" d="M1997.5 49.7107 L1997.5 56.7592 Q1994.34 55.1389 1990.93 54.3287 Q1987.53 53.5185 1983.89 53.5185 Q1978.34 53.5185 1975.54 55.2199 Q1972.79 56.9213 1972.79 60.324 Q1972.79 62.9166 1974.77 64.4155 Q1976.76 65.8738 1982.75 67.2106 L1985.3 67.7777 Q1993.24 69.4791 1996.56 72.5983 Q1999.93 75.677 1999.93 81.2267 Q1999.93 87.5461 1994.9 91.2324 Q1989.92 94.9188 1981.17 94.9188 Q1977.53 94.9188 1973.56 94.1896 Q1969.63 93.5009 1965.25 92.0831 L1965.25 84.3864 Q1969.38 86.5334 1973.39 87.6271 Q1977.4 88.6804 1981.33 88.6804 Q1986.6 88.6804 1989.44 86.898 Q1992.27 85.0751 1992.27 81.7938 Q1992.27 78.7557 1990.2 77.1353 Q1988.18 75.5149 1981.25 74.0161 L1978.66 73.4085 Q1971.73 71.9501 1968.65 68.9525 Q1965.58 65.9143 1965.58 60.6481 Q1965.58 54.2477 1970.11 50.7639 Q1974.65 47.2801 1982.99 47.2801 Q1987.13 47.2801 1990.77 47.8878 Q1994.42 48.4954 1997.5 49.7107 Z" fill="#000000" fill-rule="nonzero" fill-opacity="1" /><path clip-path="url(#clip240)" d="M2029.38 53.5995 Q2023.38 53.5995 2019.9 58.2986 Q2016.41 62.9571 2016.41 71.0994 Q2016.41 79.2418 2019.86 83.9408 Q2023.34 88.5994 2029.38 88.5994 Q2035.33 88.5994 2038.82 83.9003 Q2042.3 79.2013 2042.3 71.0994 Q2042.3 63.0381 2038.82 58.3391 Q2035.33 53.5995 2029.38 53.5995 M2029.38 47.2801 Q2039.1 47.2801 2044.65 53.5995 Q2050.2 59.9189 2050.2 71.0994 Q2050.2 82.2394 2044.65 88.5994 Q2039.1 94.9188 2029.38 94.9188 Q2019.61 94.9188 2014.06 88.5994 Q2008.56 82.2394 2008.56 71.0994 Q2008.56 59.9189 2014.06 53.5995 Q2019.61 47.2801 2029.38 47.2801 Z" fill="#000000" fill-rule="nonzero" fill-opacity="1" /><path clip-path="url(#clip240)" d="M2062.55 30.7119 L2070.01 30.7119 L2070.01 93.744 L2062.55 93.744 L2062.55 30.7119 Z" fill="#000000" fill-rule="nonzero" fill-opacity="1" /><path clip-path="url(#clip240)" d="M2084.83 75.839 L2084.83 48.3739 L2092.29 48.3739 L2092.29 75.5554 Q2092.29 81.9964 2094.8 85.2371 Q2097.31 88.4373 2102.33 88.4373 Q2108.37 88.4373 2111.85 84.589 Q2115.38 80.7406 2115.38 74.0971 L2115.38 48.3739 L2122.83 48.3739 L2122.83 93.744 L2115.38 93.744 L2115.38 86.7764 Q2112.66 90.9084 2109.06 92.9338 Q2105.49 94.9188 2100.75 94.9188 Q2092.94 94.9188 2088.88 90.0577 Q2084.83 85.1966 2084.83 75.839 M2103.59 47.2801 L2103.59 47.2801 Z" fill="#000000" fill-rule="nonzero" fill-opacity="1" /><path clip-path="url(#clip240)" d="M2145.56 35.492 L2145.56 48.3739 L2160.91 48.3739 L2160.91 54.1667 L2145.56 54.1667 L2145.56 78.7962 Q2145.56 84.3459 2147.06 85.9258 Q2148.6 87.5056 2153.25 87.5056 L2160.91 87.5056 L2160.91 93.744 L2153.25 93.744 Q2144.63 93.744 2141.34 90.5438 Q2138.06 87.3031 2138.06 78.7962 L2138.06 54.1667 L2132.59 54.1667 L2132.59 48.3739 L2138.06 48.3739 L2138.06 35.492 L2145.56 35.492 Z" fill="#000000" fill-rule="nonzero" fill-opacity="1" /><path clip-path="url(#clip240)" d="M2170.71 48.3739 L2178.17 48.3739 L2178.17 93.744 L2170.71 93.744 L2170.71 48.3739 M2170.71 30.7119 L2178.17 30.7119 L2178.17 40.1505 L2170.71 40.1505 L2170.71 30.7119 Z" fill="#000000" fill-rule="nonzero" fill-opacity="1" /><path clip-path="url(#clip240)" d="M2211.34 53.5995 Q2205.35 53.5995 2201.86 58.2986 Q2198.38 62.9571 2198.38 71.0994 Q2198.38 79.2418 2201.82 83.9408 Q2205.31 88.5994 2211.34 88.5994 Q2217.3 88.5994 2220.78 83.9003 Q2224.27 79.2013 2224.27 71.0994 Q2224.27 63.0381 2220.78 58.3391 Q2217.3 53.5995 2211.34 53.5995 M2211.34 47.2801 Q2221.07 47.2801 2226.62 53.5995 Q2232.17 59.9189 2232.17 71.0994 Q2232.17 82.2394 2226.62 88.5994 Q2221.07 94.9188 2211.34 94.9188 Q2201.58 94.9188 2196.03 88.5994 Q2190.52 82.2394 2190.52 71.0994 Q2190.52 59.9189 2196.03 53.5995 Q2201.58 47.2801 2211.34 47.2801 Z" fill="#000000" fill-rule="nonzero" fill-opacity="1" /><path clip-path="url(#clip240)" d="M2282.23 66.3599 L2282.23 93.744 L2274.78 93.744 L2274.78 66.6029 Q2274.78 60.162 2272.27 56.9618 Q2269.76 53.7616 2264.73 53.7616 Q2258.7 53.7616 2255.21 57.6099 Q2251.73 61.4583 2251.73 68.1018 L2251.73 93.744 L2244.24 93.744 L2244.24 48.3739 L2251.73 48.3739 L2251.73 55.4224 Q2254.4 51.331 2258.01 49.3056 Q2261.66 47.2801 2266.4 47.2801 Q2274.21 47.2801 2278.22 52.1412 Q2282.23 56.9618 2282.23 66.3599 Z" fill="#000000" fill-rule="nonzero" fill-opacity="1" /><path clip-path="url(#clip240)" d="M751.843 161.657 Q742.81 161.657 739.326 163.723 Q735.842 165.789 735.842 170.772 Q735.842 174.742 738.435 177.091 Q741.068 179.4 745.564 179.4 Q751.762 179.4 755.489 175.025 Q759.257 170.61 759.257 163.318 L759.257 161.657 L751.843 161.657 M766.71 158.579 L766.71 184.464 L759.257 184.464 L759.257 177.577 Q756.704 181.709 752.897 183.694 Q749.089 185.639 743.58 185.639 Q736.612 185.639 732.48 181.75 Q728.389 177.821 728.389 171.258 Q728.389 163.602 733.493 159.713 Q738.637 155.824 748.805 155.824 L759.257 155.824 L759.257 155.095 Q759.257 149.95 755.854 147.155 Q752.492 144.32 746.375 144.32 Q742.486 144.32 738.799 145.251 Q735.113 146.183 731.71 148.046 L731.71 141.16 Q735.802 139.58 739.65 138.81 Q743.499 138 747.144 138 Q756.988 138 761.849 143.104 Q766.71 148.208 766.71 158.579 Z" fill="#000000" fill-rule="nonzero" fill-opacity="1" /><path clip-path="url(#clip240)" d="M819.777 157.08 L819.777 184.464 L812.323 184.464 L812.323 157.323 Q812.323 150.882 809.812 147.682 Q807.3 144.482 802.277 144.482 Q796.241 144.482 792.758 148.33 Q789.274 152.178 789.274 158.822 L789.274 184.464 L781.78 184.464 L781.78 139.094 L789.274 139.094 L789.274 146.142 Q791.947 142.051 795.553 140.026 Q799.198 138 803.938 138 Q811.756 138 815.767 142.861 Q819.777 147.682 819.777 157.08 Z" fill="#000000" fill-rule="nonzero" fill-opacity="1" /><path clip-path="url(#clip240)" d="M864.499 145.98 L864.499 121.432 L871.953 121.432 L871.953 184.464 L864.499 184.464 L864.499 177.658 Q862.15 181.709 858.544 183.694 Q854.979 185.639 849.956 185.639 Q841.733 185.639 836.548 179.076 Q831.403 172.514 831.403 161.819 Q831.403 151.125 836.548 144.563 Q841.733 138 849.956 138 Q854.979 138 858.544 139.985 Q862.15 141.93 864.499 145.98 M839.1 161.819 Q839.1 170.043 842.462 174.742 Q845.865 179.4 851.779 179.4 Q857.694 179.4 861.096 174.742 Q864.499 170.043 864.499 161.819 Q864.499 153.596 861.096 148.938 Q857.694 144.239 851.779 144.239 Q845.865 144.239 842.462 148.938 Q839.1 153.596 839.1 161.819 Z" fill="#000000" fill-rule="nonzero" fill-opacity="1" /><path clip-path="url(#clip240)" d="M913.677 139.094 L921.131 139.094 L921.131 184.464 L913.677 184.464 L913.677 139.094 M913.677 121.432 L921.131 121.432 L921.131 130.871 L913.677 130.871 L913.677 121.432 Z" fill="#000000" fill-rule="nonzero" fill-opacity="1" /><path clip-path="url(#clip240)" d="M974.441 157.08 L974.441 184.464 L966.987 184.464 L966.987 157.323 Q966.987 150.882 964.475 147.682 Q961.964 144.482 956.941 144.482 Q950.905 144.482 947.421 148.33 Q943.937 152.178 943.937 158.822 L943.937 184.464 L936.443 184.464 L936.443 139.094 L943.937 139.094 L943.937 146.142 Q946.611 142.051 950.216 140.026 Q953.862 138 958.602 138 Q966.42 138 970.43 142.861 Q974.441 147.682 974.441 157.08 Z" fill="#000000" fill-rule="nonzero" fill-opacity="1" /><path clip-path="url(#clip240)" d="M989.307 139.094 L996.761 139.094 L996.761 184.464 L989.307 184.464 L989.307 139.094 M989.307 121.432 L996.761 121.432 L996.761 130.871 L989.307 130.871 L989.307 121.432 Z" fill="#000000" fill-rule="nonzero" fill-opacity="1" /><path clip-path="url(#clip240)" d="M1019.73 126.212 L1019.73 139.094 L1035.08 139.094 L1035.08 144.887 L1019.73 144.887 L1019.73 169.516 Q1019.73 175.066 1021.23 176.646 Q1022.77 178.226 1027.43 178.226 L1035.08 178.226 L1035.08 184.464 L1027.43 184.464 Q1018.8 184.464 1015.52 181.264 Q1012.24 178.023 1012.24 169.516 L1012.24 144.887 L1006.77 144.887 L1006.77 139.094 L1012.24 139.094 L1012.24 126.212 L1019.73 126.212 Z" fill="#000000" fill-rule="nonzero" fill-opacity="1" /><path clip-path="url(#clip240)" d="M1044.89 139.094 L1052.34 139.094 L1052.34 184.464 L1044.89 184.464 L1044.89 139.094 M1044.89 121.432 L1052.34 121.432 L1052.34 130.871 L1044.89 130.871 L1044.89 121.432 Z" fill="#000000" fill-rule="nonzero" fill-opacity="1" /><path clip-path="url(#clip240)" d="M1088.55 161.657 Q1079.52 161.657 1076.04 163.723 Q1072.55 165.789 1072.55 170.772 Q1072.55 174.742 1075.15 177.091 Q1077.78 179.4 1082.28 179.4 Q1088.47 179.4 1092.2 175.025 Q1095.97 170.61 1095.97 163.318 L1095.97 161.657 L1088.55 161.657 M1103.42 158.579 L1103.42 184.464 L1095.97 184.464 L1095.97 177.577 Q1093.42 181.709 1089.61 183.694 Q1085.8 185.639 1080.29 185.639 Q1073.32 185.639 1069.19 181.75 Q1065.1 177.821 1065.1 171.258 Q1065.1 163.602 1070.2 159.713 Q1075.35 155.824 1085.52 155.824 L1095.97 155.824 L1095.97 155.095 Q1095.97 149.95 1092.56 147.155 Q1089.2 144.32 1083.09 144.32 Q1079.2 144.32 1075.51 145.251 Q1071.82 146.183 1068.42 148.046 L1068.42 141.16 Q1072.51 139.58 1076.36 138.81 Q1080.21 138 1083.86 138 Q1093.7 138 1098.56 143.104 Q1103.42 148.208 1103.42 158.579 Z" fill="#000000" fill-rule="nonzero" fill-opacity="1" /><path clip-path="url(#clip240)" d="M1118.77 121.432 L1126.23 121.432 L1126.23 184.464 L1118.77 184.464 L1118.77 121.432 Z" fill="#000000" fill-rule="nonzero" fill-opacity="1" /><path clip-path="url(#clip240)" d="M1141.82 121.432 L1149.28 121.432 L1149.28 184.464 L1141.82 184.464 L1141.82 121.432 Z" fill="#000000" fill-rule="nonzero" fill-opacity="1" /><path clip-path="url(#clip240)" d="M1183.75 188.677 Q1180.59 196.779 1177.59 199.25 Q1174.6 201.721 1169.57 201.721 L1163.62 201.721 L1163.62 195.482 L1167.99 195.482 Q1171.07 195.482 1172.77 194.024 Q1174.47 192.566 1176.54 187.138 L1177.88 183.735 L1159.53 139.094 L1167.43 139.094 L1181.6 174.58 L1195.78 139.094 L1203.68 139.094 L1183.75 188.677 Z" fill="#000000" fill-rule="nonzero" fill-opacity="1" /><path clip-path="url(#clip240)" d="M1272.99 140.836 L1272.99 147.803 Q1269.83 146.061 1266.63 145.211 Q1263.47 144.32 1260.23 144.32 Q1252.98 144.32 1248.97 148.938 Q1244.96 153.515 1244.96 161.819 Q1244.96 170.124 1248.97 174.742 Q1252.98 179.319 1260.23 179.319 Q1263.47 179.319 1266.63 178.469 Q1269.83 177.577 1272.99 175.836 L1272.99 182.722 Q1269.87 184.18 1266.51 184.91 Q1263.19 185.639 1259.42 185.639 Q1249.17 185.639 1243.14 179.198 Q1237.1 172.757 1237.1 161.819 Q1237.1 150.72 1243.18 144.36 Q1249.29 138 1259.91 138 Q1263.35 138 1266.63 138.729 Q1269.91 139.418 1272.99 140.836 Z" fill="#000000" fill-rule="nonzero" fill-opacity="1" /><path clip-path="url(#clip240)" d="M1303.54 144.32 Q1297.54 144.32 1294.06 149.019 Q1290.57 153.677 1290.57 161.819 Q1290.57 169.962 1294.02 174.661 Q1297.5 179.319 1303.54 179.319 Q1309.49 179.319 1312.97 174.62 Q1316.46 169.921 1316.46 161.819 Q1316.46 153.758 1312.97 149.059 Q1309.49 144.32 1303.54 144.32 M1303.54 138 Q1313.26 138 1318.81 144.32 Q1324.36 150.639 1324.36 161.819 Q1324.36 172.959 1318.81 179.319 Q1313.26 185.639 1303.54 185.639 Q1293.77 185.639 1288.22 179.319 Q1282.71 172.959 1282.71 161.819 Q1282.71 150.639 1288.22 144.32 Q1293.77 138 1303.54 138 Z" fill="#000000" fill-rule="nonzero" fill-opacity="1" /><path clip-path="url(#clip240)" d="M1372.04 147.803 Q1374.83 142.78 1378.72 140.39 Q1382.61 138 1387.88 138 Q1394.96 138 1398.81 142.983 Q1402.66 147.925 1402.66 157.08 L1402.66 184.464 L1395.17 184.464 L1395.17 157.323 Q1395.17 150.801 1392.86 147.641 Q1390.55 144.482 1385.81 144.482 Q1380.02 144.482 1376.65 148.33 Q1373.29 152.178 1373.29 158.822 L1373.29 184.464 L1365.8 184.464 L1365.8 157.323 Q1365.8 150.76 1363.49 147.641 Q1361.18 144.482 1356.36 144.482 Q1350.65 144.482 1347.29 148.37 Q1343.92 152.219 1343.92 158.822 L1343.92 184.464 L1336.43 184.464 L1336.43 139.094 L1343.92 139.094 L1343.92 146.142 Q1346.48 141.97 1350.04 139.985 Q1353.61 138 1358.51 138 Q1363.45 138 1366.89 140.512 Q1370.38 143.023 1372.04 147.803 Z" fill="#000000" fill-rule="nonzero" fill-opacity="1" /><path clip-path="url(#clip240)" d="M1424.74 177.658 L1424.74 201.721 L1417.24 201.721 L1417.24 139.094 L1424.74 139.094 L1424.74 145.98 Q1427.09 141.93 1430.65 139.985 Q1434.26 138 1439.24 138 Q1447.51 138 1452.65 144.563 Q1457.83 151.125 1457.83 161.819 Q1457.83 172.514 1452.65 179.076 Q1447.51 185.639 1439.24 185.639 Q1434.26 185.639 1430.65 183.694 Q1427.09 181.709 1424.74 177.658 M1450.1 161.819 Q1450.1 153.596 1446.69 148.938 Q1443.33 144.239 1437.42 144.239 Q1431.5 144.239 1428.1 148.938 Q1424.74 153.596 1424.74 161.819 Q1424.74 170.043 1428.1 174.742 Q1431.5 179.4 1437.42 179.4 Q1443.33 179.4 1446.69 174.742 Q1450.1 170.043 1450.1 161.819 Z" fill="#000000" fill-rule="nonzero" fill-opacity="1" /><path clip-path="url(#clip240)" d="M1469.42 166.559 L1469.42 139.094 L1476.87 139.094 L1476.87 166.275 Q1476.87 172.716 1479.39 175.957 Q1481.9 179.157 1486.92 179.157 Q1492.96 179.157 1496.44 175.309 Q1499.96 171.461 1499.96 164.817 L1499.96 139.094 L1507.42 139.094 L1507.42 184.464 L1499.96 184.464 L1499.96 177.496 Q1497.25 181.628 1493.64 183.654 Q1490.08 185.639 1485.34 185.639 Q1477.52 185.639 1473.47 180.778 Q1469.42 175.917 1469.42 166.559 M1488.18 138 L1488.18 138 Z" fill="#000000" fill-rule="nonzero" fill-opacity="1" /><path clip-path="url(#clip240)" d="M1530.14 126.212 L1530.14 139.094 L1545.5 139.094 L1545.5 144.887 L1530.14 144.887 L1530.14 169.516 Q1530.14 175.066 1531.64 176.646 Q1533.18 178.226 1537.84 178.226 L1545.5 178.226 L1545.5 184.464 L1537.84 184.464 Q1529.21 184.464 1525.93 181.264 Q1522.65 178.023 1522.65 169.516 L1522.65 144.887 L1517.18 144.887 L1517.18 139.094 L1522.65 139.094 L1522.65 126.212 L1530.14 126.212 Z" fill="#000000" fill-rule="nonzero" fill-opacity="1" /><path clip-path="url(#clip240)" d="M1594.11 159.916 L1594.11 163.561 L1559.84 163.561 Q1560.32 171.258 1564.45 175.309 Q1568.63 179.319 1576.04 179.319 Q1580.33 179.319 1584.34 178.266 Q1588.4 177.213 1592.37 175.106 L1592.37 182.155 Q1588.36 183.856 1584.14 184.748 Q1579.93 185.639 1575.59 185.639 Q1564.74 185.639 1558.38 179.319 Q1552.06 173 1552.06 162.225 Q1552.06 151.085 1558.05 144.563 Q1564.09 138 1574.3 138 Q1583.45 138 1588.76 143.914 Q1594.11 149.788 1594.11 159.916 M1586.65 157.728 Q1586.57 151.611 1583.21 147.965 Q1579.89 144.32 1574.38 144.32 Q1568.14 144.32 1564.37 147.844 Q1560.65 151.368 1560.08 157.769 L1586.65 157.728 Z" fill="#000000" fill-rule="nonzero" fill-opacity="1" /><path clip-path="url(#clip240)" d="M1636.2 145.98 L1636.2 121.432 L1643.65 121.432 L1643.65 184.464 L1636.2 184.464 L1636.2 177.658 Q1633.85 181.709 1630.24 183.694 Q1626.68 185.639 1621.65 185.639 Q1613.43 185.639 1608.25 179.076 Q1603.1 172.514 1603.1 161.819 Q1603.1 151.125 1608.25 144.563 Q1613.43 138 1621.65 138 Q1626.68 138 1630.24 139.985 Q1633.85 141.93 1636.2 145.98 M1610.8 161.819 Q1610.8 170.043 1614.16 174.742 Q1617.56 179.4 1623.48 179.4 Q1629.39 179.4 1632.79 174.742 Q1636.2 170.043 1636.2 161.819 Q1636.2 153.596 1632.79 148.938 Q1629.39 144.239 1623.48 144.239 Q1617.56 144.239 1614.16 148.938 Q1610.8 153.596 1610.8 161.819 Z" fill="#000000" fill-rule="nonzero" fill-opacity="1" /><path clip-path="url(#clip240)" d="M1714.3 140.431 L1714.3 147.479 Q1711.14 145.859 1707.74 145.049 Q1704.33 144.239 1700.69 144.239 Q1695.14 144.239 1692.34 145.94 Q1689.59 147.641 1689.59 151.044 Q1689.59 153.637 1691.57 155.135 Q1693.56 156.594 1699.55 157.931 L1702.1 158.498 Q1710.04 160.199 1713.37 163.318 Q1716.73 166.397 1716.73 171.947 Q1716.73 178.266 1711.71 181.952 Q1706.72 185.639 1697.97 185.639 Q1694.33 185.639 1690.36 184.91 Q1686.43 184.221 1682.05 182.803 L1682.05 175.106 Q1686.18 177.253 1690.19 178.347 Q1694.21 179.4 1698.13 179.4 Q1703.4 179.4 1706.24 177.618 Q1709.07 175.795 1709.07 172.514 Q1709.07 169.476 1707.01 167.855 Q1704.98 166.235 1698.05 164.736 L1695.46 164.128 Q1688.53 162.67 1685.46 159.672 Q1682.38 156.634 1682.38 151.368 Q1682.38 144.968 1686.91 141.484 Q1691.45 138 1699.8 138 Q1703.93 138 1707.57 138.608 Q1711.22 139.215 1714.3 140.431 Z" fill="#000000" fill-rule="nonzero" fill-opacity="1" /><path clip-path="url(#clip240)" d="M1746.18 144.32 Q1740.18 144.32 1736.7 149.019 Q1733.22 153.677 1733.22 161.819 Q1733.22 169.962 1736.66 174.661 Q1740.14 179.319 1746.18 179.319 Q1752.13 179.319 1755.62 174.62 Q1759.1 169.921 1759.1 161.819 Q1759.1 153.758 1755.62 149.059 Q1752.13 144.32 1746.18 144.32 M1746.18 138 Q1755.9 138 1761.45 144.32 Q1767 150.639 1767 161.819 Q1767 172.959 1761.45 179.319 Q1755.9 185.639 1746.18 185.639 Q1736.42 185.639 1730.87 179.319 Q1725.36 172.959 1725.36 161.819 Q1725.36 150.639 1730.87 144.32 Q1736.42 138 1746.18 138 Z" fill="#000000" fill-rule="nonzero" fill-opacity="1" /><path clip-path="url(#clip240)" d="M1779.36 121.432 L1786.81 121.432 L1786.81 184.464 L1779.36 184.464 L1779.36 121.432 Z" fill="#000000" fill-rule="nonzero" fill-opacity="1" /><path clip-path="url(#clip240)" d="M1801.64 166.559 L1801.64 139.094 L1809.09 139.094 L1809.09 166.275 Q1809.09 172.716 1811.6 175.957 Q1814.11 179.157 1819.14 179.157 Q1825.17 179.157 1828.65 175.309 Q1832.18 171.461 1832.18 164.817 L1832.18 139.094 L1839.63 139.094 L1839.63 184.464 L1832.18 184.464 L1832.18 177.496 Q1829.46 181.628 1825.86 183.654 Q1822.29 185.639 1817.56 185.639 Q1809.74 185.639 1805.69 180.778 Q1801.64 175.917 1801.64 166.559 M1820.39 138 L1820.39 138 Z" fill="#000000" fill-rule="nonzero" fill-opacity="1" /><path clip-path="url(#clip240)" d="M1862.36 126.212 L1862.36 139.094 L1877.71 139.094 L1877.71 144.887 L1862.36 144.887 L1862.36 169.516 Q1862.36 175.066 1863.86 176.646 Q1865.4 178.226 1870.05 178.226 L1877.71 178.226 L1877.71 184.464 L1870.05 184.464 Q1861.43 184.464 1858.15 181.264 Q1854.86 178.023 1854.86 169.516 L1854.86 144.887 L1849.4 144.887 L1849.4 139.094 L1854.86 139.094 L1854.86 126.212 L1862.36 126.212 Z" fill="#000000" fill-rule="nonzero" fill-opacity="1" /><path clip-path="url(#clip240)" d="M1887.51 139.094 L1894.97 139.094 L1894.97 184.464 L1887.51 184.464 L1887.51 139.094 M1887.51 121.432 L1894.97 121.432 L1894.97 130.871 L1887.51 130.871 L1887.51 121.432 Z" fill="#000000" fill-rule="nonzero" fill-opacity="1" /><path clip-path="url(#clip240)" d="M1928.14 144.32 Q1922.15 144.32 1918.67 149.019 Q1915.18 153.677 1915.18 161.819 Q1915.18 169.962 1918.63 174.661 Q1922.11 179.319 1928.14 179.319 Q1934.1 179.319 1937.58 174.62 Q1941.07 169.921 1941.07 161.819 Q1941.07 153.758 1937.58 149.059 Q1934.1 144.32 1928.14 144.32 M1928.14 138 Q1937.87 138 1943.42 144.32 Q1948.97 150.639 1948.97 161.819 Q1948.97 172.959 1943.42 179.319 Q1937.87 185.639 1928.14 185.639 Q1918.38 185.639 1912.83 179.319 Q1907.32 172.959 1907.32 161.819 Q1907.32 150.639 1912.83 144.32 Q1918.38 138 1928.14 138 Z" fill="#000000" fill-rule="nonzero" fill-opacity="1" /><path clip-path="url(#clip240)" d="M1999.04 157.08 L1999.04 184.464 L1991.58 184.464 L1991.58 157.323 Q1991.58 150.882 1989.07 147.682 Q1986.56 144.482 1981.54 144.482 Q1975.5 144.482 1972.02 148.33 Q1968.53 152.178 1968.53 158.822 L1968.53 184.464 L1961.04 184.464 L1961.04 139.094 L1968.53 139.094 L1968.53 146.142 Q1971.21 142.051 1974.81 140.026 Q1978.46 138 1983.2 138 Q1991.01 138 1995.03 142.861 Q1999.04 147.682 1999.04 157.08 Z" fill="#000000" fill-rule="nonzero" fill-opacity="1" /><polyline clip-path="url(#clip241)" style="stroke:#009af9; stroke-linecap:round; stroke-linejoin:round; stroke-width:4; stroke-opacity:1; fill:none" points="400.186,789.513 402.039,790.728 403.892,791.555 405.745,791.846 407.598,791.542 409.451,790.686 411.304,789.413 413.157,787.931 415.01,786.486 416.863,785.318 418.716,784.626 420.569,784.532 422.422,785.06 424.276,786.133 426.129,787.585 427.982,789.187 429.835,790.682 431.688,791.828 433.541,792.439 435.394,792.408 437.247,791.732 439.1,790.507 440.953,788.918 442.806,787.206 444.659,785.637 446.512,784.454 448.366,783.843 450.219,783.907 452.072,784.645 453.925,785.954 455.778,787.644 457.631,789.468 459.484,791.155 461.337,792.453 463.19,793.165 465.043,793.179 466.896,792.484 468.749,791.171 470.603,789.424 472.456,787.488 474.309,785.638 476.162,784.14 478.015,783.211 479.868,782.989 481.721,783.514 483.574,784.722 485.427,786.453 487.28,788.475 489.133,790.512 490.986,792.285 492.839,793.548 494.693,794.124 496.546,793.925 498.399,792.968 500.252,791.372 502.105,789.342 503.958,787.141 505.811,785.058 507.664,783.369 509.517,782.3 511.37,781.999 513.223,782.515 515.076,783.792 516.929,785.676 518.783,787.934 520.636,790.282 522.489,792.422 524.342,794.082 526.195,795.045 528.048,795.183 529.901,794.466 531.754,792.974 533.607,790.883 535.46,788.443 537.313,785.949 539.166,783.706 541.019,781.988 542.873,781.01 544.726,780.897 546.579,781.67 548.432,783.247 550.285,785.449 552.138,788.021 553.991,790.666 555.844,793.076 557.697,794.971 559.55,796.127 561.403,796.406 563.256,795.768 565.11,794.277 566.963,792.094 568.816,789.456 570.669,786.653 572.522,783.995 574.375,781.775 576.228,780.244 578.081,779.575 579.934,779.851 581.787,781.053 583.64,783.063 585.493,785.672 587.346,788.608 589.2,791.56 591.053,794.215 592.906,796.286 594.759,797.548 596.612,797.859 598.465,797.176 600.318,795.562 602.171,793.175 604.024,790.255 605.877,787.099 607.73,784.026 609.583,781.349 611.436,779.342 613.29,778.211 615.143,778.073 616.996,778.949 618.849,780.761 620.702,783.339 622.555,786.437 624.408,789.761 626.261,792.994 628.114,795.823 629.967,797.975 631.82,799.239 633.673,799.484 635.527,798.677 637.38,796.882 639.233,794.258 641.086,791.042 642.939,787.529 644.792,784.042 646.645,780.904 648.498,778.407 650.351,776.783 652.204,776.185 654.057,776.673 655.91,778.211 657.763,780.668 659.617,783.832 661.47,787.429 663.323,791.151 665.176,794.675 667.029,797.694 668.882,799.947 670.735,801.231 672.588,801.428 674.441,800.511 676.294,798.547 678.147,795.692 680,792.18 681.853,788.3 683.707,784.374 685.56,780.728 687.413,777.666 689.266,775.441 691.119,774.24 692.972,774.164 694.825,775.225 696.678,777.346 698.531,780.366 700.384,784.053 702.237,788.123 704.09,792.262 705.943,796.146 707.797,799.473 709.65,801.978 711.503,803.462 713.356,803.802 715.209,802.965 717.062,801.007 718.915,798.071 720.768,794.372 722.621,790.182 724.474,785.807 726.327,781.568 728.18,777.774 730.034,774.704 731.887,772.584 733.74,771.575 735.593,771.758 737.446,773.129 739.299,775.598 741.152,778.998 743.005,783.094 744.858,787.603 746.711,792.211 748.564,796.6 750.417,800.468 752.27,803.548 754.124,805.629 755.977,806.563 757.83,806.281 759.683,804.793 761.536,802.19 763.389,798.637 765.242,794.363 767.095,789.646 768.948,784.792 770.801,780.115 772.654,775.917 774.507,772.47 776.36,769.995 778.214,768.654 780.067,768.538 781.92,769.66 783.773,771.959 785.626,775.299 787.479,779.48 789.332,784.249 791.185,789.316 793.038,794.377 794.891,799.126 796.744,803.278 798.597,806.583 800.45,808.843 802.304,809.918 804.157,809.741 806.01,808.313 807.863,805.713 809.716,802.084 811.569,797.629 813.422,792.599 815.275,787.277 817.128,781.958 818.981,776.941 820.834,772.504 822.687,768.895 824.541,766.316 826.394,764.913 828.247,764.767 830.1,765.891 831.953,768.23 833.806,771.663 835.659,776.013 837.512,781.056 839.365,786.53 841.218,792.153 843.071,797.634 844.924,802.691 846.777,807.065 848.631,810.53 850.484,812.909 852.337,814.079 854.19,813.977 856.043,812.604 857.896,810.022 859.749,806.354 861.602,801.774 863.455,796.499 865.308,790.782 867.161,784.892 869.014,779.108 870.867,773.702 872.721,768.928 874.574,765.01 876.427,762.131 878.28,760.427 880.133,759.977 881.986,760.808 883.839,762.884 885.692,766.116 887.545,770.365 889.398,775.446 891.251,781.139 893.104,787.198 894.958,793.362 896.811,799.367 898.664,804.957 900.517,809.894 902.37,813.97 904.223,817.011 906.076,818.891 907.929,819.528 909.782,818.894 911.635,817.012 913.488,813.956 915.341,809.845 917.194,804.84 919.048,799.138 920.901,792.96 922.754,786.546 924.607,780.144 926.46,773.999 928.313,768.345 930.166,763.396 932.019,759.341 933.872,756.33 935.725,754.477 937.578,753.851 939.431,754.476 941.284,756.333 943.138,759.354 944.991,763.435 946.844,768.433 948.697,774.172 950.55,780.453 952.403,787.061 954.256,793.769 956.109,800.35 957.962,806.58 959.815,812.252 961.668,817.176 963.521,821.19 965.374,824.163 967.228,825.997 969.081,826.634 970.934,826.052 972.787,824.27 974.64,821.344 976.493,817.365 978.346,812.455 980.199,806.764 982.052,800.467 983.905,793.752 985.758,786.819 987.611,779.875 989.465,773.122 991.318,766.757 993.171,760.963 995.024,755.905 996.877,751.725 998.73,748.541 1000.58,746.44 1002.44,745.479 1004.29,745.683 1006.14,747.044 1008,749.526 1009.85,753.06 1011.7,757.551 1013.55,762.883 1015.41,768.914 1017.26,775.491 1019.11,782.444 1020.97,789.6 1022.82,796.779 1024.67,803.804 1026.53,810.506 1028.38,816.722 1030.23,822.306 1032.09,827.127 1033.94,831.074 1035.79,834.057 1037.64,836.012 1039.5,836.896 1041.35,836.693 1043.2,835.411 1045.06,833.081 1046.91,829.758 1048.76,825.517 1050.62,820.45 1052.47,814.669 1054.32,808.295 1056.18,801.462 1058.03,794.313 1059.88,786.99 1061.73,779.642 1063.59,772.412 1065.44,765.441 1067.29,758.861 1069.15,752.795 1071,747.355 1072.85,742.637 1074.71,738.725 1076.56,735.684 1078.41,733.565 1080.27,732.398 1082.12,732.199 1083.97,732.965 1085.82,734.678 1087.68,737.302 1089.53,740.788 1091.38,745.074 1093.24,750.085 1095.09,755.736 1096.94,761.936 1098.8,768.584 1100.65,775.576 1102.5,782.805 1104.36,790.163 1106.21,797.541 1108.06,804.834 1109.91,811.94 1111.77,818.763 1113.62,825.211 1115.47,831.202 1117.33,836.662 1119.18,841.524 1121.03,845.733 1122.89,849.242 1124.74,852.017 1126.59,854.031 1128.45,855.27 1130.3,855.728 1132.15,855.409 1134,854.327 1135.86,852.503 1137.71,849.967 1139.56,846.756 1141.42,842.913 1143.27,838.487 1145.12,833.53 1146.98,828.099 1148.83,822.254 1150.68,816.057 1152.54,809.57 1154.39,802.858 1156.24,795.983 1158.09,789.007 1159.95,781.99 1161.8,774.992 1163.65,768.067 1165.51,761.267 1167.36,754.643 1169.21,748.238 1171.07,742.094 1172.92,736.247 1174.77,730.731 1176.63,725.572 1178.48,720.794 1180.33,716.416 1182.18,712.454 1184.04,708.918 1185.89,705.815 1187.74,703.147 1189.6,700.914 1191.45,699.112 1193.3,697.734 1195.16,696.771 1197.01,696.209 1198.86,696.035 1200.72,696.231 1202.57,696.781 1204.42,697.664 1206.27,698.86 1208.13,700.347 1209.98,702.104 1211.83,704.109 1213.69,706.338 1215.54,708.77 1217.39,711.382 1219.25,714.154 1221.1,717.063 1222.95,720.091 1224.81,723.216 1226.66,726.422 1228.51,729.69 1230.36,733.005 1232.22,736.352 1234.07,739.718 1235.92,743.089 1237.78,746.457 1239.63,749.811 1241.48,753.145 1243.34,756.452 1245.19,759.728 1247.04,762.971 1248.9,766.181 1250.75,769.359 1252.6,772.508 1254.45,775.635 1256.31,778.748 1258.16,781.857 1260.01,784.976 1261.87,788.122 1263.72,791.316 1265.57,794.582 1267.43,797.948 1269.28,801.448 1271.13,805.12 1272.99,809.012 1274.84,813.173 1276.69,817.666 1278.54,822.558 1280.4,827.931 1282.25,833.873 1284.1,840.488 1285.96,847.893 1287.81,856.219 1289.66,865.613 1291.52,876.239 1293.37,888.278 1295.22,901.925 1297.08,917.394 1298.93,934.905 1300.78,954.687 1302.63,976.967 1304.49,1001.96 1306.34,1029.83 1308.19,1060.72 1310.05,1094.67 1311.9,1131.58 1313.75,1171.2 1315.61,1213.03 1317.46,1256.3 1319.31,1299.86 1321.17,1342.12 1323.02,1381.01 1324.87,1413.97 1326.72,1437.96 1328.58,1449.58 1330.43,1445.31 1332.28,1421.79 1334.14,1376.37 1335.99,1307.58 1337.84,1215.69 1339.7,1103.16 1341.55,974.754 1343.4,837.309 1345.26,699.022 1347.11,568.407 1348.96,453.117 1350.81,358.906 1352.67,289.012 1354.52,244.05 1356.37,222.389 1358.23,220.815 1360.08,235.285 1361.93,261.582 1363.79,295.797 1365.64,334.598 1367.49,375.341 1369.35,416.057 1371.2,455.369 1373.05,492.391 1374.9,526.614 1376.76,557.804 1378.61,585.923 1380.46,611.062 1382.32,633.391 1384.17,653.123 1386.02,670.49 1387.88,685.73 1389.73,699.071 1391.58,710.726 1393.44,720.894 1395.29,729.754 1397.14,737.467 1398.99,744.177 1400.85,750.01 1402.7,755.079 1404.55,759.481 1406.41,763.304 1408.26,766.623 1410.11,769.504 1411.97,772.003 1413.82,774.171 1415.67,776.052 1417.53,777.684 1419.38,779.099 1421.23,780.326 1423.08,781.39 1424.94,782.313 1426.79,783.113 1428.64,783.807 1430.5,784.408 1432.35,784.93 1434.2,785.382 1436.06,785.774 1437.91,786.114 1439.76,786.409 1441.62,786.664 1443.47,786.886 1445.32,787.078 1447.17,787.245 1449.03,787.389 1450.88,787.515 1452.73,787.624 1454.59,787.718 1456.44,787.8 1458.29,787.871 1460.15,787.933 1462,787.987 1463.85,788.033 1465.71,788.074 1467.56,788.109 1469.41,788.14 1471.26,788.167 1473.12,788.19 1474.97,788.21 1476.82,788.228 1478.68,788.244 1480.53,788.257 1482.38,788.269 1484.24,788.279 1486.09,788.288 1487.94,788.296 1489.8,788.303 1491.65,788.308 1493.5,788.314 1495.35,788.318 1497.21,788.322 1499.06,788.325 1500.91,788.328 1502.77,788.33 1504.62,788.333 1506.47,788.334 1508.33,788.336 1510.18,788.337 1512.03,788.338 1513.89,788.338 1515.74,788.339 1517.59,788.339 1519.44,788.339 1521.3,788.34 1523.15,788.339 1525,788.339 1526.86,788.339 1528.71,788.339 1530.56,788.339 1532.42,788.338 1534.27,788.338 1536.12,788.338 1537.98,788.337 1539.83,788.337 1541.68,788.337 1543.54,788.336 1545.39,788.336 1547.24,788.336 1549.09,788.336 1550.95,788.336 1552.8,788.336 1554.65,788.336 1556.51,788.336 1558.36,788.337 1560.21,788.337 1562.07,788.337 1563.92,788.338 1565.77,788.338 1567.63,788.339 1569.48,788.34 1571.33,788.34 1573.18,788.341 1575.04,788.342 1576.89,788.343 1578.74,788.344 1580.6,788.344 1582.45,788.345 1584.3,788.346 1586.16,788.346 1588.01,788.347 1589.86,788.348 1591.72,788.348 1593.57,788.348 1595.42,788.349 1597.27,788.349 1599.13,788.349 1600.98,788.349 1602.83,788.349 1604.69,788.349 1606.54,788.349 1608.39,788.348 1610.25,788.348 1612.1,788.347 1613.95,788.347 1615.81,788.346 1617.66,788.346 1619.51,788.345 1621.36,788.344 1623.22,788.344 1625.07,788.343 1626.92,788.342 1628.78,788.342 1630.63,788.341 1632.48,788.341 1634.34,788.34 1636.19,788.34 1638.04,788.34 1639.9,788.34 1641.75,788.339 1643.6,788.339 1645.45,788.339 1647.31,788.34 1649.16,788.34 1651.01,788.34 1652.87,788.34 1654.72,788.341 1656.57,788.341 1658.43,788.341 1660.28,788.342 1662.13,788.342 1663.99,788.342 1665.84,788.343 1667.69,788.343 1669.54,788.343 1671.4,788.343 1673.25,788.343 1675.1,788.344 1676.96,788.344 1678.81,788.344 1680.66,788.344 1682.52,788.344 1684.37,788.344 1686.22,788.344 1688.08,788.344 1689.93,788.344 1691.78,788.343 1693.63,788.343 1695.49,788.343 1697.34,788.343 1699.19,788.343 1701.05,788.343 1702.9,788.343 1704.75,788.343 1706.61,788.342 1708.46,788.342 1710.31,788.342 1712.17,788.342 1714.02,788.342 1715.87,788.342 1717.72,788.341 1719.58,788.341 1721.43,788.341 1723.28,788.341 1725.14,788.34 1726.99,788.34 1728.84,788.34 1730.7,788.339 1732.55,788.339 1734.4,788.339 1736.26,788.339 1738.11,788.338 1739.96,788.338 1741.81,788.338 1743.67,788.338 1745.52,788.338 1747.37,788.338 1749.23,788.339 1751.08,788.339 1752.93,788.339 1754.79,788.34 1756.64,788.34 1758.49,788.341 1760.35,788.341 1762.2,788.342 1764.05,788.342 1765.9,788.343 1767.76,788.343 1769.61,788.343 1771.46,788.344 1773.32,788.344 1775.17,788.343 1777.02,788.343 1778.88,788.343 1780.73,788.342 1782.58,788.341 1784.44,788.341 1786.29,788.34 1788.14,788.339 1789.99,788.338 1791.85,788.337 1793.7,788.336 1795.55,788.335 1797.41,788.335 1799.26,788.334 1801.11,788.334 1802.97,788.334 1804.82,788.334 1806.67,788.334 1808.53,788.335 1810.38,788.336 1812.23,788.337 1814.08,788.338 1815.94,788.339 1817.79,788.34 1819.64,788.341 1821.5,788.342 1823.35,788.343 1825.2,788.344 1827.06,788.344 1828.91,788.343 1830.76,788.343 1832.62,788.344 1834.47,788.344 1836.32,788.343 1838.17,788.341 1840.03,788.339 1841.88,788.337 1843.73,788.337 1845.59,788.337 1847.44,788.336 1849.29,788.333 1851.15,788.331 1853,788.329 1854.85,788.33 1856.71,788.332 1858.56,788.334 1860.41,788.334 1862.26,788.332 1864.12,788.331 1865.97,788.332 1867.82,788.336 1869.68,788.341 1871.53,788.345 1873.38,788.344 1875.24,788.341 1877.09,788.337 1878.94,788.337 1880.8,788.342 1882.65,788.348 1884.5,788.351 1886.35,788.348 1888.21,788.34 1890.06,788.331 1891.91,788.327 1893.77,788.33 1895.62,788.338 1897.47,788.345 1899.33,788.344 1901.18,788.335 1903.03,788.322 1904.89,788.313 1906.74,788.315 1908.59,788.327 1910.44,788.344 1912.3,788.354 1914.15,788.351 1916,788.337 1917.86,788.32 1919.71,788.312 1921.56,788.319 1923.42,788.339 1925.27,788.362 1927.12,788.374 1928.98,788.368 1930.83,788.344 1932.68,788.317 1934.53,788.3 1936.39,788.304 1938.24,788.329 1940.09,788.36 1941.95,788.38 1943.8,788.376 1945.65,788.347 1947.51,788.307 1949.36,788.277 1951.21,788.273 1953.07,788.299 1954.92,788.344 1956.77,788.386 1958.62,788.403 1960.48,788.385 1962.33,788.339 1964.18,788.287 1966.04,788.256 1967.89,788.264 1969.74,788.309 1971.6,788.372 1973.45,788.424 1975.3,788.438 1977.16,788.405 1979.01,788.337 1980.86,788.264 1982.71,788.22 1984.57,788.226 1986.42,788.283 1988.27,788.366 1990.13,788.44 1991.98,788.469 1993.83,788.438 1995.69,788.357 1997.54,788.259 1999.39,788.186 2001.25,788.173 2003.1,788.228 2004.95,788.332 2006.8,788.444 2008.66,788.516 2010.51,788.517 2012.36,788.442 2014.22,788.319 2016.07,788.196 2017.92,788.123 2019.78,788.132 2021.63,788.224 2023.48,788.366 2025.34,788.502 2027.19,788.58 2029.04,788.564 2030.89,788.458 2032.75,788.296 2034.6,788.14 2036.45,788.049 2038.31,788.06 2040.16,788.174 2042.01,788.354 2043.87,788.535 2045.72,788.651 2047.57,788.656 2049.43,788.544 2051.28,788.35 2053.13,788.141 2054.98,787.991 2056.84,787.955 2058.69,788.051 2060.54,788.25 2062.4,788.488 2064.25,788.683 2066.1,788.766 2067.96,788.706 2069.81,788.516 2071.66,788.255 2073.52,788.009 2075.37,787.86 2077.22,787.861 2079.07,788.018 2080.93,788.284 2082.78,788.577 2084.63,788.804 2086.49,788.89 2088.34,788.8 2090.19,788.559 2092.05,788.236 2093.9,787.929 2095.75,787.735 2097.61,787.718 2099.46,787.888 2101.31,788.201 2103.16,788.567 2105.02,788.875 2106.87,789.034 2108.72,788.989 2110.58,788.748 2112.43,788.376 2114.28,787.978 2116.14,787.668 2117.99,787.54 2119.84,787.636 2121.7,787.934 2123.55,788.357 2125.4,788.787 2127.25,789.103 2129.11,789.214 2130.96,789.083 2132.81,788.738 2134.67,788.268 2136.52,787.8 2138.37,787.46 2140.23,787.344 2142.08,787.492 2143.93,787.87 2145.79,788.384 2147.64,788.903 2149.49,789.289 2151.34,789.438 2153.2,789.304 2155.05,788.914 2156.9,788.361 2158.76,787.782 2160.61,787.324 2162.46,787.105 2164.32,787.187 2166.17,787.557 2168.02,788.131 2169.88,788.772 2171.73,789.324 2173.58,789.649 2175.43,789.664 2177.29,789.357 2179.14,788.794 2180.99,788.104 2182.85,787.449 2184.7,786.985 2186.55,786.825 2188.41,787.015 2190.26,787.517 2192.11,788.222 2193.97,788.971 2195.82,789.594 2197.67,789.944 2199.52,789.936 2201.38,789.563 2203.23,788.903 2205.08,788.096 2206.94,787.32 2208.79,786.747 2210.64,786.509 2212.5,786.665 2214.35,787.19 2216.2,787.977 2218.06,788.862 2219.91,789.656 2221.76,790.187 2223.61,790.337 2225.47,790.065 2227.32,789.419 2229.17,788.529 2231.03,787.573 2232.88,786.749 2234.73,786.231 2236.59,786.131 2238.44,786.477 2240.29,787.21 2242.15,788.188 2244,789.219 2245.85,790.099 2247.7,790.648 2249.56,790.752 2251.41,790.38 2253.26,789.597 2255.12,788.548 2256.97,787.43 2258.82,786.459 2260.68,785.825 2262.53,785.654 2264.38,785.989 2266.24,786.774 2268.09,787.872 2269.94,789.081 2271.79,790.178 2273.65,790.957 2275.5,791.269 2277.35,791.048 2279.21,790.324 2281.06,789.221 2282.91,787.932 2284.77,786.686 2286.62,785.707 2288.47,785.174 2290.33,785.19 2292.18,785.761 2294.03,786.797 2295.88,788.123 "/>
</svg>
