<?xml version="1.0" encoding="utf-8"?>
<svg xmlns="http://www.w3.org/2000/svg" xmlns:xlink="http://www.w3.org/1999/xlink" width="600" height="400" viewBox="0 0 2400 1600">
<defs>
  <clipPath id="clip560">
    <rect x="0" y="0" width="2400" height="1600"/>
  </clipPath>
</defs>
<path clip-path="url(#clip560)" d="M0 1600 L2400 1600 L2400 0 L0 0  Z" fill="#ffffff" fill-rule="evenodd" fill-opacity="1"/>
<defs>
  <clipPath id="clip561">
    <rect x="257" y="106" width="2096" height="1318"/>
  </clipPath>
</defs>
<path clip-path="url(#clip560)" d="M257.69 1423.18 L2352.76 1423.18 L2352.76 106.192 L257.69 106.192  Z" fill="#ffffff" fill-rule="evenodd" fill-opacity="1"/>
<polyline clip-path="url(#clip561)" style="stroke:#000000; stroke-linecap:round; stroke-linejoin:round; stroke-width:2; stroke-opacity:0.1; fill:none" points="364.369,1423.18 364.369,106.192 "/>
<polyline clip-path="url(#clip561)" style="stroke:#000000; stroke-linecap:round; stroke-linejoin:round; stroke-width:2; stroke-opacity:0.1; fill:none" points="679.101,1423.18 679.101,106.192 "/>
<polyline clip-path="url(#clip561)" style="stroke:#000000; stroke-linecap:round; stroke-linejoin:round; stroke-width:2; stroke-opacity:0.1; fill:none" points="993.833,1423.18 993.833,106.192 "/>
<polyline clip-path="url(#clip561)" style="stroke:#000000; stroke-linecap:round; stroke-linejoin:round; stroke-width:2; stroke-opacity:0.1; fill:none" points="1308.56,1423.18 1308.56,106.192 "/>
<polyline clip-path="url(#clip561)" style="stroke:#000000; stroke-linecap:round; stroke-linejoin:round; stroke-width:2; stroke-opacity:0.1; fill:none" points="1623.3,1423.18 1623.3,106.192 "/>
<polyline clip-path="url(#clip561)" style="stroke:#000000; stroke-linecap:round; stroke-linejoin:round; stroke-width:2; stroke-opacity:0.1; fill:none" points="1938.03,1423.18 1938.03,106.192 "/>
<polyline clip-path="url(#clip561)" style="stroke:#000000; stroke-linecap:round; stroke-linejoin:round; stroke-width:2; stroke-opacity:0.1; fill:none" points="2252.76,1423.18 2252.76,106.192 "/>
<polyline clip-path="url(#clip561)" style="stroke:#000000; stroke-linecap:round; stroke-linejoin:round; stroke-width:2; stroke-opacity:0.1; fill:none" points="257.69,1215.69 2352.76,1215.69 "/>
<polyline clip-path="url(#clip561)" style="stroke:#000000; stroke-linecap:round; stroke-linejoin:round; stroke-width:2; stroke-opacity:0.1; fill:none" points="257.69,881.941 2352.76,881.941 "/>
<polyline clip-path="url(#clip561)" style="stroke:#000000; stroke-linecap:round; stroke-linejoin:round; stroke-width:2; stroke-opacity:0.1; fill:none" points="257.69,548.193 2352.76,548.193 "/>
<polyline clip-path="url(#clip561)" style="stroke:#000000; stroke-linecap:round; stroke-linejoin:round; stroke-width:2; stroke-opacity:0.1; fill:none" points="257.69,214.445 2352.76,214.445 "/>
<polyline clip-path="url(#clip560)" style="stroke:#000000; stroke-linecap:round; stroke-linejoin:round; stroke-width:4; stroke-opacity:1; fill:none" points="257.69,1423.18 2352.76,1423.18 "/>
<polyline clip-path="url(#clip560)" style="stroke:#000000; stroke-linecap:round; stroke-linejoin:round; stroke-width:4; stroke-opacity:1; fill:none" points="364.369,1423.18 364.369,1404.28 "/>
<polyline clip-path="url(#clip560)" style="stroke:#000000; stroke-linecap:round; stroke-linejoin:round; stroke-width:4; stroke-opacity:1; fill:none" points="679.101,1423.18 679.101,1404.28 "/>
<polyline clip-path="url(#clip560)" style="stroke:#000000; stroke-linecap:round; stroke-linejoin:round; stroke-width:4; stroke-opacity:1; fill:none" points="993.833,1423.18 993.833,1404.28 "/>
<polyline clip-path="url(#clip560)" style="stroke:#000000; stroke-linecap:round; stroke-linejoin:round; stroke-width:4; stroke-opacity:1; fill:none" points="1308.56,1423.18 1308.56,1404.28 "/>
<polyline clip-path="url(#clip560)" style="stroke:#000000; stroke-linecap:round; stroke-linejoin:round; stroke-width:4; stroke-opacity:1; fill:none" points="1623.3,1423.18 1623.3,1404.28 "/>
<polyline clip-path="url(#clip560)" style="stroke:#000000; stroke-linecap:round; stroke-linejoin:round; stroke-width:4; stroke-opacity:1; fill:none" points="1938.03,1423.18 1938.03,1404.28 "/>
<polyline clip-path="url(#clip560)" style="stroke:#000000; stroke-linecap:round; stroke-linejoin:round; stroke-width:4; stroke-opacity:1; fill:none" points="2252.76,1423.18 2252.76,1404.28 "/>
<path clip-path="url(#clip560)" d="M333.836 1468.75 L363.512 1468.75 L363.512 1472.69 L333.836 1472.69 L333.836 1468.75 Z" fill="#000000" fill-rule="nonzero" fill-opacity="1" /><path clip-path="url(#clip560)" d="M387.771 1466.95 Q391.128 1467.66 393.003 1469.93 Q394.901 1472.2 394.901 1475.53 Q394.901 1480.65 391.382 1483.45 Q387.864 1486.25 381.382 1486.25 Q379.207 1486.25 376.892 1485.81 Q374.6 1485.39 372.146 1484.54 L372.146 1480.02 Q374.091 1481.16 376.406 1481.74 Q378.72 1482.32 381.244 1482.32 Q385.642 1482.32 387.933 1480.58 Q390.248 1478.84 390.248 1475.53 Q390.248 1472.48 388.095 1470.77 Q385.966 1469.03 382.146 1469.03 L378.119 1469.03 L378.119 1465.19 L382.332 1465.19 Q385.781 1465.19 387.609 1463.82 Q389.438 1462.43 389.438 1459.84 Q389.438 1457.18 387.54 1455.77 Q385.665 1454.33 382.146 1454.33 Q380.225 1454.33 378.026 1454.75 Q375.827 1455.16 373.188 1456.04 L373.188 1451.88 Q375.85 1451.14 378.165 1450.77 Q380.503 1450.39 382.563 1450.39 Q387.887 1450.39 390.989 1452.83 Q394.091 1455.23 394.091 1459.35 Q394.091 1462.22 392.447 1464.21 Q390.804 1466.18 387.771 1466.95 Z" fill="#000000" fill-rule="nonzero" fill-opacity="1" /><path clip-path="url(#clip560)" d="M649.043 1468.75 L678.719 1468.75 L678.719 1472.69 L649.043 1472.69 L649.043 1468.75 Z" fill="#000000" fill-rule="nonzero" fill-opacity="1" /><path clip-path="url(#clip560)" d="M692.839 1481.64 L709.158 1481.64 L709.158 1485.58 L687.214 1485.58 L687.214 1481.64 Q689.876 1478.89 694.459 1474.26 Q699.066 1469.61 700.246 1468.27 Q702.492 1465.74 703.371 1464.01 Q704.274 1462.25 704.274 1460.56 Q704.274 1457.8 702.33 1456.07 Q700.408 1454.33 697.306 1454.33 Q695.107 1454.33 692.654 1455.09 Q690.223 1455.86 687.445 1457.41 L687.445 1452.69 Q690.27 1451.55 692.723 1450.97 Q695.177 1450.39 697.214 1450.39 Q702.584 1450.39 705.779 1453.08 Q708.973 1455.77 708.973 1460.26 Q708.973 1462.39 708.163 1464.31 Q707.376 1466.2 705.269 1468.8 Q704.691 1469.47 701.589 1472.69 Q698.487 1475.88 692.839 1481.64 Z" fill="#000000" fill-rule="nonzero" fill-opacity="1" /><path clip-path="url(#clip560)" d="M963.59 1468.75 L993.265 1468.75 L993.265 1472.69 L963.59 1472.69 L963.59 1468.75 Z" fill="#000000" fill-rule="nonzero" fill-opacity="1" /><path clip-path="url(#clip560)" d="M1004.17 1481.64 L1011.81 1481.64 L1011.81 1455.28 L1003.5 1456.95 L1003.5 1452.69 L1011.76 1451.02 L1016.44 1451.02 L1016.44 1481.64 L1024.08 1481.64 L1024.08 1485.58 L1004.17 1485.58 L1004.17 1481.64 Z" fill="#000000" fill-rule="nonzero" fill-opacity="1" /><path clip-path="url(#clip560)" d="M1308.56 1454.1 Q1304.95 1454.1 1303.12 1457.66 Q1301.32 1461.2 1301.32 1468.33 Q1301.32 1475.44 1303.12 1479.01 Q1304.95 1482.55 1308.56 1482.55 Q1312.2 1482.55 1314 1479.01 Q1315.83 1475.44 1315.83 1468.33 Q1315.83 1461.2 1314 1457.66 Q1312.2 1454.1 1308.56 1454.1 M1308.56 1450.39 Q1314.37 1450.39 1317.43 1455 Q1320.51 1459.58 1320.51 1468.33 Q1320.51 1477.06 1317.43 1481.67 Q1314.37 1486.25 1308.56 1486.25 Q1302.75 1486.25 1299.68 1481.67 Q1296.62 1477.06 1296.62 1468.33 Q1296.62 1459.58 1299.68 1455 Q1302.75 1450.39 1308.56 1450.39 Z" fill="#000000" fill-rule="nonzero" fill-opacity="1" /><path clip-path="url(#clip560)" d="M1613.68 1481.64 L1621.32 1481.64 L1621.32 1455.28 L1613.01 1456.95 L1613.01 1452.69 L1621.27 1451.02 L1625.95 1451.02 L1625.95 1481.64 L1633.59 1481.64 L1633.59 1485.58 L1613.68 1485.58 L1613.68 1481.64 Z" fill="#000000" fill-rule="nonzero" fill-opacity="1" /><path clip-path="url(#clip560)" d="M1932.68 1481.64 L1949 1481.64 L1949 1485.58 L1927.06 1485.58 L1927.06 1481.64 Q1929.72 1478.89 1934.3 1474.26 Q1938.91 1469.61 1940.09 1468.27 Q1942.33 1465.74 1943.21 1464.01 Q1944.12 1462.25 1944.12 1460.56 Q1944.12 1457.8 1942.17 1456.07 Q1940.25 1454.33 1937.15 1454.33 Q1934.95 1454.33 1932.5 1455.09 Q1930.07 1455.86 1927.29 1457.41 L1927.29 1452.69 Q1930.11 1451.55 1932.57 1450.97 Q1935.02 1450.39 1937.06 1450.39 Q1942.43 1450.39 1945.62 1453.08 Q1948.82 1455.77 1948.82 1460.26 Q1948.82 1462.39 1948.01 1464.31 Q1947.22 1466.2 1945.11 1468.8 Q1944.53 1469.47 1941.43 1472.69 Q1938.33 1475.88 1932.68 1481.64 Z" fill="#000000" fill-rule="nonzero" fill-opacity="1" /><path clip-path="url(#clip560)" d="M2257.01 1466.95 Q2260.36 1467.66 2262.24 1469.93 Q2264.14 1472.2 2264.14 1475.53 Q2264.14 1480.65 2260.62 1483.45 Q2257.1 1486.25 2250.62 1486.25 Q2248.44 1486.25 2246.13 1485.81 Q2243.84 1485.39 2241.38 1484.54 L2241.38 1480.02 Q2243.33 1481.16 2245.64 1481.74 Q2247.96 1482.32 2250.48 1482.32 Q2254.88 1482.32 2257.17 1480.58 Q2259.48 1478.84 2259.48 1475.53 Q2259.48 1472.48 2257.33 1470.77 Q2255.2 1469.03 2251.38 1469.03 L2247.36 1469.03 L2247.36 1465.19 L2251.57 1465.19 Q2255.02 1465.19 2256.85 1463.82 Q2258.67 1462.43 2258.67 1459.84 Q2258.67 1457.18 2256.78 1455.77 Q2254.9 1454.33 2251.38 1454.33 Q2249.46 1454.33 2247.26 1454.75 Q2245.06 1455.16 2242.42 1456.04 L2242.42 1451.88 Q2245.09 1451.14 2247.4 1450.77 Q2249.74 1450.39 2251.8 1450.39 Q2257.12 1450.39 2260.23 1452.83 Q2263.33 1455.23 2263.33 1459.35 Q2263.33 1462.22 2261.68 1464.21 Q2260.04 1466.18 2257.01 1466.95 Z" fill="#000000" fill-rule="nonzero" fill-opacity="1" /><path clip-path="url(#clip560)" d="M1321.84 1532.4 L1308.95 1549.74 L1322.51 1568.04 L1315.6 1568.04 L1305.22 1554.04 L1294.85 1568.04 L1287.94 1568.04 L1301.79 1549.39 L1289.12 1532.4 L1296.02 1532.4 L1305.48 1545.1 L1314.93 1532.4 L1321.84 1532.4 Z" fill="#000000" fill-rule="nonzero" fill-opacity="1" /><polyline clip-path="url(#clip560)" style="stroke:#000000; stroke-linecap:round; stroke-linejoin:round; stroke-width:4; stroke-opacity:1; fill:none" points="257.69,1423.18 257.69,106.192 "/>
<polyline clip-path="url(#clip560)" style="stroke:#000000; stroke-linecap:round; stroke-linejoin:round; stroke-width:4; stroke-opacity:1; fill:none" points="257.69,1215.69 276.588,1215.69 "/>
<polyline clip-path="url(#clip560)" style="stroke:#000000; stroke-linecap:round; stroke-linejoin:round; stroke-width:4; stroke-opacity:1; fill:none" points="257.69,881.941 276.588,881.941 "/>
<polyline clip-path="url(#clip560)" style="stroke:#000000; stroke-linecap:round; stroke-linejoin:round; stroke-width:4; stroke-opacity:1; fill:none" points="257.69,548.193 276.588,548.193 "/>
<polyline clip-path="url(#clip560)" style="stroke:#000000; stroke-linecap:round; stroke-linejoin:round; stroke-width:4; stroke-opacity:1; fill:none" points="257.69,214.445 276.588,214.445 "/>
<path clip-path="url(#clip560)" d="M114.584 1216.14 L144.26 1216.14 L144.26 1220.08 L114.584 1220.08 L114.584 1216.14 Z" fill="#000000" fill-rule="nonzero" fill-opacity="1" /><path clip-path="url(#clip560)" d="M164.352 1201.49 Q160.741 1201.49 158.913 1205.05 Q157.107 1208.59 157.107 1215.72 Q157.107 1222.83 158.913 1226.39 Q160.741 1229.94 164.352 1229.94 Q167.987 1229.94 169.792 1226.39 Q171.621 1222.83 171.621 1215.72 Q171.621 1208.59 169.792 1205.05 Q167.987 1201.49 164.352 1201.49 M164.352 1197.78 Q170.163 1197.78 173.218 1202.39 Q176.297 1206.97 176.297 1215.72 Q176.297 1224.45 173.218 1229.06 Q170.163 1233.64 164.352 1233.64 Q158.542 1233.64 155.464 1229.06 Q152.408 1224.45 152.408 1215.72 Q152.408 1206.97 155.464 1202.39 Q158.542 1197.78 164.352 1197.78 Z" fill="#000000" fill-rule="nonzero" fill-opacity="1" /><path clip-path="url(#clip560)" d="M184.514 1227.09 L189.399 1227.09 L189.399 1232.97 L184.514 1232.97 L184.514 1227.09 Z" fill="#000000" fill-rule="nonzero" fill-opacity="1" /><path clip-path="url(#clip560)" d="M210.162 1213.83 Q207.014 1213.83 205.162 1215.98 Q203.334 1218.13 203.334 1221.88 Q203.334 1225.61 205.162 1227.78 Q207.014 1229.94 210.162 1229.94 Q213.311 1229.94 215.139 1227.78 Q216.991 1225.61 216.991 1221.88 Q216.991 1218.13 215.139 1215.98 Q213.311 1213.83 210.162 1213.83 M219.445 1199.17 L219.445 1203.43 Q217.686 1202.6 215.88 1202.16 Q214.098 1201.72 212.338 1201.72 Q207.709 1201.72 205.255 1204.84 Q202.824 1207.97 202.477 1214.29 Q203.843 1212.27 205.903 1211.21 Q207.963 1210.12 210.44 1210.12 Q215.649 1210.12 218.658 1213.29 Q221.69 1216.44 221.69 1221.88 Q221.69 1227.21 218.542 1230.42 Q215.394 1233.64 210.162 1233.64 Q204.167 1233.64 200.996 1229.06 Q197.825 1224.45 197.825 1215.72 Q197.825 1207.53 201.713 1202.67 Q205.602 1197.78 212.153 1197.78 Q213.912 1197.78 215.695 1198.13 Q217.5 1198.48 219.445 1199.17 Z" fill="#000000" fill-rule="nonzero" fill-opacity="1" /><path clip-path="url(#clip560)" d="M114.26 882.392 L143.936 882.392 L143.936 886.327 L114.26 886.327 L114.26 882.392 Z" fill="#000000" fill-rule="nonzero" fill-opacity="1" /><path clip-path="url(#clip560)" d="M164.028 867.74 Q160.417 867.74 158.589 871.304 Q156.783 874.846 156.783 881.976 Q156.783 889.082 158.589 892.647 Q160.417 896.188 164.028 896.188 Q167.663 896.188 169.468 892.647 Q171.297 889.082 171.297 881.976 Q171.297 874.846 169.468 871.304 Q167.663 867.74 164.028 867.74 M164.028 864.036 Q169.839 864.036 172.894 868.642 Q175.973 873.226 175.973 881.976 Q175.973 890.702 172.894 895.309 Q169.839 899.892 164.028 899.892 Q158.218 899.892 155.14 895.309 Q152.084 890.702 152.084 881.976 Q152.084 873.226 155.14 868.642 Q158.218 864.036 164.028 864.036 Z" fill="#000000" fill-rule="nonzero" fill-opacity="1" /><path clip-path="url(#clip560)" d="M184.19 893.341 L189.075 893.341 L189.075 899.221 L184.19 899.221 L184.19 893.341 Z" fill="#000000" fill-rule="nonzero" fill-opacity="1" /><path clip-path="url(#clip560)" d="M212.107 868.735 L200.301 887.184 L212.107 887.184 L212.107 868.735 M210.88 864.661 L216.76 864.661 L216.76 887.184 L221.69 887.184 L221.69 891.073 L216.76 891.073 L216.76 899.221 L212.107 899.221 L212.107 891.073 L196.505 891.073 L196.505 886.559 L210.88 864.661 Z" fill="#000000" fill-rule="nonzero" fill-opacity="1" /><path clip-path="url(#clip560)" d="M116.343 548.644 L146.019 548.644 L146.019 552.579 L116.343 552.579 L116.343 548.644 Z" fill="#000000" fill-rule="nonzero" fill-opacity="1" /><path clip-path="url(#clip560)" d="M166.112 533.991 Q162.501 533.991 160.672 537.556 Q158.866 541.098 158.866 548.227 Q158.866 555.334 160.672 558.899 Q162.501 562.44 166.112 562.44 Q169.746 562.44 171.552 558.899 Q173.38 555.334 173.38 548.227 Q173.38 541.098 171.552 537.556 Q169.746 533.991 166.112 533.991 M166.112 530.288 Q171.922 530.288 174.977 534.894 Q178.056 539.478 178.056 548.227 Q178.056 556.954 174.977 561.561 Q171.922 566.144 166.112 566.144 Q160.302 566.144 157.223 561.561 Q154.167 556.954 154.167 548.227 Q154.167 539.478 157.223 534.894 Q160.302 530.288 166.112 530.288 Z" fill="#000000" fill-rule="nonzero" fill-opacity="1" /><path clip-path="url(#clip560)" d="M186.274 559.593 L191.158 559.593 L191.158 565.473 L186.274 565.473 L186.274 559.593 Z" fill="#000000" fill-rule="nonzero" fill-opacity="1" /><path clip-path="url(#clip560)" d="M205.371 561.538 L221.69 561.538 L221.69 565.473 L199.746 565.473 L199.746 561.538 Q202.408 558.783 206.991 554.153 Q211.598 549.501 212.778 548.158 Q215.024 545.635 215.903 543.899 Q216.806 542.14 216.806 540.45 Q216.806 537.695 214.861 535.959 Q212.94 534.223 209.838 534.223 Q207.639 534.223 205.186 534.987 Q202.755 535.751 199.977 537.302 L199.977 532.579 Q202.801 531.445 205.255 530.866 Q207.709 530.288 209.746 530.288 Q215.116 530.288 218.311 532.973 Q221.505 535.658 221.505 540.149 Q221.505 542.278 220.695 544.2 Q219.908 546.098 217.801 548.69 Q217.223 549.362 214.121 552.579 Q211.019 555.774 205.371 561.538 Z" fill="#000000" fill-rule="nonzero" fill-opacity="1" /><path clip-path="url(#clip560)" d="M164.515 200.243 Q160.903 200.243 159.075 203.808 Q157.269 207.35 157.269 214.479 Q157.269 221.586 159.075 225.151 Q160.903 228.692 164.515 228.692 Q168.149 228.692 169.954 225.151 Q171.783 221.586 171.783 214.479 Q171.783 207.35 169.954 203.808 Q168.149 200.243 164.515 200.243 M164.515 196.54 Q170.325 196.54 173.38 201.146 Q176.459 205.729 176.459 214.479 Q176.459 223.206 173.38 227.813 Q170.325 232.396 164.515 232.396 Q158.704 232.396 155.626 227.813 Q152.57 223.206 152.57 214.479 Q152.57 205.729 155.626 201.146 Q158.704 196.54 164.515 196.54 Z" fill="#000000" fill-rule="nonzero" fill-opacity="1" /><path clip-path="url(#clip560)" d="M184.676 225.845 L189.561 225.845 L189.561 231.725 L184.676 231.725 L184.676 225.845 Z" fill="#000000" fill-rule="nonzero" fill-opacity="1" /><path clip-path="url(#clip560)" d="M209.746 200.243 Q206.135 200.243 204.306 203.808 Q202.5 207.35 202.5 214.479 Q202.5 221.586 204.306 225.151 Q206.135 228.692 209.746 228.692 Q213.38 228.692 215.186 225.151 Q217.014 221.586 217.014 214.479 Q217.014 207.35 215.186 203.808 Q213.38 200.243 209.746 200.243 M209.746 196.54 Q215.556 196.54 218.611 201.146 Q221.69 205.729 221.69 214.479 Q221.69 223.206 218.611 227.813 Q215.556 232.396 209.746 232.396 Q203.936 232.396 200.857 227.813 Q197.801 223.206 197.801 214.479 Q197.801 205.729 200.857 201.146 Q203.936 196.54 209.746 196.54 Z" fill="#000000" fill-rule="nonzero" fill-opacity="1" /><path clip-path="url(#clip560)" d="M42.4881 749.758 L77.5631 749.758 L77.5631 755.615 L42.679 755.615 Q37.6183 755.615 35.1038 757.588 Q32.5894 759.562 32.5894 763.508 Q32.5894 768.251 35.6131 770.988 Q38.6368 773.725 43.8567 773.725 L64.0042 773.725 L64.0042 779.614 L28.3562 779.614 L28.3562 773.725 L33.8944 773.725 Q30.6797 771.625 29.0883 768.792 Q27.4968 765.927 27.4968 762.203 Q27.4968 756.06 31.2844 752.909 Q35.1038 749.758 42.4881 749.758 Z" fill="#000000" fill-rule="nonzero" fill-opacity="1" /><path clip-path="url(#clip560)" d="M835.492 10.0578 L835.492 15.758 Q832.164 14.1666 829.213 13.3853 Q826.261 12.6041 823.513 12.6041 Q818.738 12.6041 816.134 14.4559 Q813.559 16.3078 813.559 19.7221 Q813.559 22.5867 815.266 24.0624 Q817.002 25.5091 821.805 26.4061 L825.336 27.1295 Q831.875 28.3737 834.971 31.5276 Q838.096 34.6526 838.096 39.9188 Q838.096 46.1977 833.871 49.4384 Q829.676 52.6791 821.545 52.6791 Q818.478 52.6791 815.006 51.9847 Q811.562 51.2902 807.859 49.9303 L807.859 43.9118 Q811.418 45.9083 814.832 46.921 Q818.246 47.9338 821.545 47.9338 Q826.551 47.9338 829.271 45.9662 Q831.991 43.9986 831.991 40.3528 Q831.991 37.1699 830.023 35.376 Q828.084 33.582 823.628 32.685 L820.069 31.9906 Q813.53 30.6885 810.608 27.9107 Q807.685 25.133 807.685 20.1851 Q807.685 14.4559 811.707 11.1573 Q815.758 7.85875 822.847 7.85875 Q825.885 7.85875 829.039 8.40852 Q832.193 8.95829 835.492 10.0578 Z" fill="#000000" fill-rule="nonzero" fill-opacity="1" /><path clip-path="url(#clip560)" d="M846.429 39.0507 L846.429 19.4328 L851.753 19.4328 L851.753 38.8482 Q851.753 43.4488 853.547 45.7636 Q855.341 48.0495 858.929 48.0495 Q863.24 48.0495 865.729 45.3007 Q868.246 42.5519 868.246 37.8065 L868.246 19.4328 L873.57 19.4328 L873.57 51.84 L868.246 51.84 L868.246 46.8632 Q866.308 49.8145 863.732 51.2613 Q861.186 52.6791 857.801 52.6791 Q852.216 52.6791 849.323 49.2069 Q846.429 45.7347 846.429 39.0507 M859.826 18.6515 L859.826 18.6515 Z" fill="#000000" fill-rule="nonzero" fill-opacity="1" /><path clip-path="url(#clip560)" d="M903.315 24.4096 Q902.418 23.8888 901.348 23.6573 Q900.306 23.3969 899.033 23.3969 Q894.519 23.3969 892.089 26.3482 Q889.687 29.2707 889.687 34.7683 L889.687 51.84 L884.334 51.84 L884.334 19.4328 L889.687 19.4328 L889.687 24.4675 Q891.365 21.5161 894.056 20.0983 Q896.747 18.6515 900.596 18.6515 Q901.145 18.6515 901.811 18.7383 Q902.476 18.7962 903.287 18.9409 L903.315 24.4096 Z" fill="#000000" fill-rule="nonzero" fill-opacity="1" /><path clip-path="url(#clip560)" d="M925.306 6.81709 L925.306 11.2442 L920.214 11.2442 Q917.349 11.2442 916.22 12.4016 Q915.121 13.559 915.121 16.5682 L915.121 19.4328 L923.888 19.4328 L923.888 23.5705 L915.121 23.5705 L915.121 51.84 L909.768 51.84 L909.768 23.5705 L904.675 23.5705 L904.675 19.4328 L909.768 19.4328 L909.768 17.1758 Q909.768 11.765 912.285 9.30551 Q914.803 6.81709 920.271 6.81709 L925.306 6.81709 Z" fill="#000000" fill-rule="nonzero" fill-opacity="1" /><path clip-path="url(#clip560)" d="M944.49 35.5496 Q938.037 35.5496 935.549 37.0253 Q933.061 38.501 933.061 42.06 Q933.061 44.8956 934.913 46.5738 Q936.793 48.2231 940.005 48.2231 Q944.432 48.2231 947.094 45.0981 Q949.785 41.9442 949.785 36.7359 L949.785 35.5496 L944.49 35.5496 M955.109 33.3505 L955.109 51.84 L949.785 51.84 L949.785 46.921 Q947.962 49.8724 945.242 51.2902 Q942.522 52.6791 938.587 52.6791 Q933.61 52.6791 930.659 49.9014 Q927.737 47.0947 927.737 42.4072 Q927.737 36.9385 931.382 34.1607 Q935.057 31.3829 942.32 31.3829 L949.785 31.3829 L949.785 30.8621 Q949.785 27.1874 947.355 25.1908 Q944.953 23.1654 940.584 23.1654 Q937.806 23.1654 935.173 23.8309 Q932.54 24.4964 930.109 25.8274 L930.109 20.9085 Q933.032 19.78 935.781 19.2302 Q938.529 18.6515 941.134 18.6515 Q948.165 18.6515 951.637 22.2973 Q955.109 25.9431 955.109 33.3505 Z" fill="#000000" fill-rule="nonzero" fill-opacity="1" /><path clip-path="url(#clip560)" d="M989.397 20.677 L989.397 25.6538 Q987.14 24.4096 984.854 23.802 Q982.597 23.1654 980.283 23.1654 Q975.103 23.1654 972.239 26.464 Q969.374 29.7336 969.374 35.6653 Q969.374 41.597 972.239 44.8956 Q975.103 48.1653 980.283 48.1653 Q982.597 48.1653 984.854 47.5576 Q987.14 46.921 989.397 45.6768 L989.397 50.5958 Q987.169 51.6375 984.768 52.1583 Q982.395 52.6791 979.704 52.6791 Q972.383 52.6791 968.072 48.0784 Q963.761 43.4778 963.761 35.6653 Q963.761 27.7371 968.101 23.1943 Q972.47 18.6515 980.051 18.6515 Q982.511 18.6515 984.854 19.1724 Q987.198 19.6642 989.397 20.677 Z" fill="#000000" fill-rule="nonzero" fill-opacity="1" /><path clip-path="url(#clip560)" d="M1026.38 34.3054 L1026.38 36.9095 L1001.9 36.9095 Q1002.24 42.4072 1005.2 45.3007 Q1008.18 48.1653 1013.47 48.1653 Q1016.54 48.1653 1019.4 47.4129 Q1022.3 46.6606 1025.13 45.156 L1025.13 50.1907 Q1022.27 51.406 1019.26 52.0425 Q1016.25 52.6791 1013.15 52.6791 Q1005.4 52.6791 1000.86 48.1653 Q996.342 43.6514 996.342 35.9547 Q996.342 27.9975 1000.62 23.339 Q1004.94 18.6515 1012.23 18.6515 Q1018.77 18.6515 1022.56 22.876 Q1026.38 27.0716 1026.38 34.3054 M1021.05 32.7429 Q1020.99 28.3737 1018.59 25.7695 Q1016.22 23.1654 1012.28 23.1654 Q1007.83 23.1654 1005.14 25.6827 Q1002.48 28.2001 1002.07 32.7718 L1021.05 32.7429 Z" fill="#000000" fill-rule="nonzero" fill-opacity="1" /><path clip-path="url(#clip560)" d="M1075.28 24.3517 L1075.28 6.81709 L1080.6 6.81709 L1080.6 51.84 L1075.28 51.84 L1075.28 46.9789 Q1073.6 49.8724 1071.02 51.2902 Q1068.48 52.6791 1064.89 52.6791 Q1059.01 52.6791 1055.31 47.9916 Q1051.64 43.3042 1051.64 35.6653 Q1051.64 28.0265 1055.31 23.339 Q1059.01 18.6515 1064.89 18.6515 Q1068.48 18.6515 1071.02 20.0693 Q1073.6 21.4582 1075.28 24.3517 M1057.13 35.6653 Q1057.13 41.5391 1059.54 44.8956 Q1061.97 48.2231 1066.19 48.2231 Q1070.42 48.2231 1072.85 44.8956 Q1075.28 41.5391 1075.28 35.6653 Q1075.28 29.7915 1072.85 26.464 Q1070.42 23.1075 1066.19 23.1075 Q1061.97 23.1075 1059.54 26.464 Q1057.13 29.7915 1057.13 35.6653 Z" fill="#000000" fill-rule="nonzero" fill-opacity="1" /><path clip-path="url(#clip560)" d="M1119.29 34.3054 L1119.29 36.9095 L1094.81 36.9095 Q1095.15 42.4072 1098.11 45.3007 Q1101.09 48.1653 1106.38 48.1653 Q1109.45 48.1653 1112.31 47.4129 Q1115.21 46.6606 1118.04 45.156 L1118.04 50.1907 Q1115.18 51.406 1112.17 52.0425 Q1109.16 52.6791 1106.06 52.6791 Q1098.31 52.6791 1093.77 48.1653 Q1089.25 43.6514 1089.25 35.9547 Q1089.25 27.9975 1093.53 23.339 Q1097.85 18.6515 1105.14 18.6515 Q1111.68 18.6515 1115.47 22.876 Q1119.29 27.0716 1119.29 34.3054 M1113.96 32.7429 Q1113.9 28.3737 1111.5 25.7695 Q1109.13 23.1654 1105.2 23.1654 Q1100.74 23.1654 1098.05 25.6827 Q1095.39 28.2001 1094.98 32.7718 L1113.96 32.7429 Z" fill="#000000" fill-rule="nonzero" fill-opacity="1" /><path clip-path="url(#clip560)" d="M1144.43 6.81709 L1144.43 11.2442 L1139.34 11.2442 Q1136.47 11.2442 1135.35 12.4016 Q1134.25 13.559 1134.25 16.5682 L1134.25 19.4328 L1143.01 19.4328 L1143.01 23.5705 L1134.25 23.5705 L1134.25 51.84 L1128.89 51.84 L1128.89 23.5705 L1123.8 23.5705 L1123.8 19.4328 L1128.89 19.4328 L1128.89 17.1758 Q1128.89 11.765 1131.41 9.30551 Q1133.93 6.81709 1139.4 6.81709 L1144.43 6.81709 Z" fill="#000000" fill-rule="nonzero" fill-opacity="1" /><path clip-path="url(#clip560)" d="M1161.44 23.1654 Q1157.16 23.1654 1154.67 26.5218 Q1152.19 29.8494 1152.19 35.6653 Q1152.19 41.4813 1154.65 44.8377 Q1157.13 48.1653 1161.44 48.1653 Q1165.7 48.1653 1168.19 44.8088 Q1170.68 41.4523 1170.68 35.6653 Q1170.68 29.9072 1168.19 26.5508 Q1165.7 23.1654 1161.44 23.1654 M1161.44 18.6515 Q1168.39 18.6515 1172.35 23.1654 Q1176.32 27.6792 1176.32 35.6653 Q1176.32 43.6225 1172.35 48.1653 Q1168.39 52.6791 1161.44 52.6791 Q1154.47 52.6791 1150.51 48.1653 Q1146.57 43.6225 1146.57 35.6653 Q1146.57 27.6792 1150.51 23.1654 Q1154.47 18.6515 1161.44 18.6515 Z" fill="#000000" fill-rule="nonzero" fill-opacity="1" /><path clip-path="url(#clip560)" d="M1203.92 24.4096 Q1203.02 23.8888 1201.95 23.6573 Q1200.91 23.3969 1199.64 23.3969 Q1195.13 23.3969 1192.69 26.3482 Q1190.29 29.2707 1190.29 34.7683 L1190.29 51.84 L1184.94 51.84 L1184.94 19.4328 L1190.29 19.4328 L1190.29 24.4675 Q1191.97 21.5161 1194.66 20.0983 Q1197.35 18.6515 1201.2 18.6515 Q1201.75 18.6515 1202.42 18.7383 Q1203.08 18.7962 1203.89 18.9409 L1203.92 24.4096 Z" fill="#000000" fill-rule="nonzero" fill-opacity="1" /><path clip-path="url(#clip560)" d="M1233.7 25.6538 Q1235.69 22.0659 1238.47 20.3587 Q1241.25 18.6515 1245.01 18.6515 Q1250.07 18.6515 1252.82 22.2105 Q1255.57 25.7406 1255.57 32.2799 L1255.57 51.84 L1250.22 51.84 L1250.22 32.4535 Q1250.22 27.795 1248.57 25.5381 Q1246.92 23.2811 1243.53 23.2811 Q1239.4 23.2811 1236.99 26.03 Q1234.59 28.7788 1234.59 33.5241 L1234.59 51.84 L1229.24 51.84 L1229.24 32.4535 Q1229.24 27.7661 1227.59 25.5381 Q1225.94 23.2811 1222.5 23.2811 Q1218.42 23.2811 1216.02 26.0589 Q1213.61 28.8077 1213.61 33.5241 L1213.61 51.84 L1208.26 51.84 L1208.26 19.4328 L1213.61 19.4328 L1213.61 24.4675 Q1215.44 21.4872 1217.98 20.0693 Q1220.53 18.6515 1224.03 18.6515 Q1227.56 18.6515 1230.02 20.4455 Q1232.51 22.2395 1233.7 25.6538 Z" fill="#000000" fill-rule="nonzero" fill-opacity="1" /><path clip-path="url(#clip560)" d="M1280.92 35.5496 Q1274.47 35.5496 1271.98 37.0253 Q1269.49 38.501 1269.49 42.06 Q1269.49 44.8956 1271.34 46.5738 Q1273.22 48.2231 1276.43 48.2231 Q1280.86 48.2231 1283.52 45.0981 Q1286.21 41.9442 1286.21 36.7359 L1286.21 35.5496 L1280.92 35.5496 M1291.54 33.3505 L1291.54 51.84 L1286.21 51.84 L1286.21 46.921 Q1284.39 49.8724 1281.67 51.2902 Q1278.95 52.6791 1275.01 52.6791 Q1270.04 52.6791 1267.09 49.9014 Q1264.16 47.0947 1264.16 42.4072 Q1264.16 36.9385 1267.81 34.1607 Q1271.48 31.3829 1278.75 31.3829 L1286.21 31.3829 L1286.21 30.8621 Q1286.21 27.1874 1283.78 25.1908 Q1281.38 23.1654 1277.01 23.1654 Q1274.23 23.1654 1271.6 23.8309 Q1268.97 24.4964 1266.54 25.8274 L1266.54 20.9085 Q1269.46 19.78 1272.21 19.2302 Q1274.96 18.6515 1277.56 18.6515 Q1284.59 18.6515 1288.06 22.2973 Q1291.54 25.9431 1291.54 33.3505 Z" fill="#000000" fill-rule="nonzero" fill-opacity="1" /><path clip-path="url(#clip560)" d="M1307.77 10.2314 L1307.77 19.4328 L1318.74 19.4328 L1318.74 23.5705 L1307.77 23.5705 L1307.77 41.163 Q1307.77 45.1271 1308.84 46.2555 Q1309.94 47.384 1313.27 47.384 L1318.74 47.384 L1318.74 51.84 L1313.27 51.84 Q1307.1 51.84 1304.76 49.5541 Q1302.42 47.2393 1302.42 41.163 L1302.42 23.5705 L1298.51 23.5705 L1298.51 19.4328 L1302.42 19.4328 L1302.42 10.2314 L1307.77 10.2314 Z" fill="#000000" fill-rule="nonzero" fill-opacity="1" /><path clip-path="url(#clip560)" d="M1325.74 19.4328 L1331.06 19.4328 L1331.06 51.84 L1325.74 51.84 L1325.74 19.4328 M1325.74 6.81709 L1331.06 6.81709 L1331.06 13.559 L1325.74 13.559 L1325.74 6.81709 Z" fill="#000000" fill-rule="nonzero" fill-opacity="1" /><path clip-path="url(#clip560)" d="M1354.76 23.1654 Q1350.48 23.1654 1347.99 26.5218 Q1345.5 29.8494 1345.5 35.6653 Q1345.5 41.4813 1347.96 44.8377 Q1350.45 48.1653 1354.76 48.1653 Q1359.01 48.1653 1361.5 44.8088 Q1363.99 41.4523 1363.99 35.6653 Q1363.99 29.9072 1361.5 26.5508 Q1359.01 23.1654 1354.76 23.1654 M1354.76 18.6515 Q1361.7 18.6515 1365.67 23.1654 Q1369.63 27.6792 1369.63 35.6653 Q1369.63 43.6225 1365.67 48.1653 Q1361.7 52.6791 1354.76 52.6791 Q1347.79 52.6791 1343.82 48.1653 Q1339.89 43.6225 1339.89 35.6653 Q1339.89 27.6792 1343.82 23.1654 Q1347.79 18.6515 1354.76 18.6515 Z" fill="#000000" fill-rule="nonzero" fill-opacity="1" /><path clip-path="url(#clip560)" d="M1405.4 32.2799 L1405.4 51.84 L1400.07 51.84 L1400.07 32.4535 Q1400.07 27.8529 1398.28 25.567 Q1396.48 23.2811 1392.9 23.2811 Q1388.58 23.2811 1386.1 26.03 Q1383.61 28.7788 1383.61 33.5241 L1383.61 51.84 L1378.26 51.84 L1378.26 19.4328 L1383.61 19.4328 L1383.61 24.4675 Q1385.52 21.545 1388.09 20.0983 Q1390.7 18.6515 1394.08 18.6515 Q1399.67 18.6515 1402.53 22.1237 Q1405.4 25.567 1405.4 32.2799 Z" fill="#000000" fill-rule="nonzero" fill-opacity="1" /><path clip-path="url(#clip560)" d="M1449.58 35.5496 Q1443.13 35.5496 1440.64 37.0253 Q1438.15 38.501 1438.15 42.06 Q1438.15 44.8956 1440 46.5738 Q1441.88 48.2231 1445.09 48.2231 Q1449.52 48.2231 1452.18 45.0981 Q1454.87 41.9442 1454.87 36.7359 L1454.87 35.5496 L1449.58 35.5496 M1460.2 33.3505 L1460.2 51.84 L1454.87 51.84 L1454.87 46.921 Q1453.05 49.8724 1450.33 51.2902 Q1447.61 52.6791 1443.68 52.6791 Q1438.7 52.6791 1435.75 49.9014 Q1432.83 47.0947 1432.83 42.4072 Q1432.83 36.9385 1436.47 34.1607 Q1440.15 31.3829 1447.41 31.3829 L1454.87 31.3829 L1454.87 30.8621 Q1454.87 27.1874 1452.44 25.1908 Q1450.04 23.1654 1445.67 23.1654 Q1442.9 23.1654 1440.26 23.8309 Q1437.63 24.4964 1435.2 25.8274 L1435.2 20.9085 Q1438.12 19.78 1440.87 19.2302 Q1443.62 18.6515 1446.22 18.6515 Q1453.25 18.6515 1456.73 22.2973 Q1460.2 25.9431 1460.2 33.3505 Z" fill="#000000" fill-rule="nonzero" fill-opacity="1" /><path clip-path="url(#clip560)" d="M1476.43 10.2314 L1476.43 19.4328 L1487.4 19.4328 L1487.4 23.5705 L1476.43 23.5705 L1476.43 41.163 Q1476.43 45.1271 1477.5 46.2555 Q1478.6 47.384 1481.93 47.384 L1487.4 47.384 L1487.4 51.84 L1481.93 51.84 Q1475.77 51.84 1473.42 49.5541 Q1471.08 47.2393 1471.08 41.163 L1471.08 23.5705 L1467.17 23.5705 L1467.17 19.4328 L1471.08 19.4328 L1471.08 10.2314 L1476.43 10.2314 Z" fill="#000000" fill-rule="nonzero" fill-opacity="1" /><path clip-path="url(#clip560)" d="M1518.5 10.2314 L1518.5 19.4328 L1529.47 19.4328 L1529.47 23.5705 L1518.5 23.5705 L1518.5 41.163 Q1518.5 45.1271 1519.57 46.2555 Q1520.67 47.384 1524 47.384 L1529.47 47.384 L1529.47 51.84 L1524 51.84 Q1517.84 51.84 1515.49 49.5541 Q1513.15 47.2393 1513.15 41.163 L1513.15 23.5705 L1509.24 23.5705 L1509.24 19.4328 L1513.15 19.4328 L1513.15 10.2314 L1518.5 10.2314 Z" fill="#000000" fill-rule="nonzero" fill-opacity="1" /><path clip-path="url(#clip560)" d="M1537.17 24.9304 L1574.26 24.9304 L1574.26 29.7915 L1537.17 29.7915 L1537.17 24.9304 M1537.17 36.7359 L1574.26 36.7359 L1574.26 41.6549 L1537.17 41.6549 L1537.17 36.7359 Z" fill="#000000" fill-rule="nonzero" fill-opacity="1" /><path clip-path="url(#clip560)" d="M1644.4 46.921 L1653.95 46.921 L1653.95 13.964 L1643.56 16.0474 L1643.56 10.7233 L1653.89 8.64 L1659.74 8.64 L1659.74 46.921 L1669.28 46.921 L1669.28 51.84 L1644.4 51.84 L1644.4 46.921 Z" fill="#000000" fill-rule="nonzero" fill-opacity="1" /><path clip-path="url(#clip560)" d="M1681.09 44.4905 L1687.19 44.4905 L1687.19 51.84 L1681.09 51.84 L1681.09 44.4905 Z" fill="#000000" fill-rule="nonzero" fill-opacity="1" /><path clip-path="url(#clip560)" d="M1712.43 12.4884 Q1707.91 12.4884 1705.63 16.9444 Q1703.37 21.3714 1703.37 30.2834 Q1703.37 39.1665 1705.63 43.6225 Q1707.91 48.0495 1712.43 48.0495 Q1716.97 48.0495 1719.23 43.6225 Q1721.51 39.1665 1721.51 30.2834 Q1721.51 21.3714 1719.23 16.9444 Q1716.97 12.4884 1712.43 12.4884 M1712.43 7.85875 Q1719.69 7.85875 1723.51 13.6168 Q1727.36 19.346 1727.36 30.2834 Q1727.36 41.1919 1723.51 46.95 Q1719.69 52.6791 1712.43 52.6791 Q1705.16 52.6791 1701.31 46.95 Q1697.5 41.1919 1697.5 30.2834 Q1697.5 19.346 1701.31 13.6168 Q1705.16 7.85875 1712.43 7.85875 Z" fill="#000000" fill-rule="nonzero" fill-opacity="1" /><path clip-path="url(#clip560)" d="M1750.13 12.4884 Q1745.61 12.4884 1743.33 16.9444 Q1741.07 21.3714 1741.07 30.2834 Q1741.07 39.1665 1743.33 43.6225 Q1745.61 48.0495 1750.13 48.0495 Q1754.67 48.0495 1756.93 43.6225 Q1759.21 39.1665 1759.21 30.2834 Q1759.21 21.3714 1756.93 16.9444 Q1754.67 12.4884 1750.13 12.4884 M1750.13 7.85875 Q1757.39 7.85875 1761.21 13.6168 Q1765.06 19.346 1765.06 30.2834 Q1765.06 41.1919 1761.21 46.95 Q1757.39 52.6791 1750.13 52.6791 Q1742.87 52.6791 1739.02 46.95 Q1735.2 41.1919 1735.2 30.2834 Q1735.2 19.346 1739.02 13.6168 Q1742.87 7.85875 1750.13 7.85875 Z" fill="#000000" fill-rule="nonzero" fill-opacity="1" /><path clip-path="url(#clip560)" d="M1787.83 12.4884 Q1783.32 12.4884 1781.03 16.9444 Q1778.77 21.3714 1778.77 30.2834 Q1778.77 39.1665 1781.03 43.6225 Q1783.32 48.0495 1787.83 48.0495 Q1792.37 48.0495 1794.63 43.6225 Q1796.92 39.1665 1796.92 30.2834 Q1796.92 21.3714 1794.63 16.9444 Q1792.37 12.4884 1787.83 12.4884 M1787.83 7.85875 Q1795.09 7.85875 1798.91 13.6168 Q1802.76 19.346 1802.76 30.2834 Q1802.76 41.1919 1798.91 46.95 Q1795.09 52.6791 1787.83 52.6791 Q1780.57 52.6791 1776.72 46.95 Q1772.9 41.1919 1772.9 30.2834 Q1772.9 19.346 1776.72 13.6168 Q1780.57 7.85875 1787.83 7.85875 Z" fill="#000000" fill-rule="nonzero" fill-opacity="1" /><polyline clip-path="url(#clip561)" style="stroke:#009af9; stroke-linecap:round; stroke-linejoin:round; stroke-width:4; stroke-opacity:1; fill:none" points="316.984,1085.95 320.627,1086.96 324.275,1087.49 327.927,1087.6 331.584,1087.35 335.245,1086.79 338.91,1085.97 342.58,1084.93 346.252,1083.71 349.928,1082.34 353.607,1080.85 357.287,1079.24 360.969,1077.54 364.652,1075.73 368.336,1073.81 372.019,1071.77 375.702,1069.58 379.383,1067.21 383.063,1064.62 386.742,1061.77 390.418,1058.62 394.093,1055.1 397.766,1051.17 401.437,1046.77 405.106,1041.84 408.775,1036.33 412.443,1030.17 416.11,1023.32 419.779,1015.72 423.448,1007.31 427.12,998.068 430.795,987.933 434.474,976.869 438.158,964.843 441.848,951.822 445.546,937.779 449.252,922.693 452.968,906.544 456.695,889.322 460.434,871.017 464.188,851.631 467.957,831.167 471.743,809.639 475.547,787.068 479.372,763.487 483.219,738.937 487.09,713.473 490.986,687.163 494.91,660.094 498.863,632.366 502.846,604.102 506.862,575.443 510.912,546.552 514.996,517.613 519.116,488.832 523.273,460.431 527.465,432.649 531.694,405.739 535.957,379.955 540.253,355.551 544.58,332.77 548.934,311.834 553.312,292.933 557.709,276.214 562.121,261.774 566.542,249.65 570.969,239.817 575.395,232.187 579.818,226.616 584.232,222.915 588.636,220.858 593.028,220.203 597.406,220.704 601.769,222.122 606.119,224.241 610.455,226.87 614.78,229.852 619.094,233.065 623.399,236.419 627.698,239.859 631.991,243.356 636.281,246.909 640.568,250.535 644.854,254.271 649.139,258.168 653.426,262.287 657.713,266.702 662.002,271.492 666.292,276.747 670.584,282.561 674.878,289.033 679.172,296.263 683.465,304.35 687.757,313.388 692.046,323.457 696.329,334.618 700.604,346.912 704.87,360.347 709.123,374.902 713.361,390.523 717.582,407.127 721.784,424.602 725.966,442.822 730.126,461.643 734.263,480.918 738.378,500.5 742.47,520.247 746.539,540.028 750.586,559.722 754.613,579.221 758.619,598.433 762.606,617.28 766.574,635.694 770.526,653.621 774.461,671.018 778.382,687.852 782.288,704.097 786.182,719.734 790.063,734.753 793.934,749.145 797.794,762.908 801.645,776.045 805.487,788.559 809.321,800.457 813.149,811.748 816.969,822.444 820.784,832.558 824.594,842.104 828.399,851.097 832.199,859.557 835.997,867.5 839.79,874.948 843.582,881.921 847.371,888.442 851.158,894.536 854.944,900.227 858.728,905.542 862.512,910.508 866.295,915.152 870.078,919.503 873.861,923.589 877.644,927.439 881.426,931.079 885.209,934.538 888.992,937.84 892.775,941.01 896.558,944.071 900.341,947.042 904.124,949.943 907.906,952.79 911.688,955.598 915.469,958.377 919.25,961.139 923.029,963.891 926.808,966.639 930.584,969.385 934.36,972.131 938.133,974.876 941.905,977.615 945.674,980.343 949.441,983.051 953.206,985.729 956.968,988.362 960.728,990.936 964.485,993.435 968.239,995.841 971.991,998.136 975.74,1000.3 979.488,1002.32 983.233,1004.18 986.976,1005.86 990.718,1007.35 994.459,1008.65 998.2,1009.75 1001.94,1010.65 1005.68,1011.35 1009.42,1011.87 1013.16,1012.2 1016.9,1012.37 1020.65,1012.4 1024.39,1012.3 1028.14,1012.1 1031.89,1011.83 1035.64,1011.51 1039.4,1011.18 1043.16,1010.87 1046.92,1010.59 1050.68,1010.4 1054.44,1010.31 1058.21,1010.37 1061.98,1010.58 1065.75,1011 1069.52,1011.63 1073.29,1012.5 1077.06,1013.62 1080.83,1015.01 1084.6,1016.66 1088.36,1018.58 1092.13,1020.76 1095.89,1023.16 1099.64,1025.76 1103.39,1028.53 1107.14,1031.41 1110.87,1034.36 1114.6,1037.3 1118.33,1040.19 1122.05,1042.94 1125.76,1045.51 1129.47,1047.81 1133.17,1049.8 1136.86,1051.41 1140.56,1052.59 1144.24,1053.31 1147.93,1053.52 1151.61,1053.2 1155.3,1052.34 1158.98,1050.92 1162.66,1048.96 1166.35,1046.45 1170.04,1043.43 1173.74,1039.92 1177.44,1035.95 1181.14,1031.57 1184.85,1026.83 1188.57,1021.77 1192.3,1016.47 1196.03,1010.97 1199.77,1005.33 1203.52,999.617 1207.27,993.884 1211.04,988.181 1214.8,982.554 1218.58,977.04 1222.36,971.669 1226.14,966.458 1229.92,961.416 1233.71,956.539 1237.5,951.814 1241.29,947.214 1245.09,942.704 1248.88,938.24 1252.67,933.765 1256.45,929.219 1260.24,924.532 1264.03,919.631 1267.81,914.437 1271.59,908.871 1275.37,902.853 1279.15,896.304 1282.94,889.153 1286.72,881.331 1290.51,872.782 1294.31,863.461 1298.11,853.339 1301.92,842.406 1305.74,830.674 1309.58,818.182 1313.43,804.998 1317.3,791.221 1321.19,776.988 1325.11,762.469 1329.05,747.872 1333.01,733.438 1337,719.432 1341.01,706.136 1345.05,693.832 1349.11,682.786 1353.19,673.226 1357.28,665.324 1361.38,659.182 1365.48,654.823 1369.58,652.193 1373.67,651.166 1377.76,651.558 1381.83,653.151 1385.89,655.706 1389.93,658.98 1393.96,662.74 1397.97,666.774 1401.97,670.892 1405.96,674.93 1409.93,678.754 1413.89,682.25 1417.85,685.331 1421.8,687.929 1425.74,689.999 1429.69,691.512 1433.63,692.458 1437.57,692.849 1441.52,692.715 1445.47,692.109 1449.43,691.11 1453.4,689.823 1457.38,688.379 1461.37,686.94 1465.37,685.689 1469.39,684.834 1473.43,684.596 1477.47,685.199 1481.53,686.858 1485.59,689.766 1489.66,694.081 1493.73,699.913 1497.8,707.32 1501.87,716.303 1505.92,726.811 1509.96,738.749 1513.99,751.988 1518,766.376 1521.99,781.75 1525.96,797.946 1529.9,814.802 1533.83,832.17 1537.74,849.91 1541.62,867.9 1545.48,886.031 1549.33,904.206 1553.15,922.342 1556.96,940.369 1560.75,958.224 1564.52,975.855 1568.28,993.218 1572.02,1010.28 1575.74,1027 1579.45,1043.37 1583.15,1059.35 1586.84,1074.95 1590.51,1090.13 1594.18,1104.91 1597.83,1119.27 1601.47,1133.22 1605.1,1146.74 1608.72,1159.85 1612.34,1172.54 1615.94,1184.82 1619.54,1196.7 1623.13,1208.16 1626.71,1219.23 1630.29,1229.89 1633.86,1240.16 1637.42,1250.04 1640.97,1259.52 1644.52,1268.62 1648.07,1277.32 1651.61,1285.64 1655.14,1293.57 1658.67,1301.11 1662.19,1308.26 1665.71,1315.02 1669.23,1321.4 1672.74,1327.38 1676.24,1332.97 1679.75,1338.18 1683.25,1342.99 1686.75,1347.4 1690.24,1351.43 1693.74,1355.07 1697.23,1358.32 1700.72,1361.18 1704.21,1363.66 1707.7,1365.76 1711.19,1367.49 1714.67,1368.85 1718.16,1369.86 1721.65,1370.51 1725.14,1370.83 1728.63,1370.83 1732.12,1370.51 1735.61,1369.89 1739.11,1368.98 1742.6,1367.81 1746.1,1366.39 1749.61,1364.73 1753.11,1362.85 1756.62,1360.77 1760.12,1358.51 1763.64,1356.08 1767.15,1353.49 1770.67,1350.77 1774.19,1347.92 1777.71,1344.95 1781.23,1341.87 1784.76,1338.7 1788.29,1335.43 1791.82,1332.06 1795.35,1328.59 1798.88,1325.03 1802.42,1321.35 1805.95,1317.56 1809.49,1313.63 1813.03,1309.54 1816.57,1305.29 1820.1,1300.84 1823.64,1296.18 1827.18,1291.27 1830.72,1286.09 1834.26,1280.59 1837.8,1274.76 1841.34,1268.56 1844.88,1261.95 1848.43,1254.9 1851.97,1247.36 1855.52,1239.31 1859.07,1230.71 1862.62,1221.51 1866.17,1211.7 1869.72,1201.22 1873.28,1190.04 1876.85,1178.14 1880.42,1165.49 1883.99,1152.04 1887.58,1137.78 1891.16,1122.67 1894.76,1106.69 1898.37,1089.81 1901.98,1072.03 1905.61,1053.3 1909.25,1033.62 1912.9,1012.96 1916.56,991.315 1920.24,968.662 1923.93,944.988 1927.64,920.281 1931.37,894.529 1935.11,867.726 1938.88,839.864 1942.67,810.942 1946.49,780.965 1950.33,749.945 1954.2,717.906 1958.1,684.886 1962.03,650.944 1966,616.163 1970,580.66 1974.05,544.593 1978.15,508.171 1982.3,471.667 1986.49,435.426 1990.74,399.874 1995.05,365.521 1999.41,332.953 2003.82,302.804 2008.28,275.711 2012.78,252.243 2017.3,232.817 2021.84,217.624 2026.39,206.585 2030.92,199.365 2035.43,195.43 2039.91,194.138 2044.37,194.831 2048.79,196.903 2053.19,199.847 2057.57,203.263 2061.92,206.858 2066.26,210.422 2070.58,213.82 2074.9,216.962 2079.2,219.799 2083.5,222.304 2087.8,224.477 2092.11,226.336 2096.42,227.926 2100.73,229.324 2105.06,230.652 2109.4,232.093 2113.76,233.906 2118.14,236.438 2122.54,240.136 2126.97,245.534 2131.41,253.222 2135.87,263.789 2140.34,277.739 2144.8,295.406 2149.25,316.889 2153.67,342.029 2158.05,370.439 2162.38,401.567 2166.65,434.778 2170.87,469.428 2175.04,504.914 2179.15,540.706 2183.2,576.358 2187.21,611.509 2191.18,645.873 2195.1,679.234 2198.98,711.425 2202.83,742.329 2206.65,771.862 2210.44,799.97 2214.21,826.62 2217.95,851.796 2221.68,875.496 2225.38,897.728 2229.07,918.507 2232.75,937.856 2236.41,955.801 2240.07,972.374 2243.72,987.609 2247.35,1001.54 2250.99,1014.22 2254.62,1025.67 2258.24,1035.96 2261.86,1045.12 2265.48,1053.2 2269.1,1060.26 2272.73,1066.36 2276.35,1071.55 2279.97,1075.88 2283.6,1079.43 2287.23,1082.25 2290.86,1084.4 "/>
<polyline clip-path="url(#clip561)" style="stroke:#e26f46; stroke-linecap:round; stroke-linejoin:round; stroke-width:4; stroke-opacity:1; fill:none" points="319.805,1103.22 323.667,1105.15 327.53,1106.4 331.392,1106.99 335.254,1106.95 339.117,1106.31 342.979,1105.08 346.841,1103.3 350.704,1100.97 354.566,1098.1 358.428,1094.72 362.291,1090.83 366.153,1086.45 370.015,1081.57 373.878,1076.21 377.74,1070.38 381.602,1064.07 385.465,1057.29 389.327,1050.05 393.189,1042.35 397.052,1034.18 400.914,1025.55 404.776,1016.46 408.639,1006.89 412.501,996.856 416.363,986.339 420.226,975.334 424.088,963.833 427.95,951.826 431.813,939.302 435.675,926.252 439.538,912.665 443.4,898.535 447.262,883.855 451.125,868.622 454.987,852.836 458.849,836.5 462.712,819.624 466.574,802.221 470.436,784.31 474.299,765.917 478.161,747.072 482.023,727.811 485.886,708.177 489.748,688.218 493.61,667.985 497.473,647.535 501.335,626.928 505.197,606.228 509.06,585.497 512.922,564.802 516.784,544.206 520.647,523.773 524.509,503.564 528.371,483.636 532.234,464.043 536.096,444.833 539.958,426.051 543.821,407.737 547.683,389.926 551.545,372.649 555.408,355.935 559.27,339.809 563.132,324.295 566.995,309.416 570.857,295.198 574.719,281.666 578.582,268.845 582.444,256.763 586.307,245.451 590.169,234.939 594.031,225.256 597.894,216.435 601.756,208.503 605.618,201.487 609.481,195.413 613.343,190.3 617.205,186.168 621.068,183.031 624.93,180.9 628.792,179.784 632.655,179.691 636.517,180.626 640.379,182.593 644.242,185.597 648.104,189.639 651.966,194.725 655.829,200.855 659.691,208.031 663.553,216.253 667.416,225.518 671.278,235.817 675.14,247.137 679.003,259.459 682.865,272.756 686.727,286.99 690.59,302.116 694.452,318.08 698.314,334.818 702.177,352.26 706.039,370.326 709.901,388.933 713.764,407.994 717.626,427.419 721.488,447.118 725.351,466.999 729.213,486.977 733.075,506.966 736.938,526.888 740.8,546.666 744.663,566.232 748.525,585.523 752.387,604.481 756.25,623.056 760.112,641.202 763.974,658.88 767.837,676.057 771.699,692.703 775.561,708.795 779.424,724.312 783.286,739.239 787.148,753.564 791.011,767.276 794.873,780.369 798.735,792.838 802.598,804.681 806.46,815.899 810.322,826.491 814.185,836.462 818.047,845.816 821.909,854.56 825.772,862.701 829.634,870.25 833.496,877.219 837.359,883.622 841.221,889.476 845.083,894.798 848.946,899.612 852.808,903.938 856.67,907.804 860.533,911.237 864.395,914.267 868.257,916.926 872.12,919.248 875.982,921.268 879.844,923.023 883.707,924.552 887.569,925.891 891.432,927.081 895.294,928.16 899.156,929.167 903.019,930.138 906.881,931.11 910.743,932.115 914.606,933.187 918.468,934.351 922.33,935.634 926.193,937.057 930.055,938.637 933.917,940.389 937.78,942.32 941.642,944.439 945.504,946.746 949.367,949.243 953.229,951.924 957.091,954.783 960.954,957.813 964.816,961.002 968.678,964.338 972.541,967.807 976.403,971.393 980.265,975.079 984.128,978.848 987.99,982.677 991.852,986.548 995.715,990.437 999.577,994.32 1003.44,998.175 1007.3,1001.98 1011.16,1005.7 1015.03,1009.33 1018.89,1012.84 1022.75,1016.22 1026.61,1019.44 1030.48,1022.5 1034.34,1025.39 1038.2,1028.09 1042.06,1030.63 1045.93,1032.98 1049.79,1035.17 1053.65,1037.21 1057.51,1039.09 1061.37,1040.84 1065.24,1042.47 1069.1,1043.99 1072.96,1045.41 1076.82,1046.75 1080.69,1048.01 1084.55,1049.19 1088.41,1050.3 1092.27,1051.35 1096.14,1052.31 1100,1053.19 1103.86,1053.98 1107.72,1054.65 1111.58,1055.2 1115.45,1055.61 1119.31,1055.84 1123.17,1055.88 1127.03,1055.69 1130.9,1055.26 1134.76,1054.54 1138.62,1053.52 1142.48,1052.15 1146.35,1050.4 1150.21,1048.26 1154.07,1045.69 1157.93,1042.69 1161.8,1039.23 1165.66,1035.31 1169.52,1030.94 1173.38,1026.14 1177.24,1020.93 1181.11,1015.34 1184.97,1009.44 1188.83,1003.27 1192.69,996.899 1196.56,990.407 1200.42,983.869 1204.28,977.364 1208.14,970.969 1212.01,964.758 1215.87,958.795 1219.73,953.132 1223.59,947.809 1227.46,942.85 1231.32,938.257 1235.18,934.018 1239.04,930.099 1242.9,926.448 1246.77,922.999 1250.63,919.671 1254.49,916.372 1258.35,913.004 1262.22,909.468 1266.08,905.668 1269.94,901.511 1273.8,896.917 1277.67,891.82 1281.53,886.167 1285.39,879.926 1289.25,873.081 1293.12,865.633 1296.98,857.6 1300.84,849.017 1304.7,839.93 1308.56,830.397 1312.43,820.483 1316.29,810.263 1320.15,799.816 1324.01,789.226 1327.88,778.579 1331.74,767.969 1335.6,757.487 1339.46,747.229 1343.33,737.291 1347.19,727.768 1351.05,718.752 1354.91,710.327 1358.77,702.57 1362.64,695.545 1366.5,689.299 1370.36,683.86 1374.22,679.238 1378.09,675.415 1381.95,672.355 1385.81,669.999 1389.67,668.267 1393.54,667.066 1397.4,666.292 1401.26,665.836 1405.12,665.591 1408.99,665.458 1412.85,665.351 1416.71,665.205 1420.57,664.976 1424.43,664.645 1428.3,664.219 1432.16,663.735 1436.02,663.248 1439.88,662.837 1443.75,662.597 1447.61,662.634 1451.47,663.058 1455.33,663.98 1459.2,665.507 1463.06,667.731 1466.92,670.735 1470.78,674.581 1474.65,679.316 1478.51,684.968 1482.37,691.547 1486.23,699.047 1490.09,707.452 1493.96,716.731 1497.82,726.848 1501.68,737.759 1505.54,749.417 1509.41,761.769 1513.27,774.761 1517.13,788.336 1520.99,802.435 1524.86,816.996 1528.72,831.956 1532.58,847.249 1536.44,862.812 1540.3,878.578 1544.17,894.484 1548.03,910.469 1551.89,926.476 1555.75,942.452 1559.62,958.35 1563.48,974.128 1567.34,989.75 1571.2,1005.19 1575.07,1020.41 1578.93,1035.41 1582.79,1050.17 1586.65,1064.67 1590.52,1078.9 1594.38,1092.88 1598.24,1106.58 1602.1,1120.01 1605.96,1133.17 1609.83,1146.07 1613.69,1158.69 1617.55,1171.04 1621.41,1183.13 1625.28,1194.95 1629.14,1206.49 1633,1217.76 1636.86,1228.75 1640.73,1239.46 1644.59,1249.87 1648.45,1259.98 1652.31,1269.78 1656.18,1279.25 1660.04,1288.39 1663.9,1297.19 1667.76,1305.63 1671.62,1313.7 1675.49,1321.38 1679.35,1328.68 1683.21,1335.57 1687.07,1342.04 1690.94,1348.1 1694.8,1353.72 1698.66,1358.9 1702.52,1363.64 1706.39,1367.93 1710.25,1371.76 1714.11,1375.14 1717.97,1378.06 1721.84,1380.52 1725.7,1382.52 1729.56,1384.05 1733.42,1385.13 1737.28,1385.74 1741.15,1385.91 1745.01,1385.62 1748.87,1384.89 1752.73,1383.72 1756.6,1382.12 1760.46,1380.1 1764.32,1377.66 1768.18,1374.82 1772.05,1371.59 1775.91,1367.97 1779.77,1363.99 1783.63,1359.64 1787.49,1354.93 1791.36,1349.89 1795.22,1344.5 1799.08,1338.78 1802.94,1332.74 1806.81,1326.36 1810.67,1319.66 1814.53,1312.62 1818.39,1305.24 1822.26,1297.52 1826.12,1289.43 1829.98,1280.98 1833.84,1272.15 1837.71,1262.91 1841.57,1253.26 1845.43,1243.18 1849.29,1232.65 1853.15,1221.64 1857.02,1210.16 1860.88,1198.17 1864.74,1185.66 1868.6,1172.62 1872.47,1159.03 1876.33,1144.88 1880.19,1130.15 1884.05,1114.84 1887.92,1098.93 1891.78,1082.41 1895.64,1065.29 1899.5,1047.54 1903.37,1029.18 1907.23,1010.19 1911.09,990.58 1914.95,970.353 1918.81,949.515 1922.68,928.073 1926.54,906.041 1930.4,883.432 1934.26,860.263 1938.13,836.553 1941.99,812.324 1945.85,787.598 1949.71,762.401 1953.58,736.761 1957.44,710.706 1961.3,684.271 1965.16,657.493 1969.02,630.416 1972.89,603.089 1976.75,575.573 1980.61,547.939 1984.47,520.27 1988.34,492.664 1992.2,465.233 1996.06,438.104 1999.92,411.417 2003.79,385.325 2007.65,359.989 2011.51,335.573 2015.37,312.241 2019.24,290.151 2023.1,269.446 2026.96,250.252 2030.82,232.668 2034.68,216.767 2038.55,202.587 2042.41,190.133 2046.27,179.376 2050.13,170.258 2054,162.69 2057.86,156.566 2061.72,151.766 2065.58,148.166 2069.45,145.648 2073.31,144.108 2077.17,143.465 2081.03,143.669 2084.9,144.703 2088.76,146.586 2092.62,149.373 2096.48,153.149 2100.34,158.026 2104.21,164.131 2108.07,171.595 2111.93,180.547 2115.79,191.102 2119.66,203.351 2123.52,217.355 2127.38,233.142 2131.24,250.703 2135.11,269.995 2138.97,290.94 2142.83,313.434 2146.69,337.348 2150.55,362.535 2154.42,388.839 2158.28,416.097 2162.14,444.142 2166,472.811 2169.87,501.946 2173.73,531.393 2177.59,561.008 2181.45,590.653 2185.32,620.195 2189.18,649.511 2193.04,678.482 2196.9,706.997 2200.77,734.949 2204.63,762.238 2208.49,788.77 2212.35,814.458 2216.21,839.223 2220.08,862.996 2223.94,885.713 2227.8,907.324 2231.66,927.786 2235.53,947.07 2239.39,965.155 2243.25,982.03 2247.11,997.695 2250.98,1012.16 2254.84,1025.44 2258.7,1037.56 2262.56,1048.55 2266.43,1058.44 2270.29,1067.28 2274.15,1075.11 2278.01,1081.96 2281.87,1087.89 2285.74,1092.94 2289.6,1097.15 2293.46,1100.56 "/>
<polyline clip-path="url(#clip561)" style="stroke:#3da44d; stroke-linecap:round; stroke-linejoin:round; stroke-width:4; stroke-opacity:1; fill:none" points="319.805,1088.29 323.667,1088.92 327.53,1089.09 331.392,1088.87 335.254,1088.35 339.117,1087.58 342.979,1086.62 346.841,1085.52 350.704,1084.3 354.566,1083.01 358.428,1081.64 362.291,1080.2 366.153,1078.69 370.015,1077.07 373.878,1075.32 377.74,1073.39 381.602,1071.24 385.465,1068.8 389.327,1066.01 393.189,1062.81 397.052,1059.11 400.914,1054.85 404.776,1049.95 408.639,1044.32 412.501,1037.91 416.363,1030.63 420.226,1022.43 424.088,1013.25 427.95,1003.02 431.813,991.705 435.675,979.266 439.538,965.67 443.4,950.897 447.262,934.933 451.125,917.778 454.987,899.438 458.849,879.934 462.712,859.295 466.574,837.563 470.436,814.791 474.299,791.045 478.161,766.404 482.023,740.957 485.886,714.806 489.748,688.066 493.61,660.86 497.473,633.325 501.335,605.605 505.197,577.854 509.06,550.228 512.922,522.893 516.784,496.012 520.647,469.751 524.509,444.273 528.371,419.733 532.234,396.28 536.096,374.051 539.958,353.171 543.821,333.745 547.683,315.863 551.545,299.591 555.408,284.975 559.27,272.037 563.132,260.772 566.995,251.154 570.857,243.132 574.719,236.634 578.582,231.568 582.444,227.826 586.307,225.287 590.169,223.823 594.031,223.298 597.894,223.577 601.756,224.531 605.618,226.037 609.481,227.982 613.343,230.269 617.205,232.815 621.068,235.556 624.93,238.443 628.792,241.446 632.655,244.551 636.517,247.759 640.379,251.084 644.242,254.552 648.104,258.197 651.966,262.061 655.829,266.192 659.691,270.642 663.553,275.466 667.416,280.72 671.278,286.461 675.14,292.745 679.003,299.625 682.865,307.152 686.727,315.373 690.59,324.326 694.452,334.046 698.314,344.556 702.177,355.87 706.039,367.991 709.901,380.912 713.764,394.612 717.626,409.059 721.488,424.206 725.351,440 729.213,456.374 733.075,473.254 736.938,490.559 740.8,508.204 744.663,526.101 748.525,544.16 752.387,562.295 756.25,580.42 760.112,598.455 763.974,616.322 767.837,633.954 771.699,651.287 775.561,668.265 779.424,684.837 783.286,700.963 787.148,716.605 791.011,731.736 794.873,746.33 798.735,760.369 802.598,773.841 806.46,786.736 810.322,799.05 814.185,810.78 818.047,821.93 821.909,832.504 825.772,842.51 829.634,851.957 833.496,860.86 837.359,869.233 841.221,877.092 845.083,884.458 848.946,891.351 852.808,897.794 856.67,903.812 860.533,909.43 864.395,914.677 868.257,919.579 872.12,924.166 875.982,928.467 879.844,932.51 883.707,936.325 887.569,939.938 891.432,943.378 895.294,946.669 899.156,949.835 903.019,952.9 906.881,955.883 910.743,958.803 914.606,961.678 918.468,964.52 922.33,967.343 926.193,970.155 930.055,972.962 933.917,975.769 937.78,978.576 941.642,981.38 945.504,984.175 949.367,986.951 953.229,989.695 957.091,992.391 960.954,995.019 964.816,997.559 968.678,999.987 972.541,1002.28 976.403,1004.41 980.265,1006.36 984.128,1008.1 987.99,1009.62 991.852,1010.9 995.715,1011.93 999.577,1012.71 1003.44,1013.24 1007.3,1013.52 1011.16,1013.57 1015.03,1013.41 1018.89,1013.05 1022.75,1012.53 1026.61,1011.88 1030.48,1011.14 1034.34,1010.34 1038.2,1009.54 1042.06,1008.76 1045.93,1008.05 1049.79,1007.46 1053.65,1007.03 1057.51,1006.79 1061.37,1006.78 1065.24,1007.03 1069.1,1007.57 1072.96,1008.42 1076.82,1009.6 1080.69,1011.1 1084.55,1012.94 1088.41,1015.09 1092.27,1017.54 1096.14,1020.26 1100,1023.2 1103.86,1026.31 1107.72,1029.54 1111.58,1032.81 1115.45,1036.06 1119.31,1039.21 1123.17,1042.17 1127.03,1044.88 1130.9,1047.27 1134.76,1049.26 1138.62,1050.79 1142.48,1051.82 1146.35,1052.31 1150.21,1052.23 1154.07,1051.57 1157.93,1050.33 1161.8,1048.53 1165.66,1046.17 1169.52,1043.3 1173.38,1039.97 1177.24,1036.21 1181.11,1032.09 1184.97,1027.65 1188.83,1022.97 1192.69,1018.09 1196.56,1013.07 1200.42,1007.96 1204.28,1002.8 1208.14,997.629 1212.01,992.468 1215.87,987.341 1219.73,982.259 1223.59,977.226 1227.46,972.24 1231.32,967.288 1235.18,962.354 1239.04,957.413 1242.9,952.436 1246.77,947.386 1250.63,942.22 1254.49,936.89 1258.35,931.341 1262.22,925.514 1266.08,919.344 1269.94,912.765 1273.8,905.71 1277.67,898.112 1281.53,889.911 1285.39,881.053 1289.25,871.498 1293.12,861.221 1296.98,850.217 1300.84,838.502 1304.7,826.123 1308.56,813.149 1312.43,799.682 1316.29,785.851 1320.15,771.813 1324.01,757.745 1327.88,743.843 1331.74,730.316 1335.6,717.373 1339.46,705.218 1343.33,694.039 1347.19,684.001 1351.05,675.236 1354.91,667.841 1358.77,661.867 1362.64,657.327 1366.5,654.19 1370.36,652.387 1374.22,651.817 1378.09,652.352 1381.95,653.846 1385.81,656.143 1389.67,659.078 1393.54,662.491 1397.4,666.227 1401.26,670.139 1405.12,674.093 1408.99,677.969 1412.85,681.659 1416.71,685.072 1420.57,688.129 1424.43,690.766 1428.3,692.936 1432.16,694.608 1436.02,695.766 1439.88,696.415 1443.75,696.582 1447.61,696.315 1451.47,695.684 1455.33,694.785 1459.2,693.736 1463.06,692.675 1466.92,691.757 1470.78,691.15 1474.65,691.028 1478.51,691.565 1482.37,692.927 1486.23,695.265 1490.09,698.713 1493.96,703.376 1497.82,709.331 1501.68,716.624 1505.54,725.267 1509.41,735.245 1513.27,746.51 1517.13,758.994 1520.99,772.605 1524.86,787.238 1528.72,802.779 1532.58,819.105 1536.44,836.094 1540.3,853.625 1544.17,871.581 1548.03,889.853 1551.89,908.337 1555.75,926.94 1559.62,945.575 1563.48,964.165 1567.34,982.64 1571.2,1000.94 1575.07,1019 1578.93,1036.78 1582.79,1054.24 1586.65,1071.33 1590.52,1088.03 1594.38,1104.31 1598.24,1120.15 1602.1,1135.53 1605.96,1150.44 1609.83,1164.86 1613.69,1178.81 1617.55,1192.25 1621.41,1205.21 1625.28,1217.67 1629.14,1229.64 1633,1241.12 1636.86,1252.11 1640.73,1262.61 1644.59,1272.61 1648.45,1282.13 1652.31,1291.17 1656.18,1299.71 1660.04,1307.77 1663.9,1315.34 1667.76,1322.42 1671.62,1329.01 1675.49,1335.1 1679.35,1340.7 1683.21,1345.8 1687.07,1350.41 1690.94,1354.52 1694.8,1358.14 1698.66,1361.27 1702.52,1363.91 1706.39,1366.08 1710.25,1367.78 1714.11,1369.03 1717.97,1369.84 1721.84,1370.22 1725.7,1370.2 1729.56,1369.8 1733.42,1369.05 1737.28,1367.96 1741.15,1366.57 1745.01,1364.91 1748.87,1363.01 1752.73,1360.89 1756.6,1358.57 1760.46,1356.1 1764.32,1353.49 1768.18,1350.75 1772.05,1347.92 1775.91,1345 1779.77,1342.01 1783.63,1338.94 1787.49,1335.8 1791.36,1332.59 1795.22,1329.3 1799.08,1325.92 1802.94,1322.42 1806.81,1318.8 1810.67,1315.01 1814.53,1311.03 1818.39,1306.83 1822.26,1302.37 1826.12,1297.61 1829.98,1292.51 1833.84,1287.02 1837.71,1281.1 1841.57,1274.69 1845.43,1267.75 1849.29,1260.23 1853.15,1252.07 1857.02,1243.23 1860.88,1233.65 1864.74,1223.29 1868.6,1212.11 1872.47,1200.05 1876.33,1187.08 1880.19,1173.16 1884.05,1158.26 1887.92,1142.35 1891.78,1125.4 1895.64,1107.39 1899.5,1088.31 1903.37,1068.14 1907.23,1046.86 1911.09,1024.49 1914.95,1001 1918.81,976.407 1922.68,950.718 1926.54,923.945 1930.4,896.108 1934.26,867.235 1938.13,837.367 1941.99,806.555 1945.85,774.865 1949.71,742.382 1953.58,709.209 1957.44,675.473 1961.3,641.322 1965.16,606.931 1969.02,572.499 1972.89,538.249 1976.75,504.427 1980.61,471.295 1984.47,439.128 1988.34,408.207 1992.2,378.809 1996.06,351.2 1999.92,325.619 2003.79,302.277 2007.65,281.338 2011.51,262.915 2015.37,247.063 2019.24,233.778 2023.1,222.991 2026.96,214.578 2030.82,208.362 2034.68,204.126 2038.55,201.624 2042.41,200.595 2046.27,200.773 2050.13,201.903 2054,203.744 2057.86,206.084 2061.72,208.739 2065.58,211.556 2069.45,214.41 2073.31,217.207 2077.17,219.878 2081.03,222.379 2084.9,224.686 2088.76,226.8 2092.62,228.741 2096.48,230.555 2100.34,232.313 2104.21,234.116 2108.07,236.093 2111.93,238.409 2115.79,241.259 2119.66,244.866 2123.52,249.476 2127.38,255.35 2131.24,262.751 2135.11,271.931 2138.97,283.116 2142.83,296.492 2146.69,312.193 2150.55,330.29 2154.42,350.788 2158.28,373.62 2162.14,398.653 2166,425.695 2169.87,454.503 2173.73,484.795 2177.59,516.264 2181.45,548.588 2185.32,581.446 2189.18,614.525 2193.04,647.527 2196.9,680.178 2200.77,712.234 2204.63,743.477 2208.49,773.722 2212.35,802.812 2216.21,830.622 2220.08,857.051 2223.94,882.023 2227.8,905.483 2231.66,927.397 2235.53,947.747 2239.39,966.531 2243.25,983.757 2247.11,999.448 2250.98,1013.64 2254.84,1026.36 2258.7,1037.67 2262.56,1047.62 2266.43,1056.28 2270.29,1063.72 2274.15,1070 2278.01,1075.22 2281.87,1079.45 2285.74,1082.79 2289.6,1085.31 2293.46,1087.12 "/>
<path clip-path="url(#clip560)" d="M327.526 1379.28 L1092.4 1379.28 L1092.4 1171.92 L327.526 1171.92  Z" fill="#ffffff" fill-rule="evenodd" fill-opacity="1"/>
<polyline clip-path="url(#clip560)" style="stroke:#000000; stroke-linecap:round; stroke-linejoin:round; stroke-width:4; stroke-opacity:1; fill:none" points="327.526,1379.28 1092.4,1379.28 1092.4,1171.92 327.526,1171.92 327.526,1379.28 "/>
<polyline clip-path="url(#clip560)" style="stroke:#009af9; stroke-linecap:round; stroke-linejoin:round; stroke-width:4; stroke-opacity:1; fill:none" points="350.804,1223.76 490.475,1223.76 "/>
<path clip-path="url(#clip560)" d="M513.754 1215.11 L518.013 1215.11 L523.337 1235.35 L528.638 1215.11 L533.661 1215.11 L538.985 1235.35 L544.286 1215.11 L548.545 1215.11 L541.763 1241.04 L536.74 1241.04 L531.161 1219.79 L525.559 1241.04 L520.536 1241.04 L513.754 1215.11 Z" fill="#000000" fill-rule="nonzero" fill-opacity="1" /><path clip-path="url(#clip560)" d="M566.786 1228.01 Q561.624 1228.01 559.633 1229.19 Q557.642 1230.37 557.642 1233.22 Q557.642 1235.48 559.124 1236.83 Q560.628 1238.15 563.198 1238.15 Q566.74 1238.15 568.869 1235.65 Q571.022 1233.12 571.022 1228.96 L571.022 1228.01 L566.786 1228.01 M575.281 1226.25 L575.281 1241.04 L571.022 1241.04 L571.022 1237.11 Q569.564 1239.47 567.388 1240.6 Q565.212 1241.71 562.064 1241.71 Q558.082 1241.71 555.721 1239.49 Q553.383 1237.24 553.383 1233.49 Q553.383 1229.12 556.3 1226.9 Q559.24 1224.67 565.05 1224.67 L571.022 1224.67 L571.022 1224.26 Q571.022 1221.32 569.078 1219.72 Q567.156 1218.1 563.661 1218.1 Q561.439 1218.1 559.332 1218.63 Q557.226 1219.17 555.281 1220.23 L555.281 1216.3 Q557.619 1215.39 559.818 1214.95 Q562.017 1214.49 564.101 1214.49 Q569.726 1214.49 572.503 1217.41 Q575.281 1220.32 575.281 1226.25 Z" fill="#000000" fill-rule="nonzero" fill-opacity="1" /><path clip-path="url(#clip560)" d="M588.267 1207.75 L588.267 1215.11 L597.04 1215.11 L597.04 1218.42 L588.267 1218.42 L588.267 1232.5 Q588.267 1235.67 589.124 1236.57 Q590.003 1237.48 592.665 1237.48 L597.04 1237.48 L597.04 1241.04 L592.665 1241.04 Q587.735 1241.04 585.86 1239.21 Q583.985 1237.36 583.985 1232.5 L583.985 1218.42 L580.86 1218.42 L580.86 1215.11 L583.985 1215.11 L583.985 1207.75 L588.267 1207.75 Z" fill="#000000" fill-rule="nonzero" fill-opacity="1" /><path clip-path="url(#clip560)" d="M624.818 1227.01 L624.818 1229.1 L605.235 1229.1 Q605.512 1233.49 607.874 1235.81 Q610.258 1238.1 614.494 1238.1 Q616.948 1238.1 619.239 1237.5 Q621.554 1236.9 623.823 1235.69 L623.823 1239.72 Q621.531 1240.69 619.124 1241.2 Q616.716 1241.71 614.239 1241.71 Q608.036 1241.71 604.401 1238.1 Q600.79 1234.49 600.79 1228.33 Q600.79 1221.97 604.216 1218.24 Q607.665 1214.49 613.499 1214.49 Q618.73 1214.49 621.762 1217.87 Q624.818 1221.23 624.818 1227.01 M620.559 1225.76 Q620.512 1222.27 618.591 1220.18 Q616.693 1218.1 613.545 1218.1 Q609.98 1218.1 607.827 1220.11 Q605.698 1222.13 605.374 1225.79 L620.559 1225.76 Z" fill="#000000" fill-rule="nonzero" fill-opacity="1" /><path clip-path="url(#clip560)" d="M646.832 1219.1 Q646.114 1218.68 645.258 1218.49 Q644.424 1218.29 643.406 1218.29 Q639.795 1218.29 637.85 1220.65 Q635.929 1222.98 635.929 1227.38 L635.929 1241.04 L631.647 1241.04 L631.647 1215.11 L635.929 1215.11 L635.929 1219.14 Q637.272 1216.78 639.424 1215.65 Q641.577 1214.49 644.656 1214.49 Q645.096 1214.49 645.628 1214.56 Q646.16 1214.61 646.809 1214.72 L646.832 1219.1 Z" fill="#000000" fill-rule="nonzero" fill-opacity="1" /><path clip-path="url(#clip560)" d="M663.892 1215.11 L668.151 1215.11 L673.475 1235.35 L678.776 1215.11 L683.799 1215.11 L689.123 1235.35 L694.424 1215.11 L698.683 1215.11 L691.901 1241.04 L686.878 1241.04 L681.299 1219.79 L675.697 1241.04 L670.674 1241.04 L663.892 1215.11 Z" fill="#000000" fill-rule="nonzero" fill-opacity="1" /><path clip-path="url(#clip560)" d="M716.924 1228.01 Q711.762 1228.01 709.771 1229.19 Q707.78 1230.37 707.78 1233.22 Q707.78 1235.48 709.262 1236.83 Q710.767 1238.15 713.336 1238.15 Q716.878 1238.15 719.007 1235.65 Q721.16 1233.12 721.16 1228.96 L721.16 1228.01 L716.924 1228.01 M725.419 1226.25 L725.419 1241.04 L721.16 1241.04 L721.16 1237.11 Q719.702 1239.47 717.526 1240.6 Q715.35 1241.71 712.202 1241.71 Q708.22 1241.71 705.859 1239.49 Q703.521 1237.24 703.521 1233.49 Q703.521 1229.12 706.438 1226.9 Q709.378 1224.67 715.188 1224.67 L721.16 1224.67 L721.16 1224.26 Q721.16 1221.32 719.216 1219.72 Q717.294 1218.1 713.799 1218.1 Q711.577 1218.1 709.47 1218.63 Q707.364 1219.17 705.419 1220.23 L705.419 1216.3 Q707.757 1215.39 709.956 1214.95 Q712.155 1214.49 714.239 1214.49 Q719.864 1214.49 722.642 1217.41 Q725.419 1220.32 725.419 1226.25 Z" fill="#000000" fill-rule="nonzero" fill-opacity="1" /><path clip-path="url(#clip560)" d="M731.137 1215.11 L735.651 1215.11 L743.752 1236.87 L751.854 1215.11 L756.368 1215.11 L746.646 1241.04 L740.859 1241.04 L731.137 1215.11 Z" fill="#000000" fill-rule="nonzero" fill-opacity="1" /><path clip-path="url(#clip560)" d="M784.424 1227.01 L784.424 1229.1 L764.84 1229.1 Q765.118 1233.49 767.479 1235.81 Q769.863 1238.1 774.1 1238.1 Q776.553 1238.1 778.845 1237.5 Q781.16 1236.9 783.428 1235.69 L783.428 1239.72 Q781.137 1240.69 778.729 1241.2 Q776.322 1241.71 773.845 1241.71 Q767.641 1241.71 764.007 1238.1 Q760.396 1234.49 760.396 1228.33 Q760.396 1221.97 763.822 1218.24 Q767.271 1214.49 773.104 1214.49 Q778.336 1214.49 781.368 1217.87 Q784.424 1221.23 784.424 1227.01 M780.164 1225.76 Q780.118 1222.27 778.197 1220.18 Q776.299 1218.1 773.15 1218.1 Q769.586 1218.1 767.433 1220.11 Q765.303 1222.13 764.979 1225.79 L780.164 1225.76 Z" fill="#000000" fill-rule="nonzero" fill-opacity="1" /><path clip-path="url(#clip560)" d="M807.942 1215.88 L807.942 1219.91 Q806.136 1218.98 804.192 1218.52 Q802.248 1218.05 800.164 1218.05 Q796.993 1218.05 795.396 1219.03 Q793.822 1220 793.822 1221.94 Q793.822 1223.42 794.956 1224.28 Q796.09 1225.11 799.516 1225.88 L800.974 1226.2 Q805.511 1227.17 807.41 1228.96 Q809.331 1230.72 809.331 1233.89 Q809.331 1237.5 806.46 1239.61 Q803.613 1241.71 798.613 1241.71 Q796.53 1241.71 794.261 1241.29 Q792.016 1240.9 789.516 1240.09 L789.516 1235.69 Q791.877 1236.92 794.169 1237.54 Q796.461 1238.15 798.706 1238.15 Q801.715 1238.15 803.336 1237.13 Q804.956 1236.09 804.956 1234.21 Q804.956 1232.48 803.775 1231.55 Q802.618 1230.62 798.66 1229.77 L797.178 1229.42 Q793.22 1228.59 791.461 1226.87 Q789.701 1225.14 789.701 1222.13 Q789.701 1218.47 792.294 1216.48 Q794.886 1214.49 799.655 1214.49 Q802.016 1214.49 804.099 1214.84 Q806.183 1215.18 807.942 1215.88 Z" fill="#000000" fill-rule="nonzero" fill-opacity="1" /><polyline clip-path="url(#clip560)" style="stroke:#e26f46; stroke-linecap:round; stroke-linejoin:round; stroke-width:4; stroke-opacity:1; fill:none" points="350.804,1275.6 490.475,1275.6 "/>
<path clip-path="url(#clip560)" d="M539.309 1287.95 L539.309 1278.67 L531.67 1278.67 L531.67 1274.82 L543.939 1274.82 L543.939 1289.66 Q541.23 1291.58 537.967 1292.58 Q534.703 1293.55 530.999 1293.55 Q522.897 1293.55 518.314 1288.83 Q513.754 1284.08 513.754 1275.63 Q513.754 1267.16 518.314 1262.44 Q522.897 1257.7 530.999 1257.7 Q534.379 1257.7 537.411 1258.53 Q540.467 1259.36 543.036 1260.98 L543.036 1265.96 Q540.443 1263.76 537.527 1262.65 Q534.61 1261.54 531.393 1261.54 Q525.05 1261.54 521.856 1265.08 Q518.684 1268.62 518.684 1275.63 Q518.684 1282.63 521.856 1286.17 Q525.05 1289.71 531.393 1289.71 Q533.869 1289.71 535.814 1289.29 Q537.758 1288.85 539.309 1287.95 Z" fill="#000000" fill-rule="nonzero" fill-opacity="1" /><path clip-path="url(#clip560)" d="M567.318 1270.94 Q566.601 1270.52 565.744 1270.33 Q564.911 1270.13 563.892 1270.13 Q560.281 1270.13 558.337 1272.49 Q556.416 1274.82 556.416 1279.22 L556.416 1292.88 L552.133 1292.88 L552.133 1266.95 L556.416 1266.95 L556.416 1270.98 Q557.758 1268.62 559.911 1267.49 Q562.064 1266.33 565.142 1266.33 Q565.582 1266.33 566.115 1266.4 Q566.647 1266.45 567.295 1266.56 L567.318 1270.94 Z" fill="#000000" fill-rule="nonzero" fill-opacity="1" /><path clip-path="url(#clip560)" d="M592.92 1278.85 L592.92 1280.94 L573.337 1280.94 Q573.615 1285.33 575.976 1287.65 Q578.36 1289.94 582.596 1289.94 Q585.05 1289.94 587.341 1289.34 Q589.656 1288.74 591.925 1287.53 L591.925 1291.56 Q589.633 1292.53 587.226 1293.04 Q584.818 1293.55 582.341 1293.55 Q576.138 1293.55 572.503 1289.94 Q568.892 1286.33 568.892 1280.17 Q568.892 1273.81 572.318 1270.08 Q575.767 1266.33 581.601 1266.33 Q586.832 1266.33 589.864 1269.71 Q592.92 1273.07 592.92 1278.85 M588.661 1277.6 Q588.614 1274.11 586.693 1272.02 Q584.795 1269.94 581.647 1269.94 Q578.082 1269.94 575.929 1271.95 Q573.8 1273.97 573.476 1277.63 L588.661 1277.6 Z" fill="#000000" fill-rule="nonzero" fill-opacity="1" /><path clip-path="url(#clip560)" d="M622.086 1278.85 L622.086 1280.94 L602.503 1280.94 Q602.781 1285.33 605.142 1287.65 Q607.526 1289.94 611.762 1289.94 Q614.216 1289.94 616.508 1289.34 Q618.823 1288.74 621.091 1287.53 L621.091 1291.56 Q618.799 1292.53 616.392 1293.04 Q613.985 1293.55 611.508 1293.55 Q605.304 1293.55 601.67 1289.94 Q598.059 1286.33 598.059 1280.17 Q598.059 1273.81 601.485 1270.08 Q604.934 1266.33 610.767 1266.33 Q615.999 1266.33 619.031 1269.71 Q622.086 1273.07 622.086 1278.85 M617.827 1277.6 Q617.781 1274.11 615.86 1272.02 Q613.962 1269.94 610.813 1269.94 Q607.249 1269.94 605.096 1271.95 Q602.966 1273.97 602.642 1277.63 L617.827 1277.6 Z" fill="#000000" fill-rule="nonzero" fill-opacity="1" /><path clip-path="url(#clip560)" d="M650.628 1277.23 L650.628 1292.88 L646.369 1292.88 L646.369 1277.37 Q646.369 1273.69 644.934 1271.86 Q643.498 1270.03 640.628 1270.03 Q637.179 1270.03 635.188 1272.23 Q633.198 1274.43 633.198 1278.23 L633.198 1292.88 L628.915 1292.88 L628.915 1266.95 L633.198 1266.95 L633.198 1270.98 Q634.725 1268.64 636.785 1267.49 Q638.869 1266.33 641.577 1266.33 Q646.045 1266.33 648.336 1269.11 Q650.628 1271.86 650.628 1277.23 Z" fill="#000000" fill-rule="nonzero" fill-opacity="1" /><path clip-path="url(#clip560)" d="M656.971 1278 L669.447 1278 L669.447 1281.79 L656.971 1281.79 L656.971 1278 Z" fill="#000000" fill-rule="nonzero" fill-opacity="1" /><path clip-path="url(#clip560)" d="M676.415 1258.32 L682.711 1258.32 L698.035 1287.23 L698.035 1258.32 L702.572 1258.32 L702.572 1292.88 L696.276 1292.88 L680.952 1263.97 L680.952 1292.88 L676.415 1292.88 L676.415 1258.32 Z" fill="#000000" fill-rule="nonzero" fill-opacity="1" /><path clip-path="url(#clip560)" d="M723.475 1279.85 Q718.313 1279.85 716.322 1281.03 Q714.331 1282.21 714.331 1285.06 Q714.331 1287.32 715.813 1288.67 Q717.317 1289.99 719.887 1289.99 Q723.429 1289.99 725.558 1287.49 Q727.711 1284.96 727.711 1280.8 L727.711 1279.85 L723.475 1279.85 M731.97 1278.09 L731.97 1292.88 L727.711 1292.88 L727.711 1288.95 Q726.253 1291.31 724.077 1292.44 Q721.901 1293.55 718.753 1293.55 Q714.771 1293.55 712.41 1291.33 Q710.072 1289.08 710.072 1285.33 Q710.072 1280.96 712.989 1278.74 Q715.929 1276.51 721.739 1276.51 L727.711 1276.51 L727.711 1276.1 Q727.711 1273.16 725.766 1271.56 Q723.845 1269.94 720.35 1269.94 Q718.128 1269.94 716.021 1270.47 Q713.915 1271.01 711.97 1272.07 L711.97 1268.14 Q714.308 1267.23 716.507 1266.79 Q718.706 1266.33 720.79 1266.33 Q726.415 1266.33 729.192 1269.25 Q731.97 1272.16 731.97 1278.09 Z" fill="#000000" fill-rule="nonzero" fill-opacity="1" /><path clip-path="url(#clip560)" d="M757.803 1279.62 Q757.803 1274.99 755.882 1272.44 Q753.984 1269.89 750.535 1269.89 Q747.109 1269.89 745.188 1272.44 Q743.29 1274.99 743.29 1279.62 Q743.29 1284.22 745.188 1286.77 Q747.109 1289.32 750.535 1289.32 Q753.984 1289.32 755.882 1286.77 Q757.803 1284.22 757.803 1279.62 M762.063 1289.66 Q762.063 1296.28 759.123 1299.5 Q756.183 1302.74 750.118 1302.74 Q747.873 1302.74 745.882 1302.39 Q743.891 1302.07 742.016 1301.38 L742.016 1297.23 Q743.891 1298.25 745.72 1298.74 Q747.549 1299.22 749.447 1299.22 Q753.637 1299.22 755.72 1297.02 Q757.803 1294.85 757.803 1290.43 L757.803 1288.32 Q756.484 1290.61 754.424 1291.75 Q752.364 1292.88 749.493 1292.88 Q744.725 1292.88 741.808 1289.25 Q738.891 1285.61 738.891 1279.62 Q738.891 1273.6 741.808 1269.96 Q744.725 1266.33 749.493 1266.33 Q752.364 1266.33 754.424 1267.46 Q756.484 1268.6 757.803 1270.89 L757.803 1266.95 L762.063 1266.95 L762.063 1289.66 Z" fill="#000000" fill-rule="nonzero" fill-opacity="1" /><path clip-path="url(#clip560)" d="M792.386 1277.23 L792.386 1292.88 L788.127 1292.88 L788.127 1277.37 Q788.127 1273.69 786.692 1271.86 Q785.257 1270.03 782.387 1270.03 Q778.937 1270.03 776.947 1272.23 Q774.956 1274.43 774.956 1278.23 L774.956 1292.88 L770.674 1292.88 L770.674 1256.86 L774.956 1256.86 L774.956 1270.98 Q776.484 1268.64 778.544 1267.49 Q780.627 1266.33 783.336 1266.33 Q787.803 1266.33 790.095 1269.11 Q792.386 1271.86 792.386 1277.23 Z" fill="#000000" fill-rule="nonzero" fill-opacity="1" /><path clip-path="url(#clip560)" d="M817.942 1270.89 L817.942 1256.86 L822.201 1256.86 L822.201 1292.88 L817.942 1292.88 L817.942 1288.99 Q816.599 1291.31 814.539 1292.44 Q812.502 1293.55 809.632 1293.55 Q804.933 1293.55 801.97 1289.8 Q799.03 1286.05 799.03 1279.94 Q799.03 1273.83 801.97 1270.08 Q804.933 1266.33 809.632 1266.33 Q812.502 1266.33 814.539 1267.46 Q816.599 1268.57 817.942 1270.89 M803.428 1279.94 Q803.428 1284.64 805.349 1287.32 Q807.294 1289.99 810.673 1289.99 Q814.053 1289.99 815.997 1287.32 Q817.942 1284.64 817.942 1279.94 Q817.942 1275.24 815.997 1272.58 Q814.053 1269.89 810.673 1269.89 Q807.294 1269.89 805.349 1272.58 Q803.428 1275.24 803.428 1279.94 Z" fill="#000000" fill-rule="nonzero" fill-opacity="1" /><path clip-path="url(#clip560)" d="M830.974 1266.95 L835.233 1266.95 L835.233 1292.88 L830.974 1292.88 L830.974 1266.95 M830.974 1256.86 L835.233 1256.86 L835.233 1262.26 L830.974 1262.26 L830.974 1256.86 Z" fill="#000000" fill-rule="nonzero" fill-opacity="1" /><polyline clip-path="url(#clip560)" style="stroke:#3da44d; stroke-linecap:round; stroke-linejoin:round; stroke-width:4; stroke-opacity:1; fill:none" points="350.804,1327.44 490.475,1327.44 "/>
<path clip-path="url(#clip560)" d="M513.754 1310.16 L518.476 1310.16 L525.744 1339.37 L532.99 1310.16 L538.244 1310.16 L545.513 1339.37 L552.758 1310.16 L557.503 1310.16 L548.823 1344.72 L542.943 1344.72 L535.652 1314.72 L528.291 1344.72 L522.411 1344.72 L513.754 1310.16 Z" fill="#000000" fill-rule="nonzero" fill-opacity="1" /><path clip-path="url(#clip560)" d="M585.073 1329.07 L585.073 1344.72 L580.814 1344.72 L580.814 1329.21 Q580.814 1325.53 579.378 1323.7 Q577.943 1321.87 575.073 1321.87 Q571.624 1321.87 569.633 1324.07 Q567.642 1326.27 567.642 1330.07 L567.642 1344.72 L563.36 1344.72 L563.36 1308.7 L567.642 1308.7 L567.642 1322.82 Q569.17 1320.48 571.23 1319.33 Q573.314 1318.17 576.022 1318.17 Q580.489 1318.17 582.781 1320.95 Q585.073 1323.7 585.073 1329.07 Z" fill="#000000" fill-rule="nonzero" fill-opacity="1" /><path clip-path="url(#clip560)" d="M593.568 1318.79 L597.827 1318.79 L597.827 1344.72 L593.568 1344.72 L593.568 1318.79 M593.568 1308.7 L597.827 1308.7 L597.827 1314.1 L593.568 1314.1 L593.568 1308.7 Z" fill="#000000" fill-rule="nonzero" fill-opacity="1" /><path clip-path="url(#clip560)" d="M610.952 1311.43 L610.952 1318.79 L619.725 1318.79 L619.725 1322.1 L610.952 1322.1 L610.952 1336.18 Q610.952 1339.35 611.809 1340.25 Q612.688 1341.16 615.35 1341.16 L619.725 1341.16 L619.725 1344.72 L615.35 1344.72 Q610.42 1344.72 608.545 1342.89 Q606.67 1341.04 606.67 1336.18 L606.67 1322.1 L603.545 1322.1 L603.545 1318.79 L606.67 1318.79 L606.67 1311.43 L610.952 1311.43 Z" fill="#000000" fill-rule="nonzero" fill-opacity="1" /><path clip-path="url(#clip560)" d="M646.878 1329.07 L646.878 1344.72 L642.619 1344.72 L642.619 1329.21 Q642.619 1325.53 641.184 1323.7 Q639.748 1321.87 636.878 1321.87 Q633.429 1321.87 631.438 1324.07 Q629.448 1326.27 629.448 1330.07 L629.448 1344.72 L625.165 1344.72 L625.165 1308.7 L629.448 1308.7 L629.448 1322.82 Q630.975 1320.48 633.035 1319.33 Q635.119 1318.17 637.827 1318.17 Q642.295 1318.17 644.586 1320.95 Q646.878 1323.7 646.878 1329.07 Z" fill="#000000" fill-rule="nonzero" fill-opacity="1" /><path clip-path="url(#clip560)" d="M667.156 1331.69 Q661.994 1331.69 660.003 1332.87 Q658.012 1334.05 658.012 1336.9 Q658.012 1339.16 659.494 1340.51 Q660.998 1341.83 663.568 1341.83 Q667.109 1341.83 669.239 1339.33 Q671.392 1336.8 671.392 1332.64 L671.392 1331.69 L667.156 1331.69 M675.651 1329.93 L675.651 1344.72 L671.392 1344.72 L671.392 1340.79 Q669.933 1343.15 667.758 1344.28 Q665.582 1345.39 662.433 1345.39 Q658.452 1345.39 656.091 1343.17 Q653.753 1340.92 653.753 1337.17 Q653.753 1332.8 656.67 1330.58 Q659.609 1328.35 665.42 1328.35 L671.392 1328.35 L671.392 1327.94 Q671.392 1325 669.447 1323.4 Q667.526 1321.78 664.031 1321.78 Q661.808 1321.78 659.702 1322.31 Q657.596 1322.85 655.651 1323.91 L655.651 1319.98 Q657.989 1319.07 660.188 1318.63 Q662.387 1318.17 664.471 1318.17 Q670.095 1318.17 672.873 1321.09 Q675.651 1324 675.651 1329.93 Z" fill="#000000" fill-rule="nonzero" fill-opacity="1" /><path clip-path="url(#clip560)" d="M704.609 1323.77 Q706.206 1320.9 708.429 1319.54 Q710.651 1318.17 713.66 1318.17 Q717.711 1318.17 719.91 1321.02 Q722.109 1323.84 722.109 1329.07 L722.109 1344.72 L717.827 1344.72 L717.827 1329.21 Q717.827 1325.48 716.507 1323.68 Q715.188 1321.87 712.48 1321.87 Q709.169 1321.87 707.248 1324.07 Q705.327 1326.27 705.327 1330.07 L705.327 1344.72 L701.044 1344.72 L701.044 1329.21 Q701.044 1325.46 699.725 1323.68 Q698.406 1321.87 695.651 1321.87 Q692.387 1321.87 690.466 1324.1 Q688.544 1326.29 688.544 1330.07 L688.544 1344.72 L684.262 1344.72 L684.262 1318.79 L688.544 1318.79 L688.544 1322.82 Q690.003 1320.44 692.04 1319.3 Q694.077 1318.17 696.878 1318.17 Q699.702 1318.17 701.669 1319.6 Q703.66 1321.04 704.609 1323.77 Z" fill="#000000" fill-rule="nonzero" fill-opacity="1" /><path clip-path="url(#clip560)" d="M728.452 1329.84 L740.928 1329.84 L740.928 1333.63 L728.452 1333.63 L728.452 1329.84 Z" fill="#000000" fill-rule="nonzero" fill-opacity="1" /><path clip-path="url(#clip560)" d="M773.197 1339.79 L773.197 1330.51 L765.558 1330.51 L765.558 1326.66 L777.826 1326.66 L777.826 1341.5 Q775.118 1343.42 771.854 1344.42 Q768.59 1345.39 764.887 1345.39 Q756.785 1345.39 752.202 1340.67 Q747.641 1335.92 747.641 1327.47 Q747.641 1319 752.202 1314.28 Q756.785 1309.54 764.887 1309.54 Q768.266 1309.54 771.299 1310.37 Q774.354 1311.2 776.924 1312.82 L776.924 1317.8 Q774.331 1315.6 771.414 1314.49 Q768.498 1313.38 765.28 1313.38 Q758.938 1313.38 755.743 1316.92 Q752.572 1320.46 752.572 1327.47 Q752.572 1334.47 755.743 1338.01 Q758.938 1341.55 765.28 1341.55 Q767.757 1341.55 769.701 1341.13 Q771.646 1340.69 773.197 1339.79 Z" fill="#000000" fill-rule="nonzero" fill-opacity="1" /><path clip-path="url(#clip560)" d="M801.206 1322.78 Q800.488 1322.36 799.632 1322.17 Q798.799 1321.97 797.78 1321.97 Q794.169 1321.97 792.224 1324.33 Q790.303 1326.66 790.303 1331.06 L790.303 1344.72 L786.021 1344.72 L786.021 1318.79 L790.303 1318.79 L790.303 1322.82 Q791.646 1320.46 793.799 1319.33 Q795.951 1318.17 799.03 1318.17 Q799.47 1318.17 800.002 1318.24 Q800.535 1318.29 801.183 1318.4 L801.206 1322.78 Z" fill="#000000" fill-rule="nonzero" fill-opacity="1" /><path clip-path="url(#clip560)" d="M826.808 1330.69 L826.808 1332.78 L807.224 1332.78 Q807.502 1337.17 809.863 1339.49 Q812.248 1341.78 816.484 1341.78 Q818.937 1341.78 821.229 1341.18 Q823.544 1340.58 825.812 1339.37 L825.812 1343.4 Q823.521 1344.37 821.113 1344.88 Q818.706 1345.39 816.229 1345.39 Q810.025 1345.39 806.391 1341.78 Q802.78 1338.17 802.78 1332.01 Q802.78 1325.65 806.206 1321.92 Q809.655 1318.17 815.488 1318.17 Q820.72 1318.17 823.752 1321.55 Q826.808 1324.91 826.808 1330.69 M822.548 1329.44 Q822.502 1325.95 820.581 1323.86 Q818.683 1321.78 815.535 1321.78 Q811.97 1321.78 809.817 1323.79 Q807.687 1325.81 807.363 1329.47 L822.548 1329.44 Z" fill="#000000" fill-rule="nonzero" fill-opacity="1" /><path clip-path="url(#clip560)" d="M855.974 1330.69 L855.974 1332.78 L836.391 1332.78 Q836.669 1337.17 839.03 1339.49 Q841.414 1341.78 845.65 1341.78 Q848.104 1341.78 850.395 1341.18 Q852.71 1340.58 854.979 1339.37 L854.979 1343.4 Q852.687 1344.37 850.28 1344.88 Q847.872 1345.39 845.395 1345.39 Q839.192 1345.39 835.558 1341.78 Q831.946 1338.17 831.946 1332.01 Q831.946 1325.65 835.372 1321.92 Q838.821 1318.17 844.655 1318.17 Q849.886 1318.17 852.919 1321.55 Q855.974 1324.91 855.974 1330.69 M851.715 1329.44 Q851.669 1325.95 849.747 1323.86 Q847.849 1321.78 844.701 1321.78 Q841.136 1321.78 838.983 1323.79 Q836.854 1325.81 836.53 1329.47 L851.715 1329.44 Z" fill="#000000" fill-rule="nonzero" fill-opacity="1" /><path clip-path="url(#clip560)" d="M884.516 1329.07 L884.516 1344.72 L880.256 1344.72 L880.256 1329.21 Q880.256 1325.53 878.821 1323.7 Q877.386 1321.87 874.516 1321.87 Q871.067 1321.87 869.076 1324.07 Q867.085 1326.27 867.085 1330.07 L867.085 1344.72 L862.803 1344.72 L862.803 1318.79 L867.085 1318.79 L867.085 1322.82 Q868.613 1320.48 870.673 1319.33 Q872.756 1318.17 875.465 1318.17 Q879.932 1318.17 882.224 1320.95 Q884.516 1323.7 884.516 1329.07 Z" fill="#000000" fill-rule="nonzero" fill-opacity="1" /><path clip-path="url(#clip560)" d="M890.858 1329.84 L903.335 1329.84 L903.335 1333.63 L890.858 1333.63 L890.858 1329.84 Z" fill="#000000" fill-rule="nonzero" fill-opacity="1" /><path clip-path="url(#clip560)" d="M910.303 1310.16 L916.599 1310.16 L931.923 1339.07 L931.923 1310.16 L936.46 1310.16 L936.46 1344.72 L930.164 1344.72 L914.84 1315.81 L914.84 1344.72 L910.303 1344.72 L910.303 1310.16 Z" fill="#000000" fill-rule="nonzero" fill-opacity="1" /><path clip-path="url(#clip560)" d="M957.362 1331.69 Q952.2 1331.69 950.21 1332.87 Q948.219 1334.05 948.219 1336.9 Q948.219 1339.16 949.7 1340.51 Q951.205 1341.83 953.775 1341.83 Q957.316 1341.83 959.446 1339.33 Q961.599 1336.8 961.599 1332.64 L961.599 1331.69 L957.362 1331.69 M965.858 1329.93 L965.858 1344.72 L961.599 1344.72 L961.599 1340.79 Q960.14 1343.15 957.964 1344.28 Q955.788 1345.39 952.64 1345.39 Q948.659 1345.39 946.298 1343.17 Q943.96 1340.92 943.96 1337.17 Q943.96 1332.8 946.876 1330.58 Q949.816 1328.35 955.626 1328.35 L961.599 1328.35 L961.599 1327.94 Q961.599 1325 959.654 1323.4 Q957.733 1321.78 954.237 1321.78 Q952.015 1321.78 949.909 1322.31 Q947.802 1322.85 945.858 1323.91 L945.858 1319.98 Q948.196 1319.07 950.395 1318.63 Q952.594 1318.17 954.677 1318.17 Q960.302 1318.17 963.08 1321.09 Q965.858 1324 965.858 1329.93 Z" fill="#000000" fill-rule="nonzero" fill-opacity="1" /><path clip-path="url(#clip560)" d="M991.691 1331.46 Q991.691 1326.83 989.77 1324.28 Q987.872 1321.73 984.423 1321.73 Q980.997 1321.73 979.075 1324.28 Q977.177 1326.83 977.177 1331.46 Q977.177 1336.06 979.075 1338.61 Q980.997 1341.16 984.423 1341.16 Q987.872 1341.16 989.77 1338.61 Q991.691 1336.06 991.691 1331.46 M995.95 1341.5 Q995.95 1348.12 993.01 1351.34 Q990.071 1354.58 984.006 1354.58 Q981.76 1354.58 979.77 1354.23 Q977.779 1353.91 975.904 1353.22 L975.904 1349.07 Q977.779 1350.09 979.608 1350.58 Q981.436 1351.06 983.335 1351.06 Q987.524 1351.06 989.608 1348.86 Q991.691 1346.69 991.691 1342.27 L991.691 1340.16 Q990.372 1342.45 988.311 1343.59 Q986.251 1344.72 983.381 1344.72 Q978.612 1344.72 975.696 1341.09 Q972.779 1337.45 972.779 1331.46 Q972.779 1325.44 975.696 1321.8 Q978.612 1318.17 983.381 1318.17 Q986.251 1318.17 988.311 1319.3 Q990.372 1320.44 991.691 1322.73 L991.691 1318.79 L995.95 1318.79 L995.95 1341.5 Z" fill="#000000" fill-rule="nonzero" fill-opacity="1" /><path clip-path="url(#clip560)" d="M1026.27 1329.07 L1026.27 1344.72 L1022.01 1344.72 L1022.01 1329.21 Q1022.01 1325.53 1020.58 1323.7 Q1019.14 1321.87 1016.27 1321.87 Q1012.83 1321.87 1010.83 1324.07 Q1008.84 1326.27 1008.84 1330.07 L1008.84 1344.72 L1004.56 1344.72 L1004.56 1308.7 L1008.84 1308.7 L1008.84 1322.82 Q1010.37 1320.48 1012.43 1319.33 Q1014.51 1318.17 1017.22 1318.17 Q1021.69 1318.17 1023.98 1320.95 Q1026.27 1323.7 1026.27 1329.07 Z" fill="#000000" fill-rule="nonzero" fill-opacity="1" /><path clip-path="url(#clip560)" d="M1051.83 1322.73 L1051.83 1308.7 L1056.09 1308.7 L1056.09 1344.72 L1051.83 1344.72 L1051.83 1340.83 Q1050.49 1343.15 1048.43 1344.28 Q1046.39 1345.39 1043.52 1345.39 Q1038.82 1345.39 1035.86 1341.64 Q1032.92 1337.89 1032.92 1331.78 Q1032.92 1325.67 1035.86 1321.92 Q1038.82 1318.17 1043.52 1318.17 Q1046.39 1318.17 1048.43 1319.3 Q1050.49 1320.41 1051.83 1322.73 M1037.32 1331.78 Q1037.32 1336.48 1039.24 1339.16 Q1041.18 1341.83 1044.56 1341.83 Q1047.94 1341.83 1049.89 1339.16 Q1051.83 1336.48 1051.83 1331.78 Q1051.83 1327.08 1049.89 1324.42 Q1047.94 1321.73 1044.56 1321.73 Q1041.18 1321.73 1039.24 1324.42 Q1037.32 1327.08 1037.32 1331.78 Z" fill="#000000" fill-rule="nonzero" fill-opacity="1" /><path clip-path="url(#clip560)" d="M1064.86 1318.79 L1069.12 1318.79 L1069.12 1344.72 L1064.86 1344.72 L1064.86 1318.79 M1064.86 1308.7 L1069.12 1308.7 L1069.12 1314.1 L1064.86 1314.1 L1064.86 1308.7 Z" fill="#000000" fill-rule="nonzero" fill-opacity="1" /></svg>
