<?xml version="1.0" encoding="utf-8"?>
<svg xmlns="http://www.w3.org/2000/svg" xmlns:xlink="http://www.w3.org/1999/xlink" width="600" height="400" viewBox="0 0 2400 1600">
<defs>
  <clipPath id="clip330">
    <rect x="0" y="0" width="2400" height="1600"/>
  </clipPath>
</defs>
<path clip-path="url(#clip330)" d="M0 1600 L2400 1600 L2400 0 L0 0  Z" fill="#ffffff" fill-rule="evenodd" fill-opacity="1"/>
<defs>
  <clipPath id="clip331">
    <rect x="257" y="106" width="2096" height="1318"/>
  </clipPath>
</defs>
<path clip-path="url(#clip330)" d="M257.69 1423.18 L2352.76 1423.18 L2352.76 106.192 L257.69 106.192  Z" fill="#ffffff" fill-rule="evenodd" fill-opacity="1"/>
<polyline clip-path="url(#clip331)" style="stroke:#000000; stroke-linecap:round; stroke-linejoin:round; stroke-width:2; stroke-opacity:0.1; fill:none" points="369.529,1423.18 369.529,106.192 "/>
<polyline clip-path="url(#clip331)" style="stroke:#000000; stroke-linecap:round; stroke-linejoin:round; stroke-width:2; stroke-opacity:0.1; fill:none" points="683.419,1423.18 683.419,106.192 "/>
<polyline clip-path="url(#clip331)" style="stroke:#000000; stroke-linecap:round; stroke-linejoin:round; stroke-width:2; stroke-opacity:0.1; fill:none" points="997.309,1423.18 997.309,106.192 "/>
<polyline clip-path="url(#clip331)" style="stroke:#000000; stroke-linecap:round; stroke-linejoin:round; stroke-width:2; stroke-opacity:0.1; fill:none" points="1311.2,1423.18 1311.2,106.192 "/>
<polyline clip-path="url(#clip331)" style="stroke:#000000; stroke-linecap:round; stroke-linejoin:round; stroke-width:2; stroke-opacity:0.1; fill:none" points="1625.09,1423.18 1625.09,106.192 "/>
<polyline clip-path="url(#clip331)" style="stroke:#000000; stroke-linecap:round; stroke-linejoin:round; stroke-width:2; stroke-opacity:0.1; fill:none" points="1938.98,1423.18 1938.98,106.192 "/>
<polyline clip-path="url(#clip331)" style="stroke:#000000; stroke-linecap:round; stroke-linejoin:round; stroke-width:2; stroke-opacity:0.1; fill:none" points="2252.87,1423.18 2252.87,106.192 "/>
<polyline clip-path="url(#clip331)" style="stroke:#000000; stroke-linecap:round; stroke-linejoin:round; stroke-width:2; stroke-opacity:0.1; fill:none" points="257.69,1238.07 2352.76,1238.07 "/>
<polyline clip-path="url(#clip331)" style="stroke:#000000; stroke-linecap:round; stroke-linejoin:round; stroke-width:2; stroke-opacity:0.1; fill:none" points="257.69,1049.9 2352.76,1049.9 "/>
<polyline clip-path="url(#clip331)" style="stroke:#000000; stroke-linecap:round; stroke-linejoin:round; stroke-width:2; stroke-opacity:0.1; fill:none" points="257.69,861.736 2352.76,861.736 "/>
<polyline clip-path="url(#clip331)" style="stroke:#000000; stroke-linecap:round; stroke-linejoin:round; stroke-width:2; stroke-opacity:0.1; fill:none" points="257.69,673.568 2352.76,673.568 "/>
<polyline clip-path="url(#clip331)" style="stroke:#000000; stroke-linecap:round; stroke-linejoin:round; stroke-width:2; stroke-opacity:0.1; fill:none" points="257.69,485.4 2352.76,485.4 "/>
<polyline clip-path="url(#clip331)" style="stroke:#000000; stroke-linecap:round; stroke-linejoin:round; stroke-width:2; stroke-opacity:0.1; fill:none" points="257.69,297.231 2352.76,297.231 "/>
<polyline clip-path="url(#clip331)" style="stroke:#000000; stroke-linecap:round; stroke-linejoin:round; stroke-width:2; stroke-opacity:0.1; fill:none" points="257.69,109.063 2352.76,109.063 "/>
<polyline clip-path="url(#clip330)" style="stroke:#000000; stroke-linecap:round; stroke-linejoin:round; stroke-width:4; stroke-opacity:1; fill:none" points="257.69,1423.18 2352.76,1423.18 "/>
<polyline clip-path="url(#clip330)" style="stroke:#000000; stroke-linecap:round; stroke-linejoin:round; stroke-width:4; stroke-opacity:1; fill:none" points="369.529,1423.18 369.529,1404.28 "/>
<polyline clip-path="url(#clip330)" style="stroke:#000000; stroke-linecap:round; stroke-linejoin:round; stroke-width:4; stroke-opacity:1; fill:none" points="683.419,1423.18 683.419,1404.28 "/>
<polyline clip-path="url(#clip330)" style="stroke:#000000; stroke-linecap:round; stroke-linejoin:round; stroke-width:4; stroke-opacity:1; fill:none" points="997.309,1423.18 997.309,1404.28 "/>
<polyline clip-path="url(#clip330)" style="stroke:#000000; stroke-linecap:round; stroke-linejoin:round; stroke-width:4; stroke-opacity:1; fill:none" points="1311.2,1423.18 1311.2,1404.28 "/>
<polyline clip-path="url(#clip330)" style="stroke:#000000; stroke-linecap:round; stroke-linejoin:round; stroke-width:4; stroke-opacity:1; fill:none" points="1625.09,1423.18 1625.09,1404.28 "/>
<polyline clip-path="url(#clip330)" style="stroke:#000000; stroke-linecap:round; stroke-linejoin:round; stroke-width:4; stroke-opacity:1; fill:none" points="1938.98,1423.18 1938.98,1404.28 "/>
<polyline clip-path="url(#clip330)" style="stroke:#000000; stroke-linecap:round; stroke-linejoin:round; stroke-width:4; stroke-opacity:1; fill:none" points="2252.87,1423.18 2252.87,1404.28 "/>
<path clip-path="url(#clip330)" d="M338.997 1468.75 L368.672 1468.75 L368.672 1472.69 L338.997 1472.69 L338.997 1468.75 Z" fill="#000000" fill-rule="nonzero" fill-opacity="1" /><path clip-path="url(#clip330)" d="M392.931 1466.95 Q396.288 1467.66 398.163 1469.93 Q400.061 1472.2 400.061 1475.53 Q400.061 1480.65 396.543 1483.45 Q393.024 1486.25 386.543 1486.25 Q384.367 1486.25 382.052 1485.81 Q379.76 1485.39 377.307 1484.54 L377.307 1480.02 Q379.251 1481.16 381.566 1481.74 Q383.881 1482.32 386.404 1482.32 Q390.802 1482.32 393.094 1480.58 Q395.408 1478.84 395.408 1475.53 Q395.408 1472.48 393.256 1470.77 Q391.126 1469.03 387.307 1469.03 L383.279 1469.03 L383.279 1465.19 L387.492 1465.19 Q390.941 1465.19 392.769 1463.82 Q394.598 1462.43 394.598 1459.84 Q394.598 1457.18 392.7 1455.77 Q390.825 1454.33 387.307 1454.33 Q385.385 1454.33 383.186 1454.75 Q380.987 1455.16 378.348 1456.04 L378.348 1451.88 Q381.01 1451.14 383.325 1450.77 Q385.663 1450.39 387.723 1450.39 Q393.047 1450.39 396.149 1452.83 Q399.251 1455.23 399.251 1459.35 Q399.251 1462.22 397.607 1464.21 Q395.964 1466.18 392.931 1466.95 Z" fill="#000000" fill-rule="nonzero" fill-opacity="1" /><path clip-path="url(#clip330)" d="M653.361 1468.75 L683.037 1468.75 L683.037 1472.69 L653.361 1472.69 L653.361 1468.75 Z" fill="#000000" fill-rule="nonzero" fill-opacity="1" /><path clip-path="url(#clip330)" d="M697.157 1481.64 L713.477 1481.64 L713.477 1485.58 L691.532 1485.58 L691.532 1481.64 Q694.194 1478.89 698.778 1474.26 Q703.384 1469.61 704.565 1468.27 Q706.81 1465.74 707.69 1464.01 Q708.592 1462.25 708.592 1460.56 Q708.592 1457.8 706.648 1456.07 Q704.727 1454.33 701.625 1454.33 Q699.426 1454.33 696.972 1455.09 Q694.542 1455.86 691.764 1457.41 L691.764 1452.69 Q694.588 1451.55 697.041 1450.97 Q699.495 1450.39 701.532 1450.39 Q706.903 1450.39 710.097 1453.08 Q713.291 1455.77 713.291 1460.26 Q713.291 1462.39 712.481 1464.31 Q711.694 1466.2 709.588 1468.8 Q709.009 1469.47 705.907 1472.69 Q702.805 1475.88 697.157 1481.64 Z" fill="#000000" fill-rule="nonzero" fill-opacity="1" /><path clip-path="url(#clip330)" d="M967.066 1468.75 L996.742 1468.75 L996.742 1472.69 L967.066 1472.69 L967.066 1468.75 Z" fill="#000000" fill-rule="nonzero" fill-opacity="1" /><path clip-path="url(#clip330)" d="M1007.64 1481.64 L1015.28 1481.64 L1015.28 1455.28 L1006.97 1456.95 L1006.97 1452.69 L1015.24 1451.02 L1019.91 1451.02 L1019.91 1481.64 L1027.55 1481.64 L1027.55 1485.58 L1007.64 1485.58 L1007.64 1481.64 Z" fill="#000000" fill-rule="nonzero" fill-opacity="1" /><path clip-path="url(#clip330)" d="M1311.2 1454.1 Q1307.59 1454.1 1305.76 1457.66 Q1303.95 1461.2 1303.95 1468.33 Q1303.95 1475.44 1305.76 1479.01 Q1307.59 1482.55 1311.2 1482.55 Q1314.83 1482.55 1316.64 1479.01 Q1318.47 1475.44 1318.47 1468.33 Q1318.47 1461.2 1316.64 1457.66 Q1314.83 1454.1 1311.2 1454.1 M1311.2 1450.39 Q1317.01 1450.39 1320.06 1455 Q1323.14 1459.58 1323.14 1468.33 Q1323.14 1477.06 1320.06 1481.67 Q1317.01 1486.25 1311.2 1486.25 Q1305.39 1486.25 1302.31 1481.67 Q1299.25 1477.06 1299.25 1468.33 Q1299.25 1459.58 1302.31 1455 Q1305.39 1450.39 1311.2 1450.39 Z" fill="#000000" fill-rule="nonzero" fill-opacity="1" /><path clip-path="url(#clip330)" d="M1615.47 1481.64 L1623.11 1481.64 L1623.11 1455.28 L1614.8 1456.95 L1614.8 1452.69 L1623.06 1451.02 L1627.74 1451.02 L1627.74 1481.64 L1635.38 1481.64 L1635.38 1485.58 L1615.47 1485.58 L1615.47 1481.64 Z" fill="#000000" fill-rule="nonzero" fill-opacity="1" /><path clip-path="url(#clip330)" d="M1933.63 1481.64 L1949.95 1481.64 L1949.95 1485.58 L1928.01 1485.58 L1928.01 1481.64 Q1930.67 1478.89 1935.25 1474.26 Q1939.86 1469.61 1941.04 1468.27 Q1943.28 1465.74 1944.16 1464.01 Q1945.07 1462.25 1945.07 1460.56 Q1945.07 1457.8 1943.12 1456.07 Q1941.2 1454.33 1938.1 1454.33 Q1935.9 1454.33 1933.45 1455.09 Q1931.02 1455.86 1928.24 1457.41 L1928.24 1452.69 Q1931.06 1451.55 1933.52 1450.97 Q1935.97 1450.39 1938.01 1450.39 Q1943.38 1450.39 1946.57 1453.08 Q1949.77 1455.77 1949.77 1460.26 Q1949.77 1462.39 1948.96 1464.31 Q1948.17 1466.2 1946.06 1468.8 Q1945.48 1469.47 1942.38 1472.69 Q1939.28 1475.88 1933.63 1481.64 Z" fill="#000000" fill-rule="nonzero" fill-opacity="1" /><path clip-path="url(#clip330)" d="M2257.12 1466.95 Q2260.47 1467.66 2262.35 1469.93 Q2264.25 1472.2 2264.25 1475.53 Q2264.25 1480.65 2260.73 1483.45 Q2257.21 1486.25 2250.73 1486.25 Q2248.55 1486.25 2246.24 1485.81 Q2243.95 1485.39 2241.49 1484.54 L2241.49 1480.02 Q2243.44 1481.16 2245.75 1481.74 Q2248.07 1482.32 2250.59 1482.32 Q2254.99 1482.32 2257.28 1480.58 Q2259.59 1478.84 2259.59 1475.53 Q2259.59 1472.48 2257.44 1470.77 Q2255.31 1469.03 2251.49 1469.03 L2247.46 1469.03 L2247.46 1465.19 L2251.68 1465.19 Q2255.13 1465.19 2256.95 1463.82 Q2258.78 1462.43 2258.78 1459.84 Q2258.78 1457.18 2256.89 1455.77 Q2255.01 1454.33 2251.49 1454.33 Q2249.57 1454.33 2247.37 1454.75 Q2245.17 1455.16 2242.53 1456.04 L2242.53 1451.88 Q2245.2 1451.14 2247.51 1450.77 Q2249.85 1450.39 2251.91 1450.39 Q2257.23 1450.39 2260.33 1452.83 Q2263.44 1455.23 2263.44 1459.35 Q2263.44 1462.22 2261.79 1464.21 Q2260.15 1466.18 2257.12 1466.95 Z" fill="#000000" fill-rule="nonzero" fill-opacity="1" /><path clip-path="url(#clip330)" d="M1321.84 1532.4 L1308.95 1549.74 L1322.51 1568.04 L1315.6 1568.04 L1305.22 1554.04 L1294.85 1568.04 L1287.94 1568.04 L1301.79 1549.39 L1289.12 1532.4 L1296.02 1532.4 L1305.48 1545.1 L1314.93 1532.4 L1321.84 1532.4 Z" fill="#000000" fill-rule="nonzero" fill-opacity="1" /><polyline clip-path="url(#clip330)" style="stroke:#000000; stroke-linecap:round; stroke-linejoin:round; stroke-width:4; stroke-opacity:1; fill:none" points="257.69,1423.18 257.69,106.192 "/>
<polyline clip-path="url(#clip330)" style="stroke:#000000; stroke-linecap:round; stroke-linejoin:round; stroke-width:4; stroke-opacity:1; fill:none" points="257.69,1238.07 276.588,1238.07 "/>
<polyline clip-path="url(#clip330)" style="stroke:#000000; stroke-linecap:round; stroke-linejoin:round; stroke-width:4; stroke-opacity:1; fill:none" points="257.69,1049.9 276.588,1049.9 "/>
<polyline clip-path="url(#clip330)" style="stroke:#000000; stroke-linecap:round; stroke-linejoin:round; stroke-width:4; stroke-opacity:1; fill:none" points="257.69,861.736 276.588,861.736 "/>
<polyline clip-path="url(#clip330)" style="stroke:#000000; stroke-linecap:round; stroke-linejoin:round; stroke-width:4; stroke-opacity:1; fill:none" points="257.69,673.568 276.588,673.568 "/>
<polyline clip-path="url(#clip330)" style="stroke:#000000; stroke-linecap:round; stroke-linejoin:round; stroke-width:4; stroke-opacity:1; fill:none" points="257.69,485.4 276.588,485.4 "/>
<polyline clip-path="url(#clip330)" style="stroke:#000000; stroke-linecap:round; stroke-linejoin:round; stroke-width:4; stroke-opacity:1; fill:none" points="257.69,297.231 276.588,297.231 "/>
<polyline clip-path="url(#clip330)" style="stroke:#000000; stroke-linecap:round; stroke-linejoin:round; stroke-width:4; stroke-opacity:1; fill:none" points="257.69,109.063 276.588,109.063 "/>
<path clip-path="url(#clip330)" d="M114.584 1238.52 L144.26 1238.52 L144.26 1242.46 L114.584 1242.46 L114.584 1238.52 Z" fill="#000000" fill-rule="nonzero" fill-opacity="1" /><path clip-path="url(#clip330)" d="M164.352 1223.87 Q160.741 1223.87 158.913 1227.44 Q157.107 1230.98 157.107 1238.11 Q157.107 1245.21 158.913 1248.78 Q160.741 1252.32 164.352 1252.32 Q167.987 1252.32 169.792 1248.78 Q171.621 1245.21 171.621 1238.11 Q171.621 1230.98 169.792 1227.44 Q167.987 1223.87 164.352 1223.87 M164.352 1220.17 Q170.163 1220.17 173.218 1224.77 Q176.297 1229.36 176.297 1238.11 Q176.297 1246.83 173.218 1251.44 Q170.163 1256.02 164.352 1256.02 Q158.542 1256.02 155.464 1251.44 Q152.408 1246.83 152.408 1238.11 Q152.408 1229.36 155.464 1224.77 Q158.542 1220.17 164.352 1220.17 Z" fill="#000000" fill-rule="nonzero" fill-opacity="1" /><path clip-path="url(#clip330)" d="M184.514 1249.47 L189.399 1249.47 L189.399 1255.35 L184.514 1255.35 L184.514 1249.47 Z" fill="#000000" fill-rule="nonzero" fill-opacity="1" /><path clip-path="url(#clip330)" d="M210.162 1236.21 Q207.014 1236.21 205.162 1238.36 Q203.334 1240.52 203.334 1244.27 Q203.334 1247.99 205.162 1250.17 Q207.014 1252.32 210.162 1252.32 Q213.311 1252.32 215.139 1250.17 Q216.991 1247.99 216.991 1244.27 Q216.991 1240.52 215.139 1238.36 Q213.311 1236.21 210.162 1236.21 M219.445 1221.56 L219.445 1225.82 Q217.686 1224.98 215.88 1224.54 Q214.098 1224.1 212.338 1224.1 Q207.709 1224.1 205.255 1227.23 Q202.824 1230.35 202.477 1236.67 Q203.843 1234.66 205.903 1233.59 Q207.963 1232.51 210.44 1232.51 Q215.649 1232.51 218.658 1235.68 Q221.69 1238.83 221.69 1244.27 Q221.69 1249.59 218.542 1252.81 Q215.394 1256.02 210.162 1256.02 Q204.167 1256.02 200.996 1251.44 Q197.825 1246.83 197.825 1238.11 Q197.825 1229.91 201.713 1225.05 Q205.602 1220.17 212.153 1220.17 Q213.912 1220.17 215.695 1220.52 Q217.5 1220.86 219.445 1221.56 Z" fill="#000000" fill-rule="nonzero" fill-opacity="1" /><path clip-path="url(#clip330)" d="M115.742 1050.36 L145.417 1050.36 L145.417 1054.29 L115.742 1054.29 L115.742 1050.36 Z" fill="#000000" fill-rule="nonzero" fill-opacity="1" /><path clip-path="url(#clip330)" d="M165.51 1035.7 Q161.899 1035.7 160.07 1039.27 Q158.265 1042.81 158.265 1049.94 Q158.265 1057.05 160.07 1060.61 Q161.899 1064.15 165.51 1064.15 Q169.144 1064.15 170.95 1060.61 Q172.778 1057.05 172.778 1049.94 Q172.778 1042.81 170.95 1039.27 Q169.144 1035.7 165.51 1035.7 M165.51 1032 Q171.32 1032 174.376 1036.61 Q177.454 1041.19 177.454 1049.94 Q177.454 1058.67 174.376 1063.27 Q171.32 1067.86 165.51 1067.86 Q159.7 1067.86 156.621 1063.27 Q153.566 1058.67 153.566 1049.94 Q153.566 1041.19 156.621 1036.61 Q159.7 1032 165.51 1032 Z" fill="#000000" fill-rule="nonzero" fill-opacity="1" /><path clip-path="url(#clip330)" d="M185.672 1061.31 L190.556 1061.31 L190.556 1067.18 L185.672 1067.18 L185.672 1061.31 Z" fill="#000000" fill-rule="nonzero" fill-opacity="1" /><path clip-path="url(#clip330)" d="M200.787 1032.62 L219.144 1032.62 L219.144 1036.56 L205.07 1036.56 L205.07 1045.03 Q206.088 1044.68 207.107 1044.52 Q208.125 1044.34 209.144 1044.34 Q214.931 1044.34 218.311 1047.51 Q221.69 1050.68 221.69 1056.1 Q221.69 1061.68 218.218 1064.78 Q214.746 1067.86 208.426 1067.86 Q206.25 1067.86 203.982 1067.49 Q201.737 1067.12 199.329 1066.37 L199.329 1061.68 Q201.412 1062.81 203.635 1063.37 Q205.857 1063.92 208.334 1063.92 Q212.338 1063.92 214.676 1061.81 Q217.014 1059.71 217.014 1056.1 Q217.014 1052.49 214.676 1050.38 Q212.338 1048.27 208.334 1048.27 Q206.459 1048.27 204.584 1048.69 Q202.732 1049.11 200.787 1049.99 L200.787 1032.62 Z" fill="#000000" fill-rule="nonzero" fill-opacity="1" /><path clip-path="url(#clip330)" d="M114.26 862.188 L143.936 862.188 L143.936 866.123 L114.26 866.123 L114.26 862.188 Z" fill="#000000" fill-rule="nonzero" fill-opacity="1" /><path clip-path="url(#clip330)" d="M164.028 847.535 Q160.417 847.535 158.589 851.1 Q156.783 854.642 156.783 861.771 Q156.783 868.878 158.589 872.442 Q160.417 875.984 164.028 875.984 Q167.663 875.984 169.468 872.442 Q171.297 868.878 171.297 861.771 Q171.297 854.642 169.468 851.1 Q167.663 847.535 164.028 847.535 M164.028 843.831 Q169.839 843.831 172.894 848.438 Q175.973 853.021 175.973 861.771 Q175.973 870.498 172.894 875.104 Q169.839 879.688 164.028 879.688 Q158.218 879.688 155.14 875.104 Q152.084 870.498 152.084 861.771 Q152.084 853.021 155.14 848.438 Q158.218 843.831 164.028 843.831 Z" fill="#000000" fill-rule="nonzero" fill-opacity="1" /><path clip-path="url(#clip330)" d="M184.19 873.137 L189.075 873.137 L189.075 879.016 L184.19 879.016 L184.19 873.137 Z" fill="#000000" fill-rule="nonzero" fill-opacity="1" /><path clip-path="url(#clip330)" d="M212.107 848.53 L200.301 866.979 L212.107 866.979 L212.107 848.53 M210.88 844.456 L216.76 844.456 L216.76 866.979 L221.69 866.979 L221.69 870.868 L216.76 870.868 L216.76 879.016 L212.107 879.016 L212.107 870.868 L196.505 870.868 L196.505 866.354 L210.88 844.456 Z" fill="#000000" fill-rule="nonzero" fill-opacity="1" /><path clip-path="url(#clip330)" d="M115.394 674.019 L145.07 674.019 L145.07 677.955 L115.394 677.955 L115.394 674.019 Z" fill="#000000" fill-rule="nonzero" fill-opacity="1" /><path clip-path="url(#clip330)" d="M165.163 659.367 Q161.552 659.367 159.723 662.931 Q157.917 666.473 157.917 673.603 Q157.917 680.709 159.723 684.274 Q161.552 687.816 165.163 687.816 Q168.797 687.816 170.602 684.274 Q172.431 680.709 172.431 673.603 Q172.431 666.473 170.602 662.931 Q168.797 659.367 165.163 659.367 M165.163 655.663 Q170.973 655.663 174.028 660.269 Q177.107 664.853 177.107 673.603 Q177.107 682.33 174.028 686.936 Q170.973 691.519 165.163 691.519 Q159.353 691.519 156.274 686.936 Q153.218 682.33 153.218 673.603 Q153.218 664.853 156.274 660.269 Q159.353 655.663 165.163 655.663 Z" fill="#000000" fill-rule="nonzero" fill-opacity="1" /><path clip-path="url(#clip330)" d="M185.325 684.968 L190.209 684.968 L190.209 690.848 L185.325 690.848 L185.325 684.968 Z" fill="#000000" fill-rule="nonzero" fill-opacity="1" /><path clip-path="url(#clip330)" d="M214.561 672.214 Q217.917 672.931 219.792 675.2 Q221.69 677.468 221.69 680.802 Q221.69 685.917 218.172 688.718 Q214.653 691.519 208.172 691.519 Q205.996 691.519 203.681 691.079 Q201.389 690.663 198.936 689.806 L198.936 685.292 Q200.88 686.427 203.195 687.005 Q205.51 687.584 208.033 687.584 Q212.431 687.584 214.723 685.848 Q217.037 684.112 217.037 680.802 Q217.037 677.746 214.885 676.033 Q212.755 674.297 208.936 674.297 L204.908 674.297 L204.908 670.455 L209.121 670.455 Q212.57 670.455 214.399 669.089 Q216.227 667.7 216.227 665.107 Q216.227 662.445 214.329 661.033 Q212.454 659.598 208.936 659.598 Q207.014 659.598 204.815 660.015 Q202.616 660.431 199.977 661.311 L199.977 657.144 Q202.639 656.404 204.954 656.033 Q207.292 655.663 209.352 655.663 Q214.676 655.663 217.778 658.094 Q220.88 660.501 220.88 664.621 Q220.88 667.492 219.236 669.482 Q217.593 671.45 214.561 672.214 Z" fill="#000000" fill-rule="nonzero" fill-opacity="1" /><path clip-path="url(#clip330)" d="M116.343 485.851 L146.019 485.851 L146.019 489.786 L116.343 489.786 L116.343 485.851 Z" fill="#000000" fill-rule="nonzero" fill-opacity="1" /><path clip-path="url(#clip330)" d="M166.112 471.198 Q162.501 471.198 160.672 474.763 Q158.866 478.305 158.866 485.434 Q158.866 492.541 160.672 496.106 Q162.501 499.647 166.112 499.647 Q169.746 499.647 171.552 496.106 Q173.38 492.541 173.38 485.434 Q173.38 478.305 171.552 474.763 Q169.746 471.198 166.112 471.198 M166.112 467.495 Q171.922 467.495 174.977 472.101 Q178.056 476.684 178.056 485.434 Q178.056 494.161 174.977 498.768 Q171.922 503.351 166.112 503.351 Q160.302 503.351 157.223 498.768 Q154.167 494.161 154.167 485.434 Q154.167 476.684 157.223 472.101 Q160.302 467.495 166.112 467.495 Z" fill="#000000" fill-rule="nonzero" fill-opacity="1" /><path clip-path="url(#clip330)" d="M186.274 496.8 L191.158 496.8 L191.158 502.68 L186.274 502.68 L186.274 496.8 Z" fill="#000000" fill-rule="nonzero" fill-opacity="1" /><path clip-path="url(#clip330)" d="M205.371 498.744 L221.69 498.744 L221.69 502.68 L199.746 502.68 L199.746 498.744 Q202.408 495.99 206.991 491.36 Q211.598 486.707 212.778 485.365 Q215.024 482.842 215.903 481.106 Q216.806 479.346 216.806 477.657 Q216.806 474.902 214.861 473.166 Q212.94 471.43 209.838 471.43 Q207.639 471.43 205.186 472.194 Q202.755 472.957 199.977 474.508 L199.977 469.786 Q202.801 468.652 205.255 468.073 Q207.709 467.495 209.746 467.495 Q215.116 467.495 218.311 470.18 Q221.505 472.865 221.505 477.356 Q221.505 479.485 220.695 481.407 Q219.908 483.305 217.801 485.897 Q217.223 486.569 214.121 489.786 Q211.019 492.981 205.371 498.744 Z" fill="#000000" fill-rule="nonzero" fill-opacity="1" /><path clip-path="url(#clip330)" d="M115.973 297.683 L145.649 297.683 L145.649 301.618 L115.973 301.618 L115.973 297.683 Z" fill="#000000" fill-rule="nonzero" fill-opacity="1" /><path clip-path="url(#clip330)" d="M165.741 283.03 Q162.13 283.03 160.302 286.595 Q158.496 290.136 158.496 297.266 Q158.496 304.372 160.302 307.937 Q162.13 311.479 165.741 311.479 Q169.376 311.479 171.181 307.937 Q173.01 304.372 173.01 297.266 Q173.01 290.136 171.181 286.595 Q169.376 283.03 165.741 283.03 M165.741 279.326 Q171.552 279.326 174.607 283.933 Q177.686 288.516 177.686 297.266 Q177.686 305.993 174.607 310.599 Q171.552 315.182 165.741 315.182 Q159.931 315.182 156.853 310.599 Q153.797 305.993 153.797 297.266 Q153.797 288.516 156.853 283.933 Q159.931 279.326 165.741 279.326 Z" fill="#000000" fill-rule="nonzero" fill-opacity="1" /><path clip-path="url(#clip330)" d="M185.903 308.632 L190.788 308.632 L190.788 314.511 L185.903 314.511 L185.903 308.632 Z" fill="#000000" fill-rule="nonzero" fill-opacity="1" /><path clip-path="url(#clip330)" d="M201.783 310.576 L209.422 310.576 L209.422 284.21 L201.112 285.877 L201.112 281.618 L209.375 279.951 L214.051 279.951 L214.051 310.576 L221.69 310.576 L221.69 314.511 L201.783 314.511 L201.783 310.576 Z" fill="#000000" fill-rule="nonzero" fill-opacity="1" /><path clip-path="url(#clip330)" d="M164.515 94.8614 Q160.903 94.8614 159.075 98.4262 Q157.269 101.968 157.269 109.097 Q157.269 116.204 159.075 119.769 Q160.903 123.31 164.515 123.31 Q168.149 123.31 169.954 119.769 Q171.783 116.204 171.783 109.097 Q171.783 101.968 169.954 98.4262 Q168.149 94.8614 164.515 94.8614 M164.515 91.1577 Q170.325 91.1577 173.38 95.7641 Q176.459 100.347 176.459 109.097 Q176.459 117.824 173.38 122.431 Q170.325 127.014 164.515 127.014 Q158.704 127.014 155.626 122.431 Q152.57 117.824 152.57 109.097 Q152.57 100.347 155.626 95.7641 Q158.704 91.1577 164.515 91.1577 Z" fill="#000000" fill-rule="nonzero" fill-opacity="1" /><path clip-path="url(#clip330)" d="M184.676 120.463 L189.561 120.463 L189.561 126.343 L184.676 126.343 L184.676 120.463 Z" fill="#000000" fill-rule="nonzero" fill-opacity="1" /><path clip-path="url(#clip330)" d="M209.746 94.8614 Q206.135 94.8614 204.306 98.4262 Q202.5 101.968 202.5 109.097 Q202.5 116.204 204.306 119.769 Q206.135 123.31 209.746 123.31 Q213.38 123.31 215.186 119.769 Q217.014 116.204 217.014 109.097 Q217.014 101.968 215.186 98.4262 Q213.38 94.8614 209.746 94.8614 M209.746 91.1577 Q215.556 91.1577 218.611 95.7641 Q221.69 100.347 221.69 109.097 Q221.69 117.824 218.611 122.431 Q215.556 127.014 209.746 127.014 Q203.936 127.014 200.857 122.431 Q197.801 117.824 197.801 109.097 Q197.801 100.347 200.857 95.7641 Q203.936 91.1577 209.746 91.1577 Z" fill="#000000" fill-rule="nonzero" fill-opacity="1" /><path clip-path="url(#clip330)" d="M42.4881 749.758 L77.5631 749.758 L77.5631 755.615 L42.679 755.615 Q37.6183 755.615 35.1038 757.588 Q32.5894 759.562 32.5894 763.508 Q32.5894 768.251 35.6131 770.988 Q38.6368 773.725 43.8567 773.725 L64.0042 773.725 L64.0042 779.614 L28.3562 779.614 L28.3562 773.725 L33.8944 773.725 Q30.6797 771.625 29.0883 768.792 Q27.4968 765.927 27.4968 762.203 Q27.4968 756.06 31.2844 752.909 Q35.1038 749.758 42.4881 749.758 Z" fill="#000000" fill-rule="nonzero" fill-opacity="1" /><path clip-path="url(#clip330)" d="M835.492 10.0578 L835.492 15.758 Q832.164 14.1666 829.213 13.3853 Q826.261 12.6041 823.513 12.6041 Q818.738 12.6041 816.134 14.4559 Q813.559 16.3078 813.559 19.7221 Q813.559 22.5867 815.266 24.0624 Q817.002 25.5091 821.805 26.4061 L825.336 27.1295 Q831.875 28.3737 834.971 31.5276 Q838.096 34.6526 838.096 39.9188 Q838.096 46.1977 833.871 49.4384 Q829.676 52.6791 821.545 52.6791 Q818.478 52.6791 815.006 51.9847 Q811.562 51.2902 807.859 49.9303 L807.859 43.9118 Q811.418 45.9083 814.832 46.921 Q818.246 47.9338 821.545 47.9338 Q826.551 47.9338 829.271 45.9662 Q831.991 43.9986 831.991 40.3528 Q831.991 37.1699 830.023 35.376 Q828.084 33.582 823.628 32.685 L820.069 31.9906 Q813.53 30.6885 810.608 27.9107 Q807.685 25.133 807.685 20.1851 Q807.685 14.4559 811.707 11.1573 Q815.758 7.85875 822.847 7.85875 Q825.885 7.85875 829.039 8.40852 Q832.193 8.95829 835.492 10.0578 Z" fill="#000000" fill-rule="nonzero" fill-opacity="1" /><path clip-path="url(#clip330)" d="M846.429 39.0507 L846.429 19.4328 L851.753 19.4328 L851.753 38.8482 Q851.753 43.4488 853.547 45.7636 Q855.341 48.0495 858.929 48.0495 Q863.24 48.0495 865.729 45.3007 Q868.246 42.5519 868.246 37.8065 L868.246 19.4328 L873.57 19.4328 L873.57 51.84 L868.246 51.84 L868.246 46.8632 Q866.308 49.8145 863.732 51.2613 Q861.186 52.6791 857.801 52.6791 Q852.216 52.6791 849.323 49.2069 Q846.429 45.7347 846.429 39.0507 M859.826 18.6515 L859.826 18.6515 Z" fill="#000000" fill-rule="nonzero" fill-opacity="1" /><path clip-path="url(#clip330)" d="M903.315 24.4096 Q902.418 23.8888 901.348 23.6573 Q900.306 23.3969 899.033 23.3969 Q894.519 23.3969 892.089 26.3482 Q889.687 29.2707 889.687 34.7683 L889.687 51.84 L884.334 51.84 L884.334 19.4328 L889.687 19.4328 L889.687 24.4675 Q891.365 21.5161 894.056 20.0983 Q896.747 18.6515 900.596 18.6515 Q901.145 18.6515 901.811 18.7383 Q902.476 18.7962 903.287 18.9409 L903.315 24.4096 Z" fill="#000000" fill-rule="nonzero" fill-opacity="1" /><path clip-path="url(#clip330)" d="M925.306 6.81709 L925.306 11.2442 L920.214 11.2442 Q917.349 11.2442 916.22 12.4016 Q915.121 13.559 915.121 16.5682 L915.121 19.4328 L923.888 19.4328 L923.888 23.5705 L915.121 23.5705 L915.121 51.84 L909.768 51.84 L909.768 23.5705 L904.675 23.5705 L904.675 19.4328 L909.768 19.4328 L909.768 17.1758 Q909.768 11.765 912.285 9.30551 Q914.803 6.81709 920.271 6.81709 L925.306 6.81709 Z" fill="#000000" fill-rule="nonzero" fill-opacity="1" /><path clip-path="url(#clip330)" d="M944.49 35.5496 Q938.037 35.5496 935.549 37.0253 Q933.061 38.501 933.061 42.06 Q933.061 44.8956 934.913 46.5738 Q936.793 48.2231 940.005 48.2231 Q944.432 48.2231 947.094 45.0981 Q949.785 41.9442 949.785 36.7359 L949.785 35.5496 L944.49 35.5496 M955.109 33.3505 L955.109 51.84 L949.785 51.84 L949.785 46.921 Q947.962 49.8724 945.242 51.2902 Q942.522 52.6791 938.587 52.6791 Q933.61 52.6791 930.659 49.9014 Q927.737 47.0947 927.737 42.4072 Q927.737 36.9385 931.382 34.1607 Q935.057 31.3829 942.32 31.3829 L949.785 31.3829 L949.785 30.8621 Q949.785 27.1874 947.355 25.1908 Q944.953 23.1654 940.584 23.1654 Q937.806 23.1654 935.173 23.8309 Q932.54 24.4964 930.109 25.8274 L930.109 20.9085 Q933.032 19.78 935.781 19.2302 Q938.529 18.6515 941.134 18.6515 Q948.165 18.6515 951.637 22.2973 Q955.109 25.9431 955.109 33.3505 Z" fill="#000000" fill-rule="nonzero" fill-opacity="1" /><path clip-path="url(#clip330)" d="M989.397 20.677 L989.397 25.6538 Q987.14 24.4096 984.854 23.802 Q982.597 23.1654 980.283 23.1654 Q975.103 23.1654 972.239 26.464 Q969.374 29.7336 969.374 35.6653 Q969.374 41.597 972.239 44.8956 Q975.103 48.1653 980.283 48.1653 Q982.597 48.1653 984.854 47.5576 Q987.14 46.921 989.397 45.6768 L989.397 50.5958 Q987.169 51.6375 984.768 52.1583 Q982.395 52.6791 979.704 52.6791 Q972.383 52.6791 968.072 48.0784 Q963.761 43.4778 963.761 35.6653 Q963.761 27.7371 968.101 23.1943 Q972.47 18.6515 980.051 18.6515 Q982.511 18.6515 984.854 19.1724 Q987.198 19.6642 989.397 20.677 Z" fill="#000000" fill-rule="nonzero" fill-opacity="1" /><path clip-path="url(#clip330)" d="M1026.38 34.3054 L1026.38 36.9095 L1001.9 36.9095 Q1002.24 42.4072 1005.2 45.3007 Q1008.18 48.1653 1013.47 48.1653 Q1016.54 48.1653 1019.4 47.4129 Q1022.3 46.6606 1025.13 45.156 L1025.13 50.1907 Q1022.27 51.406 1019.26 52.0425 Q1016.25 52.6791 1013.15 52.6791 Q1005.4 52.6791 1000.86 48.1653 Q996.342 43.6514 996.342 35.9547 Q996.342 27.9975 1000.62 23.339 Q1004.94 18.6515 1012.23 18.6515 Q1018.77 18.6515 1022.56 22.876 Q1026.38 27.0716 1026.38 34.3054 M1021.05 32.7429 Q1020.99 28.3737 1018.59 25.7695 Q1016.22 23.1654 1012.28 23.1654 Q1007.83 23.1654 1005.14 25.6827 Q1002.48 28.2001 1002.07 32.7718 L1021.05 32.7429 Z" fill="#000000" fill-rule="nonzero" fill-opacity="1" /><path clip-path="url(#clip330)" d="M1075.28 24.3517 L1075.28 6.81709 L1080.6 6.81709 L1080.6 51.84 L1075.28 51.84 L1075.28 46.9789 Q1073.6 49.8724 1071.02 51.2902 Q1068.48 52.6791 1064.89 52.6791 Q1059.01 52.6791 1055.31 47.9916 Q1051.64 43.3042 1051.64 35.6653 Q1051.64 28.0265 1055.31 23.339 Q1059.01 18.6515 1064.89 18.6515 Q1068.48 18.6515 1071.02 20.0693 Q1073.6 21.4582 1075.28 24.3517 M1057.13 35.6653 Q1057.13 41.5391 1059.54 44.8956 Q1061.97 48.2231 1066.19 48.2231 Q1070.42 48.2231 1072.85 44.8956 Q1075.28 41.5391 1075.28 35.6653 Q1075.28 29.7915 1072.85 26.464 Q1070.42 23.1075 1066.19 23.1075 Q1061.97 23.1075 1059.54 26.464 Q1057.13 29.7915 1057.13 35.6653 Z" fill="#000000" fill-rule="nonzero" fill-opacity="1" /><path clip-path="url(#clip330)" d="M1119.29 34.3054 L1119.29 36.9095 L1094.81 36.9095 Q1095.15 42.4072 1098.11 45.3007 Q1101.09 48.1653 1106.38 48.1653 Q1109.45 48.1653 1112.31 47.4129 Q1115.21 46.6606 1118.04 45.156 L1118.04 50.1907 Q1115.18 51.406 1112.17 52.0425 Q1109.16 52.6791 1106.06 52.6791 Q1098.31 52.6791 1093.77 48.1653 Q1089.25 43.6514 1089.25 35.9547 Q1089.25 27.9975 1093.53 23.339 Q1097.85 18.6515 1105.14 18.6515 Q1111.68 18.6515 1115.47 22.876 Q1119.29 27.0716 1119.29 34.3054 M1113.96 32.7429 Q1113.9 28.3737 1111.5 25.7695 Q1109.13 23.1654 1105.2 23.1654 Q1100.74 23.1654 1098.05 25.6827 Q1095.39 28.2001 1094.98 32.7718 L1113.96 32.7429 Z" fill="#000000" fill-rule="nonzero" fill-opacity="1" /><path clip-path="url(#clip330)" d="M1144.43 6.81709 L1144.43 11.2442 L1139.34 11.2442 Q1136.47 11.2442 1135.35 12.4016 Q1134.25 13.559 1134.25 16.5682 L1134.25 19.4328 L1143.01 19.4328 L1143.01 23.5705 L1134.25 23.5705 L1134.25 51.84 L1128.89 51.84 L1128.89 23.5705 L1123.8 23.5705 L1123.8 19.4328 L1128.89 19.4328 L1128.89 17.1758 Q1128.89 11.765 1131.41 9.30551 Q1133.93 6.81709 1139.4 6.81709 L1144.43 6.81709 Z" fill="#000000" fill-rule="nonzero" fill-opacity="1" /><path clip-path="url(#clip330)" d="M1161.44 23.1654 Q1157.16 23.1654 1154.67 26.5218 Q1152.19 29.8494 1152.19 35.6653 Q1152.19 41.4813 1154.65 44.8377 Q1157.13 48.1653 1161.44 48.1653 Q1165.7 48.1653 1168.19 44.8088 Q1170.68 41.4523 1170.68 35.6653 Q1170.68 29.9072 1168.19 26.5508 Q1165.7 23.1654 1161.44 23.1654 M1161.44 18.6515 Q1168.39 18.6515 1172.35 23.1654 Q1176.32 27.6792 1176.32 35.6653 Q1176.32 43.6225 1172.35 48.1653 Q1168.39 52.6791 1161.44 52.6791 Q1154.47 52.6791 1150.51 48.1653 Q1146.57 43.6225 1146.57 35.6653 Q1146.57 27.6792 1150.51 23.1654 Q1154.47 18.6515 1161.44 18.6515 Z" fill="#000000" fill-rule="nonzero" fill-opacity="1" /><path clip-path="url(#clip330)" d="M1203.92 24.4096 Q1203.02 23.8888 1201.95 23.6573 Q1200.91 23.3969 1199.64 23.3969 Q1195.13 23.3969 1192.69 26.3482 Q1190.29 29.2707 1190.29 34.7683 L1190.29 51.84 L1184.94 51.84 L1184.94 19.4328 L1190.29 19.4328 L1190.29 24.4675 Q1191.97 21.5161 1194.66 20.0983 Q1197.35 18.6515 1201.2 18.6515 Q1201.75 18.6515 1202.42 18.7383 Q1203.08 18.7962 1203.89 18.9409 L1203.92 24.4096 Z" fill="#000000" fill-rule="nonzero" fill-opacity="1" /><path clip-path="url(#clip330)" d="M1233.7 25.6538 Q1235.69 22.0659 1238.47 20.3587 Q1241.25 18.6515 1245.01 18.6515 Q1250.07 18.6515 1252.82 22.2105 Q1255.57 25.7406 1255.57 32.2799 L1255.57 51.84 L1250.22 51.84 L1250.22 32.4535 Q1250.22 27.795 1248.57 25.5381 Q1246.92 23.2811 1243.53 23.2811 Q1239.4 23.2811 1236.99 26.03 Q1234.59 28.7788 1234.59 33.5241 L1234.59 51.84 L1229.24 51.84 L1229.24 32.4535 Q1229.24 27.7661 1227.59 25.5381 Q1225.94 23.2811 1222.5 23.2811 Q1218.42 23.2811 1216.02 26.0589 Q1213.61 28.8077 1213.61 33.5241 L1213.61 51.84 L1208.26 51.84 L1208.26 19.4328 L1213.61 19.4328 L1213.61 24.4675 Q1215.44 21.4872 1217.98 20.0693 Q1220.53 18.6515 1224.03 18.6515 Q1227.56 18.6515 1230.02 20.4455 Q1232.51 22.2395 1233.7 25.6538 Z" fill="#000000" fill-rule="nonzero" fill-opacity="1" /><path clip-path="url(#clip330)" d="M1280.92 35.5496 Q1274.47 35.5496 1271.98 37.0253 Q1269.49 38.501 1269.49 42.06 Q1269.49 44.8956 1271.34 46.5738 Q1273.22 48.2231 1276.43 48.2231 Q1280.86 48.2231 1283.52 45.0981 Q1286.21 41.9442 1286.21 36.7359 L1286.21 35.5496 L1280.92 35.5496 M1291.54 33.3505 L1291.54 51.84 L1286.21 51.84 L1286.21 46.921 Q1284.39 49.8724 1281.67 51.2902 Q1278.95 52.6791 1275.01 52.6791 Q1270.04 52.6791 1267.09 49.9014 Q1264.16 47.0947 1264.16 42.4072 Q1264.16 36.9385 1267.81 34.1607 Q1271.48 31.3829 1278.75 31.3829 L1286.21 31.3829 L1286.21 30.8621 Q1286.21 27.1874 1283.78 25.1908 Q1281.38 23.1654 1277.01 23.1654 Q1274.23 23.1654 1271.6 23.8309 Q1268.97 24.4964 1266.54 25.8274 L1266.54 20.9085 Q1269.46 19.78 1272.21 19.2302 Q1274.96 18.6515 1277.56 18.6515 Q1284.59 18.6515 1288.06 22.2973 Q1291.54 25.9431 1291.54 33.3505 Z" fill="#000000" fill-rule="nonzero" fill-opacity="1" /><path clip-path="url(#clip330)" d="M1307.77 10.2314 L1307.77 19.4328 L1318.74 19.4328 L1318.74 23.5705 L1307.77 23.5705 L1307.77 41.163 Q1307.77 45.1271 1308.84 46.2555 Q1309.94 47.384 1313.27 47.384 L1318.74 47.384 L1318.74 51.84 L1313.27 51.84 Q1307.1 51.84 1304.76 49.5541 Q1302.42 47.2393 1302.42 41.163 L1302.42 23.5705 L1298.51 23.5705 L1298.51 19.4328 L1302.42 19.4328 L1302.42 10.2314 L1307.77 10.2314 Z" fill="#000000" fill-rule="nonzero" fill-opacity="1" /><path clip-path="url(#clip330)" d="M1325.74 19.4328 L1331.06 19.4328 L1331.06 51.84 L1325.74 51.84 L1325.74 19.4328 M1325.74 6.81709 L1331.06 6.81709 L1331.06 13.559 L1325.74 13.559 L1325.74 6.81709 Z" fill="#000000" fill-rule="nonzero" fill-opacity="1" /><path clip-path="url(#clip330)" d="M1354.76 23.1654 Q1350.48 23.1654 1347.99 26.5218 Q1345.5 29.8494 1345.5 35.6653 Q1345.5 41.4813 1347.96 44.8377 Q1350.45 48.1653 1354.76 48.1653 Q1359.01 48.1653 1361.5 44.8088 Q1363.99 41.4523 1363.99 35.6653 Q1363.99 29.9072 1361.5 26.5508 Q1359.01 23.1654 1354.76 23.1654 M1354.76 18.6515 Q1361.7 18.6515 1365.67 23.1654 Q1369.63 27.6792 1369.63 35.6653 Q1369.63 43.6225 1365.67 48.1653 Q1361.7 52.6791 1354.76 52.6791 Q1347.79 52.6791 1343.82 48.1653 Q1339.89 43.6225 1339.89 35.6653 Q1339.89 27.6792 1343.82 23.1654 Q1347.79 18.6515 1354.76 18.6515 Z" fill="#000000" fill-rule="nonzero" fill-opacity="1" /><path clip-path="url(#clip330)" d="M1405.4 32.2799 L1405.4 51.84 L1400.07 51.84 L1400.07 32.4535 Q1400.07 27.8529 1398.28 25.567 Q1396.48 23.2811 1392.9 23.2811 Q1388.58 23.2811 1386.1 26.03 Q1383.61 28.7788 1383.61 33.5241 L1383.61 51.84 L1378.26 51.84 L1378.26 19.4328 L1383.61 19.4328 L1383.61 24.4675 Q1385.52 21.545 1388.09 20.0983 Q1390.7 18.6515 1394.08 18.6515 Q1399.67 18.6515 1402.53 22.1237 Q1405.4 25.567 1405.4 32.2799 Z" fill="#000000" fill-rule="nonzero" fill-opacity="1" /><path clip-path="url(#clip330)" d="M1449.58 35.5496 Q1443.13 35.5496 1440.64 37.0253 Q1438.15 38.501 1438.15 42.06 Q1438.15 44.8956 1440 46.5738 Q1441.88 48.2231 1445.09 48.2231 Q1449.52 48.2231 1452.18 45.0981 Q1454.87 41.9442 1454.87 36.7359 L1454.87 35.5496 L1449.58 35.5496 M1460.2 33.3505 L1460.2 51.84 L1454.87 51.84 L1454.87 46.921 Q1453.05 49.8724 1450.33 51.2902 Q1447.61 52.6791 1443.68 52.6791 Q1438.7 52.6791 1435.75 49.9014 Q1432.83 47.0947 1432.83 42.4072 Q1432.83 36.9385 1436.47 34.1607 Q1440.15 31.3829 1447.41 31.3829 L1454.87 31.3829 L1454.87 30.8621 Q1454.87 27.1874 1452.44 25.1908 Q1450.04 23.1654 1445.67 23.1654 Q1442.9 23.1654 1440.26 23.8309 Q1437.63 24.4964 1435.2 25.8274 L1435.2 20.9085 Q1438.12 19.78 1440.87 19.2302 Q1443.62 18.6515 1446.22 18.6515 Q1453.25 18.6515 1456.73 22.2973 Q1460.2 25.9431 1460.2 33.3505 Z" fill="#000000" fill-rule="nonzero" fill-opacity="1" /><path clip-path="url(#clip330)" d="M1476.43 10.2314 L1476.43 19.4328 L1487.4 19.4328 L1487.4 23.5705 L1476.43 23.5705 L1476.43 41.163 Q1476.43 45.1271 1477.5 46.2555 Q1478.6 47.384 1481.93 47.384 L1487.4 47.384 L1487.4 51.84 L1481.93 51.84 Q1475.77 51.84 1473.42 49.5541 Q1471.08 47.2393 1471.08 41.163 L1471.08 23.5705 L1467.17 23.5705 L1467.17 19.4328 L1471.08 19.4328 L1471.08 10.2314 L1476.43 10.2314 Z" fill="#000000" fill-rule="nonzero" fill-opacity="1" /><path clip-path="url(#clip330)" d="M1518.5 10.2314 L1518.5 19.4328 L1529.47 19.4328 L1529.47 23.5705 L1518.5 23.5705 L1518.5 41.163 Q1518.5 45.1271 1519.57 46.2555 Q1520.67 47.384 1524 47.384 L1529.47 47.384 L1529.47 51.84 L1524 51.84 Q1517.84 51.84 1515.49 49.5541 Q1513.15 47.2393 1513.15 41.163 L1513.15 23.5705 L1509.24 23.5705 L1509.24 19.4328 L1513.15 19.4328 L1513.15 10.2314 L1518.5 10.2314 Z" fill="#000000" fill-rule="nonzero" fill-opacity="1" /><path clip-path="url(#clip330)" d="M1537.17 24.9304 L1574.26 24.9304 L1574.26 29.7915 L1537.17 29.7915 L1537.17 24.9304 M1537.17 36.7359 L1574.26 36.7359 L1574.26 41.6549 L1537.17 41.6549 L1537.17 36.7359 Z" fill="#000000" fill-rule="nonzero" fill-opacity="1" /><path clip-path="url(#clip330)" d="M1644.4 46.921 L1653.95 46.921 L1653.95 13.964 L1643.56 16.0474 L1643.56 10.7233 L1653.89 8.64 L1659.74 8.64 L1659.74 46.921 L1669.28 46.921 L1669.28 51.84 L1644.4 51.84 L1644.4 46.921 Z" fill="#000000" fill-rule="nonzero" fill-opacity="1" /><path clip-path="url(#clip330)" d="M1681.09 44.4905 L1687.19 44.4905 L1687.19 51.84 L1681.09 51.84 L1681.09 44.4905 Z" fill="#000000" fill-rule="nonzero" fill-opacity="1" /><path clip-path="url(#clip330)" d="M1712.43 12.4884 Q1707.91 12.4884 1705.63 16.9444 Q1703.37 21.3714 1703.37 30.2834 Q1703.37 39.1665 1705.63 43.6225 Q1707.91 48.0495 1712.43 48.0495 Q1716.97 48.0495 1719.23 43.6225 Q1721.51 39.1665 1721.51 30.2834 Q1721.51 21.3714 1719.23 16.9444 Q1716.97 12.4884 1712.43 12.4884 M1712.43 7.85875 Q1719.69 7.85875 1723.51 13.6168 Q1727.36 19.346 1727.36 30.2834 Q1727.36 41.1919 1723.51 46.95 Q1719.69 52.6791 1712.43 52.6791 Q1705.16 52.6791 1701.31 46.95 Q1697.5 41.1919 1697.5 30.2834 Q1697.5 19.346 1701.31 13.6168 Q1705.16 7.85875 1712.43 7.85875 Z" fill="#000000" fill-rule="nonzero" fill-opacity="1" /><path clip-path="url(#clip330)" d="M1750.13 12.4884 Q1745.61 12.4884 1743.33 16.9444 Q1741.07 21.3714 1741.07 30.2834 Q1741.07 39.1665 1743.33 43.6225 Q1745.61 48.0495 1750.13 48.0495 Q1754.67 48.0495 1756.93 43.6225 Q1759.21 39.1665 1759.21 30.2834 Q1759.21 21.3714 1756.93 16.9444 Q1754.67 12.4884 1750.13 12.4884 M1750.13 7.85875 Q1757.39 7.85875 1761.21 13.6168 Q1765.06 19.346 1765.06 30.2834 Q1765.06 41.1919 1761.21 46.95 Q1757.39 52.6791 1750.13 52.6791 Q1742.87 52.6791 1739.02 46.95 Q1735.2 41.1919 1735.2 30.2834 Q1735.2 19.346 1739.02 13.6168 Q1742.87 7.85875 1750.13 7.85875 Z" fill="#000000" fill-rule="nonzero" fill-opacity="1" /><path clip-path="url(#clip330)" d="M1787.83 12.4884 Q1783.32 12.4884 1781.03 16.9444 Q1778.77 21.3714 1778.77 30.2834 Q1778.77 39.1665 1781.03 43.6225 Q1783.32 48.0495 1787.83 48.0495 Q1792.37 48.0495 1794.63 43.6225 Q1796.92 39.1665 1796.92 30.2834 Q1796.92 21.3714 1794.63 16.9444 Q1792.37 12.4884 1787.83 12.4884 M1787.83 7.85875 Q1795.09 7.85875 1798.91 13.6168 Q1802.76 19.346 1802.76 30.2834 Q1802.76 41.1919 1798.91 46.95 Q1795.09 52.6791 1787.83 52.6791 Q1780.57 52.6791 1776.72 46.95 Q1772.9 41.1919 1772.9 30.2834 Q1772.9 19.346 1776.72 13.6168 Q1780.57 7.85875 1787.83 7.85875 Z" fill="#000000" fill-rule="nonzero" fill-opacity="1" /><polyline clip-path="url(#clip331)" style="stroke:#009af9; stroke-linecap:round; stroke-linejoin:round; stroke-width:4; stroke-opacity:1; fill:none" points="316.984,1069.78 320.715,1083.86 324.432,1097.76 328.136,1111.41 331.827,1124.76 335.506,1137.75 339.175,1150.35 342.832,1162.51 346.48,1174.2 350.118,1185.4 353.748,1196.08 357.369,1206.24 360.984,1215.85 364.592,1224.92 368.194,1233.44 371.79,1241.41 375.381,1248.82 378.968,1255.69 382.55,1262.01 386.129,1267.78 389.705,1273.01 393.277,1277.72 396.848,1281.89 400.416,1285.54 403.983,1288.67 407.548,1291.29 411.112,1293.4 414.675,1295 418.238,1296.11 421.801,1296.72 425.364,1296.85 428.927,1296.49 432.491,1295.65 436.057,1294.33 439.623,1292.55 443.191,1290.29 446.761,1287.58 450.334,1284.4 453.908,1280.77 457.486,1276.69 461.066,1272.16 464.65,1267.19 468.238,1261.79 471.83,1255.96 475.426,1249.7 479.027,1243.04 482.632,1235.97 486.243,1228.51 489.86,1220.68 493.482,1212.48 497.111,1203.94 500.746,1195.08 504.388,1185.91 508.036,1176.45 511.692,1166.74 515.354,1156.79 519.024,1146.62 522.701,1136.27 526.385,1125.74 530.076,1115.07 533.774,1104.27 537.479,1093.36 541.19,1082.34 544.908,1071.23 548.631,1060.02 552.361,1048.72 556.095,1037.32 559.835,1025.8 563.579,1014.13 567.328,1002.31 571.082,990.279 574.839,978.015 578.601,965.47 582.366,952.597 586.135,939.344 589.909,925.657 593.687,911.482 597.47,896.763 601.259,881.444 605.053,865.471 608.854,848.792 612.663,831.359 616.479,813.127 620.305,794.055 624.142,774.107 627.989,753.254 631.85,731.474 635.725,708.751 639.616,685.079 643.523,660.463 647.45,634.916 651.398,608.471 655.368,581.173 659.363,553.089 663.385,524.307 667.435,494.946 671.517,465.152 675.631,435.109 679.781,405.043 683.966,375.218 688.189,345.947 692.45,317.58 696.749,290.505 701.084,265.132 705.452,241.877 709.85,221.132 714.273,203.243 718.714,188.471 723.166,176.974 727.621,168.783 732.073,163.796 736.513,161.79 740.936,162.435 745.337,165.328 749.713,170.017 754.062,176.037 758.383,182.931 762.676,190.272 766.943,197.673 771.186,204.799 775.408,211.362 779.611,217.128 783.798,221.908 787.973,225.558 792.14,227.973 796.3,229.086 800.459,228.862 804.618,227.299 808.782,224.429 812.953,220.312 817.134,215.045 821.33,208.758 825.541,201.62 829.772,193.837 834.024,185.658 838.3,177.374 842.6,169.315 846.925,161.842 851.274,155.344 855.647,150.215 860.04,146.835 864.449,145.544 868.87,146.62 873.296,150.251 877.723,156.523 882.142,165.417 886.55,176.817 890.941,190.526 895.31,206.287 899.655,223.807 903.974,242.777 908.264,262.89 912.525,283.851 916.758,305.384 920.962,327.24 925.138,349.191 929.288,371.037 933.412,392.6 937.512,413.724 941.59,434.277 945.647,454.143 949.685,473.227 953.705,491.451 957.709,508.754 961.699,525.091 965.677,540.432 969.645,554.764 973.603,568.085 977.554,580.407 981.498,591.753 985.438,602.155 989.374,611.657 993.308,620.308 997.241,628.163 1001.17,635.284 1005.11,641.735 1009.04,647.583 1012.97,652.897 1016.91,657.745 1020.85,662.198 1024.79,666.325 1028.74,670.194 1032.69,673.873 1036.64,677.428 1040.59,680.924 1044.54,684.421 1048.5,687.981 1052.46,691.658 1056.42,695.502 1060.38,699.56 1064.34,703.868 1068.3,708.456 1072.26,713.344 1076.21,718.542 1080.16,724.049 1084.11,729.854 1088.05,735.935 1091.99,742.26 1095.92,748.789 1099.84,755.474 1103.76,762.26 1107.67,769.09 1111.57,775.901 1115.46,782.631 1119.34,789.215 1123.22,795.591 1127.09,801.698 1130.95,807.477 1134.8,812.873 1138.65,817.836 1142.49,822.318 1146.33,826.277 1150.16,829.677 1153.98,832.485 1157.81,834.675 1161.63,836.225 1165.45,837.119 1169.27,837.347 1173.09,836.905 1176.91,835.793 1180.73,834.018 1184.55,831.592 1188.38,828.534 1192.21,824.866 1196.04,820.62 1199.88,815.83 1203.73,810.538 1207.58,804.788 1211.44,798.634 1215.31,792.129 1219.19,785.334 1223.07,778.31 1226.96,771.12 1230.86,763.827 1234.77,756.491 1238.69,749.171 1242.61,741.918 1246.54,734.777 1250.48,727.782 1254.42,720.959 1258.36,714.32 1262.32,707.868 1266.27,701.594 1270.23,695.478 1274.19,689.494 1278.15,683.608 1282.12,677.782 1286.08,671.979 1290.05,666.161 1294.02,660.293 1298,654.346 1301.97,648.296 1305.96,642.125 1309.94,635.825 1313.93,629.391 1317.92,622.83 1321.92,616.153 1325.92,609.378 1329.93,602.531 1333.95,595.642 1337.98,588.748 1342.01,581.89 1346.05,575.116 1350.1,568.478 1354.15,562.032 1358.22,555.841 1362.29,549.972 1366.38,544.497 1370.47,539.49 1374.57,535.031 1378.67,531.201 1382.79,528.08 1386.9,525.747 1391.03,524.279 1395.16,523.744 1399.29,524.205 1403.43,525.713 1407.56,528.308 1411.69,532.013 1415.82,536.839 1419.95,542.775 1424.07,549.796 1428.18,557.856 1432.28,566.89 1436.37,576.817 1440.44,587.538 1444.51,598.944 1448.55,610.916 1452.59,623.328 1456.61,636.057 1460.61,648.981 1464.6,661.983 1468.57,674.959 1472.53,687.814 1476.48,700.462 1480.41,712.833 1484.33,724.866 1488.24,736.508 1492.14,747.717 1496.03,758.455 1499.92,768.693 1503.79,778.406 1507.66,787.573 1511.52,796.181 1515.38,804.22 1519.23,811.691 1523.09,818.599 1526.94,824.964 1530.79,830.815 1534.64,836.196 1538.49,841.165 1542.34,845.798 1546.2,850.186 1550.06,854.437 1553.93,858.673 1557.8,863.025 1561.68,867.632 1565.56,872.633 1569.44,878.159 1573.32,884.327 1577.21,891.227 1581.09,898.923 1584.97,907.442 1588.84,916.772 1592.7,926.864 1596.55,937.634 1600.39,948.97 1604.22,960.736 1608.03,972.786 1611.82,984.966 1615.6,997.126 1619.36,1009.12 1623.12,1020.83 1626.85,1032.13 1630.58,1042.92 1634.29,1053.14 1638,1062.71 1641.69,1071.61 1645.38,1079.79 1649.07,1087.24 1652.75,1093.98 1656.43,1100 1660.1,1105.33 1663.78,1110 1667.45,1114.06 1671.13,1117.56 1674.8,1120.54 1678.49,1123.08 1682.17,1125.25 1685.86,1127.11 1689.55,1128.76 1693.25,1130.28 1696.95,1131.76 1700.66,1133.28 1704.37,1134.94 1708.08,1136.82 1711.8,1139 1715.52,1141.54 1719.24,1144.49 1722.96,1147.89 1726.68,1151.75 1730.4,1156.09 1734.11,1160.87 1737.82,1166.07 1741.53,1171.64 1745.23,1177.53 1748.92,1183.66 1752.6,1189.97 1756.28,1196.39 1759.95,1202.85 1763.61,1209.29 1767.27,1215.65 1770.92,1221.87 1774.56,1227.93 1778.2,1233.77 1781.84,1239.39 1785.47,1244.77 1789.1,1249.91 1792.72,1254.82 1796.34,1259.51 1799.96,1264.01 1803.59,1268.37 1807.2,1272.6 1810.82,1276.77 1814.44,1280.91 1818.06,1285.06 1821.68,1289.28 1825.3,1293.6 1828.91,1298.05 1832.52,1302.65 1836.13,1307.41 1839.74,1312.34 1843.34,1317.42 1846.94,1322.63 1850.53,1327.94 1854.12,1333.3 1857.7,1338.68 1861.27,1344.01 1864.84,1349.24 1868.4,1354.31 1871.95,1359.17 1875.5,1363.75 1879.04,1368.01 1882.58,1371.9 1886.11,1375.38 1889.64,1378.4 1893.17,1380.95 1896.69,1382.98 1900.21,1384.5 1903.72,1385.47 1907.24,1385.91 1910.76,1385.79 1914.27,1385.14 1917.79,1383.97 1921.31,1382.28 1924.83,1380.09 1928.36,1377.45 1931.89,1374.37 1935.42,1370.9 1938.96,1367.06 1942.5,1362.9 1946.05,1358.47 1949.6,1353.81 1953.16,1348.95 1956.72,1343.95 1960.28,1338.82 1963.85,1333.61 1967.43,1328.34 1971.01,1323.01 1974.59,1317.63 1978.17,1312.2 1981.75,1306.69 1985.34,1301.07 1988.92,1295.3 1992.51,1289.34 1996.1,1283.13 1999.69,1276.62 2003.28,1269.74 2006.87,1262.43 2010.46,1254.65 2014.06,1246.34 2017.66,1237.46 2021.27,1227.97 2024.88,1217.86 2028.49,1207.12 2032.12,1195.74 2035.75,1183.74 2039.39,1171.15 2043.05,1158.01 2046.71,1144.38 2050.4,1130.33 2054.09,1115.93 2057.8,1101.29 2061.53,1086.51 2065.27,1071.69 2069.03,1056.97 2072.8,1042.45 2076.59,1028.28 2080.4,1014.56 2084.22,1001.42 2088.05,988.961 2091.9,977.284 2095.76,966.463 2099.62,956.557 2103.5,947.603 2107.38,939.616 2111.26,932.585 2115.14,926.479 2119.03,921.246 2122.91,916.813 2126.8,913.095 2130.68,909.995 2134.55,907.409 2138.42,905.229 2142.29,903.349 2146.16,901.67 2150.02,900.1 2153.87,898.558 2157.73,896.98 2161.58,895.315 2165.44,893.533 2169.29,891.621 2173.15,889.589 2177.01,887.464 2180.87,885.294 2184.74,883.145 2188.62,881.1 2192.5,879.253 2196.4,877.71 2200.29,876.585 2204.2,875.989 2208.1,876.035 2212.02,876.826 2215.94,878.454 2219.86,880.996 2223.78,884.512 2227.7,889.042 2231.62,894.608 2235.53,901.208 2239.44,908.825 2243.34,917.423 2247.24,926.951 2251.12,937.344 2254.99,948.526 2258.85,960.415 2262.69,972.921 2266.53,985.949 2270.34,999.404 2274.15,1013.19 2277.94,1027.21 2281.71,1041.37 2285.47,1055.59 "/>
<polyline clip-path="url(#clip331)" style="stroke:#e26f46; stroke-linecap:round; stroke-linejoin:round; stroke-width:4; stroke-opacity:1; fill:none" points="325.084,1090.57 328.936,1103.07 332.788,1115.43 336.64,1127.61 340.492,1139.57 344.344,1151.28 348.196,1162.69 352.048,1173.79 355.9,1184.53 359.752,1194.89 363.604,1204.85 367.456,1214.38 371.308,1223.47 375.16,1232.1 379.012,1240.26 382.864,1247.93 386.716,1255.11 390.568,1261.79 394.421,1267.96 398.273,1273.62 402.125,1278.78 405.977,1283.43 409.829,1287.56 413.681,1291.18 417.533,1294.28 421.385,1296.86 425.237,1298.91 429.089,1300.42 432.941,1301.39 436.793,1301.8 440.645,1301.64 444.497,1300.91 448.349,1299.57 452.201,1297.64 456.053,1295.09 459.905,1291.91 463.757,1288.1 467.609,1283.65 471.461,1278.56 475.313,1272.82 479.165,1266.44 483.017,1259.43 486.869,1251.79 490.721,1243.54 494.573,1234.69 498.425,1225.26 502.277,1215.27 506.129,1204.74 509.981,1193.7 513.833,1182.16 517.685,1170.17 521.537,1157.74 525.389,1144.9 529.241,1131.68 533.093,1118.11 536.945,1104.2 540.797,1089.98 544.649,1075.47 548.501,1060.7 552.353,1045.68 556.205,1030.42 560.057,1014.94 563.909,999.248 567.761,983.353 571.613,967.262 575.465,950.978 579.317,934.506 583.169,917.845 587.021,900.996 590.873,883.957 594.725,866.725 598.577,849.296 602.429,831.666 606.281,813.829 610.133,795.779 613.985,777.51 617.837,759.016 621.689,740.292 625.541,721.335 629.393,702.142 633.245,682.717 637.097,663.065 640.949,643.195 644.801,623.122 648.653,602.868 652.505,582.457 656.357,561.923 660.209,541.302 664.061,520.638 667.913,499.978 671.765,479.375 675.617,458.887 679.469,438.576 683.321,418.507 687.173,398.751 691.025,379.38 694.877,360.472 698.729,342.104 702.581,324.359 706.433,307.314 710.285,291.05 714.137,275.64 717.989,261.151 721.841,247.642 725.693,235.159 729.545,223.733 733.397,213.383 737.249,204.109 741.101,195.893 744.953,188.703 748.805,182.493 752.657,177.203 756.509,172.763 760.361,169.098 764.213,166.126 768.066,163.766 771.918,161.938 775.77,160.565 779.622,159.574 783.474,158.9 787.326,158.485 791.178,158.278 795.03,158.24 798.882,158.34 802.734,158.559 806.586,158.889 810.438,159.334 814.29,159.91 818.142,160.647 821.994,161.583 825.846,162.767 829.698,164.256 833.55,166.112 837.402,168.401 841.254,171.185 845.106,174.527 848.958,178.481 852.81,183.094 856.662,188.402 860.514,194.432 864.366,201.196 868.218,208.695 872.07,216.917 875.922,225.837 879.774,235.419 883.626,245.617 887.478,256.376 891.33,267.632 895.182,279.317 899.034,291.357 902.886,303.678 906.738,316.203 910.59,328.859 914.442,341.574 918.294,354.285 922.146,366.932 925.998,379.463 929.85,391.838 933.702,404.021 937.554,415.988 941.406,427.722 945.258,439.216 949.11,450.466 952.962,461.477 956.814,472.256 960.666,482.813 964.518,493.161 968.37,503.313 972.222,513.279 976.074,523.072 979.926,532.7 983.778,542.171 987.63,551.49 991.482,560.662 995.334,569.691 999.186,578.581 1003.04,587.334 1006.89,595.956 1010.74,604.452 1014.59,612.83 1018.45,621.1 1022.3,629.273 1026.15,637.361 1030,645.378 1033.85,653.338 1037.71,661.255 1041.56,669.141 1045.41,677.006 1049.26,684.858 1053.11,692.7 1056.97,700.534 1060.82,708.355 1064.67,716.154 1068.52,723.918 1072.37,731.632 1076.23,739.273 1080.08,746.82 1083.93,754.245 1087.78,761.521 1091.63,768.619 1095.49,775.51 1099.34,782.165 1103.19,788.556 1107.04,794.656 1110.89,800.438 1114.75,805.881 1118.6,810.961 1122.45,815.659 1126.3,819.957 1130.15,823.84 1134.01,827.292 1137.86,830.302 1141.71,832.859 1145.56,834.952 1149.41,836.573 1153.27,837.714 1157.12,838.37 1160.97,838.536 1164.82,838.207 1168.67,837.382 1172.53,836.059 1176.38,834.24 1180.23,831.929 1184.08,829.131 1187.93,825.853 1191.79,822.108 1195.64,817.909 1199.49,813.274 1203.34,808.223 1207.19,802.78 1211.05,796.972 1214.9,790.831 1218.75,784.389 1222.6,777.684 1226.45,770.755 1230.31,763.64 1234.16,756.383 1238.01,749.026 1241.86,741.61 1245.71,734.176 1249.57,726.763 1253.42,719.406 1257.27,712.136 1261.12,704.98 1264.97,697.959 1268.83,691.087 1272.68,684.372 1276.53,677.815 1280.38,671.41 1284.23,665.144 1288.09,659 1291.94,652.955 1295.79,646.983 1299.64,641.058 1303.49,635.153 1307.35,629.244 1311.2,623.312 1315.05,617.343 1318.9,611.332 1322.75,605.284 1326.61,599.214 1330.46,593.147 1334.31,587.118 1338.16,581.174 1342.02,575.368 1345.87,569.76 1349.72,564.415 1353.57,559.4 1357.42,554.781 1361.28,550.619 1365.13,546.972 1368.98,543.888 1372.83,541.405 1376.68,539.552 1380.54,538.344 1384.39,537.785 1388.24,537.868 1392.09,538.576 1395.94,539.884 1399.8,541.76 1403.65,544.17 1407.5,547.08 1411.35,550.455 1415.2,554.267 1419.06,558.495 1422.91,563.125 1426.76,568.153 1430.61,573.584 1434.46,579.433 1438.32,585.72 1442.17,592.47 1446.02,599.714 1449.87,607.477 1453.72,615.783 1457.58,624.647 1461.43,634.073 1465.28,644.051 1469.13,654.557 1472.98,665.551 1476.84,676.975 1480.69,688.759 1484.54,700.818 1488.39,713.057 1492.24,725.375 1496.1,737.671 1499.95,749.842 1503.8,761.794 1507.65,773.442 1511.5,784.715 1515.36,795.556 1519.21,805.927 1523.06,815.807 1526.91,825.193 1530.76,834.099 1534.62,842.556 1538.47,850.606 1542.32,858.304 1546.17,865.713 1550.02,872.901 1553.88,879.939 1557.73,886.896 1561.58,893.843 1565.43,900.843 1569.28,907.954 1573.14,915.225 1576.99,922.699 1580.84,930.406 1584.69,938.366 1588.54,946.589 1592.4,955.071 1596.25,963.799 1600.1,972.744 1603.95,981.869 1607.8,991.123 1611.66,1000.45 1615.51,1009.77 1619.36,1019.01 1623.21,1028.08 1627.06,1036.91 1630.92,1045.39 1634.77,1053.45 1638.62,1061 1642.47,1067.98 1646.32,1074.34 1650.18,1080.03 1654.03,1085.04 1657.88,1089.38 1661.73,1093.06 1665.58,1096.15 1669.44,1098.7 1673.29,1100.81 1677.14,1102.58 1680.99,1104.13 1684.84,1105.57 1688.7,1107.03 1692.55,1108.62 1696.4,1110.46 1700.25,1112.66 1704.1,1115.29 1707.96,1118.42 1711.81,1122.1 1715.66,1126.35 1719.51,1131.19 1723.36,1136.6 1727.22,1142.54 1731.07,1148.97 1734.92,1155.82 1738.77,1163.02 1742.62,1170.48 1746.48,1178.12 1750.33,1185.86 1754.18,1193.6 1758.03,1201.28 1761.88,1208.82 1765.74,1216.16 1769.59,1223.26 1773.44,1230.09 1777.29,1236.61 1781.14,1242.84 1785,1248.76 1788.85,1254.41 1792.7,1259.8 1796.55,1264.98 1800.4,1269.98 1804.26,1274.84 1808.11,1279.6 1811.96,1284.32 1815.81,1289.03 1819.66,1293.76 1823.52,1298.54 1827.37,1303.4 1831.22,1308.35 1835.07,1313.39 1838.92,1318.53 1842.78,1323.73 1846.63,1328.99 1850.48,1334.28 1854.33,1339.55 1858.18,1344.76 1862.04,1349.87 1865.89,1354.81 1869.74,1359.52 1873.59,1363.95 1877.44,1368.04 1881.3,1371.73 1885.15,1374.96 1889,1377.69 1892.85,1379.86 1896.7,1381.46 1900.56,1382.44 1904.41,1382.8 1908.26,1382.54 1912.11,1381.65 1915.96,1380.16 1919.82,1378.09 1923.67,1375.48 1927.52,1372.36 1931.37,1368.79 1935.22,1364.82 1939.08,1360.49 1942.93,1355.87 1946.78,1350.99 1950.63,1345.9 1954.48,1340.65 1958.34,1335.26 1962.19,1329.76 1966.04,1324.16 1969.89,1318.48 1973.74,1312.72 1977.6,1306.86 1981.45,1300.9 1985.3,1294.82 1989.15,1288.59 1993,1282.18 1996.86,1275.55 2000.71,1268.67 2004.56,1261.48 2008.41,1253.94 2012.26,1246.01 2016.12,1237.63 2019.97,1228.78 2023.82,1219.39 2027.67,1209.45 2031.52,1198.94 2035.38,1187.83 2039.23,1176.14 2043.08,1163.88 2046.93,1151.1 2050.78,1137.85 2054.64,1124.2 2058.49,1110.25 2062.34,1096.1 2066.19,1081.86 2070.04,1067.68 2073.9,1053.67 2077.75,1039.95 2081.6,1026.66 2085.45,1013.9 2089.31,1001.76 2093.16,990.313 2097.01,979.606 2100.86,969.667 2104.71,960.501 2108.57,952.09 2112.42,944.394 2116.27,937.362 2120.12,930.928 2123.97,925.021 2127.83,919.566 2131.68,914.493 2135.53,909.738 2139.38,905.246 2143.23,900.976 2147.09,896.899 2150.94,893.004 2154.79,889.29 2158.64,885.771 2162.49,882.472 2166.35,879.426 2170.2,876.672 2174.05,874.256 2177.9,872.222 2181.75,870.617 2185.61,869.487 2189.46,868.874 2193.31,868.817 2197.16,869.352 2201.01,870.509 2204.87,872.315 2208.72,874.791 2212.57,877.953 2216.42,881.814 2220.27,886.379 2224.13,891.65 2227.98,897.622 2231.83,904.287 2235.68,911.63 2239.53,919.629 2243.39,928.258 2247.24,937.485 2251.09,947.273 2254.94,957.58 2258.79,968.361 2262.65,979.564 2266.5,991.138 2270.35,1003.03 2274.2,1015.18 2278.05,1027.54 2281.91,1040.05 2285.76,1052.66 2289.61,1065.32 2293.46,1077.97 "/>
<polyline clip-path="url(#clip331)" style="stroke:#3da44d; stroke-linecap:round; stroke-linejoin:round; stroke-width:4; stroke-opacity:1; fill:none" points="325.084,1100.44 328.936,1114.67 332.788,1128.59 336.64,1142.16 340.492,1155.33 344.344,1168.05 348.196,1180.28 352.048,1191.99 355.9,1203.16 359.752,1213.76 363.604,1223.77 367.456,1233.17 371.308,1241.96 375.16,1250.12 379.012,1257.64 382.864,1264.52 386.716,1270.77 390.568,1276.36 394.421,1281.32 398.273,1285.63 402.125,1289.3 405.977,1292.34 409.829,1294.75 413.681,1296.52 417.533,1297.68 421.385,1298.22 425.237,1298.15 429.089,1297.47 432.941,1296.2 436.793,1294.34 440.645,1291.91 444.497,1288.91 448.349,1285.35 452.201,1281.25 456.053,1276.62 459.905,1271.47 463.757,1265.83 467.609,1259.7 471.461,1253.12 475.313,1246.09 479.165,1238.64 483.017,1230.8 486.869,1222.59 490.721,1214.02 494.573,1205.14 498.425,1195.96 502.277,1186.52 506.129,1176.84 509.981,1166.95 513.833,1156.87 517.685,1146.65 521.537,1136.29 525.389,1125.82 529.241,1115.26 533.093,1104.62 536.945,1093.91 540.797,1083.12 544.649,1072.25 548.501,1061.3 552.353,1050.24 556.205,1039.05 560.057,1027.71 563.909,1016.18 567.761,1004.43 571.613,992.41 575.465,980.092 579.317,967.427 583.169,954.37 587.021,940.875 590.873,926.893 594.725,912.377 598.577,897.279 602.429,881.55 606.281,865.143 610.133,848.015 613.985,830.12 617.837,811.42 621.689,791.88 625.541,771.467 629.393,750.157 633.245,727.934 637.097,704.788 640.949,680.722 644.801,655.749 648.653,629.896 652.505,603.209 656.357,575.749 660.209,547.599 664.061,518.868 667.913,489.689 671.765,460.228 675.617,430.681 679.469,401.28 683.321,372.294 687.173,344.022 691.025,316.796 694.877,290.965 698.729,266.88 702.581,244.877 706.433,225.251 710.285,208.232 714.137,193.971 717.989,182.526 721.841,173.866 725.693,167.874 729.545,164.365 733.397,163.101 737.249,163.806 741.101,166.184 744.953,169.931 748.805,174.745 752.657,180.336 756.509,186.43 760.361,192.773 764.213,199.136 768.066,205.314 771.918,211.125 775.77,216.415 779.622,221.049 783.474,224.919 787.326,227.936 791.178,230.031 795.03,231.156 798.882,231.282 802.734,230.4 806.586,228.517 810.438,225.662 814.29,221.881 818.142,217.241 821.994,211.827 825.846,205.745 829.698,199.119 833.55,192.095 837.402,184.837 841.254,177.528 845.106,170.369 848.958,163.576 852.81,157.38 856.662,152.024 860.514,147.755 864.366,144.821 868.218,143.465 872.07,143.912 875.922,146.358 879.774,150.96 883.626,157.82 887.478,166.981 891.33,178.411 895.182,192.011 899.034,207.613 902.886,224.992 906.738,243.884 910.59,263.996 914.442,285.03 918.294,306.691 922.146,328.702 925.998,350.811 929.85,372.795 933.702,394.46 937.554,415.641 941.406,436.204 945.258,456.037 949.11,475.055 952.962,493.189 956.814,510.392 960.666,526.63 964.518,541.885 968.37,556.15 972.222,569.428 976.074,581.732 979.926,593.085 983.778,603.515 987.63,613.057 991.482,621.753 995.334,629.648 999.186,636.795 1003.04,643.247 1006.89,649.064 1010.74,654.306 1014.59,659.037 1018.45,663.323 1022.3,667.23 1026.15,670.826 1030,674.178 1033.85,677.351 1037.71,680.412 1041.56,683.423 1045.41,686.443 1049.26,689.529 1053.11,692.733 1056.97,696.101 1060.82,699.675 1064.67,703.491 1068.52,707.578 1072.37,711.957 1076.23,716.645 1080.08,721.648 1083.93,726.966 1087.78,732.59 1091.63,738.504 1095.49,744.68 1099.34,751.084 1103.19,757.674 1107.04,764.397 1110.89,771.195 1114.75,778.005 1118.6,784.756 1122.45,791.376 1126.3,797.791 1130.15,803.925 1134.01,809.708 1137.86,815.068 1141.71,819.942 1145.56,824.271 1149.41,828.003 1153.27,831.094 1157.12,833.508 1160.97,835.219 1164.82,836.209 1168.67,836.471 1172.53,836.005 1176.38,834.823 1180.23,832.946 1184.08,830.403 1187.93,827.233 1191.79,823.481 1195.64,819.201 1199.49,814.451 1203.34,809.291 1207.19,803.785 1211.05,797.997 1214.9,791.986 1218.75,785.807 1222.6,779.512 1226.45,773.141 1230.31,766.729 1234.16,760.302 1238.01,753.875 1241.86,747.459 1245.71,741.056 1249.57,734.665 1253.42,728.278 1257.27,721.887 1261.12,715.48 1264.97,709.048 1268.83,702.58 1272.68,696.07 1276.53,689.512 1280.38,682.905 1284.23,676.254 1288.09,669.563 1291.94,662.844 1295.79,656.113 1299.64,649.386 1303.49,642.684 1307.35,636.03 1311.2,629.444 1315.05,622.948 1318.9,616.561 1322.75,610.297 1326.61,604.166 1330.46,598.175 1334.31,592.324 1338.16,586.611 1342.02,581.027 1345.87,575.565 1349.72,570.216 1353.57,564.973 1357.42,559.835 1361.28,554.809 1365.13,549.909 1368.98,545.163 1372.83,540.613 1376.68,536.318 1380.54,532.35 1384.39,528.803 1388.24,525.783 1392.09,523.41 1395.94,521.812 1399.8,521.123 1403.65,521.467 1407.5,522.961 1411.35,525.698 1415.2,529.741 1419.06,535.121 1422.91,541.827 1426.76,549.811 1430.61,558.987 1434.46,569.236 1438.32,580.413 1442.17,592.358 1446.02,604.901 1449.87,617.872 1453.72,631.104 1457.58,644.445 1461.43,657.756 1465.28,670.912 1469.13,683.811 1472.98,696.365 1476.84,708.503 1480.69,720.172 1484.54,731.333 1488.39,741.96 1492.24,752.039 1496.1,761.568 1499.95,770.551 1503.8,779.001 1507.65,786.937 1511.5,794.385 1515.36,801.371 1519.21,807.93 1523.06,814.099 1526.91,819.918 1530.76,825.434 1534.62,830.702 1538.47,835.783 1542.32,840.745 1546.17,845.664 1550.02,850.626 1553.88,855.716 1557.73,861.024 1561.58,866.635 1565.43,872.629 1569.28,879.075 1573.14,886.029 1576.99,893.531 1580.84,901.605 1584.69,910.26 1588.54,919.484 1592.4,929.249 1596.25,939.51 1600.1,950.204 1603.95,961.254 1607.8,972.567 1611.66,984.039 1615.51,995.558 1619.36,1007.01 1623.21,1018.28 1627.06,1029.26 1630.92,1039.85 1634.77,1049.97 1638.62,1059.55 1642.47,1068.54 1646.32,1076.91 1650.18,1084.64 1654.03,1091.74 1657.88,1098.23 1661.73,1104.12 1665.58,1109.46 1669.44,1114.28 1673.29,1118.65 1677.14,1122.59 1680.99,1126.18 1684.84,1129.45 1688.7,1132.45 1692.55,1135.23 1696.4,1137.84 1700.25,1140.33 1704.1,1142.73 1707.96,1145.1 1711.81,1147.49 1715.66,1149.94 1719.51,1152.5 1723.36,1155.24 1727.22,1158.19 1731.07,1161.42 1734.92,1164.98 1738.77,1168.88 1742.62,1173.18 1746.48,1177.88 1750.33,1182.99 1754.18,1188.47 1758.03,1194.3 1761.88,1200.42 1765.74,1206.77 1769.59,1213.27 1773.44,1219.85 1777.29,1226.42 1781.14,1232.93 1785,1239.32 1788.85,1245.55 1792.7,1251.6 1796.55,1257.45 1800.4,1263.11 1804.26,1268.59 1808.11,1273.92 1811.96,1279.11 1815.81,1284.2 1819.66,1289.22 1823.52,1294.21 1827.37,1299.19 1831.22,1304.18 1835.07,1309.21 1838.92,1314.28 1842.78,1319.41 1846.63,1324.58 1850.48,1329.79 1854.33,1335.02 1858.18,1340.23 1862.04,1345.39 1865.89,1350.45 1869.74,1355.36 1873.59,1360.06 1877.44,1364.48 1881.3,1368.58 1885.15,1372.29 1889,1375.56 1892.85,1378.33 1896.7,1380.57 1900.56,1382.25 1904.41,1383.33 1908.26,1383.8 1912.11,1383.67 1915.96,1382.94 1919.82,1381.61 1923.67,1379.73 1927.52,1377.32 1931.37,1374.43 1935.22,1371.09 1939.08,1367.36 1942.93,1363.29 1946.78,1358.92 1950.63,1354.3 1954.48,1349.46 1958.34,1344.44 1962.19,1339.25 1966.04,1333.9 1969.89,1328.41 1973.74,1322.75 1977.6,1316.9 1981.45,1310.85 1985.3,1304.56 1989.15,1297.98 1993,1291.07 1996.86,1283.78 2000.71,1276.07 2004.56,1267.88 2008.41,1259.18 2012.26,1249.91 2016.12,1240.04 2019.97,1229.56 2023.82,1218.45 2027.67,1206.71 2031.52,1194.37 2035.38,1181.46 2039.23,1168.02 2043.08,1154.13 2046.93,1139.86 2050.78,1125.31 2054.64,1110.58 2058.49,1095.77 2062.34,1081 2066.19,1066.37 2070.04,1051.99 2073.9,1037.96 2077.75,1024.37 2081.6,1011.3 2085.45,998.831 2089.31,987.02 2093.16,975.923 2097.01,965.585 2100.86,956.039 2104.71,947.308 2108.57,939.401 2112.42,932.319 2116.27,926.048 2120.12,920.56 2123.97,915.817 2127.83,911.766 2131.68,908.341 2135.53,905.468 2139.38,903.065 2143.23,901.042 2147.09,899.312 2150.94,897.787 2154.79,896.385 2158.64,895.036 2162.49,893.681 2166.35,892.276 2170.2,890.795 2174.05,889.228 2177.9,887.584 2181.75,885.889 2185.61,884.188 2189.46,882.538 2193.31,881.015 2197.16,879.702 2201.01,878.695 2204.87,878.098 2208.72,878.018 2212.57,878.562 2216.42,879.837 2220.27,881.942 2224.13,884.966 2227.98,888.981 2231.83,894.041 2235.68,900.181 2239.53,907.41 2243.39,915.712 2247.24,925.05 2251.09,935.366 2254.94,946.582 2258.79,958.608 2262.65,971.343 2266.5,984.679 2270.35,998.508 2274.2,1012.72 2278.05,1027.21 2281.91,1041.87 2285.76,1056.61 2289.61,1071.34 2293.46,1085.98 "/>
<path clip-path="url(#clip330)" d="M1703.07 357.452 L2282.92 357.452 L2282.92 150.092 L1703.07 150.092  Z" fill="#ffffff" fill-rule="evenodd" fill-opacity="1"/>
<polyline clip-path="url(#clip330)" style="stroke:#000000; stroke-linecap:round; stroke-linejoin:round; stroke-width:4; stroke-opacity:1; fill:none" points="1703.07,357.452 2282.92,357.452 2282.92,150.092 1703.07,150.092 1703.07,357.452 "/>
<polyline clip-path="url(#clip330)" style="stroke:#009af9; stroke-linecap:round; stroke-linejoin:round; stroke-width:4; stroke-opacity:1; fill:none" points="1726.35,201.932 1866.02,201.932 "/>
<path clip-path="url(#clip330)" d="M1889.3 193.286 L1893.56 193.286 L1898.88 213.517 L1904.18 193.286 L1909.2 193.286 L1914.53 213.517 L1919.83 193.286 L1924.09 193.286 L1917.31 219.212 L1912.28 219.212 L1906.7 197.962 L1901.1 219.212 L1896.08 219.212 L1889.3 193.286 Z" fill="#000000" fill-rule="nonzero" fill-opacity="1" /><path clip-path="url(#clip330)" d="M1942.33 206.179 Q1937.17 206.179 1935.18 207.36 Q1933.19 208.54 1933.19 211.388 Q1933.19 213.656 1934.67 214.999 Q1936.17 216.318 1938.74 216.318 Q1942.28 216.318 1944.41 213.818 Q1946.56 211.295 1946.56 207.128 L1946.56 206.179 L1942.33 206.179 M1950.82 204.42 L1950.82 219.212 L1946.56 219.212 L1946.56 215.277 Q1945.11 217.638 1942.93 218.772 Q1940.75 219.883 1937.61 219.883 Q1933.63 219.883 1931.26 217.661 Q1928.93 215.415 1928.93 211.665 Q1928.93 207.29 1931.84 205.068 Q1934.78 202.846 1940.59 202.846 L1946.56 202.846 L1946.56 202.429 Q1946.56 199.49 1944.62 197.892 Q1942.7 196.272 1939.2 196.272 Q1936.98 196.272 1934.88 196.804 Q1932.77 197.337 1930.82 198.402 L1930.82 194.466 Q1933.16 193.564 1935.36 193.124 Q1937.56 192.661 1939.64 192.661 Q1945.27 192.661 1948.05 195.578 Q1950.82 198.494 1950.82 204.42 Z" fill="#000000" fill-rule="nonzero" fill-opacity="1" /><path clip-path="url(#clip330)" d="M1963.81 185.925 L1963.81 193.286 L1972.58 193.286 L1972.58 196.596 L1963.81 196.596 L1963.81 210.67 Q1963.81 213.841 1964.67 214.744 Q1965.55 215.647 1968.21 215.647 L1972.58 215.647 L1972.58 219.212 L1968.21 219.212 Q1963.28 219.212 1961.4 217.383 Q1959.53 215.531 1959.53 210.67 L1959.53 196.596 L1956.4 196.596 L1956.4 193.286 L1959.53 193.286 L1959.53 185.925 L1963.81 185.925 Z" fill="#000000" fill-rule="nonzero" fill-opacity="1" /><path clip-path="url(#clip330)" d="M2000.36 205.184 L2000.36 207.267 L1980.78 207.267 Q1981.06 211.665 1983.42 213.98 Q1985.8 216.272 1990.04 216.272 Q1992.49 216.272 1994.78 215.67 Q1997.1 215.068 1999.37 213.865 L1999.37 217.892 Q1997.07 218.864 1994.67 219.374 Q1992.26 219.883 1989.78 219.883 Q1983.58 219.883 1979.94 216.272 Q1976.33 212.661 1976.33 206.503 Q1976.33 200.138 1979.76 196.411 Q1983.21 192.661 1989.04 192.661 Q1994.27 192.661 1997.31 196.041 Q2000.36 199.397 2000.36 205.184 M1996.1 203.934 Q1996.06 200.439 1994.13 198.355 Q1992.24 196.272 1989.09 196.272 Q1985.52 196.272 1983.37 198.286 Q1981.24 200.3 1980.92 203.957 L1996.1 203.934 Z" fill="#000000" fill-rule="nonzero" fill-opacity="1" /><path clip-path="url(#clip330)" d="M2022.37 197.267 Q2021.66 196.851 2020.8 196.666 Q2019.97 196.457 2018.95 196.457 Q2015.34 196.457 2013.39 198.818 Q2011.47 201.156 2011.47 205.554 L2011.47 219.212 L2007.19 219.212 L2007.19 193.286 L2011.47 193.286 L2011.47 197.314 Q2012.81 194.953 2014.97 193.818 Q2017.12 192.661 2020.2 192.661 Q2020.64 192.661 2021.17 192.73 Q2021.7 192.777 2022.35 192.892 L2022.37 197.267 Z" fill="#000000" fill-rule="nonzero" fill-opacity="1" /><path clip-path="url(#clip330)" d="M2039.43 193.286 L2043.69 193.286 L2049.02 213.517 L2054.32 193.286 L2059.34 193.286 L2064.67 213.517 L2069.97 193.286 L2074.23 193.286 L2067.44 219.212 L2062.42 219.212 L2056.84 197.962 L2051.24 219.212 L2046.22 219.212 L2039.43 193.286 Z" fill="#000000" fill-rule="nonzero" fill-opacity="1" /><path clip-path="url(#clip330)" d="M2092.47 206.179 Q2087.3 206.179 2085.31 207.36 Q2083.32 208.54 2083.32 211.388 Q2083.32 213.656 2084.8 214.999 Q2086.31 216.318 2088.88 216.318 Q2092.42 216.318 2094.55 213.818 Q2096.7 211.295 2096.7 207.128 L2096.7 206.179 L2092.47 206.179 M2100.96 204.42 L2100.96 219.212 L2096.7 219.212 L2096.7 215.277 Q2095.24 217.638 2093.07 218.772 Q2090.89 219.883 2087.74 219.883 Q2083.76 219.883 2081.4 217.661 Q2079.06 215.415 2079.06 211.665 Q2079.06 207.29 2081.98 205.068 Q2084.92 202.846 2090.73 202.846 L2096.7 202.846 L2096.7 202.429 Q2096.7 199.49 2094.76 197.892 Q2092.84 196.272 2089.34 196.272 Q2087.12 196.272 2085.01 196.804 Q2082.91 197.337 2080.96 198.402 L2080.96 194.466 Q2083.3 193.564 2085.5 193.124 Q2087.7 192.661 2089.78 192.661 Q2095.41 192.661 2098.18 195.578 Q2100.96 198.494 2100.96 204.42 Z" fill="#000000" fill-rule="nonzero" fill-opacity="1" /><path clip-path="url(#clip330)" d="M2106.68 193.286 L2111.19 193.286 L2119.3 215.045 L2127.4 193.286 L2131.91 193.286 L2122.19 219.212 L2116.4 219.212 L2106.68 193.286 Z" fill="#000000" fill-rule="nonzero" fill-opacity="1" /><path clip-path="url(#clip330)" d="M2159.97 205.184 L2159.97 207.267 L2140.38 207.267 Q2140.66 211.665 2143.02 213.98 Q2145.41 216.272 2149.64 216.272 Q2152.1 216.272 2154.39 215.67 Q2156.7 215.068 2158.97 213.865 L2158.97 217.892 Q2156.68 218.864 2154.27 219.374 Q2151.86 219.883 2149.39 219.883 Q2143.18 219.883 2139.55 216.272 Q2135.94 212.661 2135.94 206.503 Q2135.94 200.138 2139.36 196.411 Q2142.81 192.661 2148.65 192.661 Q2153.88 192.661 2156.91 196.041 Q2159.97 199.397 2159.97 205.184 M2155.71 203.934 Q2155.66 200.439 2153.74 198.355 Q2151.84 196.272 2148.69 196.272 Q2145.13 196.272 2142.98 198.286 Q2140.85 200.3 2140.52 203.957 L2155.71 203.934 Z" fill="#000000" fill-rule="nonzero" fill-opacity="1" /><path clip-path="url(#clip330)" d="M2183.48 194.05 L2183.48 198.078 Q2181.68 197.152 2179.73 196.689 Q2177.79 196.226 2175.71 196.226 Q2172.54 196.226 2170.94 197.198 Q2169.36 198.17 2169.36 200.115 Q2169.36 201.596 2170.5 202.453 Q2171.63 203.286 2175.06 204.05 L2176.52 204.374 Q2181.05 205.346 2182.95 207.128 Q2184.87 208.888 2184.87 212.059 Q2184.87 215.67 2182 217.777 Q2179.16 219.883 2174.16 219.883 Q2172.07 219.883 2169.8 219.466 Q2167.56 219.073 2165.06 218.263 L2165.06 213.865 Q2167.42 215.091 2169.71 215.716 Q2172 216.318 2174.25 216.318 Q2177.26 216.318 2178.88 215.3 Q2180.5 214.258 2180.5 212.383 Q2180.5 210.647 2179.32 209.721 Q2178.16 208.795 2174.2 207.939 L2172.72 207.591 Q2168.76 206.758 2167 205.045 Q2165.24 203.309 2165.24 200.3 Q2165.24 196.642 2167.84 194.652 Q2170.43 192.661 2175.2 192.661 Q2177.56 192.661 2179.64 193.008 Q2181.73 193.355 2183.48 194.05 Z" fill="#000000" fill-rule="nonzero" fill-opacity="1" /><polyline clip-path="url(#clip330)" style="stroke:#e26f46; stroke-linecap:round; stroke-linejoin:round; stroke-width:4; stroke-opacity:1; fill:none" points="1726.35,253.772 1866.02,253.772 "/>
<path clip-path="url(#clip330)" d="M1914.85 266.121 L1914.85 256.839 L1907.21 256.839 L1907.21 252.996 L1919.48 252.996 L1919.48 267.834 Q1916.77 269.755 1913.51 270.751 Q1910.25 271.723 1906.54 271.723 Q1898.44 271.723 1893.86 267.001 Q1889.3 262.255 1889.3 253.806 Q1889.3 245.334 1893.86 240.612 Q1898.44 235.867 1906.54 235.867 Q1909.92 235.867 1912.95 236.7 Q1916.01 237.533 1918.58 239.154 L1918.58 244.131 Q1915.99 241.932 1913.07 240.82 Q1910.15 239.709 1906.94 239.709 Q1900.59 239.709 1897.4 243.251 Q1894.23 246.793 1894.23 253.806 Q1894.23 260.797 1897.4 264.339 Q1900.59 267.88 1906.94 267.88 Q1909.41 267.88 1911.36 267.464 Q1913.3 267.024 1914.85 266.121 Z" fill="#000000" fill-rule="nonzero" fill-opacity="1" /><path clip-path="url(#clip330)" d="M1942.86 249.107 Q1942.14 248.691 1941.29 248.506 Q1940.45 248.297 1939.44 248.297 Q1935.82 248.297 1933.88 250.658 Q1931.96 252.996 1931.96 257.394 L1931.96 271.052 L1927.68 271.052 L1927.68 245.126 L1931.96 245.126 L1931.96 249.154 Q1933.3 246.793 1935.45 245.658 Q1937.61 244.501 1940.69 244.501 Q1941.13 244.501 1941.66 244.57 Q1942.19 244.617 1942.84 244.732 L1942.86 249.107 Z" fill="#000000" fill-rule="nonzero" fill-opacity="1" /><path clip-path="url(#clip330)" d="M1968.46 257.024 L1968.46 259.107 L1948.88 259.107 Q1949.16 263.505 1951.52 265.82 Q1953.9 268.112 1958.14 268.112 Q1960.59 268.112 1962.88 267.51 Q1965.2 266.908 1967.47 265.705 L1967.47 269.732 Q1965.18 270.704 1962.77 271.214 Q1960.36 271.723 1957.88 271.723 Q1951.68 271.723 1948.05 268.112 Q1944.44 264.501 1944.44 258.343 Q1944.44 251.978 1947.86 248.251 Q1951.31 244.501 1957.14 244.501 Q1962.37 244.501 1965.41 247.881 Q1968.46 251.237 1968.46 257.024 M1964.2 255.774 Q1964.16 252.279 1962.24 250.195 Q1960.34 248.112 1957.19 248.112 Q1953.62 248.112 1951.47 250.126 Q1949.34 252.14 1949.02 255.797 L1964.2 255.774 Z" fill="#000000" fill-rule="nonzero" fill-opacity="1" /><path clip-path="url(#clip330)" d="M1997.63 257.024 L1997.63 259.107 L1978.05 259.107 Q1978.32 263.505 1980.69 265.82 Q1983.07 268.112 1987.31 268.112 Q1989.76 268.112 1992.05 267.51 Q1994.37 266.908 1996.63 265.705 L1996.63 269.732 Q1994.34 270.704 1991.93 271.214 Q1989.53 271.723 1987.05 271.723 Q1980.85 271.723 1977.21 268.112 Q1973.6 264.501 1973.6 258.343 Q1973.6 251.978 1977.03 248.251 Q1980.48 244.501 1986.31 244.501 Q1991.54 244.501 1994.57 247.881 Q1997.63 251.237 1997.63 257.024 M1993.37 255.774 Q1993.32 252.279 1991.4 250.195 Q1989.5 248.112 1986.36 248.112 Q1982.79 248.112 1980.64 250.126 Q1978.51 252.14 1978.19 255.797 L1993.37 255.774 Z" fill="#000000" fill-rule="nonzero" fill-opacity="1" /><path clip-path="url(#clip330)" d="M2026.17 255.404 L2026.17 271.052 L2021.91 271.052 L2021.91 255.543 Q2021.91 251.862 2020.48 250.033 Q2019.04 248.205 2016.17 248.205 Q2012.72 248.205 2010.73 250.404 Q2008.74 252.603 2008.74 256.399 L2008.74 271.052 L2004.46 271.052 L2004.46 245.126 L2008.74 245.126 L2008.74 249.154 Q2010.27 246.816 2012.33 245.658 Q2014.41 244.501 2017.12 244.501 Q2021.59 244.501 2023.88 247.279 Q2026.17 250.033 2026.17 255.404 Z" fill="#000000" fill-rule="nonzero" fill-opacity="1" /><path clip-path="url(#clip330)" d="M2032.51 256.168 L2044.99 256.168 L2044.99 259.964 L2032.51 259.964 L2032.51 256.168 Z" fill="#000000" fill-rule="nonzero" fill-opacity="1" /><path clip-path="url(#clip330)" d="M2051.96 236.492 L2058.25 236.492 L2073.58 265.404 L2073.58 236.492 L2078.12 236.492 L2078.12 271.052 L2071.82 271.052 L2056.49 242.14 L2056.49 271.052 L2051.96 271.052 L2051.96 236.492 Z" fill="#000000" fill-rule="nonzero" fill-opacity="1" /><path clip-path="url(#clip330)" d="M2099.02 258.019 Q2093.86 258.019 2091.86 259.2 Q2089.87 260.38 2089.87 263.228 Q2089.87 265.496 2091.36 266.839 Q2092.86 268.158 2095.43 268.158 Q2098.97 268.158 2101.1 265.658 Q2103.25 263.135 2103.25 258.968 L2103.25 258.019 L2099.02 258.019 M2107.51 256.26 L2107.51 271.052 L2103.25 271.052 L2103.25 267.117 Q2101.8 269.478 2099.62 270.612 Q2097.44 271.723 2094.3 271.723 Q2090.31 271.723 2087.95 269.501 Q2085.62 267.255 2085.62 263.505 Q2085.62 259.13 2088.53 256.908 Q2091.47 254.686 2097.28 254.686 L2103.25 254.686 L2103.25 254.269 Q2103.25 251.33 2101.31 249.732 Q2099.39 248.112 2095.89 248.112 Q2093.67 248.112 2091.56 248.644 Q2089.46 249.177 2087.51 250.242 L2087.51 246.306 Q2089.85 245.404 2092.05 244.964 Q2094.25 244.501 2096.33 244.501 Q2101.96 244.501 2104.74 247.418 Q2107.51 250.334 2107.51 256.26 Z" fill="#000000" fill-rule="nonzero" fill-opacity="1" /><path clip-path="url(#clip330)" d="M2133.35 257.788 Q2133.35 253.158 2131.42 250.612 Q2129.53 248.066 2126.08 248.066 Q2122.65 248.066 2120.73 250.612 Q2118.83 253.158 2118.83 257.788 Q2118.83 262.394 2120.73 264.941 Q2122.65 267.487 2126.08 267.487 Q2129.53 267.487 2131.42 264.941 Q2133.35 262.394 2133.35 257.788 M2137.61 267.834 Q2137.61 274.454 2134.67 277.672 Q2131.73 280.913 2125.66 280.913 Q2123.42 280.913 2121.43 280.566 Q2119.43 280.241 2117.56 279.547 L2117.56 275.404 Q2119.43 276.422 2121.26 276.908 Q2123.09 277.394 2124.99 277.394 Q2129.18 277.394 2131.26 275.195 Q2133.35 273.019 2133.35 268.598 L2133.35 266.492 Q2132.03 268.783 2129.97 269.917 Q2127.91 271.052 2125.04 271.052 Q2120.27 271.052 2117.35 267.417 Q2114.43 263.783 2114.43 257.788 Q2114.43 251.769 2117.35 248.135 Q2120.27 244.501 2125.04 244.501 Q2127.91 244.501 2129.97 245.635 Q2132.03 246.769 2133.35 249.061 L2133.35 245.126 L2137.61 245.126 L2137.61 267.834 Z" fill="#000000" fill-rule="nonzero" fill-opacity="1" /><path clip-path="url(#clip330)" d="M2167.93 255.404 L2167.93 271.052 L2163.67 271.052 L2163.67 255.543 Q2163.67 251.862 2162.23 250.033 Q2160.8 248.205 2157.93 248.205 Q2154.48 248.205 2152.49 250.404 Q2150.5 252.603 2150.5 256.399 L2150.5 271.052 L2146.22 271.052 L2146.22 235.033 L2150.5 235.033 L2150.5 249.154 Q2152.03 246.816 2154.09 245.658 Q2156.17 244.501 2158.88 244.501 Q2163.35 244.501 2165.64 247.279 Q2167.93 250.033 2167.93 255.404 Z" fill="#000000" fill-rule="nonzero" fill-opacity="1" /><path clip-path="url(#clip330)" d="M2193.48 249.061 L2193.48 235.033 L2197.74 235.033 L2197.74 271.052 L2193.48 271.052 L2193.48 267.163 Q2192.14 269.478 2190.08 270.612 Q2188.05 271.723 2185.17 271.723 Q2180.48 271.723 2177.51 267.973 Q2174.57 264.223 2174.57 258.112 Q2174.57 252.001 2177.51 248.251 Q2180.48 244.501 2185.17 244.501 Q2188.05 244.501 2190.08 245.635 Q2192.14 246.746 2193.48 249.061 M2178.97 258.112 Q2178.97 262.811 2180.89 265.496 Q2182.84 268.158 2186.22 268.158 Q2189.6 268.158 2191.54 265.496 Q2193.48 262.811 2193.48 258.112 Q2193.48 253.413 2191.54 250.751 Q2189.6 248.066 2186.22 248.066 Q2182.84 248.066 2180.89 250.751 Q2178.97 253.413 2178.97 258.112 Z" fill="#000000" fill-rule="nonzero" fill-opacity="1" /><path clip-path="url(#clip330)" d="M2206.52 245.126 L2210.78 245.126 L2210.78 271.052 L2206.52 271.052 L2206.52 245.126 M2206.52 235.033 L2210.78 235.033 L2210.78 240.427 L2206.52 240.427 L2206.52 235.033 Z" fill="#000000" fill-rule="nonzero" fill-opacity="1" /><polyline clip-path="url(#clip330)" style="stroke:#3da44d; stroke-linecap:round; stroke-linejoin:round; stroke-width:4; stroke-opacity:1; fill:none" points="1726.35,305.612 1866.02,305.612 "/>
<path clip-path="url(#clip330)" d="M1889.3 288.332 L1893.97 288.332 L1893.97 322.892 L1889.3 322.892 L1889.3 288.332 Z" fill="#000000" fill-rule="nonzero" fill-opacity="1" /><path clip-path="url(#clip330)" d="M1919.62 297.73 L1919.62 301.758 Q1917.81 300.832 1915.87 300.369 Q1913.93 299.906 1911.84 299.906 Q1908.67 299.906 1907.07 300.878 Q1905.5 301.85 1905.5 303.795 Q1905.5 305.276 1906.63 306.133 Q1907.77 306.966 1911.19 307.73 L1912.65 308.054 Q1917.19 309.026 1919.09 310.808 Q1921.01 312.568 1921.01 315.739 Q1921.01 319.35 1918.14 321.457 Q1915.29 323.563 1910.29 323.563 Q1908.21 323.563 1905.94 323.146 Q1903.69 322.753 1901.19 321.943 L1901.19 317.545 Q1903.56 318.771 1905.85 319.396 Q1908.14 319.998 1910.38 319.998 Q1913.39 319.998 1915.01 318.98 Q1916.63 317.938 1916.63 316.063 Q1916.63 314.327 1915.45 313.401 Q1914.3 312.475 1910.34 311.619 L1908.86 311.271 Q1904.9 310.438 1903.14 308.725 Q1901.38 306.989 1901.38 303.98 Q1901.38 300.322 1903.97 298.332 Q1906.57 296.341 1911.33 296.341 Q1913.69 296.341 1915.78 296.688 Q1917.86 297.035 1919.62 297.73 Z" fill="#000000" fill-rule="nonzero" fill-opacity="1" /><path clip-path="url(#clip330)" d="M1937.84 299.952 Q1934.41 299.952 1932.42 302.637 Q1930.43 305.299 1930.43 309.952 Q1930.43 314.605 1932.4 317.29 Q1934.39 319.952 1937.84 319.952 Q1941.24 319.952 1943.23 317.267 Q1945.22 314.582 1945.22 309.952 Q1945.22 305.346 1943.23 302.66 Q1941.24 299.952 1937.84 299.952 M1937.84 296.341 Q1943.39 296.341 1946.56 299.952 Q1949.74 303.563 1949.74 309.952 Q1949.74 316.318 1946.56 319.952 Q1943.39 323.563 1937.84 323.563 Q1932.26 323.563 1929.09 319.952 Q1925.94 316.318 1925.94 309.952 Q1925.94 303.563 1929.09 299.952 Q1932.26 296.341 1937.84 296.341 Z" fill="#000000" fill-rule="nonzero" fill-opacity="1" /><path clip-path="url(#clip330)" d="M1975.41 309.952 Q1975.41 305.253 1973.46 302.591 Q1971.54 299.906 1968.16 299.906 Q1964.78 299.906 1962.84 302.591 Q1960.92 305.253 1960.92 309.952 Q1960.92 314.651 1962.84 317.336 Q1964.78 319.998 1968.16 319.998 Q1971.54 319.998 1973.46 317.336 Q1975.41 314.651 1975.41 309.952 M1960.92 300.901 Q1962.26 298.586 1964.3 297.475 Q1966.36 296.341 1969.2 296.341 Q1973.93 296.341 1976.87 300.091 Q1979.83 303.841 1979.83 309.952 Q1979.83 316.063 1976.87 319.813 Q1973.93 323.563 1969.2 323.563 Q1966.36 323.563 1964.3 322.452 Q1962.26 321.318 1960.92 319.003 L1960.92 322.892 L1956.63 322.892 L1956.63 286.873 L1960.92 286.873 L1960.92 300.901 Z" fill="#000000" fill-rule="nonzero" fill-opacity="1" /><path clip-path="url(#clip330)" d="M2009.06 308.864 L2009.06 310.947 L1989.48 310.947 Q1989.76 315.345 1992.12 317.66 Q1994.5 319.952 1998.74 319.952 Q2001.19 319.952 2003.49 319.35 Q2005.8 318.748 2008.07 317.545 L2008.07 321.572 Q2005.78 322.544 2003.37 323.054 Q2000.96 323.563 1998.49 323.563 Q1992.28 323.563 1988.65 319.952 Q1985.04 316.341 1985.04 310.183 Q1985.04 303.818 1988.46 300.091 Q1991.91 296.341 1997.75 296.341 Q2002.98 296.341 2006.01 299.721 Q2009.06 303.077 2009.06 308.864 M2004.81 307.614 Q2004.76 304.119 2002.84 302.035 Q2000.94 299.952 1997.79 299.952 Q1994.23 299.952 1992.07 301.966 Q1989.94 303.98 1989.62 307.637 L2004.81 307.614 Z" fill="#000000" fill-rule="nonzero" fill-opacity="1" /><path clip-path="url(#clip330)" d="M2013.9 308.008 L2026.38 308.008 L2026.38 311.804 L2013.9 311.804 L2013.9 308.008 Z" fill="#000000" fill-rule="nonzero" fill-opacity="1" /><path clip-path="url(#clip330)" d="M2033.35 288.332 L2038.02 288.332 L2038.02 302.938 L2053.53 288.332 L2059.55 288.332 L2042.4 304.443 L2060.78 322.892 L2054.62 322.892 L2038.02 306.248 L2038.02 322.892 L2033.35 322.892 L2033.35 288.332 Z" fill="#000000" fill-rule="nonzero" fill-opacity="1" /><path clip-path="url(#clip330)" d="M2075.2 309.859 Q2070.04 309.859 2068.05 311.04 Q2066.05 312.22 2066.05 315.068 Q2066.05 317.336 2067.54 318.679 Q2069.04 319.998 2071.61 319.998 Q2075.15 319.998 2077.28 317.498 Q2079.43 314.975 2079.43 310.808 L2079.43 309.859 L2075.2 309.859 M2083.69 308.1 L2083.69 322.892 L2079.43 322.892 L2079.43 318.957 Q2077.98 321.318 2075.8 322.452 Q2073.62 323.563 2070.48 323.563 Q2066.49 323.563 2064.13 321.341 Q2061.8 319.095 2061.8 315.345 Q2061.8 310.97 2064.71 308.748 Q2067.65 306.526 2073.46 306.526 L2079.43 306.526 L2079.43 306.109 Q2079.43 303.17 2077.49 301.572 Q2075.57 299.952 2072.07 299.952 Q2069.85 299.952 2067.74 300.484 Q2065.64 301.017 2063.69 302.082 L2063.69 298.146 Q2066.03 297.244 2068.23 296.804 Q2070.43 296.341 2072.51 296.341 Q2078.14 296.341 2080.92 299.258 Q2083.69 302.174 2083.69 308.1 Z" fill="#000000" fill-rule="nonzero" fill-opacity="1" /><path clip-path="url(#clip330)" d="M2092.3 286.873 L2096.59 286.873 L2096.59 308.146 L2109.3 296.966 L2114.74 296.966 L2100.99 309.095 L2115.31 322.892 L2109.76 322.892 L2096.59 310.23 L2096.59 322.892 L2092.3 322.892 L2092.3 286.873 Z" fill="#000000" fill-rule="nonzero" fill-opacity="1" /><path clip-path="url(#clip330)" d="M2119.92 296.966 L2124.18 296.966 L2124.18 322.892 L2119.92 322.892 L2119.92 296.966 M2119.92 286.873 L2124.18 286.873 L2124.18 292.267 L2119.92 292.267 L2119.92 286.873 Z" fill="#000000" fill-rule="nonzero" fill-opacity="1" /><path clip-path="url(#clip330)" d="M2154.64 307.244 L2154.64 322.892 L2150.38 322.892 L2150.38 307.383 Q2150.38 303.702 2148.95 301.873 Q2147.51 300.045 2144.64 300.045 Q2141.19 300.045 2139.2 302.244 Q2137.21 304.443 2137.21 308.239 L2137.21 322.892 L2132.93 322.892 L2132.93 296.966 L2137.21 296.966 L2137.21 300.994 Q2138.74 298.656 2140.8 297.498 Q2142.88 296.341 2145.59 296.341 Q2150.06 296.341 2152.35 299.119 Q2154.64 301.873 2154.64 307.244 Z" fill="#000000" fill-rule="nonzero" fill-opacity="1" /><path clip-path="url(#clip330)" d="M2162.7 312.66 L2162.7 296.966 L2166.96 296.966 L2166.96 312.498 Q2166.96 316.179 2168.39 318.031 Q2169.83 319.859 2172.7 319.859 Q2176.15 319.859 2178.14 317.66 Q2180.15 315.461 2180.15 311.665 L2180.15 296.966 L2184.41 296.966 L2184.41 322.892 L2180.15 322.892 L2180.15 318.91 Q2178.6 321.271 2176.54 322.429 Q2174.5 323.563 2171.8 323.563 Q2167.33 323.563 2165.01 320.785 Q2162.7 318.007 2162.7 312.66 M2173.42 296.341 L2173.42 296.341 Z" fill="#000000" fill-rule="nonzero" fill-opacity="1" /><path clip-path="url(#clip330)" d="M2213.37 301.943 Q2214.97 299.072 2217.19 297.707 Q2219.41 296.341 2222.42 296.341 Q2226.47 296.341 2228.67 299.188 Q2230.87 302.012 2230.87 307.244 L2230.87 322.892 L2226.59 322.892 L2226.59 307.383 Q2226.59 303.656 2225.27 301.85 Q2223.95 300.045 2221.24 300.045 Q2217.93 300.045 2216.01 302.244 Q2214.09 304.443 2214.09 308.239 L2214.09 322.892 L2209.8 322.892 L2209.8 307.383 Q2209.8 303.633 2208.48 301.85 Q2207.17 300.045 2204.41 300.045 Q2201.15 300.045 2199.23 302.267 Q2197.3 304.466 2197.3 308.239 L2197.3 322.892 L2193.02 322.892 L2193.02 296.966 L2197.3 296.966 L2197.3 300.994 Q2198.76 298.609 2200.8 297.475 Q2202.84 296.341 2205.64 296.341 Q2208.46 296.341 2210.43 297.776 Q2212.42 299.211 2213.37 301.943 Z" fill="#000000" fill-rule="nonzero" fill-opacity="1" /><path clip-path="url(#clip330)" d="M2251.15 309.859 Q2245.98 309.859 2243.99 311.04 Q2242 312.22 2242 315.068 Q2242 317.336 2243.48 318.679 Q2244.99 319.998 2247.56 319.998 Q2251.1 319.998 2253.23 317.498 Q2255.38 314.975 2255.38 310.808 L2255.38 309.859 L2251.15 309.859 M2259.64 308.1 L2259.64 322.892 L2255.38 322.892 L2255.38 318.957 Q2253.92 321.318 2251.75 322.452 Q2249.57 323.563 2246.42 323.563 Q2242.44 323.563 2240.08 321.341 Q2237.74 319.095 2237.74 315.345 Q2237.74 310.97 2240.66 308.748 Q2243.6 306.526 2249.41 306.526 L2255.38 306.526 L2255.38 306.109 Q2255.38 303.17 2253.44 301.572 Q2251.52 299.952 2248.02 299.952 Q2245.8 299.952 2243.69 300.484 Q2241.59 301.017 2239.64 302.082 L2239.64 298.146 Q2241.98 297.244 2244.18 296.804 Q2246.38 296.341 2248.46 296.341 Q2254.09 296.341 2256.86 299.258 Q2259.64 302.174 2259.64 308.1 Z" fill="#000000" fill-rule="nonzero" fill-opacity="1" /></svg>
