<?xml version="1.0" encoding="utf-8"?>
<svg xmlns="http://www.w3.org/2000/svg" xmlns:xlink="http://www.w3.org/1999/xlink" width="600" height="400" viewBox="0 0 2400 1600">
<defs>
  <clipPath id="clip660">
    <rect x="0" y="0" width="2400" height="1600"/>
  </clipPath>
</defs>
<path clip-path="url(#clip660)" d="M0 1600 L2400 1600 L2400 0 L0 0  Z" fill="#ffffff" fill-rule="evenodd" fill-opacity="1"/>
<defs>
  <clipPath id="clip661">
    <rect x="257" y="106" width="2096" height="1318"/>
  </clipPath>
</defs>
<path clip-path="url(#clip660)" d="M257.69 1423.18 L2352.76 1423.18 L2352.76 106.192 L257.69 106.192  Z" fill="#ffffff" fill-rule="evenodd" fill-opacity="1"/>
<polyline clip-path="url(#clip661)" style="stroke:#000000; stroke-linecap:round; stroke-linejoin:round; stroke-width:2; stroke-opacity:0.1; fill:none" points="361.377,1423.18 361.377,106.192 "/>
<polyline clip-path="url(#clip661)" style="stroke:#000000; stroke-linecap:round; stroke-linejoin:round; stroke-width:2; stroke-opacity:0.1; fill:none" points="674.9,1423.18 674.9,106.192 "/>
<polyline clip-path="url(#clip661)" style="stroke:#000000; stroke-linecap:round; stroke-linejoin:round; stroke-width:2; stroke-opacity:0.1; fill:none" points="988.423,1423.18 988.423,106.192 "/>
<polyline clip-path="url(#clip661)" style="stroke:#000000; stroke-linecap:round; stroke-linejoin:round; stroke-width:2; stroke-opacity:0.1; fill:none" points="1301.95,1423.18 1301.95,106.192 "/>
<polyline clip-path="url(#clip661)" style="stroke:#000000; stroke-linecap:round; stroke-linejoin:round; stroke-width:2; stroke-opacity:0.1; fill:none" points="1615.47,1423.18 1615.47,106.192 "/>
<polyline clip-path="url(#clip661)" style="stroke:#000000; stroke-linecap:round; stroke-linejoin:round; stroke-width:2; stroke-opacity:0.1; fill:none" points="1928.99,1423.18 1928.99,106.192 "/>
<polyline clip-path="url(#clip661)" style="stroke:#000000; stroke-linecap:round; stroke-linejoin:round; stroke-width:2; stroke-opacity:0.1; fill:none" points="2242.51,1423.18 2242.51,106.192 "/>
<polyline clip-path="url(#clip661)" style="stroke:#000000; stroke-linecap:round; stroke-linejoin:round; stroke-width:2; stroke-opacity:0.1; fill:none" points="257.69,1266.81 2352.76,1266.81 "/>
<polyline clip-path="url(#clip661)" style="stroke:#000000; stroke-linecap:round; stroke-linejoin:round; stroke-width:2; stroke-opacity:0.1; fill:none" points="257.69,1087.06 2352.76,1087.06 "/>
<polyline clip-path="url(#clip661)" style="stroke:#000000; stroke-linecap:round; stroke-linejoin:round; stroke-width:2; stroke-opacity:0.1; fill:none" points="257.69,907.319 2352.76,907.319 "/>
<polyline clip-path="url(#clip661)" style="stroke:#000000; stroke-linecap:round; stroke-linejoin:round; stroke-width:2; stroke-opacity:0.1; fill:none" points="257.69,727.575 2352.76,727.575 "/>
<polyline clip-path="url(#clip661)" style="stroke:#000000; stroke-linecap:round; stroke-linejoin:round; stroke-width:2; stroke-opacity:0.1; fill:none" points="257.69,547.831 2352.76,547.831 "/>
<polyline clip-path="url(#clip661)" style="stroke:#000000; stroke-linecap:round; stroke-linejoin:round; stroke-width:2; stroke-opacity:0.1; fill:none" points="257.69,368.087 2352.76,368.087 "/>
<polyline clip-path="url(#clip661)" style="stroke:#000000; stroke-linecap:round; stroke-linejoin:round; stroke-width:2; stroke-opacity:0.1; fill:none" points="257.69,188.343 2352.76,188.343 "/>
<polyline clip-path="url(#clip660)" style="stroke:#000000; stroke-linecap:round; stroke-linejoin:round; stroke-width:4; stroke-opacity:1; fill:none" points="257.69,1423.18 2352.76,1423.18 "/>
<polyline clip-path="url(#clip660)" style="stroke:#000000; stroke-linecap:round; stroke-linejoin:round; stroke-width:4; stroke-opacity:1; fill:none" points="361.377,1423.18 361.377,1404.28 "/>
<polyline clip-path="url(#clip660)" style="stroke:#000000; stroke-linecap:round; stroke-linejoin:round; stroke-width:4; stroke-opacity:1; fill:none" points="674.9,1423.18 674.9,1404.28 "/>
<polyline clip-path="url(#clip660)" style="stroke:#000000; stroke-linecap:round; stroke-linejoin:round; stroke-width:4; stroke-opacity:1; fill:none" points="988.423,1423.18 988.423,1404.28 "/>
<polyline clip-path="url(#clip660)" style="stroke:#000000; stroke-linecap:round; stroke-linejoin:round; stroke-width:4; stroke-opacity:1; fill:none" points="1301.95,1423.18 1301.95,1404.28 "/>
<polyline clip-path="url(#clip660)" style="stroke:#000000; stroke-linecap:round; stroke-linejoin:round; stroke-width:4; stroke-opacity:1; fill:none" points="1615.47,1423.18 1615.47,1404.28 "/>
<polyline clip-path="url(#clip660)" style="stroke:#000000; stroke-linecap:round; stroke-linejoin:round; stroke-width:4; stroke-opacity:1; fill:none" points="1928.99,1423.18 1928.99,1404.28 "/>
<polyline clip-path="url(#clip660)" style="stroke:#000000; stroke-linecap:round; stroke-linejoin:round; stroke-width:4; stroke-opacity:1; fill:none" points="2242.51,1423.18 2242.51,1404.28 "/>
<path clip-path="url(#clip660)" d="M330.845 1468.75 L360.52 1468.75 L360.52 1472.69 L330.845 1472.69 L330.845 1468.75 Z" fill="#000000" fill-rule="nonzero" fill-opacity="1" /><path clip-path="url(#clip660)" d="M384.78 1466.95 Q388.136 1467.66 390.011 1469.93 Q391.909 1472.2 391.909 1475.53 Q391.909 1480.65 388.391 1483.45 Q384.872 1486.25 378.391 1486.25 Q376.215 1486.25 373.9 1485.81 Q371.608 1485.39 369.155 1484.54 L369.155 1480.02 Q371.099 1481.16 373.414 1481.74 Q375.729 1482.32 378.252 1482.32 Q382.65 1482.32 384.942 1480.58 Q387.256 1478.84 387.256 1475.53 Q387.256 1472.48 385.104 1470.77 Q382.974 1469.03 379.155 1469.03 L375.127 1469.03 L375.127 1465.19 L379.34 1465.19 Q382.789 1465.19 384.618 1463.82 Q386.446 1462.43 386.446 1459.84 Q386.446 1457.18 384.548 1455.77 Q382.673 1454.33 379.155 1454.33 Q377.233 1454.33 375.034 1454.75 Q372.835 1455.16 370.196 1456.04 L370.196 1451.88 Q372.858 1451.14 375.173 1450.77 Q377.511 1450.39 379.571 1450.39 Q384.895 1450.39 387.997 1452.83 Q391.099 1455.23 391.099 1459.35 Q391.099 1462.22 389.456 1464.21 Q387.812 1466.18 384.78 1466.95 Z" fill="#000000" fill-rule="nonzero" fill-opacity="1" /><path clip-path="url(#clip660)" d="M644.842 1468.75 L674.518 1468.75 L674.518 1472.69 L644.842 1472.69 L644.842 1468.75 Z" fill="#000000" fill-rule="nonzero" fill-opacity="1" /><path clip-path="url(#clip660)" d="M688.638 1481.64 L704.957 1481.64 L704.957 1485.58 L683.013 1485.58 L683.013 1481.64 Q685.675 1478.89 690.258 1474.26 Q694.865 1469.61 696.045 1468.27 Q698.291 1465.74 699.17 1464.01 Q700.073 1462.25 700.073 1460.56 Q700.073 1457.8 698.129 1456.07 Q696.208 1454.33 693.106 1454.33 Q690.907 1454.33 688.453 1455.09 Q686.022 1455.86 683.245 1457.41 L683.245 1452.69 Q686.069 1451.55 688.522 1450.97 Q690.976 1450.39 693.013 1450.39 Q698.383 1450.39 701.578 1453.08 Q704.772 1455.77 704.772 1460.26 Q704.772 1462.39 703.962 1464.31 Q703.175 1466.2 701.069 1468.8 Q700.49 1469.47 697.388 1472.69 Q694.286 1475.88 688.638 1481.64 Z" fill="#000000" fill-rule="nonzero" fill-opacity="1" /><path clip-path="url(#clip660)" d="M958.18 1468.75 L987.855 1468.75 L987.855 1472.69 L958.18 1472.69 L958.18 1468.75 Z" fill="#000000" fill-rule="nonzero" fill-opacity="1" /><path clip-path="url(#clip660)" d="M998.758 1481.64 L1006.4 1481.64 L1006.4 1455.28 L998.087 1456.95 L998.087 1452.69 L1006.35 1451.02 L1011.03 1451.02 L1011.03 1481.64 L1018.67 1481.64 L1018.67 1485.58 L998.758 1485.58 L998.758 1481.64 Z" fill="#000000" fill-rule="nonzero" fill-opacity="1" /><path clip-path="url(#clip660)" d="M1301.95 1454.1 Q1298.33 1454.1 1296.51 1457.66 Q1294.7 1461.2 1294.7 1468.33 Q1294.7 1475.44 1296.51 1479.01 Q1298.33 1482.55 1301.95 1482.55 Q1305.58 1482.55 1307.39 1479.01 Q1309.21 1475.44 1309.21 1468.33 Q1309.21 1461.2 1307.39 1457.66 Q1305.58 1454.1 1301.95 1454.1 M1301.95 1450.39 Q1307.76 1450.39 1310.81 1455 Q1313.89 1459.58 1313.89 1468.33 Q1313.89 1477.06 1310.81 1481.67 Q1307.76 1486.25 1301.95 1486.25 Q1296.14 1486.25 1293.06 1481.67 Q1290 1477.06 1290 1468.33 Q1290 1459.58 1293.06 1455 Q1296.14 1450.39 1301.95 1450.39 Z" fill="#000000" fill-rule="nonzero" fill-opacity="1" /><path clip-path="url(#clip660)" d="M1605.85 1481.64 L1613.49 1481.64 L1613.49 1455.28 L1605.18 1456.95 L1605.18 1452.69 L1613.44 1451.02 L1618.12 1451.02 L1618.12 1481.64 L1625.76 1481.64 L1625.76 1485.58 L1605.85 1485.58 L1605.85 1481.64 Z" fill="#000000" fill-rule="nonzero" fill-opacity="1" /><path clip-path="url(#clip660)" d="M1923.64 1481.64 L1939.96 1481.64 L1939.96 1485.58 L1918.02 1485.58 L1918.02 1481.64 Q1920.68 1478.89 1925.26 1474.26 Q1929.87 1469.61 1931.05 1468.27 Q1933.3 1465.74 1934.18 1464.01 Q1935.08 1462.25 1935.08 1460.56 Q1935.08 1457.8 1933.13 1456.07 Q1931.21 1454.33 1928.11 1454.33 Q1925.91 1454.33 1923.46 1455.09 Q1921.03 1455.86 1918.25 1457.41 L1918.25 1452.69 Q1921.07 1451.55 1923.53 1450.97 Q1925.98 1450.39 1928.02 1450.39 Q1933.39 1450.39 1936.58 1453.08 Q1939.78 1455.77 1939.78 1460.26 Q1939.78 1462.39 1938.97 1464.31 Q1938.18 1466.2 1936.07 1468.8 Q1935.5 1469.47 1932.39 1472.69 Q1929.29 1475.88 1923.64 1481.64 Z" fill="#000000" fill-rule="nonzero" fill-opacity="1" /><path clip-path="url(#clip660)" d="M2246.76 1466.95 Q2250.12 1467.66 2251.99 1469.93 Q2253.89 1472.2 2253.89 1475.53 Q2253.89 1480.65 2250.37 1483.45 Q2246.85 1486.25 2240.37 1486.25 Q2238.2 1486.25 2235.88 1485.81 Q2233.59 1485.39 2231.14 1484.54 L2231.14 1480.02 Q2233.08 1481.16 2235.4 1481.74 Q2237.71 1482.32 2240.23 1482.32 Q2244.63 1482.32 2246.92 1480.58 Q2249.24 1478.84 2249.24 1475.53 Q2249.24 1472.48 2247.09 1470.77 Q2244.96 1469.03 2241.14 1469.03 L2237.11 1469.03 L2237.11 1465.19 L2241.32 1465.19 Q2244.77 1465.19 2246.6 1463.82 Q2248.43 1462.43 2248.43 1459.84 Q2248.43 1457.18 2246.53 1455.77 Q2244.65 1454.33 2241.14 1454.33 Q2239.22 1454.33 2237.02 1454.75 Q2234.82 1455.16 2232.18 1456.04 L2232.18 1451.88 Q2234.84 1451.14 2237.15 1450.77 Q2239.49 1450.39 2241.55 1450.39 Q2246.88 1450.39 2249.98 1452.83 Q2253.08 1455.23 2253.08 1459.35 Q2253.08 1462.22 2251.44 1464.21 Q2249.79 1466.18 2246.76 1466.95 Z" fill="#000000" fill-rule="nonzero" fill-opacity="1" /><path clip-path="url(#clip660)" d="M1321.84 1532.4 L1308.95 1549.74 L1322.51 1568.04 L1315.6 1568.04 L1305.22 1554.04 L1294.85 1568.04 L1287.94 1568.04 L1301.79 1549.39 L1289.12 1532.4 L1296.02 1532.4 L1305.48 1545.1 L1314.93 1532.4 L1321.84 1532.4 Z" fill="#000000" fill-rule="nonzero" fill-opacity="1" /><polyline clip-path="url(#clip660)" style="stroke:#000000; stroke-linecap:round; stroke-linejoin:round; stroke-width:4; stroke-opacity:1; fill:none" points="257.69,1423.18 257.69,106.192 "/>
<polyline clip-path="url(#clip660)" style="stroke:#000000; stroke-linecap:round; stroke-linejoin:round; stroke-width:4; stroke-opacity:1; fill:none" points="257.69,1266.81 276.588,1266.81 "/>
<polyline clip-path="url(#clip660)" style="stroke:#000000; stroke-linecap:round; stroke-linejoin:round; stroke-width:4; stroke-opacity:1; fill:none" points="257.69,1087.06 276.588,1087.06 "/>
<polyline clip-path="url(#clip660)" style="stroke:#000000; stroke-linecap:round; stroke-linejoin:round; stroke-width:4; stroke-opacity:1; fill:none" points="257.69,907.319 276.588,907.319 "/>
<polyline clip-path="url(#clip660)" style="stroke:#000000; stroke-linecap:round; stroke-linejoin:round; stroke-width:4; stroke-opacity:1; fill:none" points="257.69,727.575 276.588,727.575 "/>
<polyline clip-path="url(#clip660)" style="stroke:#000000; stroke-linecap:round; stroke-linejoin:round; stroke-width:4; stroke-opacity:1; fill:none" points="257.69,547.831 276.588,547.831 "/>
<polyline clip-path="url(#clip660)" style="stroke:#000000; stroke-linecap:round; stroke-linejoin:round; stroke-width:4; stroke-opacity:1; fill:none" points="257.69,368.087 276.588,368.087 "/>
<polyline clip-path="url(#clip660)" style="stroke:#000000; stroke-linecap:round; stroke-linejoin:round; stroke-width:4; stroke-opacity:1; fill:none" points="257.69,188.343 276.588,188.343 "/>
<path clip-path="url(#clip660)" d="M115.742 1267.26 L145.417 1267.26 L145.417 1271.19 L115.742 1271.19 L115.742 1267.26 Z" fill="#000000" fill-rule="nonzero" fill-opacity="1" /><path clip-path="url(#clip660)" d="M165.51 1252.61 Q161.899 1252.61 160.07 1256.17 Q158.265 1259.71 158.265 1266.84 Q158.265 1273.95 160.07 1277.51 Q161.899 1281.05 165.51 1281.05 Q169.144 1281.05 170.95 1277.51 Q172.778 1273.95 172.778 1266.84 Q172.778 1259.71 170.95 1256.17 Q169.144 1252.61 165.51 1252.61 M165.51 1248.9 Q171.32 1248.9 174.376 1253.51 Q177.454 1258.09 177.454 1266.84 Q177.454 1275.57 174.376 1280.17 Q171.32 1284.76 165.51 1284.76 Q159.7 1284.76 156.621 1280.17 Q153.566 1275.57 153.566 1266.84 Q153.566 1258.09 156.621 1253.51 Q159.7 1248.9 165.51 1248.9 Z" fill="#000000" fill-rule="nonzero" fill-opacity="1" /><path clip-path="url(#clip660)" d="M185.672 1278.21 L190.556 1278.21 L190.556 1284.09 L185.672 1284.09 L185.672 1278.21 Z" fill="#000000" fill-rule="nonzero" fill-opacity="1" /><path clip-path="url(#clip660)" d="M200.787 1249.53 L219.144 1249.53 L219.144 1253.46 L205.07 1253.46 L205.07 1261.93 Q206.088 1261.59 207.107 1261.42 Q208.125 1261.24 209.144 1261.24 Q214.931 1261.24 218.311 1264.41 Q221.69 1267.58 221.69 1273 Q221.69 1278.58 218.218 1281.68 Q214.746 1284.76 208.426 1284.76 Q206.25 1284.76 203.982 1284.39 Q201.737 1284.02 199.329 1283.28 L199.329 1278.58 Q201.412 1279.71 203.635 1280.27 Q205.857 1280.82 208.334 1280.82 Q212.338 1280.82 214.676 1278.72 Q217.014 1276.61 217.014 1273 Q217.014 1269.39 214.676 1267.28 Q212.338 1265.17 208.334 1265.17 Q206.459 1265.17 204.584 1265.59 Q202.732 1266.01 200.787 1266.89 L200.787 1249.53 Z" fill="#000000" fill-rule="nonzero" fill-opacity="1" /><path clip-path="url(#clip660)" d="M114.26 1087.51 L143.936 1087.51 L143.936 1091.45 L114.26 1091.45 L114.26 1087.51 Z" fill="#000000" fill-rule="nonzero" fill-opacity="1" /><path clip-path="url(#clip660)" d="M164.028 1072.86 Q160.417 1072.86 158.589 1076.43 Q156.783 1079.97 156.783 1087.1 Q156.783 1094.2 158.589 1097.77 Q160.417 1101.31 164.028 1101.31 Q167.663 1101.31 169.468 1097.77 Q171.297 1094.2 171.297 1087.1 Q171.297 1079.97 169.468 1076.43 Q167.663 1072.86 164.028 1072.86 M164.028 1069.16 Q169.839 1069.16 172.894 1073.76 Q175.973 1078.35 175.973 1087.1 Q175.973 1095.82 172.894 1100.43 Q169.839 1105.01 164.028 1105.01 Q158.218 1105.01 155.14 1100.43 Q152.084 1095.82 152.084 1087.1 Q152.084 1078.35 155.14 1073.76 Q158.218 1069.16 164.028 1069.16 Z" fill="#000000" fill-rule="nonzero" fill-opacity="1" /><path clip-path="url(#clip660)" d="M184.19 1098.46 L189.075 1098.46 L189.075 1104.34 L184.19 1104.34 L184.19 1098.46 Z" fill="#000000" fill-rule="nonzero" fill-opacity="1" /><path clip-path="url(#clip660)" d="M212.107 1073.86 L200.301 1092.31 L212.107 1092.31 L212.107 1073.86 M210.88 1069.78 L216.76 1069.78 L216.76 1092.31 L221.69 1092.31 L221.69 1096.19 L216.76 1096.19 L216.76 1104.34 L212.107 1104.34 L212.107 1096.19 L196.505 1096.19 L196.505 1091.68 L210.88 1069.78 Z" fill="#000000" fill-rule="nonzero" fill-opacity="1" /><path clip-path="url(#clip660)" d="M115.394 907.77 L145.07 907.77 L145.07 911.705 L115.394 911.705 L115.394 907.77 Z" fill="#000000" fill-rule="nonzero" fill-opacity="1" /><path clip-path="url(#clip660)" d="M165.163 893.117 Q161.552 893.117 159.723 896.682 Q157.917 900.224 157.917 907.353 Q157.917 914.46 159.723 918.025 Q161.552 921.566 165.163 921.566 Q168.797 921.566 170.602 918.025 Q172.431 914.46 172.431 907.353 Q172.431 900.224 170.602 896.682 Q168.797 893.117 165.163 893.117 M165.163 889.414 Q170.973 889.414 174.028 894.02 Q177.107 898.604 177.107 907.353 Q177.107 916.08 174.028 920.687 Q170.973 925.27 165.163 925.27 Q159.353 925.27 156.274 920.687 Q153.218 916.08 153.218 907.353 Q153.218 898.604 156.274 894.02 Q159.353 889.414 165.163 889.414 Z" fill="#000000" fill-rule="nonzero" fill-opacity="1" /><path clip-path="url(#clip660)" d="M185.325 918.719 L190.209 918.719 L190.209 924.599 L185.325 924.599 L185.325 918.719 Z" fill="#000000" fill-rule="nonzero" fill-opacity="1" /><path clip-path="url(#clip660)" d="M214.561 905.965 Q217.917 906.682 219.792 908.951 Q221.69 911.219 221.69 914.553 Q221.69 919.668 218.172 922.469 Q214.653 925.27 208.172 925.27 Q205.996 925.27 203.681 924.83 Q201.389 924.414 198.936 923.557 L198.936 919.043 Q200.88 920.177 203.195 920.756 Q205.51 921.335 208.033 921.335 Q212.431 921.335 214.723 919.599 Q217.037 917.863 217.037 914.553 Q217.037 911.497 214.885 909.784 Q212.755 908.048 208.936 908.048 L204.908 908.048 L204.908 904.205 L209.121 904.205 Q212.57 904.205 214.399 902.84 Q216.227 901.451 216.227 898.858 Q216.227 896.196 214.329 894.784 Q212.454 893.349 208.936 893.349 Q207.014 893.349 204.815 893.766 Q202.616 894.182 199.977 895.062 L199.977 890.895 Q202.639 890.154 204.954 889.784 Q207.292 889.414 209.352 889.414 Q214.676 889.414 217.778 891.844 Q220.88 894.252 220.88 898.372 Q220.88 901.242 219.236 903.233 Q217.593 905.201 214.561 905.965 Z" fill="#000000" fill-rule="nonzero" fill-opacity="1" /><path clip-path="url(#clip660)" d="M116.343 728.026 L146.019 728.026 L146.019 731.961 L116.343 731.961 L116.343 728.026 Z" fill="#000000" fill-rule="nonzero" fill-opacity="1" /><path clip-path="url(#clip660)" d="M166.112 713.373 Q162.501 713.373 160.672 716.938 Q158.866 720.48 158.866 727.609 Q158.866 734.716 160.672 738.281 Q162.501 741.822 166.112 741.822 Q169.746 741.822 171.552 738.281 Q173.38 734.716 173.38 727.609 Q173.38 720.48 171.552 716.938 Q169.746 713.373 166.112 713.373 M166.112 709.67 Q171.922 709.67 174.977 714.276 Q178.056 718.859 178.056 727.609 Q178.056 736.336 174.977 740.943 Q171.922 745.526 166.112 745.526 Q160.302 745.526 157.223 740.943 Q154.167 736.336 154.167 727.609 Q154.167 718.859 157.223 714.276 Q160.302 709.67 166.112 709.67 Z" fill="#000000" fill-rule="nonzero" fill-opacity="1" /><path clip-path="url(#clip660)" d="M186.274 738.975 L191.158 738.975 L191.158 744.855 L186.274 744.855 L186.274 738.975 Z" fill="#000000" fill-rule="nonzero" fill-opacity="1" /><path clip-path="url(#clip660)" d="M205.371 740.92 L221.69 740.92 L221.69 744.855 L199.746 744.855 L199.746 740.92 Q202.408 738.165 206.991 733.535 Q211.598 728.883 212.778 727.54 Q215.024 725.017 215.903 723.281 Q216.806 721.522 216.806 719.832 Q216.806 717.077 214.861 715.341 Q212.94 713.605 209.838 713.605 Q207.639 713.605 205.186 714.369 Q202.755 715.133 199.977 716.684 L199.977 711.961 Q202.801 710.827 205.255 710.248 Q207.709 709.67 209.746 709.67 Q215.116 709.67 218.311 712.355 Q221.505 715.04 221.505 719.531 Q221.505 721.66 220.695 723.582 Q219.908 725.48 217.801 728.072 Q217.223 728.744 214.121 731.961 Q211.019 735.156 205.371 740.92 Z" fill="#000000" fill-rule="nonzero" fill-opacity="1" /><path clip-path="url(#clip660)" d="M115.973 548.282 L145.649 548.282 L145.649 552.217 L115.973 552.217 L115.973 548.282 Z" fill="#000000" fill-rule="nonzero" fill-opacity="1" /><path clip-path="url(#clip660)" d="M165.741 533.629 Q162.13 533.629 160.302 537.194 Q158.496 540.736 158.496 547.865 Q158.496 554.972 160.302 558.537 Q162.13 562.078 165.741 562.078 Q169.376 562.078 171.181 558.537 Q173.01 554.972 173.01 547.865 Q173.01 540.736 171.181 537.194 Q169.376 533.629 165.741 533.629 M165.741 529.926 Q171.552 529.926 174.607 534.532 Q177.686 539.115 177.686 547.865 Q177.686 556.592 174.607 561.199 Q171.552 565.782 165.741 565.782 Q159.931 565.782 156.853 561.199 Q153.797 556.592 153.797 547.865 Q153.797 539.115 156.853 534.532 Q159.931 529.926 165.741 529.926 Z" fill="#000000" fill-rule="nonzero" fill-opacity="1" /><path clip-path="url(#clip660)" d="M185.903 559.231 L190.788 559.231 L190.788 565.111 L185.903 565.111 L185.903 559.231 Z" fill="#000000" fill-rule="nonzero" fill-opacity="1" /><path clip-path="url(#clip660)" d="M201.783 561.176 L209.422 561.176 L209.422 534.81 L201.112 536.477 L201.112 532.217 L209.375 530.551 L214.051 530.551 L214.051 561.176 L221.69 561.176 L221.69 565.111 L201.783 565.111 L201.783 561.176 Z" fill="#000000" fill-rule="nonzero" fill-opacity="1" /><path clip-path="url(#clip660)" d="M164.515 353.885 Q160.903 353.885 159.075 357.45 Q157.269 360.992 157.269 368.121 Q157.269 375.228 159.075 378.793 Q160.903 382.334 164.515 382.334 Q168.149 382.334 169.954 378.793 Q171.783 375.228 171.783 368.121 Q171.783 360.992 169.954 357.45 Q168.149 353.885 164.515 353.885 M164.515 350.182 Q170.325 350.182 173.38 354.788 Q176.459 359.371 176.459 368.121 Q176.459 376.848 173.38 381.455 Q170.325 386.038 164.515 386.038 Q158.704 386.038 155.626 381.455 Q152.57 376.848 152.57 368.121 Q152.57 359.371 155.626 354.788 Q158.704 350.182 164.515 350.182 Z" fill="#000000" fill-rule="nonzero" fill-opacity="1" /><path clip-path="url(#clip660)" d="M184.676 379.487 L189.561 379.487 L189.561 385.367 L184.676 385.367 L184.676 379.487 Z" fill="#000000" fill-rule="nonzero" fill-opacity="1" /><path clip-path="url(#clip660)" d="M209.746 353.885 Q206.135 353.885 204.306 357.45 Q202.5 360.992 202.5 368.121 Q202.5 375.228 204.306 378.793 Q206.135 382.334 209.746 382.334 Q213.38 382.334 215.186 378.793 Q217.014 375.228 217.014 368.121 Q217.014 360.992 215.186 357.45 Q213.38 353.885 209.746 353.885 M209.746 350.182 Q215.556 350.182 218.611 354.788 Q221.69 359.371 221.69 368.121 Q221.69 376.848 218.611 381.455 Q215.556 386.038 209.746 386.038 Q203.936 386.038 200.857 381.455 Q197.801 376.848 197.801 368.121 Q197.801 359.371 200.857 354.788 Q203.936 350.182 209.746 350.182 Z" fill="#000000" fill-rule="nonzero" fill-opacity="1" /><path clip-path="url(#clip660)" d="M165.741 174.141 Q162.13 174.141 160.302 177.706 Q158.496 181.248 158.496 188.377 Q158.496 195.484 160.302 199.049 Q162.13 202.59 165.741 202.59 Q169.376 202.59 171.181 199.049 Q173.01 195.484 173.01 188.377 Q173.01 181.248 171.181 177.706 Q169.376 174.141 165.741 174.141 M165.741 170.438 Q171.552 170.438 174.607 175.044 Q177.686 179.627 177.686 188.377 Q177.686 197.104 174.607 201.711 Q171.552 206.294 165.741 206.294 Q159.931 206.294 156.853 201.711 Q153.797 197.104 153.797 188.377 Q153.797 179.627 156.853 175.044 Q159.931 170.438 165.741 170.438 Z" fill="#000000" fill-rule="nonzero" fill-opacity="1" /><path clip-path="url(#clip660)" d="M185.903 199.743 L190.788 199.743 L190.788 205.623 L185.903 205.623 L185.903 199.743 Z" fill="#000000" fill-rule="nonzero" fill-opacity="1" /><path clip-path="url(#clip660)" d="M201.783 201.687 L209.422 201.687 L209.422 175.322 L201.112 176.988 L201.112 172.729 L209.375 171.063 L214.051 171.063 L214.051 201.687 L221.69 201.687 L221.69 205.623 L201.783 205.623 L201.783 201.687 Z" fill="#000000" fill-rule="nonzero" fill-opacity="1" /><path clip-path="url(#clip660)" d="M42.4881 749.758 L77.5631 749.758 L77.5631 755.615 L42.679 755.615 Q37.6183 755.615 35.1038 757.588 Q32.5894 759.562 32.5894 763.508 Q32.5894 768.251 35.6131 770.988 Q38.6368 773.725 43.8567 773.725 L64.0042 773.725 L64.0042 779.614 L28.3562 779.614 L28.3562 773.725 L33.8944 773.725 Q30.6797 771.625 29.0883 768.792 Q27.4968 765.927 27.4968 762.203 Q27.4968 756.06 31.2844 752.909 Q35.1038 749.758 42.4881 749.758 Z" fill="#000000" fill-rule="nonzero" fill-opacity="1" /><path clip-path="url(#clip660)" d="M835.492 10.0578 L835.492 15.758 Q832.164 14.1666 829.213 13.3853 Q826.261 12.6041 823.513 12.6041 Q818.738 12.6041 816.134 14.4559 Q813.559 16.3078 813.559 19.7221 Q813.559 22.5867 815.266 24.0624 Q817.002 25.5091 821.805 26.4061 L825.336 27.1295 Q831.875 28.3737 834.971 31.5276 Q838.096 34.6526 838.096 39.9188 Q838.096 46.1977 833.871 49.4384 Q829.676 52.6791 821.545 52.6791 Q818.478 52.6791 815.006 51.9847 Q811.562 51.2902 807.859 49.9303 L807.859 43.9118 Q811.418 45.9083 814.832 46.921 Q818.246 47.9338 821.545 47.9338 Q826.551 47.9338 829.271 45.9662 Q831.991 43.9986 831.991 40.3528 Q831.991 37.1699 830.023 35.376 Q828.084 33.582 823.628 32.685 L820.069 31.9906 Q813.53 30.6885 810.608 27.9107 Q807.685 25.133 807.685 20.1851 Q807.685 14.4559 811.707 11.1573 Q815.758 7.85875 822.847 7.85875 Q825.885 7.85875 829.039 8.40852 Q832.193 8.95829 835.492 10.0578 Z" fill="#000000" fill-rule="nonzero" fill-opacity="1" /><path clip-path="url(#clip660)" d="M846.429 39.0507 L846.429 19.4328 L851.753 19.4328 L851.753 38.8482 Q851.753 43.4488 853.547 45.7636 Q855.341 48.0495 858.929 48.0495 Q863.24 48.0495 865.729 45.3007 Q868.246 42.5519 868.246 37.8065 L868.246 19.4328 L873.57 19.4328 L873.57 51.84 L868.246 51.84 L868.246 46.8632 Q866.308 49.8145 863.732 51.2613 Q861.186 52.6791 857.801 52.6791 Q852.216 52.6791 849.323 49.2069 Q846.429 45.7347 846.429 39.0507 M859.826 18.6515 L859.826 18.6515 Z" fill="#000000" fill-rule="nonzero" fill-opacity="1" /><path clip-path="url(#clip660)" d="M903.315 24.4096 Q902.418 23.8888 901.348 23.6573 Q900.306 23.3969 899.033 23.3969 Q894.519 23.3969 892.089 26.3482 Q889.687 29.2707 889.687 34.7683 L889.687 51.84 L884.334 51.84 L884.334 19.4328 L889.687 19.4328 L889.687 24.4675 Q891.365 21.5161 894.056 20.0983 Q896.747 18.6515 900.596 18.6515 Q901.145 18.6515 901.811 18.7383 Q902.476 18.7962 903.287 18.9409 L903.315 24.4096 Z" fill="#000000" fill-rule="nonzero" fill-opacity="1" /><path clip-path="url(#clip660)" d="M925.306 6.81709 L925.306 11.2442 L920.214 11.2442 Q917.349 11.2442 916.22 12.4016 Q915.121 13.559 915.121 16.5682 L915.121 19.4328 L923.888 19.4328 L923.888 23.5705 L915.121 23.5705 L915.121 51.84 L909.768 51.84 L909.768 23.5705 L904.675 23.5705 L904.675 19.4328 L909.768 19.4328 L909.768 17.1758 Q909.768 11.765 912.285 9.30551 Q914.803 6.81709 920.271 6.81709 L925.306 6.81709 Z" fill="#000000" fill-rule="nonzero" fill-opacity="1" /><path clip-path="url(#clip660)" d="M944.49 35.5496 Q938.037 35.5496 935.549 37.0253 Q933.061 38.501 933.061 42.06 Q933.061 44.8956 934.913 46.5738 Q936.793 48.2231 940.005 48.2231 Q944.432 48.2231 947.094 45.0981 Q949.785 41.9442 949.785 36.7359 L949.785 35.5496 L944.49 35.5496 M955.109 33.3505 L955.109 51.84 L949.785 51.84 L949.785 46.921 Q947.962 49.8724 945.242 51.2902 Q942.522 52.6791 938.587 52.6791 Q933.61 52.6791 930.659 49.9014 Q927.737 47.0947 927.737 42.4072 Q927.737 36.9385 931.382 34.1607 Q935.057 31.3829 942.32 31.3829 L949.785 31.3829 L949.785 30.8621 Q949.785 27.1874 947.355 25.1908 Q944.953 23.1654 940.584 23.1654 Q937.806 23.1654 935.173 23.8309 Q932.54 24.4964 930.109 25.8274 L930.109 20.9085 Q933.032 19.78 935.781 19.2302 Q938.529 18.6515 941.134 18.6515 Q948.165 18.6515 951.637 22.2973 Q955.109 25.9431 955.109 33.3505 Z" fill="#000000" fill-rule="nonzero" fill-opacity="1" /><path clip-path="url(#clip660)" d="M989.397 20.677 L989.397 25.6538 Q987.14 24.4096 984.854 23.802 Q982.597 23.1654 980.283 23.1654 Q975.103 23.1654 972.239 26.464 Q969.374 29.7336 969.374 35.6653 Q969.374 41.597 972.239 44.8956 Q975.103 48.1653 980.283 48.1653 Q982.597 48.1653 984.854 47.5576 Q987.14 46.921 989.397 45.6768 L989.397 50.5958 Q987.169 51.6375 984.768 52.1583 Q982.395 52.6791 979.704 52.6791 Q972.383 52.6791 968.072 48.0784 Q963.761 43.4778 963.761 35.6653 Q963.761 27.7371 968.101 23.1943 Q972.47 18.6515 980.051 18.6515 Q982.511 18.6515 984.854 19.1724 Q987.198 19.6642 989.397 20.677 Z" fill="#000000" fill-rule="nonzero" fill-opacity="1" /><path clip-path="url(#clip660)" d="M1026.38 34.3054 L1026.38 36.9095 L1001.9 36.9095 Q1002.24 42.4072 1005.2 45.3007 Q1008.18 48.1653 1013.47 48.1653 Q1016.54 48.1653 1019.4 47.4129 Q1022.3 46.6606 1025.13 45.156 L1025.13 50.1907 Q1022.27 51.406 1019.26 52.0425 Q1016.25 52.6791 1013.15 52.6791 Q1005.4 52.6791 1000.86 48.1653 Q996.342 43.6514 996.342 35.9547 Q996.342 27.9975 1000.62 23.339 Q1004.94 18.6515 1012.23 18.6515 Q1018.77 18.6515 1022.56 22.876 Q1026.38 27.0716 1026.38 34.3054 M1021.05 32.7429 Q1020.99 28.3737 1018.59 25.7695 Q1016.22 23.1654 1012.28 23.1654 Q1007.83 23.1654 1005.14 25.6827 Q1002.48 28.2001 1002.07 32.7718 L1021.05 32.7429 Z" fill="#000000" fill-rule="nonzero" fill-opacity="1" /><path clip-path="url(#clip660)" d="M1075.28 24.3517 L1075.28 6.81709 L1080.6 6.81709 L1080.6 51.84 L1075.28 51.84 L1075.28 46.9789 Q1073.6 49.8724 1071.02 51.2902 Q1068.48 52.6791 1064.89 52.6791 Q1059.01 52.6791 1055.31 47.9916 Q1051.64 43.3042 1051.64 35.6653 Q1051.64 28.0265 1055.31 23.339 Q1059.01 18.6515 1064.89 18.6515 Q1068.48 18.6515 1071.02 20.0693 Q1073.6 21.4582 1075.28 24.3517 M1057.13 35.6653 Q1057.13 41.5391 1059.54 44.8956 Q1061.97 48.2231 1066.19 48.2231 Q1070.42 48.2231 1072.85 44.8956 Q1075.28 41.5391 1075.28 35.6653 Q1075.28 29.7915 1072.85 26.464 Q1070.42 23.1075 1066.19 23.1075 Q1061.97 23.1075 1059.54 26.464 Q1057.13 29.7915 1057.13 35.6653 Z" fill="#000000" fill-rule="nonzero" fill-opacity="1" /><path clip-path="url(#clip660)" d="M1119.29 34.3054 L1119.29 36.9095 L1094.81 36.9095 Q1095.15 42.4072 1098.11 45.3007 Q1101.09 48.1653 1106.38 48.1653 Q1109.45 48.1653 1112.31 47.4129 Q1115.21 46.6606 1118.04 45.156 L1118.04 50.1907 Q1115.18 51.406 1112.17 52.0425 Q1109.16 52.6791 1106.06 52.6791 Q1098.31 52.6791 1093.77 48.1653 Q1089.25 43.6514 1089.25 35.9547 Q1089.25 27.9975 1093.53 23.339 Q1097.85 18.6515 1105.14 18.6515 Q1111.68 18.6515 1115.47 22.876 Q1119.29 27.0716 1119.29 34.3054 M1113.96 32.7429 Q1113.9 28.3737 1111.5 25.7695 Q1109.13 23.1654 1105.2 23.1654 Q1100.74 23.1654 1098.05 25.6827 Q1095.39 28.2001 1094.98 32.7718 L1113.96 32.7429 Z" fill="#000000" fill-rule="nonzero" fill-opacity="1" /><path clip-path="url(#clip660)" d="M1144.43 6.81709 L1144.43 11.2442 L1139.34 11.2442 Q1136.47 11.2442 1135.35 12.4016 Q1134.25 13.559 1134.25 16.5682 L1134.25 19.4328 L1143.01 19.4328 L1143.01 23.5705 L1134.25 23.5705 L1134.25 51.84 L1128.89 51.84 L1128.89 23.5705 L1123.8 23.5705 L1123.8 19.4328 L1128.89 19.4328 L1128.89 17.1758 Q1128.89 11.765 1131.41 9.30551 Q1133.93 6.81709 1139.4 6.81709 L1144.43 6.81709 Z" fill="#000000" fill-rule="nonzero" fill-opacity="1" /><path clip-path="url(#clip660)" d="M1161.44 23.1654 Q1157.16 23.1654 1154.67 26.5218 Q1152.19 29.8494 1152.19 35.6653 Q1152.19 41.4813 1154.65 44.8377 Q1157.13 48.1653 1161.44 48.1653 Q1165.7 48.1653 1168.19 44.8088 Q1170.68 41.4523 1170.68 35.6653 Q1170.68 29.9072 1168.19 26.5508 Q1165.7 23.1654 1161.44 23.1654 M1161.44 18.6515 Q1168.39 18.6515 1172.35 23.1654 Q1176.32 27.6792 1176.32 35.6653 Q1176.32 43.6225 1172.35 48.1653 Q1168.39 52.6791 1161.44 52.6791 Q1154.47 52.6791 1150.51 48.1653 Q1146.57 43.6225 1146.57 35.6653 Q1146.57 27.6792 1150.51 23.1654 Q1154.47 18.6515 1161.44 18.6515 Z" fill="#000000" fill-rule="nonzero" fill-opacity="1" /><path clip-path="url(#clip660)" d="M1203.92 24.4096 Q1203.02 23.8888 1201.95 23.6573 Q1200.91 23.3969 1199.64 23.3969 Q1195.13 23.3969 1192.69 26.3482 Q1190.29 29.2707 1190.29 34.7683 L1190.29 51.84 L1184.94 51.84 L1184.94 19.4328 L1190.29 19.4328 L1190.29 24.4675 Q1191.97 21.5161 1194.66 20.0983 Q1197.35 18.6515 1201.2 18.6515 Q1201.75 18.6515 1202.42 18.7383 Q1203.08 18.7962 1203.89 18.9409 L1203.92 24.4096 Z" fill="#000000" fill-rule="nonzero" fill-opacity="1" /><path clip-path="url(#clip660)" d="M1233.7 25.6538 Q1235.69 22.0659 1238.47 20.3587 Q1241.25 18.6515 1245.01 18.6515 Q1250.07 18.6515 1252.82 22.2105 Q1255.57 25.7406 1255.57 32.2799 L1255.57 51.84 L1250.22 51.84 L1250.22 32.4535 Q1250.22 27.795 1248.57 25.5381 Q1246.92 23.2811 1243.53 23.2811 Q1239.4 23.2811 1236.99 26.03 Q1234.59 28.7788 1234.59 33.5241 L1234.59 51.84 L1229.24 51.84 L1229.24 32.4535 Q1229.24 27.7661 1227.59 25.5381 Q1225.94 23.2811 1222.5 23.2811 Q1218.42 23.2811 1216.02 26.0589 Q1213.61 28.8077 1213.61 33.5241 L1213.61 51.84 L1208.26 51.84 L1208.26 19.4328 L1213.61 19.4328 L1213.61 24.4675 Q1215.44 21.4872 1217.98 20.0693 Q1220.53 18.6515 1224.03 18.6515 Q1227.56 18.6515 1230.02 20.4455 Q1232.51 22.2395 1233.7 25.6538 Z" fill="#000000" fill-rule="nonzero" fill-opacity="1" /><path clip-path="url(#clip660)" d="M1280.92 35.5496 Q1274.47 35.5496 1271.98 37.0253 Q1269.49 38.501 1269.49 42.06 Q1269.49 44.8956 1271.34 46.5738 Q1273.22 48.2231 1276.43 48.2231 Q1280.86 48.2231 1283.52 45.0981 Q1286.21 41.9442 1286.21 36.7359 L1286.21 35.5496 L1280.92 35.5496 M1291.54 33.3505 L1291.54 51.84 L1286.21 51.84 L1286.21 46.921 Q1284.39 49.8724 1281.67 51.2902 Q1278.95 52.6791 1275.01 52.6791 Q1270.04 52.6791 1267.09 49.9014 Q1264.16 47.0947 1264.16 42.4072 Q1264.16 36.9385 1267.81 34.1607 Q1271.48 31.3829 1278.75 31.3829 L1286.21 31.3829 L1286.21 30.8621 Q1286.21 27.1874 1283.78 25.1908 Q1281.38 23.1654 1277.01 23.1654 Q1274.23 23.1654 1271.6 23.8309 Q1268.97 24.4964 1266.54 25.8274 L1266.54 20.9085 Q1269.46 19.78 1272.21 19.2302 Q1274.96 18.6515 1277.56 18.6515 Q1284.59 18.6515 1288.06 22.2973 Q1291.54 25.9431 1291.54 33.3505 Z" fill="#000000" fill-rule="nonzero" fill-opacity="1" /><path clip-path="url(#clip660)" d="M1307.77 10.2314 L1307.77 19.4328 L1318.74 19.4328 L1318.74 23.5705 L1307.77 23.5705 L1307.77 41.163 Q1307.77 45.1271 1308.84 46.2555 Q1309.94 47.384 1313.27 47.384 L1318.74 47.384 L1318.74 51.84 L1313.27 51.84 Q1307.1 51.84 1304.76 49.5541 Q1302.42 47.2393 1302.42 41.163 L1302.42 23.5705 L1298.51 23.5705 L1298.51 19.4328 L1302.42 19.4328 L1302.42 10.2314 L1307.77 10.2314 Z" fill="#000000" fill-rule="nonzero" fill-opacity="1" /><path clip-path="url(#clip660)" d="M1325.74 19.4328 L1331.06 19.4328 L1331.06 51.84 L1325.74 51.84 L1325.74 19.4328 M1325.74 6.81709 L1331.06 6.81709 L1331.06 13.559 L1325.74 13.559 L1325.74 6.81709 Z" fill="#000000" fill-rule="nonzero" fill-opacity="1" /><path clip-path="url(#clip660)" d="M1354.76 23.1654 Q1350.48 23.1654 1347.99 26.5218 Q1345.5 29.8494 1345.5 35.6653 Q1345.5 41.4813 1347.96 44.8377 Q1350.45 48.1653 1354.76 48.1653 Q1359.01 48.1653 1361.5 44.8088 Q1363.99 41.4523 1363.99 35.6653 Q1363.99 29.9072 1361.5 26.5508 Q1359.01 23.1654 1354.76 23.1654 M1354.76 18.6515 Q1361.7 18.6515 1365.67 23.1654 Q1369.63 27.6792 1369.63 35.6653 Q1369.63 43.6225 1365.67 48.1653 Q1361.7 52.6791 1354.76 52.6791 Q1347.79 52.6791 1343.82 48.1653 Q1339.89 43.6225 1339.89 35.6653 Q1339.89 27.6792 1343.82 23.1654 Q1347.79 18.6515 1354.76 18.6515 Z" fill="#000000" fill-rule="nonzero" fill-opacity="1" /><path clip-path="url(#clip660)" d="M1405.4 32.2799 L1405.4 51.84 L1400.07 51.84 L1400.07 32.4535 Q1400.07 27.8529 1398.28 25.567 Q1396.48 23.2811 1392.9 23.2811 Q1388.58 23.2811 1386.1 26.03 Q1383.61 28.7788 1383.61 33.5241 L1383.61 51.84 L1378.26 51.84 L1378.26 19.4328 L1383.61 19.4328 L1383.61 24.4675 Q1385.52 21.545 1388.09 20.0983 Q1390.7 18.6515 1394.08 18.6515 Q1399.67 18.6515 1402.53 22.1237 Q1405.4 25.567 1405.4 32.2799 Z" fill="#000000" fill-rule="nonzero" fill-opacity="1" /><path clip-path="url(#clip660)" d="M1449.58 35.5496 Q1443.13 35.5496 1440.64 37.0253 Q1438.15 38.501 1438.15 42.06 Q1438.15 44.8956 1440 46.5738 Q1441.88 48.2231 1445.09 48.2231 Q1449.52 48.2231 1452.18 45.0981 Q1454.87 41.9442 1454.87 36.7359 L1454.87 35.5496 L1449.58 35.5496 M1460.2 33.3505 L1460.2 51.84 L1454.87 51.84 L1454.87 46.921 Q1453.05 49.8724 1450.33 51.2902 Q1447.61 52.6791 1443.68 52.6791 Q1438.7 52.6791 1435.75 49.9014 Q1432.83 47.0947 1432.83 42.4072 Q1432.83 36.9385 1436.47 34.1607 Q1440.15 31.3829 1447.41 31.3829 L1454.87 31.3829 L1454.87 30.8621 Q1454.87 27.1874 1452.44 25.1908 Q1450.04 23.1654 1445.67 23.1654 Q1442.9 23.1654 1440.26 23.8309 Q1437.63 24.4964 1435.2 25.8274 L1435.2 20.9085 Q1438.12 19.78 1440.87 19.2302 Q1443.62 18.6515 1446.22 18.6515 Q1453.25 18.6515 1456.73 22.2973 Q1460.2 25.9431 1460.2 33.3505 Z" fill="#000000" fill-rule="nonzero" fill-opacity="1" /><path clip-path="url(#clip660)" d="M1476.43 10.2314 L1476.43 19.4328 L1487.4 19.4328 L1487.4 23.5705 L1476.43 23.5705 L1476.43 41.163 Q1476.43 45.1271 1477.5 46.2555 Q1478.6 47.384 1481.93 47.384 L1487.4 47.384 L1487.4 51.84 L1481.93 51.84 Q1475.77 51.84 1473.42 49.5541 Q1471.08 47.2393 1471.08 41.163 L1471.08 23.5705 L1467.17 23.5705 L1467.17 19.4328 L1471.08 19.4328 L1471.08 10.2314 L1476.43 10.2314 Z" fill="#000000" fill-rule="nonzero" fill-opacity="1" /><path clip-path="url(#clip660)" d="M1518.5 10.2314 L1518.5 19.4328 L1529.47 19.4328 L1529.47 23.5705 L1518.5 23.5705 L1518.5 41.163 Q1518.5 45.1271 1519.57 46.2555 Q1520.67 47.384 1524 47.384 L1529.47 47.384 L1529.47 51.84 L1524 51.84 Q1517.84 51.84 1515.49 49.5541 Q1513.15 47.2393 1513.15 41.163 L1513.15 23.5705 L1509.24 23.5705 L1509.24 19.4328 L1513.15 19.4328 L1513.15 10.2314 L1518.5 10.2314 Z" fill="#000000" fill-rule="nonzero" fill-opacity="1" /><path clip-path="url(#clip660)" d="M1537.17 24.9304 L1574.26 24.9304 L1574.26 29.7915 L1537.17 29.7915 L1537.17 24.9304 M1537.17 36.7359 L1574.26 36.7359 L1574.26 41.6549 L1537.17 41.6549 L1537.17 36.7359 Z" fill="#000000" fill-rule="nonzero" fill-opacity="1" /><path clip-path="url(#clip660)" d="M1644.4 46.921 L1653.95 46.921 L1653.95 13.964 L1643.56 16.0474 L1643.56 10.7233 L1653.89 8.64 L1659.74 8.64 L1659.74 46.921 L1669.28 46.921 L1669.28 51.84 L1644.4 51.84 L1644.4 46.921 Z" fill="#000000" fill-rule="nonzero" fill-opacity="1" /><path clip-path="url(#clip660)" d="M1681.09 44.4905 L1687.19 44.4905 L1687.19 51.84 L1681.09 51.84 L1681.09 44.4905 Z" fill="#000000" fill-rule="nonzero" fill-opacity="1" /><path clip-path="url(#clip660)" d="M1712.43 12.4884 Q1707.91 12.4884 1705.63 16.9444 Q1703.37 21.3714 1703.37 30.2834 Q1703.37 39.1665 1705.63 43.6225 Q1707.91 48.0495 1712.43 48.0495 Q1716.97 48.0495 1719.23 43.6225 Q1721.51 39.1665 1721.51 30.2834 Q1721.51 21.3714 1719.23 16.9444 Q1716.97 12.4884 1712.43 12.4884 M1712.43 7.85875 Q1719.69 7.85875 1723.51 13.6168 Q1727.36 19.346 1727.36 30.2834 Q1727.36 41.1919 1723.51 46.95 Q1719.69 52.6791 1712.43 52.6791 Q1705.16 52.6791 1701.31 46.95 Q1697.5 41.1919 1697.5 30.2834 Q1697.5 19.346 1701.31 13.6168 Q1705.16 7.85875 1712.43 7.85875 Z" fill="#000000" fill-rule="nonzero" fill-opacity="1" /><path clip-path="url(#clip660)" d="M1750.13 12.4884 Q1745.61 12.4884 1743.33 16.9444 Q1741.07 21.3714 1741.07 30.2834 Q1741.07 39.1665 1743.33 43.6225 Q1745.61 48.0495 1750.13 48.0495 Q1754.67 48.0495 1756.93 43.6225 Q1759.21 39.1665 1759.21 30.2834 Q1759.21 21.3714 1756.93 16.9444 Q1754.67 12.4884 1750.13 12.4884 M1750.13 7.85875 Q1757.39 7.85875 1761.21 13.6168 Q1765.06 19.346 1765.06 30.2834 Q1765.06 41.1919 1761.21 46.95 Q1757.39 52.6791 1750.13 52.6791 Q1742.87 52.6791 1739.02 46.95 Q1735.2 41.1919 1735.2 30.2834 Q1735.2 19.346 1739.02 13.6168 Q1742.87 7.85875 1750.13 7.85875 Z" fill="#000000" fill-rule="nonzero" fill-opacity="1" /><path clip-path="url(#clip660)" d="M1787.83 12.4884 Q1783.32 12.4884 1781.03 16.9444 Q1778.77 21.3714 1778.77 30.2834 Q1778.77 39.1665 1781.03 43.6225 Q1783.32 48.0495 1787.83 48.0495 Q1792.37 48.0495 1794.63 43.6225 Q1796.92 39.1665 1796.92 30.2834 Q1796.92 21.3714 1794.63 16.9444 Q1792.37 12.4884 1787.83 12.4884 M1787.83 7.85875 Q1795.09 7.85875 1798.91 13.6168 Q1802.76 19.346 1802.76 30.2834 Q1802.76 41.1919 1798.91 46.95 Q1795.09 52.6791 1787.83 52.6791 Q1780.57 52.6791 1776.72 46.95 Q1772.9 41.1919 1772.9 30.2834 Q1772.9 19.346 1776.72 13.6168 Q1780.57 7.85875 1787.83 7.85875 Z" fill="#000000" fill-rule="nonzero" fill-opacity="1" /><polyline clip-path="url(#clip661)" style="stroke:#009af9; stroke-linecap:round; stroke-linejoin:round; stroke-width:4; stroke-opacity:1; fill:none" points="327.085,1127.52 330.623,1142.66 334.153,1156.61 337.676,1169.37 341.194,1181 344.706,1191.5 348.214,1200.89 351.717,1209.2 355.217,1216.44 358.713,1222.62 362.207,1227.74 365.698,1231.81 369.187,1234.83 372.675,1236.78 376.162,1237.67 379.649,1237.48 383.136,1236.22 386.625,1233.85 390.115,1230.38 393.607,1225.8 397.103,1220.08 400.603,1213.23 404.108,1205.24 407.619,1196.11 411.137,1185.83 414.663,1174.41 418.198,1161.86 421.743,1148.19 425.3,1133.43 428.869,1117.61 432.452,1100.74 436.05,1082.89 439.663,1064.09 443.293,1044.41 446.941,1023.9 450.607,1002.63 454.294,980.69 458,958.152 461.728,935.104 465.477,911.633 469.247,887.829 473.04,863.783 476.854,839.581 480.691,815.309 484.55,791.052 488.432,766.891 492.335,742.907 496.261,719.183 500.208,695.802 504.177,672.856 508.167,650.438 512.179,628.647 516.21,607.585 520.261,587.353 524.331,568.046 528.417,549.749 532.519,532.527 536.635,516.423 540.763,501.456 544.902,487.621 549.05,474.891 553.207,463.226 557.372,452.581 561.545,442.922 565.726,434.231 569.915,426.518 574.113,419.827 578.32,414.238 582.537,409.864 586.763,406.84 590.997,405.316 595.237,405.441 599.482,407.35 603.729,411.149 607.976,416.907 612.218,424.652 616.453,434.373 620.679,446.022 624.892,459.523 629.09,474.783 633.272,491.696 637.435,510.151 641.578,530.036 645.7,551.236 649.8,573.637 653.875,597.119 657.926,621.557 661.952,646.822 665.951,672.777 669.923,699.282 673.868,726.195 677.787,753.372 681.678,780.675 685.543,807.972 689.382,835.139 693.195,862.06 696.984,888.633 700.75,914.766 704.493,940.378 708.216,965.399 711.917,989.771 715.6,1013.45 719.265,1036.38 722.913,1058.55 726.545,1079.93 730.162,1100.49 733.766,1120.24 737.356,1139.15 740.935,1157.24 744.503,1174.5 748.06,1190.93 751.608,1206.55 755.147,1221.37 758.678,1235.39 762.202,1248.62 765.719,1261.08 769.229,1272.79 772.734,1283.75 776.234,1293.98 779.728,1303.5 783.219,1312.31 786.706,1320.43 790.19,1327.87 793.67,1334.66 797.148,1340.79 800.624,1346.28 804.098,1351.14 807.571,1355.4 811.043,1359.05 814.514,1362.12 817.985,1364.62 821.456,1366.55 824.928,1367.95 828.4,1368.81 831.873,1369.16 835.347,1369.01 838.823,1368.38 842.301,1367.27 845.781,1365.71 849.263,1363.71 852.747,1361.29 856.234,1358.45 859.724,1355.2 863.216,1351.56 866.711,1347.54 870.21,1343.14 873.711,1338.36 877.215,1333.22 880.723,1327.7 884.234,1321.81 887.749,1315.55 891.267,1308.92 894.789,1301.89 898.315,1294.48 901.845,1286.67 905.379,1278.45 908.918,1269.82 912.462,1260.77 916.011,1251.29 919.565,1241.37 923.126,1231.02 926.692,1220.22 930.265,1208.97 933.845,1197.28 937.432,1185.14 941.027,1172.56 944.63,1159.55 948.242,1146.12 951.863,1132.27 955.493,1118.03 959.133,1103.39 962.783,1088.39 966.443,1073.03 970.114,1057.34 973.796,1041.33 977.489,1025.02 981.194,1008.45 984.91,991.612 988.638,974.547 992.379,957.272 996.131,939.809 999.896,922.181 1003.67,904.409 1007.46,886.518 1011.27,868.53 1015.08,850.468 1018.91,832.355 1022.75,814.213 1026.61,796.064 1030.48,777.933 1034.36,759.841 1038.25,741.813 1042.16,723.875 1046.08,706.056 1050.02,688.386 1053.96,670.902 1057.93,653.642 1061.9,636.651 1065.89,619.977 1069.89,603.671 1073.91,587.787 1077.93,572.379 1081.97,557.498 1086.03,543.19 1090.09,529.493 1094.16,516.434 1098.24,504.026 1102.33,492.269 1106.42,481.148 1110.52,470.635 1114.63,460.693 1118.74,451.279 1122.85,442.349 1126.97,433.863 1131.1,425.789 1135.23,418.108 1139.36,410.817 1143.51,403.93 1147.66,397.481 1151.81,391.523 1155.98,386.131 1160.16,381.392 1164.34,377.412 1168.53,374.305 1172.73,372.19 1176.94,371.186 1181.15,371.405 1185.36,372.944 1189.58,375.879 1193.79,380.259 1198,386.103 1202.21,393.398 1206.4,402.098 1210.59,412.129 1214.76,423.39 1218.92,435.764 1223.06,449.116 1227.18,463.305 1231.29,478.188 1235.38,493.623 1239.45,509.47 1243.5,525.601 1247.53,541.894 1251.55,558.243 1255.55,574.552 1259.53,590.741 1263.5,606.743 1267.46,622.509 1271.4,638.001 1275.33,653.198 1279.25,668.092 1283.16,682.687 1287.06,697 1290.96,711.054 1294.84,724.881 1298.72,738.516 1302.59,751.994 1306.45,765.349 1310.3,778.61 1314.15,791.796 1317.99,804.92 1321.82,817.981 1325.64,830.967 1329.45,843.857 1333.25,856.615 1337.04,869.201 1340.82,881.565 1344.58,893.651 1348.34,905.403 1352.09,916.76 1355.82,927.664 1359.55,938.059 1363.26,947.892 1366.97,957.116 1370.67,965.686 1374.36,973.566 1378.05,980.728 1381.73,987.146 1385.41,992.805 1389.08,997.695 1392.75,1001.81 1396.41,1005.17 1400.08,1007.76 1403.75,1009.61 1407.41,1010.75 1411.08,1011.19 1414.75,1010.97 1418.42,1010.13 1422.1,1008.7 1425.78,1006.72 1429.46,1004.23 1433.15,1001.27 1436.84,997.892 1440.54,994.124 1444.24,990.005 1447.94,985.566 1451.65,980.834 1455.36,975.832 1459.08,970.573 1462.8,965.066 1466.52,959.313 1470.25,953.307 1473.98,947.036 1477.71,940.481 1481.44,933.617 1485.18,926.415 1488.92,918.841 1492.66,910.86 1496.4,902.432 1500.15,893.52 1503.9,884.083 1507.65,874.084 1511.41,863.486 1515.17,852.255 1518.93,840.358 1522.71,827.767 1526.49,814.456 1530.27,800.406 1534.07,785.6 1537.88,770.028 1541.69,753.687 1545.52,736.581 1549.37,718.724 1553.23,700.14 1557.1,680.866 1560.99,660.949 1564.91,640.456 1568.84,619.468 1572.79,598.084 1576.77,576.425 1580.77,554.629 1584.8,532.854 1588.85,511.276 1592.93,490.086 1597.04,469.484 1601.17,449.679 1605.33,430.874 1609.51,413.266 1613.71,397.035 1617.92,382.338 1622.16,369.302 1626.41,358.021 1630.67,348.556 1634.93,340.933 1639.2,335.144 1643.47,331.155 1647.75,328.905 1652.01,328.312 1656.27,329.281 1660.53,331.704 1664.78,335.468 1669.02,340.456 1673.24,346.555 1677.46,353.652 1681.66,361.647 1685.86,370.444 1690.04,379.961 1694.21,390.128 1698.38,400.887 1702.53,412.191 1706.67,424.009 1710.8,436.317 1714.92,449.102 1719.03,462.361 1723.13,476.095 1727.22,490.308 1731.31,505.009 1735.38,520.203 1739.44,535.896 1743.49,552.089 1747.53,568.775 1751.56,585.946 1755.57,603.582 1759.57,621.661 1763.56,640.15 1767.53,659.013 1771.48,678.207 1775.42,697.685 1779.35,717.396 1783.26,737.285 1787.15,757.299 1791.03,777.379 1794.89,797.471 1798.73,817.518 1802.56,837.466 1806.37,857.264 1810.17,876.859 1813.94,896.206 1817.71,915.257 1821.46,933.971 1825.19,952.306 1828.91,970.225 1832.62,987.691 1836.31,1004.67 1839.99,1021.13 1843.66,1037.05 1847.31,1052.38 1850.95,1067.12 1854.59,1081.22 1858.21,1094.68 1861.82,1107.45 1865.42,1119.54 1869.01,1130.9 1872.6,1141.53 1876.18,1151.41 1879.74,1160.51 1883.31,1168.83 1886.86,1176.34 1890.41,1183.04 1893.96,1188.91 1897.5,1193.93 1901.04,1198.1 1904.57,1201.4 1908.1,1203.83 1911.63,1205.36 1915.15,1206 1918.68,1205.72 1922.2,1204.53 1925.73,1202.41 1929.25,1199.36 1932.78,1195.37 1936.31,1190.43 1939.84,1184.54 1943.38,1177.69 1946.92,1169.87 1950.46,1161.08 1954.01,1151.31 1957.56,1140.57 1961.12,1128.84 1964.69,1116.13 1968.27,1102.44 1971.85,1087.76 1975.45,1072.09 1979.05,1055.44 1982.67,1037.81 1986.3,1019.2 1989.94,999.617 1993.6,979.066 1997.26,957.557 2000.95,935.1 2004.65,911.71 2008.37,887.402 2012.11,862.198 2015.86,836.125 2019.64,809.214 2023.44,781.508 2027.27,753.056 2031.11,723.921 2034.99,694.182 2038.89,663.933 2042.83,633.289 2046.79,602.388 2050.78,571.39 2054.81,540.481 2058.87,509.87 2062.97,479.787 2067.1,450.473 2071.26,422.174 2075.45,395.126 2079.67,369.538 2083.91,345.58 2088.18,323.369 2092.46,302.962 2096.76,284.356 2101.08,267.496 2105.4,252.297 2109.73,238.657 2114.07,226.484 2118.42,215.711 2122.77,206.304 2127.14,198.274 2131.51,191.673 2135.9,186.584 2140.29,183.119 2144.69,181.405 2149.1,181.579 2153.52,183.776 2157.94,188.129 2162.36,194.766 2166.78,203.807 2171.2,215.372 2175.62,229.57 2180.02,246.502 2184.42,266.244 2188.79,288.832 2193.14,314.238 2197.47,342.357 2201.75,372.996 2206.01,405.872 2210.21,440.635 2214.37,476.885 2218.49,514.203 2222.56,552.176 2226.58,590.414 2230.55,628.568 2234.48,666.333 2238.37,703.453 2242.22,739.715 2246.04,774.951 2249.82,809.028 2253.57,841.846 2257.29,873.332 2260.99,903.437 2264.67,932.131 2268.32,959.398 2271.96,985.236 2275.57,1009.65 2279.18,1032.66 2282.77,1054.29 2286.34,1074.56 2289.91,1093.5 2293.46,1111.14 "/>
<polyline clip-path="url(#clip661)" style="stroke:#e26f46; stroke-linecap:round; stroke-linejoin:round; stroke-width:4; stroke-opacity:1; fill:none" points="316.984,1074.72 320.832,1094.76 324.679,1113.52 328.527,1131.02 332.374,1147.25 336.222,1162.23 340.069,1175.94 343.917,1188.4 347.764,1199.6 351.612,1209.54 355.459,1218.21 359.307,1225.61 363.154,1231.73 367.002,1236.56 370.849,1240.09 374.697,1242.3 378.545,1243.19 382.392,1242.73 386.24,1240.93 390.087,1237.77 393.935,1233.23 397.782,1227.33 401.63,1220.05 405.477,1211.39 409.325,1201.38 413.172,1190.01 417.02,1177.31 420.867,1163.3 424.715,1148.02 428.562,1131.5 432.41,1113.81 436.257,1094.99 440.105,1075.11 443.952,1054.25 447.8,1032.49 451.647,1009.93 455.495,986.646 459.342,962.757 463.19,938.363 467.037,913.573 470.885,888.493 474.732,863.228 478.58,837.88 482.427,812.545 486.275,787.313 490.122,762.265 493.97,737.473 497.817,713.004 501.665,688.915 505.512,665.259 509.36,642.083 513.207,619.435 517.055,597.362 520.902,575.917 524.75,555.159 528.597,535.155 532.445,515.982 536.292,497.73 540.14,480.495 543.987,464.382 547.835,449.499 551.682,435.954 555.53,423.85 559.377,413.278 563.225,404.315 567.072,397.02 570.92,391.428 574.767,387.552 578.615,385.382 582.462,384.889 586.31,386.025 590.157,388.732 594.005,392.943 597.852,398.587 601.7,405.6 605.547,413.919 609.395,423.492 613.242,434.277 617.09,446.24 620.937,459.355 624.785,473.601 628.632,488.959 632.48,505.409 636.327,522.926 640.175,541.478 644.022,561.024 647.87,581.511 651.717,602.878 655.565,625.05 659.412,647.945 663.26,671.472 667.107,695.532 670.955,720.026 674.802,744.85 678.65,769.902 682.497,795.081 686.345,820.293 690.192,845.446 694.04,870.457 697.887,895.251 701.735,919.759 705.582,943.921 709.43,967.686 713.277,991.007 717.125,1013.85 720.972,1036.17 724.82,1057.96 728.667,1079.18 732.515,1099.82 736.362,1119.86 740.21,1139.28 744.057,1158.07 747.905,1176.21 751.752,1193.69 755.6,1210.49 759.447,1226.6 763.295,1242 767.142,1256.68 770.99,1270.62 774.837,1283.8 778.685,1296.21 782.532,1307.84 786.38,1318.68 790.227,1328.71 794.075,1337.93 797.922,1346.33 801.77,1353.91 805.617,1360.67 809.465,1366.61 813.312,1371.74 817.16,1376.06 821.007,1379.58 824.855,1382.31 828.702,1384.27 832.55,1385.46 836.397,1385.91 840.245,1385.62 844.092,1384.61 847.94,1382.91 851.787,1380.51 855.635,1377.45 859.482,1373.73 863.33,1369.36 867.177,1364.37 871.025,1358.76 874.872,1352.54 878.72,1345.73 882.567,1338.33 886.415,1330.36 890.262,1321.82 894.11,1312.72 897.957,1303.06 901.805,1292.85 905.652,1282.1 909.5,1270.82 913.347,1259.01 917.195,1246.67 921.042,1233.82 924.89,1220.48 928.737,1206.64 932.585,1192.33 936.433,1177.57 940.28,1162.37 944.128,1146.76 947.975,1130.76 951.823,1114.41 955.67,1097.74 959.518,1080.78 963.365,1063.57 967.213,1046.16 971.06,1028.58 974.908,1010.88 978.755,993.098 982.603,975.279 986.45,957.462 990.298,939.684 994.145,921.977 997.993,904.373 1001.84,886.896 1005.69,869.565 1009.54,852.398 1013.38,835.404 1017.23,818.591 1021.08,801.962 1024.93,785.518 1028.77,769.258 1032.62,753.18 1036.47,737.283 1040.32,721.567 1044.16,706.034 1048.01,690.689 1051.86,675.541 1055.71,660.601 1059.55,645.885 1063.4,631.413 1067.25,617.21 1071.1,603.302 1074.94,589.722 1078.79,576.505 1082.64,563.685 1086.49,551.302 1090.33,539.391 1094.18,527.989 1098.03,517.125 1101.88,506.826 1105.72,497.109 1109.57,487.983 1113.42,479.448 1117.27,471.491 1121.11,464.093 1124.96,457.223 1128.81,450.843 1132.66,444.91 1136.5,439.379 1140.35,434.206 1144.2,429.353 1148.05,424.788 1151.89,420.492 1155.74,416.461 1159.59,412.707 1163.44,409.258 1167.28,406.16 1171.13,403.477 1174.98,401.286 1178.83,399.672 1182.67,398.731 1186.52,398.557 1190.37,399.243 1194.22,400.872 1198.06,403.514 1201.91,407.222 1205.76,412.028 1209.61,417.941 1213.45,424.947 1217.3,433.008 1221.15,442.066 1225,452.043 1228.84,462.847 1232.69,474.378 1236.54,486.529 1240.39,499.194 1244.23,512.269 1248.08,525.663 1251.93,539.293 1255.78,553.093 1259.62,567.01 1263.47,581.008 1267.32,595.067 1271.17,609.178 1275.01,623.343 1278.86,637.574 1282.71,651.887 1286.56,666.299 1290.4,680.83 1294.25,695.494 1298.1,710.301 1301.95,725.252 1305.79,740.343 1309.64,755.559 1313.49,770.874 1317.34,786.257 1321.18,801.664 1325.03,817.045 1328.88,832.342 1332.73,847.492 1336.57,862.428 1340.42,877.08 1344.27,891.376 1348.12,905.248 1351.96,918.626 1355.81,931.448 1359.66,943.654 1363.51,955.189 1367.35,966.007 1371.2,976.066 1375.05,985.333 1378.9,993.78 1382.74,1001.39 1386.59,1008.14 1390.44,1014.04 1394.29,1019.07 1398.13,1023.23 1401.98,1026.54 1405.83,1029.01 1409.68,1030.64 1413.52,1031.45 1417.37,1031.47 1421.22,1030.7 1425.07,1029.18 1428.91,1026.91 1432.76,1023.94 1436.61,1020.27 1440.46,1015.94 1444.3,1010.97 1448.15,1005.38 1452,999.191 1455.85,992.434 1459.69,985.126 1463.54,977.289 1467.39,968.939 1471.24,960.095 1475.08,950.772 1478.93,940.981 1482.78,930.734 1486.63,920.04 1490.47,908.907 1494.32,897.34 1498.17,885.345 1502.02,872.926 1505.86,860.087 1509.71,846.835 1513.56,833.175 1517.41,819.118 1521.25,804.673 1525.1,789.857 1528.95,774.688 1532.8,759.189 1536.64,743.389 1540.49,727.32 1544.34,711.019 1548.19,694.526 1552.03,677.887 1555.88,661.149 1559.73,644.363 1563.58,627.581 1567.42,610.858 1571.27,594.249 1575.12,577.809 1578.97,561.597 1582.81,545.669 1586.66,530.082 1590.51,514.894 1594.36,500.163 1598.2,485.945 1602.05,472.295 1605.9,459.266 1609.75,446.91 1613.59,435.272 1617.44,424.394 1621.29,414.312 1625.14,405.054 1628.98,396.642 1632.83,389.091 1636.68,382.408 1640.53,376.592 1644.37,371.638 1648.22,367.535 1652.07,364.269 1655.92,361.823 1659.76,360.18 1663.61,359.325 1667.46,359.243 1671.31,359.925 1675.15,361.362 1679,363.553 1682.85,366.498 1686.7,370.202 1690.54,374.673 1694.39,379.921 1698.24,385.957 1702.09,392.792 1705.93,400.438 1709.78,408.904 1713.63,418.196 1717.48,428.32 1721.32,439.276 1725.17,451.061 1729.02,463.667 1732.87,477.083 1736.71,491.292 1740.56,506.272 1744.41,521.998 1748.26,538.44 1752.1,555.562 1755.95,573.327 1759.8,591.692 1763.65,610.612 1767.49,630.038 1771.34,649.92 1775.19,670.206 1779.04,690.843 1782.88,711.775 1786.73,732.947 1790.58,754.303 1794.43,775.786 1798.27,797.341 1802.12,818.912 1805.97,840.441 1809.82,861.875 1813.66,883.157 1817.51,904.232 1821.36,925.048 1825.21,945.55 1829.05,965.687 1832.9,985.407 1836.75,1004.66 1840.6,1023.4 1844.44,1041.57 1848.29,1059.14 1852.14,1076.05 1855.99,1092.27 1859.83,1107.74 1863.68,1122.44 1867.53,1136.32 1871.38,1149.34 1875.22,1161.47 1879.07,1172.68 1882.92,1182.93 1886.77,1192.2 1890.61,1200.45 1894.46,1207.65 1898.31,1213.78 1902.16,1218.82 1906,1222.74 1909.85,1225.53 1913.7,1227.16 1917.55,1227.63 1921.39,1226.9 1925.24,1224.99 1929.09,1221.86 1932.94,1217.53 1936.78,1211.98 1940.63,1205.21 1944.48,1197.21 1948.33,1188 1952.17,1177.58 1956.02,1165.95 1959.87,1153.12 1963.72,1139.11 1967.56,1123.92 1971.41,1107.58 1975.26,1090.11 1979.11,1071.51 1982.95,1051.83 1986.8,1031.09 1990.65,1009.31 1994.5,986.53 1998.34,962.785 2002.19,938.114 2006.04,912.56 2009.89,886.169 2013.73,858.992 2017.58,831.083 2021.43,802.503 2025.28,773.316 2029.12,743.59 2032.97,713.401 2036.82,682.83 2040.67,651.964 2044.51,620.896 2048.36,589.729 2052.21,558.571 2056.06,527.54 2059.9,496.762 2063.75,466.371 2067.6,436.511 2071.45,407.332 2075.29,378.989 2079.14,351.642 2082.99,325.453 2086.84,300.579 2090.68,277.174 2094.53,255.379 2098.38,235.324 2102.23,217.118 2106.07,200.851 2109.92,186.588 2113.77,174.37 2117.62,164.212 2121.46,156.107 2125.31,150.027 2129.16,145.93 2133.01,143.762 2136.85,143.465 2140.7,144.987 2144.55,148.279 2148.4,153.31 2152.24,160.06 2156.09,168.53 2159.94,178.731 2163.79,190.69 2167.63,204.436 2171.48,220.001 2175.33,237.409 2179.18,256.67 2183.02,277.778 2186.87,300.701 2190.72,325.385 2194.57,351.747 2198.41,379.677 2202.26,409.044 2206.11,439.691 2209.96,471.446 2213.8,504.122 2217.65,537.524 2221.5,571.452 2225.35,605.705 2229.19,640.086 2233.04,674.406 2236.89,708.486 2240.74,742.159 2244.58,775.272 2248.43,807.69 2252.28,839.291 2256.13,869.973 2259.97,899.648 2263.82,928.244 2267.67,955.702 2271.52,981.978 2275.36,1007.04 2279.21,1030.86 2283.06,1053.42 "/>
<polyline clip-path="url(#clip661)" style="stroke:#3da44d; stroke-linecap:round; stroke-linejoin:round; stroke-width:4; stroke-opacity:1; fill:none" points="316.984,1076.78 320.832,1097.62 324.679,1116.94 328.527,1134.75 332.374,1151.07 336.222,1165.92 340.069,1179.32 343.917,1191.3 347.764,1201.87 351.612,1211.07 355.459,1218.91 359.307,1225.4 363.154,1230.55 367.002,1234.37 370.849,1236.87 374.697,1238.03 378.545,1237.86 382.392,1236.34 386.24,1233.49 390.087,1229.28 393.935,1223.72 397.782,1216.8 401.63,1208.53 405.477,1198.93 409.325,1188.01 413.172,1175.8 417.02,1162.32 420.867,1147.62 424.715,1131.76 428.562,1114.79 432.41,1096.78 436.257,1077.81 440.105,1057.95 443.952,1037.29 447.8,1015.91 451.647,993.91 455.495,971.378 459.342,948.403 463.19,925.074 467.037,901.477 470.885,877.695 474.732,853.809 478.58,829.9 482.427,806.044 486.275,782.32 490.122,758.807 493.97,735.585 497.817,712.734 501.665,690.338 505.512,668.48 509.36,647.244 513.207,626.707 517.055,606.946 520.902,588.027 524.75,570.005 528.597,552.923 532.445,536.811 536.292,521.683 540.14,507.539 543.987,494.367 547.835,482.148 551.682,470.855 555.53,460.463 559.377,450.953 563.225,442.313 567.072,434.547 570.92,427.676 574.767,421.737 578.615,416.784 582.462,412.888 586.31,410.128 590.157,408.592 594.005,408.366 597.852,409.531 601.7,412.159 605.547,416.306 609.395,422.009 613.242,429.289 617.09,438.145 620.937,448.559 624.785,460.497 628.632,473.913 632.48,488.75 636.327,504.944 640.175,522.428 644.022,541.132 647.87,560.985 651.717,581.914 655.565,603.847 659.412,626.709 663.26,650.422 667.107,674.903 670.955,700.065 674.802,725.817 678.65,752.058 682.497,778.687 686.345,805.595 690.192,832.67 694.04,859.801 697.887,886.873 701.735,913.777 705.582,940.404 709.43,966.651 713.277,992.422 717.125,1017.63 720.972,1042.19 724.82,1066.03 728.667,1089.09 732.515,1111.31 736.362,1132.65 740.21,1153.08 744.057,1172.56 747.905,1191.07 751.752,1208.62 755.6,1225.17 759.447,1240.75 763.295,1255.35 767.142,1268.98 770.99,1281.65 774.837,1293.38 778.685,1304.18 782.532,1314.08 786.38,1323.09 790.227,1331.24 794.075,1338.55 797.922,1345.03 801.77,1350.72 805.617,1355.63 809.465,1359.78 813.312,1363.21 817.16,1365.94 821.007,1367.98 824.855,1369.37 828.702,1370.12 832.55,1370.26 836.397,1369.82 840.245,1368.82 844.092,1367.28 847.94,1365.22 851.787,1362.66 855.635,1359.62 859.482,1356.11 863.33,1352.16 867.177,1347.76 871.025,1342.92 874.872,1337.65 878.72,1331.94 882.567,1325.81 886.415,1319.23 890.262,1312.2 894.11,1304.73 897.957,1296.78 901.805,1288.36 905.652,1279.46 909.5,1270.06 913.347,1260.16 917.195,1249.75 921.042,1238.83 924.89,1227.4 928.737,1215.45 932.585,1202.99 936.433,1190.04 940.28,1176.59 944.128,1162.67 947.975,1148.3 951.823,1133.48 955.67,1118.25 959.518,1102.63 963.365,1086.64 967.213,1070.3 971.06,1053.65 974.908,1036.7 978.755,1019.5 982.603,1002.05 986.45,984.397 990.298,966.561 994.145,948.57 997.993,930.45 1001.84,912.228 1005.69,893.931 1009.54,875.584 1013.38,857.212 1017.23,838.841 1021.08,820.496 1024.93,802.203 1028.77,783.986 1032.62,765.872 1036.47,747.889 1040.32,730.066 1044.16,712.433 1048.01,695.025 1051.86,677.875 1055.71,661.022 1059.55,644.502 1063.4,628.356 1067.25,612.621 1071.1,597.334 1074.94,582.528 1078.79,568.233 1082.64,554.472 1086.49,541.26 1090.33,528.606 1094.18,516.508 1098.03,504.958 1101.88,493.939 1105.72,483.428 1109.57,473.398 1113.42,463.817 1117.27,454.659 1121.11,445.896 1124.96,437.511 1128.81,429.49 1132.66,421.835 1136.5,414.554 1140.35,407.672 1144.2,401.221 1148.05,395.248 1151.89,389.806 1155.74,384.959 1159.59,380.773 1163.44,377.319 1167.28,374.666 1171.13,372.884 1174.98,372.034 1178.83,372.173 1182.67,373.346 1186.52,375.591 1190.37,378.931 1194.22,383.38 1198.06,388.937 1201.91,395.589 1205.76,403.313 1209.61,412.073 1213.45,421.823 1217.3,432.509 1221.15,444.067 1225,456.426 1228.84,469.509 1232.69,483.235 1236.54,497.517 1240.39,512.268 1244.23,527.396 1248.08,542.814 1251.93,558.433 1255.78,574.169 1259.62,589.945 1263.47,605.688 1267.32,621.337 1271.17,636.837 1275.01,652.145 1278.86,667.231 1282.71,682.072 1286.56,696.659 1290.4,710.992 1294.25,725.077 1298.1,738.93 1301.95,752.57 1305.79,766.018 1309.64,779.296 1313.49,792.424 1317.34,805.417 1321.18,818.283 1325.03,831.024 1328.88,843.633 1332.73,856.093 1336.57,868.38 1340.42,880.458 1344.27,892.287 1348.12,903.819 1351.96,915 1355.81,925.774 1359.66,936.082 1363.51,945.867 1367.35,955.071 1371.2,963.642 1375.05,971.532 1378.9,978.698 1382.74,985.107 1386.59,990.731 1390.44,995.555 1394.29,999.57 1398.13,1002.78 1401.98,1005.19 1405.83,1006.82 1409.68,1007.71 1413.52,1007.88 1417.37,1007.38 1421.22,1006.24 1425.07,1004.53 1428.91,1002.28 1432.76,999.555 1436.61,996.39 1440.46,992.833 1444.3,988.921 1448.15,984.688 1452,980.16 1455.85,975.355 1459.69,970.282 1463.54,964.943 1467.39,959.332 1471.24,953.434 1475.08,947.229 1478.93,940.688 1482.78,933.78 1486.63,926.466 1490.47,918.707 1494.32,910.461 1498.17,901.686 1502.02,892.339 1505.86,882.38 1509.71,871.77 1513.56,860.473 1517.41,848.458 1521.25,835.699 1525.1,822.175 1528.95,807.872 1532.8,792.784 1536.64,776.913 1540.49,760.272 1544.34,742.882 1548.19,724.78 1552.03,706.011 1555.88,686.638 1559.73,666.734 1563.58,646.387 1567.42,625.7 1571.27,604.787 1575.12,583.773 1578.97,562.794 1582.81,541.992 1586.66,521.514 1590.51,501.508 1594.36,482.12 1598.2,463.491 1602.05,445.754 1605.9,429.03 1609.75,413.427 1613.59,399.037 1617.44,385.938 1621.29,374.187 1625.14,363.827 1628.98,354.885 1632.83,347.369 1636.68,341.276 1640.53,336.587 1644.37,333.273 1648.22,331.294 1652.07,330.6 1655.92,331.136 1659.76,332.838 1663.61,335.639 1667.46,339.469 1671.31,344.257 1675.15,349.929 1679,356.418 1682.85,363.657 1686.7,371.585 1690.54,380.147 1694.39,389.295 1698.24,398.989 1702.09,409.199 1705.93,419.901 1709.78,431.079 1713.63,442.725 1717.48,454.838 1721.32,467.419 1725.17,480.475 1729.02,494.016 1732.87,508.05 1736.71,522.585 1740.56,537.628 1744.41,553.183 1748.26,569.249 1752.1,585.82 1755.95,602.887 1759.8,620.433 1763.65,638.437 1767.49,656.871 1771.34,675.703 1775.19,694.896 1779.04,714.408 1782.88,734.194 1786.73,754.203 1790.58,774.385 1794.43,794.684 1798.27,815.044 1802.12,835.41 1805.97,855.724 1809.82,875.928 1813.66,895.967 1817.51,915.783 1821.36,935.324 1825.21,954.535 1829.05,973.366 1832.9,991.765 1836.75,1009.68 1840.6,1027.08 1844.44,1043.9 1848.29,1060.11 1852.14,1075.67 1855.99,1090.52 1859.83,1104.65 1863.68,1118 1867.53,1130.55 1871.38,1142.26 1875.22,1153.1 1879.07,1163.05 1882.92,1172.06 1886.77,1180.13 1890.61,1187.21 1894.46,1193.3 1898.31,1198.37 1902.16,1202.41 1906,1205.38 1909.85,1207.29 1913.7,1208.12 1917.55,1207.85 1921.39,1206.48 1925.24,1204 1929.09,1200.4 1932.94,1195.67 1936.78,1189.81 1940.63,1182.82 1944.48,1174.7 1948.33,1165.45 1952.17,1155.06 1956.02,1143.55 1959.87,1130.92 1963.72,1117.17 1967.56,1102.32 1971.41,1086.37 1975.26,1069.34 1979.11,1051.24 1982.95,1032.1 1986.8,1011.92 1990.65,990.73 1994.5,968.562 1998.34,945.442 2002.19,921.404 2006.04,896.49 2009.89,870.744 2013.73,844.221 2017.58,816.983 2021.43,789.101 2025.28,760.657 2029.12,731.745 2032.97,702.469 2036.82,672.947 2040.67,643.308 2044.51,613.69 2048.36,584.241 2052.21,555.115 2056.06,526.469 2059.9,498.46 2063.75,471.239 2067.6,444.949 2071.45,419.717 2075.29,395.655 2079.14,372.85 2082.99,351.368 2086.84,331.25 2090.68,312.511 2094.53,295.147 2098.38,279.134 2102.23,264.439 2106.07,251.022 2109.92,238.84 2113.77,227.862 2117.62,218.064 2121.46,209.438 2125.31,201.991 2129.16,195.75 2133.01,190.754 2136.85,187.057 2140.7,184.721 2144.55,183.817 2148.4,184.42 2152.24,186.604 2156.09,190.444 2159.94,196.011 2163.79,203.372 2167.63,212.588 2171.48,223.714 2175.33,236.798 2179.18,251.875 2183.02,268.972 2186.87,288.099 2190.72,309.249 2194.57,332.391 2198.41,357.473 2202.26,384.412 2206.11,413.1 2209.96,443.397 2213.8,475.137 2217.65,508.129 2221.5,542.162 2225.35,577.008 2229.19,612.433 2233.04,648.196 2236.89,684.057 2240.74,719.788 2244.58,755.166 2248.43,789.99 2252.28,824.071 2256.13,857.244 2259.97,889.362 2263.82,920.303 2267.67,949.963 2271.52,978.259 2275.36,1005.13 2279.21,1030.52 2283.06,1054.41 "/>
<path clip-path="url(#clip660)" d="M327.526 357.452 L1092.4 357.452 L1092.4 150.092 L327.526 150.092  Z" fill="#ffffff" fill-rule="evenodd" fill-opacity="1"/>
<polyline clip-path="url(#clip660)" style="stroke:#000000; stroke-linecap:round; stroke-linejoin:round; stroke-width:4; stroke-opacity:1; fill:none" points="327.526,357.452 1092.4,357.452 1092.4,150.092 327.526,150.092 327.526,357.452 "/>
<polyline clip-path="url(#clip660)" style="stroke:#009af9; stroke-linecap:round; stroke-linejoin:round; stroke-width:4; stroke-opacity:1; fill:none" points="350.804,201.932 490.475,201.932 "/>
<path clip-path="url(#clip660)" d="M513.754 193.286 L518.013 193.286 L523.337 213.517 L528.638 193.286 L533.661 193.286 L538.985 213.517 L544.286 193.286 L548.545 193.286 L541.763 219.212 L536.74 219.212 L531.161 197.962 L525.559 219.212 L520.536 219.212 L513.754 193.286 Z" fill="#000000" fill-rule="nonzero" fill-opacity="1" /><path clip-path="url(#clip660)" d="M566.786 206.179 Q561.624 206.179 559.633 207.36 Q557.642 208.54 557.642 211.388 Q557.642 213.656 559.124 214.999 Q560.628 216.318 563.198 216.318 Q566.74 216.318 568.869 213.818 Q571.022 211.295 571.022 207.128 L571.022 206.179 L566.786 206.179 M575.281 204.42 L575.281 219.212 L571.022 219.212 L571.022 215.277 Q569.564 217.638 567.388 218.772 Q565.212 219.883 562.064 219.883 Q558.082 219.883 555.721 217.661 Q553.383 215.415 553.383 211.665 Q553.383 207.29 556.3 205.068 Q559.24 202.846 565.05 202.846 L571.022 202.846 L571.022 202.429 Q571.022 199.49 569.078 197.892 Q567.156 196.272 563.661 196.272 Q561.439 196.272 559.332 196.804 Q557.226 197.337 555.281 198.402 L555.281 194.466 Q557.619 193.564 559.818 193.124 Q562.017 192.661 564.101 192.661 Q569.726 192.661 572.503 195.578 Q575.281 198.494 575.281 204.42 Z" fill="#000000" fill-rule="nonzero" fill-opacity="1" /><path clip-path="url(#clip660)" d="M588.267 185.925 L588.267 193.286 L597.04 193.286 L597.04 196.596 L588.267 196.596 L588.267 210.67 Q588.267 213.841 589.124 214.744 Q590.003 215.647 592.665 215.647 L597.04 215.647 L597.04 219.212 L592.665 219.212 Q587.735 219.212 585.86 217.383 Q583.985 215.531 583.985 210.67 L583.985 196.596 L580.86 196.596 L580.86 193.286 L583.985 193.286 L583.985 185.925 L588.267 185.925 Z" fill="#000000" fill-rule="nonzero" fill-opacity="1" /><path clip-path="url(#clip660)" d="M624.818 205.184 L624.818 207.267 L605.235 207.267 Q605.512 211.665 607.874 213.98 Q610.258 216.272 614.494 216.272 Q616.948 216.272 619.239 215.67 Q621.554 215.068 623.823 213.865 L623.823 217.892 Q621.531 218.864 619.124 219.374 Q616.716 219.883 614.239 219.883 Q608.036 219.883 604.401 216.272 Q600.79 212.661 600.79 206.503 Q600.79 200.138 604.216 196.411 Q607.665 192.661 613.499 192.661 Q618.73 192.661 621.762 196.041 Q624.818 199.397 624.818 205.184 M620.559 203.934 Q620.512 200.439 618.591 198.355 Q616.693 196.272 613.545 196.272 Q609.98 196.272 607.827 198.286 Q605.698 200.3 605.374 203.957 L620.559 203.934 Z" fill="#000000" fill-rule="nonzero" fill-opacity="1" /><path clip-path="url(#clip660)" d="M646.832 197.267 Q646.114 196.851 645.258 196.666 Q644.424 196.457 643.406 196.457 Q639.795 196.457 637.85 198.818 Q635.929 201.156 635.929 205.554 L635.929 219.212 L631.647 219.212 L631.647 193.286 L635.929 193.286 L635.929 197.314 Q637.272 194.953 639.424 193.818 Q641.577 192.661 644.656 192.661 Q645.096 192.661 645.628 192.73 Q646.16 192.777 646.809 192.892 L646.832 197.267 Z" fill="#000000" fill-rule="nonzero" fill-opacity="1" /><path clip-path="url(#clip660)" d="M663.892 193.286 L668.151 193.286 L673.475 213.517 L678.776 193.286 L683.799 193.286 L689.123 213.517 L694.424 193.286 L698.683 193.286 L691.901 219.212 L686.878 219.212 L681.299 197.962 L675.697 219.212 L670.674 219.212 L663.892 193.286 Z" fill="#000000" fill-rule="nonzero" fill-opacity="1" /><path clip-path="url(#clip660)" d="M716.924 206.179 Q711.762 206.179 709.771 207.36 Q707.78 208.54 707.78 211.388 Q707.78 213.656 709.262 214.999 Q710.767 216.318 713.336 216.318 Q716.878 216.318 719.007 213.818 Q721.16 211.295 721.16 207.128 L721.16 206.179 L716.924 206.179 M725.419 204.42 L725.419 219.212 L721.16 219.212 L721.16 215.277 Q719.702 217.638 717.526 218.772 Q715.35 219.883 712.202 219.883 Q708.22 219.883 705.859 217.661 Q703.521 215.415 703.521 211.665 Q703.521 207.29 706.438 205.068 Q709.378 202.846 715.188 202.846 L721.16 202.846 L721.16 202.429 Q721.16 199.49 719.216 197.892 Q717.294 196.272 713.799 196.272 Q711.577 196.272 709.47 196.804 Q707.364 197.337 705.419 198.402 L705.419 194.466 Q707.757 193.564 709.956 193.124 Q712.155 192.661 714.239 192.661 Q719.864 192.661 722.642 195.578 Q725.419 198.494 725.419 204.42 Z" fill="#000000" fill-rule="nonzero" fill-opacity="1" /><path clip-path="url(#clip660)" d="M731.137 193.286 L735.651 193.286 L743.752 215.045 L751.854 193.286 L756.368 193.286 L746.646 219.212 L740.859 219.212 L731.137 193.286 Z" fill="#000000" fill-rule="nonzero" fill-opacity="1" /><path clip-path="url(#clip660)" d="M784.424 205.184 L784.424 207.267 L764.84 207.267 Q765.118 211.665 767.479 213.98 Q769.863 216.272 774.1 216.272 Q776.553 216.272 778.845 215.67 Q781.16 215.068 783.428 213.865 L783.428 217.892 Q781.137 218.864 778.729 219.374 Q776.322 219.883 773.845 219.883 Q767.641 219.883 764.007 216.272 Q760.396 212.661 760.396 206.503 Q760.396 200.138 763.822 196.411 Q767.271 192.661 773.104 192.661 Q778.336 192.661 781.368 196.041 Q784.424 199.397 784.424 205.184 M780.164 203.934 Q780.118 200.439 778.197 198.355 Q776.299 196.272 773.15 196.272 Q769.586 196.272 767.433 198.286 Q765.303 200.3 764.979 203.957 L780.164 203.934 Z" fill="#000000" fill-rule="nonzero" fill-opacity="1" /><path clip-path="url(#clip660)" d="M807.942 194.05 L807.942 198.078 Q806.136 197.152 804.192 196.689 Q802.248 196.226 800.164 196.226 Q796.993 196.226 795.396 197.198 Q793.822 198.17 793.822 200.115 Q793.822 201.596 794.956 202.453 Q796.09 203.286 799.516 204.05 L800.974 204.374 Q805.511 205.346 807.41 207.128 Q809.331 208.888 809.331 212.059 Q809.331 215.67 806.46 217.777 Q803.613 219.883 798.613 219.883 Q796.53 219.883 794.261 219.466 Q792.016 219.073 789.516 218.263 L789.516 213.865 Q791.877 215.091 794.169 215.716 Q796.461 216.318 798.706 216.318 Q801.715 216.318 803.336 215.3 Q804.956 214.258 804.956 212.383 Q804.956 210.647 803.775 209.721 Q802.618 208.795 798.66 207.939 L797.178 207.591 Q793.22 206.758 791.461 205.045 Q789.701 203.309 789.701 200.3 Q789.701 196.642 792.294 194.652 Q794.886 192.661 799.655 192.661 Q802.016 192.661 804.099 193.008 Q806.183 193.355 807.942 194.05 Z" fill="#000000" fill-rule="nonzero" fill-opacity="1" /><polyline clip-path="url(#clip660)" style="stroke:#e26f46; stroke-linecap:round; stroke-linejoin:round; stroke-width:4; stroke-opacity:1; fill:none" points="350.804,253.772 490.475,253.772 "/>
<path clip-path="url(#clip660)" d="M539.309 266.121 L539.309 256.839 L531.67 256.839 L531.67 252.996 L543.939 252.996 L543.939 267.834 Q541.23 269.755 537.967 270.751 Q534.703 271.723 530.999 271.723 Q522.897 271.723 518.314 267.001 Q513.754 262.255 513.754 253.806 Q513.754 245.334 518.314 240.612 Q522.897 235.867 530.999 235.867 Q534.379 235.867 537.411 236.7 Q540.467 237.533 543.036 239.154 L543.036 244.131 Q540.443 241.932 537.527 240.82 Q534.61 239.709 531.393 239.709 Q525.05 239.709 521.856 243.251 Q518.684 246.793 518.684 253.806 Q518.684 260.797 521.856 264.339 Q525.05 267.88 531.393 267.88 Q533.869 267.88 535.814 267.464 Q537.758 267.024 539.309 266.121 Z" fill="#000000" fill-rule="nonzero" fill-opacity="1" /><path clip-path="url(#clip660)" d="M567.318 249.107 Q566.601 248.691 565.744 248.506 Q564.911 248.297 563.892 248.297 Q560.281 248.297 558.337 250.658 Q556.416 252.996 556.416 257.394 L556.416 271.052 L552.133 271.052 L552.133 245.126 L556.416 245.126 L556.416 249.154 Q557.758 246.793 559.911 245.658 Q562.064 244.501 565.142 244.501 Q565.582 244.501 566.115 244.57 Q566.647 244.617 567.295 244.732 L567.318 249.107 Z" fill="#000000" fill-rule="nonzero" fill-opacity="1" /><path clip-path="url(#clip660)" d="M592.92 257.024 L592.92 259.107 L573.337 259.107 Q573.615 263.505 575.976 265.82 Q578.36 268.112 582.596 268.112 Q585.05 268.112 587.341 267.51 Q589.656 266.908 591.925 265.705 L591.925 269.732 Q589.633 270.704 587.226 271.214 Q584.818 271.723 582.341 271.723 Q576.138 271.723 572.503 268.112 Q568.892 264.501 568.892 258.343 Q568.892 251.978 572.318 248.251 Q575.767 244.501 581.601 244.501 Q586.832 244.501 589.864 247.881 Q592.92 251.237 592.92 257.024 M588.661 255.774 Q588.614 252.279 586.693 250.195 Q584.795 248.112 581.647 248.112 Q578.082 248.112 575.929 250.126 Q573.8 252.14 573.476 255.797 L588.661 255.774 Z" fill="#000000" fill-rule="nonzero" fill-opacity="1" /><path clip-path="url(#clip660)" d="M622.086 257.024 L622.086 259.107 L602.503 259.107 Q602.781 263.505 605.142 265.82 Q607.526 268.112 611.762 268.112 Q614.216 268.112 616.508 267.51 Q618.823 266.908 621.091 265.705 L621.091 269.732 Q618.799 270.704 616.392 271.214 Q613.985 271.723 611.508 271.723 Q605.304 271.723 601.67 268.112 Q598.059 264.501 598.059 258.343 Q598.059 251.978 601.485 248.251 Q604.934 244.501 610.767 244.501 Q615.999 244.501 619.031 247.881 Q622.086 251.237 622.086 257.024 M617.827 255.774 Q617.781 252.279 615.86 250.195 Q613.962 248.112 610.813 248.112 Q607.249 248.112 605.096 250.126 Q602.966 252.14 602.642 255.797 L617.827 255.774 Z" fill="#000000" fill-rule="nonzero" fill-opacity="1" /><path clip-path="url(#clip660)" d="M650.628 255.404 L650.628 271.052 L646.369 271.052 L646.369 255.543 Q646.369 251.862 644.934 250.033 Q643.498 248.205 640.628 248.205 Q637.179 248.205 635.188 250.404 Q633.198 252.603 633.198 256.399 L633.198 271.052 L628.915 271.052 L628.915 245.126 L633.198 245.126 L633.198 249.154 Q634.725 246.816 636.785 245.658 Q638.869 244.501 641.577 244.501 Q646.045 244.501 648.336 247.279 Q650.628 250.033 650.628 255.404 Z" fill="#000000" fill-rule="nonzero" fill-opacity="1" /><path clip-path="url(#clip660)" d="M656.971 256.168 L669.447 256.168 L669.447 259.964 L656.971 259.964 L656.971 256.168 Z" fill="#000000" fill-rule="nonzero" fill-opacity="1" /><path clip-path="url(#clip660)" d="M676.415 236.492 L682.711 236.492 L698.035 265.404 L698.035 236.492 L702.572 236.492 L702.572 271.052 L696.276 271.052 L680.952 242.14 L680.952 271.052 L676.415 271.052 L676.415 236.492 Z" fill="#000000" fill-rule="nonzero" fill-opacity="1" /><path clip-path="url(#clip660)" d="M723.475 258.019 Q718.313 258.019 716.322 259.2 Q714.331 260.38 714.331 263.228 Q714.331 265.496 715.813 266.839 Q717.317 268.158 719.887 268.158 Q723.429 268.158 725.558 265.658 Q727.711 263.135 727.711 258.968 L727.711 258.019 L723.475 258.019 M731.97 256.26 L731.97 271.052 L727.711 271.052 L727.711 267.117 Q726.253 269.478 724.077 270.612 Q721.901 271.723 718.753 271.723 Q714.771 271.723 712.41 269.501 Q710.072 267.255 710.072 263.505 Q710.072 259.13 712.989 256.908 Q715.929 254.686 721.739 254.686 L727.711 254.686 L727.711 254.269 Q727.711 251.33 725.766 249.732 Q723.845 248.112 720.35 248.112 Q718.128 248.112 716.021 248.644 Q713.915 249.177 711.97 250.242 L711.97 246.306 Q714.308 245.404 716.507 244.964 Q718.706 244.501 720.79 244.501 Q726.415 244.501 729.192 247.418 Q731.97 250.334 731.97 256.26 Z" fill="#000000" fill-rule="nonzero" fill-opacity="1" /><path clip-path="url(#clip660)" d="M757.803 257.788 Q757.803 253.158 755.882 250.612 Q753.984 248.066 750.535 248.066 Q747.109 248.066 745.188 250.612 Q743.29 253.158 743.29 257.788 Q743.29 262.394 745.188 264.941 Q747.109 267.487 750.535 267.487 Q753.984 267.487 755.882 264.941 Q757.803 262.394 757.803 257.788 M762.063 267.834 Q762.063 274.454 759.123 277.672 Q756.183 280.913 750.118 280.913 Q747.873 280.913 745.882 280.566 Q743.891 280.241 742.016 279.547 L742.016 275.404 Q743.891 276.422 745.72 276.908 Q747.549 277.394 749.447 277.394 Q753.637 277.394 755.72 275.195 Q757.803 273.019 757.803 268.598 L757.803 266.492 Q756.484 268.783 754.424 269.917 Q752.364 271.052 749.493 271.052 Q744.725 271.052 741.808 267.417 Q738.891 263.783 738.891 257.788 Q738.891 251.769 741.808 248.135 Q744.725 244.501 749.493 244.501 Q752.364 244.501 754.424 245.635 Q756.484 246.769 757.803 249.061 L757.803 245.126 L762.063 245.126 L762.063 267.834 Z" fill="#000000" fill-rule="nonzero" fill-opacity="1" /><path clip-path="url(#clip660)" d="M792.386 255.404 L792.386 271.052 L788.127 271.052 L788.127 255.543 Q788.127 251.862 786.692 250.033 Q785.257 248.205 782.387 248.205 Q778.937 248.205 776.947 250.404 Q774.956 252.603 774.956 256.399 L774.956 271.052 L770.674 271.052 L770.674 235.033 L774.956 235.033 L774.956 249.154 Q776.484 246.816 778.544 245.658 Q780.627 244.501 783.336 244.501 Q787.803 244.501 790.095 247.279 Q792.386 250.033 792.386 255.404 Z" fill="#000000" fill-rule="nonzero" fill-opacity="1" /><path clip-path="url(#clip660)" d="M817.942 249.061 L817.942 235.033 L822.201 235.033 L822.201 271.052 L817.942 271.052 L817.942 267.163 Q816.599 269.478 814.539 270.612 Q812.502 271.723 809.632 271.723 Q804.933 271.723 801.97 267.973 Q799.03 264.223 799.03 258.112 Q799.03 252.001 801.97 248.251 Q804.933 244.501 809.632 244.501 Q812.502 244.501 814.539 245.635 Q816.599 246.746 817.942 249.061 M803.428 258.112 Q803.428 262.811 805.349 265.496 Q807.294 268.158 810.673 268.158 Q814.053 268.158 815.997 265.496 Q817.942 262.811 817.942 258.112 Q817.942 253.413 815.997 250.751 Q814.053 248.066 810.673 248.066 Q807.294 248.066 805.349 250.751 Q803.428 253.413 803.428 258.112 Z" fill="#000000" fill-rule="nonzero" fill-opacity="1" /><path clip-path="url(#clip660)" d="M830.974 245.126 L835.233 245.126 L835.233 271.052 L830.974 271.052 L830.974 245.126 M830.974 235.033 L835.233 235.033 L835.233 240.427 L830.974 240.427 L830.974 235.033 Z" fill="#000000" fill-rule="nonzero" fill-opacity="1" /><polyline clip-path="url(#clip660)" style="stroke:#3da44d; stroke-linecap:round; stroke-linejoin:round; stroke-width:4; stroke-opacity:1; fill:none" points="350.804,305.612 490.475,305.612 "/>
<path clip-path="url(#clip660)" d="M513.754 288.332 L518.476 288.332 L525.744 317.545 L532.99 288.332 L538.244 288.332 L545.513 317.545 L552.758 288.332 L557.503 288.332 L548.823 322.892 L542.943 322.892 L535.652 292.892 L528.291 322.892 L522.411 322.892 L513.754 288.332 Z" fill="#000000" fill-rule="nonzero" fill-opacity="1" /><path clip-path="url(#clip660)" d="M585.073 307.244 L585.073 322.892 L580.814 322.892 L580.814 307.383 Q580.814 303.702 579.378 301.873 Q577.943 300.045 575.073 300.045 Q571.624 300.045 569.633 302.244 Q567.642 304.443 567.642 308.239 L567.642 322.892 L563.36 322.892 L563.36 286.873 L567.642 286.873 L567.642 300.994 Q569.17 298.656 571.23 297.498 Q573.314 296.341 576.022 296.341 Q580.489 296.341 582.781 299.119 Q585.073 301.873 585.073 307.244 Z" fill="#000000" fill-rule="nonzero" fill-opacity="1" /><path clip-path="url(#clip660)" d="M593.568 296.966 L597.827 296.966 L597.827 322.892 L593.568 322.892 L593.568 296.966 M593.568 286.873 L597.827 286.873 L597.827 292.267 L593.568 292.267 L593.568 286.873 Z" fill="#000000" fill-rule="nonzero" fill-opacity="1" /><path clip-path="url(#clip660)" d="M610.952 289.605 L610.952 296.966 L619.725 296.966 L619.725 300.276 L610.952 300.276 L610.952 314.35 Q610.952 317.521 611.809 318.424 Q612.688 319.327 615.35 319.327 L619.725 319.327 L619.725 322.892 L615.35 322.892 Q610.42 322.892 608.545 321.063 Q606.67 319.211 606.67 314.35 L606.67 300.276 L603.545 300.276 L603.545 296.966 L606.67 296.966 L606.67 289.605 L610.952 289.605 Z" fill="#000000" fill-rule="nonzero" fill-opacity="1" /><path clip-path="url(#clip660)" d="M646.878 307.244 L646.878 322.892 L642.619 322.892 L642.619 307.383 Q642.619 303.702 641.184 301.873 Q639.748 300.045 636.878 300.045 Q633.429 300.045 631.438 302.244 Q629.448 304.443 629.448 308.239 L629.448 322.892 L625.165 322.892 L625.165 286.873 L629.448 286.873 L629.448 300.994 Q630.975 298.656 633.035 297.498 Q635.119 296.341 637.827 296.341 Q642.295 296.341 644.586 299.119 Q646.878 301.873 646.878 307.244 Z" fill="#000000" fill-rule="nonzero" fill-opacity="1" /><path clip-path="url(#clip660)" d="M667.156 309.859 Q661.994 309.859 660.003 311.04 Q658.012 312.22 658.012 315.068 Q658.012 317.336 659.494 318.679 Q660.998 319.998 663.568 319.998 Q667.109 319.998 669.239 317.498 Q671.392 314.975 671.392 310.808 L671.392 309.859 L667.156 309.859 M675.651 308.1 L675.651 322.892 L671.392 322.892 L671.392 318.957 Q669.933 321.318 667.758 322.452 Q665.582 323.563 662.433 323.563 Q658.452 323.563 656.091 321.341 Q653.753 319.095 653.753 315.345 Q653.753 310.97 656.67 308.748 Q659.609 306.526 665.42 306.526 L671.392 306.526 L671.392 306.109 Q671.392 303.17 669.447 301.572 Q667.526 299.952 664.031 299.952 Q661.808 299.952 659.702 300.484 Q657.596 301.017 655.651 302.082 L655.651 298.146 Q657.989 297.244 660.188 296.804 Q662.387 296.341 664.471 296.341 Q670.095 296.341 672.873 299.258 Q675.651 302.174 675.651 308.1 Z" fill="#000000" fill-rule="nonzero" fill-opacity="1" /><path clip-path="url(#clip660)" d="M704.609 301.943 Q706.206 299.072 708.429 297.707 Q710.651 296.341 713.66 296.341 Q717.711 296.341 719.91 299.188 Q722.109 302.012 722.109 307.244 L722.109 322.892 L717.827 322.892 L717.827 307.383 Q717.827 303.656 716.507 301.85 Q715.188 300.045 712.48 300.045 Q709.169 300.045 707.248 302.244 Q705.327 304.443 705.327 308.239 L705.327 322.892 L701.044 322.892 L701.044 307.383 Q701.044 303.633 699.725 301.85 Q698.406 300.045 695.651 300.045 Q692.387 300.045 690.466 302.267 Q688.544 304.466 688.544 308.239 L688.544 322.892 L684.262 322.892 L684.262 296.966 L688.544 296.966 L688.544 300.994 Q690.003 298.609 692.04 297.475 Q694.077 296.341 696.878 296.341 Q699.702 296.341 701.669 297.776 Q703.66 299.211 704.609 301.943 Z" fill="#000000" fill-rule="nonzero" fill-opacity="1" /><path clip-path="url(#clip660)" d="M728.452 308.008 L740.928 308.008 L740.928 311.804 L728.452 311.804 L728.452 308.008 Z" fill="#000000" fill-rule="nonzero" fill-opacity="1" /><path clip-path="url(#clip660)" d="M773.197 317.961 L773.197 308.679 L765.558 308.679 L765.558 304.836 L777.826 304.836 L777.826 319.674 Q775.118 321.595 771.854 322.591 Q768.59 323.563 764.887 323.563 Q756.785 323.563 752.202 318.841 Q747.641 314.095 747.641 305.646 Q747.641 297.174 752.202 292.452 Q756.785 287.707 764.887 287.707 Q768.266 287.707 771.299 288.54 Q774.354 289.373 776.924 290.994 L776.924 295.971 Q774.331 293.772 771.414 292.66 Q768.498 291.549 765.28 291.549 Q758.938 291.549 755.743 295.091 Q752.572 298.633 752.572 305.646 Q752.572 312.637 755.743 316.179 Q758.938 319.72 765.28 319.72 Q767.757 319.72 769.701 319.304 Q771.646 318.864 773.197 317.961 Z" fill="#000000" fill-rule="nonzero" fill-opacity="1" /><path clip-path="url(#clip660)" d="M801.206 300.947 Q800.488 300.531 799.632 300.346 Q798.799 300.137 797.78 300.137 Q794.169 300.137 792.224 302.498 Q790.303 304.836 790.303 309.234 L790.303 322.892 L786.021 322.892 L786.021 296.966 L790.303 296.966 L790.303 300.994 Q791.646 298.633 793.799 297.498 Q795.951 296.341 799.03 296.341 Q799.47 296.341 800.002 296.41 Q800.535 296.457 801.183 296.572 L801.206 300.947 Z" fill="#000000" fill-rule="nonzero" fill-opacity="1" /><path clip-path="url(#clip660)" d="M826.808 308.864 L826.808 310.947 L807.224 310.947 Q807.502 315.345 809.863 317.66 Q812.248 319.952 816.484 319.952 Q818.937 319.952 821.229 319.35 Q823.544 318.748 825.812 317.545 L825.812 321.572 Q823.521 322.544 821.113 323.054 Q818.706 323.563 816.229 323.563 Q810.025 323.563 806.391 319.952 Q802.78 316.341 802.78 310.183 Q802.78 303.818 806.206 300.091 Q809.655 296.341 815.488 296.341 Q820.72 296.341 823.752 299.721 Q826.808 303.077 826.808 308.864 M822.548 307.614 Q822.502 304.119 820.581 302.035 Q818.683 299.952 815.535 299.952 Q811.97 299.952 809.817 301.966 Q807.687 303.98 807.363 307.637 L822.548 307.614 Z" fill="#000000" fill-rule="nonzero" fill-opacity="1" /><path clip-path="url(#clip660)" d="M855.974 308.864 L855.974 310.947 L836.391 310.947 Q836.669 315.345 839.03 317.66 Q841.414 319.952 845.65 319.952 Q848.104 319.952 850.395 319.35 Q852.71 318.748 854.979 317.545 L854.979 321.572 Q852.687 322.544 850.28 323.054 Q847.872 323.563 845.395 323.563 Q839.192 323.563 835.558 319.952 Q831.946 316.341 831.946 310.183 Q831.946 303.818 835.372 300.091 Q838.821 296.341 844.655 296.341 Q849.886 296.341 852.919 299.721 Q855.974 303.077 855.974 308.864 M851.715 307.614 Q851.669 304.119 849.747 302.035 Q847.849 299.952 844.701 299.952 Q841.136 299.952 838.983 301.966 Q836.854 303.98 836.53 307.637 L851.715 307.614 Z" fill="#000000" fill-rule="nonzero" fill-opacity="1" /><path clip-path="url(#clip660)" d="M884.516 307.244 L884.516 322.892 L880.256 322.892 L880.256 307.383 Q880.256 303.702 878.821 301.873 Q877.386 300.045 874.516 300.045 Q871.067 300.045 869.076 302.244 Q867.085 304.443 867.085 308.239 L867.085 322.892 L862.803 322.892 L862.803 296.966 L867.085 296.966 L867.085 300.994 Q868.613 298.656 870.673 297.498 Q872.756 296.341 875.465 296.341 Q879.932 296.341 882.224 299.119 Q884.516 301.873 884.516 307.244 Z" fill="#000000" fill-rule="nonzero" fill-opacity="1" /><path clip-path="url(#clip660)" d="M890.858 308.008 L903.335 308.008 L903.335 311.804 L890.858 311.804 L890.858 308.008 Z" fill="#000000" fill-rule="nonzero" fill-opacity="1" /><path clip-path="url(#clip660)" d="M910.303 288.332 L916.599 288.332 L931.923 317.244 L931.923 288.332 L936.46 288.332 L936.46 322.892 L930.164 322.892 L914.84 293.98 L914.84 322.892 L910.303 322.892 L910.303 288.332 Z" fill="#000000" fill-rule="nonzero" fill-opacity="1" /><path clip-path="url(#clip660)" d="M957.362 309.859 Q952.2 309.859 950.21 311.04 Q948.219 312.22 948.219 315.068 Q948.219 317.336 949.7 318.679 Q951.205 319.998 953.775 319.998 Q957.316 319.998 959.446 317.498 Q961.599 314.975 961.599 310.808 L961.599 309.859 L957.362 309.859 M965.858 308.1 L965.858 322.892 L961.599 322.892 L961.599 318.957 Q960.14 321.318 957.964 322.452 Q955.788 323.563 952.64 323.563 Q948.659 323.563 946.298 321.341 Q943.96 319.095 943.96 315.345 Q943.96 310.97 946.876 308.748 Q949.816 306.526 955.626 306.526 L961.599 306.526 L961.599 306.109 Q961.599 303.17 959.654 301.572 Q957.733 299.952 954.237 299.952 Q952.015 299.952 949.909 300.484 Q947.802 301.017 945.858 302.082 L945.858 298.146 Q948.196 297.244 950.395 296.804 Q952.594 296.341 954.677 296.341 Q960.302 296.341 963.08 299.258 Q965.858 302.174 965.858 308.1 Z" fill="#000000" fill-rule="nonzero" fill-opacity="1" /><path clip-path="url(#clip660)" d="M991.691 309.628 Q991.691 304.998 989.77 302.452 Q987.872 299.906 984.423 299.906 Q980.997 299.906 979.075 302.452 Q977.177 304.998 977.177 309.628 Q977.177 314.234 979.075 316.781 Q980.997 319.327 984.423 319.327 Q987.872 319.327 989.77 316.781 Q991.691 314.234 991.691 309.628 M995.95 319.674 Q995.95 326.294 993.01 329.512 Q990.071 332.753 984.006 332.753 Q981.76 332.753 979.77 332.406 Q977.779 332.081 975.904 331.387 L975.904 327.244 Q977.779 328.262 979.608 328.748 Q981.436 329.234 983.335 329.234 Q987.524 329.234 989.608 327.035 Q991.691 324.859 991.691 320.438 L991.691 318.332 Q990.372 320.623 988.311 321.757 Q986.251 322.892 983.381 322.892 Q978.612 322.892 975.696 319.257 Q972.779 315.623 972.779 309.628 Q972.779 303.609 975.696 299.975 Q978.612 296.341 983.381 296.341 Q986.251 296.341 988.311 297.475 Q990.372 298.609 991.691 300.901 L991.691 296.966 L995.95 296.966 L995.95 319.674 Z" fill="#000000" fill-rule="nonzero" fill-opacity="1" /><path clip-path="url(#clip660)" d="M1026.27 307.244 L1026.27 322.892 L1022.01 322.892 L1022.01 307.383 Q1022.01 303.702 1020.58 301.873 Q1019.14 300.045 1016.27 300.045 Q1012.83 300.045 1010.83 302.244 Q1008.84 304.443 1008.84 308.239 L1008.84 322.892 L1004.56 322.892 L1004.56 286.873 L1008.84 286.873 L1008.84 300.994 Q1010.37 298.656 1012.43 297.498 Q1014.51 296.341 1017.22 296.341 Q1021.69 296.341 1023.98 299.119 Q1026.27 301.873 1026.27 307.244 Z" fill="#000000" fill-rule="nonzero" fill-opacity="1" /><path clip-path="url(#clip660)" d="M1051.83 300.901 L1051.83 286.873 L1056.09 286.873 L1056.09 322.892 L1051.83 322.892 L1051.83 319.003 Q1050.49 321.318 1048.43 322.452 Q1046.39 323.563 1043.52 323.563 Q1038.82 323.563 1035.86 319.813 Q1032.92 316.063 1032.92 309.952 Q1032.92 303.841 1035.86 300.091 Q1038.82 296.341 1043.52 296.341 Q1046.39 296.341 1048.43 297.475 Q1050.49 298.586 1051.83 300.901 M1037.32 309.952 Q1037.32 314.651 1039.24 317.336 Q1041.18 319.998 1044.56 319.998 Q1047.94 319.998 1049.89 317.336 Q1051.83 314.651 1051.83 309.952 Q1051.83 305.253 1049.89 302.591 Q1047.94 299.906 1044.56 299.906 Q1041.18 299.906 1039.24 302.591 Q1037.32 305.253 1037.32 309.952 Z" fill="#000000" fill-rule="nonzero" fill-opacity="1" /><path clip-path="url(#clip660)" d="M1064.86 296.966 L1069.12 296.966 L1069.12 322.892 L1064.86 322.892 L1064.86 296.966 M1064.86 286.873 L1069.12 286.873 L1069.12 292.267 L1064.86 292.267 L1064.86 286.873 Z" fill="#000000" fill-rule="nonzero" fill-opacity="1" /></svg>
