<?xml version="1.0" encoding="utf-8"?>
<svg xmlns="http://www.w3.org/2000/svg" xmlns:xlink="http://www.w3.org/1999/xlink" width="600" height="400" viewBox="0 0 2400 1600">
<defs>
  <clipPath id="clip480">
    <rect x="0" y="0" width="2400" height="1600"/>
  </clipPath>
</defs>
<path clip-path="url(#clip480)" d="M0 1600 L2400 1600 L2400 0 L0 0  Z" fill="#ffffff" fill-rule="evenodd" fill-opacity="1"/>
<defs>
  <clipPath id="clip481">
    <rect x="156" y="123" width="2197" height="1364"/>
  </clipPath>
</defs>
<path clip-path="url(#clip480)" d="M156.598 1486.45 L2352.76 1486.45 L2352.76 123.472 L156.598 123.472  Z" fill="#ffffff" fill-rule="evenodd" fill-opacity="1"/>
<polyline clip-path="url(#clip481)" style="stroke:#000000; stroke-linecap:round; stroke-linejoin:round; stroke-width:2; stroke-opacity:0.1; fill:none" points="265.534,1486.45 265.534,123.472 "/>
<polyline clip-path="url(#clip481)" style="stroke:#000000; stroke-linecap:round; stroke-linejoin:round; stroke-width:2; stroke-opacity:0.1; fill:none" points="595.924,1486.45 595.924,123.472 "/>
<polyline clip-path="url(#clip481)" style="stroke:#000000; stroke-linecap:round; stroke-linejoin:round; stroke-width:2; stroke-opacity:0.1; fill:none" points="926.314,1486.45 926.314,123.472 "/>
<polyline clip-path="url(#clip481)" style="stroke:#000000; stroke-linecap:round; stroke-linejoin:round; stroke-width:2; stroke-opacity:0.1; fill:none" points="1256.7,1486.45 1256.7,123.472 "/>
<polyline clip-path="url(#clip481)" style="stroke:#000000; stroke-linecap:round; stroke-linejoin:round; stroke-width:2; stroke-opacity:0.1; fill:none" points="1587.09,1486.45 1587.09,123.472 "/>
<polyline clip-path="url(#clip481)" style="stroke:#000000; stroke-linecap:round; stroke-linejoin:round; stroke-width:2; stroke-opacity:0.1; fill:none" points="1917.48,1486.45 1917.48,123.472 "/>
<polyline clip-path="url(#clip481)" style="stroke:#000000; stroke-linecap:round; stroke-linejoin:round; stroke-width:2; stroke-opacity:0.1; fill:none" points="2247.87,1486.45 2247.87,123.472 "/>
<polyline clip-path="url(#clip481)" style="stroke:#000000; stroke-linecap:round; stroke-linejoin:round; stroke-width:2; stroke-opacity:0.1; fill:none" points="156.598,1328.18 2352.76,1328.18 "/>
<polyline clip-path="url(#clip481)" style="stroke:#000000; stroke-linecap:round; stroke-linejoin:round; stroke-width:2; stroke-opacity:0.1; fill:none" points="156.598,1071.01 2352.76,1071.01 "/>
<polyline clip-path="url(#clip481)" style="stroke:#000000; stroke-linecap:round; stroke-linejoin:round; stroke-width:2; stroke-opacity:0.1; fill:none" points="156.598,813.846 2352.76,813.846 "/>
<polyline clip-path="url(#clip481)" style="stroke:#000000; stroke-linecap:round; stroke-linejoin:round; stroke-width:2; stroke-opacity:0.1; fill:none" points="156.598,556.681 2352.76,556.681 "/>
<polyline clip-path="url(#clip481)" style="stroke:#000000; stroke-linecap:round; stroke-linejoin:round; stroke-width:2; stroke-opacity:0.1; fill:none" points="156.598,299.515 2352.76,299.515 "/>
<polyline clip-path="url(#clip480)" style="stroke:#000000; stroke-linecap:round; stroke-linejoin:round; stroke-width:4; stroke-opacity:1; fill:none" points="156.598,1486.45 2352.76,1486.45 "/>
<polyline clip-path="url(#clip480)" style="stroke:#000000; stroke-linecap:round; stroke-linejoin:round; stroke-width:4; stroke-opacity:1; fill:none" points="265.534,1486.45 265.534,1467.55 "/>
<polyline clip-path="url(#clip480)" style="stroke:#000000; stroke-linecap:round; stroke-linejoin:round; stroke-width:4; stroke-opacity:1; fill:none" points="595.924,1486.45 595.924,1467.55 "/>
<polyline clip-path="url(#clip480)" style="stroke:#000000; stroke-linecap:round; stroke-linejoin:round; stroke-width:4; stroke-opacity:1; fill:none" points="926.314,1486.45 926.314,1467.55 "/>
<polyline clip-path="url(#clip480)" style="stroke:#000000; stroke-linecap:round; stroke-linejoin:round; stroke-width:4; stroke-opacity:1; fill:none" points="1256.7,1486.45 1256.7,1467.55 "/>
<polyline clip-path="url(#clip480)" style="stroke:#000000; stroke-linecap:round; stroke-linejoin:round; stroke-width:4; stroke-opacity:1; fill:none" points="1587.09,1486.45 1587.09,1467.55 "/>
<polyline clip-path="url(#clip480)" style="stroke:#000000; stroke-linecap:round; stroke-linejoin:round; stroke-width:4; stroke-opacity:1; fill:none" points="1917.48,1486.45 1917.48,1467.55 "/>
<polyline clip-path="url(#clip480)" style="stroke:#000000; stroke-linecap:round; stroke-linejoin:round; stroke-width:4; stroke-opacity:1; fill:none" points="2247.87,1486.45 2247.87,1467.55 "/>
<path clip-path="url(#clip480)" d="M235.002 1532.02 L264.678 1532.02 L264.678 1535.95 L235.002 1535.95 L235.002 1532.02 Z" fill="#000000" fill-rule="nonzero" fill-opacity="1" /><path clip-path="url(#clip480)" d="M288.937 1530.21 Q292.294 1530.93 294.169 1533.2 Q296.067 1535.47 296.067 1538.8 Q296.067 1543.92 292.548 1546.72 Q289.03 1549.52 282.548 1549.52 Q280.372 1549.52 278.058 1549.08 Q275.766 1548.66 273.312 1547.81 L273.312 1543.29 Q275.257 1544.43 277.571 1545.01 Q279.886 1545.58 282.409 1545.58 Q286.807 1545.58 289.099 1543.85 Q291.414 1542.11 291.414 1538.8 Q291.414 1535.75 289.261 1534.03 Q287.132 1532.3 283.312 1532.3 L279.284 1532.3 L279.284 1528.45 L283.497 1528.45 Q286.946 1528.45 288.775 1527.09 Q290.604 1525.7 290.604 1523.11 Q290.604 1520.45 288.706 1519.03 Q286.831 1517.6 283.312 1517.6 Q281.391 1517.6 279.192 1518.01 Q276.993 1518.43 274.354 1519.31 L274.354 1515.14 Q277.016 1514.4 279.331 1514.03 Q281.669 1513.66 283.729 1513.66 Q289.053 1513.66 292.155 1516.09 Q295.256 1518.5 295.256 1522.62 Q295.256 1525.49 293.613 1527.48 Q291.969 1529.45 288.937 1530.21 Z" fill="#000000" fill-rule="nonzero" fill-opacity="1" /><path clip-path="url(#clip480)" d="M565.867 1532.02 L595.542 1532.02 L595.542 1535.95 L565.867 1535.95 L565.867 1532.02 Z" fill="#000000" fill-rule="nonzero" fill-opacity="1" /><path clip-path="url(#clip480)" d="M609.663 1544.91 L625.982 1544.91 L625.982 1548.85 L604.038 1548.85 L604.038 1544.91 Q606.7 1542.16 611.283 1537.53 Q615.89 1532.88 617.07 1531.53 Q619.315 1529.01 620.195 1527.27 Q621.098 1525.51 621.098 1523.82 Q621.098 1521.07 619.153 1519.33 Q617.232 1517.6 614.13 1517.6 Q611.931 1517.6 609.478 1518.36 Q607.047 1519.13 604.269 1520.68 L604.269 1515.95 Q607.093 1514.82 609.547 1514.24 Q612.001 1513.66 614.038 1513.66 Q619.408 1513.66 622.602 1516.35 Q625.797 1519.03 625.797 1523.52 Q625.797 1525.65 624.987 1527.57 Q624.2 1529.47 622.093 1532.07 Q621.515 1532.74 618.413 1535.95 Q615.311 1539.15 609.663 1544.91 Z" fill="#000000" fill-rule="nonzero" fill-opacity="1" /><path clip-path="url(#clip480)" d="M896.071 1532.02 L925.747 1532.02 L925.747 1535.95 L896.071 1535.95 L896.071 1532.02 Z" fill="#000000" fill-rule="nonzero" fill-opacity="1" /><path clip-path="url(#clip480)" d="M936.65 1544.91 L944.289 1544.91 L944.289 1518.55 L935.979 1520.21 L935.979 1515.95 L944.243 1514.29 L948.918 1514.29 L948.918 1544.91 L956.557 1544.91 L956.557 1548.85 L936.65 1548.85 L936.65 1544.91 Z" fill="#000000" fill-rule="nonzero" fill-opacity="1" /><path clip-path="url(#clip480)" d="M1256.7 1517.37 Q1253.09 1517.37 1251.26 1520.93 Q1249.46 1524.47 1249.46 1531.6 Q1249.46 1538.71 1251.26 1542.27 Q1253.09 1545.82 1256.7 1545.82 Q1260.34 1545.82 1262.14 1542.27 Q1263.97 1538.71 1263.97 1531.6 Q1263.97 1524.47 1262.14 1520.93 Q1260.34 1517.37 1256.7 1517.37 M1256.7 1513.66 Q1262.51 1513.66 1265.57 1518.27 Q1268.65 1522.85 1268.65 1531.6 Q1268.65 1540.33 1265.57 1544.94 Q1262.51 1549.52 1256.7 1549.52 Q1250.89 1549.52 1247.82 1544.94 Q1244.76 1540.33 1244.76 1531.6 Q1244.76 1522.85 1247.82 1518.27 Q1250.89 1513.66 1256.7 1513.66 Z" fill="#000000" fill-rule="nonzero" fill-opacity="1" /><path clip-path="url(#clip480)" d="M1577.48 1544.91 L1585.12 1544.91 L1585.12 1518.55 L1576.8 1520.21 L1576.8 1515.95 L1585.07 1514.29 L1589.74 1514.29 L1589.74 1544.91 L1597.38 1544.91 L1597.38 1548.85 L1577.48 1548.85 L1577.48 1544.91 Z" fill="#000000" fill-rule="nonzero" fill-opacity="1" /><path clip-path="url(#clip480)" d="M1912.14 1544.91 L1928.46 1544.91 L1928.46 1548.85 L1906.51 1548.85 L1906.51 1544.91 Q1909.17 1542.16 1913.76 1537.53 Q1918.36 1532.88 1919.54 1531.53 Q1921.79 1529.01 1922.67 1527.27 Q1923.57 1525.51 1923.57 1523.82 Q1923.57 1521.07 1921.63 1519.33 Q1919.71 1517.6 1916.6 1517.6 Q1914.41 1517.6 1911.95 1518.36 Q1909.52 1519.13 1906.74 1520.68 L1906.74 1515.95 Q1909.57 1514.82 1912.02 1514.24 Q1914.47 1513.66 1916.51 1513.66 Q1921.88 1513.66 1925.08 1516.35 Q1928.27 1519.03 1928.27 1523.52 Q1928.27 1525.65 1927.46 1527.57 Q1926.67 1529.47 1924.57 1532.07 Q1923.99 1532.74 1920.89 1535.95 Q1917.79 1539.15 1912.14 1544.91 Z" fill="#000000" fill-rule="nonzero" fill-opacity="1" /><path clip-path="url(#clip480)" d="M2252.12 1530.21 Q2255.48 1530.93 2257.35 1533.2 Q2259.25 1535.47 2259.25 1538.8 Q2259.25 1543.92 2255.73 1546.72 Q2252.21 1549.52 2245.73 1549.52 Q2243.56 1549.52 2241.24 1549.08 Q2238.95 1548.66 2236.5 1547.81 L2236.5 1543.29 Q2238.44 1544.43 2240.76 1545.01 Q2243.07 1545.58 2245.59 1545.58 Q2249.99 1545.58 2252.28 1543.85 Q2254.6 1542.11 2254.6 1538.8 Q2254.6 1535.75 2252.45 1534.03 Q2250.32 1532.3 2246.5 1532.3 L2242.47 1532.3 L2242.47 1528.45 L2246.68 1528.45 Q2250.13 1528.45 2251.96 1527.09 Q2253.79 1525.7 2253.79 1523.11 Q2253.79 1520.45 2251.89 1519.03 Q2250.02 1517.6 2246.5 1517.6 Q2244.58 1517.6 2242.38 1518.01 Q2240.18 1518.43 2237.54 1519.31 L2237.54 1515.14 Q2240.2 1514.4 2242.52 1514.03 Q2244.85 1513.66 2246.91 1513.66 Q2252.24 1513.66 2255.34 1516.09 Q2258.44 1518.5 2258.44 1522.62 Q2258.44 1525.49 2256.8 1527.48 Q2255.15 1529.45 2252.12 1530.21 Z" fill="#000000" fill-rule="nonzero" fill-opacity="1" /><polyline clip-path="url(#clip480)" style="stroke:#000000; stroke-linecap:round; stroke-linejoin:round; stroke-width:4; stroke-opacity:1; fill:none" points="156.598,1486.45 156.598,123.472 "/>
<polyline clip-path="url(#clip480)" style="stroke:#000000; stroke-linecap:round; stroke-linejoin:round; stroke-width:4; stroke-opacity:1; fill:none" points="156.598,1328.18 175.496,1328.18 "/>
<polyline clip-path="url(#clip480)" style="stroke:#000000; stroke-linecap:round; stroke-linejoin:round; stroke-width:4; stroke-opacity:1; fill:none" points="156.598,1071.01 175.496,1071.01 "/>
<polyline clip-path="url(#clip480)" style="stroke:#000000; stroke-linecap:round; stroke-linejoin:round; stroke-width:4; stroke-opacity:1; fill:none" points="156.598,813.846 175.496,813.846 "/>
<polyline clip-path="url(#clip480)" style="stroke:#000000; stroke-linecap:round; stroke-linejoin:round; stroke-width:4; stroke-opacity:1; fill:none" points="156.598,556.681 175.496,556.681 "/>
<polyline clip-path="url(#clip480)" style="stroke:#000000; stroke-linecap:round; stroke-linejoin:round; stroke-width:4; stroke-opacity:1; fill:none" points="156.598,299.515 175.496,299.515 "/>
<path clip-path="url(#clip480)" d="M63.4226 1313.98 Q59.8115 1313.98 57.9828 1317.54 Q56.1773 1321.08 56.1773 1328.21 Q56.1773 1335.32 57.9828 1338.88 Q59.8115 1342.42 63.4226 1342.42 Q67.0569 1342.42 68.8624 1338.88 Q70.6911 1335.32 70.6911 1328.21 Q70.6911 1321.08 68.8624 1317.54 Q67.0569 1313.98 63.4226 1313.98 M63.4226 1310.27 Q69.2328 1310.27 72.2883 1314.88 Q75.367 1319.46 75.367 1328.21 Q75.367 1336.94 72.2883 1341.54 Q69.2328 1346.13 63.4226 1346.13 Q57.6125 1346.13 54.5338 1341.54 Q51.4782 1336.94 51.4782 1328.21 Q51.4782 1319.46 54.5338 1314.88 Q57.6125 1310.27 63.4226 1310.27 Z" fill="#000000" fill-rule="nonzero" fill-opacity="1" /><path clip-path="url(#clip480)" d="M83.5845 1339.58 L88.4688 1339.58 L88.4688 1345.46 L83.5845 1345.46 L83.5845 1339.58 Z" fill="#000000" fill-rule="nonzero" fill-opacity="1" /><path clip-path="url(#clip480)" d="M108.654 1313.98 Q105.043 1313.98 103.214 1317.54 Q101.409 1321.08 101.409 1328.21 Q101.409 1335.32 103.214 1338.88 Q105.043 1342.42 108.654 1342.42 Q112.288 1342.42 114.094 1338.88 Q115.922 1335.32 115.922 1328.21 Q115.922 1321.08 114.094 1317.54 Q112.288 1313.98 108.654 1313.98 M108.654 1310.27 Q114.464 1310.27 117.52 1314.88 Q120.598 1319.46 120.598 1328.21 Q120.598 1336.94 117.52 1341.54 Q114.464 1346.13 108.654 1346.13 Q102.844 1346.13 99.765 1341.54 Q96.7095 1336.94 96.7095 1328.21 Q96.7095 1319.46 99.765 1314.88 Q102.844 1310.27 108.654 1310.27 Z" fill="#000000" fill-rule="nonzero" fill-opacity="1" /><path clip-path="url(#clip480)" d="M65.0198 1056.81 Q61.4087 1056.81 59.58 1060.37 Q57.7745 1063.92 57.7745 1071.05 Q57.7745 1078.15 59.58 1081.72 Q61.4087 1085.26 65.0198 1085.26 Q68.6541 1085.26 70.4596 1081.72 Q72.2883 1078.15 72.2883 1071.05 Q72.2883 1063.92 70.4596 1060.37 Q68.6541 1056.81 65.0198 1056.81 M65.0198 1053.11 Q70.83 1053.11 73.8855 1057.71 Q76.9642 1062.3 76.9642 1071.05 Q76.9642 1079.77 73.8855 1084.38 Q70.83 1088.96 65.0198 1088.96 Q59.2097 1088.96 56.131 1084.38 Q53.0754 1079.77 53.0754 1071.05 Q53.0754 1062.3 56.131 1057.71 Q59.2097 1053.11 65.0198 1053.11 Z" fill="#000000" fill-rule="nonzero" fill-opacity="1" /><path clip-path="url(#clip480)" d="M85.1818 1082.41 L90.066 1082.41 L90.066 1088.29 L85.1818 1088.29 L85.1818 1082.41 Z" fill="#000000" fill-rule="nonzero" fill-opacity="1" /><path clip-path="url(#clip480)" d="M104.279 1084.36 L120.598 1084.36 L120.598 1088.29 L98.6539 1088.29 L98.6539 1084.36 Q101.316 1081.6 105.899 1076.97 Q110.506 1072.32 111.686 1070.98 Q113.932 1068.45 114.811 1066.72 Q115.714 1064.96 115.714 1063.27 Q115.714 1060.51 113.77 1058.78 Q111.848 1057.04 108.746 1057.04 Q106.547 1057.04 104.094 1057.81 Q101.663 1058.57 98.8854 1060.12 L98.8854 1055.4 Q101.709 1054.26 104.163 1053.68 Q106.617 1053.11 108.654 1053.11 Q114.024 1053.11 117.219 1055.79 Q120.413 1058.48 120.413 1062.97 Q120.413 1065.1 119.603 1067.02 Q118.816 1068.92 116.709 1071.51 Q116.131 1072.18 113.029 1075.4 Q109.927 1078.59 104.279 1084.36 Z" fill="#000000" fill-rule="nonzero" fill-opacity="1" /><path clip-path="url(#clip480)" d="M62.9365 799.645 Q59.3254 799.645 57.4967 803.209 Q55.6912 806.751 55.6912 813.881 Q55.6912 820.987 57.4967 824.552 Q59.3254 828.093 62.9365 828.093 Q66.5707 828.093 68.3763 824.552 Q70.205 820.987 70.205 813.881 Q70.205 806.751 68.3763 803.209 Q66.5707 799.645 62.9365 799.645 M62.9365 795.941 Q68.7467 795.941 71.8022 800.547 Q74.8809 805.131 74.8809 813.881 Q74.8809 822.607 71.8022 827.214 Q68.7467 831.797 62.9365 831.797 Q57.1264 831.797 54.0477 827.214 Q50.9921 822.607 50.9921 813.881 Q50.9921 805.131 54.0477 800.547 Q57.1264 795.941 62.9365 795.941 Z" fill="#000000" fill-rule="nonzero" fill-opacity="1" /><path clip-path="url(#clip480)" d="M83.0984 825.246 L87.9827 825.246 L87.9827 831.126 L83.0984 831.126 L83.0984 825.246 Z" fill="#000000" fill-rule="nonzero" fill-opacity="1" /><path clip-path="url(#clip480)" d="M111.015 800.64 L99.2095 819.089 L111.015 819.089 L111.015 800.64 M109.788 796.566 L115.668 796.566 L115.668 819.089 L120.598 819.089 L120.598 822.978 L115.668 822.978 L115.668 831.126 L111.015 831.126 L111.015 822.978 L95.4132 822.978 L95.4132 818.464 L109.788 796.566 Z" fill="#000000" fill-rule="nonzero" fill-opacity="1" /><path clip-path="url(#clip480)" d="M63.2606 542.479 Q59.6495 542.479 57.8208 546.044 Q56.0152 549.586 56.0152 556.715 Q56.0152 563.822 57.8208 567.387 Q59.6495 570.928 63.2606 570.928 Q66.8948 570.928 68.7004 567.387 Q70.5291 563.822 70.5291 556.715 Q70.5291 549.586 68.7004 546.044 Q66.8948 542.479 63.2606 542.479 M63.2606 538.776 Q69.0707 538.776 72.1263 543.382 Q75.205 547.965 75.205 556.715 Q75.205 565.442 72.1263 570.049 Q69.0707 574.632 63.2606 574.632 Q57.4504 574.632 54.3717 570.049 Q51.3162 565.442 51.3162 556.715 Q51.3162 547.965 54.3717 543.382 Q57.4504 538.776 63.2606 538.776 Z" fill="#000000" fill-rule="nonzero" fill-opacity="1" /><path clip-path="url(#clip480)" d="M83.4225 568.081 L88.3067 568.081 L88.3067 573.961 L83.4225 573.961 L83.4225 568.081 Z" fill="#000000" fill-rule="nonzero" fill-opacity="1" /><path clip-path="url(#clip480)" d="M109.071 554.817 Q105.922 554.817 104.071 556.97 Q102.242 559.123 102.242 562.873 Q102.242 566.6 104.071 568.775 Q105.922 570.928 109.071 570.928 Q112.219 570.928 114.047 568.775 Q115.899 566.6 115.899 562.873 Q115.899 559.123 114.047 556.97 Q112.219 554.817 109.071 554.817 M118.353 540.165 L118.353 544.424 Q116.594 543.59 114.788 543.151 Q113.006 542.711 111.246 542.711 Q106.617 542.711 104.163 545.836 Q101.733 548.961 101.385 555.28 Q102.751 553.266 104.811 552.201 Q106.871 551.114 109.348 551.114 Q114.557 551.114 117.566 554.285 Q120.598 557.433 120.598 562.873 Q120.598 568.197 117.45 571.414 Q114.302 574.632 109.071 574.632 Q103.075 574.632 99.9039 570.049 Q96.7326 565.442 96.7326 556.715 Q96.7326 548.521 100.621 543.66 Q104.51 538.776 111.061 538.776 Q112.82 538.776 114.603 539.123 Q116.408 539.47 118.353 540.165 Z" fill="#000000" fill-rule="nonzero" fill-opacity="1" /><path clip-path="url(#clip480)" d="M63.5152 285.314 Q59.9041 285.314 58.0754 288.879 Q56.2699 292.421 56.2699 299.55 Q56.2699 306.657 58.0754 310.221 Q59.9041 313.763 63.5152 313.763 Q67.1494 313.763 68.955 310.221 Q70.7837 306.657 70.7837 299.55 Q70.7837 292.421 68.955 288.879 Q67.1494 285.314 63.5152 285.314 M63.5152 281.61 Q69.3254 281.61 72.3809 286.217 Q75.4596 290.8 75.4596 299.55 Q75.4596 308.277 72.3809 312.883 Q69.3254 317.467 63.5152 317.467 Q57.7051 317.467 54.6264 312.883 Q51.5708 308.277 51.5708 299.55 Q51.5708 290.8 54.6264 286.217 Q57.7051 281.61 63.5152 281.61 Z" fill="#000000" fill-rule="nonzero" fill-opacity="1" /><path clip-path="url(#clip480)" d="M83.6771 310.916 L88.5614 310.916 L88.5614 316.795 L83.6771 316.795 L83.6771 310.916 Z" fill="#000000" fill-rule="nonzero" fill-opacity="1" /><path clip-path="url(#clip480)" d="M108.746 300.383 Q105.413 300.383 103.492 302.166 Q101.594 303.948 101.594 307.073 Q101.594 310.198 103.492 311.981 Q105.413 313.763 108.746 313.763 Q112.08 313.763 114.001 311.981 Q115.922 310.175 115.922 307.073 Q115.922 303.948 114.001 302.166 Q112.103 300.383 108.746 300.383 M104.071 298.393 Q101.061 297.652 99.3715 295.592 Q97.7048 293.532 97.7048 290.569 Q97.7048 286.425 100.645 284.018 Q103.608 281.61 108.746 281.61 Q113.908 281.61 116.848 284.018 Q119.788 286.425 119.788 290.569 Q119.788 293.532 118.098 295.592 Q116.432 297.652 113.445 298.393 Q116.825 299.18 118.7 301.471 Q120.598 303.763 120.598 307.073 Q120.598 312.096 117.52 314.782 Q114.464 317.467 108.746 317.467 Q103.029 317.467 99.9502 314.782 Q96.8947 312.096 96.8947 307.073 Q96.8947 303.763 98.7928 301.471 Q100.691 299.18 104.071 298.393 M102.358 291.009 Q102.358 293.694 104.024 295.198 Q105.714 296.703 108.746 296.703 Q111.756 296.703 113.445 295.198 Q115.158 293.694 115.158 291.009 Q115.158 288.323 113.445 286.819 Q111.756 285.314 108.746 285.314 Q105.714 285.314 104.024 286.819 Q102.358 288.323 102.358 291.009 Z" fill="#000000" fill-rule="nonzero" fill-opacity="1" /><path clip-path="url(#clip480)" d="M1041.11 12.096 L1049.3 12.096 L1049.3 72.576 L1041.11 72.576 L1041.11 12.096 Z" fill="#000000" fill-rule="nonzero" fill-opacity="1" /><path clip-path="url(#clip480)" d="M1102.97 45.1919 L1102.97 72.576 L1095.52 72.576 L1095.52 45.4349 Q1095.52 38.994 1093.01 35.7938 Q1090.49 32.5936 1085.47 32.5936 Q1079.43 32.5936 1075.95 36.4419 Q1072.47 40.2903 1072.47 46.9338 L1072.47 72.576 L1064.97 72.576 L1064.97 27.2059 L1072.47 27.2059 L1072.47 34.2544 Q1075.14 30.163 1078.75 28.1376 Q1082.39 26.1121 1087.13 26.1121 Q1094.95 26.1121 1098.96 30.9732 Q1102.97 35.7938 1102.97 45.1919 Z" fill="#000000" fill-rule="nonzero" fill-opacity="1" /><path clip-path="url(#clip480)" d="M1117.84 27.2059 L1125.29 27.2059 L1125.29 72.576 L1117.84 72.576 L1117.84 27.2059 M1117.84 9.54393 L1125.29 9.54393 L1125.29 18.9825 L1117.84 18.9825 L1117.84 9.54393 Z" fill="#000000" fill-rule="nonzero" fill-opacity="1" /><path clip-path="url(#clip480)" d="M1148.26 14.324 L1148.26 27.2059 L1163.61 27.2059 L1163.61 32.9987 L1148.26 32.9987 L1148.26 57.6282 Q1148.26 63.1779 1149.76 64.7578 Q1151.3 66.3376 1155.96 66.3376 L1163.61 66.3376 L1163.61 72.576 L1155.96 72.576 Q1147.33 72.576 1144.05 69.3758 Q1140.77 66.1351 1140.77 57.6282 L1140.77 32.9987 L1135.3 32.9987 L1135.3 27.2059 L1140.77 27.2059 L1140.77 14.324 L1148.26 14.324 Z" fill="#000000" fill-rule="nonzero" fill-opacity="1" /><path clip-path="url(#clip480)" d="M1173.42 27.2059 L1180.87 27.2059 L1180.87 72.576 L1173.42 72.576 L1173.42 27.2059 M1173.42 9.54393 L1180.87 9.54393 L1180.87 18.9825 L1173.42 18.9825 L1173.42 9.54393 Z" fill="#000000" fill-rule="nonzero" fill-opacity="1" /><path clip-path="url(#clip480)" d="M1217.08 49.7694 Q1208.05 49.7694 1204.57 51.8354 Q1201.08 53.9013 1201.08 58.8839 Q1201.08 62.8538 1203.68 65.2034 Q1206.31 67.5124 1210.81 67.5124 Q1217 67.5124 1220.73 63.1374 Q1224.5 58.7219 1224.5 51.4303 L1224.5 49.7694 L1217.08 49.7694 M1231.95 46.6907 L1231.95 72.576 L1224.5 72.576 L1224.5 65.6895 Q1221.95 69.8214 1218.14 71.8063 Q1214.33 73.7508 1208.82 73.7508 Q1201.85 73.7508 1197.72 69.8619 Q1193.63 65.9325 1193.63 59.3701 Q1193.63 51.7138 1198.73 47.825 Q1203.88 43.9361 1214.05 43.9361 L1224.5 43.9361 L1224.5 43.2069 Q1224.5 38.0623 1221.1 35.2672 Q1217.73 32.4315 1211.62 32.4315 Q1207.73 32.4315 1204.04 33.3632 Q1200.35 34.295 1196.95 36.1584 L1196.95 29.2718 Q1201.04 27.692 1204.89 26.9223 Q1208.74 26.1121 1212.39 26.1121 Q1222.23 26.1121 1227.09 31.2163 Q1231.95 36.3204 1231.95 46.6907 Z" fill="#000000" fill-rule="nonzero" fill-opacity="1" /><path clip-path="url(#clip480)" d="M1247.3 9.54393 L1254.76 9.54393 L1254.76 72.576 L1247.3 72.576 L1247.3 9.54393 Z" fill="#000000" fill-rule="nonzero" fill-opacity="1" /><path clip-path="url(#clip480)" d="M1326.58 34.0924 L1326.58 9.54393 L1334.03 9.54393 L1334.03 72.576 L1326.58 72.576 L1326.58 65.7705 Q1324.23 69.8214 1320.63 71.8063 Q1317.06 73.7508 1312.04 73.7508 Q1303.81 73.7508 1298.63 67.1883 Q1293.48 60.6258 1293.48 49.9314 Q1293.48 39.2371 1298.63 32.6746 Q1303.81 26.1121 1312.04 26.1121 Q1317.06 26.1121 1320.63 28.0971 Q1324.23 30.0415 1326.58 34.0924 M1301.18 49.9314 Q1301.18 58.1548 1304.54 62.8538 Q1307.95 67.5124 1313.86 67.5124 Q1319.78 67.5124 1323.18 62.8538 Q1326.58 58.1548 1326.58 49.9314 Q1326.58 41.7081 1323.18 37.0496 Q1319.78 32.3505 1313.86 32.3505 Q1307.95 32.3505 1304.54 37.0496 Q1301.18 41.7081 1301.18 49.9314 Z" fill="#000000" fill-rule="nonzero" fill-opacity="1" /><path clip-path="url(#clip480)" d="M1370.01 49.7694 Q1360.97 49.7694 1357.49 51.8354 Q1354.01 53.9013 1354.01 58.8839 Q1354.01 62.8538 1356.6 65.2034 Q1359.23 67.5124 1363.73 67.5124 Q1369.93 67.5124 1373.65 63.1374 Q1377.42 58.7219 1377.42 51.4303 L1377.42 49.7694 L1370.01 49.7694 M1384.87 46.6907 L1384.87 72.576 L1377.42 72.576 L1377.42 65.6895 Q1374.87 69.8214 1371.06 71.8063 Q1367.25 73.7508 1361.74 73.7508 Q1354.77 73.7508 1350.64 69.8619 Q1346.55 65.9325 1346.55 59.3701 Q1346.55 51.7138 1351.66 47.825 Q1356.8 43.9361 1366.97 43.9361 L1377.42 43.9361 L1377.42 43.2069 Q1377.42 38.0623 1374.02 35.2672 Q1370.65 32.4315 1364.54 32.4315 Q1360.65 32.4315 1356.96 33.3632 Q1353.28 34.295 1349.87 36.1584 L1349.87 29.2718 Q1353.96 27.692 1357.81 26.9223 Q1361.66 26.1121 1365.31 26.1121 Q1375.15 26.1121 1380.01 31.2163 Q1384.87 36.3204 1384.87 46.6907 Z" fill="#000000" fill-rule="nonzero" fill-opacity="1" /><path clip-path="url(#clip480)" d="M1407.6 14.324 L1407.6 27.2059 L1422.95 27.2059 L1422.95 32.9987 L1407.6 32.9987 L1407.6 57.6282 Q1407.6 63.1779 1409.1 64.7578 Q1410.64 66.3376 1415.3 66.3376 L1422.95 66.3376 L1422.95 72.576 L1415.3 72.576 Q1406.67 72.576 1403.39 69.3758 Q1400.1 66.1351 1400.1 57.6282 L1400.1 32.9987 L1394.64 32.9987 L1394.64 27.2059 L1400.1 27.2059 L1400.1 14.324 L1407.6 14.324 Z" fill="#000000" fill-rule="nonzero" fill-opacity="1" /><path clip-path="url(#clip480)" d="M1453.37 49.7694 Q1444.34 49.7694 1440.86 51.8354 Q1437.37 53.9013 1437.37 58.8839 Q1437.37 62.8538 1439.97 65.2034 Q1442.6 67.5124 1447.1 67.5124 Q1453.29 67.5124 1457.02 63.1374 Q1460.79 58.7219 1460.79 51.4303 L1460.79 49.7694 L1453.37 49.7694 M1468.24 46.6907 L1468.24 72.576 L1460.79 72.576 L1460.79 65.6895 Q1458.24 69.8214 1454.43 71.8063 Q1450.62 73.7508 1445.11 73.7508 Q1438.14 73.7508 1434.01 69.8619 Q1429.92 65.9325 1429.92 59.3701 Q1429.92 51.7138 1435.02 47.825 Q1440.17 43.9361 1450.34 43.9361 L1460.79 43.9361 L1460.79 43.2069 Q1460.79 38.0623 1457.38 35.2672 Q1454.02 32.4315 1447.91 32.4315 Q1444.02 32.4315 1440.33 33.3632 Q1436.64 34.295 1433.24 36.1584 L1433.24 29.2718 Q1437.33 27.692 1441.18 26.9223 Q1445.03 26.1121 1448.67 26.1121 Q1458.52 26.1121 1463.38 31.2163 Q1468.24 36.3204 1468.24 46.6907 Z" fill="#000000" fill-rule="nonzero" fill-opacity="1" /><polyline clip-path="url(#clip481)" style="stroke:#009af9; stroke-linecap:round; stroke-linejoin:round; stroke-width:4; stroke-opacity:1; fill:none" points="218.754,317.747 222.808,304.77 226.863,292.789 230.917,281.873 234.972,272.088 239.026,263.496 243.081,256.153 247.135,250.101 251.19,245.367 255.244,241.962 259.299,239.876 263.353,239.076 267.408,239.508 271.462,241.096 275.517,243.744 279.571,247.335 283.626,251.737 287.68,256.806 291.735,262.389 295.789,268.327 299.844,274.461 303.898,280.639 307.953,286.714 312.007,292.552 316.062,298.035 320.116,303.064 324.171,307.558 328.225,311.458 332.279,314.729 336.334,317.356 340.388,319.347 344.443,320.728 348.497,321.547 352.552,321.865 356.606,321.76 360.661,321.321 364.715,320.646 368.77,319.841 372.824,319.017 376.879,318.286 380.933,317.762 384.988,317.554 389.042,317.771 393.097,318.512 397.151,319.873 401.206,321.938 405.26,324.78 409.315,328.462 413.369,333.033 417.424,338.531 421.478,344.976 425.533,352.379 429.587,360.733 433.642,370.021 437.696,380.215 441.751,391.274 445.805,403.152 449.86,415.795 453.914,429.145 457.969,443.145 462.023,457.735 466.078,472.861 470.132,488.469 474.187,504.513 478.241,520.953 482.296,537.752 486.35,554.883 490.405,572.317 494.459,590.031 498.514,608.004 502.568,626.21 506.623,644.623 510.677,663.21 514.732,681.933 518.786,700.744 522.841,719.588 526.895,738.404 530.95,757.12 535.004,775.66 539.059,793.942 543.113,811.882 547.168,829.394 551.222,846.395 555.277,862.806 559.331,878.553 563.386,893.569 567.44,907.798 571.495,921.192 575.549,933.714 579.604,945.34 583.658,956.054 587.713,965.852 591.767,974.74 595.822,982.732 599.876,989.854 603.931,996.138 607.985,1001.62 612.04,1006.36 616.094,1010.4 620.149,1013.81 624.203,1016.65 628.258,1019.01 632.312,1020.96 636.367,1022.58 640.421,1023.98 644.476,1025.23 648.53,1026.44 652.585,1027.7 656.639,1029.11 660.694,1030.76 664.748,1032.73 668.803,1035.1 672.857,1037.95 676.912,1041.32 680.966,1045.28 685.021,1049.84 689.075,1055.02 693.13,1060.82 697.184,1067.22 701.239,1074.19 705.293,1081.67 709.348,1089.6 713.402,1097.89 717.457,1106.45 721.511,1115.17 725.565,1123.94 729.62,1132.64 733.674,1141.14 737.729,1149.33 741.783,1157.07 745.838,1164.25 749.892,1170.75 753.947,1176.47 758.001,1181.31 762.056,1185.18 766.11,1188.02 770.165,1189.77 774.219,1190.37 778.274,1189.8 782.328,1188.03 786.383,1185.06 790.437,1180.88 794.492,1175.51 798.546,1168.95 802.601,1161.24 806.655,1152.39 810.71,1142.45 814.764,1131.42 818.819,1119.36 822.873,1106.28 826.928,1092.22 830.982,1077.2 835.037,1061.24 839.091,1044.36 843.146,1026.59 847.2,1007.93 851.255,988.412 855.309,968.044 859.364,946.845 863.418,924.837 867.473,902.045 871.527,878.498 875.582,854.233 879.636,829.294 883.691,803.733 887.745,777.612 891.8,751.003 895.854,723.988 899.909,696.659 903.963,669.115 908.018,641.466 912.072,613.829 916.127,586.324 920.181,559.076 924.236,532.208 928.29,505.844 932.345,480.102 936.399,455.092 940.454,430.916 944.508,407.664 948.563,385.412 952.617,364.224 956.672,344.147 960.726,325.214 964.781,307.443 968.835,290.84 972.89,275.399 976.944,261.101 980.999,247.923 985.053,235.832 989.108,224.794 993.162,214.77 997.217,205.724 1001.27,197.618 1005.33,190.419 1009.38,184.095 1013.43,178.619 1017.49,173.966 1021.54,170.113 1025.6,167.037 1029.65,164.719 1033.71,163.132 1037.76,162.252 1041.82,162.047 1045.87,162.48 1049.93,163.51 1053.98,165.088 1058.03,167.159 1062.09,169.664 1066.14,172.54 1070.2,175.721 1074.25,179.141 1078.31,182.736 1082.36,186.444 1086.42,190.208 1090.47,193.979 1094.52,197.712 1098.58,201.374 1102.63,204.937 1106.69,208.382 1110.74,211.695 1114.8,214.871 1118.85,217.908 1122.91,220.808 1126.96,223.573 1131.01,226.208 1135.07,228.716 1139.12,231.1 1143.18,233.358 1147.23,235.489 1151.29,237.486 1155.34,239.343 1159.4,241.049 1163.45,242.594 1167.51,243.967 1171.56,245.159 1175.61,246.163 1179.67,246.976 1183.72,247.598 1187.78,248.039 1191.83,248.311 1195.89,248.439 1199.94,248.454 1204,248.395 1208.05,248.313 1212.1,248.262 1216.16,248.308 1220.21,248.519 1224.27,248.969 1228.32,249.732 1232.38,250.881 1236.43,252.486 1240.49,254.613 1244.54,257.317 1248.6,260.646 1252.65,264.634 1256.7,269.304 1260.76,274.666 1264.81,280.716 1268.87,287.44 1272.92,294.81 1276.98,302.792 1281.03,311.341 1285.09,320.408 1289.14,329.942 1293.19,339.89 1297.25,350.201 1301.3,360.826 1305.36,371.721 1309.41,382.849 1313.47,394.18 1317.52,405.689 1321.58,417.36 1325.63,429.185 1329.69,441.16 1333.74,453.289 1337.79,465.578 1341.85,478.039 1345.9,490.685 1349.96,503.533 1354.01,516.596 1358.07,529.891 1362.12,543.431 1366.18,557.226 1370.23,571.282 1374.28,585.6 1378.34,600.175 1382.39,614.996 1386.45,630.041 1390.5,645.282 1394.56,660.679 1398.61,676.187 1402.67,691.75 1406.72,707.304 1410.78,722.78 1414.83,738.105 1418.88,753.203 1422.94,767.999 1426.99,782.421 1431.05,796.401 1435.1,809.881 1439.16,822.813 1443.21,835.162 1447.27,846.905 1451.32,858.035 1455.37,868.562 1459.43,878.51 1463.48,887.917 1467.54,896.838 1471.59,905.338 1475.65,913.492 1479.7,921.386 1483.76,929.111 1487.81,936.761 1491.87,944.432 1495.92,952.218 1499.97,960.211 1504.03,968.498 1508.08,977.156 1512.14,986.256 1516.19,995.856 1520.25,1006 1524.3,1016.73 1528.36,1028.06 1532.41,1039.99 1536.46,1052.51 1540.52,1065.61 1544.57,1079.23 1548.63,1093.32 1552.68,1107.81 1556.74,1122.63 1560.79,1137.67 1564.85,1152.82 1568.9,1167.99 1572.95,1183.05 1577.01,1197.87 1581.06,1212.33 1585.12,1226.31 1589.17,1239.67 1593.23,1252.29 1597.28,1264.06 1601.34,1274.85 1605.39,1284.58 1609.45,1293.13 1613.5,1300.43 1617.55,1306.42 1621.61,1311.02 1625.66,1314.21 1629.72,1315.97 1633.77,1316.28 1637.83,1315.16 1641.88,1312.65 1645.94,1308.78 1649.99,1303.64 1654.04,1297.29 1658.1,1289.83 1662.15,1281.37 1666.21,1272.02 1670.26,1261.89 1674.32,1251.12 1678.37,1239.82 1682.43,1228.1 1686.48,1216.1 1690.54,1203.9 1694.59,1191.61 1698.64,1179.31 1702.7,1167.09 1706.75,1155 1710.81,1143.1 1714.86,1131.42 1718.92,1120.01 1722.97,1108.88 1727.03,1098.05 1731.08,1087.52 1735.13,1077.29 1739.19,1067.37 1743.24,1057.74 1747.3,1048.4 1751.35,1039.34 1755.41,1030.55 1759.46,1022.03 1763.52,1013.77 1767.57,1005.78 1771.63,998.048 1775.68,990.596 1779.73,983.433 1783.79,976.581 1787.84,970.065 1791.9,963.916 1795.95,958.173 1800.01,952.878 1804.06,948.079 1808.12,943.829 1812.17,940.181 1816.22,937.193 1820.28,934.926 1824.33,933.437 1828.39,932.787 1832.44,933.033 1836.5,934.23 1840.55,936.431 1844.61,939.684 1848.66,944.031 1852.72,949.511 1856.77,956.153 1860.82,963.98 1864.88,973.005 1868.93,983.235 1872.99,994.661 1877.04,1007.27 1881.1,1021.03 1885.15,1035.89 1889.21,1051.82 1893.26,1068.72 1897.31,1086.54 1901.37,1105.16 1905.42,1124.47 1909.48,1144.37 1913.53,1164.72 1917.59,1185.37 1921.64,1206.19 1925.7,1227 1929.75,1247.66 1933.8,1268 1937.86,1287.85 1941.91,1307.07 1945.97,1325.5 1950.02,1343 1954.08,1359.42 1958.13,1374.66 1962.19,1388.61 1966.24,1401.17 1970.3,1412.29 1974.35,1421.91 1978.4,1430 1982.46,1436.55 1986.51,1441.58 1990.57,1445.11 1994.62,1447.19 1998.68,1447.87 2002.73,1447.24 2006.79,1445.36 2010.84,1442.33 2014.89,1438.26 2018.95,1433.22 2023,1427.34 2027.06,1420.69 2031.11,1413.38 2035.17,1405.51 2039.22,1397.14 2043.28,1388.38 2047.33,1379.28 2051.39,1369.91 2055.44,1360.33 2059.49,1350.59 2063.55,1340.73 2067.6,1330.78 2071.66,1320.77 2075.71,1310.73 2079.77,1300.64 2083.82,1290.52 2087.88,1280.36 2091.93,1270.13 2095.98,1259.82 2100.04,1249.37 2104.09,1238.75 2108.15,1227.91 2112.2,1216.77 2116.26,1205.28 2120.31,1193.37 2124.37,1180.95 2128.42,1167.95 2132.48,1154.31 2136.53,1139.96 2140.58,1124.83 2144.64,1108.89 2148.69,1092.08 2152.75,1074.38 2156.8,1055.78 2160.86,1036.29 2164.91,1015.92 2168.97,994.697 2173.02,972.675 2177.07,949.909 2181.13,926.47 2185.18,902.438 2189.24,877.902 2193.29,852.956 2197.35,827.7 2201.4,802.233 2205.46,776.658 2209.51,751.073 2213.57,725.574 2217.62,700.25 2221.67,675.185 2225.73,650.453 2229.78,626.122 2233.84,602.247 2237.89,578.876 2241.95,556.048 2246,533.794 2250.06,512.135 2254.11,491.089 2258.16,470.67 2262.22,450.887 2266.27,431.753 2270.33,413.28 2274.38,395.485 2278.44,378.391 2282.49,362.028 2286.55,346.434 2290.6,331.656 "/>
<polyline clip-path="url(#clip481)" style="stroke:#e26f46; stroke-linecap:round; stroke-linejoin:round; stroke-width:4; stroke-opacity:1; fill:none" points="218.754,1328.18 222.808,1328.18 226.863,1328.18 230.917,1328.18 234.972,1328.18 239.026,1328.18 243.081,1328.18 247.135,1328.18 251.19,1328.18 255.244,1328.18 259.299,1328.18 263.353,1328.18 267.408,1328.18 271.462,1328.18 275.517,1328.18 279.571,1328.18 283.626,1328.18 287.68,1328.18 291.735,1328.18 295.789,1328.18 299.844,1328.18 303.898,1328.18 307.953,1328.18 312.007,1328.18 316.062,1328.18 320.116,1328.18 324.171,1328.18 328.225,1328.18 332.279,1328.18 336.334,1328.18 340.388,1328.18 344.443,1328.18 348.497,1328.18 352.552,1328.18 356.606,1328.18 360.661,1328.18 364.715,1328.18 368.77,1328.18 372.824,1328.18 376.879,1328.18 380.933,1328.18 384.988,1328.18 389.042,1328.18 393.097,1328.18 397.151,1328.18 401.206,1328.18 405.26,1328.18 409.315,1328.18 413.369,1328.18 417.424,1328.18 421.478,1328.18 425.533,1328.18 429.587,1328.18 433.642,1328.18 437.696,1328.18 441.751,1328.18 445.805,1328.18 449.86,1328.18 453.914,1328.18 457.969,1328.18 462.023,1328.18 466.078,1328.18 470.132,1328.18 474.187,1328.18 478.241,1328.18 482.296,1328.18 486.35,1328.18 490.405,1328.18 494.459,1328.18 498.514,1328.18 502.568,1328.18 506.623,1328.18 510.677,1328.18 514.732,1328.18 518.786,1328.18 522.841,1328.18 526.895,1328.18 530.95,1328.18 535.004,1328.18 539.059,1328.18 543.113,1328.18 547.168,1328.18 551.222,1328.18 555.277,1328.18 559.331,1328.18 563.386,1328.18 567.44,1328.18 571.495,1328.18 575.549,1328.18 579.604,1328.18 583.658,1328.18 587.713,1328.18 591.767,1328.18 595.822,1328.18 599.876,1328.18 603.931,1328.18 607.985,1328.18 612.04,1328.18 616.094,1328.18 620.149,1328.18 624.203,1328.18 628.258,1328.18 632.312,1328.18 636.367,1328.18 640.421,1328.18 644.476,1328.18 648.53,1328.18 652.585,1328.18 656.639,1328.18 660.694,1328.18 664.748,1328.18 668.803,1328.18 672.857,1328.18 676.912,1328.18 680.966,1328.18 685.021,1328.18 689.075,1328.18 693.13,1328.18 697.184,1328.18 701.239,1328.18 705.293,1328.18 709.348,1328.18 713.402,1328.18 717.457,1328.18 721.511,1328.18 725.565,1328.18 729.62,1328.18 733.674,1328.18 737.729,1328.18 741.783,1328.18 745.838,1328.18 749.892,1328.18 753.947,1328.18 758.001,1328.18 762.056,1328.18 766.11,1328.18 770.165,1328.18 774.219,1328.18 778.274,1328.18 782.328,1328.18 786.383,1328.18 790.437,1328.18 794.492,1328.18 798.546,1328.18 802.601,1328.18 806.655,1328.18 810.71,1328.18 814.764,1328.18 818.819,1328.18 822.873,1328.18 826.928,1328.18 830.982,1328.18 835.037,1328.18 839.091,1328.18 843.146,1328.18 847.2,1328.18 851.255,1328.18 855.309,1328.18 859.364,1328.18 863.418,1328.18 867.473,1328.18 871.527,1328.18 875.582,1328.18 879.636,1328.18 883.691,1328.18 887.745,1328.18 891.8,1328.18 895.854,1328.18 899.909,1328.18 903.963,1328.18 908.018,1328.18 912.072,1328.18 916.127,1328.18 920.181,1328.18 924.236,1328.18 928.29,1328.18 932.345,1328.18 936.399,1328.18 940.454,1328.18 944.508,1328.18 948.563,1328.18 952.617,1328.18 956.672,1328.18 960.726,1328.18 964.781,1328.18 968.835,1328.18 972.89,1328.18 976.944,1328.18 980.999,1328.18 985.053,1328.18 989.108,1328.18 993.162,1328.18 997.217,1328.18 1001.27,1328.18 1005.33,1328.18 1009.38,1328.18 1013.43,1328.18 1017.49,1328.18 1021.54,1328.18 1025.6,1328.18 1029.65,1328.18 1033.71,1328.18 1037.76,1328.18 1041.82,1328.18 1045.87,1328.18 1049.93,1328.18 1053.98,1328.18 1058.03,1328.18 1062.09,1328.18 1066.14,1328.18 1070.2,1328.18 1074.25,1328.18 1078.31,1328.18 1082.36,1328.18 1086.42,1328.18 1090.47,1328.18 1094.52,1328.18 1098.58,1328.18 1102.63,1328.18 1106.69,1328.18 1110.74,1328.18 1114.8,1328.18 1118.85,1328.18 1122.91,1328.18 1126.96,1328.18 1131.01,1328.18 1135.07,1328.18 1139.12,1328.18 1143.18,1328.18 1147.23,1328.18 1151.29,1328.18 1155.34,1328.18 1159.4,1328.18 1163.45,1328.18 1167.51,1328.18 1171.56,1328.18 1175.61,1328.18 1179.67,1328.18 1183.72,1328.18 1187.78,1328.18 1191.83,1328.18 1195.89,1328.18 1199.94,1328.18 1204,1328.18 1208.05,1328.18 1212.1,1328.18 1216.16,1328.18 1220.21,1328.18 1224.27,1328.18 1228.32,1328.18 1232.38,1328.18 1236.43,1328.18 1240.49,1328.18 1244.54,1328.18 1248.6,1328.18 1252.65,1328.18 1256.7,1328.18 1260.76,1328.18 1264.81,1328.18 1268.87,1328.18 1272.92,1328.18 1276.98,1328.18 1281.03,1328.18 1285.09,1328.18 1289.14,1328.18 1293.19,1328.18 1297.25,1328.18 1301.3,1328.18 1305.36,1328.18 1309.41,1328.18 1313.47,1328.18 1317.52,1328.18 1321.58,1328.18 1325.63,1328.18 1329.69,1328.18 1333.74,1328.18 1337.79,1328.18 1341.85,1328.18 1345.9,1328.18 1349.96,1328.18 1354.01,1328.18 1358.07,1328.18 1362.12,1328.18 1366.18,1328.18 1370.23,1328.18 1374.28,1328.18 1378.34,1328.18 1382.39,1328.18 1386.45,1328.18 1390.5,1328.18 1394.56,1328.18 1398.61,1328.18 1402.67,1328.18 1406.72,1328.18 1410.78,1328.18 1414.83,1328.18 1418.88,1328.18 1422.94,1328.18 1426.99,1328.18 1431.05,1328.18 1435.1,1328.18 1439.16,1328.18 1443.21,1328.18 1447.27,1328.18 1451.32,1328.18 1455.37,1328.18 1459.43,1328.18 1463.48,1328.18 1467.54,1328.18 1471.59,1328.18 1475.65,1328.18 1479.7,1328.18 1483.76,1328.18 1487.81,1328.18 1491.87,1328.18 1495.92,1328.18 1499.97,1328.18 1504.03,1328.18 1508.08,1328.18 1512.14,1328.18 1516.19,1328.18 1520.25,1328.18 1524.3,1328.18 1528.36,1328.18 1532.41,1328.18 1536.46,1328.18 1540.52,1328.18 1544.57,1328.18 1548.63,1328.18 1552.68,1328.18 1556.74,1328.18 1560.79,1328.18 1564.85,1328.18 1568.9,1328.18 1572.95,1328.18 1577.01,1328.18 1581.06,1328.18 1585.12,1328.18 1589.17,1328.18 1593.23,1328.18 1597.28,1328.18 1601.34,1328.18 1605.39,1328.18 1609.45,1328.18 1613.5,1328.18 1617.55,1328.18 1621.61,1328.18 1625.66,1328.18 1629.72,1328.18 1633.77,1328.18 1637.83,1328.18 1641.88,1328.18 1645.94,1328.18 1649.99,1328.18 1654.04,1328.18 1658.1,1328.18 1662.15,1328.18 1666.21,1328.18 1670.26,1328.18 1674.32,1328.18 1678.37,1328.18 1682.43,1328.18 1686.48,1328.18 1690.54,1328.18 1694.59,1328.18 1698.64,1328.18 1702.7,1328.18 1706.75,1328.18 1710.81,1328.18 1714.86,1328.18 1718.92,1328.18 1722.97,1328.18 1727.03,1328.18 1731.08,1328.18 1735.13,1328.18 1739.19,1328.18 1743.24,1328.18 1747.3,1328.18 1751.35,1328.18 1755.41,1328.18 1759.46,1328.18 1763.52,1328.18 1767.57,1328.18 1771.63,1328.18 1775.68,1328.18 1779.73,1328.18 1783.79,1328.18 1787.84,1328.18 1791.9,1328.18 1795.95,1328.18 1800.01,1328.18 1804.06,1328.18 1808.12,1328.18 1812.17,1328.18 1816.22,1328.18 1820.28,1328.18 1824.33,1328.18 1828.39,1328.18 1832.44,1328.18 1836.5,1328.18 1840.55,1328.18 1844.61,1328.18 1848.66,1328.18 1852.72,1328.18 1856.77,1328.18 1860.82,1328.18 1864.88,1328.18 1868.93,1328.18 1872.99,1328.18 1877.04,1328.18 1881.1,1328.18 1885.15,1328.18 1889.21,1328.18 1893.26,1328.18 1897.31,1328.18 1901.37,1328.18 1905.42,1328.18 1909.48,1328.18 1913.53,1328.18 1917.59,1328.18 1921.64,1328.18 1925.7,1328.18 1929.75,1328.18 1933.8,1328.18 1937.86,1328.18 1941.91,1328.18 1945.97,1328.18 1950.02,1328.18 1954.08,1328.18 1958.13,1328.18 1962.19,1328.18 1966.24,1328.18 1970.3,1328.18 1974.35,1328.18 1978.4,1328.18 1982.46,1328.18 1986.51,1328.18 1990.57,1328.18 1994.62,1328.18 1998.68,1328.18 2002.73,1328.18 2006.79,1328.18 2010.84,1328.18 2014.89,1328.18 2018.95,1328.18 2023,1328.18 2027.06,1328.18 2031.11,1328.18 2035.17,1328.18 2039.22,1328.18 2043.28,1328.18 2047.33,1328.18 2051.39,1328.18 2055.44,1328.18 2059.49,1328.18 2063.55,1328.18 2067.6,1328.18 2071.66,1328.18 2075.71,1328.18 2079.77,1328.18 2083.82,1328.18 2087.88,1328.18 2091.93,1328.18 2095.98,1328.18 2100.04,1328.18 2104.09,1328.18 2108.15,1328.18 2112.2,1328.18 2116.26,1328.18 2120.31,1328.18 2124.37,1328.18 2128.42,1328.18 2132.48,1328.18 2136.53,1328.18 2140.58,1328.18 2144.64,1328.18 2148.69,1328.18 2152.75,1328.18 2156.8,1328.18 2160.86,1328.18 2164.91,1328.18 2168.97,1328.18 2173.02,1328.18 2177.07,1328.18 2181.13,1328.18 2185.18,1328.18 2189.24,1328.18 2193.29,1328.18 2197.35,1328.18 2201.4,1328.18 2205.46,1328.18 2209.51,1328.18 2213.57,1328.18 2217.62,1328.18 2221.67,1328.18 2225.73,1328.18 2229.78,1328.18 2233.84,1328.18 2237.89,1328.18 2241.95,1328.18 2246,1328.18 2250.06,1328.18 2254.11,1328.18 2258.16,1328.18 2262.22,1328.18 2266.27,1328.18 2270.33,1328.18 2274.38,1328.18 2278.44,1328.18 2282.49,1328.18 2286.55,1328.18 2290.6,1328.18 "/>
<path clip-path="url(#clip480)" d="M1586.6 324.425 L2279.55 324.425 L2279.55 168.905 L1586.6 168.905  Z" fill="#ffffff" fill-rule="evenodd" fill-opacity="1"/>
<polyline clip-path="url(#clip480)" style="stroke:#000000; stroke-linecap:round; stroke-linejoin:round; stroke-width:4; stroke-opacity:1; fill:none" points="1586.6,324.425 2279.55,324.425 2279.55,168.905 1586.6,168.905 1586.6,324.425 "/>
<polyline clip-path="url(#clip480)" style="stroke:#009af9; stroke-linecap:round; stroke-linejoin:round; stroke-width:4; stroke-opacity:1; fill:none" points="1611.01,220.745 1757.42,220.745 "/>
<path clip-path="url(#clip480)" d="M1800.24 212.863 L1800.24 216.891 Q1798.44 215.965 1796.49 215.502 Q1794.55 215.039 1792.47 215.039 Q1789.29 215.039 1787.7 216.011 Q1786.12 216.983 1786.12 218.928 Q1786.12 220.409 1787.26 221.265 Q1788.39 222.099 1791.82 222.863 L1793.28 223.187 Q1797.81 224.159 1799.71 225.941 Q1801.63 227.701 1801.63 230.872 Q1801.63 234.483 1798.76 236.589 Q1795.92 238.696 1790.92 238.696 Q1788.83 238.696 1786.56 238.279 Q1784.32 237.886 1781.82 237.076 L1781.82 232.677 Q1784.18 233.904 1786.47 234.529 Q1788.76 235.131 1791.01 235.131 Q1794.02 235.131 1795.64 234.113 Q1797.26 233.071 1797.26 231.196 Q1797.26 229.46 1796.08 228.534 Q1794.92 227.608 1790.96 226.752 L1789.48 226.404 Q1785.52 225.571 1783.76 223.858 Q1782 222.122 1782 219.113 Q1782 215.455 1784.6 213.465 Q1787.19 211.474 1791.96 211.474 Q1794.32 211.474 1796.4 211.821 Q1798.48 212.168 1800.24 212.863 Z" fill="#000000" fill-rule="nonzero" fill-opacity="1" /><path clip-path="url(#clip480)" d="M1807.98 227.793 L1807.98 212.099 L1812.23 212.099 L1812.23 227.631 Q1812.23 231.312 1813.67 233.164 Q1815.1 234.992 1817.98 234.992 Q1821.42 234.992 1823.42 232.793 Q1825.43 230.594 1825.43 226.798 L1825.43 212.099 L1829.69 212.099 L1829.69 238.025 L1825.43 238.025 L1825.43 234.043 Q1823.88 236.404 1821.82 237.562 Q1819.78 238.696 1817.07 238.696 Q1812.6 238.696 1810.29 235.918 Q1807.98 233.14 1807.98 227.793 M1818.69 211.474 L1818.69 211.474 Z" fill="#000000" fill-rule="nonzero" fill-opacity="1" /><path clip-path="url(#clip480)" d="M1853.48 216.08 Q1852.77 215.664 1851.91 215.478 Q1851.08 215.27 1850.06 215.27 Q1846.45 215.27 1844.5 217.631 Q1842.58 219.969 1842.58 224.367 L1842.58 238.025 L1838.3 238.025 L1838.3 212.099 L1842.58 212.099 L1842.58 216.127 Q1843.92 213.766 1846.08 212.631 Q1848.23 211.474 1851.31 211.474 Q1851.75 211.474 1852.28 211.543 Q1852.81 211.59 1853.46 211.705 L1853.48 216.08 Z" fill="#000000" fill-rule="nonzero" fill-opacity="1" /><path clip-path="url(#clip480)" d="M1871.08 202.006 L1871.08 205.548 L1867 205.548 Q1864.71 205.548 1863.81 206.474 Q1862.93 207.4 1862.93 209.807 L1862.93 212.099 L1869.94 212.099 L1869.94 215.409 L1862.93 215.409 L1862.93 238.025 L1858.65 238.025 L1858.65 215.409 L1854.57 215.409 L1854.57 212.099 L1858.65 212.099 L1858.65 210.293 Q1858.65 205.965 1860.66 203.997 Q1862.67 202.006 1867.05 202.006 L1871.08 202.006 Z" fill="#000000" fill-rule="nonzero" fill-opacity="1" /><path clip-path="url(#clip480)" d="M1886.42 224.992 Q1881.26 224.992 1879.27 226.173 Q1877.28 227.353 1877.28 230.201 Q1877.28 232.469 1878.76 233.812 Q1880.27 235.131 1882.84 235.131 Q1886.38 235.131 1888.51 232.631 Q1890.66 230.108 1890.66 225.941 L1890.66 224.992 L1886.42 224.992 M1894.92 223.233 L1894.92 238.025 L1890.66 238.025 L1890.66 234.089 Q1889.2 236.451 1887.03 237.585 Q1884.85 238.696 1881.7 238.696 Q1877.72 238.696 1875.36 236.474 Q1873.02 234.228 1873.02 230.478 Q1873.02 226.103 1875.94 223.881 Q1878.88 221.659 1884.69 221.659 L1890.66 221.659 L1890.66 221.242 Q1890.66 218.303 1888.72 216.705 Q1886.79 215.085 1883.3 215.085 Q1881.08 215.085 1878.97 215.617 Q1876.86 216.15 1874.92 217.215 L1874.92 213.279 Q1877.26 212.377 1879.46 211.937 Q1881.66 211.474 1883.74 211.474 Q1889.36 211.474 1892.14 214.391 Q1894.92 217.307 1894.92 223.233 Z" fill="#000000" fill-rule="nonzero" fill-opacity="1" /><path clip-path="url(#clip480)" d="M1922.35 213.094 L1922.35 217.076 Q1920.54 216.08 1918.72 215.594 Q1916.91 215.085 1915.06 215.085 Q1910.91 215.085 1908.62 217.724 Q1906.33 220.34 1906.33 225.085 Q1906.33 229.83 1908.62 232.469 Q1910.91 235.085 1915.06 235.085 Q1916.91 235.085 1918.72 234.599 Q1920.54 234.089 1922.35 233.094 L1922.35 237.029 Q1920.57 237.863 1918.65 238.279 Q1916.75 238.696 1914.6 238.696 Q1908.74 238.696 1905.29 235.015 Q1901.84 231.335 1901.84 225.085 Q1901.84 218.742 1905.31 215.108 Q1908.81 211.474 1914.87 211.474 Q1916.84 211.474 1918.72 211.891 Q1920.59 212.284 1922.35 213.094 Z" fill="#000000" fill-rule="nonzero" fill-opacity="1" /><path clip-path="url(#clip480)" d="M1951.93 223.997 L1951.93 226.08 L1932.35 226.08 Q1932.63 230.478 1934.99 232.793 Q1937.37 235.085 1941.61 235.085 Q1944.06 235.085 1946.35 234.483 Q1948.67 233.881 1950.94 232.677 L1950.94 236.705 Q1948.65 237.677 1946.24 238.187 Q1943.83 238.696 1941.35 238.696 Q1935.15 238.696 1931.52 235.085 Q1927.91 231.474 1927.91 225.316 Q1927.91 218.951 1931.33 215.224 Q1934.78 211.474 1940.61 211.474 Q1945.84 211.474 1948.88 214.853 Q1951.93 218.21 1951.93 223.997 M1947.67 222.747 Q1947.63 219.252 1945.71 217.168 Q1943.81 215.085 1940.66 215.085 Q1937.1 215.085 1934.94 217.099 Q1932.81 219.113 1932.49 222.77 L1947.67 222.747 Z" fill="#000000" fill-rule="nonzero" fill-opacity="1" /><path clip-path="url(#clip480)" d="M1991.05 216.034 L1991.05 202.006 L1995.31 202.006 L1995.31 238.025 L1991.05 238.025 L1991.05 234.136 Q1989.71 236.451 1987.65 237.585 Q1985.61 238.696 1982.74 238.696 Q1978.04 238.696 1975.08 234.946 Q1972.14 231.196 1972.14 225.085 Q1972.14 218.974 1975.08 215.224 Q1978.04 211.474 1982.74 211.474 Q1985.61 211.474 1987.65 212.608 Q1989.71 213.719 1991.05 216.034 M1976.54 225.085 Q1976.54 229.784 1978.46 232.469 Q1980.4 235.131 1983.78 235.131 Q1987.16 235.131 1989.11 232.469 Q1991.05 229.784 1991.05 225.085 Q1991.05 220.386 1989.11 217.724 Q1987.16 215.039 1983.78 215.039 Q1980.4 215.039 1978.46 217.724 Q1976.54 220.386 1976.54 225.085 Z" fill="#000000" fill-rule="nonzero" fill-opacity="1" /><path clip-path="url(#clip480)" d="M2026.26 223.997 L2026.26 226.08 L2006.68 226.08 Q2006.96 230.478 2009.32 232.793 Q2011.7 235.085 2015.94 235.085 Q2018.39 235.085 2020.68 234.483 Q2023 233.881 2025.27 232.677 L2025.27 236.705 Q2022.97 237.677 2020.57 238.187 Q2018.16 238.696 2015.68 238.696 Q2009.48 238.696 2005.84 235.085 Q2002.23 231.474 2002.23 225.316 Q2002.23 218.951 2005.66 215.224 Q2009.11 211.474 2014.94 211.474 Q2020.17 211.474 2023.21 214.853 Q2026.26 218.21 2026.26 223.997 M2022 222.747 Q2021.96 219.252 2020.03 217.168 Q2018.14 215.085 2014.99 215.085 Q2011.42 215.085 2009.27 217.099 Q2007.14 219.113 2006.82 222.77 L2022 222.747 Z" fill="#000000" fill-rule="nonzero" fill-opacity="1" /><path clip-path="url(#clip480)" d="M2046.38 202.006 L2046.38 205.548 L2042.3 205.548 Q2040.01 205.548 2039.11 206.474 Q2038.23 207.4 2038.23 209.807 L2038.23 212.099 L2045.24 212.099 L2045.24 215.409 L2038.23 215.409 L2038.23 238.025 L2033.95 238.025 L2033.95 215.409 L2029.87 215.409 L2029.87 212.099 L2033.95 212.099 L2033.95 210.293 Q2033.95 205.965 2035.96 203.997 Q2037.97 202.006 2042.35 202.006 L2046.38 202.006 Z" fill="#000000" fill-rule="nonzero" fill-opacity="1" /><path clip-path="url(#clip480)" d="M2059.99 215.085 Q2056.56 215.085 2054.57 217.77 Q2052.58 220.432 2052.58 225.085 Q2052.58 229.738 2054.55 232.423 Q2056.54 235.085 2059.99 235.085 Q2063.39 235.085 2065.38 232.4 Q2067.37 229.715 2067.37 225.085 Q2067.37 220.478 2065.38 217.793 Q2063.39 215.085 2059.99 215.085 M2059.99 211.474 Q2065.54 211.474 2068.71 215.085 Q2071.89 218.696 2071.89 225.085 Q2071.89 231.451 2068.71 235.085 Q2065.54 238.696 2059.99 238.696 Q2054.41 238.696 2051.24 235.085 Q2048.09 231.451 2048.09 225.085 Q2048.09 218.696 2051.24 215.085 Q2054.41 211.474 2059.99 211.474 Z" fill="#000000" fill-rule="nonzero" fill-opacity="1" /><path clip-path="url(#clip480)" d="M2093.97 216.08 Q2093.25 215.664 2092.4 215.478 Q2091.56 215.27 2090.54 215.27 Q2086.93 215.27 2084.99 217.631 Q2083.07 219.969 2083.07 224.367 L2083.07 238.025 L2078.78 238.025 L2078.78 212.099 L2083.07 212.099 L2083.07 216.127 Q2084.41 213.766 2086.56 212.631 Q2088.71 211.474 2091.79 211.474 Q2092.23 211.474 2092.77 211.543 Q2093.3 211.59 2093.95 211.705 L2093.97 216.08 Z" fill="#000000" fill-rule="nonzero" fill-opacity="1" /><path clip-path="url(#clip480)" d="M2117.79 217.076 Q2119.39 214.205 2121.61 212.84 Q2123.83 211.474 2126.84 211.474 Q2130.89 211.474 2133.09 214.321 Q2135.29 217.145 2135.29 222.377 L2135.29 238.025 L2131.01 238.025 L2131.01 222.515 Q2131.01 218.789 2129.69 216.983 Q2128.37 215.178 2125.66 215.178 Q2122.35 215.178 2120.43 217.377 Q2118.51 219.576 2118.51 223.372 L2118.51 238.025 L2114.22 238.025 L2114.22 222.515 Q2114.22 218.765 2112.9 216.983 Q2111.58 215.178 2108.83 215.178 Q2105.57 215.178 2103.65 217.4 Q2101.72 219.599 2101.72 223.372 L2101.72 238.025 L2097.44 238.025 L2097.44 212.099 L2101.72 212.099 L2101.72 216.127 Q2103.18 213.742 2105.22 212.608 Q2107.26 211.474 2110.06 211.474 Q2112.88 211.474 2114.85 212.909 Q2116.84 214.344 2117.79 217.076 Z" fill="#000000" fill-rule="nonzero" fill-opacity="1" /><path clip-path="url(#clip480)" d="M2155.57 224.992 Q2150.4 224.992 2148.41 226.173 Q2146.42 227.353 2146.42 230.201 Q2146.42 232.469 2147.9 233.812 Q2149.41 235.131 2151.98 235.131 Q2155.52 235.131 2157.65 232.631 Q2159.8 230.108 2159.8 225.941 L2159.8 224.992 L2155.57 224.992 M2164.06 223.233 L2164.06 238.025 L2159.8 238.025 L2159.8 234.089 Q2158.34 236.451 2156.17 237.585 Q2153.99 238.696 2150.84 238.696 Q2146.86 238.696 2144.5 236.474 Q2142.16 234.228 2142.16 230.478 Q2142.16 226.103 2145.08 223.881 Q2148.02 221.659 2153.83 221.659 L2159.8 221.659 L2159.8 221.242 Q2159.8 218.303 2157.86 216.705 Q2155.94 215.085 2152.44 215.085 Q2150.22 215.085 2148.11 215.617 Q2146.01 216.15 2144.06 217.215 L2144.06 213.279 Q2146.4 212.377 2148.6 211.937 Q2150.8 211.474 2152.88 211.474 Q2158.51 211.474 2161.28 214.391 Q2164.06 217.307 2164.06 223.233 Z" fill="#000000" fill-rule="nonzero" fill-opacity="1" /><path clip-path="url(#clip480)" d="M2177.05 204.738 L2177.05 212.099 L2185.82 212.099 L2185.82 215.409 L2177.05 215.409 L2177.05 229.483 Q2177.05 232.654 2177.9 233.557 Q2178.78 234.46 2181.45 234.46 L2185.82 234.46 L2185.82 238.025 L2181.45 238.025 Q2176.52 238.025 2174.64 236.196 Q2172.77 234.344 2172.77 229.483 L2172.77 215.409 L2169.64 215.409 L2169.64 212.099 L2172.77 212.099 L2172.77 204.738 L2177.05 204.738 Z" fill="#000000" fill-rule="nonzero" fill-opacity="1" /><path clip-path="url(#clip480)" d="M2191.42 212.099 L2195.68 212.099 L2195.68 238.025 L2191.42 238.025 L2191.42 212.099 M2191.42 202.006 L2195.68 202.006 L2195.68 207.4 L2191.42 207.4 L2191.42 202.006 Z" fill="#000000" fill-rule="nonzero" fill-opacity="1" /><path clip-path="url(#clip480)" d="M2214.64 215.085 Q2211.21 215.085 2209.22 217.77 Q2207.23 220.432 2207.23 225.085 Q2207.23 229.738 2209.2 232.423 Q2211.19 235.085 2214.64 235.085 Q2218.04 235.085 2220.03 232.4 Q2222.02 229.715 2222.02 225.085 Q2222.02 220.478 2220.03 217.793 Q2218.04 215.085 2214.64 215.085 M2214.64 211.474 Q2220.2 211.474 2223.37 215.085 Q2226.54 218.696 2226.54 225.085 Q2226.54 231.451 2223.37 235.085 Q2220.2 238.696 2214.64 238.696 Q2209.06 238.696 2205.89 235.085 Q2202.74 231.451 2202.74 225.085 Q2202.74 218.696 2205.89 215.085 Q2209.06 211.474 2214.64 211.474 Z" fill="#000000" fill-rule="nonzero" fill-opacity="1" /><path clip-path="url(#clip480)" d="M2255.15 222.377 L2255.15 238.025 L2250.89 238.025 L2250.89 222.515 Q2250.89 218.835 2249.45 217.006 Q2248.02 215.178 2245.15 215.178 Q2241.7 215.178 2239.71 217.377 Q2237.72 219.576 2237.72 223.372 L2237.72 238.025 L2233.44 238.025 L2233.44 212.099 L2237.72 212.099 L2237.72 216.127 Q2239.25 213.789 2241.31 212.631 Q2243.39 211.474 2246.1 211.474 Q2250.57 211.474 2252.86 214.252 Q2255.15 217.006 2255.15 222.377 Z" fill="#000000" fill-rule="nonzero" fill-opacity="1" /><polyline clip-path="url(#clip480)" style="stroke:#e26f46; stroke-linecap:round; stroke-linejoin:round; stroke-width:4; stroke-opacity:1; fill:none" points="1611.01,272.585 1757.42,272.585 "/>
<path clip-path="url(#clip480)" d="M1781.82 263.939 L1786.33 263.939 L1794.43 285.698 L1802.54 263.939 L1807.05 263.939 L1797.33 289.865 L1791.54 289.865 L1781.82 263.939 Z" fill="#000000" fill-rule="nonzero" fill-opacity="1" /><path clip-path="url(#clip480)" d="M1835.1 275.837 L1835.1 277.92 L1815.52 277.92 Q1815.8 282.318 1818.16 284.633 Q1820.54 286.925 1824.78 286.925 Q1827.23 286.925 1829.53 286.323 Q1831.84 285.721 1834.11 284.517 L1834.11 288.545 Q1831.82 289.517 1829.41 290.027 Q1827 290.536 1824.53 290.536 Q1818.32 290.536 1814.69 286.925 Q1811.08 283.314 1811.08 277.156 Q1811.08 270.791 1814.5 267.064 Q1817.95 263.314 1823.79 263.314 Q1829.02 263.314 1832.05 266.693 Q1835.1 270.05 1835.1 275.837 M1830.85 274.587 Q1830.8 271.092 1828.88 269.008 Q1826.98 266.925 1823.83 266.925 Q1820.27 266.925 1818.11 268.939 Q1815.98 270.953 1815.66 274.61 L1830.85 274.587 Z" fill="#000000" fill-rule="nonzero" fill-opacity="1" /><path clip-path="url(#clip480)" d="M1842.1 253.846 L1846.35 253.846 L1846.35 289.865 L1842.1 289.865 L1842.1 253.846 Z" fill="#000000" fill-rule="nonzero" fill-opacity="1" /><path clip-path="url(#clip480)" d="M1865.31 266.925 Q1861.89 266.925 1859.9 269.61 Q1857.91 272.272 1857.91 276.925 Q1857.91 281.578 1859.87 284.263 Q1861.86 286.925 1865.31 286.925 Q1868.72 286.925 1870.71 284.24 Q1872.7 281.555 1872.7 276.925 Q1872.7 272.318 1870.71 269.633 Q1868.72 266.925 1865.31 266.925 M1865.31 263.314 Q1870.87 263.314 1874.04 266.925 Q1877.21 270.536 1877.21 276.925 Q1877.21 283.291 1874.04 286.925 Q1870.87 290.536 1865.31 290.536 Q1859.73 290.536 1856.56 286.925 Q1853.41 283.291 1853.41 276.925 Q1853.41 270.536 1856.56 266.925 Q1859.73 263.314 1865.31 263.314 Z" fill="#000000" fill-rule="nonzero" fill-opacity="1" /><path clip-path="url(#clip480)" d="M1902.93 264.934 L1902.93 268.916 Q1901.12 267.92 1899.29 267.434 Q1897.49 266.925 1895.64 266.925 Q1891.49 266.925 1889.2 269.564 Q1886.91 272.18 1886.91 276.925 Q1886.91 281.67 1889.2 284.309 Q1891.49 286.925 1895.64 286.925 Q1897.49 286.925 1899.29 286.439 Q1901.12 285.929 1902.93 284.934 L1902.93 288.869 Q1901.15 289.703 1899.22 290.119 Q1897.33 290.536 1895.17 290.536 Q1889.32 290.536 1885.87 286.855 Q1882.42 283.175 1882.42 276.925 Q1882.42 270.582 1885.89 266.948 Q1889.39 263.314 1895.45 263.314 Q1897.42 263.314 1899.29 263.731 Q1901.17 264.124 1902.93 264.934 Z" fill="#000000" fill-rule="nonzero" fill-opacity="1" /><path clip-path="url(#clip480)" d="M1910.34 263.939 L1914.6 263.939 L1914.6 289.865 L1910.34 289.865 L1910.34 263.939 M1910.34 253.846 L1914.6 253.846 L1914.6 259.24 L1910.34 259.24 L1910.34 253.846 Z" fill="#000000" fill-rule="nonzero" fill-opacity="1" /><path clip-path="url(#clip480)" d="M1927.72 256.578 L1927.72 263.939 L1936.49 263.939 L1936.49 267.249 L1927.72 267.249 L1927.72 281.323 Q1927.72 284.494 1928.58 285.397 Q1929.46 286.3 1932.12 286.3 L1936.49 286.3 L1936.49 289.865 L1932.12 289.865 Q1927.19 289.865 1925.31 288.036 Q1923.44 286.184 1923.44 281.323 L1923.44 267.249 L1920.31 267.249 L1920.31 263.939 L1923.44 263.939 L1923.44 256.578 L1927.72 256.578 Z" fill="#000000" fill-rule="nonzero" fill-opacity="1" /><path clip-path="url(#clip480)" d="M1952.88 292.272 Q1951.08 296.902 1949.36 298.314 Q1947.65 299.726 1944.78 299.726 L1941.38 299.726 L1941.38 296.161 L1943.88 296.161 Q1945.64 296.161 1946.61 295.328 Q1947.58 294.494 1948.76 291.392 L1949.53 289.448 L1939.04 263.939 L1943.55 263.939 L1951.66 284.217 L1959.76 263.939 L1964.27 263.939 L1952.88 292.272 Z" fill="#000000" fill-rule="nonzero" fill-opacity="1" /></svg>
