<?xml version="1.0" encoding="utf-8"?>
<svg xmlns="http://www.w3.org/2000/svg" xmlns:xlink="http://www.w3.org/1999/xlink" width="600" height="400" viewBox="0 0 2400 1600">
<defs>
  <clipPath id="clip540">
    <rect x="0" y="0" width="2400" height="1600"/>
  </clipPath>
</defs>
<path clip-path="url(#clip540)" d="M0 1600 L2400 1600 L2400 0 L0 0  Z" fill="#ffffff" fill-rule="evenodd" fill-opacity="1"/>
<defs>
  <clipPath id="clip541">
    <rect x="219" y="106" width="2134" height="1318"/>
  </clipPath>
</defs>
<path clip-path="url(#clip540)" d="M219.866 1423.18 L2352.76 1423.18 L2352.76 106.192 L219.866 106.192  Z" fill="#ffffff" fill-rule="evenodd" fill-opacity="1"/>
<polyline clip-path="url(#clip541)" style="stroke:#000000; stroke-linecap:round; stroke-linejoin:round; stroke-width:2; stroke-opacity:0.1; fill:none" points="327.419,1423.18 327.419,106.192 "/>
<polyline clip-path="url(#clip541)" style="stroke:#000000; stroke-linecap:round; stroke-linejoin:round; stroke-width:2; stroke-opacity:0.1; fill:none" points="648.004,1423.18 648.004,106.192 "/>
<polyline clip-path="url(#clip541)" style="stroke:#000000; stroke-linecap:round; stroke-linejoin:round; stroke-width:2; stroke-opacity:0.1; fill:none" points="968.59,1423.18 968.59,106.192 "/>
<polyline clip-path="url(#clip541)" style="stroke:#000000; stroke-linecap:round; stroke-linejoin:round; stroke-width:2; stroke-opacity:0.1; fill:none" points="1289.18,1423.18 1289.18,106.192 "/>
<polyline clip-path="url(#clip541)" style="stroke:#000000; stroke-linecap:round; stroke-linejoin:round; stroke-width:2; stroke-opacity:0.1; fill:none" points="1609.76,1423.18 1609.76,106.192 "/>
<polyline clip-path="url(#clip541)" style="stroke:#000000; stroke-linecap:round; stroke-linejoin:round; stroke-width:2; stroke-opacity:0.1; fill:none" points="1930.35,1423.18 1930.35,106.192 "/>
<polyline clip-path="url(#clip541)" style="stroke:#000000; stroke-linecap:round; stroke-linejoin:round; stroke-width:2; stroke-opacity:0.1; fill:none" points="2250.93,1423.18 2250.93,106.192 "/>
<polyline clip-path="url(#clip541)" style="stroke:#000000; stroke-linecap:round; stroke-linejoin:round; stroke-width:2; stroke-opacity:0.1; fill:none" points="219.866,1251.04 2352.76,1251.04 "/>
<polyline clip-path="url(#clip541)" style="stroke:#000000; stroke-linecap:round; stroke-linejoin:round; stroke-width:2; stroke-opacity:0.1; fill:none" points="219.866,933.873 2352.76,933.873 "/>
<polyline clip-path="url(#clip541)" style="stroke:#000000; stroke-linecap:round; stroke-linejoin:round; stroke-width:2; stroke-opacity:0.1; fill:none" points="219.866,616.702 2352.76,616.702 "/>
<polyline clip-path="url(#clip541)" style="stroke:#000000; stroke-linecap:round; stroke-linejoin:round; stroke-width:2; stroke-opacity:0.1; fill:none" points="219.866,299.531 2352.76,299.531 "/>
<polyline clip-path="url(#clip540)" style="stroke:#000000; stroke-linecap:round; stroke-linejoin:round; stroke-width:4; stroke-opacity:1; fill:none" points="219.866,1423.18 2352.76,1423.18 "/>
<polyline clip-path="url(#clip540)" style="stroke:#000000; stroke-linecap:round; stroke-linejoin:round; stroke-width:4; stroke-opacity:1; fill:none" points="327.419,1423.18 327.419,1404.28 "/>
<polyline clip-path="url(#clip540)" style="stroke:#000000; stroke-linecap:round; stroke-linejoin:round; stroke-width:4; stroke-opacity:1; fill:none" points="648.004,1423.18 648.004,1404.28 "/>
<polyline clip-path="url(#clip540)" style="stroke:#000000; stroke-linecap:round; stroke-linejoin:round; stroke-width:4; stroke-opacity:1; fill:none" points="968.59,1423.18 968.59,1404.28 "/>
<polyline clip-path="url(#clip540)" style="stroke:#000000; stroke-linecap:round; stroke-linejoin:round; stroke-width:4; stroke-opacity:1; fill:none" points="1289.18,1423.18 1289.18,1404.28 "/>
<polyline clip-path="url(#clip540)" style="stroke:#000000; stroke-linecap:round; stroke-linejoin:round; stroke-width:4; stroke-opacity:1; fill:none" points="1609.76,1423.18 1609.76,1404.28 "/>
<polyline clip-path="url(#clip540)" style="stroke:#000000; stroke-linecap:round; stroke-linejoin:round; stroke-width:4; stroke-opacity:1; fill:none" points="1930.35,1423.18 1930.35,1404.28 "/>
<polyline clip-path="url(#clip540)" style="stroke:#000000; stroke-linecap:round; stroke-linejoin:round; stroke-width:4; stroke-opacity:1; fill:none" points="2250.93,1423.18 2250.93,1404.28 "/>
<path clip-path="url(#clip540)" d="M296.886 1468.75 L326.562 1468.75 L326.562 1472.69 L296.886 1472.69 L296.886 1468.75 Z" fill="#000000" fill-rule="nonzero" fill-opacity="1" /><path clip-path="url(#clip540)" d="M350.821 1466.95 Q354.178 1467.66 356.053 1469.93 Q357.951 1472.2 357.951 1475.53 Q357.951 1480.65 354.432 1483.45 Q350.914 1486.25 344.432 1486.25 Q342.257 1486.25 339.942 1485.81 Q337.65 1485.39 335.196 1484.54 L335.196 1480.02 Q337.141 1481.16 339.456 1481.74 Q341.77 1482.32 344.294 1482.32 Q348.692 1482.32 350.983 1480.58 Q353.298 1478.84 353.298 1475.53 Q353.298 1472.48 351.145 1470.77 Q349.016 1469.03 345.196 1469.03 L341.169 1469.03 L341.169 1465.19 L345.382 1465.19 Q348.831 1465.19 350.659 1463.82 Q352.488 1462.43 352.488 1459.84 Q352.488 1457.18 350.59 1455.77 Q348.715 1454.33 345.196 1454.33 Q343.275 1454.33 341.076 1454.75 Q338.877 1455.16 336.238 1456.04 L336.238 1451.88 Q338.9 1451.14 341.215 1450.77 Q343.553 1450.39 345.613 1450.39 Q350.937 1450.39 354.039 1452.83 Q357.141 1455.23 357.141 1459.35 Q357.141 1462.22 355.497 1464.21 Q353.854 1466.18 350.821 1466.95 Z" fill="#000000" fill-rule="nonzero" fill-opacity="1" /><path clip-path="url(#clip540)" d="M617.947 1468.75 L647.622 1468.75 L647.622 1472.69 L617.947 1472.69 L617.947 1468.75 Z" fill="#000000" fill-rule="nonzero" fill-opacity="1" /><path clip-path="url(#clip540)" d="M661.743 1481.64 L678.062 1481.64 L678.062 1485.58 L656.118 1485.58 L656.118 1481.64 Q658.78 1478.89 663.363 1474.26 Q667.97 1469.61 669.15 1468.27 Q671.395 1465.74 672.275 1464.01 Q673.178 1462.25 673.178 1460.56 Q673.178 1457.8 671.233 1456.07 Q669.312 1454.33 666.21 1454.33 Q664.011 1454.33 661.557 1455.09 Q659.127 1455.86 656.349 1457.41 L656.349 1452.69 Q659.173 1451.55 661.627 1450.97 Q664.081 1450.39 666.118 1450.39 Q671.488 1450.39 674.682 1453.08 Q677.877 1455.77 677.877 1460.26 Q677.877 1462.39 677.067 1464.31 Q676.28 1466.2 674.173 1468.8 Q673.594 1469.47 670.493 1472.69 Q667.391 1475.88 661.743 1481.64 Z" fill="#000000" fill-rule="nonzero" fill-opacity="1" /><path clip-path="url(#clip540)" d="M938.347 1468.75 L968.023 1468.75 L968.023 1472.69 L938.347 1472.69 L938.347 1468.75 Z" fill="#000000" fill-rule="nonzero" fill-opacity="1" /><path clip-path="url(#clip540)" d="M978.926 1481.64 L986.564 1481.64 L986.564 1455.28 L978.254 1456.95 L978.254 1452.69 L986.518 1451.02 L991.194 1451.02 L991.194 1481.64 L998.833 1481.64 L998.833 1485.58 L978.926 1485.58 L978.926 1481.64 Z" fill="#000000" fill-rule="nonzero" fill-opacity="1" /><path clip-path="url(#clip540)" d="M1289.18 1454.1 Q1285.56 1454.1 1283.74 1457.66 Q1281.93 1461.2 1281.93 1468.33 Q1281.93 1475.44 1283.74 1479.01 Q1285.56 1482.55 1289.18 1482.55 Q1292.81 1482.55 1294.62 1479.01 Q1296.44 1475.44 1296.44 1468.33 Q1296.44 1461.2 1294.62 1457.66 Q1292.81 1454.1 1289.18 1454.1 M1289.18 1450.39 Q1294.99 1450.39 1298.04 1455 Q1301.12 1459.58 1301.12 1468.33 Q1301.12 1477.06 1298.04 1481.67 Q1294.99 1486.25 1289.18 1486.25 Q1283.37 1486.25 1280.29 1481.67 Q1277.23 1477.06 1277.23 1468.33 Q1277.23 1459.58 1280.29 1455 Q1283.37 1450.39 1289.18 1450.39 Z" fill="#000000" fill-rule="nonzero" fill-opacity="1" /><path clip-path="url(#clip540)" d="M1600.14 1481.64 L1607.78 1481.64 L1607.78 1455.28 L1599.47 1456.95 L1599.47 1452.69 L1607.74 1451.02 L1612.41 1451.02 L1612.41 1481.64 L1620.05 1481.64 L1620.05 1485.58 L1600.14 1485.58 L1600.14 1481.64 Z" fill="#000000" fill-rule="nonzero" fill-opacity="1" /><path clip-path="url(#clip540)" d="M1925 1481.64 L1941.32 1481.64 L1941.32 1485.58 L1919.37 1485.58 L1919.37 1481.64 Q1922.04 1478.89 1926.62 1474.26 Q1931.23 1469.61 1932.41 1468.27 Q1934.65 1465.74 1935.53 1464.01 Q1936.43 1462.25 1936.43 1460.56 Q1936.43 1457.8 1934.49 1456.07 Q1932.57 1454.33 1929.47 1454.33 Q1927.27 1454.33 1924.81 1455.09 Q1922.38 1455.86 1919.61 1457.41 L1919.61 1452.69 Q1922.43 1451.55 1924.88 1450.97 Q1927.34 1450.39 1929.37 1450.39 Q1934.75 1450.39 1937.94 1453.08 Q1941.13 1455.77 1941.13 1460.26 Q1941.13 1462.39 1940.32 1464.31 Q1939.54 1466.2 1937.43 1468.8 Q1936.85 1469.47 1933.75 1472.69 Q1930.65 1475.88 1925 1481.64 Z" fill="#000000" fill-rule="nonzero" fill-opacity="1" /><path clip-path="url(#clip540)" d="M2255.18 1466.95 Q2258.54 1467.66 2260.41 1469.93 Q2262.31 1472.2 2262.31 1475.53 Q2262.31 1480.65 2258.79 1483.45 Q2255.27 1486.25 2248.79 1486.25 Q2246.62 1486.25 2244.3 1485.81 Q2242.01 1485.39 2239.56 1484.54 L2239.56 1480.02 Q2241.5 1481.16 2243.81 1481.74 Q2246.13 1482.32 2248.65 1482.32 Q2253.05 1482.32 2255.34 1480.58 Q2257.66 1478.84 2257.66 1475.53 Q2257.66 1472.48 2255.5 1470.77 Q2253.37 1469.03 2249.56 1469.03 L2245.53 1469.03 L2245.53 1465.19 L2249.74 1465.19 Q2253.19 1465.19 2255.02 1463.82 Q2256.85 1462.43 2256.85 1459.84 Q2256.85 1457.18 2254.95 1455.77 Q2253.07 1454.33 2249.56 1454.33 Q2247.63 1454.33 2245.44 1454.75 Q2243.24 1455.16 2240.6 1456.04 L2240.6 1451.88 Q2243.26 1451.14 2245.57 1450.77 Q2247.91 1450.39 2249.97 1450.39 Q2255.3 1450.39 2258.4 1452.83 Q2261.5 1455.23 2261.5 1459.35 Q2261.5 1462.22 2259.86 1464.21 Q2258.21 1466.18 2255.18 1466.95 Z" fill="#000000" fill-rule="nonzero" fill-opacity="1" /><path clip-path="url(#clip540)" d="M1302.93 1532.4 L1290.04 1549.74 L1303.59 1568.04 L1296.69 1568.04 L1286.31 1554.04 L1275.93 1568.04 L1269.03 1568.04 L1282.87 1549.39 L1270.21 1532.4 L1277.11 1532.4 L1286.57 1545.1 L1296.02 1532.4 L1302.93 1532.4 Z" fill="#000000" fill-rule="nonzero" fill-opacity="1" /><polyline clip-path="url(#clip540)" style="stroke:#000000; stroke-linecap:round; stroke-linejoin:round; stroke-width:4; stroke-opacity:1; fill:none" points="219.866,1423.18 219.866,106.192 "/>
<polyline clip-path="url(#clip540)" style="stroke:#000000; stroke-linecap:round; stroke-linejoin:round; stroke-width:4; stroke-opacity:1; fill:none" points="219.866,1251.04 238.764,1251.04 "/>
<polyline clip-path="url(#clip540)" style="stroke:#000000; stroke-linecap:round; stroke-linejoin:round; stroke-width:4; stroke-opacity:1; fill:none" points="219.866,933.873 238.764,933.873 "/>
<polyline clip-path="url(#clip540)" style="stroke:#000000; stroke-linecap:round; stroke-linejoin:round; stroke-width:4; stroke-opacity:1; fill:none" points="219.866,616.702 238.764,616.702 "/>
<polyline clip-path="url(#clip540)" style="stroke:#000000; stroke-linecap:round; stroke-linejoin:round; stroke-width:4; stroke-opacity:1; fill:none" points="219.866,299.531 238.764,299.531 "/>
<path clip-path="url(#clip540)" d="M128.288 1236.84 Q124.677 1236.84 122.848 1240.41 Q121.043 1243.95 121.043 1251.08 Q121.043 1258.18 122.848 1261.75 Q124.677 1265.29 128.288 1265.29 Q131.922 1265.29 133.728 1261.75 Q135.556 1258.18 135.556 1251.08 Q135.556 1243.95 133.728 1240.41 Q131.922 1236.84 128.288 1236.84 M128.288 1233.14 Q134.098 1233.14 137.154 1237.74 Q140.232 1242.33 140.232 1251.08 Q140.232 1259.8 137.154 1264.41 Q134.098 1268.99 128.288 1268.99 Q122.478 1268.99 119.399 1264.41 Q116.343 1259.8 116.343 1251.08 Q116.343 1242.33 119.399 1237.74 Q122.478 1233.14 128.288 1233.14 Z" fill="#000000" fill-rule="nonzero" fill-opacity="1" /><path clip-path="url(#clip540)" d="M148.45 1262.44 L153.334 1262.44 L153.334 1268.32 L148.45 1268.32 L148.45 1262.44 Z" fill="#000000" fill-rule="nonzero" fill-opacity="1" /><path clip-path="url(#clip540)" d="M167.547 1264.39 L183.866 1264.39 L183.866 1268.32 L161.922 1268.32 L161.922 1264.39 Q164.584 1261.63 169.167 1257 Q173.774 1252.35 174.954 1251.01 Q177.2 1248.49 178.079 1246.75 Q178.982 1244.99 178.982 1243.3 Q178.982 1240.55 177.038 1238.81 Q175.116 1237.07 172.014 1237.07 Q169.815 1237.07 167.362 1237.84 Q164.931 1238.6 162.153 1240.15 L162.153 1235.43 Q164.977 1234.3 167.431 1233.72 Q169.885 1233.14 171.922 1233.14 Q177.292 1233.14 180.487 1235.82 Q183.681 1238.51 183.681 1243 Q183.681 1245.13 182.871 1247.05 Q182.084 1248.95 179.977 1251.54 Q179.399 1252.21 176.297 1255.43 Q173.195 1258.62 167.547 1264.39 Z" fill="#000000" fill-rule="nonzero" fill-opacity="1" /><path clip-path="url(#clip540)" d="M126.205 919.671 Q122.593 919.671 120.765 923.236 Q118.959 926.778 118.959 933.907 Q118.959 941.014 120.765 944.579 Q122.593 948.12 126.205 948.12 Q129.839 948.12 131.644 944.579 Q133.473 941.014 133.473 933.907 Q133.473 926.778 131.644 923.236 Q129.839 919.671 126.205 919.671 M126.205 915.968 Q132.015 915.968 135.07 920.574 Q138.149 925.157 138.149 933.907 Q138.149 942.634 135.07 947.241 Q132.015 951.824 126.205 951.824 Q120.394 951.824 117.316 947.241 Q114.26 942.634 114.26 933.907 Q114.26 925.157 117.316 920.574 Q120.394 915.968 126.205 915.968 Z" fill="#000000" fill-rule="nonzero" fill-opacity="1" /><path clip-path="url(#clip540)" d="M146.366 945.273 L151.251 945.273 L151.251 951.153 L146.366 951.153 L146.366 945.273 Z" fill="#000000" fill-rule="nonzero" fill-opacity="1" /><path clip-path="url(#clip540)" d="M174.283 920.667 L162.477 939.116 L174.283 939.116 L174.283 920.667 M173.056 916.593 L178.936 916.593 L178.936 939.116 L183.866 939.116 L183.866 943.004 L178.936 943.004 L178.936 951.153 L174.283 951.153 L174.283 943.004 L158.681 943.004 L158.681 938.491 L173.056 916.593 Z" fill="#000000" fill-rule="nonzero" fill-opacity="1" /><path clip-path="url(#clip540)" d="M126.529 602.501 Q122.918 602.501 121.089 606.065 Q119.283 609.607 119.283 616.737 Q119.283 623.843 121.089 627.408 Q122.918 630.95 126.529 630.95 Q130.163 630.95 131.968 627.408 Q133.797 623.843 133.797 616.737 Q133.797 609.607 131.968 606.065 Q130.163 602.501 126.529 602.501 M126.529 598.797 Q132.339 598.797 135.394 603.403 Q138.473 607.987 138.473 616.737 Q138.473 625.464 135.394 630.07 Q132.339 634.653 126.529 634.653 Q120.718 634.653 117.64 630.07 Q114.584 625.464 114.584 616.737 Q114.584 607.987 117.64 603.403 Q120.718 598.797 126.529 598.797 Z" fill="#000000" fill-rule="nonzero" fill-opacity="1" /><path clip-path="url(#clip540)" d="M146.691 628.102 L151.575 628.102 L151.575 633.982 L146.691 633.982 L146.691 628.102 Z" fill="#000000" fill-rule="nonzero" fill-opacity="1" /><path clip-path="url(#clip540)" d="M172.339 614.839 Q169.19 614.839 167.339 616.991 Q165.51 619.144 165.51 622.894 Q165.51 626.621 167.339 628.797 Q169.19 630.95 172.339 630.95 Q175.487 630.95 177.315 628.797 Q179.167 626.621 179.167 622.894 Q179.167 619.144 177.315 616.991 Q175.487 614.839 172.339 614.839 M181.621 600.186 L181.621 604.445 Q179.862 603.612 178.056 603.172 Q176.274 602.732 174.514 602.732 Q169.885 602.732 167.431 605.857 Q165.001 608.982 164.653 615.302 Q166.019 613.288 168.079 612.223 Q170.139 611.135 172.616 611.135 Q177.825 611.135 180.834 614.306 Q183.866 617.454 183.866 622.894 Q183.866 628.218 180.718 631.436 Q177.57 634.653 172.339 634.653 Q166.343 634.653 163.172 630.07 Q160.001 625.464 160.001 616.737 Q160.001 608.542 163.89 603.681 Q167.778 598.797 174.329 598.797 Q176.089 598.797 177.871 599.144 Q179.676 599.491 181.621 600.186 Z" fill="#000000" fill-rule="nonzero" fill-opacity="1" /><path clip-path="url(#clip540)" d="M126.783 285.33 Q123.172 285.33 121.343 288.895 Q119.538 292.437 119.538 299.566 Q119.538 306.673 121.343 310.237 Q123.172 313.779 126.783 313.779 Q130.417 313.779 132.223 310.237 Q134.052 306.673 134.052 299.566 Q134.052 292.437 132.223 288.895 Q130.417 285.33 126.783 285.33 M126.783 281.626 Q132.593 281.626 135.649 286.233 Q138.728 290.816 138.728 299.566 Q138.728 308.293 135.649 312.899 Q132.593 317.483 126.783 317.483 Q120.973 317.483 117.894 312.899 Q114.839 308.293 114.839 299.566 Q114.839 290.816 117.894 286.233 Q120.973 281.626 126.783 281.626 Z" fill="#000000" fill-rule="nonzero" fill-opacity="1" /><path clip-path="url(#clip540)" d="M146.945 310.932 L151.829 310.932 L151.829 316.811 L146.945 316.811 L146.945 310.932 Z" fill="#000000" fill-rule="nonzero" fill-opacity="1" /><path clip-path="url(#clip540)" d="M172.014 300.399 Q168.681 300.399 166.76 302.182 Q164.862 303.964 164.862 307.089 Q164.862 310.214 166.76 311.997 Q168.681 313.779 172.014 313.779 Q175.348 313.779 177.269 311.997 Q179.19 310.191 179.19 307.089 Q179.19 303.964 177.269 302.182 Q175.371 300.399 172.014 300.399 M167.339 298.409 Q164.329 297.668 162.64 295.608 Q160.973 293.548 160.973 290.585 Q160.973 286.441 163.913 284.034 Q166.876 281.626 172.014 281.626 Q177.176 281.626 180.116 284.034 Q183.056 286.441 183.056 290.585 Q183.056 293.548 181.366 295.608 Q179.7 297.668 176.714 298.409 Q180.093 299.196 181.968 301.487 Q183.866 303.779 183.866 307.089 Q183.866 312.112 180.788 314.798 Q177.732 317.483 172.014 317.483 Q166.297 317.483 163.218 314.798 Q160.163 312.112 160.163 307.089 Q160.163 303.779 162.061 301.487 Q163.959 299.196 167.339 298.409 M165.626 291.025 Q165.626 293.71 167.292 295.214 Q168.982 296.719 172.014 296.719 Q175.024 296.719 176.714 295.214 Q178.426 293.71 178.426 291.025 Q178.426 288.339 176.714 286.835 Q175.024 285.33 172.014 285.33 Q168.982 285.33 167.292 286.835 Q165.626 288.339 165.626 291.025 Z" fill="#000000" fill-rule="nonzero" fill-opacity="1" /><path clip-path="url(#clip540)" d="M42.4881 749.758 L77.5631 749.758 L77.5631 755.615 L42.679 755.615 Q37.6183 755.615 35.1038 757.588 Q32.5894 759.562 32.5894 763.508 Q32.5894 768.251 35.6131 770.988 Q38.6368 773.725 43.8567 773.725 L64.0042 773.725 L64.0042 779.614 L28.3562 779.614 L28.3562 773.725 L33.8944 773.725 Q30.6797 771.625 29.0883 768.792 Q27.4968 765.927 27.4968 762.203 Q27.4968 756.06 31.2844 752.909 Q35.1038 749.758 42.4881 749.758 Z" fill="#000000" fill-rule="nonzero" fill-opacity="1" /><path clip-path="url(#clip540)" d="M816.58 10.0578 L816.58 15.758 Q813.252 14.1666 810.301 13.3853 Q807.35 12.6041 804.601 12.6041 Q799.826 12.6041 797.222 14.4559 Q794.647 16.3078 794.647 19.7221 Q794.647 22.5867 796.354 24.0624 Q798.09 25.5091 802.894 26.4061 L806.424 27.1295 Q812.963 28.3737 816.059 31.5276 Q819.184 34.6526 819.184 39.9188 Q819.184 46.1977 814.959 49.4384 Q810.764 52.6791 802.633 52.6791 Q799.566 52.6791 796.094 51.9847 Q792.651 51.2902 788.947 49.9303 L788.947 43.9118 Q792.506 45.9083 795.92 46.921 Q799.335 47.9338 802.633 47.9338 Q807.639 47.9338 810.359 45.9662 Q813.079 43.9986 813.079 40.3528 Q813.079 37.1699 811.111 35.376 Q809.172 33.582 804.716 32.685 L801.157 31.9906 Q794.618 30.6885 791.696 27.9107 Q788.773 25.133 788.773 20.1851 Q788.773 14.4559 792.795 11.1573 Q796.846 7.85875 803.935 7.85875 Q806.973 7.85875 810.127 8.40852 Q813.281 8.95829 816.58 10.0578 Z" fill="#000000" fill-rule="nonzero" fill-opacity="1" /><path clip-path="url(#clip540)" d="M827.517 39.0507 L827.517 19.4328 L832.841 19.4328 L832.841 38.8482 Q832.841 43.4488 834.635 45.7636 Q836.429 48.0495 840.017 48.0495 Q844.329 48.0495 846.817 45.3007 Q849.334 42.5519 849.334 37.8065 L849.334 19.4328 L854.658 19.4328 L854.658 51.84 L849.334 51.84 L849.334 46.8632 Q847.396 49.8145 844.82 51.2613 Q842.274 52.6791 838.889 52.6791 Q833.304 52.6791 830.411 49.2069 Q827.517 45.7347 827.517 39.0507 M840.914 18.6515 L840.914 18.6515 Z" fill="#000000" fill-rule="nonzero" fill-opacity="1" /><path clip-path="url(#clip540)" d="M884.404 24.4096 Q883.507 23.8888 882.436 23.6573 Q881.394 23.3969 880.121 23.3969 Q875.607 23.3969 873.177 26.3482 Q870.775 29.2707 870.775 34.7683 L870.775 51.84 L865.422 51.84 L865.422 19.4328 L870.775 19.4328 L870.775 24.4675 Q872.453 21.5161 875.144 20.0983 Q877.835 18.6515 881.684 18.6515 Q882.233 18.6515 882.899 18.7383 Q883.564 18.7962 884.375 18.9409 L884.404 24.4096 Z" fill="#000000" fill-rule="nonzero" fill-opacity="1" /><path clip-path="url(#clip540)" d="M906.394 6.81709 L906.394 11.2442 L901.302 11.2442 Q898.437 11.2442 897.309 12.4016 Q896.209 13.559 896.209 16.5682 L896.209 19.4328 L904.976 19.4328 L904.976 23.5705 L896.209 23.5705 L896.209 51.84 L890.856 51.84 L890.856 23.5705 L885.763 23.5705 L885.763 19.4328 L890.856 19.4328 L890.856 17.1758 Q890.856 11.765 893.373 9.30551 Q895.891 6.81709 901.359 6.81709 L906.394 6.81709 Z" fill="#000000" fill-rule="nonzero" fill-opacity="1" /><path clip-path="url(#clip540)" d="M925.578 35.5496 Q919.126 35.5496 916.637 37.0253 Q914.149 38.501 914.149 42.06 Q914.149 44.8956 916.001 46.5738 Q917.881 48.2231 921.093 48.2231 Q925.52 48.2231 928.182 45.0981 Q930.873 41.9442 930.873 36.7359 L930.873 35.5496 L925.578 35.5496 M936.197 33.3505 L936.197 51.84 L930.873 51.84 L930.873 46.921 Q929.05 49.8724 926.33 51.2902 Q923.61 52.6791 919.675 52.6791 Q914.698 52.6791 911.747 49.9014 Q908.825 47.0947 908.825 42.4072 Q908.825 36.9385 912.47 34.1607 Q916.145 31.3829 923.408 31.3829 L930.873 31.3829 L930.873 30.8621 Q930.873 27.1874 928.443 25.1908 Q926.041 23.1654 921.672 23.1654 Q918.894 23.1654 916.261 23.8309 Q913.628 24.4964 911.197 25.8274 L911.197 20.9085 Q914.12 19.78 916.869 19.2302 Q919.617 18.6515 922.222 18.6515 Q929.253 18.6515 932.725 22.2973 Q936.197 25.9431 936.197 33.3505 Z" fill="#000000" fill-rule="nonzero" fill-opacity="1" /><path clip-path="url(#clip540)" d="M970.485 20.677 L970.485 25.6538 Q968.228 24.4096 965.942 23.802 Q963.685 23.1654 961.371 23.1654 Q956.191 23.1654 953.327 26.464 Q950.462 29.7336 950.462 35.6653 Q950.462 41.597 953.327 44.8956 Q956.191 48.1653 961.371 48.1653 Q963.685 48.1653 965.942 47.5576 Q968.228 46.921 970.485 45.6768 L970.485 50.5958 Q968.257 51.6375 965.856 52.1583 Q963.483 52.6791 960.792 52.6791 Q953.471 52.6791 949.16 48.0784 Q944.849 43.4778 944.849 35.6653 Q944.849 27.7371 949.189 23.1943 Q953.558 18.6515 961.139 18.6515 Q963.599 18.6515 965.942 19.1724 Q968.286 19.6642 970.485 20.677 Z" fill="#000000" fill-rule="nonzero" fill-opacity="1" /><path clip-path="url(#clip540)" d="M1007.46 34.3054 L1007.46 36.9095 L982.985 36.9095 Q983.332 42.4072 986.284 45.3007 Q989.264 48.1653 994.559 48.1653 Q997.626 48.1653 1000.49 47.4129 Q1003.38 46.6606 1006.22 45.156 L1006.22 50.1907 Q1003.36 51.406 1000.35 52.0425 Q997.337 52.6791 994.241 52.6791 Q986.486 52.6791 981.944 48.1653 Q977.43 43.6514 977.43 35.9547 Q977.43 27.9975 981.712 23.339 Q986.023 18.6515 993.315 18.6515 Q999.854 18.6515 1003.64 22.876 Q1007.46 27.0716 1007.46 34.3054 M1002.14 32.7429 Q1002.08 28.3737 999.681 25.7695 Q997.308 23.1654 993.373 23.1654 Q988.917 23.1654 986.226 25.6827 Q983.564 28.2001 983.159 32.7718 L1002.14 32.7429 Z" fill="#000000" fill-rule="nonzero" fill-opacity="1" /><path clip-path="url(#clip540)" d="M1056.36 24.3517 L1056.36 6.81709 L1061.69 6.81709 L1061.69 51.84 L1056.36 51.84 L1056.36 46.9789 Q1054.69 49.8724 1052.11 51.2902 Q1049.56 52.6791 1045.98 52.6791 Q1040.1 52.6791 1036.4 47.9916 Q1032.72 43.3042 1032.72 35.6653 Q1032.72 28.0265 1036.4 23.339 Q1040.1 18.6515 1045.98 18.6515 Q1049.56 18.6515 1052.11 20.0693 Q1054.69 21.4582 1056.36 24.3517 M1038.22 35.6653 Q1038.22 41.5391 1040.62 44.8956 Q1043.05 48.2231 1047.28 48.2231 Q1051.5 48.2231 1053.93 44.8956 Q1056.36 41.5391 1056.36 35.6653 Q1056.36 29.7915 1053.93 26.464 Q1051.5 23.1075 1047.28 23.1075 Q1043.05 23.1075 1040.62 26.464 Q1038.22 29.7915 1038.22 35.6653 Z" fill="#000000" fill-rule="nonzero" fill-opacity="1" /><path clip-path="url(#clip540)" d="M1100.37 34.3054 L1100.37 36.9095 L1075.9 36.9095 Q1076.24 42.4072 1079.19 45.3007 Q1082.17 48.1653 1087.47 48.1653 Q1090.54 48.1653 1093.4 47.4129 Q1096.29 46.6606 1099.13 45.156 L1099.13 50.1907 Q1096.27 51.406 1093.26 52.0425 Q1090.25 52.6791 1087.15 52.6791 Q1079.4 52.6791 1074.85 48.1653 Q1070.34 43.6514 1070.34 35.9547 Q1070.34 27.9975 1074.62 23.339 Q1078.93 18.6515 1086.23 18.6515 Q1092.76 18.6515 1096.56 22.876 Q1100.37 27.0716 1100.37 34.3054 M1095.05 32.7429 Q1094.99 28.3737 1092.59 25.7695 Q1090.22 23.1654 1086.28 23.1654 Q1081.83 23.1654 1079.14 25.6827 Q1076.47 28.2001 1076.07 32.7718 L1095.05 32.7429 Z" fill="#000000" fill-rule="nonzero" fill-opacity="1" /><path clip-path="url(#clip540)" d="M1125.52 6.81709 L1125.52 11.2442 L1120.43 11.2442 Q1117.56 11.2442 1116.43 12.4016 Q1115.33 13.559 1115.33 16.5682 L1115.33 19.4328 L1124.1 19.4328 L1124.1 23.5705 L1115.33 23.5705 L1115.33 51.84 L1109.98 51.84 L1109.98 23.5705 L1104.89 23.5705 L1104.89 19.4328 L1109.98 19.4328 L1109.98 17.1758 Q1109.98 11.765 1112.5 9.30551 Q1115.02 6.81709 1120.48 6.81709 L1125.52 6.81709 Z" fill="#000000" fill-rule="nonzero" fill-opacity="1" /><path clip-path="url(#clip540)" d="M1142.53 23.1654 Q1138.25 23.1654 1135.76 26.5218 Q1133.27 29.8494 1133.27 35.6653 Q1133.27 41.4813 1135.73 44.8377 Q1138.22 48.1653 1142.53 48.1653 Q1146.79 48.1653 1149.27 44.8088 Q1151.76 41.4523 1151.76 35.6653 Q1151.76 29.9072 1149.27 26.5508 Q1146.79 23.1654 1142.53 23.1654 M1142.53 18.6515 Q1149.48 18.6515 1153.44 23.1654 Q1157.41 27.6792 1157.41 35.6653 Q1157.41 43.6225 1153.44 48.1653 Q1149.48 52.6791 1142.53 52.6791 Q1135.56 52.6791 1131.6 48.1653 Q1127.66 43.6225 1127.66 35.6653 Q1127.66 27.6792 1131.6 23.1654 Q1135.56 18.6515 1142.53 18.6515 Z" fill="#000000" fill-rule="nonzero" fill-opacity="1" /><path clip-path="url(#clip540)" d="M1185.01 24.4096 Q1184.11 23.8888 1183.04 23.6573 Q1182 23.3969 1180.73 23.3969 Q1176.21 23.3969 1173.78 26.3482 Q1171.38 29.2707 1171.38 34.7683 L1171.38 51.84 L1166.03 51.84 L1166.03 19.4328 L1171.38 19.4328 L1171.38 24.4675 Q1173.06 21.5161 1175.75 20.0983 Q1178.44 18.6515 1182.29 18.6515 Q1182.84 18.6515 1183.5 18.7383 Q1184.17 18.7962 1184.98 18.9409 L1185.01 24.4096 Z" fill="#000000" fill-rule="nonzero" fill-opacity="1" /><path clip-path="url(#clip540)" d="M1214.78 25.6538 Q1216.78 22.0659 1219.56 20.3587 Q1222.34 18.6515 1226.1 18.6515 Q1231.16 18.6515 1233.91 22.2105 Q1236.66 25.7406 1236.66 32.2799 L1236.66 51.84 L1231.31 51.84 L1231.31 32.4535 Q1231.31 27.795 1229.66 25.5381 Q1228.01 23.2811 1224.62 23.2811 Q1220.48 23.2811 1218.08 26.03 Q1215.68 28.7788 1215.68 33.5241 L1215.68 51.84 L1210.33 51.84 L1210.33 32.4535 Q1210.33 27.7661 1208.68 25.5381 Q1207.03 23.2811 1203.59 23.2811 Q1199.51 23.2811 1197.1 26.0589 Q1194.7 28.8077 1194.7 33.5241 L1194.7 51.84 L1189.35 51.84 L1189.35 19.4328 L1194.7 19.4328 L1194.7 24.4675 Q1196.53 21.4872 1199.07 20.0693 Q1201.62 18.6515 1205.12 18.6515 Q1208.65 18.6515 1211.11 20.4455 Q1213.6 22.2395 1214.78 25.6538 Z" fill="#000000" fill-rule="nonzero" fill-opacity="1" /><path clip-path="url(#clip540)" d="M1262.01 35.5496 Q1255.55 35.5496 1253.06 37.0253 Q1250.58 38.501 1250.58 42.06 Q1250.58 44.8956 1252.43 46.5738 Q1254.31 48.2231 1257.52 48.2231 Q1261.95 48.2231 1264.61 45.0981 Q1267.3 41.9442 1267.3 36.7359 L1267.3 35.5496 L1262.01 35.5496 M1272.62 33.3505 L1272.62 51.84 L1267.3 51.84 L1267.3 46.921 Q1265.48 49.8724 1262.76 51.2902 Q1260.04 52.6791 1256.1 52.6791 Q1251.13 52.6791 1248.17 49.9014 Q1245.25 47.0947 1245.25 42.4072 Q1245.25 36.9385 1248.9 34.1607 Q1252.57 31.3829 1259.84 31.3829 L1267.3 31.3829 L1267.3 30.8621 Q1267.3 27.1874 1264.87 25.1908 Q1262.47 23.1654 1258.1 23.1654 Q1255.32 23.1654 1252.69 23.8309 Q1250.06 24.4964 1247.62 25.8274 L1247.62 20.9085 Q1250.55 19.78 1253.3 19.2302 Q1256.05 18.6515 1258.65 18.6515 Q1265.68 18.6515 1269.15 22.2973 Q1272.62 25.9431 1272.62 33.3505 Z" fill="#000000" fill-rule="nonzero" fill-opacity="1" /><path clip-path="url(#clip540)" d="M1288.86 10.2314 L1288.86 19.4328 L1299.82 19.4328 L1299.82 23.5705 L1288.86 23.5705 L1288.86 41.163 Q1288.86 45.1271 1289.93 46.2555 Q1291.03 47.384 1294.36 47.384 L1299.82 47.384 L1299.82 51.84 L1294.36 51.84 Q1288.19 51.84 1285.85 49.5541 Q1283.5 47.2393 1283.5 41.163 L1283.5 23.5705 L1279.6 23.5705 L1279.6 19.4328 L1283.5 19.4328 L1283.5 10.2314 L1288.86 10.2314 Z" fill="#000000" fill-rule="nonzero" fill-opacity="1" /><path clip-path="url(#clip540)" d="M1306.83 19.4328 L1312.15 19.4328 L1312.15 51.84 L1306.83 51.84 L1306.83 19.4328 M1306.83 6.81709 L1312.15 6.81709 L1312.15 13.559 L1306.83 13.559 L1306.83 6.81709 Z" fill="#000000" fill-rule="nonzero" fill-opacity="1" /><path clip-path="url(#clip540)" d="M1335.85 23.1654 Q1331.57 23.1654 1329.08 26.5218 Q1326.59 29.8494 1326.59 35.6653 Q1326.59 41.4813 1329.05 44.8377 Q1331.54 48.1653 1335.85 48.1653 Q1340.1 48.1653 1342.59 44.8088 Q1345.08 41.4523 1345.08 35.6653 Q1345.08 29.9072 1342.59 26.5508 Q1340.1 23.1654 1335.85 23.1654 M1335.85 18.6515 Q1342.79 18.6515 1346.76 23.1654 Q1350.72 27.6792 1350.72 35.6653 Q1350.72 43.6225 1346.76 48.1653 Q1342.79 52.6791 1335.85 52.6791 Q1328.87 52.6791 1324.91 48.1653 Q1320.98 43.6225 1320.98 35.6653 Q1320.98 27.6792 1324.91 23.1654 Q1328.87 18.6515 1335.85 18.6515 Z" fill="#000000" fill-rule="nonzero" fill-opacity="1" /><path clip-path="url(#clip540)" d="M1386.48 32.2799 L1386.48 51.84 L1381.16 51.84 L1381.16 32.4535 Q1381.16 27.8529 1379.37 25.567 Q1377.57 23.2811 1373.98 23.2811 Q1369.67 23.2811 1367.18 26.03 Q1364.7 28.7788 1364.7 33.5241 L1364.7 51.84 L1359.34 51.84 L1359.34 19.4328 L1364.7 19.4328 L1364.7 24.4675 Q1366.61 21.545 1369.18 20.0983 Q1371.79 18.6515 1375.17 18.6515 Q1380.76 18.6515 1383.62 22.1237 Q1386.48 25.567 1386.48 32.2799 Z" fill="#000000" fill-rule="nonzero" fill-opacity="1" /><path clip-path="url(#clip540)" d="M1430.67 35.5496 Q1424.22 35.5496 1421.73 37.0253 Q1419.24 38.501 1419.24 42.06 Q1419.24 44.8956 1421.09 46.5738 Q1422.97 48.2231 1426.18 48.2231 Q1430.61 48.2231 1433.27 45.0981 Q1435.96 41.9442 1435.96 36.7359 L1435.96 35.5496 L1430.67 35.5496 M1441.29 33.3505 L1441.29 51.84 L1435.96 51.84 L1435.96 46.921 Q1434.14 49.8724 1431.42 51.2902 Q1428.7 52.6791 1424.77 52.6791 Q1419.79 52.6791 1416.84 49.9014 Q1413.91 47.0947 1413.91 42.4072 Q1413.91 36.9385 1417.56 34.1607 Q1421.24 31.3829 1428.5 31.3829 L1435.96 31.3829 L1435.96 30.8621 Q1435.96 27.1874 1433.53 25.1908 Q1431.13 23.1654 1426.76 23.1654 Q1423.98 23.1654 1421.35 23.8309 Q1418.72 24.4964 1416.29 25.8274 L1416.29 20.9085 Q1419.21 19.78 1421.96 19.2302 Q1424.71 18.6515 1427.31 18.6515 Q1434.34 18.6515 1437.81 22.2973 Q1441.29 25.9431 1441.29 33.3505 Z" fill="#000000" fill-rule="nonzero" fill-opacity="1" /><path clip-path="url(#clip540)" d="M1457.52 10.2314 L1457.52 19.4328 L1468.49 19.4328 L1468.49 23.5705 L1457.52 23.5705 L1457.52 41.163 Q1457.52 45.1271 1458.59 46.2555 Q1459.69 47.384 1463.02 47.384 L1468.49 47.384 L1468.49 51.84 L1463.02 51.84 Q1456.85 51.84 1454.51 49.5541 Q1452.17 47.2393 1452.17 41.163 L1452.17 23.5705 L1448.26 23.5705 L1448.26 19.4328 L1452.17 19.4328 L1452.17 10.2314 L1457.52 10.2314 Z" fill="#000000" fill-rule="nonzero" fill-opacity="1" /><path clip-path="url(#clip540)" d="M1499.59 10.2314 L1499.59 19.4328 L1510.56 19.4328 L1510.56 23.5705 L1499.59 23.5705 L1499.59 41.163 Q1499.59 45.1271 1500.66 46.2555 Q1501.76 47.384 1505.09 47.384 L1510.56 47.384 L1510.56 51.84 L1505.09 51.84 Q1498.93 51.84 1496.58 49.5541 Q1494.24 47.2393 1494.24 41.163 L1494.24 23.5705 L1490.33 23.5705 L1490.33 19.4328 L1494.24 19.4328 L1494.24 10.2314 L1499.59 10.2314 Z" fill="#000000" fill-rule="nonzero" fill-opacity="1" /><path clip-path="url(#clip540)" d="M1518.25 24.9304 L1555.35 24.9304 L1555.35 29.7915 L1518.25 29.7915 L1518.25 24.9304 M1518.25 36.7359 L1555.35 36.7359 L1555.35 41.6549 L1518.25 41.6549 L1518.25 36.7359 Z" fill="#000000" fill-rule="nonzero" fill-opacity="1" /><path clip-path="url(#clip540)" d="M1625.49 46.921 L1635.04 46.921 L1635.04 13.964 L1624.65 16.0474 L1624.65 10.7233 L1634.98 8.64 L1640.82 8.64 L1640.82 46.921 L1650.37 46.921 L1650.37 51.84 L1625.49 51.84 L1625.49 46.921 Z" fill="#000000" fill-rule="nonzero" fill-opacity="1" /><path clip-path="url(#clip540)" d="M1662.18 44.4905 L1668.28 44.4905 L1668.28 51.84 L1662.18 51.84 L1662.18 44.4905 Z" fill="#000000" fill-rule="nonzero" fill-opacity="1" /><path clip-path="url(#clip540)" d="M1693.51 12.4884 Q1689 12.4884 1686.71 16.9444 Q1684.46 21.3714 1684.46 30.2834 Q1684.46 39.1665 1686.71 43.6225 Q1689 48.0495 1693.51 48.0495 Q1698.06 48.0495 1700.31 43.6225 Q1702.6 39.1665 1702.6 30.2834 Q1702.6 21.3714 1700.31 16.9444 Q1698.06 12.4884 1693.51 12.4884 M1693.51 7.85875 Q1700.78 7.85875 1704.6 13.6168 Q1708.44 19.346 1708.44 30.2834 Q1708.44 41.1919 1704.6 46.95 Q1700.78 52.6791 1693.51 52.6791 Q1686.25 52.6791 1682.4 46.95 Q1678.58 41.1919 1678.58 30.2834 Q1678.58 19.346 1682.4 13.6168 Q1686.25 7.85875 1693.51 7.85875 Z" fill="#000000" fill-rule="nonzero" fill-opacity="1" /><path clip-path="url(#clip540)" d="M1731.22 12.4884 Q1726.7 12.4884 1724.42 16.9444 Q1722.16 21.3714 1722.16 30.2834 Q1722.16 39.1665 1724.42 43.6225 Q1726.7 48.0495 1731.22 48.0495 Q1735.76 48.0495 1738.02 43.6225 Q1740.3 39.1665 1740.3 30.2834 Q1740.3 21.3714 1738.02 16.9444 Q1735.76 12.4884 1731.22 12.4884 M1731.22 7.85875 Q1738.48 7.85875 1742.3 13.6168 Q1746.15 19.346 1746.15 30.2834 Q1746.15 41.1919 1742.3 46.95 Q1738.48 52.6791 1731.22 52.6791 Q1723.95 52.6791 1720.11 46.95 Q1716.29 41.1919 1716.29 30.2834 Q1716.29 19.346 1720.11 13.6168 Q1723.95 7.85875 1731.22 7.85875 Z" fill="#000000" fill-rule="nonzero" fill-opacity="1" /><path clip-path="url(#clip540)" d="M1768.92 12.4884 Q1764.4 12.4884 1762.12 16.9444 Q1759.86 21.3714 1759.86 30.2834 Q1759.86 39.1665 1762.12 43.6225 Q1764.4 48.0495 1768.92 48.0495 Q1773.46 48.0495 1775.72 43.6225 Q1778 39.1665 1778 30.2834 Q1778 21.3714 1775.72 16.9444 Q1773.46 12.4884 1768.92 12.4884 M1768.92 7.85875 Q1776.18 7.85875 1780 13.6168 Q1783.85 19.346 1783.85 30.2834 Q1783.85 41.1919 1780 46.95 Q1776.18 52.6791 1768.92 52.6791 Q1761.66 52.6791 1757.81 46.95 Q1753.99 41.1919 1753.99 30.2834 Q1753.99 19.346 1757.81 13.6168 Q1761.66 7.85875 1768.92 7.85875 Z" fill="#000000" fill-rule="nonzero" fill-opacity="1" /><polyline clip-path="url(#clip541)" style="stroke:#009af9; stroke-linecap:round; stroke-linejoin:round; stroke-width:4; stroke-opacity:1; fill:none" points="280.231,1270.9 283.919,1274.47 287.608,1277.84 291.298,1281.04 294.989,1284.11 298.68,1287.08 302.371,1289.97 306.062,1292.81 309.752,1295.61 313.441,1298.38 317.129,1301.14 320.814,1303.86 324.497,1306.54 328.176,1309.18 331.853,1311.73 335.525,1314.18 339.193,1316.5 342.858,1318.65 346.518,1320.59 350.174,1322.3 353.825,1323.73 357.473,1324.84 361.117,1325.6 364.758,1325.98 368.396,1325.94 372.031,1325.45 375.664,1324.48 379.296,1323.02 382.927,1321.03 386.557,1318.49 390.188,1315.4 393.82,1311.74 397.454,1307.49 401.09,1302.66 404.73,1297.25 408.374,1291.25 412.022,1284.67 415.676,1277.53 419.337,1269.85 423.005,1261.64 426.68,1252.93 430.364,1243.76 434.057,1234.16 437.76,1224.17 441.472,1213.85 445.195,1203.23 448.929,1192.37 452.673,1181.32 456.428,1170.13 460.193,1158.85 463.969,1147.52 467.754,1136.2 471.55,1124.9 475.354,1113.67 479.166,1102.52 482.986,1091.47 486.813,1080.52 490.647,1069.67 494.487,1058.9 498.333,1048.22 502.184,1037.58 506.04,1026.98 509.901,1016.39 513.767,1005.77 517.637,995.118 521.513,984.402 525.394,973.608 529.281,962.724 533.174,951.743 537.072,940.663 540.977,929.488 544.889,918.227 548.808,906.894 552.735,895.505 556.668,884.081 560.608,872.642 564.556,861.208 568.511,849.8 572.472,838.433 576.44,827.12 580.413,815.868 584.392,804.681 588.377,793.553 592.365,782.478 596.358,771.438 600.354,760.414 604.354,749.379 608.356,738.301 612.36,727.142 616.367,715.86 620.376,704.406 624.386,692.724 628.399,680.752 632.413,668.426 636.429,655.672 640.448,642.416 644.47,628.582 648.496,614.091 652.528,598.87 656.566,582.848 660.613,565.962 664.67,548.162 668.739,529.409 672.824,509.681 676.926,488.98 681.048,467.328 685.195,444.78 689.367,421.421 693.57,397.372 697.806,372.796 702.078,347.9 706.388,322.937 710.738,298.205 715.131,274.05 719.565,250.854 724.041,229.027 728.556,208.99 733.106,191.144 737.686,175.849 742.288,163.382 746.905,153.919 751.529,147.511 756.152,144.087 760.766,143.465 765.366,145.383 769.946,149.526 774.505,155.563 779.041,163.168 783.552,172.042 788.039,181.919 792.503,192.571 796.944,203.807 801.366,215.471 805.768,227.437 810.152,239.602 814.52,251.889 818.874,264.239 823.215,276.61 827.543,288.978 831.862,301.336 836.172,313.693 840.473,326.075 844.768,338.521 849.057,351.083 853.34,363.823 857.617,376.805 861.888,390.095 866.153,403.751 870.411,417.822 874.661,432.344 878.902,447.336 883.132,462.798 887.351,478.717 891.558,495.061 895.751,511.791 899.93,528.854 904.095,546.195 908.244,563.757 912.378,581.481 916.497,599.312 920.6,617.199 924.689,635.096 928.762,652.96 932.821,670.754 936.865,688.443 940.894,705.998 944.909,723.387 948.911,740.583 952.898,757.558 956.872,774.282 960.833,790.727 964.78,806.862 968.714,822.655 972.636,838.074 976.545,853.086 980.443,867.658 984.328,881.761 988.203,895.363 992.067,908.437 995.922,920.957 999.767,932.901 1003.6,944.251 1007.43,954.99 1011.25,965.107 1015.07,974.594 1018.88,983.446 1022.68,991.662 1026.48,999.244 1030.28,1006.2 1034.07,1012.53 1037.86,1018.25 1041.65,1023.37 1045.44,1027.9 1049.22,1031.86 1053.01,1035.27 1056.8,1038.13 1060.58,1040.48 1064.37,1042.33 1068.16,1043.7 1071.95,1044.61 1075.75,1045.09 1079.54,1045.15 1083.34,1044.82 1087.15,1044.13 1090.95,1043.11 1094.76,1041.76 1098.58,1040.14 1102.4,1038.25 1106.22,1036.14 1110.05,1033.83 1113.88,1031.34 1117.72,1028.7 1121.56,1025.94 1125.4,1023.08 1129.25,1020.15 1133.11,1017.16 1136.97,1014.13 1140.83,1011.09 1144.69,1008.05 1148.56,1005.01 1152.43,1002 1156.31,999.013 1160.19,996.064 1164.07,993.157 1167.95,990.296 1171.84,987.483 1175.73,984.719 1179.62,982.006 1183.51,979.343 1187.41,976.729 1191.3,974.163 1195.2,971.642 1199.1,969.165 1203,966.729 1206.9,964.332 1210.81,961.974 1214.72,959.653 1218.62,957.369 1222.53,955.122 1226.44,952.914 1230.36,950.75 1234.27,948.631 1238.19,946.566 1242.11,944.56 1246.03,942.623 1249.95,940.764 1253.87,938.994 1257.8,937.325 1261.73,935.77 1265.66,934.34 1269.59,933.047 1273.52,931.904 1277.45,930.92 1281.38,930.101 1285.32,929.455 1289.25,928.983 1293.18,928.683 1297.11,928.551 1301.04,928.577 1304.97,928.748 1308.9,929.046 1312.82,929.45 1316.74,929.932 1320.66,930.466 1324.57,931.018 1328.49,931.555 1332.39,932.041 1336.3,932.441 1340.2,932.721 1344.1,932.844 1348,932.78 1351.89,932.499 1355.78,931.977 1359.67,931.191 1363.56,930.127 1367.46,928.775 1371.35,927.131 1375.24,925.2 1379.14,922.992 1383.03,920.524 1386.94,917.822 1390.84,914.916 1394.75,911.844 1398.66,908.647 1402.58,905.368 1406.5,902.055 1410.43,898.751 1414.36,895.5 1418.29,892.336 1422.23,889.289 1426.17,886.378 1430.11,883.61 1434.05,880.98 1437.99,878.472 1441.93,876.055 1445.87,873.688 1449.8,871.322 1453.73,868.897 1457.66,866.35 1461.58,863.616 1465.51,860.627 1469.42,857.315 1473.34,853.618 1477.26,849.474 1481.17,844.829 1485.09,839.631 1489,833.837 1492.92,827.408 1496.84,820.315 1500.77,812.535 1504.71,804.056 1508.65,794.876 1512.6,785.004 1516.57,774.465 1520.55,763.3 1524.55,751.571 1528.56,739.361 1532.6,726.778 1536.66,713.961 1540.74,701.079 1544.85,688.333 1548.98,675.958 1553.15,664.219 1557.34,653.404 1561.56,643.814 1565.8,635.752 1570.06,629.502 1574.33,625.307 1578.62,623.354 1582.91,623.748 1587.2,626.509 1591.48,631.562 1595.75,638.75 1600,647.843 1604.22,658.563 1608.42,670.604 1612.59,683.654 1616.74,697.416 1620.86,711.614 1624.95,726.01 1629.02,740.402 1633.07,754.628 1637.09,768.561 1641.11,782.11 1645.1,795.211 1649.09,807.83 1653.06,819.953 1657.03,831.588 1660.98,842.758 1664.94,853.503 1668.89,863.873 1672.84,873.934 1676.79,883.762 1680.74,893.442 1684.69,903.07 1688.64,912.75 1692.59,922.596 1696.55,932.724 1700.5,943.253 1704.46,954.3 1708.41,965.973 1712.36,978.366 1716.31,991.552 1720.25,1005.58 1724.17,1020.45 1728.09,1036.16 1731.99,1052.64 1735.87,1069.81 1739.74,1087.56 1743.58,1105.76 1747.4,1124.25 1751.19,1142.89 1754.97,1161.52 1758.72,1180 1762.44,1198.18 1766.15,1215.93 1769.83,1233.14 1773.49,1249.69 1777.14,1265.5 1780.76,1280.49 1784.37,1294.57 1787.96,1307.7 1791.54,1319.83 1795.11,1330.9 1798.67,1340.89 1802.22,1349.77 1805.76,1357.51 1809.29,1364.09 1812.81,1369.51 1816.33,1373.76 1819.85,1376.82 1823.37,1378.69 1826.89,1379.39 1830.4,1378.91 1833.92,1377.26 1837.44,1374.45 1840.97,1370.5 1844.5,1365.43 1848.04,1359.25 1851.58,1352 1855.13,1343.71 1858.7,1334.42 1862.27,1324.16 1865.86,1312.99 1869.46,1300.96 1873.07,1288.13 1876.7,1274.58 1880.35,1260.39 1884.01,1245.62 1887.69,1230.39 1891.39,1214.78 1895.11,1198.89 1898.84,1182.84 1902.59,1166.72 1906.36,1150.63 1910.15,1134.67 1913.94,1118.91 1917.76,1103.41 1921.58,1088.21 1925.41,1073.33 1929.25,1058.76 1933.1,1044.45 1936.95,1030.35 1940.81,1016.39 1944.67,1002.46 1948.53,988.471 1952.4,974.317 1956.27,959.896 1960.14,945.112 1964.02,929.88 1967.91,914.125 1971.8,897.785 1975.7,880.81 1979.61,863.164 1983.53,844.823 1987.47,825.776 1991.43,806.025 1995.41,785.586 1999.4,764.494 2003.42,742.801 2007.47,720.587 2011.55,697.96 2015.66,675.068 2019.81,652.108 2024,629.337 2028.23,607.078 2032.51,585.733 2036.83,565.777 2041.2,547.748 2045.61,532.219 2050.05,519.755 2054.52,510.847 2059.02,505.854 2063.51,504.95 2068,508.098 2072.48,515.065 2076.92,525.464 2081.34,538.808 2085.71,554.57 2090.04,572.234 2094.33,591.322 2098.58,611.415 2102.79,632.157 2106.97,653.254 2111.11,674.469 2115.22,695.613 2119.29,716.539 2123.35,737.133 2127.37,757.312 2131.38,777.013 2135.37,796.197 2139.34,814.836 2143.29,832.922 2147.23,850.455 2151.15,867.449 2155.07,883.923 2158.97,899.91 2162.86,915.443 2166.75,930.566 2170.63,945.32 2174.5,959.751 2178.36,973.901 2182.22,987.81 2186.07,1001.51 2189.91,1015.03 2193.75,1028.39 2197.57,1041.6 2201.39,1054.65 2205.2,1067.55 2209,1080.27 2212.79,1092.78 2216.58,1105.08 2220.35,1117.11 2224.12,1128.85 2227.87,1140.26 2231.62,1151.31 2235.36,1161.98 2239.09,1172.22 2242.81,1182.02 2246.53,1191.36 2250.24,1200.22 2253.94,1208.59 2257.64,1216.47 2261.34,1223.86 2265.03,1230.76 2268.72,1237.2 2272.41,1243.17 2276.1,1248.71 2279.78,1253.85 2283.47,1258.6 2287.16,1263 2290.84,1267.09 "/>
<polyline clip-path="url(#clip541)" style="stroke:#e26f46; stroke-linecap:round; stroke-linejoin:round; stroke-width:4; stroke-opacity:1; fill:none" points="282.026,1307.71 285.96,1310.85 289.894,1313.44 293.829,1315.52 297.763,1317.1 301.697,1318.21 305.631,1318.88 309.565,1319.13 313.5,1318.97 317.434,1318.44 321.368,1317.54 325.302,1316.3 329.236,1314.74 333.17,1312.87 337.105,1310.7 341.039,1308.26 344.973,1305.56 348.907,1302.6 352.841,1299.41 356.775,1296.01 360.71,1292.39 364.644,1288.58 368.578,1284.6 372.512,1280.45 376.446,1276.16 380.381,1271.72 384.315,1267.17 388.249,1262.5 392.183,1257.72 396.117,1252.86 400.051,1247.91 403.986,1242.87 407.92,1237.77 411.854,1232.58 415.788,1227.32 419.722,1221.99 423.656,1216.57 427.591,1211.06 431.525,1205.46 435.459,1199.76 439.393,1193.94 443.327,1188 447.262,1181.92 451.196,1175.69 455.13,1169.3 459.064,1162.73 462.998,1155.98 466.932,1149.02 470.867,1141.84 474.801,1134.44 478.735,1126.79 482.669,1118.88 486.603,1110.7 490.538,1102.23 494.472,1093.47 498.406,1084.4 502.34,1075 506.274,1065.26 510.208,1055.17 514.143,1044.72 518.077,1033.91 522.011,1022.71 525.945,1011.13 529.879,999.164 533.813,986.808 537.748,974.066 541.682,960.946 545.616,947.459 549.55,933.62 553.484,919.45 557.419,904.972 561.353,890.216 565.287,875.213 569.221,859.998 573.155,844.61 577.089,829.087 581.024,813.467 584.958,797.789 588.892,782.09 592.826,766.403 596.76,750.759 600.695,735.186 604.629,719.705 608.563,704.336 612.497,689.093 616.431,673.986 620.365,659.023 624.3,644.208 628.234,629.544 632.168,615.03 636.102,600.666 640.036,586.449 643.97,572.378 647.905,558.447 651.839,544.652 655.773,530.988 659.707,517.448 663.641,504.025 667.576,490.712 671.51,477.498 675.444,464.377 679.378,451.341 683.312,438.386 687.246,425.508 691.181,412.71 695.115,399.998 699.049,387.387 702.983,374.893 706.917,362.544 710.851,350.372 714.786,338.415 718.72,326.716 722.654,315.322 726.588,304.283 730.522,293.648 734.457,283.465 738.391,273.78 742.325,264.633 746.259,256.059 750.193,248.086 754.127,240.734 758.062,234.017 761.996,227.942 765.93,222.51 769.864,217.719 773.798,213.562 777.733,210.033 781.667,207.127 785.601,204.843 789.535,203.182 793.469,202.155 797.403,201.78 801.338,202.08 805.272,203.089 809.206,204.847 813.14,207.4 817.074,210.798 821.008,215.092 824.943,220.332 828.877,226.565 832.811,233.833 836.745,242.169 840.679,251.597 844.614,262.13 848.548,273.767 852.482,286.498 856.416,300.296 860.35,315.126 864.284,330.94 868.219,347.679 872.153,365.277 876.087,383.661 880.021,402.752 883.955,422.466 887.89,442.72 891.824,463.428 895.758,484.505 899.692,505.87 903.626,527.441 907.56,549.143 911.495,570.904 915.429,592.656 919.363,614.336 923.297,635.886 927.231,657.253 931.165,678.386 935.1,699.239 939.034,719.771 942.968,739.941 946.902,759.711 950.836,779.046 954.771,797.91 958.705,816.269 962.639,834.092 966.573,851.346 970.507,868 974.441,884.025 978.376,899.39 982.31,914.071 986.244,928.04 990.178,941.277 994.112,953.761 998.046,965.474 1001.98,976.405 1005.91,986.544 1009.85,995.883 1013.78,1004.42 1017.72,1012.17 1021.65,1019.12 1025.59,1025.29 1029.52,1030.69 1033.45,1035.35 1037.39,1039.27 1041.32,1042.5 1045.26,1045.04 1049.19,1046.94 1053.12,1048.22 1057.06,1048.92 1060.99,1049.06 1064.93,1048.68 1068.86,1047.82 1072.8,1046.5 1076.73,1044.77 1080.66,1042.64 1084.6,1040.17 1088.53,1037.36 1092.47,1034.26 1096.4,1030.9 1100.34,1027.31 1104.27,1023.51 1108.2,1019.54 1112.14,1015.42 1116.07,1011.18 1120.01,1006.86 1123.94,1002.47 1127.87,998.054 1131.81,993.633 1135.74,989.236 1139.68,984.891 1143.61,980.623 1147.55,976.459 1151.48,972.422 1155.41,968.535 1159.35,964.819 1163.28,961.293 1167.22,957.974 1171.15,954.876 1175.08,952.011 1179.02,949.39 1182.95,947.018 1186.89,944.901 1190.82,943.039 1194.76,941.433 1198.69,940.079 1202.62,938.972 1206.56,938.102 1210.49,937.462 1214.43,937.038 1218.36,936.818 1222.29,936.786 1226.23,936.927 1230.16,937.224 1234.1,937.66 1238.03,938.217 1241.97,938.877 1245.9,939.623 1249.83,940.44 1253.77,941.309 1257.7,942.218 1261.64,943.151 1265.57,944.096 1269.5,945.04 1273.44,945.973 1277.37,946.883 1281.31,947.763 1285.24,948.601 1289.18,949.388 1293.11,950.116 1297.04,950.775 1300.98,951.354 1304.91,951.843 1308.85,952.23 1312.78,952.504 1316.71,952.652 1320.65,952.662 1324.58,952.52 1328.52,952.213 1332.45,951.729 1336.39,951.056 1340.32,950.182 1344.25,949.098 1348.19,947.794 1352.12,946.265 1356.06,944.504 1359.99,942.508 1363.93,940.276 1367.86,937.809 1371.79,935.111 1375.73,932.185 1379.66,929.039 1383.6,925.682 1387.53,922.125 1391.46,918.38 1395.4,914.46 1399.33,910.382 1403.27,906.162 1407.2,901.817 1411.14,897.366 1415.07,892.829 1419,888.225 1422.94,883.574 1426.87,878.896 1430.81,874.209 1434.74,869.528 1438.67,864.87 1442.61,860.245 1446.54,855.662 1450.48,851.126 1454.41,846.637 1458.35,842.191 1462.28,837.782 1466.21,833.396 1470.15,829.02 1474.08,824.634 1478.02,820.218 1481.95,815.752 1485.88,811.212 1489.82,806.579 1493.75,801.834 1497.69,796.96 1501.62,791.947 1505.56,786.785 1509.49,781.474 1513.42,776.018 1517.36,770.426 1521.29,764.714 1525.23,758.905 1529.16,753.026 1533.09,747.111 1537.03,741.197 1540.96,735.328 1544.9,729.549 1548.83,723.908 1552.77,718.457 1556.7,713.247 1560.63,708.332 1564.57,703.763 1568.5,699.592 1572.44,695.867 1576.37,692.634 1580.3,689.936 1584.24,687.812 1588.17,686.294 1592.11,685.41 1596.04,685.185 1599.98,685.636 1603.91,686.776 1607.84,688.614 1611.78,691.154 1615.71,694.397 1619.65,698.338 1623.58,702.974 1627.52,708.294 1631.45,714.289 1635.38,720.945 1639.32,728.247 1643.25,736.182 1647.19,744.733 1651.12,753.886 1655.05,763.626 1658.99,773.941 1662.92,784.822 1666.86,796.26 1670.79,808.253 1674.73,820.799 1678.66,833.898 1682.59,847.553 1686.53,861.766 1690.46,876.537 1694.4,891.865 1698.33,907.744 1702.26,924.16 1706.2,941.096 1710.13,958.522 1714.07,976.403 1718,994.694 1721.94,1013.34 1725.87,1032.28 1729.8,1051.45 1733.74,1070.77 1737.67,1090.16 1741.61,1109.54 1745.54,1128.82 1749.47,1147.93 1753.41,1166.78 1757.34,1185.28 1761.28,1203.35 1765.21,1220.93 1769.15,1237.92 1773.08,1254.26 1777.01,1269.89 1780.95,1284.74 1784.88,1298.75 1788.82,1311.86 1792.75,1324.03 1796.68,1335.21 1800.62,1345.37 1804.55,1354.45 1808.49,1362.43 1812.42,1369.28 1816.36,1374.98 1820.29,1379.51 1824.22,1382.85 1828.16,1384.98 1832.09,1385.91 1836.03,1385.62 1839.96,1384.11 1843.89,1381.39 1847.83,1377.46 1851.76,1372.33 1855.7,1366.02 1859.63,1358.54 1863.57,1349.92 1867.5,1340.18 1871.43,1329.35 1875.37,1317.47 1879.3,1304.58 1883.24,1290.72 1887.17,1275.95 1891.1,1260.31 1895.04,1243.86 1898.97,1226.65 1902.91,1208.76 1906.84,1190.23 1910.78,1171.14 1914.71,1151.54 1918.64,1131.5 1922.58,1111.08 1926.51,1090.33 1930.45,1069.31 1934.38,1048.08 1938.32,1026.67 1942.25,1005.14 1946.18,983.53 1950.12,961.871 1954.05,940.201 1957.99,918.557 1961.92,896.971 1965.85,875.481 1969.79,854.125 1973.72,832.948 1977.66,811.997 1981.59,791.331 1985.53,771.013 1989.46,751.115 1993.39,731.717 1997.33,712.905 2001.26,694.773 2005.2,677.416 2009.13,660.931 2013.06,645.414 2017,630.956 2020.93,617.645 2024.87,605.558 2028.8,594.762 2032.74,585.313 2036.67,577.256 2040.6,570.622 2044.54,565.43 2048.47,561.689 2052.41,559.395 2056.34,558.536 2060.27,559.089 2064.21,561.026 2068.14,564.31 2072.08,568.896 2076.01,574.736 2079.95,581.773 2083.88,589.945 2087.81,599.187 2091.75,609.424 2095.68,620.582 2099.62,632.582 2103.55,645.341 2107.48,658.779 2111.42,672.817 2115.35,687.377 2119.29,702.387 2123.22,717.782 2127.16,733.501 2131.09,749.493 2135.02,765.712 2138.96,782.12 2142.89,798.686 2146.83,815.382 2150.76,832.186 2154.69,849.08 2158.63,866.045 2162.56,883.067 2166.5,900.129 2170.43,917.215 2174.37,934.306 2178.3,951.384 2182.23,968.426 2186.17,985.407 2190.1,1002.3 2194.04,1019.08 2197.97,1035.71 2201.91,1052.15 2205.84,1068.38 2209.77,1084.35 2213.71,1100.03 2217.64,1115.37 2221.58,1130.34 2225.51,1144.9 2229.44,1159.01 2233.38,1172.64 2237.31,1185.75 2241.25,1198.3 2245.18,1210.28 2249.12,1221.66 2253.05,1232.41 2256.98,1242.52 2260.92,1251.98 2264.85,1260.77 2268.79,1268.9 2272.72,1276.37 2276.65,1283.17 2280.59,1289.33 2284.52,1294.84 2288.46,1299.73 2292.39,1304.02 "/>
<polyline clip-path="url(#clip541)" style="stroke:#3da44d; stroke-linecap:round; stroke-linejoin:round; stroke-width:4; stroke-opacity:1; fill:none" points="282.026,1278 285.96,1281.41 289.894,1284.57 293.829,1287.52 297.763,1290.31 301.697,1292.99 305.631,1295.59 309.565,1298.13 313.5,1300.65 317.434,1303.14 321.368,1305.62 325.302,1308.08 329.236,1310.51 333.17,1312.87 337.105,1315.15 341.039,1317.29 344.973,1319.26 348.907,1321 352.841,1322.46 356.775,1323.6 360.71,1324.35 364.644,1324.66 368.578,1324.48 372.512,1323.76 376.446,1322.46 380.381,1320.54 384.315,1317.97 388.249,1314.72 392.183,1310.77 396.117,1306.13 400.051,1300.78 403.986,1294.75 407.92,1288.03 411.854,1280.66 415.788,1272.68 419.722,1264.12 423.656,1255.03 427.591,1245.46 431.525,1235.47 435.459,1225.13 439.393,1214.49 443.327,1203.61 447.262,1192.56 451.196,1181.4 455.13,1170.19 459.064,1158.96 462.998,1147.76 466.932,1136.64 470.867,1125.61 474.801,1114.69 478.735,1103.89 482.669,1093.21 486.603,1082.65 490.538,1072.18 494.472,1061.78 498.406,1051.43 502.34,1041.1 506.274,1030.75 510.208,1020.35 514.143,1009.88 518.077,999.306 522.011,988.602 525.945,977.753 529.879,966.746 533.813,955.576 537.748,944.242 541.682,932.752 545.616,921.117 549.55,909.354 553.484,897.484 557.419,885.529 561.353,873.514 565.287,861.466 569.221,849.409 573.155,837.365 577.089,825.357 581.024,813.401 584.958,801.511 588.892,789.695 592.826,777.959 596.76,766.299 600.695,754.706 604.629,743.166 608.563,731.656 612.497,720.144 616.431,708.592 620.365,696.953 624.3,685.171 628.234,673.185 632.168,660.926 636.102,648.322 640.036,635.299 643.97,621.782 647.905,607.702 651.839,592.993 655.773,577.602 659.707,561.49 663.641,544.631 667.576,527.02 671.51,508.674 675.444,489.631 679.378,469.953 683.312,449.726 687.246,429.057 691.181,408.076 695.115,386.93 699.049,365.785 702.983,344.819 706.917,324.219 710.851,304.177 714.786,284.887 718.72,266.54 722.654,249.317 726.588,233.388 730.522,218.902 734.457,205.989 738.391,194.749 742.325,185.255 746.259,177.546 750.193,171.629 754.127,167.478 758.062,165.036 761.996,164.217 765.93,164.913 769.864,166.995 773.798,170.325 777.733,174.753 781.667,180.133 785.601,186.317 789.535,193.17 793.469,200.568 797.403,208.4 801.338,216.574 805.272,225.016 809.206,233.672 813.14,242.504 817.074,251.496 821.008,260.646 824.943,269.968 828.877,279.491 832.811,289.251 836.745,299.296 840.679,309.676 844.614,320.445 848.548,331.652 852.482,343.344 856.416,355.559 860.35,368.324 864.284,381.655 868.219,395.556 872.153,410.016 876.087,425.014 880.021,440.515 883.955,456.477 887.89,472.85 891.824,489.579 895.758,506.608 899.692,523.877 903.626,541.33 907.56,558.916 911.495,576.584 915.429,594.291 919.363,611.998 923.297,629.674 927.231,647.29 931.165,664.823 935.1,682.253 939.034,699.564 942.968,716.741 946.902,733.769 950.836,750.633 954.771,767.317 958.705,783.801 962.639,800.065 966.573,816.084 970.507,831.83 974.441,847.271 978.376,862.373 982.31,877.098 986.244,891.408 990.178,905.262 994.112,918.619 998.046,931.44 1001.98,943.687 1005.91,955.324 1009.85,966.321 1013.78,976.65 1017.72,986.288 1021.65,995.218 1025.59,1003.43 1029.52,1010.92 1033.45,1017.68 1037.39,1023.72 1041.32,1029.05 1045.26,1033.69 1049.19,1037.65 1053.12,1040.95 1057.06,1043.62 1060.99,1045.68 1064.93,1047.18 1068.86,1048.12 1072.8,1048.56 1076.73,1048.51 1080.66,1048.02 1084.6,1047.1 1088.53,1045.81 1092.47,1044.16 1096.4,1042.19 1100.34,1039.93 1104.27,1037.41 1108.2,1034.66 1112.14,1031.71 1116.07,1028.58 1120.01,1025.3 1123.94,1021.9 1127.87,1018.41 1131.81,1014.84 1135.74,1011.22 1139.68,1007.59 1143.61,1003.95 1147.55,1000.33 1151.48,996.762 1155.41,993.259 1159.35,989.842 1163.28,986.529 1167.22,983.336 1171.15,980.274 1175.08,977.355 1179.02,974.585 1182.95,971.967 1186.89,969.5 1190.82,967.18 1194.76,964.998 1198.69,962.944 1202.62,961.005 1206.56,959.164 1210.49,957.406 1214.43,955.715 1218.36,954.074 1222.29,952.469 1226.23,950.889 1230.16,949.324 1234.1,947.769 1238.03,946.222 1241.97,944.687 1245.9,943.169 1249.83,941.678 1253.77,940.228 1257.7,938.834 1261.64,937.513 1265.57,936.286 1269.5,935.17 1273.44,934.184 1277.37,933.344 1281.31,932.665 1285.24,932.158 1289.18,931.83 1293.11,931.681 1297.04,931.71 1300.98,931.908 1304.91,932.26 1308.85,932.746 1312.78,933.342 1316.71,934.017 1320.65,934.736 1324.58,935.462 1328.52,936.154 1332.45,936.768 1336.39,937.261 1340.32,937.59 1344.25,937.713 1348.19,937.593 1352.12,937.194 1356.06,936.487 1359.99,935.45 1363.93,934.066 1367.86,932.329 1371.79,930.24 1375.73,927.809 1379.66,925.057 1383.6,922.012 1387.53,918.711 1391.46,915.197 1395.4,911.522 1399.33,907.739 1403.27,903.903 1407.2,900.07 1411.14,896.293 1415.07,892.62 1419,889.089 1422.94,885.733 1426.87,882.57 1430.81,879.608 1434.74,876.841 1438.67,874.25 1442.61,871.802 1446.54,869.455 1450.48,867.152 1454.41,864.832 1458.35,862.422 1462.28,859.849 1466.21,857.034 1470.15,853.9 1474.08,850.368 1478.02,846.368 1481.95,841.832 1485.88,836.702 1489.82,830.926 1493.75,824.467 1497.69,817.299 1501.62,809.411 1505.56,800.807 1509.49,791.509 1513.42,781.557 1517.36,771.011 1521.29,759.951 1525.23,748.478 1529.16,736.712 1533.09,724.791 1537.03,712.871 1540.96,701.122 1544.9,689.725 1548.83,678.866 1552.77,668.734 1556.7,659.515 1560.63,651.385 1564.57,644.508 1568.5,639.027 1572.44,635.061 1576.37,632.702 1580.3,632.012 1584.24,633.015 1588.17,635.706 1592.11,640.043 1596.04,645.949 1599.98,653.321 1603.91,662.026 1607.84,671.909 1611.78,682.798 1615.71,694.511 1619.65,706.861 1623.58,719.663 1627.52,732.74 1631.45,745.928 1635.38,759.081 1639.32,772.073 1643.25,784.803 1647.19,797.197 1651.12,809.205 1655.05,820.802 1658.99,831.989 1662.92,842.789 1666.86,853.245 1670.79,863.417 1674.73,873.381 1678.66,883.225 1682.59,893.046 1686.53,902.947 1690.46,913.035 1694.4,923.418 1698.33,934.201 1702.26,945.482 1706.2,957.353 1710.13,969.89 1714.07,983.157 1718,997.196 1721.94,1012.03 1725.87,1027.66 1729.8,1044.07 1733.74,1061.2 1737.67,1078.98 1741.61,1097.34 1745.54,1116.14 1749.47,1135.28 1753.41,1154.6 1757.34,1173.96 1761.28,1193.21 1765.21,1212.19 1769.15,1230.76 1773.08,1248.75 1777.01,1266.03 1780.95,1282.46 1784.88,1297.93 1788.82,1312.32 1792.75,1325.53 1796.68,1337.48 1800.62,1348.09 1804.55,1357.3 1808.49,1365.05 1812.42,1371.31 1816.36,1376.06 1820.29,1379.26 1824.22,1380.92 1828.16,1381.05 1832.09,1379.64 1836.03,1376.74 1839.96,1372.38 1843.89,1366.59 1847.83,1359.45 1851.76,1351.01 1855.7,1341.34 1859.63,1330.54 1863.57,1318.7 1867.5,1305.91 1871.43,1292.28 1875.37,1277.92 1879.3,1262.96 1883.24,1247.5 1887.17,1231.66 1891.1,1215.56 1895.04,1199.31 1898.97,1183 1902.91,1166.73 1906.84,1150.58 1910.78,1134.6 1914.71,1118.84 1918.64,1103.33 1922.58,1088.07 1926.51,1073.04 1930.45,1058.23 1934.38,1043.56 1938.32,1028.99 1942.25,1014.43 1946.18,999.793 1950.12,984.995 1954.05,969.943 1957.99,954.55 1961.92,938.735 1965.85,922.426 1969.79,905.566 1973.72,888.109 1977.66,870.027 1981.59,851.309 1985.53,831.964 1989.46,812.021 1993.39,791.529 1997.33,770.563 2001.26,749.219 2005.2,727.621 2009.13,705.916 2013.06,684.279 2017,662.912 2020.93,642.037 2024.87,621.899 2028.8,602.757 2032.74,584.879 2036.67,568.532 2040.6,553.975 2044.54,541.447 2048.47,531.158 2052.41,523.281 2056.34,517.943 2060.27,515.219 2064.21,515.132 2068.14,517.648 2072.08,522.687 2076.01,530.118 2079.95,539.774 2083.88,551.455 2087.81,564.941 2091.75,579.998 2095.68,596.386 2099.62,613.868 2103.55,632.216 2107.48,651.214 2111.42,670.662 2115.35,690.378 2119.29,710.202 2123.22,729.993 2127.16,749.63 2131.09,769.014 2135.02,788.063 2138.96,806.717 2142.89,824.931 2146.83,842.68 2150.76,859.953 2154.69,876.754 2158.63,893.099 2162.56,909.017 2166.5,924.544 2170.43,939.723 2174.37,954.599 2178.3,969.22 2182.23,983.629 2186.17,997.867 2190.1,1011.97 2194.04,1025.95 2197.97,1039.84 2201.91,1053.63 2205.84,1067.32 2209.77,1080.88 2213.71,1094.3 2217.64,1107.54 2221.58,1120.55 2225.51,1133.28 2229.44,1145.7 2233.38,1157.74 2237.31,1169.36 2241.25,1180.51 2245.18,1191.15 2249.12,1201.25 2253.05,1210.77 2256.98,1219.7 2260.92,1228.03 2264.85,1235.75 2268.79,1242.86 2272.72,1249.39 2276.65,1255.36 2280.59,1260.79 2284.52,1265.73 2288.46,1270.21 2292.39,1274.28 "/>
<path clip-path="url(#clip540)" d="M1513 357.452 L2281.66 357.452 L2281.66 150.092 L1513 150.092  Z" fill="#ffffff" fill-rule="evenodd" fill-opacity="1"/>
<polyline clip-path="url(#clip540)" style="stroke:#000000; stroke-linecap:round; stroke-linejoin:round; stroke-width:4; stroke-opacity:1; fill:none" points="1513,357.452 2281.66,357.452 2281.66,150.092 1513,150.092 1513,357.452 "/>
<polyline clip-path="url(#clip540)" style="stroke:#009af9; stroke-linecap:round; stroke-linejoin:round; stroke-width:4; stroke-opacity:1; fill:none" points="1536.7,201.932 1678.89,201.932 "/>
<path clip-path="url(#clip540)" d="M1702.59 193.286 L1706.85 193.286 L1712.18 213.517 L1717.48 193.286 L1722.5 193.286 L1727.82 213.517 L1733.13 193.286 L1737.38 193.286 L1730.6 219.212 L1725.58 219.212 L1720 197.962 L1714.4 219.212 L1709.38 219.212 L1702.59 193.286 Z" fill="#000000" fill-rule="nonzero" fill-opacity="1" /><path clip-path="url(#clip540)" d="M1755.63 206.179 Q1750.46 206.179 1748.47 207.36 Q1746.48 208.54 1746.48 211.388 Q1746.48 213.656 1747.96 214.999 Q1749.47 216.318 1752.04 216.318 Q1755.58 216.318 1757.71 213.818 Q1759.86 211.295 1759.86 207.128 L1759.86 206.179 L1755.63 206.179 M1764.12 204.42 L1764.12 219.212 L1759.86 219.212 L1759.86 215.277 Q1758.4 217.638 1756.23 218.772 Q1754.05 219.883 1750.9 219.883 Q1746.92 219.883 1744.56 217.661 Q1742.22 215.415 1742.22 211.665 Q1742.22 207.29 1745.14 205.068 Q1748.08 202.846 1753.89 202.846 L1759.86 202.846 L1759.86 202.429 Q1759.86 199.49 1757.92 197.892 Q1756 196.272 1752.5 196.272 Q1750.28 196.272 1748.17 196.804 Q1746.07 197.337 1744.12 198.402 L1744.12 194.466 Q1746.46 193.564 1748.66 193.124 Q1750.86 192.661 1752.94 192.661 Q1758.57 192.661 1761.34 195.578 Q1764.12 198.494 1764.12 204.42 Z" fill="#000000" fill-rule="nonzero" fill-opacity="1" /><path clip-path="url(#clip540)" d="M1777.11 185.925 L1777.11 193.286 L1785.88 193.286 L1785.88 196.596 L1777.11 196.596 L1777.11 210.67 Q1777.11 213.841 1777.96 214.744 Q1778.84 215.647 1781.51 215.647 L1785.88 215.647 L1785.88 219.212 L1781.51 219.212 Q1776.57 219.212 1774.7 217.383 Q1772.82 215.531 1772.82 210.67 L1772.82 196.596 L1769.7 196.596 L1769.7 193.286 L1772.82 193.286 L1772.82 185.925 L1777.11 185.925 Z" fill="#000000" fill-rule="nonzero" fill-opacity="1" /><path clip-path="url(#clip540)" d="M1813.66 205.184 L1813.66 207.267 L1794.07 207.267 Q1794.35 211.665 1796.71 213.98 Q1799.1 216.272 1803.33 216.272 Q1805.79 216.272 1808.08 215.67 Q1810.39 215.068 1812.66 213.865 L1812.66 217.892 Q1810.37 218.864 1807.96 219.374 Q1805.56 219.883 1803.08 219.883 Q1796.88 219.883 1793.24 216.272 Q1789.63 212.661 1789.63 206.503 Q1789.63 200.138 1793.06 196.411 Q1796.5 192.661 1802.34 192.661 Q1807.57 192.661 1810.6 196.041 Q1813.66 199.397 1813.66 205.184 M1809.4 203.934 Q1809.35 200.439 1807.43 198.355 Q1805.53 196.272 1802.38 196.272 Q1798.82 196.272 1796.67 198.286 Q1794.54 200.3 1794.21 203.957 L1809.4 203.934 Z" fill="#000000" fill-rule="nonzero" fill-opacity="1" /><path clip-path="url(#clip540)" d="M1835.67 197.267 Q1834.95 196.851 1834.1 196.666 Q1833.26 196.457 1832.25 196.457 Q1828.63 196.457 1826.69 198.818 Q1824.77 201.156 1824.77 205.554 L1824.77 219.212 L1820.49 219.212 L1820.49 193.286 L1824.77 193.286 L1824.77 197.314 Q1826.11 194.953 1828.26 193.818 Q1830.42 192.661 1833.5 192.661 Q1833.94 192.661 1834.47 192.73 Q1835 192.777 1835.65 192.892 L1835.67 197.267 Z" fill="#000000" fill-rule="nonzero" fill-opacity="1" /><path clip-path="url(#clip540)" d="M1852.73 193.286 L1856.99 193.286 L1862.31 213.517 L1867.62 193.286 L1872.64 193.286 L1877.96 213.517 L1883.26 193.286 L1887.52 193.286 L1880.74 219.212 L1875.72 219.212 L1870.14 197.962 L1864.54 219.212 L1859.51 219.212 L1852.73 193.286 Z" fill="#000000" fill-rule="nonzero" fill-opacity="1" /><path clip-path="url(#clip540)" d="M1905.76 206.179 Q1900.6 206.179 1898.61 207.36 Q1896.62 208.54 1896.62 211.388 Q1896.62 213.656 1898.1 214.999 Q1899.61 216.318 1902.18 216.318 Q1905.72 216.318 1907.85 213.818 Q1910 211.295 1910 207.128 L1910 206.179 L1905.76 206.179 M1914.26 204.42 L1914.26 219.212 L1910 219.212 L1910 215.277 Q1908.54 217.638 1906.37 218.772 Q1904.19 219.883 1901.04 219.883 Q1897.06 219.883 1894.7 217.661 Q1892.36 215.415 1892.36 211.665 Q1892.36 207.29 1895.28 205.068 Q1898.22 202.846 1904.03 202.846 L1910 202.846 L1910 202.429 Q1910 199.49 1908.06 197.892 Q1906.13 196.272 1902.64 196.272 Q1900.42 196.272 1898.31 196.804 Q1896.2 197.337 1894.26 198.402 L1894.26 194.466 Q1896.6 193.564 1898.8 193.124 Q1901 192.661 1903.08 192.661 Q1908.7 192.661 1911.48 195.578 Q1914.26 198.494 1914.26 204.42 Z" fill="#000000" fill-rule="nonzero" fill-opacity="1" /><path clip-path="url(#clip540)" d="M1919.98 193.286 L1924.49 193.286 L1932.59 215.045 L1940.69 193.286 L1945.21 193.286 L1935.49 219.212 L1929.7 219.212 L1919.98 193.286 Z" fill="#000000" fill-rule="nonzero" fill-opacity="1" /><path clip-path="url(#clip540)" d="M1973.26 205.184 L1973.26 207.267 L1953.68 207.267 Q1953.96 211.665 1956.32 213.98 Q1958.7 216.272 1962.94 216.272 Q1965.39 216.272 1967.68 215.67 Q1970 215.068 1972.27 213.865 L1972.27 217.892 Q1969.98 218.864 1967.57 219.374 Q1965.16 219.883 1962.68 219.883 Q1956.48 219.883 1952.85 216.272 Q1949.24 212.661 1949.24 206.503 Q1949.24 200.138 1952.66 196.411 Q1956.11 192.661 1961.94 192.661 Q1967.18 192.661 1970.21 196.041 Q1973.26 199.397 1973.26 205.184 M1969 203.934 Q1968.96 200.439 1967.04 198.355 Q1965.14 196.272 1961.99 196.272 Q1958.43 196.272 1956.27 198.286 Q1954.14 200.3 1953.82 203.957 L1969 203.934 Z" fill="#000000" fill-rule="nonzero" fill-opacity="1" /><path clip-path="url(#clip540)" d="M1996.78 194.05 L1996.78 198.078 Q1994.98 197.152 1993.03 196.689 Q1991.09 196.226 1989 196.226 Q1985.83 196.226 1984.24 197.198 Q1982.66 198.17 1982.66 200.115 Q1982.66 201.596 1983.8 202.453 Q1984.93 203.286 1988.36 204.05 L1989.81 204.374 Q1994.35 205.346 1996.25 207.128 Q1998.17 208.888 1998.17 212.059 Q1998.17 215.67 1995.3 217.777 Q1992.45 219.883 1987.45 219.883 Q1985.37 219.883 1983.1 219.466 Q1980.86 219.073 1978.36 218.263 L1978.36 213.865 Q1980.72 215.091 1983.01 215.716 Q1985.3 216.318 1987.55 216.318 Q1990.55 216.318 1992.18 215.3 Q1993.8 214.258 1993.8 212.383 Q1993.8 210.647 1992.62 209.721 Q1991.46 208.795 1987.5 207.939 L1986.02 207.591 Q1982.06 206.758 1980.3 205.045 Q1978.54 203.309 1978.54 200.3 Q1978.54 196.642 1981.13 194.652 Q1983.73 192.661 1988.49 192.661 Q1990.86 192.661 1992.94 193.008 Q1995.02 193.355 1996.78 194.05 Z" fill="#000000" fill-rule="nonzero" fill-opacity="1" /><polyline clip-path="url(#clip540)" style="stroke:#e26f46; stroke-linecap:round; stroke-linejoin:round; stroke-width:4; stroke-opacity:1; fill:none" points="1536.7,253.772 1678.89,253.772 "/>
<path clip-path="url(#clip540)" d="M1728.15 266.121 L1728.15 256.839 L1720.51 256.839 L1720.51 252.996 L1732.78 252.996 L1732.78 267.834 Q1730.07 269.755 1726.81 270.751 Q1723.54 271.723 1719.84 271.723 Q1711.74 271.723 1707.15 267.001 Q1702.59 262.255 1702.59 253.806 Q1702.59 245.334 1707.15 240.612 Q1711.74 235.867 1719.84 235.867 Q1723.22 235.867 1726.25 236.7 Q1729.31 237.533 1731.88 239.154 L1731.88 244.131 Q1729.28 241.932 1726.37 240.82 Q1723.45 239.709 1720.23 239.709 Q1713.89 239.709 1710.7 243.251 Q1707.52 246.793 1707.52 253.806 Q1707.52 260.797 1710.7 264.339 Q1713.89 267.88 1720.23 267.88 Q1722.71 267.88 1724.65 267.464 Q1726.6 267.024 1728.15 266.121 Z" fill="#000000" fill-rule="nonzero" fill-opacity="1" /><path clip-path="url(#clip540)" d="M1756.16 249.107 Q1755.44 248.691 1754.58 248.506 Q1753.75 248.297 1752.73 248.297 Q1749.12 248.297 1747.18 250.658 Q1745.26 252.996 1745.26 257.394 L1745.26 271.052 L1740.97 271.052 L1740.97 245.126 L1745.26 245.126 L1745.26 249.154 Q1746.6 246.793 1748.75 245.658 Q1750.9 244.501 1753.98 244.501 Q1754.42 244.501 1754.95 244.57 Q1755.49 244.617 1756.13 244.732 L1756.16 249.107 Z" fill="#000000" fill-rule="nonzero" fill-opacity="1" /><path clip-path="url(#clip540)" d="M1781.76 257.024 L1781.76 259.107 L1762.18 259.107 Q1762.45 263.505 1764.82 265.82 Q1767.2 268.112 1771.44 268.112 Q1773.89 268.112 1776.18 267.51 Q1778.5 266.908 1780.76 265.705 L1780.76 269.732 Q1778.47 270.704 1776.07 271.214 Q1773.66 271.723 1771.18 271.723 Q1764.98 271.723 1761.34 268.112 Q1757.73 264.501 1757.73 258.343 Q1757.73 251.978 1761.16 248.251 Q1764.61 244.501 1770.44 244.501 Q1775.67 244.501 1778.7 247.881 Q1781.76 251.237 1781.76 257.024 M1777.5 255.774 Q1777.45 252.279 1775.53 250.195 Q1773.63 248.112 1770.49 248.112 Q1766.92 248.112 1764.77 250.126 Q1762.64 252.14 1762.32 255.797 L1777.5 255.774 Z" fill="#000000" fill-rule="nonzero" fill-opacity="1" /><path clip-path="url(#clip540)" d="M1810.93 257.024 L1810.93 259.107 L1791.34 259.107 Q1791.62 263.505 1793.98 265.82 Q1796.37 268.112 1800.6 268.112 Q1803.06 268.112 1805.35 267.51 Q1807.66 266.908 1809.93 265.705 L1809.93 269.732 Q1807.64 270.704 1805.23 271.214 Q1802.82 271.723 1800.35 271.723 Q1794.14 271.723 1790.51 268.112 Q1786.9 264.501 1786.9 258.343 Q1786.9 251.978 1790.32 248.251 Q1793.77 244.501 1799.61 244.501 Q1804.84 244.501 1807.87 247.881 Q1810.93 251.237 1810.93 257.024 M1806.67 255.774 Q1806.62 252.279 1804.7 250.195 Q1802.8 248.112 1799.65 248.112 Q1796.09 248.112 1793.94 250.126 Q1791.81 252.14 1791.48 255.797 L1806.67 255.774 Z" fill="#000000" fill-rule="nonzero" fill-opacity="1" /><path clip-path="url(#clip540)" d="M1839.47 255.404 L1839.47 271.052 L1835.21 271.052 L1835.21 255.543 Q1835.21 251.862 1833.77 250.033 Q1832.34 248.205 1829.47 248.205 Q1826.02 248.205 1824.03 250.404 Q1822.04 252.603 1822.04 256.399 L1822.04 271.052 L1817.75 271.052 L1817.75 245.126 L1822.04 245.126 L1822.04 249.154 Q1823.56 246.816 1825.63 245.658 Q1827.71 244.501 1830.42 244.501 Q1834.88 244.501 1837.18 247.279 Q1839.47 250.033 1839.47 255.404 Z" fill="#000000" fill-rule="nonzero" fill-opacity="1" /><path clip-path="url(#clip540)" d="M1845.81 256.168 L1858.29 256.168 L1858.29 259.964 L1845.81 259.964 L1845.81 256.168 Z" fill="#000000" fill-rule="nonzero" fill-opacity="1" /><path clip-path="url(#clip540)" d="M1865.25 236.492 L1871.55 236.492 L1886.87 265.404 L1886.87 236.492 L1891.41 236.492 L1891.41 271.052 L1885.12 271.052 L1869.79 242.14 L1869.79 271.052 L1865.25 271.052 L1865.25 236.492 Z" fill="#000000" fill-rule="nonzero" fill-opacity="1" /><path clip-path="url(#clip540)" d="M1912.31 258.019 Q1907.15 258.019 1905.16 259.2 Q1903.17 260.38 1903.17 263.228 Q1903.17 265.496 1904.65 266.839 Q1906.16 268.158 1908.73 268.158 Q1912.27 268.158 1914.4 265.658 Q1916.55 263.135 1916.55 258.968 L1916.55 258.019 L1912.31 258.019 M1920.81 256.26 L1920.81 271.052 L1916.55 271.052 L1916.55 267.117 Q1915.09 269.478 1912.92 270.612 Q1910.74 271.723 1907.59 271.723 Q1903.61 271.723 1901.25 269.501 Q1898.91 267.255 1898.91 263.505 Q1898.91 259.13 1901.83 256.908 Q1904.77 254.686 1910.58 254.686 L1916.55 254.686 L1916.55 254.269 Q1916.55 251.33 1914.61 249.732 Q1912.68 248.112 1909.19 248.112 Q1906.97 248.112 1904.86 248.644 Q1902.75 249.177 1900.81 250.242 L1900.81 246.306 Q1903.15 245.404 1905.35 244.964 Q1907.55 244.501 1909.63 244.501 Q1915.25 244.501 1918.03 247.418 Q1920.81 250.334 1920.81 256.26 Z" fill="#000000" fill-rule="nonzero" fill-opacity="1" /><path clip-path="url(#clip540)" d="M1946.64 257.788 Q1946.64 253.158 1944.72 250.612 Q1942.82 248.066 1939.37 248.066 Q1935.95 248.066 1934.03 250.612 Q1932.13 253.158 1932.13 257.788 Q1932.13 262.394 1934.03 264.941 Q1935.95 267.487 1939.37 267.487 Q1942.82 267.487 1944.72 264.941 Q1946.64 262.394 1946.64 257.788 M1950.9 267.834 Q1950.9 274.454 1947.96 277.672 Q1945.02 280.913 1938.96 280.913 Q1936.71 280.913 1934.72 280.566 Q1932.73 280.241 1930.86 279.547 L1930.86 275.404 Q1932.73 276.422 1934.56 276.908 Q1936.39 277.394 1938.29 277.394 Q1942.48 277.394 1944.56 275.195 Q1946.64 273.019 1946.64 268.598 L1946.64 266.492 Q1945.32 268.783 1943.26 269.917 Q1941.2 271.052 1938.33 271.052 Q1933.56 271.052 1930.65 267.417 Q1927.73 263.783 1927.73 257.788 Q1927.73 251.769 1930.65 248.135 Q1933.56 244.501 1938.33 244.501 Q1941.2 244.501 1943.26 245.635 Q1945.32 246.769 1946.64 249.061 L1946.64 245.126 L1950.9 245.126 L1950.9 267.834 Z" fill="#000000" fill-rule="nonzero" fill-opacity="1" /><path clip-path="url(#clip540)" d="M1981.23 255.404 L1981.23 271.052 L1976.97 271.052 L1976.97 255.543 Q1976.97 251.862 1975.53 250.033 Q1974.1 248.205 1971.23 248.205 Q1967.78 248.205 1965.79 250.404 Q1963.8 252.603 1963.8 256.399 L1963.8 271.052 L1959.51 271.052 L1959.51 235.033 L1963.8 235.033 L1963.8 249.154 Q1965.32 246.816 1967.38 245.658 Q1969.47 244.501 1972.18 244.501 Q1976.64 244.501 1978.93 247.279 Q1981.23 250.033 1981.23 255.404 Z" fill="#000000" fill-rule="nonzero" fill-opacity="1" /><path clip-path="url(#clip540)" d="M2006.78 249.061 L2006.78 235.033 L2011.04 235.033 L2011.04 271.052 L2006.78 271.052 L2006.78 267.163 Q2005.44 269.478 2003.38 270.612 Q2001.34 271.723 1998.47 271.723 Q1993.77 271.723 1990.81 267.973 Q1987.87 264.223 1987.87 258.112 Q1987.87 252.001 1990.81 248.251 Q1993.77 244.501 1998.47 244.501 Q2001.34 244.501 2003.38 245.635 Q2005.44 246.746 2006.78 249.061 M1992.27 258.112 Q1992.27 262.811 1994.19 265.496 Q1996.13 268.158 1999.51 268.158 Q2002.89 268.158 2004.84 265.496 Q2006.78 262.811 2006.78 258.112 Q2006.78 253.413 2004.84 250.751 Q2002.89 248.066 1999.51 248.066 Q1996.13 248.066 1994.19 250.751 Q1992.27 253.413 1992.27 258.112 Z" fill="#000000" fill-rule="nonzero" fill-opacity="1" /><path clip-path="url(#clip540)" d="M2019.81 245.126 L2024.07 245.126 L2024.07 271.052 L2019.81 271.052 L2019.81 245.126 M2019.81 235.033 L2024.07 235.033 L2024.07 240.427 L2019.81 240.427 L2019.81 235.033 Z" fill="#000000" fill-rule="nonzero" fill-opacity="1" /><polyline clip-path="url(#clip540)" style="stroke:#3da44d; stroke-linecap:round; stroke-linejoin:round; stroke-width:4; stroke-opacity:1; fill:none" points="1536.7,305.612 1678.89,305.612 "/>
<path clip-path="url(#clip540)" d="M1702.59 288.332 L1707.32 288.332 L1714.58 317.545 L1721.83 288.332 L1727.08 288.332 L1734.35 317.545 L1741.6 288.332 L1746.34 288.332 L1737.66 322.892 L1731.78 322.892 L1724.49 292.892 L1717.13 322.892 L1711.25 322.892 L1702.59 288.332 Z" fill="#000000" fill-rule="nonzero" fill-opacity="1" /><path clip-path="url(#clip540)" d="M1773.91 307.244 L1773.91 322.892 L1769.65 322.892 L1769.65 307.383 Q1769.65 303.702 1768.22 301.873 Q1766.78 300.045 1763.91 300.045 Q1760.46 300.045 1758.47 302.244 Q1756.48 304.443 1756.48 308.239 L1756.48 322.892 L1752.2 322.892 L1752.2 286.873 L1756.48 286.873 L1756.48 300.994 Q1758.01 298.656 1760.07 297.498 Q1762.15 296.341 1764.86 296.341 Q1769.33 296.341 1771.62 299.119 Q1773.91 301.873 1773.91 307.244 Z" fill="#000000" fill-rule="nonzero" fill-opacity="1" /><path clip-path="url(#clip540)" d="M1782.41 296.966 L1786.67 296.966 L1786.67 322.892 L1782.41 322.892 L1782.41 296.966 M1782.41 286.873 L1786.67 286.873 L1786.67 292.267 L1782.41 292.267 L1782.41 286.873 Z" fill="#000000" fill-rule="nonzero" fill-opacity="1" /><path clip-path="url(#clip540)" d="M1799.79 289.605 L1799.79 296.966 L1808.57 296.966 L1808.57 300.276 L1799.79 300.276 L1799.79 314.35 Q1799.79 317.521 1800.65 318.424 Q1801.53 319.327 1804.19 319.327 L1808.57 319.327 L1808.57 322.892 L1804.19 322.892 Q1799.26 322.892 1797.38 321.063 Q1795.51 319.211 1795.51 314.35 L1795.51 300.276 L1792.38 300.276 L1792.38 296.966 L1795.51 296.966 L1795.51 289.605 L1799.79 289.605 Z" fill="#000000" fill-rule="nonzero" fill-opacity="1" /><path clip-path="url(#clip540)" d="M1835.72 307.244 L1835.72 322.892 L1831.46 322.892 L1831.46 307.383 Q1831.46 303.702 1830.02 301.873 Q1828.59 300.045 1825.72 300.045 Q1822.27 300.045 1820.28 302.244 Q1818.29 304.443 1818.29 308.239 L1818.29 322.892 L1814 322.892 L1814 286.873 L1818.29 286.873 L1818.29 300.994 Q1819.82 298.656 1821.88 297.498 Q1823.96 296.341 1826.67 296.341 Q1831.13 296.341 1833.43 299.119 Q1835.72 301.873 1835.72 307.244 Z" fill="#000000" fill-rule="nonzero" fill-opacity="1" /><path clip-path="url(#clip540)" d="M1856 309.859 Q1850.83 309.859 1848.84 311.04 Q1846.85 312.22 1846.85 315.068 Q1846.85 317.336 1848.33 318.679 Q1849.84 319.998 1852.41 319.998 Q1855.95 319.998 1858.08 317.498 Q1860.23 314.975 1860.23 310.808 L1860.23 309.859 L1856 309.859 M1864.49 308.1 L1864.49 322.892 L1860.23 322.892 L1860.23 318.957 Q1858.77 321.318 1856.6 322.452 Q1854.42 323.563 1851.27 323.563 Q1847.29 323.563 1844.93 321.341 Q1842.59 319.095 1842.59 315.345 Q1842.59 310.97 1845.51 308.748 Q1848.45 306.526 1854.26 306.526 L1860.23 306.526 L1860.23 306.109 Q1860.23 303.17 1858.29 301.572 Q1856.37 299.952 1852.87 299.952 Q1850.65 299.952 1848.54 300.484 Q1846.44 301.017 1844.49 302.082 L1844.49 298.146 Q1846.83 297.244 1849.03 296.804 Q1851.23 296.341 1853.31 296.341 Q1858.94 296.341 1861.71 299.258 Q1864.49 302.174 1864.49 308.1 Z" fill="#000000" fill-rule="nonzero" fill-opacity="1" /><path clip-path="url(#clip540)" d="M1893.45 301.943 Q1895.05 299.072 1897.27 297.707 Q1899.49 296.341 1902.5 296.341 Q1906.55 296.341 1908.75 299.188 Q1910.95 302.012 1910.95 307.244 L1910.95 322.892 L1906.67 322.892 L1906.67 307.383 Q1906.67 303.656 1905.35 301.85 Q1904.03 300.045 1901.32 300.045 Q1898.01 300.045 1896.09 302.244 Q1894.17 304.443 1894.17 308.239 L1894.17 322.892 L1889.88 322.892 L1889.88 307.383 Q1889.88 303.633 1888.56 301.85 Q1887.25 300.045 1884.49 300.045 Q1881.23 300.045 1879.31 302.267 Q1877.38 304.466 1877.38 308.239 L1877.38 322.892 L1873.1 322.892 L1873.1 296.966 L1877.38 296.966 L1877.38 300.994 Q1878.84 298.609 1880.88 297.475 Q1882.92 296.341 1885.72 296.341 Q1888.54 296.341 1890.51 297.776 Q1892.5 299.211 1893.45 301.943 Z" fill="#000000" fill-rule="nonzero" fill-opacity="1" /><path clip-path="url(#clip540)" d="M1917.29 308.008 L1929.77 308.008 L1929.77 311.804 L1917.29 311.804 L1917.29 308.008 Z" fill="#000000" fill-rule="nonzero" fill-opacity="1" /><path clip-path="url(#clip540)" d="M1962.04 317.961 L1962.04 308.679 L1954.4 308.679 L1954.4 304.836 L1966.67 304.836 L1966.67 319.674 Q1963.96 321.595 1960.69 322.591 Q1957.43 323.563 1953.73 323.563 Q1945.62 323.563 1941.04 318.841 Q1936.48 314.095 1936.48 305.646 Q1936.48 297.174 1941.04 292.452 Q1945.62 287.707 1953.73 287.707 Q1957.11 287.707 1960.14 288.54 Q1963.19 289.373 1965.76 290.994 L1965.76 295.971 Q1963.17 293.772 1960.25 292.66 Q1957.34 291.549 1954.12 291.549 Q1947.78 291.549 1944.58 295.091 Q1941.41 298.633 1941.41 305.646 Q1941.41 312.637 1944.58 316.179 Q1947.78 319.72 1954.12 319.72 Q1956.6 319.72 1958.54 319.304 Q1960.49 318.864 1962.04 317.961 Z" fill="#000000" fill-rule="nonzero" fill-opacity="1" /><path clip-path="url(#clip540)" d="M1990.05 300.947 Q1989.33 300.531 1988.47 300.346 Q1987.64 300.137 1986.62 300.137 Q1983.01 300.137 1981.06 302.498 Q1979.14 304.836 1979.14 309.234 L1979.14 322.892 L1974.86 322.892 L1974.86 296.966 L1979.14 296.966 L1979.14 300.994 Q1980.49 298.633 1982.64 297.498 Q1984.79 296.341 1987.87 296.341 Q1988.31 296.341 1988.84 296.41 Q1989.37 296.457 1990.02 296.572 L1990.05 300.947 Z" fill="#000000" fill-rule="nonzero" fill-opacity="1" /><path clip-path="url(#clip540)" d="M2015.65 308.864 L2015.65 310.947 L1996.06 310.947 Q1996.34 315.345 1998.7 317.66 Q2001.09 319.952 2005.32 319.952 Q2007.78 319.952 2010.07 319.35 Q2012.38 318.748 2014.65 317.545 L2014.65 321.572 Q2012.36 322.544 2009.95 323.054 Q2007.55 323.563 2005.07 323.563 Q1998.86 323.563 1995.23 319.952 Q1991.62 316.341 1991.62 310.183 Q1991.62 303.818 1995.05 300.091 Q1998.49 296.341 2004.33 296.341 Q2009.56 296.341 2012.59 299.721 Q2015.65 303.077 2015.65 308.864 M2011.39 307.614 Q2011.34 304.119 2009.42 302.035 Q2007.52 299.952 2004.37 299.952 Q2000.81 299.952 1998.66 301.966 Q1996.53 303.98 1996.2 307.637 L2011.39 307.614 Z" fill="#000000" fill-rule="nonzero" fill-opacity="1" /><path clip-path="url(#clip540)" d="M2044.81 308.864 L2044.81 310.947 L2025.23 310.947 Q2025.51 315.345 2027.87 317.66 Q2030.25 319.952 2034.49 319.952 Q2036.94 319.952 2039.24 319.35 Q2041.55 318.748 2043.82 317.545 L2043.82 321.572 Q2041.53 322.544 2039.12 323.054 Q2036.71 323.563 2034.24 323.563 Q2028.03 323.563 2024.4 319.952 Q2020.79 316.341 2020.79 310.183 Q2020.79 303.818 2024.21 300.091 Q2027.66 296.341 2033.49 296.341 Q2038.73 296.341 2041.76 299.721 Q2044.81 303.077 2044.81 308.864 M2040.55 307.614 Q2040.51 304.119 2038.59 302.035 Q2036.69 299.952 2033.54 299.952 Q2029.98 299.952 2027.82 301.966 Q2025.69 303.98 2025.37 307.637 L2040.55 307.614 Z" fill="#000000" fill-rule="nonzero" fill-opacity="1" /><path clip-path="url(#clip540)" d="M2073.36 307.244 L2073.36 322.892 L2069.1 322.892 L2069.1 307.383 Q2069.1 303.702 2067.66 301.873 Q2066.23 300.045 2063.36 300.045 Q2059.91 300.045 2057.92 302.244 Q2055.92 304.443 2055.92 308.239 L2055.92 322.892 L2051.64 322.892 L2051.64 296.966 L2055.92 296.966 L2055.92 300.994 Q2057.45 298.656 2059.51 297.498 Q2061.6 296.341 2064.3 296.341 Q2068.77 296.341 2071.06 299.119 Q2073.36 301.873 2073.36 307.244 Z" fill="#000000" fill-rule="nonzero" fill-opacity="1" /><path clip-path="url(#clip540)" d="M2079.7 308.008 L2092.17 308.008 L2092.17 311.804 L2079.7 311.804 L2079.7 308.008 Z" fill="#000000" fill-rule="nonzero" fill-opacity="1" /><path clip-path="url(#clip540)" d="M2099.14 288.332 L2105.44 288.332 L2120.76 317.244 L2120.76 288.332 L2125.3 288.332 L2125.3 322.892 L2119 322.892 L2103.68 293.98 L2103.68 322.892 L2099.14 322.892 L2099.14 288.332 Z" fill="#000000" fill-rule="nonzero" fill-opacity="1" /><path clip-path="url(#clip540)" d="M2146.2 309.859 Q2141.04 309.859 2139.05 311.04 Q2137.06 312.22 2137.06 315.068 Q2137.06 317.336 2138.54 318.679 Q2140.04 319.998 2142.61 319.998 Q2146.16 319.998 2148.29 317.498 Q2150.44 314.975 2150.44 310.808 L2150.44 309.859 L2146.2 309.859 M2154.7 308.1 L2154.7 322.892 L2150.44 322.892 L2150.44 318.957 Q2148.98 321.318 2146.8 322.452 Q2144.63 323.563 2141.48 323.563 Q2137.5 323.563 2135.14 321.341 Q2132.8 319.095 2132.8 315.345 Q2132.8 310.97 2135.72 308.748 Q2138.66 306.526 2144.47 306.526 L2150.44 306.526 L2150.44 306.109 Q2150.44 303.17 2148.49 301.572 Q2146.57 299.952 2143.08 299.952 Q2140.85 299.952 2138.75 300.484 Q2136.64 301.017 2134.7 302.082 L2134.7 298.146 Q2137.04 297.244 2139.23 296.804 Q2141.43 296.341 2143.52 296.341 Q2149.14 296.341 2151.92 299.258 Q2154.7 302.174 2154.7 308.1 Z" fill="#000000" fill-rule="nonzero" fill-opacity="1" /><path clip-path="url(#clip540)" d="M2180.53 309.628 Q2180.53 304.998 2178.61 302.452 Q2176.71 299.906 2173.26 299.906 Q2169.84 299.906 2167.91 302.452 Q2166.02 304.998 2166.02 309.628 Q2166.02 314.234 2167.91 316.781 Q2169.84 319.327 2173.26 319.327 Q2176.71 319.327 2178.61 316.781 Q2180.53 314.234 2180.53 309.628 M2184.79 319.674 Q2184.79 326.294 2181.85 329.512 Q2178.91 332.753 2172.85 332.753 Q2170.6 332.753 2168.61 332.406 Q2166.62 332.081 2164.74 331.387 L2164.74 327.244 Q2166.62 328.262 2168.45 328.748 Q2170.28 329.234 2172.17 329.234 Q2176.36 329.234 2178.45 327.035 Q2180.53 324.859 2180.53 320.438 L2180.53 318.332 Q2179.21 320.623 2177.15 321.757 Q2175.09 322.892 2172.22 322.892 Q2167.45 322.892 2164.54 319.257 Q2161.62 315.623 2161.62 309.628 Q2161.62 303.609 2164.54 299.975 Q2167.45 296.341 2172.22 296.341 Q2175.09 296.341 2177.15 297.475 Q2179.21 298.609 2180.53 300.901 L2180.53 296.966 L2184.79 296.966 L2184.79 319.674 Z" fill="#000000" fill-rule="nonzero" fill-opacity="1" /><path clip-path="url(#clip540)" d="M2215.11 307.244 L2215.11 322.892 L2210.85 322.892 L2210.85 307.383 Q2210.85 303.702 2209.42 301.873 Q2207.98 300.045 2205.11 300.045 Q2201.66 300.045 2199.67 302.244 Q2197.68 304.443 2197.68 308.239 L2197.68 322.892 L2193.4 322.892 L2193.4 286.873 L2197.68 286.873 L2197.68 300.994 Q2199.21 298.656 2201.27 297.498 Q2203.35 296.341 2206.06 296.341 Q2210.53 296.341 2212.82 299.119 Q2215.11 301.873 2215.11 307.244 Z" fill="#000000" fill-rule="nonzero" fill-opacity="1" /><path clip-path="url(#clip540)" d="M2240.67 300.901 L2240.67 286.873 L2244.93 286.873 L2244.93 322.892 L2240.67 322.892 L2240.67 319.003 Q2239.33 321.318 2237.27 322.452 Q2235.23 323.563 2232.36 323.563 Q2227.66 323.563 2224.7 319.813 Q2221.76 316.063 2221.76 309.952 Q2221.76 303.841 2224.7 300.091 Q2227.66 296.341 2232.36 296.341 Q2235.23 296.341 2237.27 297.475 Q2239.33 298.586 2240.67 300.901 M2226.16 309.952 Q2226.16 314.651 2228.08 317.336 Q2230.02 319.998 2233.4 319.998 Q2236.78 319.998 2238.72 317.336 Q2240.67 314.651 2240.67 309.952 Q2240.67 305.253 2238.72 302.591 Q2236.78 299.906 2233.4 299.906 Q2230.02 299.906 2228.08 302.591 Q2226.16 305.253 2226.16 309.952 Z" fill="#000000" fill-rule="nonzero" fill-opacity="1" /><path clip-path="url(#clip540)" d="M2253.7 296.966 L2257.96 296.966 L2257.96 322.892 L2253.7 322.892 L2253.7 296.966 M2253.7 286.873 L2257.96 286.873 L2257.96 292.267 L2253.7 292.267 L2253.7 286.873 Z" fill="#000000" fill-rule="nonzero" fill-opacity="1" /></svg>
