<?xml version="1.0" encoding="utf-8"?>
<svg xmlns="http://www.w3.org/2000/svg" xmlns:xlink="http://www.w3.org/1999/xlink" width="600" height="400" viewBox="0 0 2400 1600">
<defs>
  <clipPath id="clip510">
    <rect x="0" y="0" width="2400" height="1600"/>
  </clipPath>
</defs>
<path clip-path="url(#clip510)" d="M0 1600 L2400 1600 L2400 0 L0 0  Z" fill="#ffffff" fill-rule="evenodd" fill-opacity="1"/>
<defs>
  <clipPath id="clip511">
    <rect x="219" y="106" width="2134" height="1318"/>
  </clipPath>
</defs>
<path clip-path="url(#clip510)" d="M219.866 1423.18 L2352.76 1423.18 L2352.76 106.192 L219.866 106.192  Z" fill="#ffffff" fill-rule="evenodd" fill-opacity="1"/>
<polyline clip-path="url(#clip511)" style="stroke:#000000; stroke-linecap:round; stroke-linejoin:round; stroke-width:2; stroke-opacity:0.1; fill:none" points="327.419,1423.18 327.419,106.192 "/>
<polyline clip-path="url(#clip511)" style="stroke:#000000; stroke-linecap:round; stroke-linejoin:round; stroke-width:2; stroke-opacity:0.1; fill:none" points="648.004,1423.18 648.004,106.192 "/>
<polyline clip-path="url(#clip511)" style="stroke:#000000; stroke-linecap:round; stroke-linejoin:round; stroke-width:2; stroke-opacity:0.1; fill:none" points="968.59,1423.18 968.59,106.192 "/>
<polyline clip-path="url(#clip511)" style="stroke:#000000; stroke-linecap:round; stroke-linejoin:round; stroke-width:2; stroke-opacity:0.1; fill:none" points="1289.18,1423.18 1289.18,106.192 "/>
<polyline clip-path="url(#clip511)" style="stroke:#000000; stroke-linecap:round; stroke-linejoin:round; stroke-width:2; stroke-opacity:0.1; fill:none" points="1609.76,1423.18 1609.76,106.192 "/>
<polyline clip-path="url(#clip511)" style="stroke:#000000; stroke-linecap:round; stroke-linejoin:round; stroke-width:2; stroke-opacity:0.1; fill:none" points="1930.35,1423.18 1930.35,106.192 "/>
<polyline clip-path="url(#clip511)" style="stroke:#000000; stroke-linecap:round; stroke-linejoin:round; stroke-width:2; stroke-opacity:0.1; fill:none" points="2250.93,1423.18 2250.93,106.192 "/>
<polyline clip-path="url(#clip511)" style="stroke:#000000; stroke-linecap:round; stroke-linejoin:round; stroke-width:2; stroke-opacity:0.1; fill:none" points="219.866,1251.04 2352.76,1251.04 "/>
<polyline clip-path="url(#clip511)" style="stroke:#000000; stroke-linecap:round; stroke-linejoin:round; stroke-width:2; stroke-opacity:0.1; fill:none" points="219.866,933.873 2352.76,933.873 "/>
<polyline clip-path="url(#clip511)" style="stroke:#000000; stroke-linecap:round; stroke-linejoin:round; stroke-width:2; stroke-opacity:0.1; fill:none" points="219.866,616.702 2352.76,616.702 "/>
<polyline clip-path="url(#clip511)" style="stroke:#000000; stroke-linecap:round; stroke-linejoin:round; stroke-width:2; stroke-opacity:0.1; fill:none" points="219.866,299.531 2352.76,299.531 "/>
<polyline clip-path="url(#clip510)" style="stroke:#000000; stroke-linecap:round; stroke-linejoin:round; stroke-width:4; stroke-opacity:1; fill:none" points="219.866,1423.18 2352.76,1423.18 "/>
<polyline clip-path="url(#clip510)" style="stroke:#000000; stroke-linecap:round; stroke-linejoin:round; stroke-width:4; stroke-opacity:1; fill:none" points="327.419,1423.18 327.419,1404.28 "/>
<polyline clip-path="url(#clip510)" style="stroke:#000000; stroke-linecap:round; stroke-linejoin:round; stroke-width:4; stroke-opacity:1; fill:none" points="648.004,1423.18 648.004,1404.28 "/>
<polyline clip-path="url(#clip510)" style="stroke:#000000; stroke-linecap:round; stroke-linejoin:round; stroke-width:4; stroke-opacity:1; fill:none" points="968.59,1423.18 968.59,1404.28 "/>
<polyline clip-path="url(#clip510)" style="stroke:#000000; stroke-linecap:round; stroke-linejoin:round; stroke-width:4; stroke-opacity:1; fill:none" points="1289.18,1423.18 1289.18,1404.28 "/>
<polyline clip-path="url(#clip510)" style="stroke:#000000; stroke-linecap:round; stroke-linejoin:round; stroke-width:4; stroke-opacity:1; fill:none" points="1609.76,1423.18 1609.76,1404.28 "/>
<polyline clip-path="url(#clip510)" style="stroke:#000000; stroke-linecap:round; stroke-linejoin:round; stroke-width:4; stroke-opacity:1; fill:none" points="1930.35,1423.18 1930.35,1404.28 "/>
<polyline clip-path="url(#clip510)" style="stroke:#000000; stroke-linecap:round; stroke-linejoin:round; stroke-width:4; stroke-opacity:1; fill:none" points="2250.93,1423.18 2250.93,1404.28 "/>
<path clip-path="url(#clip510)" d="M296.886 1468.75 L326.562 1468.75 L326.562 1472.69 L296.886 1472.69 L296.886 1468.75 Z" fill="#000000" fill-rule="nonzero" fill-opacity="1" /><path clip-path="url(#clip510)" d="M350.821 1466.95 Q354.178 1467.66 356.053 1469.93 Q357.951 1472.2 357.951 1475.53 Q357.951 1480.65 354.432 1483.45 Q350.914 1486.25 344.432 1486.25 Q342.257 1486.25 339.942 1485.81 Q337.65 1485.39 335.196 1484.54 L335.196 1480.02 Q337.141 1481.16 339.456 1481.74 Q341.77 1482.32 344.294 1482.32 Q348.692 1482.32 350.983 1480.58 Q353.298 1478.84 353.298 1475.53 Q353.298 1472.48 351.145 1470.77 Q349.016 1469.03 345.196 1469.03 L341.169 1469.03 L341.169 1465.19 L345.382 1465.19 Q348.831 1465.19 350.659 1463.82 Q352.488 1462.43 352.488 1459.84 Q352.488 1457.18 350.59 1455.77 Q348.715 1454.33 345.196 1454.33 Q343.275 1454.33 341.076 1454.75 Q338.877 1455.16 336.238 1456.04 L336.238 1451.88 Q338.9 1451.14 341.215 1450.77 Q343.553 1450.39 345.613 1450.39 Q350.937 1450.39 354.039 1452.83 Q357.141 1455.23 357.141 1459.35 Q357.141 1462.22 355.497 1464.21 Q353.854 1466.18 350.821 1466.95 Z" fill="#000000" fill-rule="nonzero" fill-opacity="1" /><path clip-path="url(#clip510)" d="M617.947 1468.75 L647.622 1468.75 L647.622 1472.69 L617.947 1472.69 L617.947 1468.75 Z" fill="#000000" fill-rule="nonzero" fill-opacity="1" /><path clip-path="url(#clip510)" d="M661.743 1481.64 L678.062 1481.64 L678.062 1485.58 L656.118 1485.58 L656.118 1481.64 Q658.78 1478.89 663.363 1474.26 Q667.97 1469.61 669.15 1468.27 Q671.395 1465.74 672.275 1464.01 Q673.178 1462.25 673.178 1460.56 Q673.178 1457.8 671.233 1456.07 Q669.312 1454.33 666.21 1454.33 Q664.011 1454.33 661.557 1455.09 Q659.127 1455.86 656.349 1457.41 L656.349 1452.69 Q659.173 1451.55 661.627 1450.97 Q664.081 1450.39 666.118 1450.39 Q671.488 1450.39 674.682 1453.08 Q677.877 1455.77 677.877 1460.26 Q677.877 1462.39 677.067 1464.31 Q676.28 1466.2 674.173 1468.8 Q673.594 1469.47 670.493 1472.69 Q667.391 1475.88 661.743 1481.64 Z" fill="#000000" fill-rule="nonzero" fill-opacity="1" /><path clip-path="url(#clip510)" d="M938.347 1468.75 L968.023 1468.75 L968.023 1472.69 L938.347 1472.69 L938.347 1468.75 Z" fill="#000000" fill-rule="nonzero" fill-opacity="1" /><path clip-path="url(#clip510)" d="M978.926 1481.64 L986.564 1481.64 L986.564 1455.28 L978.254 1456.95 L978.254 1452.69 L986.518 1451.02 L991.194 1451.02 L991.194 1481.64 L998.833 1481.64 L998.833 1485.58 L978.926 1485.58 L978.926 1481.64 Z" fill="#000000" fill-rule="nonzero" fill-opacity="1" /><path clip-path="url(#clip510)" d="M1289.18 1454.1 Q1285.56 1454.1 1283.74 1457.66 Q1281.93 1461.2 1281.93 1468.33 Q1281.93 1475.44 1283.74 1479.01 Q1285.56 1482.55 1289.18 1482.55 Q1292.81 1482.55 1294.62 1479.01 Q1296.44 1475.44 1296.44 1468.33 Q1296.44 1461.2 1294.62 1457.66 Q1292.81 1454.1 1289.18 1454.1 M1289.18 1450.39 Q1294.99 1450.39 1298.04 1455 Q1301.12 1459.58 1301.12 1468.33 Q1301.12 1477.06 1298.04 1481.67 Q1294.99 1486.25 1289.18 1486.25 Q1283.37 1486.25 1280.29 1481.67 Q1277.23 1477.06 1277.23 1468.33 Q1277.23 1459.58 1280.29 1455 Q1283.37 1450.39 1289.18 1450.39 Z" fill="#000000" fill-rule="nonzero" fill-opacity="1" /><path clip-path="url(#clip510)" d="M1600.14 1481.64 L1607.78 1481.64 L1607.78 1455.28 L1599.47 1456.95 L1599.47 1452.69 L1607.74 1451.02 L1612.41 1451.02 L1612.41 1481.64 L1620.05 1481.64 L1620.05 1485.58 L1600.14 1485.58 L1600.14 1481.64 Z" fill="#000000" fill-rule="nonzero" fill-opacity="1" /><path clip-path="url(#clip510)" d="M1925 1481.64 L1941.32 1481.64 L1941.32 1485.58 L1919.37 1485.58 L1919.37 1481.64 Q1922.04 1478.89 1926.62 1474.26 Q1931.23 1469.61 1932.41 1468.27 Q1934.65 1465.74 1935.53 1464.01 Q1936.43 1462.25 1936.43 1460.56 Q1936.43 1457.8 1934.49 1456.07 Q1932.57 1454.33 1929.47 1454.33 Q1927.27 1454.33 1924.81 1455.09 Q1922.38 1455.86 1919.61 1457.41 L1919.61 1452.69 Q1922.43 1451.55 1924.88 1450.97 Q1927.34 1450.39 1929.37 1450.39 Q1934.75 1450.39 1937.94 1453.08 Q1941.13 1455.77 1941.13 1460.26 Q1941.13 1462.39 1940.32 1464.31 Q1939.54 1466.2 1937.43 1468.8 Q1936.85 1469.47 1933.75 1472.69 Q1930.65 1475.88 1925 1481.64 Z" fill="#000000" fill-rule="nonzero" fill-opacity="1" /><path clip-path="url(#clip510)" d="M2255.18 1466.95 Q2258.54 1467.66 2260.41 1469.93 Q2262.31 1472.2 2262.31 1475.53 Q2262.31 1480.65 2258.79 1483.45 Q2255.27 1486.25 2248.79 1486.25 Q2246.62 1486.25 2244.3 1485.81 Q2242.01 1485.39 2239.56 1484.54 L2239.56 1480.02 Q2241.5 1481.16 2243.81 1481.74 Q2246.13 1482.32 2248.65 1482.32 Q2253.05 1482.32 2255.34 1480.58 Q2257.66 1478.84 2257.66 1475.53 Q2257.66 1472.48 2255.5 1470.77 Q2253.37 1469.03 2249.56 1469.03 L2245.53 1469.03 L2245.53 1465.19 L2249.74 1465.19 Q2253.19 1465.19 2255.02 1463.82 Q2256.85 1462.43 2256.85 1459.84 Q2256.85 1457.18 2254.95 1455.77 Q2253.07 1454.33 2249.56 1454.33 Q2247.63 1454.33 2245.44 1454.75 Q2243.24 1455.16 2240.6 1456.04 L2240.6 1451.88 Q2243.26 1451.14 2245.57 1450.77 Q2247.91 1450.39 2249.97 1450.39 Q2255.3 1450.39 2258.4 1452.83 Q2261.5 1455.23 2261.5 1459.35 Q2261.5 1462.22 2259.86 1464.21 Q2258.21 1466.18 2255.18 1466.95 Z" fill="#000000" fill-rule="nonzero" fill-opacity="1" /><path clip-path="url(#clip510)" d="M1302.93 1532.4 L1290.04 1549.74 L1303.59 1568.04 L1296.69 1568.04 L1286.31 1554.04 L1275.93 1568.04 L1269.03 1568.04 L1282.87 1549.39 L1270.21 1532.4 L1277.11 1532.4 L1286.57 1545.1 L1296.02 1532.4 L1302.93 1532.4 Z" fill="#000000" fill-rule="nonzero" fill-opacity="1" /><polyline clip-path="url(#clip510)" style="stroke:#000000; stroke-linecap:round; stroke-linejoin:round; stroke-width:4; stroke-opacity:1; fill:none" points="219.866,1423.18 219.866,106.192 "/>
<polyline clip-path="url(#clip510)" style="stroke:#000000; stroke-linecap:round; stroke-linejoin:round; stroke-width:4; stroke-opacity:1; fill:none" points="219.866,1251.04 238.764,1251.04 "/>
<polyline clip-path="url(#clip510)" style="stroke:#000000; stroke-linecap:round; stroke-linejoin:round; stroke-width:4; stroke-opacity:1; fill:none" points="219.866,933.873 238.764,933.873 "/>
<polyline clip-path="url(#clip510)" style="stroke:#000000; stroke-linecap:round; stroke-linejoin:round; stroke-width:4; stroke-opacity:1; fill:none" points="219.866,616.702 238.764,616.702 "/>
<polyline clip-path="url(#clip510)" style="stroke:#000000; stroke-linecap:round; stroke-linejoin:round; stroke-width:4; stroke-opacity:1; fill:none" points="219.866,299.531 238.764,299.531 "/>
<path clip-path="url(#clip510)" d="M128.288 1236.84 Q124.677 1236.84 122.848 1240.41 Q121.043 1243.95 121.043 1251.08 Q121.043 1258.18 122.848 1261.75 Q124.677 1265.29 128.288 1265.29 Q131.922 1265.29 133.728 1261.75 Q135.556 1258.18 135.556 1251.08 Q135.556 1243.95 133.728 1240.41 Q131.922 1236.84 128.288 1236.84 M128.288 1233.14 Q134.098 1233.14 137.154 1237.74 Q140.232 1242.33 140.232 1251.08 Q140.232 1259.8 137.154 1264.41 Q134.098 1268.99 128.288 1268.99 Q122.478 1268.99 119.399 1264.41 Q116.343 1259.8 116.343 1251.08 Q116.343 1242.33 119.399 1237.74 Q122.478 1233.14 128.288 1233.14 Z" fill="#000000" fill-rule="nonzero" fill-opacity="1" /><path clip-path="url(#clip510)" d="M148.45 1262.44 L153.334 1262.44 L153.334 1268.32 L148.45 1268.32 L148.45 1262.44 Z" fill="#000000" fill-rule="nonzero" fill-opacity="1" /><path clip-path="url(#clip510)" d="M167.547 1264.39 L183.866 1264.39 L183.866 1268.32 L161.922 1268.32 L161.922 1264.39 Q164.584 1261.63 169.167 1257 Q173.774 1252.35 174.954 1251.01 Q177.2 1248.49 178.079 1246.75 Q178.982 1244.99 178.982 1243.3 Q178.982 1240.55 177.038 1238.81 Q175.116 1237.07 172.014 1237.07 Q169.815 1237.07 167.362 1237.84 Q164.931 1238.6 162.153 1240.15 L162.153 1235.43 Q164.977 1234.3 167.431 1233.72 Q169.885 1233.14 171.922 1233.14 Q177.292 1233.14 180.487 1235.82 Q183.681 1238.51 183.681 1243 Q183.681 1245.13 182.871 1247.05 Q182.084 1248.95 179.977 1251.54 Q179.399 1252.21 176.297 1255.43 Q173.195 1258.62 167.547 1264.39 Z" fill="#000000" fill-rule="nonzero" fill-opacity="1" /><path clip-path="url(#clip510)" d="M126.205 919.671 Q122.593 919.671 120.765 923.236 Q118.959 926.778 118.959 933.907 Q118.959 941.014 120.765 944.579 Q122.593 948.12 126.205 948.12 Q129.839 948.12 131.644 944.579 Q133.473 941.014 133.473 933.907 Q133.473 926.778 131.644 923.236 Q129.839 919.671 126.205 919.671 M126.205 915.968 Q132.015 915.968 135.07 920.574 Q138.149 925.157 138.149 933.907 Q138.149 942.634 135.07 947.241 Q132.015 951.824 126.205 951.824 Q120.394 951.824 117.316 947.241 Q114.26 942.634 114.26 933.907 Q114.26 925.157 117.316 920.574 Q120.394 915.968 126.205 915.968 Z" fill="#000000" fill-rule="nonzero" fill-opacity="1" /><path clip-path="url(#clip510)" d="M146.366 945.273 L151.251 945.273 L151.251 951.153 L146.366 951.153 L146.366 945.273 Z" fill="#000000" fill-rule="nonzero" fill-opacity="1" /><path clip-path="url(#clip510)" d="M174.283 920.667 L162.477 939.116 L174.283 939.116 L174.283 920.667 M173.056 916.593 L178.936 916.593 L178.936 939.116 L183.866 939.116 L183.866 943.004 L178.936 943.004 L178.936 951.153 L174.283 951.153 L174.283 943.004 L158.681 943.004 L158.681 938.491 L173.056 916.593 Z" fill="#000000" fill-rule="nonzero" fill-opacity="1" /><path clip-path="url(#clip510)" d="M126.529 602.501 Q122.918 602.501 121.089 606.065 Q119.283 609.607 119.283 616.737 Q119.283 623.843 121.089 627.408 Q122.918 630.95 126.529 630.95 Q130.163 630.95 131.968 627.408 Q133.797 623.843 133.797 616.737 Q133.797 609.607 131.968 606.065 Q130.163 602.501 126.529 602.501 M126.529 598.797 Q132.339 598.797 135.394 603.403 Q138.473 607.987 138.473 616.737 Q138.473 625.464 135.394 630.07 Q132.339 634.653 126.529 634.653 Q120.718 634.653 117.64 630.07 Q114.584 625.464 114.584 616.737 Q114.584 607.987 117.64 603.403 Q120.718 598.797 126.529 598.797 Z" fill="#000000" fill-rule="nonzero" fill-opacity="1" /><path clip-path="url(#clip510)" d="M146.691 628.102 L151.575 628.102 L151.575 633.982 L146.691 633.982 L146.691 628.102 Z" fill="#000000" fill-rule="nonzero" fill-opacity="1" /><path clip-path="url(#clip510)" d="M172.339 614.839 Q169.19 614.839 167.339 616.991 Q165.51 619.144 165.51 622.894 Q165.51 626.621 167.339 628.797 Q169.19 630.95 172.339 630.95 Q175.487 630.95 177.315 628.797 Q179.167 626.621 179.167 622.894 Q179.167 619.144 177.315 616.991 Q175.487 614.839 172.339 614.839 M181.621 600.186 L181.621 604.445 Q179.862 603.612 178.056 603.172 Q176.274 602.732 174.514 602.732 Q169.885 602.732 167.431 605.857 Q165.001 608.982 164.653 615.302 Q166.019 613.288 168.079 612.223 Q170.139 611.135 172.616 611.135 Q177.825 611.135 180.834 614.306 Q183.866 617.454 183.866 622.894 Q183.866 628.218 180.718 631.436 Q177.57 634.653 172.339 634.653 Q166.343 634.653 163.172 630.07 Q160.001 625.464 160.001 616.737 Q160.001 608.542 163.89 603.681 Q167.778 598.797 174.329 598.797 Q176.089 598.797 177.871 599.144 Q179.676 599.491 181.621 600.186 Z" fill="#000000" fill-rule="nonzero" fill-opacity="1" /><path clip-path="url(#clip510)" d="M126.783 285.33 Q123.172 285.33 121.343 288.895 Q119.538 292.437 119.538 299.566 Q119.538 306.673 121.343 310.237 Q123.172 313.779 126.783 313.779 Q130.417 313.779 132.223 310.237 Q134.052 306.673 134.052 299.566 Q134.052 292.437 132.223 288.895 Q130.417 285.33 126.783 285.33 M126.783 281.626 Q132.593 281.626 135.649 286.233 Q138.728 290.816 138.728 299.566 Q138.728 308.293 135.649 312.899 Q132.593 317.483 126.783 317.483 Q120.973 317.483 117.894 312.899 Q114.839 308.293 114.839 299.566 Q114.839 290.816 117.894 286.233 Q120.973 281.626 126.783 281.626 Z" fill="#000000" fill-rule="nonzero" fill-opacity="1" /><path clip-path="url(#clip510)" d="M146.945 310.932 L151.829 310.932 L151.829 316.811 L146.945 316.811 L146.945 310.932 Z" fill="#000000" fill-rule="nonzero" fill-opacity="1" /><path clip-path="url(#clip510)" d="M172.014 300.399 Q168.681 300.399 166.76 302.182 Q164.862 303.964 164.862 307.089 Q164.862 310.214 166.76 311.997 Q168.681 313.779 172.014 313.779 Q175.348 313.779 177.269 311.997 Q179.19 310.191 179.19 307.089 Q179.19 303.964 177.269 302.182 Q175.371 300.399 172.014 300.399 M167.339 298.409 Q164.329 297.668 162.64 295.608 Q160.973 293.548 160.973 290.585 Q160.973 286.441 163.913 284.034 Q166.876 281.626 172.014 281.626 Q177.176 281.626 180.116 284.034 Q183.056 286.441 183.056 290.585 Q183.056 293.548 181.366 295.608 Q179.7 297.668 176.714 298.409 Q180.093 299.196 181.968 301.487 Q183.866 303.779 183.866 307.089 Q183.866 312.112 180.788 314.798 Q177.732 317.483 172.014 317.483 Q166.297 317.483 163.218 314.798 Q160.163 312.112 160.163 307.089 Q160.163 303.779 162.061 301.487 Q163.959 299.196 167.339 298.409 M165.626 291.025 Q165.626 293.71 167.292 295.214 Q168.982 296.719 172.014 296.719 Q175.024 296.719 176.714 295.214 Q178.426 293.71 178.426 291.025 Q178.426 288.339 176.714 286.835 Q175.024 285.33 172.014 285.33 Q168.982 285.33 167.292 286.835 Q165.626 288.339 165.626 291.025 Z" fill="#000000" fill-rule="nonzero" fill-opacity="1" /><path clip-path="url(#clip510)" d="M42.4881 749.758 L77.5631 749.758 L77.5631 755.615 L42.679 755.615 Q37.6183 755.615 35.1038 757.588 Q32.5894 759.562 32.5894 763.508 Q32.5894 768.251 35.6131 770.988 Q38.6368 773.725 43.8567 773.725 L64.0042 773.725 L64.0042 779.614 L28.3562 779.614 L28.3562 773.725 L33.8944 773.725 Q30.6797 771.625 29.0883 768.792 Q27.4968 765.927 27.4968 762.203 Q27.4968 756.06 31.2844 752.909 Q35.1038 749.758 42.4881 749.758 Z" fill="#000000" fill-rule="nonzero" fill-opacity="1" /><path clip-path="url(#clip510)" d="M816.58 10.0578 L816.58 15.758 Q813.252 14.1666 810.301 13.3853 Q807.35 12.6041 804.601 12.6041 Q799.826 12.6041 797.222 14.4559 Q794.647 16.3078 794.647 19.7221 Q794.647 22.5867 796.354 24.0624 Q798.09 25.5091 802.894 26.4061 L806.424 27.1295 Q812.963 28.3737 816.059 31.5276 Q819.184 34.6526 819.184 39.9188 Q819.184 46.1977 814.959 49.4384 Q810.764 52.6791 802.633 52.6791 Q799.566 52.6791 796.094 51.9847 Q792.651 51.2902 788.947 49.9303 L788.947 43.9118 Q792.506 45.9083 795.92 46.921 Q799.335 47.9338 802.633 47.9338 Q807.639 47.9338 810.359 45.9662 Q813.079 43.9986 813.079 40.3528 Q813.079 37.1699 811.111 35.376 Q809.172 33.582 804.716 32.685 L801.157 31.9906 Q794.618 30.6885 791.696 27.9107 Q788.773 25.133 788.773 20.1851 Q788.773 14.4559 792.795 11.1573 Q796.846 7.85875 803.935 7.85875 Q806.973 7.85875 810.127 8.40852 Q813.281 8.95829 816.58 10.0578 Z" fill="#000000" fill-rule="nonzero" fill-opacity="1" /><path clip-path="url(#clip510)" d="M827.517 39.0507 L827.517 19.4328 L832.841 19.4328 L832.841 38.8482 Q832.841 43.4488 834.635 45.7636 Q836.429 48.0495 840.017 48.0495 Q844.329 48.0495 846.817 45.3007 Q849.334 42.5519 849.334 37.8065 L849.334 19.4328 L854.658 19.4328 L854.658 51.84 L849.334 51.84 L849.334 46.8632 Q847.396 49.8145 844.82 51.2613 Q842.274 52.6791 838.889 52.6791 Q833.304 52.6791 830.411 49.2069 Q827.517 45.7347 827.517 39.0507 M840.914 18.6515 L840.914 18.6515 Z" fill="#000000" fill-rule="nonzero" fill-opacity="1" /><path clip-path="url(#clip510)" d="M884.404 24.4096 Q883.507 23.8888 882.436 23.6573 Q881.394 23.3969 880.121 23.3969 Q875.607 23.3969 873.177 26.3482 Q870.775 29.2707 870.775 34.7683 L870.775 51.84 L865.422 51.84 L865.422 19.4328 L870.775 19.4328 L870.775 24.4675 Q872.453 21.5161 875.144 20.0983 Q877.835 18.6515 881.684 18.6515 Q882.233 18.6515 882.899 18.7383 Q883.564 18.7962 884.375 18.9409 L884.404 24.4096 Z" fill="#000000" fill-rule="nonzero" fill-opacity="1" /><path clip-path="url(#clip510)" d="M906.394 6.81709 L906.394 11.2442 L901.302 11.2442 Q898.437 11.2442 897.309 12.4016 Q896.209 13.559 896.209 16.5682 L896.209 19.4328 L904.976 19.4328 L904.976 23.5705 L896.209 23.5705 L896.209 51.84 L890.856 51.84 L890.856 23.5705 L885.763 23.5705 L885.763 19.4328 L890.856 19.4328 L890.856 17.1758 Q890.856 11.765 893.373 9.30551 Q895.891 6.81709 901.359 6.81709 L906.394 6.81709 Z" fill="#000000" fill-rule="nonzero" fill-opacity="1" /><path clip-path="url(#clip510)" d="M925.578 35.5496 Q919.126 35.5496 916.637 37.0253 Q914.149 38.501 914.149 42.06 Q914.149 44.8956 916.001 46.5738 Q917.881 48.2231 921.093 48.2231 Q925.52 48.2231 928.182 45.0981 Q930.873 41.9442 930.873 36.7359 L930.873 35.5496 L925.578 35.5496 M936.197 33.3505 L936.197 51.84 L930.873 51.84 L930.873 46.921 Q929.05 49.8724 926.33 51.2902 Q923.61 52.6791 919.675 52.6791 Q914.698 52.6791 911.747 49.9014 Q908.825 47.0947 908.825 42.4072 Q908.825 36.9385 912.47 34.1607 Q916.145 31.3829 923.408 31.3829 L930.873 31.3829 L930.873 30.8621 Q930.873 27.1874 928.443 25.1908 Q926.041 23.1654 921.672 23.1654 Q918.894 23.1654 916.261 23.8309 Q913.628 24.4964 911.197 25.8274 L911.197 20.9085 Q914.12 19.78 916.869 19.2302 Q919.617 18.6515 922.222 18.6515 Q929.253 18.6515 932.725 22.2973 Q936.197 25.9431 936.197 33.3505 Z" fill="#000000" fill-rule="nonzero" fill-opacity="1" /><path clip-path="url(#clip510)" d="M970.485 20.677 L970.485 25.6538 Q968.228 24.4096 965.942 23.802 Q963.685 23.1654 961.371 23.1654 Q956.191 23.1654 953.327 26.464 Q950.462 29.7336 950.462 35.6653 Q950.462 41.597 953.327 44.8956 Q956.191 48.1653 961.371 48.1653 Q963.685 48.1653 965.942 47.5576 Q968.228 46.921 970.485 45.6768 L970.485 50.5958 Q968.257 51.6375 965.856 52.1583 Q963.483 52.6791 960.792 52.6791 Q953.471 52.6791 949.16 48.0784 Q944.849 43.4778 944.849 35.6653 Q944.849 27.7371 949.189 23.1943 Q953.558 18.6515 961.139 18.6515 Q963.599 18.6515 965.942 19.1724 Q968.286 19.6642 970.485 20.677 Z" fill="#000000" fill-rule="nonzero" fill-opacity="1" /><path clip-path="url(#clip510)" d="M1007.46 34.3054 L1007.46 36.9095 L982.985 36.9095 Q983.332 42.4072 986.284 45.3007 Q989.264 48.1653 994.559 48.1653 Q997.626 48.1653 1000.49 47.4129 Q1003.38 46.6606 1006.22 45.156 L1006.22 50.1907 Q1003.36 51.406 1000.35 52.0425 Q997.337 52.6791 994.241 52.6791 Q986.486 52.6791 981.944 48.1653 Q977.43 43.6514 977.43 35.9547 Q977.43 27.9975 981.712 23.339 Q986.023 18.6515 993.315 18.6515 Q999.854 18.6515 1003.64 22.876 Q1007.46 27.0716 1007.46 34.3054 M1002.14 32.7429 Q1002.08 28.3737 999.681 25.7695 Q997.308 23.1654 993.373 23.1654 Q988.917 23.1654 986.226 25.6827 Q983.564 28.2001 983.159 32.7718 L1002.14 32.7429 Z" fill="#000000" fill-rule="nonzero" fill-opacity="1" /><path clip-path="url(#clip510)" d="M1056.36 24.3517 L1056.36 6.81709 L1061.69 6.81709 L1061.69 51.84 L1056.36 51.84 L1056.36 46.9789 Q1054.69 49.8724 1052.11 51.2902 Q1049.56 52.6791 1045.98 52.6791 Q1040.1 52.6791 1036.4 47.9916 Q1032.72 43.3042 1032.72 35.6653 Q1032.72 28.0265 1036.4 23.339 Q1040.1 18.6515 1045.98 18.6515 Q1049.56 18.6515 1052.11 20.0693 Q1054.69 21.4582 1056.36 24.3517 M1038.22 35.6653 Q1038.22 41.5391 1040.62 44.8956 Q1043.05 48.2231 1047.28 48.2231 Q1051.5 48.2231 1053.93 44.8956 Q1056.36 41.5391 1056.36 35.6653 Q1056.36 29.7915 1053.93 26.464 Q1051.5 23.1075 1047.28 23.1075 Q1043.05 23.1075 1040.62 26.464 Q1038.22 29.7915 1038.22 35.6653 Z" fill="#000000" fill-rule="nonzero" fill-opacity="1" /><path clip-path="url(#clip510)" d="M1100.37 34.3054 L1100.37 36.9095 L1075.9 36.9095 Q1076.24 42.4072 1079.19 45.3007 Q1082.17 48.1653 1087.47 48.1653 Q1090.54 48.1653 1093.4 47.4129 Q1096.29 46.6606 1099.13 45.156 L1099.13 50.1907 Q1096.27 51.406 1093.26 52.0425 Q1090.25 52.6791 1087.15 52.6791 Q1079.4 52.6791 1074.85 48.1653 Q1070.34 43.6514 1070.34 35.9547 Q1070.34 27.9975 1074.62 23.339 Q1078.93 18.6515 1086.23 18.6515 Q1092.76 18.6515 1096.56 22.876 Q1100.37 27.0716 1100.37 34.3054 M1095.05 32.7429 Q1094.99 28.3737 1092.59 25.7695 Q1090.22 23.1654 1086.28 23.1654 Q1081.83 23.1654 1079.14 25.6827 Q1076.47 28.2001 1076.07 32.7718 L1095.05 32.7429 Z" fill="#000000" fill-rule="nonzero" fill-opacity="1" /><path clip-path="url(#clip510)" d="M1125.52 6.81709 L1125.52 11.2442 L1120.43 11.2442 Q1117.56 11.2442 1116.43 12.4016 Q1115.33 13.559 1115.33 16.5682 L1115.33 19.4328 L1124.1 19.4328 L1124.1 23.5705 L1115.33 23.5705 L1115.33 51.84 L1109.98 51.84 L1109.98 23.5705 L1104.89 23.5705 L1104.89 19.4328 L1109.98 19.4328 L1109.98 17.1758 Q1109.98 11.765 1112.5 9.30551 Q1115.02 6.81709 1120.48 6.81709 L1125.52 6.81709 Z" fill="#000000" fill-rule="nonzero" fill-opacity="1" /><path clip-path="url(#clip510)" d="M1142.53 23.1654 Q1138.25 23.1654 1135.76 26.5218 Q1133.27 29.8494 1133.27 35.6653 Q1133.27 41.4813 1135.73 44.8377 Q1138.22 48.1653 1142.53 48.1653 Q1146.79 48.1653 1149.27 44.8088 Q1151.76 41.4523 1151.76 35.6653 Q1151.76 29.9072 1149.27 26.5508 Q1146.79 23.1654 1142.53 23.1654 M1142.53 18.6515 Q1149.48 18.6515 1153.44 23.1654 Q1157.41 27.6792 1157.41 35.6653 Q1157.41 43.6225 1153.44 48.1653 Q1149.48 52.6791 1142.53 52.6791 Q1135.56 52.6791 1131.6 48.1653 Q1127.66 43.6225 1127.66 35.6653 Q1127.66 27.6792 1131.6 23.1654 Q1135.56 18.6515 1142.53 18.6515 Z" fill="#000000" fill-rule="nonzero" fill-opacity="1" /><path clip-path="url(#clip510)" d="M1185.01 24.4096 Q1184.11 23.8888 1183.04 23.6573 Q1182 23.3969 1180.73 23.3969 Q1176.21 23.3969 1173.78 26.3482 Q1171.38 29.2707 1171.38 34.7683 L1171.38 51.84 L1166.03 51.84 L1166.03 19.4328 L1171.38 19.4328 L1171.38 24.4675 Q1173.06 21.5161 1175.75 20.0983 Q1178.44 18.6515 1182.29 18.6515 Q1182.84 18.6515 1183.5 18.7383 Q1184.17 18.7962 1184.98 18.9409 L1185.01 24.4096 Z" fill="#000000" fill-rule="nonzero" fill-opacity="1" /><path clip-path="url(#clip510)" d="M1214.78 25.6538 Q1216.78 22.0659 1219.56 20.3587 Q1222.34 18.6515 1226.1 18.6515 Q1231.16 18.6515 1233.91 22.2105 Q1236.66 25.7406 1236.66 32.2799 L1236.66 51.84 L1231.31 51.84 L1231.31 32.4535 Q1231.31 27.795 1229.66 25.5381 Q1228.01 23.2811 1224.62 23.2811 Q1220.48 23.2811 1218.08 26.03 Q1215.68 28.7788 1215.68 33.5241 L1215.68 51.84 L1210.33 51.84 L1210.33 32.4535 Q1210.33 27.7661 1208.68 25.5381 Q1207.03 23.2811 1203.59 23.2811 Q1199.51 23.2811 1197.1 26.0589 Q1194.7 28.8077 1194.7 33.5241 L1194.7 51.84 L1189.35 51.84 L1189.35 19.4328 L1194.7 19.4328 L1194.7 24.4675 Q1196.53 21.4872 1199.07 20.0693 Q1201.62 18.6515 1205.12 18.6515 Q1208.65 18.6515 1211.11 20.4455 Q1213.6 22.2395 1214.78 25.6538 Z" fill="#000000" fill-rule="nonzero" fill-opacity="1" /><path clip-path="url(#clip510)" d="M1262.01 35.5496 Q1255.55 35.5496 1253.06 37.0253 Q1250.58 38.501 1250.58 42.06 Q1250.58 44.8956 1252.43 46.5738 Q1254.31 48.2231 1257.52 48.2231 Q1261.95 48.2231 1264.61 45.0981 Q1267.3 41.9442 1267.3 36.7359 L1267.3 35.5496 L1262.01 35.5496 M1272.62 33.3505 L1272.62 51.84 L1267.3 51.84 L1267.3 46.921 Q1265.48 49.8724 1262.76 51.2902 Q1260.04 52.6791 1256.1 52.6791 Q1251.13 52.6791 1248.17 49.9014 Q1245.25 47.0947 1245.25 42.4072 Q1245.25 36.9385 1248.9 34.1607 Q1252.57 31.3829 1259.84 31.3829 L1267.3 31.3829 L1267.3 30.8621 Q1267.3 27.1874 1264.87 25.1908 Q1262.47 23.1654 1258.1 23.1654 Q1255.32 23.1654 1252.69 23.8309 Q1250.06 24.4964 1247.62 25.8274 L1247.62 20.9085 Q1250.55 19.78 1253.3 19.2302 Q1256.05 18.6515 1258.65 18.6515 Q1265.68 18.6515 1269.15 22.2973 Q1272.62 25.9431 1272.62 33.3505 Z" fill="#000000" fill-rule="nonzero" fill-opacity="1" /><path clip-path="url(#clip510)" d="M1288.86 10.2314 L1288.86 19.4328 L1299.82 19.4328 L1299.82 23.5705 L1288.86 23.5705 L1288.86 41.163 Q1288.86 45.1271 1289.93 46.2555 Q1291.03 47.384 1294.36 47.384 L1299.82 47.384 L1299.82 51.84 L1294.36 51.84 Q1288.19 51.84 1285.85 49.5541 Q1283.5 47.2393 1283.5 41.163 L1283.5 23.5705 L1279.6 23.5705 L1279.6 19.4328 L1283.5 19.4328 L1283.5 10.2314 L1288.86 10.2314 Z" fill="#000000" fill-rule="nonzero" fill-opacity="1" /><path clip-path="url(#clip510)" d="M1306.83 19.4328 L1312.15 19.4328 L1312.15 51.84 L1306.83 51.84 L1306.83 19.4328 M1306.83 6.81709 L1312.15 6.81709 L1312.15 13.559 L1306.83 13.559 L1306.83 6.81709 Z" fill="#000000" fill-rule="nonzero" fill-opacity="1" /><path clip-path="url(#clip510)" d="M1335.85 23.1654 Q1331.57 23.1654 1329.08 26.5218 Q1326.59 29.8494 1326.59 35.6653 Q1326.59 41.4813 1329.05 44.8377 Q1331.54 48.1653 1335.85 48.1653 Q1340.1 48.1653 1342.59 44.8088 Q1345.08 41.4523 1345.08 35.6653 Q1345.08 29.9072 1342.59 26.5508 Q1340.1 23.1654 1335.85 23.1654 M1335.85 18.6515 Q1342.79 18.6515 1346.76 23.1654 Q1350.72 27.6792 1350.72 35.6653 Q1350.72 43.6225 1346.76 48.1653 Q1342.79 52.6791 1335.85 52.6791 Q1328.87 52.6791 1324.91 48.1653 Q1320.98 43.6225 1320.98 35.6653 Q1320.98 27.6792 1324.91 23.1654 Q1328.87 18.6515 1335.85 18.6515 Z" fill="#000000" fill-rule="nonzero" fill-opacity="1" /><path clip-path="url(#clip510)" d="M1386.48 32.2799 L1386.48 51.84 L1381.16 51.84 L1381.16 32.4535 Q1381.16 27.8529 1379.37 25.567 Q1377.57 23.2811 1373.98 23.2811 Q1369.67 23.2811 1367.18 26.03 Q1364.7 28.7788 1364.7 33.5241 L1364.7 51.84 L1359.34 51.84 L1359.34 19.4328 L1364.7 19.4328 L1364.7 24.4675 Q1366.61 21.545 1369.18 20.0983 Q1371.79 18.6515 1375.17 18.6515 Q1380.76 18.6515 1383.62 22.1237 Q1386.48 25.567 1386.48 32.2799 Z" fill="#000000" fill-rule="nonzero" fill-opacity="1" /><path clip-path="url(#clip510)" d="M1430.67 35.5496 Q1424.22 35.5496 1421.73 37.0253 Q1419.24 38.501 1419.24 42.06 Q1419.24 44.8956 1421.09 46.5738 Q1422.97 48.2231 1426.18 48.2231 Q1430.61 48.2231 1433.27 45.0981 Q1435.96 41.9442 1435.96 36.7359 L1435.96 35.5496 L1430.67 35.5496 M1441.29 33.3505 L1441.29 51.84 L1435.96 51.84 L1435.96 46.921 Q1434.14 49.8724 1431.42 51.2902 Q1428.7 52.6791 1424.77 52.6791 Q1419.79 52.6791 1416.84 49.9014 Q1413.91 47.0947 1413.91 42.4072 Q1413.91 36.9385 1417.56 34.1607 Q1421.24 31.3829 1428.5 31.3829 L1435.96 31.3829 L1435.96 30.8621 Q1435.96 27.1874 1433.53 25.1908 Q1431.13 23.1654 1426.76 23.1654 Q1423.98 23.1654 1421.35 23.8309 Q1418.72 24.4964 1416.29 25.8274 L1416.29 20.9085 Q1419.21 19.78 1421.96 19.2302 Q1424.71 18.6515 1427.31 18.6515 Q1434.34 18.6515 1437.81 22.2973 Q1441.29 25.9431 1441.29 33.3505 Z" fill="#000000" fill-rule="nonzero" fill-opacity="1" /><path clip-path="url(#clip510)" d="M1457.52 10.2314 L1457.52 19.4328 L1468.49 19.4328 L1468.49 23.5705 L1457.52 23.5705 L1457.52 41.163 Q1457.52 45.1271 1458.59 46.2555 Q1459.69 47.384 1463.02 47.384 L1468.49 47.384 L1468.49 51.84 L1463.02 51.84 Q1456.85 51.84 1454.51 49.5541 Q1452.17 47.2393 1452.17 41.163 L1452.17 23.5705 L1448.26 23.5705 L1448.26 19.4328 L1452.17 19.4328 L1452.17 10.2314 L1457.52 10.2314 Z" fill="#000000" fill-rule="nonzero" fill-opacity="1" /><path clip-path="url(#clip510)" d="M1499.59 10.2314 L1499.59 19.4328 L1510.56 19.4328 L1510.56 23.5705 L1499.59 23.5705 L1499.59 41.163 Q1499.59 45.1271 1500.66 46.2555 Q1501.76 47.384 1505.09 47.384 L1510.56 47.384 L1510.56 51.84 L1505.09 51.84 Q1498.93 51.84 1496.58 49.5541 Q1494.24 47.2393 1494.24 41.163 L1494.24 23.5705 L1490.33 23.5705 L1490.33 19.4328 L1494.24 19.4328 L1494.24 10.2314 L1499.59 10.2314 Z" fill="#000000" fill-rule="nonzero" fill-opacity="1" /><path clip-path="url(#clip510)" d="M1518.25 24.9304 L1555.35 24.9304 L1555.35 29.7915 L1518.25 29.7915 L1518.25 24.9304 M1518.25 36.7359 L1555.35 36.7359 L1555.35 41.6549 L1518.25 41.6549 L1518.25 36.7359 Z" fill="#000000" fill-rule="nonzero" fill-opacity="1" /><path clip-path="url(#clip510)" d="M1625.49 46.921 L1635.04 46.921 L1635.04 13.964 L1624.65 16.0474 L1624.65 10.7233 L1634.98 8.64 L1640.82 8.64 L1640.82 46.921 L1650.37 46.921 L1650.37 51.84 L1625.49 51.84 L1625.49 46.921 Z" fill="#000000" fill-rule="nonzero" fill-opacity="1" /><path clip-path="url(#clip510)" d="M1662.18 44.4905 L1668.28 44.4905 L1668.28 51.84 L1662.18 51.84 L1662.18 44.4905 Z" fill="#000000" fill-rule="nonzero" fill-opacity="1" /><path clip-path="url(#clip510)" d="M1693.51 12.4884 Q1689 12.4884 1686.71 16.9444 Q1684.46 21.3714 1684.46 30.2834 Q1684.46 39.1665 1686.71 43.6225 Q1689 48.0495 1693.51 48.0495 Q1698.06 48.0495 1700.31 43.6225 Q1702.6 39.1665 1702.6 30.2834 Q1702.6 21.3714 1700.31 16.9444 Q1698.06 12.4884 1693.51 12.4884 M1693.51 7.85875 Q1700.78 7.85875 1704.6 13.6168 Q1708.44 19.346 1708.44 30.2834 Q1708.44 41.1919 1704.6 46.95 Q1700.78 52.6791 1693.51 52.6791 Q1686.25 52.6791 1682.4 46.95 Q1678.58 41.1919 1678.58 30.2834 Q1678.58 19.346 1682.4 13.6168 Q1686.25 7.85875 1693.51 7.85875 Z" fill="#000000" fill-rule="nonzero" fill-opacity="1" /><path clip-path="url(#clip510)" d="M1731.22 12.4884 Q1726.7 12.4884 1724.42 16.9444 Q1722.16 21.3714 1722.16 30.2834 Q1722.16 39.1665 1724.42 43.6225 Q1726.7 48.0495 1731.22 48.0495 Q1735.76 48.0495 1738.02 43.6225 Q1740.3 39.1665 1740.3 30.2834 Q1740.3 21.3714 1738.02 16.9444 Q1735.76 12.4884 1731.22 12.4884 M1731.22 7.85875 Q1738.48 7.85875 1742.3 13.6168 Q1746.15 19.346 1746.15 30.2834 Q1746.15 41.1919 1742.3 46.95 Q1738.48 52.6791 1731.22 52.6791 Q1723.95 52.6791 1720.11 46.95 Q1716.29 41.1919 1716.29 30.2834 Q1716.29 19.346 1720.11 13.6168 Q1723.95 7.85875 1731.22 7.85875 Z" fill="#000000" fill-rule="nonzero" fill-opacity="1" /><path clip-path="url(#clip510)" d="M1768.92 12.4884 Q1764.4 12.4884 1762.12 16.9444 Q1759.86 21.3714 1759.86 30.2834 Q1759.86 39.1665 1762.12 43.6225 Q1764.4 48.0495 1768.92 48.0495 Q1773.46 48.0495 1775.72 43.6225 Q1778 39.1665 1778 30.2834 Q1778 21.3714 1775.72 16.9444 Q1773.46 12.4884 1768.92 12.4884 M1768.92 7.85875 Q1776.18 7.85875 1780 13.6168 Q1783.85 19.346 1783.85 30.2834 Q1783.85 41.1919 1780 46.95 Q1776.18 52.6791 1768.92 52.6791 Q1761.66 52.6791 1757.81 46.95 Q1753.99 41.1919 1753.99 30.2834 Q1753.99 19.346 1757.81 13.6168 Q1761.66 7.85875 1768.92 7.85875 Z" fill="#000000" fill-rule="nonzero" fill-opacity="1" /><polyline clip-path="url(#clip511)" style="stroke:#009af9; stroke-linecap:round; stroke-linejoin:round; stroke-width:4; stroke-opacity:1; fill:none" points="280.231,1270.9 283.919,1274.47 287.608,1277.84 291.298,1281.04 294.989,1284.11 298.68,1287.08 302.371,1289.97 306.062,1292.81 309.752,1295.61 313.441,1298.38 317.129,1301.14 320.814,1303.86 324.497,1306.54 328.176,1309.18 331.853,1311.73 335.525,1314.18 339.193,1316.5 342.858,1318.65 346.518,1320.59 350.174,1322.3 353.825,1323.73 357.473,1324.84 361.117,1325.6 364.758,1325.98 368.396,1325.94 372.031,1325.45 375.664,1324.48 379.296,1323.02 382.927,1321.03 386.557,1318.49 390.188,1315.4 393.82,1311.74 397.454,1307.49 401.09,1302.66 404.73,1297.25 408.374,1291.25 412.022,1284.67 415.676,1277.53 419.337,1269.85 423.005,1261.64 426.68,1252.93 430.364,1243.76 434.057,1234.16 437.76,1224.17 441.472,1213.85 445.195,1203.23 448.929,1192.37 452.673,1181.32 456.428,1170.13 460.193,1158.85 463.969,1147.52 467.754,1136.2 471.55,1124.9 475.354,1113.67 479.166,1102.52 482.986,1091.47 486.813,1080.52 490.647,1069.67 494.487,1058.9 498.333,1048.22 502.184,1037.58 506.04,1026.98 509.901,1016.39 513.767,1005.77 517.637,995.118 521.513,984.402 525.394,973.608 529.281,962.724 533.174,951.743 537.072,940.663 540.977,929.488 544.889,918.227 548.808,906.894 552.735,895.505 556.668,884.081 560.608,872.642 564.556,861.208 568.511,849.8 572.472,838.433 576.44,827.12 580.413,815.868 584.392,804.681 588.377,793.553 592.365,782.478 596.358,771.438 600.354,760.414 604.354,749.379 608.356,738.301 612.36,727.142 616.367,715.86 620.376,704.406 624.386,692.724 628.399,680.752 632.413,668.426 636.429,655.672 640.448,642.416 644.47,628.582 648.496,614.091 652.528,598.87 656.566,582.848 660.613,565.962 664.67,548.162 668.739,529.409 672.824,509.681 676.926,488.98 681.048,467.328 685.195,444.78 689.367,421.421 693.57,397.372 697.806,372.796 702.078,347.9 706.388,322.937 710.738,298.205 715.131,274.05 719.565,250.854 724.041,229.027 728.556,208.99 733.106,191.144 737.686,175.849 742.288,163.382 746.905,153.919 751.529,147.511 756.152,144.087 760.766,143.465 765.366,145.383 769.946,149.526 774.505,155.563 779.041,163.168 783.552,172.042 788.039,181.919 792.503,192.571 796.944,203.807 801.366,215.471 805.768,227.437 810.152,239.602 814.52,251.889 818.874,264.239 823.215,276.61 827.543,288.978 831.862,301.336 836.172,313.693 840.473,326.075 844.768,338.521 849.057,351.083 853.34,363.823 857.617,376.805 861.888,390.095 866.153,403.751 870.411,417.822 874.661,432.344 878.902,447.336 883.132,462.798 887.351,478.717 891.558,495.061 895.751,511.791 899.93,528.854 904.095,546.195 908.244,563.757 912.378,581.481 916.497,599.312 920.6,617.199 924.689,635.096 928.762,652.96 932.821,670.754 936.865,688.443 940.894,705.998 944.909,723.387 948.911,740.583 952.898,757.558 956.872,774.282 960.833,790.727 964.78,806.862 968.714,822.655 972.636,838.074 976.545,853.086 980.443,867.658 984.328,881.761 988.203,895.363 992.067,908.437 995.922,920.957 999.767,932.901 1003.6,944.251 1007.43,954.99 1011.25,965.107 1015.07,974.594 1018.88,983.446 1022.68,991.662 1026.48,999.244 1030.28,1006.2 1034.07,1012.53 1037.86,1018.25 1041.65,1023.37 1045.44,1027.9 1049.22,1031.86 1053.01,1035.27 1056.8,1038.13 1060.58,1040.48 1064.37,1042.33 1068.16,1043.7 1071.95,1044.61 1075.75,1045.09 1079.54,1045.15 1083.34,1044.82 1087.15,1044.13 1090.95,1043.11 1094.76,1041.76 1098.58,1040.14 1102.4,1038.25 1106.22,1036.14 1110.05,1033.83 1113.88,1031.34 1117.72,1028.7 1121.56,1025.94 1125.4,1023.08 1129.25,1020.15 1133.11,1017.16 1136.97,1014.13 1140.83,1011.09 1144.69,1008.05 1148.56,1005.01 1152.43,1002 1156.31,999.013 1160.19,996.064 1164.07,993.157 1167.95,990.296 1171.84,987.483 1175.73,984.719 1179.62,982.006 1183.51,979.343 1187.41,976.729 1191.3,974.163 1195.2,971.642 1199.1,969.165 1203,966.729 1206.9,964.332 1210.81,961.974 1214.72,959.653 1218.62,957.369 1222.53,955.122 1226.44,952.914 1230.36,950.75 1234.27,948.631 1238.19,946.566 1242.11,944.56 1246.03,942.623 1249.95,940.764 1253.87,938.994 1257.8,937.325 1261.73,935.77 1265.66,934.34 1269.59,933.047 1273.52,931.904 1277.45,930.92 1281.38,930.101 1285.32,929.455 1289.25,928.983 1293.18,928.683 1297.11,928.551 1301.04,928.577 1304.97,928.748 1308.9,929.046 1312.82,929.45 1316.74,929.932 1320.66,930.466 1324.57,931.018 1328.49,931.555 1332.39,932.041 1336.3,932.441 1340.2,932.721 1344.1,932.844 1348,932.78 1351.89,932.499 1355.78,931.977 1359.67,931.191 1363.56,930.127 1367.46,928.775 1371.35,927.131 1375.24,925.2 1379.14,922.992 1383.03,920.524 1386.94,917.822 1390.84,914.916 1394.75,911.844 1398.66,908.647 1402.58,905.368 1406.5,902.055 1410.43,898.751 1414.36,895.5 1418.29,892.336 1422.23,889.289 1426.17,886.378 1430.11,883.61 1434.05,880.98 1437.99,878.472 1441.93,876.055 1445.87,873.688 1449.8,871.322 1453.73,868.897 1457.66,866.35 1461.58,863.616 1465.51,860.627 1469.42,857.315 1473.34,853.618 1477.26,849.474 1481.17,844.829 1485.09,839.631 1489,833.837 1492.92,827.408 1496.84,820.315 1500.77,812.535 1504.71,804.056 1508.65,794.876 1512.6,785.004 1516.57,774.465 1520.55,763.3 1524.55,751.571 1528.56,739.361 1532.6,726.778 1536.66,713.961 1540.74,701.079 1544.85,688.333 1548.98,675.958 1553.15,664.219 1557.34,653.404 1561.56,643.814 1565.8,635.752 1570.06,629.502 1574.33,625.307 1578.62,623.354 1582.91,623.748 1587.2,626.509 1591.48,631.562 1595.75,638.75 1600,647.843 1604.22,658.563 1608.42,670.604 1612.59,683.654 1616.74,697.416 1620.86,711.614 1624.95,726.01 1629.02,740.402 1633.07,754.628 1637.09,768.561 1641.11,782.11 1645.1,795.211 1649.09,807.83 1653.06,819.953 1657.03,831.588 1660.98,842.758 1664.94,853.503 1668.89,863.873 1672.84,873.934 1676.79,883.762 1680.74,893.442 1684.69,903.07 1688.64,912.75 1692.59,922.596 1696.55,932.724 1700.5,943.253 1704.46,954.3 1708.41,965.973 1712.36,978.366 1716.31,991.552 1720.25,1005.58 1724.17,1020.45 1728.09,1036.16 1731.99,1052.64 1735.87,1069.81 1739.74,1087.56 1743.58,1105.76 1747.4,1124.25 1751.19,1142.89 1754.97,1161.52 1758.72,1180 1762.44,1198.18 1766.15,1215.93 1769.83,1233.14 1773.49,1249.69 1777.14,1265.5 1780.76,1280.49 1784.37,1294.57 1787.96,1307.7 1791.54,1319.83 1795.11,1330.9 1798.67,1340.89 1802.22,1349.77 1805.76,1357.51 1809.29,1364.09 1812.81,1369.51 1816.33,1373.76 1819.85,1376.82 1823.37,1378.69 1826.89,1379.39 1830.4,1378.91 1833.92,1377.26 1837.44,1374.45 1840.97,1370.5 1844.5,1365.43 1848.04,1359.25 1851.58,1352 1855.13,1343.71 1858.7,1334.42 1862.27,1324.16 1865.86,1312.99 1869.46,1300.96 1873.07,1288.13 1876.7,1274.58 1880.35,1260.39 1884.01,1245.62 1887.69,1230.39 1891.39,1214.78 1895.11,1198.89 1898.84,1182.84 1902.59,1166.72 1906.36,1150.63 1910.15,1134.67 1913.94,1118.91 1917.76,1103.41 1921.58,1088.21 1925.41,1073.33 1929.25,1058.76 1933.1,1044.45 1936.95,1030.35 1940.81,1016.39 1944.67,1002.46 1948.53,988.471 1952.4,974.317 1956.27,959.896 1960.14,945.112 1964.02,929.88 1967.91,914.125 1971.8,897.785 1975.7,880.81 1979.61,863.164 1983.53,844.823 1987.47,825.776 1991.43,806.025 1995.41,785.586 1999.4,764.494 2003.42,742.801 2007.47,720.587 2011.55,697.96 2015.66,675.068 2019.81,652.108 2024,629.337 2028.23,607.078 2032.51,585.733 2036.83,565.777 2041.2,547.748 2045.61,532.219 2050.05,519.755 2054.52,510.847 2059.02,505.854 2063.51,504.95 2068,508.098 2072.48,515.065 2076.92,525.464 2081.34,538.808 2085.71,554.57 2090.04,572.234 2094.33,591.322 2098.58,611.415 2102.79,632.157 2106.97,653.254 2111.11,674.469 2115.22,695.613 2119.29,716.539 2123.35,737.133 2127.37,757.312 2131.38,777.013 2135.37,796.197 2139.34,814.836 2143.29,832.922 2147.23,850.455 2151.15,867.449 2155.07,883.923 2158.97,899.91 2162.86,915.443 2166.75,930.566 2170.63,945.32 2174.5,959.751 2178.36,973.901 2182.22,987.81 2186.07,1001.51 2189.91,1015.03 2193.75,1028.39 2197.57,1041.6 2201.39,1054.65 2205.2,1067.55 2209,1080.27 2212.79,1092.78 2216.58,1105.08 2220.35,1117.11 2224.12,1128.85 2227.87,1140.26 2231.62,1151.31 2235.36,1161.98 2239.09,1172.22 2242.81,1182.02 2246.53,1191.36 2250.24,1200.22 2253.94,1208.59 2257.64,1216.47 2261.34,1223.86 2265.03,1230.76 2268.72,1237.2 2272.41,1243.17 2276.1,1248.71 2279.78,1253.85 2283.47,1258.6 2287.16,1263 2290.84,1267.09 "/>
<polyline clip-path="url(#clip511)" style="stroke:#e26f46; stroke-linecap:round; stroke-linejoin:round; stroke-width:4; stroke-opacity:1; fill:none" points="282.026,1307.71 285.96,1310.85 289.894,1313.44 293.829,1315.52 297.763,1317.1 301.697,1318.21 305.631,1318.88 309.565,1319.13 313.5,1318.97 317.434,1318.44 321.368,1317.54 325.302,1316.3 329.236,1314.74 333.17,1312.87 337.105,1310.7 341.039,1308.26 344.973,1305.56 348.907,1302.6 352.841,1299.41 356.775,1296.01 360.71,1292.39 364.644,1288.58 368.578,1284.6 372.512,1280.45 376.446,1276.16 380.381,1271.72 384.315,1267.17 388.249,1262.5 392.183,1257.72 396.117,1252.86 400.051,1247.91 403.986,1242.87 407.92,1237.77 411.854,1232.58 415.788,1227.32 419.722,1221.99 423.656,1216.57 427.591,1211.06 431.525,1205.46 435.459,1199.76 439.393,1193.94 443.327,1188 447.262,1181.92 451.196,1175.69 455.13,1169.3 459.064,1162.73 462.998,1155.98 466.932,1149.02 470.867,1141.84 474.801,1134.44 478.735,1126.79 482.669,1118.88 486.603,1110.7 490.538,1102.23 494.472,1093.47 498.406,1084.4 502.34,1075 506.274,1065.26 510.208,1055.17 514.143,1044.72 518.077,1033.91 522.011,1022.71 525.945,1011.13 529.879,999.164 533.813,986.808 537.748,974.066 541.682,960.946 545.616,947.459 549.55,933.62 553.484,919.45 557.419,904.972 561.353,890.216 565.287,875.213 569.221,859.998 573.155,844.61 577.089,829.087 581.024,813.467 584.958,797.789 588.892,782.09 592.826,766.403 596.76,750.759 600.695,735.186 604.629,719.705 608.563,704.336 612.497,689.093 616.431,673.986 620.365,659.023 624.3,644.208 628.234,629.544 632.168,615.03 636.102,600.666 640.036,586.449 643.97,572.378 647.905,558.447 651.839,544.652 655.773,530.988 659.707,517.448 663.641,504.025 667.576,490.712 671.51,477.498 675.444,464.377 679.378,451.341 683.312,438.386 687.246,425.508 691.181,412.71 695.115,399.998 699.049,387.387 702.983,374.893 706.917,362.544 710.851,350.372 714.786,338.415 718.72,326.716 722.654,315.322 726.588,304.283 730.522,293.648 734.457,283.465 738.391,273.78 742.325,264.633 746.259,256.059 750.193,248.086 754.127,240.734 758.062,234.017 761.996,227.942 765.93,222.51 769.864,217.719 773.798,213.562 777.733,210.033 781.667,207.127 785.601,204.843 789.535,203.182 793.469,202.155 797.403,201.78 801.338,202.08 805.272,203.089 809.206,204.847 813.14,207.4 817.074,210.798 821.008,215.092 824.943,220.332 828.877,226.565 832.811,233.833 836.745,242.169 840.679,251.597 844.614,262.13 848.548,273.767 852.482,286.498 856.416,300.296 860.35,315.126 864.284,330.94 868.219,347.679 872.153,365.277 876.087,383.661 880.021,402.752 883.955,422.466 887.89,442.72 891.824,463.428 895.758,484.505 899.692,505.87 903.626,527.441 907.56,549.143 911.495,570.904 915.429,592.656 919.363,614.336 923.297,635.886 927.231,657.253 931.165,678.386 935.1,699.239 939.034,719.771 942.968,739.941 946.902,759.711 950.836,779.046 954.771,797.91 958.705,816.269 962.639,834.092 966.573,851.346 970.507,868 974.441,884.025 978.376,899.39 982.31,914.071 986.244,928.04 990.178,941.277 994.112,953.761 998.046,965.474 1001.98,976.405 1005.91,986.544 1009.85,995.883 1013.78,1004.42 1017.72,1012.17 1021.65,1019.12 1025.59,1025.29 1029.52,1030.69 1033.45,1035.35 1037.39,1039.27 1041.32,1042.5 1045.26,1045.04 1049.19,1046.94 1053.12,1048.22 1057.06,1048.92 1060.99,1049.06 1064.93,1048.68 1068.86,1047.82 1072.8,1046.5 1076.73,1044.77 1080.66,1042.64 1084.6,1040.17 1088.53,1037.36 1092.47,1034.26 1096.4,1030.9 1100.34,1027.31 1104.27,1023.51 1108.2,1019.54 1112.14,1015.42 1116.07,1011.18 1120.01,1006.86 1123.94,1002.47 1127.87,998.054 1131.81,993.633 1135.74,989.236 1139.68,984.891 1143.61,980.623 1147.55,976.459 1151.48,972.422 1155.41,968.535 1159.35,964.819 1163.28,961.293 1167.22,957.974 1171.15,954.876 1175.08,952.011 1179.02,949.39 1182.95,947.018 1186.89,944.901 1190.82,943.039 1194.76,941.433 1198.69,940.079 1202.62,938.972 1206.56,938.102 1210.49,937.462 1214.43,937.038 1218.36,936.818 1222.29,936.786 1226.23,936.927 1230.16,937.224 1234.1,937.66 1238.03,938.217 1241.97,938.877 1245.9,939.623 1249.83,940.44 1253.77,941.309 1257.7,942.218 1261.64,943.151 1265.57,944.096 1269.5,945.04 1273.44,945.973 1277.37,946.883 1281.31,947.763 1285.24,948.601 1289.18,949.388 1293.11,950.116 1297.04,950.775 1300.98,951.354 1304.91,951.843 1308.85,952.23 1312.78,952.504 1316.71,952.652 1320.65,952.662 1324.58,952.52 1328.52,952.213 1332.45,951.729 1336.39,951.056 1340.32,950.182 1344.25,949.098 1348.19,947.794 1352.12,946.265 1356.06,944.504 1359.99,942.508 1363.93,940.276 1367.86,937.809 1371.79,935.111 1375.73,932.185 1379.66,929.039 1383.6,925.682 1387.53,922.125 1391.46,918.38 1395.4,914.46 1399.33,910.382 1403.27,906.162 1407.2,901.817 1411.14,897.366 1415.07,892.829 1419,888.225 1422.94,883.574 1426.87,878.896 1430.81,874.209 1434.74,869.528 1438.67,864.87 1442.61,860.245 1446.54,855.662 1450.48,851.126 1454.41,846.637 1458.35,842.191 1462.28,837.782 1466.21,833.396 1470.15,829.02 1474.08,824.634 1478.02,820.218 1481.95,815.752 1485.88,811.212 1489.82,806.579 1493.75,801.834 1497.69,796.96 1501.62,791.947 1505.56,786.785 1509.49,781.474 1513.42,776.018 1517.36,770.426 1521.29,764.714 1525.23,758.905 1529.16,753.026 1533.09,747.111 1537.03,741.197 1540.96,735.328 1544.9,729.549 1548.83,723.908 1552.77,718.457 1556.7,713.247 1560.63,708.332 1564.57,703.763 1568.5,699.592 1572.44,695.867 1576.37,692.634 1580.3,689.936 1584.24,687.812 1588.17,686.294 1592.11,685.41 1596.04,685.185 1599.98,685.636 1603.91,686.776 1607.84,688.614 1611.78,691.154 1615.71,694.397 1619.65,698.338 1623.58,702.974 1627.52,708.294 1631.45,714.289 1635.38,720.945 1639.32,728.247 1643.25,736.182 1647.19,744.733 1651.12,753.886 1655.05,763.626 1658.99,773.941 1662.92,784.822 1666.86,796.26 1670.79,808.253 1674.73,820.799 1678.66,833.898 1682.59,847.553 1686.53,861.766 1690.46,876.537 1694.4,891.865 1698.33,907.744 1702.26,924.16 1706.2,941.096 1710.13,958.522 1714.07,976.403 1718,994.694 1721.94,1013.34 1725.87,1032.28 1729.8,1051.45 1733.74,1070.77 1737.67,1090.16 1741.61,1109.54 1745.54,1128.82 1749.47,1147.93 1753.41,1166.78 1757.34,1185.28 1761.28,1203.35 1765.21,1220.93 1769.15,1237.92 1773.08,1254.26 1777.01,1269.89 1780.95,1284.74 1784.88,1298.75 1788.82,1311.86 1792.75,1324.03 1796.68,1335.21 1800.62,1345.37 1804.55,1354.45 1808.49,1362.43 1812.42,1369.28 1816.36,1374.98 1820.29,1379.51 1824.22,1382.85 1828.16,1384.98 1832.09,1385.91 1836.03,1385.62 1839.96,1384.11 1843.89,1381.39 1847.83,1377.46 1851.76,1372.33 1855.7,1366.02 1859.63,1358.54 1863.57,1349.92 1867.5,1340.18 1871.43,1329.35 1875.37,1317.47 1879.3,1304.58 1883.24,1290.72 1887.17,1275.95 1891.1,1260.31 1895.04,1243.86 1898.97,1226.65 1902.91,1208.76 1906.84,1190.23 1910.78,1171.14 1914.71,1151.54 1918.64,1131.5 1922.58,1111.08 1926.51,1090.33 1930.45,1069.31 1934.38,1048.08 1938.32,1026.67 1942.25,1005.14 1946.18,983.53 1950.12,961.871 1954.05,940.201 1957.99,918.557 1961.92,896.971 1965.85,875.481 1969.79,854.125 1973.72,832.948 1977.66,811.997 1981.59,791.331 1985.53,771.013 1989.46,751.115 1993.39,731.717 1997.33,712.905 2001.26,694.773 2005.2,677.416 2009.13,660.931 2013.06,645.414 2017,630.956 2020.93,617.645 2024.87,605.558 2028.8,594.762 2032.74,585.313 2036.67,577.256 2040.6,570.622 2044.54,565.43 2048.47,561.689 2052.41,559.395 2056.34,558.536 2060.27,559.089 2064.21,561.026 2068.14,564.31 2072.08,568.896 2076.01,574.736 2079.95,581.773 2083.88,589.945 2087.81,599.187 2091.75,609.424 2095.68,620.582 2099.62,632.582 2103.55,645.341 2107.48,658.779 2111.42,672.817 2115.35,687.377 2119.29,702.387 2123.22,717.782 2127.16,733.501 2131.09,749.493 2135.02,765.712 2138.96,782.12 2142.89,798.686 2146.83,815.382 2150.76,832.186 2154.69,849.08 2158.63,866.045 2162.56,883.067 2166.5,900.129 2170.43,917.215 2174.37,934.306 2178.3,951.384 2182.23,968.426 2186.17,985.407 2190.1,1002.3 2194.04,1019.08 2197.97,1035.71 2201.91,1052.15 2205.84,1068.38 2209.77,1084.35 2213.71,1100.03 2217.64,1115.37 2221.58,1130.34 2225.51,1144.9 2229.44,1159.01 2233.38,1172.64 2237.31,1185.75 2241.25,1198.3 2245.18,1210.28 2249.12,1221.66 2253.05,1232.41 2256.98,1242.52 2260.92,1251.98 2264.85,1260.77 2268.79,1268.9 2272.72,1276.37 2276.65,1283.17 2280.59,1289.33 2284.52,1294.84 2288.46,1299.73 2292.39,1304.02 "/>
<polyline clip-path="url(#clip511)" style="stroke:#3da44d; stroke-linecap:round; stroke-linejoin:round; stroke-width:4; stroke-opacity:1; fill:none" points="282.026,1299.31 285.96,1303.56 289.894,1307.32 293.829,1310.67 297.763,1313.67 301.697,1316.4 305.631,1318.94 309.565,1321.35 313.5,1323.7 317.434,1326.03 321.368,1328.38 325.302,1330.78 329.236,1333.23 333.17,1335.72 337.105,1338.22 341.039,1340.68 344.973,1343.06 348.907,1345.29 352.841,1347.28 356.775,1348.96 360.71,1350.24 364.644,1351.04 368.578,1351.29 372.512,1350.89 376.446,1349.81 380.381,1347.97 384.315,1345.35 388.249,1341.92 392.183,1337.67 396.117,1332.6 400.051,1326.73 403.986,1320.09 407.92,1312.73 411.854,1304.68 415.788,1296.02 419.722,1286.8 423.656,1277.09 427.591,1266.95 431.525,1256.47 435.459,1245.7 439.393,1234.72 443.327,1223.58 447.262,1212.35 451.196,1201.07 455.13,1189.79 459.064,1178.55 462.998,1167.37 466.932,1156.29 470.867,1145.31 474.801,1134.43 478.735,1123.66 482.669,1112.98 486.603,1102.36 490.538,1091.78 494.472,1081.2 498.406,1070.6 502.34,1059.91 506.274,1049.11 510.208,1038.15 514.143,1027 518.077,1015.61 522.011,1003.97 525.945,992.059 529.879,979.867 533.813,967.397 537.748,954.659 541.682,941.673 545.616,928.466 549.55,915.072 553.484,901.528 557.419,887.871 561.353,874.141 565.287,860.371 569.221,846.591 573.155,832.825 577.089,819.087 581.024,805.384 584.958,791.715 588.892,778.071 592.826,764.434 596.76,750.783 600.695,737.092 604.629,723.331 608.563,709.473 612.497,695.49 616.431,681.356 620.365,667.05 624.3,652.556 628.234,637.861 632.168,622.96 636.102,607.851 640.036,592.538 643.97,577.029 647.905,561.336 651.839,545.475 655.773,529.465 659.707,513.327 663.641,497.088 667.576,480.775 671.51,464.42 675.444,448.058 679.378,431.729 683.312,415.477 687.246,399.348 691.181,383.394 695.115,367.673 699.049,352.243 702.983,337.168 706.917,322.512 710.851,308.343 714.786,294.727 718.72,281.729 722.654,269.412 726.588,257.835 730.522,247.052 734.457,237.111 738.391,228.051 742.325,219.906 746.259,212.697 750.193,206.439 754.127,201.138 758.062,196.789 761.996,193.38 765.93,190.889 769.864,189.291 773.798,188.553 777.733,188.635 781.667,189.499 785.601,191.101 789.535,193.401 793.469,196.358 797.403,199.935 801.338,204.101 805.272,208.829 809.206,214.1 813.14,219.9 817.074,226.226 821.008,233.079 824.943,240.468 828.877,248.408 832.811,256.916 836.745,266.016 840.679,275.73 844.614,286.082 848.548,297.093 852.482,308.781 856.416,321.158 860.35,334.231 864.284,348 868.219,362.455 872.153,377.577 876.087,393.34 880.021,409.706 883.955,426.633 887.89,444.065 891.824,461.945 895.758,480.205 899.692,498.776 903.626,517.584 907.56,536.556 911.495,555.617 915.429,574.695 919.363,593.72 923.297,612.628 927.231,631.36 931.165,649.866 935.1,668.1 939.034,686.028 942.968,703.623 946.902,720.866 950.836,737.746 954.771,754.259 958.705,770.407 962.639,786.197 966.573,801.637 970.507,816.739 974.441,831.511 978.376,845.961 982.31,860.092 986.244,873.905 990.178,887.391 994.112,900.539 998.046,913.33 1001.98,925.739 1005.91,937.737 1009.85,949.291 1013.78,960.367 1017.72,970.928 1021.65,980.939 1025.59,990.369 1029.52,999.19 1033.45,1007.38 1037.39,1014.92 1041.32,1021.81 1045.26,1028.05 1049.19,1033.64 1053.12,1038.62 1057.06,1042.99 1060.99,1046.8 1064.93,1050.08 1068.86,1052.86 1072.8,1055.2 1076.73,1057.12 1080.66,1058.66 1084.6,1059.86 1088.53,1060.74 1092.47,1061.33 1096.4,1061.62 1100.34,1061.64 1104.27,1061.4 1108.2,1060.88 1112.14,1060.09 1116.07,1059.03 1120.01,1057.69 1123.94,1056.09 1127.87,1054.23 1131.81,1052.12 1135.74,1049.78 1139.68,1047.23 1143.61,1044.49 1147.55,1041.6 1151.48,1038.6 1155.41,1035.51 1159.35,1032.37 1163.28,1029.21 1167.22,1026.07 1171.15,1022.97 1175.08,1019.94 1179.02,1016.97 1182.95,1014.1 1186.89,1011.31 1190.82,1008.6 1194.76,1005.96 1198.69,1003.39 1202.62,1000.86 1206.56,998.349 1210.49,995.841 1214.43,993.315 1218.36,990.752 1222.29,988.136 1226.23,985.457 1230.16,982.709 1234.1,979.895 1238.03,977.021 1241.97,974.104 1245.9,971.166 1249.83,968.235 1253.77,965.344 1257.7,962.53 1261.64,959.833 1265.57,957.291 1269.5,954.94 1273.44,952.813 1277.37,950.934 1281.31,949.323 1285.24,947.987 1289.18,946.925 1293.11,946.125 1297.04,945.566 1300.98,945.215 1304.91,945.033 1308.85,944.973 1312.78,944.984 1316.71,945.011 1320.65,944.998 1324.58,944.891 1328.52,944.64 1332.45,944.197 1336.39,943.525 1340.32,942.59 1344.25,941.368 1348.19,939.844 1352.12,938.01 1356.06,935.868 1359.99,933.425 1363.93,930.697 1367.86,927.705 1371.79,924.474 1375.73,921.035 1379.66,917.42 1383.6,913.663 1387.53,909.801 1391.46,905.87 1395.4,901.903 1399.33,897.933 1403.27,893.99 1407.2,890.098 1411.14,886.277 1415.07,882.537 1419,878.884 1422.94,875.314 1426.87,871.815 1430.81,868.364 1434.74,864.931 1438.67,861.481 1442.61,857.968 1446.54,854.346 1450.48,850.563 1454.41,846.569 1458.35,842.315 1462.28,837.756 1466.21,832.854 1470.15,827.578 1474.08,821.908 1478.02,815.834 1481.95,809.359 1485.88,802.496 1489.82,795.27 1493.75,787.717 1497.69,779.883 1501.62,771.824 1505.56,763.6 1509.49,755.28 1513.42,746.935 1517.36,738.64 1521.29,730.469 1525.23,722.497 1529.16,714.797 1533.09,707.439 1537.03,700.492 1540.96,694.018 1544.9,688.075 1548.83,682.715 1552.77,677.985 1556.7,673.926 1560.63,670.57 1564.57,667.946 1568.5,666.072 1572.44,664.96 1576.37,664.616 1580.3,665.039 1584.24,666.221 1588.17,668.147 1592.11,670.8 1596.04,674.154 1599.98,678.182 1603.91,682.851 1607.84,688.128 1611.78,693.974 1615.71,700.352 1619.65,707.224 1623.58,714.549 1627.52,722.291 1631.45,730.414 1635.38,738.887 1639.32,747.68 1643.25,756.772 1647.19,766.146 1651.12,775.792 1655.05,785.708 1658.99,795.899 1662.92,806.378 1666.86,817.166 1670.79,828.286 1674.73,839.771 1678.66,851.654 1682.59,863.971 1686.53,876.756 1690.46,890.041 1694.4,903.853 1698.33,918.213 1702.26,933.133 1706.2,948.614 1710.13,964.649 1714.07,981.217 1718,998.286 1721.94,1015.81 1725.87,1033.75 1729.8,1052.02 1733.74,1070.57 1737.67,1089.3 1741.61,1108.14 1745.54,1127 1749.47,1145.78 1753.41,1164.39 1757.34,1182.74 1761.28,1200.73 1765.21,1218.27 1769.15,1235.28 1773.08,1251.66 1777.01,1267.34 1780.95,1282.23 1784.88,1296.27 1788.82,1309.39 1792.75,1321.53 1796.68,1332.63 1800.62,1342.64 1804.55,1351.52 1808.49,1359.24 1812.42,1365.75 1816.36,1371.05 1820.29,1375.1 1824.22,1377.9 1828.16,1379.44 1832.09,1379.71 1836.03,1378.72 1839.96,1376.48 1843.89,1373 1847.83,1368.29 1851.76,1362.37 1855.7,1355.28 1859.63,1347.04 1863.57,1337.69 1867.5,1327.26 1871.43,1315.81 1875.37,1303.38 1879.3,1290.02 1883.24,1275.8 1887.17,1260.78 1891.1,1245.01 1895.04,1228.57 1898.97,1211.53 1902.91,1193.94 1906.84,1175.89 1910.78,1157.44 1914.71,1138.64 1918.64,1119.57 1922.58,1100.27 1926.51,1080.8 1930.45,1061.2 1934.38,1041.52 1938.32,1021.79 1942.25,1002.04 1946.18,982.29 1950.12,962.563 1954.05,942.875 1957.99,923.239 1961.92,903.668 1965.85,884.175 1969.79,864.776 1973.72,845.489 1977.66,826.341 1981.59,807.361 1985.53,788.588 1989.46,770.068 1993.39,751.856 1997.33,734.013 2001.26,716.609 2005.2,699.718 2009.13,683.421 2013.06,667.8 2017,652.939 2020.93,638.921 2024.87,625.827 2028.8,613.733 2032.74,602.711 2036.67,592.826 2040.6,584.134 2044.54,576.685 2048.47,570.517 2052.41,565.663 2056.34,562.146 2060.27,559.98 2064.21,559.171 2068.14,559.72 2072.08,561.619 2076.01,564.853 2079.95,569.403 2083.88,575.241 2087.81,582.336 2091.75,590.649 2095.68,600.135 2099.62,610.742 2103.55,622.413 2107.48,635.083 2111.42,648.679 2115.35,663.125 2119.29,678.336 2123.22,694.223 2127.16,710.694 2131.09,727.655 2135.02,745.009 2138.96,762.662 2142.89,780.523 2146.83,798.506 2150.76,816.532 2154.69,834.528 2158.63,852.433 2162.56,870.192 2166.5,887.762 2170.43,905.111 2174.37,922.215 2178.3,939.059 2182.23,955.634 2186.17,971.941 2190.1,987.983 2194.04,1003.77 2197.97,1019.31 2201.91,1034.61 2205.84,1049.68 2209.77,1064.54 2213.71,1079.18 2217.64,1093.61 2221.58,1107.82 2225.51,1121.8 2229.44,1135.54 2233.38,1149.01 2237.31,1162.19 2241.25,1175.03 2245.18,1187.51 2249.12,1199.58 2253.05,1211.2 2256.98,1222.32 2260.92,1232.9 2264.85,1242.89 2268.79,1252.26 2272.72,1260.98 2276.65,1269.03 2280.59,1276.41 2284.52,1283.1 2288.46,1289.13 2292.39,1294.52 "/>
<polyline clip-path="url(#clip511)" style="stroke:#c271d2; stroke-linecap:round; stroke-linejoin:round; stroke-width:4; stroke-opacity:1; fill:none" points="282.026,1292.59 285.96,1296.9 289.894,1300.92 293.829,1304.69 297.763,1308.25 301.697,1311.63 305.631,1314.88 309.565,1318 313.5,1321.02 317.434,1323.94 321.368,1326.76 325.302,1329.47 329.236,1332.06 333.17,1334.5 337.105,1336.76 341.039,1338.8 344.973,1340.6 348.907,1342.09 352.841,1343.24 356.775,1344.01 360.71,1344.34 364.644,1344.2 368.578,1343.56 372.512,1342.36 376.446,1340.6 380.381,1338.23 384.315,1335.26 388.249,1331.67 392.183,1327.45 396.117,1322.61 400.051,1317.17 403.986,1311.14 407.92,1304.53 411.854,1297.39 415.788,1289.73 419.722,1281.6 423.656,1273.02 427.591,1264.05 431.525,1254.71 435.459,1245.05 439.393,1235.11 443.327,1224.93 447.262,1214.55 451.196,1203.99 455.13,1193.31 459.064,1182.52 462.998,1171.66 466.932,1160.75 470.867,1149.82 474.801,1138.88 478.735,1127.94 482.669,1117.02 486.603,1106.11 490.538,1095.21 494.472,1084.32 498.406,1073.43 502.34,1062.52 506.274,1051.56 510.208,1040.55 514.143,1029.44 518.077,1018.22 522.011,1006.85 525.945,995.313 529.879,983.582 533.813,971.637 537.748,959.464 541.682,947.055 545.616,934.408 549.55,921.53 553.484,908.434 557.419,895.143 561.353,881.685 565.287,868.094 569.221,854.407 573.155,840.663 577.089,826.9 581.024,813.155 584.958,799.457 588.892,785.829 592.826,772.286 596.76,758.831 600.695,745.456 604.629,732.142 608.563,718.859 612.497,705.57 616.431,692.227 620.365,678.778 624.3,665.169 628.234,651.345 632.168,637.252 636.102,622.841 640.036,608.07 643.97,592.903 647.905,577.312 651.839,561.279 655.773,544.795 659.707,527.86 663.641,510.483 667.576,492.683 671.51,474.487 675.444,455.932 679.378,437.066 683.312,417.948 687.246,398.647 691.181,379.248 695.115,359.846 699.049,340.549 702.983,321.481 706.917,302.773 710.851,284.567 714.786,267.014 718.72,250.264 722.654,234.469 726.588,219.775 730.522,206.317 734.457,194.216 738.391,183.573 742.325,174.468 746.259,166.951 750.193,161.048 754.127,156.752 758.062,154.029 761.996,152.817 765.93,153.03 769.864,154.56 773.798,157.282 777.733,161.061 781.667,165.757 785.601,171.229 789.535,177.345 793.469,183.985 797.403,191.046 801.338,198.445 805.272,206.127 809.206,214.056 813.14,222.223 817.074,230.642 821.008,239.343 824.943,248.373 828.877,257.79 832.811,267.653 836.745,278.024 840.679,288.96 844.614,300.51 848.548,312.707 852.482,325.575 856.416,339.118 860.35,353.326 864.284,368.171 868.219,383.615 872.153,399.602 876.087,416.07 880.021,432.95 883.955,450.167 887.89,467.645 891.824,485.312 895.758,503.097 899.692,520.936 903.626,538.774 907.56,556.561 911.495,574.261 915.429,591.843 919.363,609.288 923.297,626.585 927.231,643.727 931.165,660.717 935.1,677.558 939.034,694.258 942.968,710.824 946.902,727.261 950.836,743.571 954.771,759.752 958.705,775.796 962.639,791.689 966.573,807.412 970.507,822.937 974.441,838.232 978.376,853.261 982.31,867.982 986.244,882.35 990.178,896.321 994.112,909.847 998.046,922.883 1001.98,935.388 1005.91,947.321 1009.85,958.648 1013.78,969.339 1017.72,979.372 1021.65,988.73 1025.59,997.404 1029.52,1005.39 1033.45,1012.69 1037.39,1019.32 1041.32,1025.3 1045.26,1030.64 1049.19,1035.37 1053.12,1039.52 1057.06,1043.12 1060.99,1046.2 1064.93,1048.8 1068.86,1050.94 1072.8,1052.65 1076.73,1053.95 1080.66,1054.88 1084.6,1055.45 1088.53,1055.69 1092.47,1055.59 1096.4,1055.19 1100.34,1054.49 1104.27,1053.49 1108.2,1052.22 1112.14,1050.69 1116.07,1048.9 1120.01,1046.86 1123.94,1044.61 1127.87,1042.15 1131.81,1039.5 1135.74,1036.7 1139.68,1033.76 1143.61,1030.72 1147.55,1027.61 1151.48,1024.44 1155.41,1021.26 1159.35,1018.1 1163.28,1014.97 1167.22,1011.91 1171.15,1008.93 1175.08,1006.05 1179.02,1003.29 1182.95,1000.65 1186.89,998.136 1190.82,995.75 1194.76,993.487 1198.69,991.338 1202.62,989.291 1206.56,987.334 1210.49,985.449 1214.43,983.619 1218.36,981.827 1222.29,980.055 1226.23,978.288 1230.16,976.511 1234.1,974.713 1238.03,972.887 1241.97,971.028 1245.9,969.138 1249.83,967.22 1253.77,965.285 1257.7,963.344 1261.64,961.414 1265.57,959.516 1269.5,957.669 1273.44,955.897 1277.37,954.221 1281.31,952.662 1285.24,951.238 1289.18,949.962 1293.11,948.845 1297.04,947.891 1300.98,947.098 1304.91,946.459 1308.85,945.958 1312.78,945.575 1316.71,945.284 1320.65,945.055 1324.58,944.852 1328.52,944.638 1332.45,944.373 1336.39,944.018 1340.32,943.533 1344.25,942.883 1348.19,942.032 1352.12,940.952 1356.06,939.618 1359.99,938.011 1363.93,936.12 1367.86,933.936 1371.79,931.46 1375.73,928.698 1379.66,925.66 1383.6,922.364 1387.53,918.829 1391.46,915.082 1395.4,911.151 1399.33,907.067 1403.27,902.863 1407.2,898.572 1411.14,894.231 1415.07,889.872 1419,885.527 1422.94,881.226 1426.87,876.994 1430.81,872.852 1434.74,868.811 1438.67,864.879 1442.61,861.052 1446.54,857.316 1450.48,853.649 1454.41,850.017 1458.35,846.379 1462.28,842.682 1466.21,838.868 1470.15,834.874 1474.08,830.632 1478.02,826.078 1481.95,821.147 1485.88,815.783 1489.82,809.937 1493.75,803.574 1497.69,796.67 1501.62,789.221 1505.56,781.237 1509.49,772.747 1513.42,763.799 1517.36,754.458 1521.29,744.805 1525.23,734.936 1529.16,724.961 1533.09,714.999 1537.03,705.178 1540.96,695.63 1544.9,686.489 1548.83,677.891 1552.77,669.967 1556.7,662.842 1560.63,656.635 1564.57,651.452 1568.5,647.388 1572.44,644.521 1576.37,642.913 1580.3,642.608 1584.24,643.629 1588.17,645.981 1592.11,649.645 1596.04,654.586 1599.98,660.746 1603.91,668.052 1607.84,676.415 1611.78,685.733 1615.71,695.892 1619.65,706.772 1623.58,718.246 1627.52,730.187 1631.45,742.466 1635.38,754.96 1639.32,767.555 1643.25,780.144 1647.19,792.636 1651.12,804.958 1655.05,817.053 1658.99,828.889 1662.92,840.455 1666.86,851.762 1670.79,862.846 1674.73,873.76 1678.66,884.579 1682.59,895.387 1686.53,906.282 1690.46,917.363 1694.4,928.729 1698.33,940.473 1702.26,952.679 1706.2,965.414 1710.13,978.728 1714.07,992.652 1718,1007.19 1721.94,1022.34 1725.87,1038.06 1729.8,1054.3 1733.74,1070.99 1737.67,1088.05 1741.61,1105.38 1745.54,1122.88 1749.47,1140.44 1753.41,1157.95 1757.34,1175.27 1761.28,1192.32 1765.21,1208.96 1769.15,1225.08 1773.08,1240.59 1777.01,1255.38 1780.95,1269.36 1784.88,1282.45 1788.82,1294.56 1792.75,1305.62 1796.68,1315.58 1800.62,1324.38 1804.55,1331.98 1808.49,1338.34 1812.42,1343.44 1816.36,1347.26 1820.29,1349.79 1824.22,1351.02 1828.16,1350.97 1832.09,1349.64 1836.03,1347.06 1839.96,1343.25 1843.89,1338.24 1847.83,1332.07 1851.76,1324.79 1855.7,1316.44 1859.63,1307.08 1863.57,1296.77 1867.5,1285.58 1871.43,1273.56 1875.37,1260.81 1879.3,1247.38 1883.24,1233.38 1887.17,1218.87 1891.1,1203.94 1895.04,1188.67 1898.97,1173.15 1902.91,1157.45 1906.84,1141.64 1910.78,1125.78 1914.71,1109.94 1918.64,1094.16 1922.58,1078.46 1926.51,1062.88 1930.45,1047.41 1934.38,1032.05 1938.32,1016.76 1942.25,1001.52 1946.18,986.26 1950.12,970.927 1954.05,955.445 1957.99,939.735 1961.92,923.718 1965.85,907.319 1969.79,890.471 1973.72,873.121 1977.66,855.235 1981.59,836.805 1985.53,817.848 1989.46,798.414 1993.39,778.58 1997.33,758.459 2001.26,738.187 2005.2,717.93 2009.13,697.871 2013.06,678.208 2017,659.148 2020.93,640.898 2024.87,623.662 2028.8,607.632 2032.74,592.987 2036.67,579.886 2040.6,568.465 2044.54,558.841 2048.47,551.102 2052.41,545.315 2056.34,541.523 2060.27,539.744 2064.21,539.975 2068.14,542.192 2072.08,546.349 2076.01,552.379 2079.95,560.197 2083.88,569.697 2087.81,580.756 2091.75,593.236 2095.68,606.984 2099.62,621.835 2103.55,637.62 2107.48,654.165 2111.42,671.297 2115.35,688.851 2119.29,706.672 2123.22,724.621 2127.16,742.574 2131.09,760.428 2135.02,778.103 2138.96,795.538 2142.89,812.693 2146.83,829.545 2150.76,846.091 2154.69,862.338 2158.63,878.307 2162.56,894.024 2166.5,909.523 2170.43,924.839 2174.37,940.005 2178.3,955.054 2182.23,970.014 2186.17,984.906 2190.1,999.745 2194.04,1014.54 2197.97,1029.28 2201.91,1043.97 2205.84,1058.57 2209.77,1073.08 2213.71,1087.45 2217.64,1101.65 2221.58,1115.63 2225.51,1129.35 2229.44,1142.75 2233.38,1155.79 2237.31,1168.43 2241.25,1180.61 2245.18,1192.29 2249.12,1203.44 2253.05,1214.03 2256.98,1224.03 2260.92,1233.43 2264.85,1242.22 2268.79,1250.4 2272.72,1257.99 2276.65,1265.01 2280.59,1271.47 2284.52,1277.42 2288.46,1282.9 2292.39,1287.94 "/>
<path clip-path="url(#clip510)" d="M1648.26 409.292 L2281.66 409.292 L2281.66 150.092 L1648.26 150.092  Z" fill="#ffffff" fill-rule="evenodd" fill-opacity="1"/>
<polyline clip-path="url(#clip510)" style="stroke:#000000; stroke-linecap:round; stroke-linejoin:round; stroke-width:4; stroke-opacity:1; fill:none" points="1648.26,409.292 2281.66,409.292 2281.66,150.092 1648.26,150.092 1648.26,409.292 "/>
<polyline clip-path="url(#clip510)" style="stroke:#009af9; stroke-linecap:round; stroke-linejoin:round; stroke-width:4; stroke-opacity:1; fill:none" points="1671.96,201.932 1814.15,201.932 "/>
<path clip-path="url(#clip510)" d="M1837.85 193.286 L1842.11 193.286 L1847.43 213.517 L1852.73 193.286 L1857.75 193.286 L1863.08 213.517 L1868.38 193.286 L1872.64 193.286 L1865.86 219.212 L1860.83 219.212 L1855.25 197.962 L1849.65 219.212 L1844.63 219.212 L1837.85 193.286 Z" fill="#000000" fill-rule="nonzero" fill-opacity="1" /><path clip-path="url(#clip510)" d="M1890.88 206.179 Q1885.72 206.179 1883.73 207.36 Q1881.74 208.54 1881.74 211.388 Q1881.74 213.656 1883.22 214.999 Q1884.72 216.318 1887.29 216.318 Q1890.83 216.318 1892.96 213.818 Q1895.12 211.295 1895.12 207.128 L1895.12 206.179 L1890.88 206.179 M1899.37 204.42 L1899.37 219.212 L1895.12 219.212 L1895.12 215.277 Q1893.66 217.638 1891.48 218.772 Q1889.31 219.883 1886.16 219.883 Q1882.18 219.883 1879.81 217.661 Q1877.48 215.415 1877.48 211.665 Q1877.48 207.29 1880.39 205.068 Q1883.33 202.846 1889.14 202.846 L1895.12 202.846 L1895.12 202.429 Q1895.12 199.49 1893.17 197.892 Q1891.25 196.272 1887.75 196.272 Q1885.53 196.272 1883.43 196.804 Q1881.32 197.337 1879.37 198.402 L1879.37 194.466 Q1881.71 193.564 1883.91 193.124 Q1886.11 192.661 1888.19 192.661 Q1893.82 192.661 1896.6 195.578 Q1899.37 198.494 1899.37 204.42 Z" fill="#000000" fill-rule="nonzero" fill-opacity="1" /><path clip-path="url(#clip510)" d="M1912.36 185.925 L1912.36 193.286 L1921.13 193.286 L1921.13 196.596 L1912.36 196.596 L1912.36 210.67 Q1912.36 213.841 1913.22 214.744 Q1914.1 215.647 1916.76 215.647 L1921.13 215.647 L1921.13 219.212 L1916.76 219.212 Q1911.83 219.212 1909.95 217.383 Q1908.08 215.531 1908.08 210.67 L1908.08 196.596 L1904.95 196.596 L1904.95 193.286 L1908.08 193.286 L1908.08 185.925 L1912.36 185.925 Z" fill="#000000" fill-rule="nonzero" fill-opacity="1" /><path clip-path="url(#clip510)" d="M1948.91 205.184 L1948.91 207.267 L1929.33 207.267 Q1929.61 211.665 1931.97 213.98 Q1934.35 216.272 1938.59 216.272 Q1941.04 216.272 1943.33 215.67 Q1945.65 215.068 1947.92 213.865 L1947.92 217.892 Q1945.62 218.864 1943.22 219.374 Q1940.81 219.883 1938.33 219.883 Q1932.13 219.883 1928.49 216.272 Q1924.88 212.661 1924.88 206.503 Q1924.88 200.138 1928.31 196.411 Q1931.76 192.661 1937.59 192.661 Q1942.82 192.661 1945.86 196.041 Q1948.91 199.397 1948.91 205.184 M1944.65 203.934 Q1944.61 200.439 1942.68 198.355 Q1940.79 196.272 1937.64 196.272 Q1934.07 196.272 1931.92 198.286 Q1929.79 200.3 1929.47 203.957 L1944.65 203.934 Z" fill="#000000" fill-rule="nonzero" fill-opacity="1" /><path clip-path="url(#clip510)" d="M1970.93 197.267 Q1970.21 196.851 1969.35 196.666 Q1968.52 196.457 1967.5 196.457 Q1963.89 196.457 1961.94 198.818 Q1960.02 201.156 1960.02 205.554 L1960.02 219.212 L1955.74 219.212 L1955.74 193.286 L1960.02 193.286 L1960.02 197.314 Q1961.37 194.953 1963.52 193.818 Q1965.67 192.661 1968.75 192.661 Q1969.19 192.661 1969.72 192.73 Q1970.25 192.777 1970.9 192.892 L1970.93 197.267 Z" fill="#000000" fill-rule="nonzero" fill-opacity="1" /><path clip-path="url(#clip510)" d="M1987.99 193.286 L1992.24 193.286 L1997.57 213.517 L2002.87 193.286 L2007.89 193.286 L2013.22 213.517 L2018.52 193.286 L2022.78 193.286 L2015.99 219.212 L2010.97 219.212 L2005.39 197.962 L1999.79 219.212 L1994.77 219.212 L1987.99 193.286 Z" fill="#000000" fill-rule="nonzero" fill-opacity="1" /><path clip-path="url(#clip510)" d="M2041.02 206.179 Q2035.86 206.179 2033.86 207.36 Q2031.87 208.54 2031.87 211.388 Q2031.87 213.656 2033.36 214.999 Q2034.86 216.318 2037.43 216.318 Q2040.97 216.318 2043.1 213.818 Q2045.25 211.295 2045.25 207.128 L2045.25 206.179 L2041.02 206.179 M2049.51 204.42 L2049.51 219.212 L2045.25 219.212 L2045.25 215.277 Q2043.8 217.638 2041.62 218.772 Q2039.44 219.883 2036.3 219.883 Q2032.31 219.883 2029.95 217.661 Q2027.61 215.415 2027.61 211.665 Q2027.61 207.29 2030.53 205.068 Q2033.47 202.846 2039.28 202.846 L2045.25 202.846 L2045.25 202.429 Q2045.25 199.49 2043.31 197.892 Q2041.39 196.272 2037.89 196.272 Q2035.67 196.272 2033.56 196.804 Q2031.46 197.337 2029.51 198.402 L2029.51 194.466 Q2031.85 193.564 2034.05 193.124 Q2036.25 192.661 2038.33 192.661 Q2043.96 192.661 2046.74 195.578 Q2049.51 198.494 2049.51 204.42 Z" fill="#000000" fill-rule="nonzero" fill-opacity="1" /><path clip-path="url(#clip510)" d="M2055.23 193.286 L2059.74 193.286 L2067.85 215.045 L2075.95 193.286 L2080.46 193.286 L2070.74 219.212 L2064.95 219.212 L2055.23 193.286 Z" fill="#000000" fill-rule="nonzero" fill-opacity="1" /><path clip-path="url(#clip510)" d="M2108.52 205.184 L2108.52 207.267 L2088.93 207.267 Q2089.21 211.665 2091.57 213.98 Q2093.96 216.272 2098.19 216.272 Q2100.65 216.272 2102.94 215.67 Q2105.25 215.068 2107.52 213.865 L2107.52 217.892 Q2105.23 218.864 2102.82 219.374 Q2100.42 219.883 2097.94 219.883 Q2091.73 219.883 2088.1 216.272 Q2084.49 212.661 2084.49 206.503 Q2084.49 200.138 2087.92 196.411 Q2091.36 192.661 2097.2 192.661 Q2102.43 192.661 2105.46 196.041 Q2108.52 199.397 2108.52 205.184 M2104.26 203.934 Q2104.21 200.439 2102.29 198.355 Q2100.39 196.272 2097.24 196.272 Q2093.68 196.272 2091.53 198.286 Q2089.4 200.3 2089.07 203.957 L2104.26 203.934 Z" fill="#000000" fill-rule="nonzero" fill-opacity="1" /><path clip-path="url(#clip510)" d="M2132.04 194.05 L2132.04 198.078 Q2130.23 197.152 2128.29 196.689 Q2126.34 196.226 2124.26 196.226 Q2121.09 196.226 2119.49 197.198 Q2117.92 198.17 2117.92 200.115 Q2117.92 201.596 2119.05 202.453 Q2120.18 203.286 2123.61 204.05 L2125.07 204.374 Q2129.61 205.346 2131.5 207.128 Q2133.42 208.888 2133.42 212.059 Q2133.42 215.67 2130.55 217.777 Q2127.71 219.883 2122.71 219.883 Q2120.62 219.883 2118.36 219.466 Q2116.11 219.073 2113.61 218.263 L2113.61 213.865 Q2115.97 215.091 2118.26 215.716 Q2120.55 216.318 2122.8 216.318 Q2125.81 216.318 2127.43 215.3 Q2129.05 214.258 2129.05 212.383 Q2129.05 210.647 2127.87 209.721 Q2126.71 208.795 2122.75 207.939 L2121.27 207.591 Q2117.31 206.758 2115.55 205.045 Q2113.79 203.309 2113.79 200.3 Q2113.79 196.642 2116.39 194.652 Q2118.98 192.661 2123.75 192.661 Q2126.11 192.661 2128.19 193.008 Q2130.28 193.355 2132.04 194.05 Z" fill="#000000" fill-rule="nonzero" fill-opacity="1" /><polyline clip-path="url(#clip510)" style="stroke:#e26f46; stroke-linecap:round; stroke-linejoin:round; stroke-width:4; stroke-opacity:1; fill:none" points="1671.96,253.772 1814.15,253.772 "/>
<path clip-path="url(#clip510)" d="M1863.4 266.121 L1863.4 256.839 L1855.76 256.839 L1855.76 252.996 L1868.03 252.996 L1868.03 267.834 Q1865.32 269.755 1862.06 270.751 Q1858.8 271.723 1855.09 271.723 Q1846.99 271.723 1842.41 267.001 Q1837.85 262.255 1837.85 253.806 Q1837.85 245.334 1842.41 240.612 Q1846.99 235.867 1855.09 235.867 Q1858.47 235.867 1861.5 236.7 Q1864.56 237.533 1867.13 239.154 L1867.13 244.131 Q1864.54 241.932 1861.62 240.82 Q1858.7 239.709 1855.49 239.709 Q1849.14 239.709 1845.95 243.251 Q1842.78 246.793 1842.78 253.806 Q1842.78 260.797 1845.95 264.339 Q1849.14 267.88 1855.49 267.88 Q1857.96 267.88 1859.91 267.464 Q1861.85 267.024 1863.4 266.121 Z" fill="#000000" fill-rule="nonzero" fill-opacity="1" /><path clip-path="url(#clip510)" d="M1891.41 249.107 Q1890.69 248.691 1889.84 248.506 Q1889 248.297 1887.99 248.297 Q1884.37 248.297 1882.43 250.658 Q1880.51 252.996 1880.51 257.394 L1880.51 271.052 L1876.23 271.052 L1876.23 245.126 L1880.51 245.126 L1880.51 249.154 Q1881.85 246.793 1884 245.658 Q1886.16 244.501 1889.24 244.501 Q1889.68 244.501 1890.21 244.57 Q1890.74 244.617 1891.39 244.732 L1891.41 249.107 Z" fill="#000000" fill-rule="nonzero" fill-opacity="1" /><path clip-path="url(#clip510)" d="M1917.01 257.024 L1917.01 259.107 L1897.43 259.107 Q1897.71 263.505 1900.07 265.82 Q1902.45 268.112 1906.69 268.112 Q1909.14 268.112 1911.43 267.51 Q1913.75 266.908 1916.02 265.705 L1916.02 269.732 Q1913.73 270.704 1911.32 271.214 Q1908.91 271.723 1906.43 271.723 Q1900.23 271.723 1896.6 268.112 Q1892.99 264.501 1892.99 258.343 Q1892.99 251.978 1896.41 248.251 Q1899.86 244.501 1905.69 244.501 Q1910.93 244.501 1913.96 247.881 Q1917.01 251.237 1917.01 257.024 M1912.75 255.774 Q1912.71 252.279 1910.79 250.195 Q1908.89 248.112 1905.74 248.112 Q1902.18 248.112 1900.02 250.126 Q1897.89 252.14 1897.57 255.797 L1912.75 255.774 Z" fill="#000000" fill-rule="nonzero" fill-opacity="1" /><path clip-path="url(#clip510)" d="M1946.18 257.024 L1946.18 259.107 L1926.6 259.107 Q1926.87 263.505 1929.24 265.82 Q1931.62 268.112 1935.86 268.112 Q1938.31 268.112 1940.6 267.51 Q1942.92 266.908 1945.18 265.705 L1945.18 269.732 Q1942.89 270.704 1940.49 271.214 Q1938.08 271.723 1935.6 271.723 Q1929.4 271.723 1925.76 268.112 Q1922.15 264.501 1922.15 258.343 Q1922.15 251.978 1925.58 248.251 Q1929.03 244.501 1934.86 244.501 Q1940.09 244.501 1943.12 247.881 Q1946.18 251.237 1946.18 257.024 M1941.92 255.774 Q1941.87 252.279 1939.95 250.195 Q1938.06 248.112 1934.91 248.112 Q1931.34 248.112 1929.19 250.126 Q1927.06 252.14 1926.74 255.797 L1941.92 255.774 Z" fill="#000000" fill-rule="nonzero" fill-opacity="1" /><path clip-path="url(#clip510)" d="M1974.72 255.404 L1974.72 271.052 L1970.46 271.052 L1970.46 255.543 Q1970.46 251.862 1969.03 250.033 Q1967.59 248.205 1964.72 248.205 Q1961.27 248.205 1959.28 250.404 Q1957.29 252.603 1957.29 256.399 L1957.29 271.052 L1953.01 271.052 L1953.01 245.126 L1957.29 245.126 L1957.29 249.154 Q1958.82 246.816 1960.88 245.658 Q1962.96 244.501 1965.67 244.501 Q1970.14 244.501 1972.43 247.279 Q1974.72 250.033 1974.72 255.404 Z" fill="#000000" fill-rule="nonzero" fill-opacity="1" /><path clip-path="url(#clip510)" d="M1981.06 256.168 L1993.54 256.168 L1993.54 259.964 L1981.06 259.964 L1981.06 256.168 Z" fill="#000000" fill-rule="nonzero" fill-opacity="1" /><path clip-path="url(#clip510)" d="M2000.51 236.492 L2006.8 236.492 L2022.13 265.404 L2022.13 236.492 L2026.67 236.492 L2026.67 271.052 L2020.37 271.052 L2005.05 242.14 L2005.05 271.052 L2000.51 271.052 L2000.51 236.492 Z" fill="#000000" fill-rule="nonzero" fill-opacity="1" /><path clip-path="url(#clip510)" d="M2047.57 258.019 Q2042.41 258.019 2040.42 259.2 Q2038.42 260.38 2038.42 263.228 Q2038.42 265.496 2039.91 266.839 Q2041.41 268.158 2043.98 268.158 Q2047.52 268.158 2049.65 265.658 Q2051.8 263.135 2051.8 258.968 L2051.8 258.019 L2047.57 258.019 M2056.06 256.26 L2056.06 271.052 L2051.8 271.052 L2051.8 267.117 Q2050.35 269.478 2048.17 270.612 Q2045.99 271.723 2042.85 271.723 Q2038.86 271.723 2036.5 269.501 Q2034.17 267.255 2034.17 263.505 Q2034.17 259.13 2037.08 256.908 Q2040.02 254.686 2045.83 254.686 L2051.8 254.686 L2051.8 254.269 Q2051.8 251.33 2049.86 249.732 Q2047.94 248.112 2044.44 248.112 Q2042.22 248.112 2040.11 248.644 Q2038.01 249.177 2036.06 250.242 L2036.06 246.306 Q2038.4 245.404 2040.6 244.964 Q2042.8 244.501 2044.88 244.501 Q2050.51 244.501 2053.29 247.418 Q2056.06 250.334 2056.06 256.26 Z" fill="#000000" fill-rule="nonzero" fill-opacity="1" /><path clip-path="url(#clip510)" d="M2081.9 257.788 Q2081.9 253.158 2079.98 250.612 Q2078.08 248.066 2074.63 248.066 Q2071.2 248.066 2069.28 250.612 Q2067.38 253.158 2067.38 257.788 Q2067.38 262.394 2069.28 264.941 Q2071.2 267.487 2074.63 267.487 Q2078.08 267.487 2079.98 264.941 Q2081.9 262.394 2081.9 257.788 M2086.16 267.834 Q2086.16 274.454 2083.22 277.672 Q2080.28 280.913 2074.21 280.913 Q2071.97 280.913 2069.98 280.566 Q2067.98 280.241 2066.11 279.547 L2066.11 275.404 Q2067.98 276.422 2069.81 276.908 Q2071.64 277.394 2073.54 277.394 Q2077.73 277.394 2079.81 275.195 Q2081.9 273.019 2081.9 268.598 L2081.9 266.492 Q2080.58 268.783 2078.52 269.917 Q2076.46 271.052 2073.59 271.052 Q2068.82 271.052 2065.9 267.417 Q2062.99 263.783 2062.99 257.788 Q2062.99 251.769 2065.9 248.135 Q2068.82 244.501 2073.59 244.501 Q2076.46 244.501 2078.52 245.635 Q2080.58 246.769 2081.9 249.061 L2081.9 245.126 L2086.16 245.126 L2086.16 267.834 Z" fill="#000000" fill-rule="nonzero" fill-opacity="1" /><path clip-path="url(#clip510)" d="M2116.48 255.404 L2116.48 271.052 L2112.22 271.052 L2112.22 255.543 Q2112.22 251.862 2110.79 250.033 Q2109.35 248.205 2106.48 248.205 Q2103.03 248.205 2101.04 250.404 Q2099.05 252.603 2099.05 256.399 L2099.05 271.052 L2094.77 271.052 L2094.77 235.033 L2099.05 235.033 L2099.05 249.154 Q2100.58 246.816 2102.64 245.658 Q2104.72 244.501 2107.43 244.501 Q2111.9 244.501 2114.19 247.279 Q2116.48 250.033 2116.48 255.404 Z" fill="#000000" fill-rule="nonzero" fill-opacity="1" /><path clip-path="url(#clip510)" d="M2142.04 249.061 L2142.04 235.033 L2146.29 235.033 L2146.29 271.052 L2142.04 271.052 L2142.04 267.163 Q2140.69 269.478 2138.63 270.612 Q2136.6 271.723 2133.73 271.723 Q2129.03 271.723 2126.06 267.973 Q2123.12 264.223 2123.12 258.112 Q2123.12 252.001 2126.06 248.251 Q2129.03 244.501 2133.73 244.501 Q2136.6 244.501 2138.63 245.635 Q2140.69 246.746 2142.04 249.061 M2127.52 258.112 Q2127.52 262.811 2129.44 265.496 Q2131.39 268.158 2134.77 268.158 Q2138.15 268.158 2140.09 265.496 Q2142.04 262.811 2142.04 258.112 Q2142.04 253.413 2140.09 250.751 Q2138.15 248.066 2134.77 248.066 Q2131.39 248.066 2129.44 250.751 Q2127.52 253.413 2127.52 258.112 Z" fill="#000000" fill-rule="nonzero" fill-opacity="1" /><path clip-path="url(#clip510)" d="M2155.07 245.126 L2159.33 245.126 L2159.33 271.052 L2155.07 271.052 L2155.07 245.126 M2155.07 235.033 L2159.33 235.033 L2159.33 240.427 L2155.07 240.427 L2155.07 235.033 Z" fill="#000000" fill-rule="nonzero" fill-opacity="1" /><polyline clip-path="url(#clip510)" style="stroke:#3da44d; stroke-linecap:round; stroke-linejoin:round; stroke-width:4; stroke-opacity:1; fill:none" points="1671.96,305.612 1814.15,305.612 "/>
<path clip-path="url(#clip510)" d="M1856.27 297.73 L1856.27 301.758 Q1854.47 300.832 1852.52 300.369 Q1850.58 299.906 1848.5 299.906 Q1845.32 299.906 1843.73 300.878 Q1842.15 301.85 1842.15 303.795 Q1842.15 305.276 1843.29 306.133 Q1844.42 306.966 1847.85 307.73 L1849.31 308.054 Q1853.84 309.026 1855.74 310.808 Q1857.66 312.568 1857.66 315.739 Q1857.66 319.35 1854.79 321.457 Q1851.94 323.563 1846.94 323.563 Q1844.86 323.563 1842.59 323.146 Q1840.35 322.753 1837.85 321.943 L1837.85 317.545 Q1840.21 318.771 1842.5 319.396 Q1844.79 319.998 1847.04 319.998 Q1850.05 319.998 1851.67 318.98 Q1853.29 317.938 1853.29 316.063 Q1853.29 314.327 1852.11 313.401 Q1850.95 312.475 1846.99 311.619 L1845.51 311.271 Q1841.55 310.438 1839.79 308.725 Q1838.03 306.989 1838.03 303.98 Q1838.03 300.322 1840.63 298.332 Q1843.22 296.341 1847.99 296.341 Q1850.35 296.341 1852.43 296.688 Q1854.51 297.035 1856.27 297.73 Z" fill="#000000" fill-rule="nonzero" fill-opacity="1" /><path clip-path="url(#clip510)" d="M1866.99 309.952 Q1866.99 314.651 1868.91 317.336 Q1870.86 319.998 1874.24 319.998 Q1877.62 319.998 1879.56 317.336 Q1881.5 314.651 1881.5 309.952 Q1881.5 305.253 1879.56 302.591 Q1877.62 299.906 1874.24 299.906 Q1870.86 299.906 1868.91 302.591 Q1866.99 305.253 1866.99 309.952 M1881.5 319.003 Q1880.16 321.318 1878.1 322.452 Q1876.06 323.563 1873.19 323.563 Q1868.5 323.563 1865.53 319.813 Q1862.59 316.063 1862.59 309.952 Q1862.59 303.841 1865.53 300.091 Q1868.5 296.341 1873.19 296.341 Q1876.06 296.341 1878.1 297.475 Q1880.16 298.586 1881.5 300.901 L1881.5 296.966 L1885.76 296.966 L1885.76 332.753 L1881.5 332.753 L1881.5 319.003 Z" fill="#000000" fill-rule="nonzero" fill-opacity="1" /><path clip-path="url(#clip510)" d="M1894.1 312.66 L1894.1 296.966 L1898.36 296.966 L1898.36 312.498 Q1898.36 316.179 1899.79 318.031 Q1901.23 319.859 1904.1 319.859 Q1907.55 319.859 1909.54 317.66 Q1911.55 315.461 1911.55 311.665 L1911.55 296.966 L1915.81 296.966 L1915.81 322.892 L1911.55 322.892 L1911.55 318.91 Q1910 321.271 1907.94 322.429 Q1905.9 323.563 1903.19 323.563 Q1898.73 323.563 1896.41 320.785 Q1894.1 318.007 1894.1 312.66 M1904.81 296.341 L1904.81 296.341 Z" fill="#000000" fill-rule="nonzero" fill-opacity="1" /><path clip-path="url(#clip510)" d="M1936.37 309.859 Q1931.2 309.859 1929.21 311.04 Q1927.22 312.22 1927.22 315.068 Q1927.22 317.336 1928.7 318.679 Q1930.21 319.998 1932.78 319.998 Q1936.32 319.998 1938.45 317.498 Q1940.6 314.975 1940.6 310.808 L1940.6 309.859 L1936.37 309.859 M1944.86 308.1 L1944.86 322.892 L1940.6 322.892 L1940.6 318.957 Q1939.14 321.318 1936.97 322.452 Q1934.79 323.563 1931.64 323.563 Q1927.66 323.563 1925.3 321.341 Q1922.96 319.095 1922.96 315.345 Q1922.96 310.97 1925.88 308.748 Q1928.82 306.526 1934.63 306.526 L1940.6 306.526 L1940.6 306.109 Q1940.6 303.17 1938.66 301.572 Q1936.74 299.952 1933.24 299.952 Q1931.02 299.952 1928.91 300.484 Q1926.81 301.017 1924.86 302.082 L1924.86 298.146 Q1927.2 297.244 1929.4 296.804 Q1931.6 296.341 1933.68 296.341 Q1939.31 296.341 1942.08 299.258 Q1944.86 302.174 1944.86 308.1 Z" fill="#000000" fill-rule="nonzero" fill-opacity="1" /><path clip-path="url(#clip510)" d="M1968.66 300.947 Q1967.94 300.531 1967.08 300.346 Q1966.25 300.137 1965.23 300.137 Q1961.62 300.137 1959.68 302.498 Q1957.75 304.836 1957.75 309.234 L1957.75 322.892 L1953.47 322.892 L1953.47 296.966 L1957.75 296.966 L1957.75 300.994 Q1959.1 298.633 1961.25 297.498 Q1963.4 296.341 1966.48 296.341 Q1966.92 296.341 1967.45 296.41 Q1967.99 296.457 1968.63 296.572 L1968.66 300.947 Z" fill="#000000" fill-rule="nonzero" fill-opacity="1" /><path clip-path="url(#clip510)" d="M1994.26 308.864 L1994.26 310.947 L1974.68 310.947 Q1974.95 315.345 1977.31 317.66 Q1979.7 319.952 1983.93 319.952 Q1986.39 319.952 1988.68 319.35 Q1990.99 318.748 1993.26 317.545 L1993.26 321.572 Q1990.97 322.544 1988.56 323.054 Q1986.16 323.563 1983.68 323.563 Q1977.48 323.563 1973.84 319.952 Q1970.23 316.341 1970.23 310.183 Q1970.23 303.818 1973.66 300.091 Q1977.11 296.341 1982.94 296.341 Q1988.17 296.341 1991.2 299.721 Q1994.26 303.077 1994.26 308.864 M1990 307.614 Q1989.95 304.119 1988.03 302.035 Q1986.13 299.952 1982.99 299.952 Q1979.42 299.952 1977.27 301.966 Q1975.14 303.98 1974.81 307.637 L1990 307.614 Z" fill="#000000" fill-rule="nonzero" fill-opacity="1" /><path clip-path="url(#clip510)" d="M1999.1 308.008 L2011.57 308.008 L2011.57 311.804 L1999.1 311.804 L1999.1 308.008 Z" fill="#000000" fill-rule="nonzero" fill-opacity="1" /><path clip-path="url(#clip510)" d="M2033.38 300.947 Q2032.66 300.531 2031.8 300.346 Q2030.97 300.137 2029.95 300.137 Q2026.34 300.137 2024.4 302.498 Q2022.48 304.836 2022.48 309.234 L2022.48 322.892 L2018.19 322.892 L2018.19 296.966 L2022.48 296.966 L2022.48 300.994 Q2023.82 298.633 2025.97 297.498 Q2028.12 296.341 2031.2 296.341 Q2031.64 296.341 2032.17 296.41 Q2032.71 296.457 2033.36 296.572 L2033.38 300.947 Z" fill="#000000" fill-rule="nonzero" fill-opacity="1" /><path clip-path="url(#clip510)" d="M2046.85 299.952 Q2043.42 299.952 2041.43 302.637 Q2039.44 305.299 2039.44 309.952 Q2039.44 314.605 2041.41 317.29 Q2043.4 319.952 2046.85 319.952 Q2050.25 319.952 2052.24 317.267 Q2054.24 314.582 2054.24 309.952 Q2054.24 305.346 2052.24 302.66 Q2050.25 299.952 2046.85 299.952 M2046.85 296.341 Q2052.41 296.341 2055.58 299.952 Q2058.75 303.563 2058.75 309.952 Q2058.75 316.318 2055.58 319.952 Q2052.41 323.563 2046.85 323.563 Q2041.27 323.563 2038.1 319.952 Q2034.95 316.318 2034.95 309.952 Q2034.95 303.563 2038.1 299.952 Q2041.27 296.341 2046.85 296.341 Z" fill="#000000" fill-rule="nonzero" fill-opacity="1" /><path clip-path="url(#clip510)" d="M2075.86 299.952 Q2072.43 299.952 2070.44 302.637 Q2068.45 305.299 2068.45 309.952 Q2068.45 314.605 2070.42 317.29 Q2072.41 319.952 2075.86 319.952 Q2079.26 319.952 2081.25 317.267 Q2083.24 314.582 2083.24 309.952 Q2083.24 305.346 2081.25 302.66 Q2079.26 299.952 2075.86 299.952 M2075.86 296.341 Q2081.41 296.341 2084.58 299.952 Q2087.75 303.563 2087.75 309.952 Q2087.75 316.318 2084.58 319.952 Q2081.41 323.563 2075.86 323.563 Q2070.28 323.563 2067.11 319.952 Q2063.96 316.318 2063.96 309.952 Q2063.96 303.563 2067.11 299.952 Q2070.28 296.341 2075.86 296.341 Z" fill="#000000" fill-rule="nonzero" fill-opacity="1" /><path clip-path="url(#clip510)" d="M2099.03 289.605 L2099.03 296.966 L2107.8 296.966 L2107.8 300.276 L2099.03 300.276 L2099.03 314.35 Q2099.03 317.521 2099.88 318.424 Q2100.76 319.327 2103.42 319.327 L2107.8 319.327 L2107.8 322.892 L2103.42 322.892 Q2098.49 322.892 2096.62 321.063 Q2094.74 319.211 2094.74 314.35 L2094.74 300.276 L2091.62 300.276 L2091.62 296.966 L2094.74 296.966 L2094.74 289.605 L2099.03 289.605 Z" fill="#000000" fill-rule="nonzero" fill-opacity="1" /><path clip-path="url(#clip510)" d="M2145.53 300.901 L2145.53 286.873 L2149.79 286.873 L2149.79 322.892 L2145.53 322.892 L2145.53 319.003 Q2144.19 321.318 2142.13 322.452 Q2140.09 323.563 2137.22 323.563 Q2132.52 323.563 2129.56 319.813 Q2126.62 316.063 2126.62 309.952 Q2126.62 303.841 2129.56 300.091 Q2132.52 296.341 2137.22 296.341 Q2140.09 296.341 2142.13 297.475 Q2144.19 298.586 2145.53 300.901 M2131.02 309.952 Q2131.02 314.651 2132.94 317.336 Q2134.88 319.998 2138.26 319.998 Q2141.64 319.998 2143.59 317.336 Q2145.53 314.651 2145.53 309.952 Q2145.53 305.253 2143.59 302.591 Q2141.64 299.906 2138.26 299.906 Q2134.88 299.906 2132.94 302.591 Q2131.02 305.253 2131.02 309.952 Z" fill="#000000" fill-rule="nonzero" fill-opacity="1" /><path clip-path="url(#clip510)" d="M2180.74 308.864 L2180.74 310.947 L2161.16 310.947 Q2161.43 315.345 2163.79 317.66 Q2166.18 319.952 2170.41 319.952 Q2172.87 319.952 2175.16 319.35 Q2177.48 318.748 2179.74 317.545 L2179.74 321.572 Q2177.45 322.544 2175.04 323.054 Q2172.64 323.563 2170.16 323.563 Q2163.96 323.563 2160.32 319.952 Q2156.71 316.341 2156.71 310.183 Q2156.71 303.818 2160.14 300.091 Q2163.59 296.341 2169.42 296.341 Q2174.65 296.341 2177.68 299.721 Q2180.74 303.077 2180.74 308.864 M2176.48 307.614 Q2176.43 304.119 2174.51 302.035 Q2172.61 299.952 2169.47 299.952 Q2165.9 299.952 2163.75 301.966 Q2161.62 303.98 2161.29 307.637 L2176.48 307.614 Z" fill="#000000" fill-rule="nonzero" fill-opacity="1" /><path clip-path="url(#clip510)" d="M2191.85 319.003 L2191.85 332.753 L2187.57 332.753 L2187.57 296.966 L2191.85 296.966 L2191.85 300.901 Q2193.19 298.586 2195.23 297.475 Q2197.29 296.341 2200.14 296.341 Q2204.86 296.341 2207.8 300.091 Q2210.76 303.841 2210.76 309.952 Q2210.76 316.063 2207.8 319.813 Q2204.86 323.563 2200.14 323.563 Q2197.29 323.563 2195.23 322.452 Q2193.19 321.318 2191.85 319.003 M2206.34 309.952 Q2206.34 305.253 2204.4 302.591 Q2202.47 299.906 2199.1 299.906 Q2195.72 299.906 2193.77 302.591 Q2191.85 305.253 2191.85 309.952 Q2191.85 314.651 2193.77 317.336 Q2195.72 319.998 2199.1 319.998 Q2202.47 319.998 2204.4 317.336 Q2206.34 314.651 2206.34 309.952 Z" fill="#000000" fill-rule="nonzero" fill-opacity="1" /><path clip-path="url(#clip510)" d="M2222.04 289.605 L2222.04 296.966 L2230.81 296.966 L2230.81 300.276 L2222.04 300.276 L2222.04 314.35 Q2222.04 317.521 2222.89 318.424 Q2223.77 319.327 2226.43 319.327 L2230.81 319.327 L2230.81 322.892 L2226.43 322.892 Q2221.5 322.892 2219.63 321.063 Q2217.75 319.211 2217.75 314.35 L2217.75 300.276 L2214.63 300.276 L2214.63 296.966 L2217.75 296.966 L2217.75 289.605 L2222.04 289.605 Z" fill="#000000" fill-rule="nonzero" fill-opacity="1" /><path clip-path="url(#clip510)" d="M2257.96 307.244 L2257.96 322.892 L2253.7 322.892 L2253.7 307.383 Q2253.7 303.702 2252.27 301.873 Q2250.83 300.045 2247.96 300.045 Q2244.51 300.045 2242.52 302.244 Q2240.53 304.443 2240.53 308.239 L2240.53 322.892 L2236.25 322.892 L2236.25 286.873 L2240.53 286.873 L2240.53 300.994 Q2242.06 298.656 2244.12 297.498 Q2246.2 296.341 2248.91 296.341 Q2253.38 296.341 2255.67 299.119 Q2257.96 301.873 2257.96 307.244 Z" fill="#000000" fill-rule="nonzero" fill-opacity="1" /><polyline clip-path="url(#clip510)" style="stroke:#c271d2; stroke-linecap:round; stroke-linejoin:round; stroke-width:4; stroke-opacity:1; fill:none" points="1671.96,357.452 1814.15,357.452 "/>
<path clip-path="url(#clip510)" d="M1859.56 359.084 L1859.56 374.732 L1855.3 374.732 L1855.3 359.223 Q1855.3 355.542 1853.87 353.713 Q1852.43 351.885 1849.56 351.885 Q1846.11 351.885 1844.12 354.084 Q1842.13 356.283 1842.13 360.079 L1842.13 374.732 L1837.85 374.732 L1837.85 348.806 L1842.13 348.806 L1842.13 352.834 Q1843.66 350.496 1845.72 349.338 Q1847.8 348.181 1850.51 348.181 Q1854.98 348.181 1857.27 350.959 Q1859.56 353.713 1859.56 359.084 Z" fill="#000000" fill-rule="nonzero" fill-opacity="1" /><path clip-path="url(#clip510)" d="M1878.1 351.792 Q1874.68 351.792 1872.69 354.477 Q1870.69 357.139 1870.69 361.792 Q1870.69 366.445 1872.66 369.13 Q1874.65 371.792 1878.1 371.792 Q1881.5 371.792 1883.5 369.107 Q1885.49 366.422 1885.49 361.792 Q1885.49 357.186 1883.5 354.5 Q1881.5 351.792 1878.1 351.792 M1878.1 348.181 Q1883.66 348.181 1886.83 351.792 Q1890 355.403 1890 361.792 Q1890 368.158 1886.83 371.792 Q1883.66 375.403 1878.1 375.403 Q1872.52 375.403 1869.35 371.792 Q1866.2 368.158 1866.2 361.792 Q1866.2 355.403 1869.35 351.792 Q1872.52 348.181 1878.1 348.181 Z" fill="#000000" fill-rule="nonzero" fill-opacity="1" /><path clip-path="url(#clip510)" d="M1918.61 359.084 L1918.61 374.732 L1914.35 374.732 L1914.35 359.223 Q1914.35 355.542 1912.92 353.713 Q1911.48 351.885 1908.61 351.885 Q1905.16 351.885 1903.17 354.084 Q1901.18 356.283 1901.18 360.079 L1901.18 374.732 L1896.9 374.732 L1896.9 348.806 L1901.18 348.806 L1901.18 352.834 Q1902.71 350.496 1904.77 349.338 Q1906.85 348.181 1909.56 348.181 Q1914.03 348.181 1916.32 350.959 Q1918.61 353.713 1918.61 359.084 Z" fill="#000000" fill-rule="nonzero" fill-opacity="1" /><path clip-path="url(#clip510)" d="M1924.95 359.848 L1937.43 359.848 L1937.43 363.644 L1924.95 363.644 L1924.95 359.848 Z" fill="#000000" fill-rule="nonzero" fill-opacity="1" /><path clip-path="url(#clip510)" d="M1965.76 359.084 L1965.76 374.732 L1961.5 374.732 L1961.5 359.223 Q1961.5 355.542 1960.07 353.713 Q1958.63 351.885 1955.76 351.885 Q1952.31 351.885 1950.32 354.084 Q1948.33 356.283 1948.33 360.079 L1948.33 374.732 L1944.05 374.732 L1944.05 338.713 L1948.33 338.713 L1948.33 352.834 Q1949.86 350.496 1951.92 349.338 Q1954 348.181 1956.71 348.181 Q1961.18 348.181 1963.47 350.959 Q1965.76 353.713 1965.76 359.084 Z" fill="#000000" fill-rule="nonzero" fill-opacity="1" /><path clip-path="url(#clip510)" d="M1985.05 377.139 Q1983.24 381.769 1981.53 383.181 Q1979.81 384.593 1976.94 384.593 L1973.54 384.593 L1973.54 381.028 L1976.04 381.028 Q1977.8 381.028 1978.77 380.195 Q1979.74 379.361 1980.93 376.259 L1981.69 374.315 L1971.2 348.806 L1975.72 348.806 L1983.82 369.084 L1991.92 348.806 L1996.43 348.806 L1985.05 377.139 Z" fill="#000000" fill-rule="nonzero" fill-opacity="1" /><path clip-path="url(#clip510)" d="M2019.37 352.741 L2019.37 338.713 L2023.63 338.713 L2023.63 374.732 L2019.37 374.732 L2019.37 370.843 Q2018.03 373.158 2015.97 374.292 Q2013.93 375.403 2011.06 375.403 Q2006.36 375.403 2003.4 371.653 Q2000.46 367.903 2000.46 361.792 Q2000.46 355.681 2003.4 351.931 Q2006.36 348.181 2011.06 348.181 Q2013.93 348.181 2015.97 349.315 Q2018.03 350.426 2019.37 352.741 M2004.86 361.792 Q2004.86 366.491 2006.78 369.176 Q2008.73 371.838 2012.11 371.838 Q2015.49 371.838 2017.43 369.176 Q2019.37 366.491 2019.37 361.792 Q2019.37 357.093 2017.43 354.431 Q2015.49 351.746 2012.11 351.746 Q2008.73 351.746 2006.78 354.431 Q2004.86 357.093 2004.86 361.792 Z" fill="#000000" fill-rule="nonzero" fill-opacity="1" /><path clip-path="url(#clip510)" d="M2047.43 352.787 Q2046.71 352.371 2045.86 352.186 Q2045.02 351.977 2044 351.977 Q2040.39 351.977 2038.45 354.338 Q2036.53 356.676 2036.53 361.074 L2036.53 374.732 L2032.24 374.732 L2032.24 348.806 L2036.53 348.806 L2036.53 352.834 Q2037.87 350.473 2040.02 349.338 Q2042.17 348.181 2045.25 348.181 Q2045.69 348.181 2046.23 348.25 Q2046.76 348.297 2047.41 348.412 L2047.43 352.787 Z" fill="#000000" fill-rule="nonzero" fill-opacity="1" /><path clip-path="url(#clip510)" d="M2060.9 351.792 Q2057.48 351.792 2055.49 354.477 Q2053.49 357.139 2053.49 361.792 Q2053.49 366.445 2055.46 369.13 Q2057.45 371.792 2060.9 371.792 Q2064.3 371.792 2066.3 369.107 Q2068.29 366.422 2068.29 361.792 Q2068.29 357.186 2066.3 354.5 Q2064.3 351.792 2060.9 351.792 M2060.9 348.181 Q2066.46 348.181 2069.63 351.792 Q2072.8 355.403 2072.8 361.792 Q2072.8 368.158 2069.63 371.792 Q2066.46 375.403 2060.9 375.403 Q2055.32 375.403 2052.15 371.792 Q2049 368.158 2049 361.792 Q2049 355.403 2052.15 351.792 Q2055.32 348.181 2060.9 348.181 Z" fill="#000000" fill-rule="nonzero" fill-opacity="1" /><path clip-path="url(#clip510)" d="M2096.39 349.57 L2096.39 353.598 Q2094.58 352.672 2092.64 352.209 Q2090.69 351.746 2088.61 351.746 Q2085.44 351.746 2083.84 352.718 Q2082.27 353.69 2082.27 355.635 Q2082.27 357.116 2083.4 357.973 Q2084.54 358.806 2087.96 359.57 L2089.42 359.894 Q2093.96 360.866 2095.86 362.648 Q2097.78 364.408 2097.78 367.579 Q2097.78 371.19 2094.91 373.297 Q2092.06 375.403 2087.06 375.403 Q2084.98 375.403 2082.71 374.986 Q2080.46 374.593 2077.96 373.783 L2077.96 369.385 Q2080.32 370.611 2082.61 371.236 Q2084.91 371.838 2087.15 371.838 Q2090.16 371.838 2091.78 370.82 Q2093.4 369.778 2093.4 367.903 Q2093.4 366.167 2092.22 365.241 Q2091.06 364.315 2087.11 363.459 L2085.62 363.111 Q2081.67 362.278 2079.91 360.565 Q2078.15 358.829 2078.15 355.82 Q2078.15 352.162 2080.74 350.172 Q2083.33 348.181 2088.1 348.181 Q2090.46 348.181 2092.55 348.528 Q2094.63 348.875 2096.39 349.57 Z" fill="#000000" fill-rule="nonzero" fill-opacity="1" /><path clip-path="url(#clip510)" d="M2108.77 341.445 L2108.77 348.806 L2117.54 348.806 L2117.54 352.116 L2108.77 352.116 L2108.77 366.19 Q2108.77 369.361 2109.63 370.264 Q2110.51 371.167 2113.17 371.167 L2117.54 371.167 L2117.54 374.732 L2113.17 374.732 Q2108.24 374.732 2106.36 372.903 Q2104.49 371.051 2104.49 366.19 L2104.49 352.116 L2101.36 352.116 L2101.36 348.806 L2104.49 348.806 L2104.49 341.445 L2108.77 341.445 Z" fill="#000000" fill-rule="nonzero" fill-opacity="1" /><path clip-path="url(#clip510)" d="M2134.93 361.699 Q2129.77 361.699 2127.78 362.88 Q2125.79 364.06 2125.79 366.908 Q2125.79 369.176 2127.27 370.519 Q2128.77 371.838 2131.34 371.838 Q2134.88 371.838 2137.01 369.338 Q2139.17 366.815 2139.17 362.648 L2139.17 361.699 L2134.93 361.699 M2143.42 359.94 L2143.42 374.732 L2139.17 374.732 L2139.17 370.797 Q2137.71 373.158 2135.53 374.292 Q2133.35 375.403 2130.21 375.403 Q2126.23 375.403 2123.86 373.181 Q2121.53 370.935 2121.53 367.185 Q2121.53 362.81 2124.44 360.588 Q2127.38 358.366 2133.19 358.366 L2139.17 358.366 L2139.17 357.949 Q2139.17 355.01 2137.22 353.412 Q2135.3 351.792 2131.8 351.792 Q2129.58 351.792 2127.48 352.324 Q2125.37 352.857 2123.42 353.922 L2123.42 349.986 Q2125.76 349.084 2127.96 348.644 Q2130.16 348.181 2132.24 348.181 Q2137.87 348.181 2140.65 351.098 Q2143.42 354.014 2143.42 359.94 Z" fill="#000000" fill-rule="nonzero" fill-opacity="1" /><path clip-path="url(#clip510)" d="M2156.41 341.445 L2156.41 348.806 L2165.18 348.806 L2165.18 352.116 L2156.41 352.116 L2156.41 366.19 Q2156.41 369.361 2157.27 370.264 Q2158.15 371.167 2160.81 371.167 L2165.18 371.167 L2165.18 374.732 L2160.81 374.732 Q2155.88 374.732 2154 372.903 Q2152.13 371.051 2152.13 366.19 L2152.13 352.116 L2149 352.116 L2149 348.806 L2152.13 348.806 L2152.13 341.445 L2156.41 341.445 Z" fill="#000000" fill-rule="nonzero" fill-opacity="1" /><path clip-path="url(#clip510)" d="M2170.79 348.806 L2175.04 348.806 L2175.04 374.732 L2170.79 374.732 L2170.79 348.806 M2170.79 338.713 L2175.04 338.713 L2175.04 344.107 L2170.79 344.107 L2170.79 338.713 Z" fill="#000000" fill-rule="nonzero" fill-opacity="1" /><path clip-path="url(#clip510)" d="M2202.61 349.801 L2202.61 353.783 Q2200.81 352.787 2198.98 352.301 Q2197.17 351.792 2195.32 351.792 Q2191.18 351.792 2188.89 354.431 Q2186.6 357.047 2186.6 361.792 Q2186.6 366.537 2188.89 369.176 Q2191.18 371.792 2195.32 371.792 Q2197.17 371.792 2198.98 371.306 Q2200.81 370.797 2202.61 369.801 L2202.61 373.736 Q2200.83 374.57 2198.91 374.986 Q2197.01 375.403 2194.86 375.403 Q2189 375.403 2185.55 371.722 Q2182.1 368.042 2182.1 361.792 Q2182.1 355.449 2185.58 351.815 Q2189.07 348.181 2195.14 348.181 Q2197.1 348.181 2198.98 348.598 Q2200.85 348.991 2202.61 349.801 Z" fill="#000000" fill-rule="nonzero" fill-opacity="1" /></svg>
