<?xml version="1.0" encoding="utf-8"?>
<svg xmlns="http://www.w3.org/2000/svg" xmlns:xlink="http://www.w3.org/1999/xlink" width="600" height="400" viewBox="0 0 2400 1600">
<defs>
  <clipPath id="clip700">
    <rect x="0" y="0" width="2400" height="1600"/>
  </clipPath>
</defs>
<path clip-path="url(#clip700)" d="M0 1600 L2400 1600 L2400 0 L0 0  Z" fill="#ffffff" fill-rule="evenodd" fill-opacity="1"/>
<defs>
  <clipPath id="clip701">
    <rect x="255" y="106" width="2098" height="1318"/>
  </clipPath>
</defs>
<path clip-path="url(#clip700)" d="M255.607 1423.18 L2352.76 1423.18 L2352.76 106.192 L255.607 106.192  Z" fill="#ffffff" fill-rule="evenodd" fill-opacity="1"/>
<polyline clip-path="url(#clip701)" style="stroke:#000000; stroke-linecap:round; stroke-linejoin:round; stroke-width:2; stroke-opacity:0.1; fill:none" points="359.555,1423.18 359.555,106.192 "/>
<polyline clip-path="url(#clip701)" style="stroke:#000000; stroke-linecap:round; stroke-linejoin:round; stroke-width:2; stroke-opacity:0.1; fill:none" points="674.511,1423.18 674.511,106.192 "/>
<polyline clip-path="url(#clip701)" style="stroke:#000000; stroke-linecap:round; stroke-linejoin:round; stroke-width:2; stroke-opacity:0.1; fill:none" points="989.466,1423.18 989.466,106.192 "/>
<polyline clip-path="url(#clip701)" style="stroke:#000000; stroke-linecap:round; stroke-linejoin:round; stroke-width:2; stroke-opacity:0.1; fill:none" points="1304.42,1423.18 1304.42,106.192 "/>
<polyline clip-path="url(#clip701)" style="stroke:#000000; stroke-linecap:round; stroke-linejoin:round; stroke-width:2; stroke-opacity:0.1; fill:none" points="1619.38,1423.18 1619.38,106.192 "/>
<polyline clip-path="url(#clip701)" style="stroke:#000000; stroke-linecap:round; stroke-linejoin:round; stroke-width:2; stroke-opacity:0.1; fill:none" points="1934.33,1423.18 1934.33,106.192 "/>
<polyline clip-path="url(#clip701)" style="stroke:#000000; stroke-linecap:round; stroke-linejoin:round; stroke-width:2; stroke-opacity:0.1; fill:none" points="2249.29,1423.18 2249.29,106.192 "/>
<polyline clip-path="url(#clip701)" style="stroke:#000000; stroke-linecap:round; stroke-linejoin:round; stroke-width:2; stroke-opacity:0.1; fill:none" points="255.607,1298.32 2352.76,1298.32 "/>
<polyline clip-path="url(#clip701)" style="stroke:#000000; stroke-linecap:round; stroke-linejoin:round; stroke-width:2; stroke-opacity:0.1; fill:none" points="255.607,980.221 2352.76,980.221 "/>
<polyline clip-path="url(#clip701)" style="stroke:#000000; stroke-linecap:round; stroke-linejoin:round; stroke-width:2; stroke-opacity:0.1; fill:none" points="255.607,662.126 2352.76,662.126 "/>
<polyline clip-path="url(#clip701)" style="stroke:#000000; stroke-linecap:round; stroke-linejoin:round; stroke-width:2; stroke-opacity:0.1; fill:none" points="255.607,344.031 2352.76,344.031 "/>
<polyline clip-path="url(#clip700)" style="stroke:#000000; stroke-linecap:round; stroke-linejoin:round; stroke-width:4; stroke-opacity:1; fill:none" points="255.607,1423.18 2352.76,1423.18 "/>
<polyline clip-path="url(#clip700)" style="stroke:#000000; stroke-linecap:round; stroke-linejoin:round; stroke-width:4; stroke-opacity:1; fill:none" points="359.555,1423.18 359.555,1404.28 "/>
<polyline clip-path="url(#clip700)" style="stroke:#000000; stroke-linecap:round; stroke-linejoin:round; stroke-width:4; stroke-opacity:1; fill:none" points="674.511,1423.18 674.511,1404.28 "/>
<polyline clip-path="url(#clip700)" style="stroke:#000000; stroke-linecap:round; stroke-linejoin:round; stroke-width:4; stroke-opacity:1; fill:none" points="989.466,1423.18 989.466,1404.28 "/>
<polyline clip-path="url(#clip700)" style="stroke:#000000; stroke-linecap:round; stroke-linejoin:round; stroke-width:4; stroke-opacity:1; fill:none" points="1304.42,1423.18 1304.42,1404.28 "/>
<polyline clip-path="url(#clip700)" style="stroke:#000000; stroke-linecap:round; stroke-linejoin:round; stroke-width:4; stroke-opacity:1; fill:none" points="1619.38,1423.18 1619.38,1404.28 "/>
<polyline clip-path="url(#clip700)" style="stroke:#000000; stroke-linecap:round; stroke-linejoin:round; stroke-width:4; stroke-opacity:1; fill:none" points="1934.33,1423.18 1934.33,1404.28 "/>
<polyline clip-path="url(#clip700)" style="stroke:#000000; stroke-linecap:round; stroke-linejoin:round; stroke-width:4; stroke-opacity:1; fill:none" points="2249.29,1423.18 2249.29,1404.28 "/>
<path clip-path="url(#clip700)" d="M329.023 1468.75 L358.699 1468.75 L358.699 1472.69 L329.023 1472.69 L329.023 1468.75 Z" fill="#000000" fill-rule="nonzero" fill-opacity="1" /><path clip-path="url(#clip700)" d="M382.958 1466.95 Q386.315 1467.66 388.19 1469.93 Q390.088 1472.2 390.088 1475.53 Q390.088 1480.65 386.569 1483.45 Q383.051 1486.25 376.569 1486.25 Q374.393 1486.25 372.079 1485.81 Q369.787 1485.39 367.333 1484.54 L367.333 1480.02 Q369.278 1481.16 371.592 1481.74 Q373.907 1482.32 376.43 1482.32 Q380.829 1482.32 383.12 1480.58 Q385.435 1478.84 385.435 1475.53 Q385.435 1472.48 383.282 1470.77 Q381.153 1469.03 377.333 1469.03 L373.305 1469.03 L373.305 1465.19 L377.518 1465.19 Q380.967 1465.19 382.796 1463.82 Q384.625 1462.43 384.625 1459.84 Q384.625 1457.18 382.727 1455.77 Q380.852 1454.33 377.333 1454.33 Q375.412 1454.33 373.213 1454.75 Q371.014 1455.16 368.375 1456.04 L368.375 1451.88 Q371.037 1451.14 373.352 1450.77 Q375.69 1450.39 377.75 1450.39 Q383.074 1450.39 386.176 1452.83 Q389.278 1455.23 389.278 1459.35 Q389.278 1462.22 387.634 1464.21 Q385.991 1466.18 382.958 1466.95 Z" fill="#000000" fill-rule="nonzero" fill-opacity="1" /><path clip-path="url(#clip700)" d="M644.453 1468.75 L674.129 1468.75 L674.129 1472.69 L644.453 1472.69 L644.453 1468.75 Z" fill="#000000" fill-rule="nonzero" fill-opacity="1" /><path clip-path="url(#clip700)" d="M688.249 1481.64 L704.569 1481.64 L704.569 1485.58 L682.624 1485.58 L682.624 1481.64 Q685.286 1478.89 689.87 1474.26 Q694.476 1469.61 695.657 1468.27 Q697.902 1465.74 698.782 1464.01 Q699.684 1462.25 699.684 1460.56 Q699.684 1457.8 697.74 1456.07 Q695.819 1454.33 692.717 1454.33 Q690.518 1454.33 688.064 1455.09 Q685.634 1455.86 682.856 1457.41 L682.856 1452.69 Q685.68 1451.55 688.134 1450.97 Q690.587 1450.39 692.624 1450.39 Q697.995 1450.39 701.189 1453.08 Q704.383 1455.77 704.383 1460.26 Q704.383 1462.39 703.573 1464.31 Q702.786 1466.2 700.68 1468.8 Q700.101 1469.47 696.999 1472.69 Q693.897 1475.88 688.249 1481.64 Z" fill="#000000" fill-rule="nonzero" fill-opacity="1" /><path clip-path="url(#clip700)" d="M959.224 1468.75 L988.899 1468.75 L988.899 1472.69 L959.224 1472.69 L959.224 1468.75 Z" fill="#000000" fill-rule="nonzero" fill-opacity="1" /><path clip-path="url(#clip700)" d="M999.802 1481.64 L1007.44 1481.64 L1007.44 1455.28 L999.131 1456.95 L999.131 1452.69 L1007.39 1451.02 L1012.07 1451.02 L1012.07 1481.64 L1019.71 1481.64 L1019.71 1485.58 L999.802 1485.58 L999.802 1481.64 Z" fill="#000000" fill-rule="nonzero" fill-opacity="1" /><path clip-path="url(#clip700)" d="M1304.42 1454.1 Q1300.81 1454.1 1298.98 1457.66 Q1297.18 1461.2 1297.18 1468.33 Q1297.18 1475.44 1298.98 1479.01 Q1300.81 1482.55 1304.42 1482.55 Q1308.06 1482.55 1309.86 1479.01 Q1311.69 1475.44 1311.69 1468.33 Q1311.69 1461.2 1309.86 1457.66 Q1308.06 1454.1 1304.42 1454.1 M1304.42 1450.39 Q1310.23 1450.39 1313.29 1455 Q1316.37 1459.58 1316.37 1468.33 Q1316.37 1477.06 1313.29 1481.67 Q1310.23 1486.25 1304.42 1486.25 Q1298.61 1486.25 1295.53 1481.67 Q1292.48 1477.06 1292.48 1468.33 Q1292.48 1459.58 1295.53 1455 Q1298.61 1450.39 1304.42 1450.39 Z" fill="#000000" fill-rule="nonzero" fill-opacity="1" /><path clip-path="url(#clip700)" d="M1609.76 1481.64 L1617.4 1481.64 L1617.4 1455.28 L1609.09 1456.95 L1609.09 1452.69 L1617.35 1451.02 L1622.03 1451.02 L1622.03 1481.64 L1629.67 1481.64 L1629.67 1485.58 L1609.76 1485.58 L1609.76 1481.64 Z" fill="#000000" fill-rule="nonzero" fill-opacity="1" /><path clip-path="url(#clip700)" d="M1928.99 1481.64 L1945.31 1481.64 L1945.31 1485.58 L1923.36 1485.58 L1923.36 1481.64 Q1926.02 1478.89 1930.61 1474.26 Q1935.21 1469.61 1936.39 1468.27 Q1938.64 1465.74 1939.52 1464.01 Q1940.42 1462.25 1940.42 1460.56 Q1940.42 1457.8 1938.48 1456.07 Q1936.56 1454.33 1933.45 1454.33 Q1931.25 1454.33 1928.8 1455.09 Q1926.37 1455.86 1923.59 1457.41 L1923.59 1452.69 Q1926.42 1451.55 1928.87 1450.97 Q1931.32 1450.39 1933.36 1450.39 Q1938.73 1450.39 1941.93 1453.08 Q1945.12 1455.77 1945.12 1460.26 Q1945.12 1462.39 1944.31 1464.31 Q1943.52 1466.2 1941.42 1468.8 Q1940.84 1469.47 1937.74 1472.69 Q1934.63 1475.88 1928.99 1481.64 Z" fill="#000000" fill-rule="nonzero" fill-opacity="1" /><path clip-path="url(#clip700)" d="M2253.54 1466.95 Q2256.89 1467.66 2258.77 1469.93 Q2260.67 1472.2 2260.67 1475.53 Q2260.67 1480.65 2257.15 1483.45 Q2253.63 1486.25 2247.15 1486.25 Q2244.97 1486.25 2242.66 1485.81 Q2240.36 1485.39 2237.91 1484.54 L2237.91 1480.02 Q2239.86 1481.16 2242.17 1481.74 Q2244.49 1482.32 2247.01 1482.32 Q2251.41 1482.32 2253.7 1480.58 Q2256.01 1478.84 2256.01 1475.53 Q2256.01 1472.48 2253.86 1470.77 Q2251.73 1469.03 2247.91 1469.03 L2243.88 1469.03 L2243.88 1465.19 L2248.1 1465.19 Q2251.55 1465.19 2253.37 1463.82 Q2255.2 1462.43 2255.2 1459.84 Q2255.2 1457.18 2253.3 1455.77 Q2251.43 1454.33 2247.91 1454.33 Q2245.99 1454.33 2243.79 1454.75 Q2241.59 1455.16 2238.95 1456.04 L2238.95 1451.88 Q2241.61 1451.14 2243.93 1450.77 Q2246.27 1450.39 2248.33 1450.39 Q2253.65 1450.39 2256.75 1452.83 Q2259.86 1455.23 2259.86 1459.35 Q2259.86 1462.22 2258.21 1464.21 Q2256.57 1466.18 2253.54 1466.95 Z" fill="#000000" fill-rule="nonzero" fill-opacity="1" /><path clip-path="url(#clip700)" d="M1320.8 1532.4 L1307.91 1549.74 L1321.46 1568.04 L1314.56 1568.04 L1304.18 1554.04 L1293.81 1568.04 L1286.9 1568.04 L1300.74 1549.39 L1288.08 1532.4 L1294.98 1532.4 L1304.44 1545.1 L1313.89 1532.4 L1320.8 1532.4 Z" fill="#000000" fill-rule="nonzero" fill-opacity="1" /><polyline clip-path="url(#clip700)" style="stroke:#000000; stroke-linecap:round; stroke-linejoin:round; stroke-width:4; stroke-opacity:1; fill:none" points="255.607,1423.18 255.607,106.192 "/>
<polyline clip-path="url(#clip700)" style="stroke:#000000; stroke-linecap:round; stroke-linejoin:round; stroke-width:4; stroke-opacity:1; fill:none" points="255.607,1298.32 274.504,1298.32 "/>
<polyline clip-path="url(#clip700)" style="stroke:#000000; stroke-linecap:round; stroke-linejoin:round; stroke-width:4; stroke-opacity:1; fill:none" points="255.607,980.221 274.504,980.221 "/>
<polyline clip-path="url(#clip700)" style="stroke:#000000; stroke-linecap:round; stroke-linejoin:round; stroke-width:4; stroke-opacity:1; fill:none" points="255.607,662.126 274.504,662.126 "/>
<polyline clip-path="url(#clip700)" style="stroke:#000000; stroke-linecap:round; stroke-linejoin:round; stroke-width:4; stroke-opacity:1; fill:none" points="255.607,344.031 274.504,344.031 "/>
<path clip-path="url(#clip700)" d="M114.26 1298.77 L143.936 1298.77 L143.936 1302.7 L114.26 1302.7 L114.26 1298.77 Z" fill="#000000" fill-rule="nonzero" fill-opacity="1" /><path clip-path="url(#clip700)" d="M164.028 1284.11 Q160.417 1284.11 158.589 1287.68 Q156.783 1291.22 156.783 1298.35 Q156.783 1305.46 158.589 1309.02 Q160.417 1312.56 164.028 1312.56 Q167.663 1312.56 169.468 1309.02 Q171.297 1305.46 171.297 1298.35 Q171.297 1291.22 169.468 1287.68 Q167.663 1284.11 164.028 1284.11 M164.028 1280.41 Q169.839 1280.41 172.894 1285.02 Q175.973 1289.6 175.973 1298.35 Q175.973 1307.08 172.894 1311.68 Q169.839 1316.27 164.028 1316.27 Q158.218 1316.27 155.14 1311.68 Q152.084 1307.08 152.084 1298.35 Q152.084 1289.6 155.14 1285.02 Q158.218 1280.41 164.028 1280.41 Z" fill="#000000" fill-rule="nonzero" fill-opacity="1" /><path clip-path="url(#clip700)" d="M184.19 1309.72 L189.075 1309.72 L189.075 1315.6 L184.19 1315.6 L184.19 1309.72 Z" fill="#000000" fill-rule="nonzero" fill-opacity="1" /><path clip-path="url(#clip700)" d="M203.287 1311.66 L219.607 1311.66 L219.607 1315.6 L197.662 1315.6 L197.662 1311.66 Q200.325 1308.91 204.908 1304.28 Q209.514 1299.62 210.695 1298.28 Q212.94 1295.76 213.82 1294.02 Q214.723 1292.26 214.723 1290.57 Q214.723 1287.82 212.778 1286.08 Q210.857 1284.35 207.755 1284.35 Q205.556 1284.35 203.102 1285.11 Q200.672 1285.87 197.894 1287.42 L197.894 1282.7 Q200.718 1281.57 203.172 1280.99 Q205.625 1280.41 207.662 1280.41 Q213.033 1280.41 216.227 1283.1 Q219.422 1285.78 219.422 1290.27 Q219.422 1292.4 218.611 1294.32 Q217.824 1296.22 215.718 1298.81 Q215.139 1299.48 212.037 1302.7 Q208.936 1305.9 203.287 1311.66 Z" fill="#000000" fill-rule="nonzero" fill-opacity="1" /><path clip-path="url(#clip700)" d="M162.431 966.019 Q158.82 966.019 156.991 969.584 Q155.186 973.126 155.186 980.255 Q155.186 987.362 156.991 990.926 Q158.82 994.468 162.431 994.468 Q166.065 994.468 167.871 990.926 Q169.7 987.362 169.7 980.255 Q169.7 973.126 167.871 969.584 Q166.065 966.019 162.431 966.019 M162.431 962.316 Q168.241 962.316 171.297 966.922 Q174.376 971.505 174.376 980.255 Q174.376 988.982 171.297 993.588 Q168.241 998.172 162.431 998.172 Q156.621 998.172 153.542 993.588 Q150.487 988.982 150.487 980.255 Q150.487 971.505 153.542 966.922 Q156.621 962.316 162.431 962.316 Z" fill="#000000" fill-rule="nonzero" fill-opacity="1" /><path clip-path="url(#clip700)" d="M182.593 991.621 L187.477 991.621 L187.477 997.501 L182.593 997.501 L182.593 991.621 Z" fill="#000000" fill-rule="nonzero" fill-opacity="1" /><path clip-path="url(#clip700)" d="M207.662 966.019 Q204.051 966.019 202.223 969.584 Q200.417 973.126 200.417 980.255 Q200.417 987.362 202.223 990.926 Q204.051 994.468 207.662 994.468 Q211.297 994.468 213.102 990.926 Q214.931 987.362 214.931 980.255 Q214.931 973.126 213.102 969.584 Q211.297 966.019 207.662 966.019 M207.662 962.316 Q213.473 962.316 216.528 966.922 Q219.607 971.505 219.607 980.255 Q219.607 988.982 216.528 993.588 Q213.473 998.172 207.662 998.172 Q201.852 998.172 198.774 993.588 Q195.718 988.982 195.718 980.255 Q195.718 971.505 198.774 966.922 Q201.852 962.316 207.662 962.316 Z" fill="#000000" fill-rule="nonzero" fill-opacity="1" /><path clip-path="url(#clip700)" d="M164.028 647.925 Q160.417 647.925 158.589 651.489 Q156.783 655.031 156.783 662.161 Q156.783 669.267 158.589 672.832 Q160.417 676.374 164.028 676.374 Q167.663 676.374 169.468 672.832 Q171.297 669.267 171.297 662.161 Q171.297 655.031 169.468 651.489 Q167.663 647.925 164.028 647.925 M164.028 644.221 Q169.839 644.221 172.894 648.827 Q175.973 653.411 175.973 662.161 Q175.973 670.887 172.894 675.494 Q169.839 680.077 164.028 680.077 Q158.218 680.077 155.14 675.494 Q152.084 670.887 152.084 662.161 Q152.084 653.411 155.14 648.827 Q158.218 644.221 164.028 644.221 Z" fill="#000000" fill-rule="nonzero" fill-opacity="1" /><path clip-path="url(#clip700)" d="M184.19 673.526 L189.075 673.526 L189.075 679.406 L184.19 679.406 L184.19 673.526 Z" fill="#000000" fill-rule="nonzero" fill-opacity="1" /><path clip-path="url(#clip700)" d="M203.287 675.471 L219.607 675.471 L219.607 679.406 L197.662 679.406 L197.662 675.471 Q200.325 672.716 204.908 668.087 Q209.514 663.434 210.695 662.091 Q212.94 659.568 213.82 657.832 Q214.723 656.073 214.723 654.383 Q214.723 651.628 212.778 649.892 Q210.857 648.156 207.755 648.156 Q205.556 648.156 203.102 648.92 Q200.672 649.684 197.894 651.235 L197.894 646.513 Q200.718 645.378 203.172 644.8 Q205.625 644.221 207.662 644.221 Q213.033 644.221 216.227 646.906 Q219.422 649.591 219.422 654.082 Q219.422 656.212 218.611 658.133 Q217.824 660.031 215.718 662.624 Q215.139 663.295 212.037 666.513 Q208.936 669.707 203.287 675.471 Z" fill="#000000" fill-rule="nonzero" fill-opacity="1" /><path clip-path="url(#clip700)" d="M161.945 329.83 Q158.334 329.83 156.505 333.395 Q154.7 336.937 154.7 344.066 Q154.7 351.173 156.505 354.737 Q158.334 358.279 161.945 358.279 Q165.579 358.279 167.385 354.737 Q169.214 351.173 169.214 344.066 Q169.214 336.937 167.385 333.395 Q165.579 329.83 161.945 329.83 M161.945 326.126 Q167.755 326.126 170.811 330.733 Q173.889 335.316 173.889 344.066 Q173.889 352.793 170.811 357.399 Q167.755 361.983 161.945 361.983 Q156.135 361.983 153.056 357.399 Q150.001 352.793 150.001 344.066 Q150.001 335.316 153.056 330.733 Q156.135 326.126 161.945 326.126 Z" fill="#000000" fill-rule="nonzero" fill-opacity="1" /><path clip-path="url(#clip700)" d="M182.107 355.432 L186.991 355.432 L186.991 361.311 L182.107 361.311 L182.107 355.432 Z" fill="#000000" fill-rule="nonzero" fill-opacity="1" /><path clip-path="url(#clip700)" d="M210.024 330.825 L198.218 349.274 L210.024 349.274 L210.024 330.825 M208.797 326.751 L214.676 326.751 L214.676 349.274 L219.607 349.274 L219.607 353.163 L214.676 353.163 L214.676 361.311 L210.024 361.311 L210.024 353.163 L194.422 353.163 L194.422 348.649 L208.797 326.751 Z" fill="#000000" fill-rule="nonzero" fill-opacity="1" /><path clip-path="url(#clip700)" d="M42.4881 749.758 L77.5631 749.758 L77.5631 755.615 L42.679 755.615 Q37.6183 755.615 35.1038 757.588 Q32.5894 759.562 32.5894 763.508 Q32.5894 768.251 35.6131 770.988 Q38.6368 773.725 43.8567 773.725 L64.0042 773.725 L64.0042 779.614 L28.3562 779.614 L28.3562 773.725 L33.8944 773.725 Q30.6797 771.625 29.0883 768.792 Q27.4968 765.927 27.4968 762.203 Q27.4968 756.06 31.2844 752.909 Q35.1038 749.758 42.4881 749.758 Z" fill="#000000" fill-rule="nonzero" fill-opacity="1" /><path clip-path="url(#clip700)" d="M834.45 10.0578 L834.45 15.758 Q831.123 14.1666 828.171 13.3853 Q825.22 12.6041 822.471 12.6041 Q817.697 12.6041 815.093 14.4559 Q812.517 16.3078 812.517 19.7221 Q812.517 22.5867 814.224 24.0624 Q815.961 25.5091 820.764 26.4061 L824.294 27.1295 Q830.833 28.3737 833.929 31.5276 Q837.054 34.6526 837.054 39.9188 Q837.054 46.1977 832.83 49.4384 Q828.634 52.6791 820.503 52.6791 Q817.436 52.6791 813.964 51.9847 Q810.521 51.2902 806.817 49.9303 L806.817 43.9118 Q810.376 45.9083 813.79 46.921 Q817.205 47.9338 820.503 47.9338 Q825.509 47.9338 828.229 45.9662 Q830.949 43.9986 830.949 40.3528 Q830.949 37.1699 828.981 35.376 Q827.043 33.582 822.587 32.685 L819.028 31.9906 Q812.488 30.6885 809.566 27.9107 Q806.644 25.133 806.644 20.1851 Q806.644 14.4559 810.665 11.1573 Q814.716 7.85875 821.805 7.85875 Q824.844 7.85875 827.998 8.40852 Q831.151 8.95829 834.45 10.0578 Z" fill="#000000" fill-rule="nonzero" fill-opacity="1" /><path clip-path="url(#clip700)" d="M845.388 39.0507 L845.388 19.4328 L850.712 19.4328 L850.712 38.8482 Q850.712 43.4488 852.506 45.7636 Q854.3 48.0495 857.887 48.0495 Q862.199 48.0495 864.687 45.3007 Q867.205 42.5519 867.205 37.8065 L867.205 19.4328 L872.529 19.4328 L872.529 51.84 L867.205 51.84 L867.205 46.8632 Q865.266 49.8145 862.691 51.2613 Q860.144 52.6791 856.759 52.6791 Q851.175 52.6791 848.281 49.2069 Q845.388 45.7347 845.388 39.0507 M858.784 18.6515 L858.784 18.6515 Z" fill="#000000" fill-rule="nonzero" fill-opacity="1" /><path clip-path="url(#clip700)" d="M902.274 24.4096 Q901.377 23.8888 900.306 23.6573 Q899.265 23.3969 897.991 23.3969 Q893.478 23.3969 891.047 26.3482 Q888.645 29.2707 888.645 34.7683 L888.645 51.84 L883.292 51.84 L883.292 19.4328 L888.645 19.4328 L888.645 24.4675 Q890.324 21.5161 893.015 20.0983 Q895.706 18.6515 899.554 18.6515 Q900.104 18.6515 900.769 18.7383 Q901.435 18.7962 902.245 18.9409 L902.274 24.4096 Z" fill="#000000" fill-rule="nonzero" fill-opacity="1" /><path clip-path="url(#clip700)" d="M924.264 6.81709 L924.264 11.2442 L919.172 11.2442 Q916.307 11.2442 915.179 12.4016 Q914.079 13.559 914.079 16.5682 L914.079 19.4328 L922.847 19.4328 L922.847 23.5705 L914.079 23.5705 L914.079 51.84 L908.726 51.84 L908.726 23.5705 L903.634 23.5705 L903.634 19.4328 L908.726 19.4328 L908.726 17.1758 Q908.726 11.765 911.244 9.30551 Q913.761 6.81709 919.23 6.81709 L924.264 6.81709 Z" fill="#000000" fill-rule="nonzero" fill-opacity="1" /><path clip-path="url(#clip700)" d="M943.448 35.5496 Q936.996 35.5496 934.507 37.0253 Q932.019 38.501 932.019 42.06 Q932.019 44.8956 933.871 46.5738 Q935.752 48.2231 938.963 48.2231 Q943.39 48.2231 946.052 45.0981 Q948.743 41.9442 948.743 36.7359 L948.743 35.5496 L943.448 35.5496 M954.067 33.3505 L954.067 51.84 L948.743 51.84 L948.743 46.921 Q946.921 49.8724 944.201 51.2902 Q941.481 52.6791 937.546 52.6791 Q932.569 52.6791 929.617 49.9014 Q926.695 47.0947 926.695 42.4072 Q926.695 36.9385 930.341 34.1607 Q934.016 31.3829 941.278 31.3829 L948.743 31.3829 L948.743 30.8621 Q948.743 27.1874 946.313 25.1908 Q943.911 23.1654 939.542 23.1654 Q936.764 23.1654 934.131 23.8309 Q931.498 24.4964 929.068 25.8274 L929.068 20.9085 Q931.99 19.78 934.739 19.2302 Q937.488 18.6515 940.092 18.6515 Q947.123 18.6515 950.595 22.2973 Q954.067 25.9431 954.067 33.3505 Z" fill="#000000" fill-rule="nonzero" fill-opacity="1" /><path clip-path="url(#clip700)" d="M988.356 20.677 L988.356 25.6538 Q986.099 24.4096 983.813 23.802 Q981.556 23.1654 979.241 23.1654 Q974.062 23.1654 971.197 26.464 Q968.332 29.7336 968.332 35.6653 Q968.332 41.597 971.197 44.8956 Q974.062 48.1653 979.241 48.1653 Q981.556 48.1653 983.813 47.5576 Q986.099 46.921 988.356 45.6768 L988.356 50.5958 Q986.128 51.6375 983.726 52.1583 Q981.353 52.6791 978.662 52.6791 Q971.342 52.6791 967.03 48.0784 Q962.719 43.4778 962.719 35.6653 Q962.719 27.7371 967.059 23.1943 Q971.429 18.6515 979.009 18.6515 Q981.469 18.6515 983.813 19.1724 Q986.156 19.6642 988.356 20.677 Z" fill="#000000" fill-rule="nonzero" fill-opacity="1" /><path clip-path="url(#clip700)" d="M1025.33 34.3054 L1025.33 36.9095 L1000.86 36.9095 Q1001.2 42.4072 1004.15 45.3007 Q1007.13 48.1653 1012.43 48.1653 Q1015.5 48.1653 1018.36 47.4129 Q1021.25 46.6606 1024.09 45.156 L1024.09 50.1907 Q1021.23 51.406 1018.22 52.0425 Q1015.21 52.6791 1012.11 52.6791 Q1004.36 52.6791 999.814 48.1653 Q995.3 43.6514 995.3 35.9547 Q995.3 27.9975 999.582 23.339 Q1003.89 18.6515 1011.19 18.6515 Q1017.72 18.6515 1021.52 22.876 Q1025.33 27.0716 1025.33 34.3054 M1020.01 32.7429 Q1019.95 28.3737 1017.55 25.7695 Q1015.18 23.1654 1011.24 23.1654 Q1006.79 23.1654 1004.1 25.6827 Q1001.43 28.2001 1001.03 32.7718 L1020.01 32.7429 Z" fill="#000000" fill-rule="nonzero" fill-opacity="1" /><path clip-path="url(#clip700)" d="M1074.23 24.3517 L1074.23 6.81709 L1079.56 6.81709 L1079.56 51.84 L1074.23 51.84 L1074.23 46.9789 Q1072.56 49.8724 1069.98 51.2902 Q1067.43 52.6791 1063.85 52.6791 Q1057.97 52.6791 1054.27 47.9916 Q1050.59 43.3042 1050.59 35.6653 Q1050.59 28.0265 1054.27 23.339 Q1057.97 18.6515 1063.85 18.6515 Q1067.43 18.6515 1069.98 20.0693 Q1072.56 21.4582 1074.23 24.3517 M1056.09 35.6653 Q1056.09 41.5391 1058.49 44.8956 Q1060.92 48.2231 1065.15 48.2231 Q1069.37 48.2231 1071.8 44.8956 Q1074.23 41.5391 1074.23 35.6653 Q1074.23 29.7915 1071.8 26.464 Q1069.37 23.1075 1065.15 23.1075 Q1060.92 23.1075 1058.49 26.464 Q1056.09 29.7915 1056.09 35.6653 Z" fill="#000000" fill-rule="nonzero" fill-opacity="1" /><path clip-path="url(#clip700)" d="M1118.24 34.3054 L1118.24 36.9095 L1093.77 36.9095 Q1094.11 42.4072 1097.06 45.3007 Q1100.04 48.1653 1105.34 48.1653 Q1108.41 48.1653 1111.27 47.4129 Q1114.17 46.6606 1117 45.156 L1117 50.1907 Q1114.14 51.406 1111.13 52.0425 Q1108.12 52.6791 1105.02 52.6791 Q1097.27 52.6791 1092.72 48.1653 Q1088.21 43.6514 1088.21 35.9547 Q1088.21 27.9975 1092.49 23.339 Q1096.8 18.6515 1104.1 18.6515 Q1110.63 18.6515 1114.43 22.876 Q1118.24 27.0716 1118.24 34.3054 M1112.92 32.7429 Q1112.86 28.3737 1110.46 25.7695 Q1108.09 23.1654 1104.15 23.1654 Q1099.7 23.1654 1097.01 25.6827 Q1094.34 28.2001 1093.94 32.7718 L1112.92 32.7429 Z" fill="#000000" fill-rule="nonzero" fill-opacity="1" /><path clip-path="url(#clip700)" d="M1143.39 6.81709 L1143.39 11.2442 L1138.3 11.2442 Q1135.43 11.2442 1134.3 12.4016 Q1133.2 13.559 1133.2 16.5682 L1133.2 19.4328 L1141.97 19.4328 L1141.97 23.5705 L1133.2 23.5705 L1133.2 51.84 L1127.85 51.84 L1127.85 23.5705 L1122.76 23.5705 L1122.76 19.4328 L1127.85 19.4328 L1127.85 17.1758 Q1127.85 11.765 1130.37 9.30551 Q1132.89 6.81709 1138.35 6.81709 L1143.39 6.81709 Z" fill="#000000" fill-rule="nonzero" fill-opacity="1" /><path clip-path="url(#clip700)" d="M1160.4 23.1654 Q1156.12 23.1654 1153.63 26.5218 Q1151.14 29.8494 1151.14 35.6653 Q1151.14 41.4813 1153.6 44.8377 Q1156.09 48.1653 1160.4 48.1653 Q1164.66 48.1653 1167.15 44.8088 Q1169.63 41.4523 1169.63 35.6653 Q1169.63 29.9072 1167.15 26.5508 Q1164.66 23.1654 1160.4 23.1654 M1160.4 18.6515 Q1167.35 18.6515 1171.31 23.1654 Q1175.28 27.6792 1175.28 35.6653 Q1175.28 43.6225 1171.31 48.1653 Q1167.35 52.6791 1160.4 52.6791 Q1153.43 52.6791 1149.47 48.1653 Q1145.53 43.6225 1145.53 35.6653 Q1145.53 27.6792 1149.47 23.1654 Q1153.43 18.6515 1160.4 18.6515 Z" fill="#000000" fill-rule="nonzero" fill-opacity="1" /><path clip-path="url(#clip700)" d="M1202.88 24.4096 Q1201.98 23.8888 1200.91 23.6573 Q1199.87 23.3969 1198.6 23.3969 Q1194.08 23.3969 1191.65 26.3482 Q1189.25 29.2707 1189.25 34.7683 L1189.25 51.84 L1183.9 51.84 L1183.9 19.4328 L1189.25 19.4328 L1189.25 24.4675 Q1190.93 21.5161 1193.62 20.0983 Q1196.31 18.6515 1200.16 18.6515 Q1200.71 18.6515 1201.38 18.7383 Q1202.04 18.7962 1202.85 18.9409 L1202.88 24.4096 Z" fill="#000000" fill-rule="nonzero" fill-opacity="1" /><path clip-path="url(#clip700)" d="M1232.65 25.6538 Q1234.65 22.0659 1237.43 20.3587 Q1240.21 18.6515 1243.97 18.6515 Q1249.03 18.6515 1251.78 22.2105 Q1254.53 25.7406 1254.53 32.2799 L1254.53 51.84 L1249.18 51.84 L1249.18 32.4535 Q1249.18 27.795 1247.53 25.5381 Q1245.88 23.2811 1242.49 23.2811 Q1238.35 23.2811 1235.95 26.03 Q1233.55 28.7788 1233.55 33.5241 L1233.55 51.84 L1228.2 51.84 L1228.2 32.4535 Q1228.2 27.7661 1226.55 25.5381 Q1224.9 23.2811 1221.46 23.2811 Q1217.38 23.2811 1214.97 26.0589 Q1212.57 28.8077 1212.57 33.5241 L1212.57 51.84 L1207.22 51.84 L1207.22 19.4328 L1212.57 19.4328 L1212.57 24.4675 Q1214.4 21.4872 1216.94 20.0693 Q1219.49 18.6515 1222.99 18.6515 Q1226.52 18.6515 1228.98 20.4455 Q1231.47 22.2395 1232.65 25.6538 Z" fill="#000000" fill-rule="nonzero" fill-opacity="1" /><path clip-path="url(#clip700)" d="M1279.88 35.5496 Q1273.42 35.5496 1270.94 37.0253 Q1268.45 38.501 1268.45 42.06 Q1268.45 44.8956 1270.3 46.5738 Q1272.18 48.2231 1275.39 48.2231 Q1279.82 48.2231 1282.48 45.0981 Q1285.17 41.9442 1285.17 36.7359 L1285.17 35.5496 L1279.88 35.5496 M1290.5 33.3505 L1290.5 51.84 L1285.17 51.84 L1285.17 46.921 Q1283.35 49.8724 1280.63 51.2902 Q1277.91 52.6791 1273.97 52.6791 Q1269 52.6791 1266.04 49.9014 Q1263.12 47.0947 1263.12 42.4072 Q1263.12 36.9385 1266.77 34.1607 Q1270.44 31.3829 1277.71 31.3829 L1285.17 31.3829 L1285.17 30.8621 Q1285.17 27.1874 1282.74 25.1908 Q1280.34 23.1654 1275.97 23.1654 Q1273.19 23.1654 1270.56 23.8309 Q1267.93 24.4964 1265.5 25.8274 L1265.5 20.9085 Q1268.42 19.78 1271.17 19.2302 Q1273.92 18.6515 1276.52 18.6515 Q1283.55 18.6515 1287.02 22.2973 Q1290.5 25.9431 1290.5 33.3505 Z" fill="#000000" fill-rule="nonzero" fill-opacity="1" /><path clip-path="url(#clip700)" d="M1306.73 10.2314 L1306.73 19.4328 L1317.69 19.4328 L1317.69 23.5705 L1306.73 23.5705 L1306.73 41.163 Q1306.73 45.1271 1307.8 46.2555 Q1308.9 47.384 1312.23 47.384 L1317.69 47.384 L1317.69 51.84 L1312.23 51.84 Q1306.06 51.84 1303.72 49.5541 Q1301.37 47.2393 1301.37 41.163 L1301.37 23.5705 L1297.47 23.5705 L1297.47 19.4328 L1301.37 19.4328 L1301.37 10.2314 L1306.73 10.2314 Z" fill="#000000" fill-rule="nonzero" fill-opacity="1" /><path clip-path="url(#clip700)" d="M1324.7 19.4328 L1330.02 19.4328 L1330.02 51.84 L1324.7 51.84 L1324.7 19.4328 M1324.7 6.81709 L1330.02 6.81709 L1330.02 13.559 L1324.7 13.559 L1324.7 6.81709 Z" fill="#000000" fill-rule="nonzero" fill-opacity="1" /><path clip-path="url(#clip700)" d="M1353.72 23.1654 Q1349.44 23.1654 1346.95 26.5218 Q1344.46 29.8494 1344.46 35.6653 Q1344.46 41.4813 1346.92 44.8377 Q1349.41 48.1653 1353.72 48.1653 Q1357.97 48.1653 1360.46 44.8088 Q1362.95 41.4523 1362.95 35.6653 Q1362.95 29.9072 1360.46 26.5508 Q1357.97 23.1654 1353.72 23.1654 M1353.72 18.6515 Q1360.66 18.6515 1364.63 23.1654 Q1368.59 27.6792 1368.59 35.6653 Q1368.59 43.6225 1364.63 48.1653 Q1360.66 52.6791 1353.72 52.6791 Q1346.74 52.6791 1342.78 48.1653 Q1338.85 43.6225 1338.85 35.6653 Q1338.85 27.6792 1342.78 23.1654 Q1346.74 18.6515 1353.72 18.6515 Z" fill="#000000" fill-rule="nonzero" fill-opacity="1" /><path clip-path="url(#clip700)" d="M1404.35 32.2799 L1404.35 51.84 L1399.03 51.84 L1399.03 32.4535 Q1399.03 27.8529 1397.24 25.567 Q1395.44 23.2811 1391.85 23.2811 Q1387.54 23.2811 1385.05 26.03 Q1382.57 28.7788 1382.57 33.5241 L1382.57 51.84 L1377.21 51.84 L1377.21 19.4328 L1382.57 19.4328 L1382.57 24.4675 Q1384.48 21.545 1387.05 20.0983 Q1389.66 18.6515 1393.04 18.6515 Q1398.63 18.6515 1401.49 22.1237 Q1404.35 25.567 1404.35 32.2799 Z" fill="#000000" fill-rule="nonzero" fill-opacity="1" /><path clip-path="url(#clip700)" d="M1448.54 35.5496 Q1442.09 35.5496 1439.6 37.0253 Q1437.11 38.501 1437.11 42.06 Q1437.11 44.8956 1438.96 46.5738 Q1440.84 48.2231 1444.05 48.2231 Q1448.48 48.2231 1451.14 45.0981 Q1453.83 41.9442 1453.83 36.7359 L1453.83 35.5496 L1448.54 35.5496 M1459.16 33.3505 L1459.16 51.84 L1453.83 51.84 L1453.83 46.921 Q1452.01 49.8724 1449.29 51.2902 Q1446.57 52.6791 1442.64 52.6791 Q1437.66 52.6791 1434.71 49.9014 Q1431.78 47.0947 1431.78 42.4072 Q1431.78 36.9385 1435.43 34.1607 Q1439.11 31.3829 1446.37 31.3829 L1453.83 31.3829 L1453.83 30.8621 Q1453.83 27.1874 1451.4 25.1908 Q1449 23.1654 1444.63 23.1654 Q1441.85 23.1654 1439.22 23.8309 Q1436.59 24.4964 1434.16 25.8274 L1434.16 20.9085 Q1437.08 19.78 1439.83 19.2302 Q1442.58 18.6515 1445.18 18.6515 Q1452.21 18.6515 1455.69 22.2973 Q1459.16 25.9431 1459.16 33.3505 Z" fill="#000000" fill-rule="nonzero" fill-opacity="1" /><path clip-path="url(#clip700)" d="M1475.39 10.2314 L1475.39 19.4328 L1486.36 19.4328 L1486.36 23.5705 L1475.39 23.5705 L1475.39 41.163 Q1475.39 45.1271 1476.46 46.2555 Q1477.56 47.384 1480.89 47.384 L1486.36 47.384 L1486.36 51.84 L1480.89 51.84 Q1474.72 51.84 1472.38 49.5541 Q1470.04 47.2393 1470.04 41.163 L1470.04 23.5705 L1466.13 23.5705 L1466.13 19.4328 L1470.04 19.4328 L1470.04 10.2314 L1475.39 10.2314 Z" fill="#000000" fill-rule="nonzero" fill-opacity="1" /><path clip-path="url(#clip700)" d="M1517.46 10.2314 L1517.46 19.4328 L1528.43 19.4328 L1528.43 23.5705 L1517.46 23.5705 L1517.46 41.163 Q1517.46 45.1271 1518.53 46.2555 Q1519.63 47.384 1522.96 47.384 L1528.43 47.384 L1528.43 51.84 L1522.96 51.84 Q1516.8 51.84 1514.45 49.5541 Q1512.11 47.2393 1512.11 41.163 L1512.11 23.5705 L1508.2 23.5705 L1508.2 19.4328 L1512.11 19.4328 L1512.11 10.2314 L1517.46 10.2314 Z" fill="#000000" fill-rule="nonzero" fill-opacity="1" /><path clip-path="url(#clip700)" d="M1536.12 24.9304 L1573.22 24.9304 L1573.22 29.7915 L1536.12 29.7915 L1536.12 24.9304 M1536.12 36.7359 L1573.22 36.7359 L1573.22 41.6549 L1536.12 41.6549 L1536.12 36.7359 Z" fill="#000000" fill-rule="nonzero" fill-opacity="1" /><path clip-path="url(#clip700)" d="M1643.36 46.921 L1652.91 46.921 L1652.91 13.964 L1642.52 16.0474 L1642.52 10.7233 L1652.85 8.64 L1658.69 8.64 L1658.69 46.921 L1668.24 46.921 L1668.24 51.84 L1643.36 51.84 L1643.36 46.921 Z" fill="#000000" fill-rule="nonzero" fill-opacity="1" /><path clip-path="url(#clip700)" d="M1680.05 44.4905 L1686.15 44.4905 L1686.15 51.84 L1680.05 51.84 L1680.05 44.4905 Z" fill="#000000" fill-rule="nonzero" fill-opacity="1" /><path clip-path="url(#clip700)" d="M1711.38 12.4884 Q1706.87 12.4884 1704.58 16.9444 Q1702.33 21.3714 1702.33 30.2834 Q1702.33 39.1665 1704.58 43.6225 Q1706.87 48.0495 1711.38 48.0495 Q1715.93 48.0495 1718.18 43.6225 Q1720.47 39.1665 1720.47 30.2834 Q1720.47 21.3714 1718.18 16.9444 Q1715.93 12.4884 1711.38 12.4884 M1711.38 7.85875 Q1718.65 7.85875 1722.47 13.6168 Q1726.31 19.346 1726.31 30.2834 Q1726.31 41.1919 1722.47 46.95 Q1718.65 52.6791 1711.38 52.6791 Q1704.12 52.6791 1700.27 46.95 Q1696.45 41.1919 1696.45 30.2834 Q1696.45 19.346 1700.27 13.6168 Q1704.12 7.85875 1711.38 7.85875 Z" fill="#000000" fill-rule="nonzero" fill-opacity="1" /><path clip-path="url(#clip700)" d="M1749.09 12.4884 Q1744.57 12.4884 1742.29 16.9444 Q1740.03 21.3714 1740.03 30.2834 Q1740.03 39.1665 1742.29 43.6225 Q1744.57 48.0495 1749.09 48.0495 Q1753.63 48.0495 1755.89 43.6225 Q1758.17 39.1665 1758.17 30.2834 Q1758.17 21.3714 1755.89 16.9444 Q1753.63 12.4884 1749.09 12.4884 M1749.09 7.85875 Q1756.35 7.85875 1760.17 13.6168 Q1764.02 19.346 1764.02 30.2834 Q1764.02 41.1919 1760.17 46.95 Q1756.35 52.6791 1749.09 52.6791 Q1741.82 52.6791 1737.98 46.95 Q1734.16 41.1919 1734.16 30.2834 Q1734.16 19.346 1737.98 13.6168 Q1741.82 7.85875 1749.09 7.85875 Z" fill="#000000" fill-rule="nonzero" fill-opacity="1" /><path clip-path="url(#clip700)" d="M1786.79 12.4884 Q1782.27 12.4884 1779.99 16.9444 Q1777.73 21.3714 1777.73 30.2834 Q1777.73 39.1665 1779.99 43.6225 Q1782.27 48.0495 1786.79 48.0495 Q1791.33 48.0495 1793.59 43.6225 Q1795.87 39.1665 1795.87 30.2834 Q1795.87 21.3714 1793.59 16.9444 Q1791.33 12.4884 1786.79 12.4884 M1786.79 7.85875 Q1794.05 7.85875 1797.87 13.6168 Q1801.72 19.346 1801.72 30.2834 Q1801.72 41.1919 1797.87 46.95 Q1794.05 52.6791 1786.79 52.6791 Q1779.53 52.6791 1775.68 46.95 Q1771.86 41.1919 1771.86 30.2834 Q1771.86 19.346 1775.68 13.6168 Q1779.53 7.85875 1786.79 7.85875 Z" fill="#000000" fill-rule="nonzero" fill-opacity="1" /><polyline clip-path="url(#clip701)" style="stroke:#009af9; stroke-linecap:round; stroke-linejoin:round; stroke-width:4; stroke-opacity:1; fill:none" points="318.278,996.158 322.086,990.242 325.903,984.003 329.73,977.492 333.569,970.768 337.42,963.902 341.284,956.975 345.161,950.08 349.051,943.318 352.956,936.802 356.876,930.652 360.809,924.994 364.755,919.957 368.715,915.668 372.685,912.252 376.666,909.824 380.654,908.484 384.649,908.317 388.647,909.387 392.647,911.735 396.645,915.375 400.64,920.301 404.629,926.481 408.609,933.859 412.579,942.365 416.537,951.91 420.481,962.397 424.41,973.718 428.323,985.764 432.219,998.423 436.099,1011.59 439.961,1025.15 443.806,1039 447.634,1053.06 451.445,1067.23 455.239,1081.44 459.017,1095.61 462.78,1109.67 466.529,1123.58 470.263,1137.27 473.983,1150.7 477.691,1163.85 481.387,1176.66 485.071,1189.13 488.745,1201.22 492.409,1212.93 496.064,1224.24 499.71,1235.15 503.348,1245.65 506.979,1255.74 510.603,1265.43 514.22,1274.71 517.831,1283.59 521.436,1292.08 525.036,1300.19 528.631,1307.92 532.221,1315.27 535.807,1322.25 539.388,1328.87 542.965,1335.13 546.538,1341.02 550.108,1346.56 553.673,1351.73 557.236,1356.55 560.795,1361 564.35,1365.08 567.903,1368.79 571.453,1372.12 575.001,1375.06 578.546,1377.62 582.089,1379.78 585.629,1381.53 589.169,1382.88 592.706,1383.8 596.243,1384.3 599.779,1384.37 603.313,1384 606.848,1383.17 610.382,1381.89 613.917,1380.14 617.452,1377.93 620.988,1375.23 624.525,1372.04 628.064,1368.37 631.604,1364.19 635.147,1359.51 638.693,1354.32 642.241,1348.62 645.794,1342.41 649.35,1335.67 652.911,1328.42 656.476,1320.66 660.047,1312.38 663.624,1303.59 667.206,1294.29 670.796,1284.5 674.392,1274.21 677.996,1263.44 681.608,1252.19 685.228,1240.48 688.856,1228.33 692.494,1215.73 696.141,1202.72 699.798,1189.3 703.464,1175.49 707.141,1161.3 710.829,1146.76 714.527,1131.87 718.236,1116.65 721.956,1101.12 725.687,1085.29 729.43,1069.17 733.184,1052.77 736.951,1036.1 740.728,1019.16 744.518,1001.96 748.32,984.496 752.135,966.777 755.962,948.799 759.802,930.56 763.656,912.057 767.523,893.29 771.405,874.258 775.303,854.964 779.216,835.413 783.146,815.618 787.094,795.6 791.06,775.387 795.047,755.022 799.056,734.564 803.087,714.087 807.142,693.69 811.223,673.491 815.33,653.637 819.464,634.296 823.626,615.665 827.816,597.96 832.033,581.412 836.276,566.26 840.542,552.738 844.828,541.062 849.132,531.417 853.449,523.945 857.774,518.733 862.102,515.814 866.429,515.164 870.75,516.708 875.062,520.331 879.36,525.884 883.642,533.195 887.906,542.078 892.149,552.339 896.371,563.779 900.57,576.204 904.745,589.422 908.898,603.249 913.027,617.512 917.135,632.054 921.221,646.731 925.286,661.419 929.333,676.01 933.362,690.419 937.375,704.579 941.374,718.443 945.36,731.981 949.334,745.18 953.297,758.044 957.252,770.585 961.198,782.827 965.137,794.8 969.069,806.538 972.994,818.076 976.914,829.449 980.827,840.687 984.734,851.818 988.635,862.864 992.529,873.84 996.418,884.757 1000.3,895.622 1004.17,906.437 1008.04,917.198 1011.9,927.902 1015.76,938.542 1019.6,949.109 1023.44,959.594 1027.27,969.988 1031.1,980.28 1034.91,990.461 1038.72,1000.52 1042.53,1010.45 1046.32,1020.24 1050.11,1029.87 1053.89,1039.35 1057.66,1048.65 1061.43,1057.77 1065.19,1066.71 1068.94,1075.44 1072.69,1083.96 1076.43,1092.26 1080.16,1100.32 1083.89,1108.14 1087.61,1115.7 1091.32,1122.99 1095.03,1129.99 1098.73,1136.68 1102.43,1143.05 1106.12,1149.08 1109.8,1154.75 1113.48,1160.03 1117.15,1164.91 1120.82,1169.37 1124.48,1173.37 1128.14,1176.9 1131.79,1179.94 1135.44,1182.45 1139.09,1184.43 1142.74,1185.84 1146.38,1186.67 1150.02,1186.91 1153.66,1186.53 1157.3,1185.52 1160.94,1183.88 1164.58,1181.6 1168.22,1178.68 1171.86,1175.1 1175.51,1170.88 1179.16,1166.02 1182.82,1160.53 1186.48,1154.41 1190.14,1147.69 1193.82,1140.38 1197.5,1132.5 1201.18,1124.09 1204.88,1115.16 1208.59,1105.75 1212.3,1095.9 1216.03,1085.64 1219.76,1075.03 1223.51,1064.1 1227.27,1052.9 1231.04,1041.49 1234.82,1029.92 1238.61,1018.24 1242.42,1006.5 1246.23,994.762 1250.06,983.066 1253.89,971.457 1257.74,959.972 1261.59,948.641 1265.46,937.487 1269.33,926.52 1273.2,915.745 1277.08,905.151 1280.97,894.723 1284.86,884.432 1288.76,874.245 1292.66,864.117 1296.56,854.004 1300.46,843.852 1304.37,833.609 1308.28,823.221 1312.19,812.637 1316.1,801.806 1320.02,790.684 1323.94,779.23 1327.87,767.411 1331.8,755.198 1335.74,742.574 1339.69,729.525 1343.64,716.048 1347.6,702.145 1351.58,687.827 1355.56,673.11 1359.55,658.017 1363.55,642.573 1367.57,626.807 1371.6,610.75 1375.64,594.431 1379.69,577.878 1383.76,561.118 1387.84,544.173 1391.93,527.06 1396.04,509.795 1400.16,492.39 1404.29,474.853 1408.44,457.194 1412.6,439.423 1416.78,421.555 1420.98,403.605 1425.19,385.6 1429.41,367.57 1433.66,349.556 1437.92,331.609 1442.21,313.793 1446.51,296.183 1450.84,278.87 1455.19,261.961 1459.56,245.582 1463.95,229.876 1468.37,215.007 1472.81,201.16 1477.27,188.532 1481.75,177.335 1486.26,167.78 1490.78,160.069 1495.31,154.379 1499.85,150.848 1504.4,149.557 1508.95,150.527 1513.49,153.71 1518.02,158.996 1522.54,166.219 1527.04,175.179 1531.52,185.648 1535.97,197.396 1540.41,210.197 1544.83,223.843 1549.22,238.152 1553.6,252.969 1557.95,268.17 1562.29,283.659 1566.61,299.372 1570.92,315.267 1575.21,331.329 1579.49,347.562 1583.76,363.987 1588.02,380.64 1592.27,397.568 1596.51,414.826 1600.74,432.47 1604.97,450.56 1609.18,469.151 1613.38,488.289 1617.56,508.011 1621.74,528.339 1625.9,549.28 1630.04,570.82 1634.17,592.931 1638.27,615.565 1642.36,638.659 1646.42,662.139 1650.47,685.918 1654.49,709.905 1658.49,734.005 1662.46,758.122 1666.42,782.164 1670.35,806.041 1674.26,829.671 1678.14,852.978 1682.01,875.894 1685.86,898.358 1689.68,920.318 1693.49,941.728 1697.28,962.549 1701.06,982.75 1704.82,1002.3 1708.56,1021.19 1712.3,1039.39 1716.01,1056.9 1719.72,1073.69 1723.42,1089.78 1727.1,1105.16 1730.78,1119.83 1734.44,1133.79 1738.1,1147.05 1741.75,1159.62 1745.39,1171.5 1749.03,1182.71 1752.66,1193.27 1756.29,1203.17 1759.91,1212.45 1763.52,1221.1 1767.14,1229.16 1770.75,1236.64 1774.35,1243.54 1777.95,1249.89 1781.56,1255.71 1785.15,1261 1788.75,1265.77 1792.35,1270.05 1795.94,1273.84 1799.53,1277.15 1803.12,1279.99 1806.72,1282.36 1810.31,1284.28 1813.89,1285.74 1817.48,1286.74 1821.07,1287.29 1824.66,1287.38 1828.25,1287.02 1831.84,1286.2 1835.43,1284.92 1839.02,1283.16 1842.61,1280.94 1846.2,1278.23 1849.8,1275.03 1853.4,1271.35 1857,1267.16 1860.6,1262.46 1864.2,1257.24 1867.81,1251.5 1871.42,1245.24 1875.04,1238.44 1878.66,1231.1 1882.29,1223.22 1885.92,1214.8 1889.56,1205.85 1893.21,1196.37 1896.87,1186.36 1900.53,1175.84 1904.21,1164.83 1907.89,1153.34 1911.59,1141.41 1915.3,1129.06 1919.02,1116.35 1922.75,1103.3 1926.5,1089.97 1930.27,1076.44 1934.05,1062.75 1937.84,1048.98 1941.65,1035.23 1945.48,1021.56 1949.33,1008.08 1953.19,994.884 1957.06,982.058 1960.96,969.701 1964.86,957.905 1968.78,946.755 1972.72,936.326 1976.66,926.685 1980.61,917.881 1984.58,909.952 1988.54,902.919 1992.52,896.786 1996.49,891.544 2000.47,887.169 2004.44,883.623 2008.42,880.861 2012.39,878.828 2016.36,877.461 2020.33,876.696 2024.29,876.462 2028.24,876.689 2032.19,877.308 2036.13,878.251 2040.07,879.452 2044,880.85 2047.93,882.392 2051.85,884.028 2055.77,885.719 2059.68,887.433 2063.59,889.147 2067.5,890.85 2071.41,892.536 2075.31,894.213 2079.21,895.892 2083.12,897.597 2087.02,899.352 2090.92,901.188 2094.83,903.138 2098.73,905.233 2102.63,907.504 2106.53,909.977 2110.44,912.672 2114.34,915.602 2118.23,918.774 2122.13,922.186 2126.02,925.831 2129.91,929.693 2133.79,933.751 2137.67,937.983 2141.54,942.358 2145.41,946.848 2149.28,951.421 2153.13,956.047 2156.99,960.697 2160.83,965.34 2164.67,969.953 2168.51,974.511 2172.34,978.994 2176.17,983.384 2179.99,987.666 2183.81,991.828 2187.62,995.858 2191.43,999.749 2195.24,1003.49 2199.04,1007.08 2202.84,1010.5 2206.64,1013.75 2210.43,1016.82 2214.21,1019.68 2218,1022.34 2221.78,1024.77 2225.56,1026.95 2229.33,1028.86 2233.1,1030.48 2236.87,1031.79 2240.64,1032.76 2244.4,1033.37 2248.17,1033.6 2251.93,1033.42 2255.69,1032.82 2259.45,1031.79 2263.21,1030.3 2266.97,1028.36 2270.74,1025.94 2274.5,1023.06 2278.27,1019.7 2282.05,1015.87 2285.83,1011.59 2289.61,1006.86 2293.4,1001.71 "/>
<polyline clip-path="url(#clip701)" style="stroke:#e26f46; stroke-linecap:round; stroke-linejoin:round; stroke-width:4; stroke-opacity:1; fill:none" points="314.96,957.59 318.825,951.379 322.69,945.401 326.555,939.716 330.42,934.383 334.286,929.456 338.151,924.986 342.016,921.022 345.881,917.605 349.746,914.773 353.611,912.559 357.476,910.99 361.341,910.089 365.206,909.874 369.071,910.361 372.936,911.559 376.801,913.477 380.667,916.119 384.532,919.486 388.397,923.579 392.262,928.391 396.127,933.917 399.992,940.145 403.857,947.062 407.722,954.647 411.587,962.878 415.452,971.726 419.317,981.156 423.182,991.13 427.048,1001.6 430.913,1012.53 434.778,1023.85 438.643,1035.52 442.508,1047.48 446.373,1059.66 450.238,1072.01 454.103,1084.48 457.968,1097.01 461.833,1109.55 465.698,1122.06 469.564,1134.48 473.429,1146.8 477.294,1158.96 481.159,1170.95 485.024,1182.74 488.889,1194.32 492.754,1205.66 496.619,1216.77 500.484,1227.63 504.349,1238.22 508.214,1248.55 512.079,1258.61 515.945,1268.39 519.81,1277.88 523.675,1287.06 527.54,1295.94 531.405,1304.5 535.27,1312.73 539.135,1320.6 543,1328.11 546.865,1335.24 550.73,1341.97 554.595,1348.29 558.46,1354.17 562.326,1359.6 566.191,1364.56 570.056,1369.03 573.921,1373 577.786,1376.46 581.651,1379.38 585.516,1381.77 589.381,1383.6 593.246,1384.87 597.111,1385.58 600.976,1385.71 604.841,1385.27 608.707,1384.25 612.572,1382.64 616.437,1380.46 620.302,1377.69 624.167,1374.33 628.032,1370.39 631.897,1365.87 635.762,1360.75 639.627,1355.05 643.492,1348.76 647.357,1341.87 651.223,1334.39 655.088,1326.31 658.953,1317.63 662.818,1308.36 666.683,1298.5 670.548,1288.04 674.413,1277.01 678.278,1265.4 682.143,1253.23 686.008,1240.51 689.873,1227.26 693.738,1213.5 697.604,1199.26 701.469,1184.56 705.334,1169.43 709.199,1153.89 713.064,1137.98 716.929,1121.73 720.794,1105.17 724.659,1088.34 728.524,1071.25 732.389,1053.94 736.254,1036.44 740.119,1018.77 743.985,1000.96 747.85,983.029 751.715,964.999 755.58,946.89 759.445,928.722 763.31,910.514 767.175,892.285 771.04,874.055 774.905,855.848 778.77,837.686 782.635,819.596 786.501,801.609 790.366,783.758 794.231,766.079 798.096,748.614 801.961,731.408 805.826,714.509 809.691,697.97 813.556,681.846 817.421,666.196 821.286,651.083 825.151,636.569 829.016,622.723 832.882,609.61 836.747,597.297 840.612,585.853 844.477,575.342 848.342,565.825 852.207,557.358 856.072,549.992 859.937,543.768 863.802,538.719 867.667,534.866 871.532,532.219 875.397,530.777 879.263,530.527 883.128,531.449 886.993,533.51 890.858,536.673 894.723,540.895 898.588,546.13 902.453,552.333 906.318,559.456 910.183,567.455 914.048,576.291 917.913,585.923 921.778,596.316 925.644,607.436 929.509,619.251 933.374,631.727 937.239,644.831 941.104,658.526 944.969,672.775 948.834,687.535 952.699,702.759 956.564,718.399 960.429,734.401 964.294,750.709 968.16,767.266 972.025,784.013 975.89,800.889 979.755,817.836 983.62,834.796 987.485,851.713 991.35,868.534 995.215,885.208 999.08,901.688 1002.95,917.93 1006.81,933.892 1010.68,949.538 1014.54,964.831 1018.41,979.739 1022.27,994.234 1026.14,1008.29 1030,1021.87 1033.87,1034.97 1037.73,1047.55 1041.6,1059.6 1045.46,1071.09 1049.33,1082.02 1053.19,1092.36 1057.06,1102.11 1060.92,1111.24 1064.79,1119.76 1068.65,1127.64 1072.52,1134.9 1076.38,1141.51 1080.25,1147.47 1084.11,1152.8 1087.98,1157.49 1091.84,1161.54 1095.71,1164.96 1099.57,1167.76 1103.44,1169.95 1107.3,1171.55 1111.17,1172.56 1115.03,1173.01 1118.9,1172.91 1122.76,1172.28 1126.63,1171.14 1130.49,1169.51 1134.36,1167.41 1138.22,1164.87 1142.09,1161.91 1145.95,1158.54 1149.82,1154.79 1153.68,1150.69 1157.55,1146.25 1161.41,1141.49 1165.28,1136.43 1169.14,1131.09 1173.01,1125.5 1176.87,1119.65 1180.74,1113.58 1184.6,1107.3 1188.47,1100.81 1192.33,1094.15 1196.2,1087.3 1200.06,1080.3 1203.93,1073.15 1207.79,1065.86 1211.66,1058.44 1215.52,1050.91 1219.39,1043.27 1223.26,1035.52 1227.12,1027.69 1230.99,1019.77 1234.85,1011.78 1238.72,1003.7 1242.58,995.559 1246.45,987.345 1250.31,979.058 1254.18,970.698 1258.04,962.258 1261.91,953.734 1265.77,945.114 1269.64,936.389 1273.5,927.545 1277.37,918.566 1281.23,909.435 1285.1,900.133 1288.96,890.64 1292.83,880.935 1296.69,870.995 1300.56,860.798 1304.42,850.324 1308.29,839.55 1312.15,828.457 1316.02,817.028 1319.88,805.247 1323.75,793.102 1327.61,780.583 1331.48,767.685 1335.34,754.406 1339.21,740.75 1343.07,726.723 1346.94,712.337 1350.8,697.61 1354.67,682.563 1358.53,667.22 1362.4,651.612 1366.26,635.77 1370.13,619.729 1373.99,603.527 1377.86,587.201 1381.72,570.788 1385.59,554.325 1389.45,537.845 1393.32,521.379 1397.18,504.956 1401.05,488.596 1404.91,472.321 1408.78,456.145 1412.64,440.079 1416.51,424.134 1420.37,408.317 1424.24,392.639 1428.1,377.11 1431.97,361.745 1435.83,346.566 1439.7,331.598 1443.57,316.877 1447.43,302.446 1451.3,288.354 1455.16,274.662 1459.03,261.433 1462.89,248.74 1466.76,236.656 1470.62,225.259 1474.49,214.625 1478.35,204.829 1482.22,195.943 1486.08,188.034 1489.95,181.159 1493.81,175.372 1497.68,170.714 1501.54,167.219 1505.41,164.912 1509.27,163.805 1513.14,163.907 1517,165.212 1520.87,167.711 1524.73,171.385 1528.6,176.211 1532.46,182.157 1536.33,189.19 1540.19,197.271 1544.06,206.361 1547.92,216.415 1551.79,227.39 1555.65,239.242 1559.52,251.925 1563.38,265.396 1567.25,279.612 1571.11,294.532 1574.98,310.118 1578.84,326.33 1582.71,343.136 1586.57,360.501 1590.44,378.395 1594.3,396.788 1598.17,415.653 1602.03,434.961 1605.9,454.686 1609.76,474.8 1613.63,495.275 1617.49,516.082 1621.36,537.19 1625.22,558.566 1629.09,580.176 1632.95,601.983 1636.82,623.949 1640.68,646.035 1644.55,668.199 1648.41,690.399 1652.28,712.594 1656.14,734.738 1660.01,756.791 1663.87,778.71 1667.74,800.452 1671.61,821.978 1675.47,843.248 1679.34,864.226 1683.2,884.876 1687.07,905.165 1690.93,925.062 1694.8,944.541 1698.66,963.575 1702.53,982.144 1706.39,1000.23 1710.26,1017.81 1714.12,1034.88 1717.99,1051.43 1721.85,1067.44 1725.72,1082.92 1729.58,1097.85 1733.45,1112.24 1737.31,1126.08 1741.18,1139.37 1745.04,1152.12 1748.91,1164.32 1752.77,1175.98 1756.64,1187.09 1760.5,1197.65 1764.37,1207.66 1768.23,1217.12 1772.1,1226.03 1775.96,1234.39 1779.83,1242.19 1783.69,1249.43 1787.56,1256.1 1791.42,1262.21 1795.29,1267.75 1799.15,1272.71 1803.02,1277.1 1806.88,1280.9 1810.75,1284.13 1814.61,1286.77 1818.48,1288.82 1822.34,1290.29 1826.21,1291.17 1830.07,1291.46 1833.94,1291.16 1837.8,1290.27 1841.67,1288.79 1845.53,1286.72 1849.4,1284.05 1853.26,1280.79 1857.13,1276.94 1860.99,1272.5 1864.86,1267.47 1868.72,1261.84 1872.59,1255.63 1876.45,1248.83 1880.32,1241.45 1884.18,1233.5 1888.05,1224.98 1891.91,1215.91 1895.78,1206.29 1899.65,1196.14 1903.51,1185.48 1907.38,1174.33 1911.24,1162.71 1915.11,1150.65 1918.97,1138.18 1922.84,1125.34 1926.7,1112.16 1930.57,1098.69 1934.43,1084.97 1938.3,1071.05 1942.16,1057 1946.03,1042.85 1949.89,1028.68 1953.76,1014.53 1957.62,1000.48 1961.49,986.592 1965.35,972.918 1969.22,959.523 1973.08,946.468 1976.95,933.808 1980.81,921.599 1984.68,909.892 1988.54,898.734 1992.41,888.169 1996.27,878.236 2000.14,868.97 2004,860.403 2007.87,852.561 2011.73,845.468 2015.6,839.144 2019.46,833.606 2023.33,828.868 2027.19,824.94 2031.06,821.831 2034.92,819.545 2038.79,818.084 2042.65,817.449 2046.52,817.633 2050.38,818.629 2054.25,820.425 2058.11,823.002 2061.98,826.341 2065.84,830.413 2069.71,835.186 2073.57,840.622 2077.44,846.68 2081.3,853.312 2085.17,860.468 2089.03,868.092 2092.9,876.128 2096.76,884.516 2100.63,893.196 2104.49,902.108 2108.36,911.19 2112.22,920.383 2116.09,929.627 2119.95,938.864 2123.82,948.038 2127.69,957.095 2131.55,965.982 2135.42,974.651 2139.28,983.053 2143.15,991.145 2147.01,998.886 2150.88,1006.24 2154.74,1013.17 2158.61,1019.65 2162.47,1025.66 2166.34,1031.17 2170.2,1036.17 2174.07,1040.64 2177.93,1044.58 2181.8,1047.98 2185.66,1050.84 2189.53,1053.17 2193.39,1054.96 2197.26,1056.23 2201.12,1056.98 2204.99,1057.22 2208.85,1056.97 2212.72,1056.24 2216.58,1055.03 2220.45,1053.37 2224.31,1051.26 2228.18,1048.71 2232.04,1045.74 2235.91,1042.36 2239.77,1038.59 2243.64,1034.44 2247.5,1029.92 2251.37,1025.05 2255.23,1019.86 2259.1,1014.36 2262.96,1008.6 2266.83,1002.59 2270.69,996.39 2274.56,990.025 2278.42,983.549 2282.29,977.011 2286.15,970.466 2290.02,963.972 "/>
<polyline clip-path="url(#clip701)" style="stroke:#3da44d; stroke-linecap:round; stroke-linejoin:round; stroke-width:4; stroke-opacity:1; fill:none" points="314.96,939.977 318.825,934.334 322.69,929.14 326.555,924.435 330.42,920.252 334.286,916.624 338.151,913.576 342.016,911.129 345.881,909.301 349.746,908.104 353.611,907.547 357.476,907.635 361.341,908.368 365.206,909.744 369.071,911.758 372.936,914.4 376.801,917.661 380.667,921.528 384.532,925.986 388.397,931.02 392.262,936.611 396.127,942.742 399.992,949.392 403.857,956.542 407.722,964.17 411.587,972.254 415.452,980.77 419.317,989.693 423.182,998.998 427.048,1008.66 430.913,1018.65 434.778,1028.93 438.643,1039.48 442.508,1050.27 446.373,1061.26 450.238,1072.43 454.103,1083.73 457.968,1095.14 461.833,1106.62 465.698,1118.15 469.564,1129.68 473.429,1141.2 477.294,1152.67 481.159,1164.06 485.024,1175.35 488.889,1186.53 492.754,1197.56 496.619,1208.43 500.484,1219.12 504.349,1229.61 508.214,1239.9 512.079,1249.96 515.945,1259.79 519.81,1269.37 523.675,1278.68 527.54,1287.72 531.405,1296.46 535.27,1304.9 539.135,1313.02 543,1320.8 546.865,1328.22 550.73,1335.27 554.595,1341.93 558.46,1348.18 562.326,1353.99 566.191,1359.36 570.056,1364.26 573.921,1368.66 577.786,1372.56 581.651,1375.94 585.516,1378.78 589.381,1381.06 593.246,1382.77 597.111,1383.9 600.976,1384.44 604.841,1384.38 608.707,1383.72 612.572,1382.46 616.437,1380.58 620.302,1378.08 624.167,1374.98 628.032,1371.25 631.897,1366.92 635.762,1361.97 639.627,1356.41 643.492,1350.23 647.357,1343.45 651.223,1336.05 655.088,1328.04 658.953,1319.42 662.818,1310.2 666.683,1300.37 670.548,1289.95 674.413,1278.94 678.278,1267.34 682.143,1255.18 686.008,1242.46 689.873,1229.21 693.738,1215.44 697.604,1201.18 701.469,1186.46 705.334,1171.3 709.199,1155.74 713.064,1139.8 716.929,1123.52 720.794,1106.93 724.659,1090.07 728.524,1072.96 732.389,1055.65 736.254,1038.15 740.119,1020.51 743.985,1002.74 747.85,984.884 751.715,966.956 755.58,948.984 759.445,930.992 763.31,913.003 767.175,895.04 771.04,877.125 774.905,859.281 778.77,841.534 782.635,823.907 786.501,806.429 790.366,789.127 794.231,772.032 798.096,755.176 801.961,738.596 805.826,722.328 809.691,706.411 813.556,690.887 817.421,675.799 821.286,661.193 825.151,647.116 829.016,633.617 832.882,620.746 836.747,608.554 840.612,597.093 844.477,586.415 848.342,576.573 852.207,567.616 856.072,559.596 859.937,552.559 863.802,546.549 867.667,541.604 871.532,537.758 875.397,535.039 879.263,533.464 883.128,533.046 886.993,533.787 890.858,535.68 894.723,538.711 898.588,542.856 902.453,548.082 906.318,554.352 910.183,561.62 914.048,569.838 917.913,578.953 921.778,588.912 925.644,599.658 929.509,611.137 933.374,623.295 937.239,636.08 941.104,649.44 944.969,663.328 948.834,677.694 952.699,692.494 956.564,707.681 960.429,723.209 964.294,739.03 968.16,755.098 972.025,771.361 975.89,787.768 979.755,804.265 983.62,820.798 987.485,837.31 991.35,853.744 995.215,870.046 999.08,886.16 1002.95,902.035 1006.81,917.622 1010.68,932.877 1014.54,947.762 1018.41,962.242 1022.27,976.29 1026.14,989.885 1030,1003.01 1033.87,1015.66 1037.73,1027.82 1041.6,1039.49 1045.46,1050.68 1049.33,1061.4 1053.19,1071.64 1057.06,1081.43 1060.92,1090.77 1064.79,1099.67 1068.65,1108.15 1072.52,1116.21 1076.38,1123.85 1080.25,1131.1 1084.11,1137.94 1087.98,1144.38 1091.84,1150.43 1095.71,1156.08 1099.57,1161.32 1103.44,1166.15 1107.3,1170.56 1111.17,1174.54 1115.03,1178.07 1118.9,1181.16 1122.76,1183.77 1126.63,1185.89 1130.49,1187.51 1134.36,1188.61 1138.22,1189.17 1142.09,1189.18 1145.95,1188.61 1149.82,1187.45 1153.68,1185.69 1157.55,1183.31 1161.41,1180.31 1165.28,1176.67 1169.14,1172.4 1173.01,1167.5 1176.87,1161.98 1180.74,1155.86 1184.6,1149.16 1188.47,1141.9 1192.33,1134.12 1196.2,1125.86 1200.06,1117.16 1203.93,1108.07 1207.79,1098.66 1211.66,1088.96 1215.52,1079.03 1219.39,1068.93 1223.26,1058.72 1227.12,1048.43 1230.99,1038.11 1234.85,1027.8 1238.72,1017.54 1242.58,1007.34 1246.45,997.216 1250.31,987.183 1254.18,977.238 1258.04,967.372 1261.91,957.571 1265.77,947.811 1269.64,938.063 1273.5,928.295 1277.37,918.469 1281.23,908.545 1285.1,898.481 1288.96,888.236 1292.83,877.77 1296.69,867.045 1300.56,856.026 1304.42,844.682 1308.29,832.99 1312.15,820.929 1316.02,808.486 1319.88,795.656 1323.75,782.437 1327.61,768.838 1331.48,754.871 1335.34,740.554 1339.21,725.912 1343.07,710.974 1346.94,695.77 1350.8,680.336 1354.67,664.708 1358.53,648.923 1362.4,633.016 1366.26,617.022 1370.13,600.973 1373.99,584.898 1377.86,568.822 1381.72,552.765 1385.59,536.745 1389.45,520.775 1393.32,504.864 1397.18,489.019 1401.05,473.246 1404.91,457.551 1408.78,441.939 1412.64,426.417 1416.51,410.998 1420.37,395.694 1424.24,380.527 1428.1,365.52 1431.97,350.706 1435.83,336.121 1439.7,321.806 1443.57,307.81 1447.43,294.184 1451.3,280.983 1455.16,268.266 1459.03,256.091 1462.89,244.518 1466.76,233.607 1470.62,223.415 1474.49,213.997 1478.35,205.406 1482.22,197.688 1486.08,190.886 1489.95,185.04 1493.81,180.181 1497.68,176.336 1501.54,173.527 1505.41,171.77 1509.27,171.075 1513.14,171.447 1517,172.886 1520.87,175.385 1524.73,178.934 1528.6,183.52 1532.46,189.123 1536.33,195.72 1540.19,203.286 1544.06,211.792 1547.92,221.206 1551.79,231.494 1555.65,242.622 1559.52,254.552 1563.38,267.248 1567.25,280.67 1571.11,294.78 1574.98,309.542 1578.84,324.917 1582.71,340.87 1586.57,357.367 1590.44,374.374 1594.3,391.861 1598.17,409.798 1602.03,428.157 1605.9,446.915 1609.76,466.047 1613.63,485.531 1617.49,505.346 1621.36,525.473 1625.22,545.892 1629.09,566.583 1632.95,587.528 1636.82,608.706 1640.68,630.095 1644.55,651.672 1648.41,673.414 1652.28,695.293 1656.14,717.282 1660.01,739.349 1663.87,761.463 1667.74,783.589 1671.61,805.69 1675.47,827.728 1679.34,849.662 1683.2,871.452 1687.07,893.053 1690.93,914.422 1694.8,935.514 1698.66,956.283 1702.53,976.685 1706.39,996.676 1710.26,1016.21 1714.12,1035.26 1717.99,1053.77 1721.85,1071.72 1725.72,1089.07 1729.58,1105.8 1733.45,1121.89 1737.31,1137.31 1741.18,1152.06 1745.04,1166.13 1748.91,1179.51 1752.77,1192.2 1756.64,1204.19 1760.5,1215.5 1764.37,1226.11 1768.23,1236.04 1772.1,1245.28 1775.96,1253.85 1779.83,1261.73 1783.69,1268.95 1787.56,1275.49 1791.42,1281.37 1795.29,1286.58 1799.15,1291.13 1803.02,1295.03 1806.88,1298.28 1810.75,1300.88 1814.61,1302.85 1818.48,1304.19 1822.34,1304.9 1826.21,1304.99 1830.07,1304.46 1833.94,1303.32 1837.8,1301.57 1841.67,1299.2 1845.53,1296.22 1849.4,1292.62 1853.26,1288.39 1857.13,1283.53 1860.99,1278.04 1864.86,1271.91 1868.72,1265.13 1872.59,1257.71 1876.45,1249.64 1880.32,1240.94 1884.18,1231.6 1888.05,1221.64 1891.91,1211.09 1895.78,1199.97 1899.65,1188.3 1903.51,1176.12 1907.38,1163.48 1911.24,1150.42 1915.11,1137 1918.97,1123.27 1922.84,1109.29 1926.7,1095.13 1930.57,1080.85 1934.43,1066.51 1938.3,1052.19 1942.16,1037.94 1946.03,1023.82 1949.89,1009.9 1953.76,996.223 1957.62,982.843 1961.49,969.802 1965.35,957.14 1969.22,944.893 1973.08,933.091 1976.95,921.759 1980.81,910.922 1984.68,900.598 1988.54,890.807 1992.41,881.564 1996.27,872.885 2000.14,864.786 2004,857.281 2007.87,850.386 2011.73,844.119 2015.6,838.497 2019.46,833.538 2023.33,829.261 2027.19,825.684 2031.06,822.825 2034.92,820.702 2038.79,819.33 2042.65,818.721 2046.52,818.884 2050.38,819.825 2054.25,821.544 2058.11,824.039 2061.98,827.299 2065.84,831.311 2069.71,836.054 2073.57,841.504 2077.44,847.63 2081.3,854.397 2085.17,861.765 2089.03,869.69 2092.9,878.121 2096.76,887.008 2100.63,896.292 2104.49,905.915 2108.36,915.813 2112.22,925.922 2116.09,936.174 2119.95,946.499 2123.82,956.829 2127.69,967.094 2131.55,977.223 2135.42,987.149 2139.28,996.804 2143.15,1006.12 2147.01,1015.05 2150.88,1023.52 2154.74,1031.49 2158.61,1038.9 2162.47,1045.71 2166.34,1051.89 2170.2,1057.4 2174.07,1062.22 2177.93,1066.31 2181.8,1069.68 2185.66,1072.31 2189.53,1074.19 2193.39,1075.33 2197.26,1075.73 2201.12,1075.41 2204.99,1074.38 2208.85,1072.65 2212.72,1070.26 2216.58,1067.23 2220.45,1063.6 2224.31,1059.39 2228.18,1054.65 2232.04,1049.41 2235.91,1043.73 2239.77,1037.64 2243.64,1031.2 2247.5,1024.45 2251.37,1017.45 2255.23,1010.26 2259.1,1002.92 2262.96,995.5 2266.83,988.053 2270.69,980.637 2274.56,973.31 2278.42,966.131 2282.29,959.154 2286.15,952.435 2290.02,946.026 "/>
<polyline clip-path="url(#clip701)" style="stroke:#c271d2; stroke-linecap:round; stroke-linejoin:round; stroke-width:4; stroke-opacity:1; fill:none" points="314.96,986.669 318.825,981.782 322.69,976.658 326.555,971.37 330.42,965.992 334.286,960.604 338.151,955.282 342.016,950.106 345.881,945.152 349.746,940.495 353.611,936.207 357.476,932.358 361.341,929.014 365.206,926.238 369.071,924.086 372.936,922.615 376.801,921.874 380.667,921.91 384.532,922.763 388.397,924.47 392.262,927.06 396.127,930.557 399.992,934.975 403.857,940.321 407.722,946.594 411.587,953.779 415.452,961.854 419.317,970.783 423.182,980.523 427.048,991.018 430.913,1002.2 434.778,1014.01 438.643,1026.35 442.508,1039.14 446.373,1052.31 450.238,1065.75 454.103,1079.39 457.968,1093.14 461.833,1106.92 465.698,1120.66 469.564,1134.29 473.429,1147.76 477.294,1161.01 481.159,1174.01 485.024,1186.72 488.889,1199.11 492.754,1211.17 496.619,1222.89 500.484,1234.25 504.349,1245.25 508.214,1255.89 512.079,1266.16 515.945,1276.07 519.81,1285.61 523.675,1294.78 527.54,1303.58 531.405,1311.99 535.27,1320.03 539.135,1327.67 543,1334.9 546.865,1341.71 550.73,1348.1 554.595,1354.04 558.46,1359.51 562.326,1364.52 566.191,1369.03 570.056,1373.03 573.921,1376.51 577.786,1379.46 581.651,1381.87 585.516,1383.72 589.381,1385.02 593.246,1385.75 597.111,1385.91 600.976,1385.5 604.841,1384.51 608.707,1382.96 612.572,1380.83 616.437,1378.14 620.302,1374.89 624.167,1371.06 628.032,1366.67 631.897,1361.72 635.762,1356.2 639.627,1350.12 643.492,1343.46 647.357,1336.22 651.223,1328.4 655.088,1320 658.953,1311.01 662.818,1301.43 666.683,1291.26 670.548,1280.49 674.413,1269.15 678.278,1257.22 682.143,1244.73 686.008,1231.69 689.873,1218.13 693.738,1204.06 697.604,1189.51 701.469,1174.51 705.334,1159.1 709.199,1143.31 713.064,1127.17 716.929,1110.73 720.794,1094.01 724.659,1077.05 728.524,1059.89 732.389,1042.53 736.254,1025.03 740.119,1007.38 743.985,989.619 747.85,971.751 751.715,953.791 755.58,935.746 759.445,917.625 763.31,899.434 767.175,881.18 771.04,862.873 774.905,844.525 778.77,826.153 782.635,807.777 786.501,789.428 790.366,771.14 794.231,752.957 798.096,734.93 801.961,717.12 805.826,699.593 809.691,682.428 813.556,665.705 817.421,649.516 821.286,633.957 825.151,619.126 829.016,605.127 832.882,592.066 836.747,580.047 840.612,569.171 844.477,559.535 848.342,551.227 852.207,544.324 856.072,538.888 859.937,534.964 863.802,532.579 867.667,531.735 871.532,532.414 875.397,534.575 879.263,538.155 883.128,543.072 886.993,549.229 890.858,556.514 894.723,564.81 898.588,573.994 902.453,583.944 906.318,594.546 910.183,605.69 914.048,617.279 917.913,629.228 921.778,641.462 925.644,653.922 929.509,666.556 933.374,679.325 937.239,692.194 941.104,705.136 944.969,718.127 948.834,731.145 952.699,744.168 956.564,757.176 960.429,770.148 964.294,783.06 968.16,795.893 972.025,808.626 975.89,821.238 979.755,833.714 983.62,846.039 987.485,858.202 991.35,870.195 995.215,882.016 999.08,893.665 1002.95,905.144 1006.81,916.461 1010.68,927.622 1014.54,938.64 1018.41,949.523 1022.27,960.282 1026.14,970.927 1030,981.466 1033.87,991.906 1037.73,1002.25 1041.6,1012.5 1045.46,1022.65 1049.33,1032.71 1053.19,1042.65 1057.06,1052.48 1060.92,1062.17 1064.79,1071.71 1068.65,1081.09 1072.52,1090.28 1076.38,1099.26 1080.25,1108.01 1084.11,1116.51 1087.98,1124.72 1091.84,1132.63 1095.71,1140.2 1099.57,1147.41 1103.44,1154.24 1107.3,1160.66 1111.17,1166.65 1115.03,1172.18 1118.9,1177.22 1122.76,1181.76 1126.63,1185.76 1130.49,1189.22 1134.36,1192.1 1138.22,1194.39 1142.09,1196.07 1145.95,1197.11 1149.82,1197.51 1153.68,1197.25 1157.55,1196.32 1161.41,1194.7 1165.28,1192.39 1169.14,1189.39 1173.01,1185.69 1176.87,1181.3 1180.74,1176.23 1184.6,1170.48 1188.47,1164.07 1192.33,1157.04 1196.2,1149.39 1200.06,1141.17 1203.93,1132.42 1207.79,1123.16 1211.66,1113.44 1215.52,1103.32 1219.39,1092.84 1223.26,1082.05 1227.12,1070.99 1230.99,1059.74 1234.85,1048.32 1238.72,1036.79 1242.58,1025.19 1246.45,1013.56 1250.31,1001.94 1254.18,990.348 1258.04,978.814 1261.91,967.351 1265.77,955.968 1269.64,944.667 1273.5,933.44 1277.37,922.276 1281.23,911.156 1285.1,900.052 1288.96,888.936 1292.83,877.771 1296.69,866.518 1300.56,855.137 1304.42,843.586 1308.29,831.821 1312.15,819.802 1316.02,807.491 1319.88,794.854 1323.75,781.859 1327.61,768.485 1331.48,754.714 1335.34,740.537 1339.21,725.953 1343.07,710.969 1346.94,695.601 1350.8,679.872 1354.67,663.815 1358.53,647.469 1362.4,630.878 1366.26,614.093 1370.13,597.166 1373.99,580.152 1377.86,563.104 1381.72,546.074 1385.59,529.108 1389.45,512.247 1393.32,495.522 1397.18,478.958 1401.05,462.569 1404.91,446.358 1408.78,430.322 1412.64,414.45 1416.51,398.725 1420.37,383.13 1424.24,367.646 1428.1,352.262 1431.97,336.97 1435.83,321.777 1439.7,306.7 1443.57,291.774 1447.43,277.046 1451.3,262.582 1455.16,248.463 1459.03,234.783 1462.89,221.647 1466.76,209.167 1470.62,197.46 1474.49,186.643 1478.35,176.829 1482.22,168.123 1486.08,160.622 1489.95,154.407 1493.81,149.544 1497.68,146.082 1501.54,144.052 1505.41,143.465 1509.27,144.316 1513.14,146.58 1517,150.219 1520.87,155.178 1524.73,161.391 1528.6,168.783 1532.46,177.271 1536.33,186.766 1540.19,197.177 1544.06,208.414 1547.92,220.387 1551.79,233.012 1555.65,246.21 1559.52,259.91 1563.38,274.049 1567.25,288.577 1571.11,303.451 1574.98,318.641 1578.84,334.126 1582.71,349.899 1586.57,365.958 1590.44,382.311 1594.3,398.975 1598.17,415.968 1602.03,433.315 1605.9,451.04 1609.76,469.168 1613.63,487.719 1617.49,506.711 1621.36,526.157 1625.22,546.061 1629.09,566.422 1632.95,587.23 1636.82,608.466 1640.68,630.104 1644.55,652.112 1648.41,674.447 1652.28,697.063 1656.14,719.907 1660.01,742.921 1663.87,766.043 1667.74,789.208 1671.61,812.35 1675.47,835.4 1679.34,858.292 1683.2,880.957 1687.07,903.332 1690.93,925.354 1694.8,946.965 1698.66,968.109 1702.53,988.738 1706.39,1008.81 1710.26,1028.28 1714.12,1047.12 1717.99,1065.3 1721.85,1082.8 1725.72,1099.61 1729.58,1115.71 1733.45,1131.09 1737.31,1145.76 1741.18,1159.71 1745.04,1172.93 1748.91,1185.45 1752.77,1197.25 1756.64,1208.36 1760.5,1218.76 1764.37,1228.48 1768.23,1237.52 1772.1,1245.87 1775.96,1253.56 1779.83,1260.59 1783.69,1266.96 1787.56,1272.68 1791.42,1277.76 1795.29,1282.2 1799.15,1286.01 1803.02,1289.2 1806.88,1291.78 1810.75,1293.74 1814.61,1295.11 1818.48,1295.89 1822.34,1296.09 1826.21,1295.71 1830.07,1294.77 1833.94,1293.27 1837.8,1291.21 1841.67,1288.6 1845.53,1285.45 1849.4,1281.76 1853.26,1277.53 1857.13,1272.77 1860.99,1267.47 1864.86,1261.64 1868.72,1255.27 1872.59,1248.38 1876.45,1240.97 1880.32,1233.03 1884.18,1224.58 1888.05,1215.63 1891.91,1206.18 1895.78,1196.27 1899.65,1185.89 1903.51,1175.08 1907.38,1163.87 1911.24,1152.29 1915.11,1140.38 1918.97,1128.19 1922.84,1115.75 1926.7,1103.14 1930.57,1090.4 1934.43,1077.6 1938.3,1064.81 1942.16,1052.11 1946.03,1039.55 1949.89,1027.22 1953.76,1015.18 1957.62,1003.51 1961.49,992.272 1965.35,981.527 1969.22,971.33 1973.08,961.728 1976.95,952.757 1980.81,944.447 1984.68,936.815 1988.54,929.87 1992.41,923.609 1996.27,918.021 2000.14,913.084 2004,908.77 2007.87,905.045 2011.73,901.868 2015.6,899.197 2019.46,896.987 2023.33,895.193 2027.19,893.773 2031.06,892.687 2034.92,891.897 2038.79,891.371 2042.65,891.083 2046.52,891.011 2050.38,891.136 2054.25,891.446 2058.11,891.93 2061.98,892.582 2065.84,893.396 2069.71,894.367 2073.57,895.492 2077.44,896.765 2081.3,898.183 2085.17,899.739 2089.03,901.428 2092.9,903.243 2096.76,905.176 2100.63,907.222 2104.49,909.372 2108.36,911.62 2112.22,913.96 2116.09,916.384 2119.95,918.887 2123.82,921.462 2127.69,924.104 2131.55,926.806 2135.42,929.561 2139.28,932.364 2143.15,935.209 2147.01,938.09 2150.88,941.002 2154.74,943.942 2158.61,946.907 2162.47,949.893 2166.34,952.901 2170.2,955.93 2174.07,958.98 2177.93,962.053 2181.8,965.148 2185.66,968.266 2189.53,971.406 2193.39,974.563 2197.26,977.733 2201.12,980.906 2204.99,984.071 2208.85,987.213 2212.72,990.309 2216.58,993.336 2220.45,996.265 2224.31,999.063 2228.18,1001.69 2232.04,1004.11 2235.91,1006.28 2239.77,1008.15 2243.64,1009.69 2247.5,1010.84 2251.37,1011.56 2255.23,1011.83 2259.1,1011.61 2262.96,1010.88 2266.83,1009.61 2270.69,1007.81 2274.56,1005.48 2278.42,1002.63 2282.29,999.282 2286.15,995.476 2290.02,991.254 "/>
<path clip-path="url(#clip700)" d="M1653.02 409.292 L2282.85 409.292 L2282.85 150.092 L1653.02 150.092  Z" fill="#ffffff" fill-rule="evenodd" fill-opacity="1"/>
<polyline clip-path="url(#clip700)" style="stroke:#000000; stroke-linecap:round; stroke-linejoin:round; stroke-width:4; stroke-opacity:1; fill:none" points="1653.02,409.292 2282.85,409.292 2282.85,150.092 1653.02,150.092 1653.02,409.292 "/>
<polyline clip-path="url(#clip700)" style="stroke:#009af9; stroke-linecap:round; stroke-linejoin:round; stroke-width:4; stroke-opacity:1; fill:none" points="1676.32,201.932 1816.13,201.932 "/>
<path clip-path="url(#clip700)" d="M1839.44 193.286 L1843.7 193.286 L1849.02 213.517 L1854.32 193.286 L1859.34 193.286 L1864.67 213.517 L1869.97 193.286 L1874.23 193.286 L1867.44 219.212 L1862.42 219.212 L1856.84 197.962 L1851.24 219.212 L1846.22 219.212 L1839.44 193.286 Z" fill="#000000" fill-rule="nonzero" fill-opacity="1" /><path clip-path="url(#clip700)" d="M1892.47 206.179 Q1887.31 206.179 1885.32 207.36 Q1883.32 208.54 1883.32 211.388 Q1883.32 213.656 1884.81 214.999 Q1886.31 216.318 1888.88 216.318 Q1892.42 216.318 1894.55 213.818 Q1896.7 211.295 1896.7 207.128 L1896.7 206.179 L1892.47 206.179 M1900.96 204.42 L1900.96 219.212 L1896.7 219.212 L1896.7 215.277 Q1895.25 217.638 1893.07 218.772 Q1890.89 219.883 1887.75 219.883 Q1883.76 219.883 1881.4 217.661 Q1879.07 215.415 1879.07 211.665 Q1879.07 207.29 1881.98 205.068 Q1884.92 202.846 1890.73 202.846 L1896.7 202.846 L1896.7 202.429 Q1896.7 199.49 1894.76 197.892 Q1892.84 196.272 1889.34 196.272 Q1887.12 196.272 1885.01 196.804 Q1882.91 197.337 1880.96 198.402 L1880.96 194.466 Q1883.3 193.564 1885.5 193.124 Q1887.7 192.661 1889.78 192.661 Q1895.41 192.661 1898.19 195.578 Q1900.96 198.494 1900.96 204.42 Z" fill="#000000" fill-rule="nonzero" fill-opacity="1" /><path clip-path="url(#clip700)" d="M1913.95 185.925 L1913.95 193.286 L1922.72 193.286 L1922.72 196.596 L1913.95 196.596 L1913.95 210.67 Q1913.95 213.841 1914.81 214.744 Q1915.69 215.647 1918.35 215.647 L1922.72 215.647 L1922.72 219.212 L1918.35 219.212 Q1913.42 219.212 1911.54 217.383 Q1909.67 215.531 1909.67 210.67 L1909.67 196.596 L1906.54 196.596 L1906.54 193.286 L1909.67 193.286 L1909.67 185.925 L1913.95 185.925 Z" fill="#000000" fill-rule="nonzero" fill-opacity="1" /><path clip-path="url(#clip700)" d="M1950.5 205.184 L1950.5 207.267 L1930.92 207.267 Q1931.19 211.665 1933.56 213.98 Q1935.94 216.272 1940.18 216.272 Q1942.63 216.272 1944.92 215.67 Q1947.24 215.068 1949.5 213.865 L1949.5 217.892 Q1947.21 218.864 1944.81 219.374 Q1942.4 219.883 1939.92 219.883 Q1933.72 219.883 1930.08 216.272 Q1926.47 212.661 1926.47 206.503 Q1926.47 200.138 1929.9 196.411 Q1933.35 192.661 1939.18 192.661 Q1944.41 192.661 1947.44 196.041 Q1950.5 199.397 1950.5 205.184 M1946.24 203.934 Q1946.19 200.439 1944.27 198.355 Q1942.38 196.272 1939.23 196.272 Q1935.66 196.272 1933.51 198.286 Q1931.38 200.3 1931.06 203.957 L1946.24 203.934 Z" fill="#000000" fill-rule="nonzero" fill-opacity="1" /><path clip-path="url(#clip700)" d="M1972.51 197.267 Q1971.8 196.851 1970.94 196.666 Q1970.11 196.457 1969.09 196.457 Q1965.48 196.457 1963.53 198.818 Q1961.61 201.156 1961.61 205.554 L1961.61 219.212 L1957.33 219.212 L1957.33 193.286 L1961.61 193.286 L1961.61 197.314 Q1962.95 194.953 1965.11 193.818 Q1967.26 192.661 1970.34 192.661 Q1970.78 192.661 1971.31 192.73 Q1971.84 192.777 1972.49 192.892 L1972.51 197.267 Z" fill="#000000" fill-rule="nonzero" fill-opacity="1" /><path clip-path="url(#clip700)" d="M1989.57 193.286 L1993.83 193.286 L1999.16 213.517 L2004.46 193.286 L2009.48 193.286 L2014.81 213.517 L2020.11 193.286 L2024.37 193.286 L2017.58 219.212 L2012.56 219.212 L2006.98 197.962 L2001.38 219.212 L1996.36 219.212 L1989.57 193.286 Z" fill="#000000" fill-rule="nonzero" fill-opacity="1" /><path clip-path="url(#clip700)" d="M2042.61 206.179 Q2037.44 206.179 2035.45 207.36 Q2033.46 208.54 2033.46 211.388 Q2033.46 213.656 2034.94 214.999 Q2036.45 216.318 2039.02 216.318 Q2042.56 216.318 2044.69 213.818 Q2046.84 211.295 2046.84 207.128 L2046.84 206.179 L2042.61 206.179 M2051.1 204.42 L2051.1 219.212 L2046.84 219.212 L2046.84 215.277 Q2045.38 217.638 2043.21 218.772 Q2041.03 219.883 2037.88 219.883 Q2033.9 219.883 2031.54 217.661 Q2029.2 215.415 2029.2 211.665 Q2029.2 207.29 2032.12 205.068 Q2035.06 202.846 2040.87 202.846 L2046.84 202.846 L2046.84 202.429 Q2046.84 199.49 2044.9 197.892 Q2042.98 196.272 2039.48 196.272 Q2037.26 196.272 2035.15 196.804 Q2033.05 197.337 2031.1 198.402 L2031.1 194.466 Q2033.44 193.564 2035.64 193.124 Q2037.84 192.661 2039.92 192.661 Q2045.55 192.661 2048.32 195.578 Q2051.1 198.494 2051.1 204.42 Z" fill="#000000" fill-rule="nonzero" fill-opacity="1" /><path clip-path="url(#clip700)" d="M2056.82 193.286 L2061.33 193.286 L2069.43 215.045 L2077.54 193.286 L2082.05 193.286 L2072.33 219.212 L2066.54 219.212 L2056.82 193.286 Z" fill="#000000" fill-rule="nonzero" fill-opacity="1" /><path clip-path="url(#clip700)" d="M2110.11 205.184 L2110.11 207.267 L2090.52 207.267 Q2090.8 211.665 2093.16 213.98 Q2095.55 216.272 2099.78 216.272 Q2102.24 216.272 2104.53 215.67 Q2106.84 215.068 2109.11 213.865 L2109.11 217.892 Q2106.82 218.864 2104.41 219.374 Q2102 219.883 2099.53 219.883 Q2093.32 219.883 2089.69 216.272 Q2086.08 212.661 2086.08 206.503 Q2086.08 200.138 2089.5 196.411 Q2092.95 192.661 2098.79 192.661 Q2104.02 192.661 2107.05 196.041 Q2110.11 199.397 2110.11 205.184 M2105.85 203.934 Q2105.8 200.439 2103.88 198.355 Q2101.98 196.272 2098.83 196.272 Q2095.27 196.272 2093.11 198.286 Q2090.99 200.3 2090.66 203.957 L2105.85 203.934 Z" fill="#000000" fill-rule="nonzero" fill-opacity="1" /><path clip-path="url(#clip700)" d="M2133.62 194.05 L2133.62 198.078 Q2131.82 197.152 2129.87 196.689 Q2127.93 196.226 2125.85 196.226 Q2122.68 196.226 2121.08 197.198 Q2119.5 198.17 2119.5 200.115 Q2119.5 201.596 2120.64 202.453 Q2121.77 203.286 2125.2 204.05 L2126.66 204.374 Q2131.19 205.346 2133.09 207.128 Q2135.01 208.888 2135.01 212.059 Q2135.01 215.67 2132.14 217.777 Q2129.3 219.883 2124.3 219.883 Q2122.21 219.883 2119.94 219.466 Q2117.7 219.073 2115.2 218.263 L2115.2 213.865 Q2117.56 215.091 2119.85 215.716 Q2122.14 216.318 2124.39 216.318 Q2127.4 216.318 2129.02 215.3 Q2130.64 214.258 2130.64 212.383 Q2130.64 210.647 2129.46 209.721 Q2128.3 208.795 2124.34 207.939 L2122.86 207.591 Q2118.9 206.758 2117.14 205.045 Q2115.38 203.309 2115.38 200.3 Q2115.38 196.642 2117.98 194.652 Q2120.57 192.661 2125.34 192.661 Q2127.7 192.661 2129.78 193.008 Q2131.86 193.355 2133.62 194.05 Z" fill="#000000" fill-rule="nonzero" fill-opacity="1" /><polyline clip-path="url(#clip700)" style="stroke:#e26f46; stroke-linecap:round; stroke-linejoin:round; stroke-width:4; stroke-opacity:1; fill:none" points="1676.32,253.772 1816.13,253.772 "/>
<path clip-path="url(#clip700)" d="M1864.99 266.121 L1864.99 256.839 L1857.35 256.839 L1857.35 252.996 L1869.62 252.996 L1869.62 267.834 Q1866.91 269.755 1863.65 270.751 Q1860.38 271.723 1856.68 271.723 Q1848.58 271.723 1844 267.001 Q1839.44 262.255 1839.44 253.806 Q1839.44 245.334 1844 240.612 Q1848.58 235.867 1856.68 235.867 Q1860.06 235.867 1863.09 236.7 Q1866.15 237.533 1868.72 239.154 L1868.72 244.131 Q1866.13 241.932 1863.21 240.82 Q1860.29 239.709 1857.07 239.709 Q1850.73 239.709 1847.54 243.251 Q1844.37 246.793 1844.37 253.806 Q1844.37 260.797 1847.54 264.339 Q1850.73 267.88 1857.07 267.88 Q1859.55 267.88 1861.5 267.464 Q1863.44 267.024 1864.99 266.121 Z" fill="#000000" fill-rule="nonzero" fill-opacity="1" /><path clip-path="url(#clip700)" d="M1893 249.107 Q1892.28 248.691 1891.43 248.506 Q1890.59 248.297 1889.57 248.297 Q1885.96 248.297 1884.02 250.658 Q1882.1 252.996 1882.1 257.394 L1882.1 271.052 L1877.82 271.052 L1877.82 245.126 L1882.1 245.126 L1882.1 249.154 Q1883.44 246.793 1885.59 245.658 Q1887.75 244.501 1890.82 244.501 Q1891.26 244.501 1891.8 244.57 Q1892.33 244.617 1892.98 244.732 L1893 249.107 Z" fill="#000000" fill-rule="nonzero" fill-opacity="1" /><path clip-path="url(#clip700)" d="M1918.6 257.024 L1918.6 259.107 L1899.02 259.107 Q1899.3 263.505 1901.66 265.82 Q1904.04 268.112 1908.28 268.112 Q1910.73 268.112 1913.02 267.51 Q1915.34 266.908 1917.61 265.705 L1917.61 269.732 Q1915.32 270.704 1912.91 271.214 Q1910.5 271.723 1908.02 271.723 Q1901.82 271.723 1898.19 268.112 Q1894.57 264.501 1894.57 258.343 Q1894.57 251.978 1898 248.251 Q1901.45 244.501 1907.28 244.501 Q1912.51 244.501 1915.55 247.881 Q1918.6 251.237 1918.6 257.024 M1914.34 255.774 Q1914.3 252.279 1912.38 250.195 Q1910.48 248.112 1907.33 248.112 Q1903.76 248.112 1901.61 250.126 Q1899.48 252.14 1899.16 255.797 L1914.34 255.774 Z" fill="#000000" fill-rule="nonzero" fill-opacity="1" /><path clip-path="url(#clip700)" d="M1947.77 257.024 L1947.77 259.107 L1928.19 259.107 Q1928.46 263.505 1930.82 265.82 Q1933.21 268.112 1937.44 268.112 Q1939.9 268.112 1942.19 267.51 Q1944.5 266.908 1946.77 265.705 L1946.77 269.732 Q1944.48 270.704 1942.07 271.214 Q1939.67 271.723 1937.19 271.723 Q1930.99 271.723 1927.35 268.112 Q1923.74 264.501 1923.74 258.343 Q1923.74 251.978 1927.17 248.251 Q1930.62 244.501 1936.45 244.501 Q1941.68 244.501 1944.71 247.881 Q1947.77 251.237 1947.77 257.024 M1943.51 255.774 Q1943.46 252.279 1941.54 250.195 Q1939.64 248.112 1936.5 248.112 Q1932.93 248.112 1930.78 250.126 Q1928.65 252.14 1928.32 255.797 L1943.51 255.774 Z" fill="#000000" fill-rule="nonzero" fill-opacity="1" /><path clip-path="url(#clip700)" d="M1976.31 255.404 L1976.31 271.052 L1972.05 271.052 L1972.05 255.543 Q1972.05 251.862 1970.62 250.033 Q1969.18 248.205 1966.31 248.205 Q1962.86 248.205 1960.87 250.404 Q1958.88 252.603 1958.88 256.399 L1958.88 271.052 L1954.6 271.052 L1954.6 245.126 L1958.88 245.126 L1958.88 249.154 Q1960.41 246.816 1962.47 245.658 Q1964.55 244.501 1967.26 244.501 Q1971.73 244.501 1974.02 247.279 Q1976.31 250.033 1976.31 255.404 Z" fill="#000000" fill-rule="nonzero" fill-opacity="1" /><path clip-path="url(#clip700)" d="M1982.65 256.168 L1995.13 256.168 L1995.13 259.964 L1982.65 259.964 L1982.65 256.168 Z" fill="#000000" fill-rule="nonzero" fill-opacity="1" /><path clip-path="url(#clip700)" d="M2002.1 236.492 L2008.39 236.492 L2023.72 265.404 L2023.72 236.492 L2028.25 236.492 L2028.25 271.052 L2021.96 271.052 L2006.63 242.14 L2006.63 271.052 L2002.1 271.052 L2002.1 236.492 Z" fill="#000000" fill-rule="nonzero" fill-opacity="1" /><path clip-path="url(#clip700)" d="M2049.16 258.019 Q2043.99 258.019 2042 259.2 Q2040.01 260.38 2040.01 263.228 Q2040.01 265.496 2041.49 266.839 Q2043 268.158 2045.57 268.158 Q2049.11 268.158 2051.24 265.658 Q2053.39 263.135 2053.39 258.968 L2053.39 258.019 L2049.16 258.019 M2057.65 256.26 L2057.65 271.052 L2053.39 271.052 L2053.39 267.117 Q2051.93 269.478 2049.76 270.612 Q2047.58 271.723 2044.43 271.723 Q2040.45 271.723 2038.09 269.501 Q2035.75 267.255 2035.75 263.505 Q2035.75 259.13 2038.67 256.908 Q2041.61 254.686 2047.42 254.686 L2053.39 254.686 L2053.39 254.269 Q2053.39 251.33 2051.45 249.732 Q2049.53 248.112 2046.03 248.112 Q2043.81 248.112 2041.7 248.644 Q2039.6 249.177 2037.65 250.242 L2037.65 246.306 Q2039.99 245.404 2042.19 244.964 Q2044.39 244.501 2046.47 244.501 Q2052.1 244.501 2054.87 247.418 Q2057.65 250.334 2057.65 256.26 Z" fill="#000000" fill-rule="nonzero" fill-opacity="1" /><path clip-path="url(#clip700)" d="M2083.49 257.788 Q2083.49 253.158 2081.56 250.612 Q2079.67 248.066 2076.22 248.066 Q2072.79 248.066 2070.87 250.612 Q2068.97 253.158 2068.97 257.788 Q2068.97 262.394 2070.87 264.941 Q2072.79 267.487 2076.22 267.487 Q2079.67 267.487 2081.56 264.941 Q2083.49 262.394 2083.49 257.788 M2087.74 267.834 Q2087.74 274.454 2084.8 277.672 Q2081.87 280.913 2075.8 280.913 Q2073.55 280.913 2071.56 280.566 Q2069.57 280.241 2067.7 279.547 L2067.7 275.404 Q2069.57 276.422 2071.4 276.908 Q2073.23 277.394 2075.13 277.394 Q2079.32 277.394 2081.4 275.195 Q2083.49 273.019 2083.49 268.598 L2083.49 266.492 Q2082.17 268.783 2080.11 269.917 Q2078.05 271.052 2075.18 271.052 Q2070.41 271.052 2067.49 267.417 Q2064.57 263.783 2064.57 257.788 Q2064.57 251.769 2067.49 248.135 Q2070.41 244.501 2075.18 244.501 Q2078.05 244.501 2080.11 245.635 Q2082.17 246.769 2083.49 249.061 L2083.49 245.126 L2087.74 245.126 L2087.74 267.834 Z" fill="#000000" fill-rule="nonzero" fill-opacity="1" /><path clip-path="url(#clip700)" d="M2118.07 255.404 L2118.07 271.052 L2113.81 271.052 L2113.81 255.543 Q2113.81 251.862 2112.37 250.033 Q2110.94 248.205 2108.07 248.205 Q2104.62 248.205 2102.63 250.404 Q2100.64 252.603 2100.64 256.399 L2100.64 271.052 L2096.36 271.052 L2096.36 235.033 L2100.64 235.033 L2100.64 249.154 Q2102.17 246.816 2104.23 245.658 Q2106.31 244.501 2109.02 244.501 Q2113.49 244.501 2115.78 247.279 Q2118.07 250.033 2118.07 255.404 Z" fill="#000000" fill-rule="nonzero" fill-opacity="1" /><path clip-path="url(#clip700)" d="M2143.62 249.061 L2143.62 235.033 L2147.88 235.033 L2147.88 271.052 L2143.62 271.052 L2143.62 267.163 Q2142.28 269.478 2140.22 270.612 Q2138.18 271.723 2135.31 271.723 Q2130.61 271.723 2127.65 267.973 Q2124.71 264.223 2124.71 258.112 Q2124.71 252.001 2127.65 248.251 Q2130.61 244.501 2135.31 244.501 Q2138.18 244.501 2140.22 245.635 Q2142.28 246.746 2143.62 249.061 M2129.11 258.112 Q2129.11 262.811 2131.03 265.496 Q2132.98 268.158 2136.36 268.158 Q2139.74 268.158 2141.68 265.496 Q2143.62 262.811 2143.62 258.112 Q2143.62 253.413 2141.68 250.751 Q2139.74 248.066 2136.36 248.066 Q2132.98 248.066 2131.03 250.751 Q2129.11 253.413 2129.11 258.112 Z" fill="#000000" fill-rule="nonzero" fill-opacity="1" /><path clip-path="url(#clip700)" d="M2156.66 245.126 L2160.92 245.126 L2160.92 271.052 L2156.66 271.052 L2156.66 245.126 M2156.66 235.033 L2160.92 235.033 L2160.92 240.427 L2156.66 240.427 L2156.66 235.033 Z" fill="#000000" fill-rule="nonzero" fill-opacity="1" /><polyline clip-path="url(#clip700)" style="stroke:#3da44d; stroke-linecap:round; stroke-linejoin:round; stroke-width:4; stroke-opacity:1; fill:none" points="1676.32,305.612 1816.13,305.612 "/>
<path clip-path="url(#clip700)" d="M1857.86 297.73 L1857.86 301.758 Q1856.06 300.832 1854.11 300.369 Q1852.17 299.906 1850.08 299.906 Q1846.91 299.906 1845.32 300.878 Q1843.74 301.85 1843.74 303.795 Q1843.74 305.276 1844.88 306.133 Q1846.01 306.966 1849.44 307.73 L1850.89 308.054 Q1855.43 309.026 1857.33 310.808 Q1859.25 312.568 1859.25 315.739 Q1859.25 319.35 1856.38 321.457 Q1853.53 323.563 1848.53 323.563 Q1846.45 323.563 1844.18 323.146 Q1841.94 322.753 1839.44 321.943 L1839.44 317.545 Q1841.8 318.771 1844.09 319.396 Q1846.38 319.998 1848.63 319.998 Q1851.63 319.998 1853.26 318.98 Q1854.88 317.938 1854.88 316.063 Q1854.88 314.327 1853.69 313.401 Q1852.54 312.475 1848.58 311.619 L1847.1 311.271 Q1843.14 310.438 1841.38 308.725 Q1839.62 306.989 1839.62 303.98 Q1839.62 300.322 1842.21 298.332 Q1844.81 296.341 1849.57 296.341 Q1851.94 296.341 1854.02 296.688 Q1856.1 297.035 1857.86 297.73 Z" fill="#000000" fill-rule="nonzero" fill-opacity="1" /><path clip-path="url(#clip700)" d="M1868.58 309.952 Q1868.58 314.651 1870.5 317.336 Q1872.44 319.998 1875.82 319.998 Q1879.2 319.998 1881.15 317.336 Q1883.09 314.651 1883.09 309.952 Q1883.09 305.253 1881.15 302.591 Q1879.2 299.906 1875.82 299.906 Q1872.44 299.906 1870.5 302.591 Q1868.58 305.253 1868.58 309.952 M1883.09 319.003 Q1881.75 321.318 1879.69 322.452 Q1877.65 323.563 1874.78 323.563 Q1870.08 323.563 1867.12 319.813 Q1864.18 316.063 1864.18 309.952 Q1864.18 303.841 1867.12 300.091 Q1870.08 296.341 1874.78 296.341 Q1877.65 296.341 1879.69 297.475 Q1881.75 298.586 1883.09 300.901 L1883.09 296.966 L1887.35 296.966 L1887.35 332.753 L1883.09 332.753 L1883.09 319.003 Z" fill="#000000" fill-rule="nonzero" fill-opacity="1" /><path clip-path="url(#clip700)" d="M1895.69 312.66 L1895.69 296.966 L1899.94 296.966 L1899.94 312.498 Q1899.94 316.179 1901.38 318.031 Q1902.82 319.859 1905.69 319.859 Q1909.13 319.859 1911.13 317.66 Q1913.14 315.461 1913.14 311.665 L1913.14 296.966 L1917.4 296.966 L1917.4 322.892 L1913.14 322.892 L1913.14 318.91 Q1911.59 321.271 1909.53 322.429 Q1907.49 323.563 1904.78 323.563 Q1900.32 323.563 1898 320.785 Q1895.69 318.007 1895.69 312.66 M1906.4 296.341 L1906.4 296.341 Z" fill="#000000" fill-rule="nonzero" fill-opacity="1" /><path clip-path="url(#clip700)" d="M1937.95 309.859 Q1932.79 309.859 1930.8 311.04 Q1928.81 312.22 1928.81 315.068 Q1928.81 317.336 1930.29 318.679 Q1931.8 319.998 1934.37 319.998 Q1937.91 319.998 1940.04 317.498 Q1942.19 314.975 1942.19 310.808 L1942.19 309.859 L1937.95 309.859 M1946.45 308.1 L1946.45 322.892 L1942.19 322.892 L1942.19 318.957 Q1940.73 321.318 1938.56 322.452 Q1936.38 323.563 1933.23 323.563 Q1929.25 323.563 1926.89 321.341 Q1924.55 319.095 1924.55 315.345 Q1924.55 310.97 1927.47 308.748 Q1930.41 306.526 1936.22 306.526 L1942.19 306.526 L1942.19 306.109 Q1942.19 303.17 1940.25 301.572 Q1938.32 299.952 1934.83 299.952 Q1932.61 299.952 1930.5 300.484 Q1928.39 301.017 1926.45 302.082 L1926.45 298.146 Q1928.79 297.244 1930.99 296.804 Q1933.19 296.341 1935.27 296.341 Q1940.89 296.341 1943.67 299.258 Q1946.45 302.174 1946.45 308.1 Z" fill="#000000" fill-rule="nonzero" fill-opacity="1" /><path clip-path="url(#clip700)" d="M1970.25 300.947 Q1969.53 300.531 1968.67 300.346 Q1967.84 300.137 1966.82 300.137 Q1963.21 300.137 1961.26 302.498 Q1959.34 304.836 1959.34 309.234 L1959.34 322.892 L1955.06 322.892 L1955.06 296.966 L1959.34 296.966 L1959.34 300.994 Q1960.69 298.633 1962.84 297.498 Q1964.99 296.341 1968.07 296.341 Q1968.51 296.341 1969.04 296.41 Q1969.57 296.457 1970.22 296.572 L1970.25 300.947 Z" fill="#000000" fill-rule="nonzero" fill-opacity="1" /><path clip-path="url(#clip700)" d="M1995.85 308.864 L1995.85 310.947 L1976.26 310.947 Q1976.54 315.345 1978.9 317.66 Q1981.29 319.952 1985.52 319.952 Q1987.98 319.952 1990.27 319.35 Q1992.58 318.748 1994.85 317.545 L1994.85 321.572 Q1992.56 322.544 1990.15 323.054 Q1987.75 323.563 1985.27 323.563 Q1979.06 323.563 1975.43 319.952 Q1971.82 316.341 1971.82 310.183 Q1971.82 303.818 1975.25 300.091 Q1978.69 296.341 1984.53 296.341 Q1989.76 296.341 1992.79 299.721 Q1995.85 303.077 1995.85 308.864 M1991.59 307.614 Q1991.54 304.119 1989.62 302.035 Q1987.72 299.952 1984.57 299.952 Q1981.01 299.952 1978.86 301.966 Q1976.73 303.98 1976.4 307.637 L1991.59 307.614 Z" fill="#000000" fill-rule="nonzero" fill-opacity="1" /><path clip-path="url(#clip700)" d="M2000.68 308.008 L2013.16 308.008 L2013.16 311.804 L2000.68 311.804 L2000.68 308.008 Z" fill="#000000" fill-rule="nonzero" fill-opacity="1" /><path clip-path="url(#clip700)" d="M2034.97 300.947 Q2034.25 300.531 2033.39 300.346 Q2032.56 300.137 2031.54 300.137 Q2027.93 300.137 2025.99 302.498 Q2024.06 304.836 2024.06 309.234 L2024.06 322.892 L2019.78 322.892 L2019.78 296.966 L2024.06 296.966 L2024.06 300.994 Q2025.41 298.633 2027.56 297.498 Q2029.71 296.341 2032.79 296.341 Q2033.23 296.341 2033.76 296.41 Q2034.3 296.457 2034.94 296.572 L2034.97 300.947 Z" fill="#000000" fill-rule="nonzero" fill-opacity="1" /><path clip-path="url(#clip700)" d="M2048.44 299.952 Q2045.01 299.952 2043.02 302.637 Q2041.03 305.299 2041.03 309.952 Q2041.03 314.605 2043 317.29 Q2044.99 319.952 2048.44 319.952 Q2051.84 319.952 2053.83 317.267 Q2055.82 314.582 2055.82 309.952 Q2055.82 305.346 2053.83 302.66 Q2051.84 299.952 2048.44 299.952 M2048.44 296.341 Q2053.99 296.341 2057.17 299.952 Q2060.34 303.563 2060.34 309.952 Q2060.34 316.318 2057.17 319.952 Q2053.99 323.563 2048.44 323.563 Q2042.86 323.563 2039.69 319.952 Q2036.54 316.318 2036.54 309.952 Q2036.54 303.563 2039.69 299.952 Q2042.86 296.341 2048.44 296.341 Z" fill="#000000" fill-rule="nonzero" fill-opacity="1" /><path clip-path="url(#clip700)" d="M2077.44 299.952 Q2074.02 299.952 2072.03 302.637 Q2070.04 305.299 2070.04 309.952 Q2070.04 314.605 2072 317.29 Q2073.99 319.952 2077.44 319.952 Q2080.85 319.952 2082.84 317.267 Q2084.83 314.582 2084.83 309.952 Q2084.83 305.346 2082.84 302.66 Q2080.85 299.952 2077.44 299.952 M2077.44 296.341 Q2083 296.341 2086.17 299.952 Q2089.34 303.563 2089.34 309.952 Q2089.34 316.318 2086.17 319.952 Q2083 323.563 2077.44 323.563 Q2071.87 323.563 2068.69 319.952 Q2065.55 316.318 2065.55 309.952 Q2065.55 303.563 2068.69 299.952 Q2071.87 296.341 2077.44 296.341 Z" fill="#000000" fill-rule="nonzero" fill-opacity="1" /><path clip-path="url(#clip700)" d="M2100.61 289.605 L2100.61 296.966 L2109.39 296.966 L2109.39 300.276 L2100.61 300.276 L2100.61 314.35 Q2100.61 317.521 2101.47 318.424 Q2102.35 319.327 2105.01 319.327 L2109.39 319.327 L2109.39 322.892 L2105.01 322.892 Q2100.08 322.892 2098.21 321.063 Q2096.33 319.211 2096.33 314.35 L2096.33 300.276 L2093.21 300.276 L2093.21 296.966 L2096.33 296.966 L2096.33 289.605 L2100.61 289.605 Z" fill="#000000" fill-rule="nonzero" fill-opacity="1" /><path clip-path="url(#clip700)" d="M2147.12 300.901 L2147.12 286.873 L2151.38 286.873 L2151.38 322.892 L2147.12 322.892 L2147.12 319.003 Q2145.78 321.318 2143.72 322.452 Q2141.68 323.563 2138.81 323.563 Q2134.11 323.563 2131.15 319.813 Q2128.21 316.063 2128.21 309.952 Q2128.21 303.841 2131.15 300.091 Q2134.11 296.341 2138.81 296.341 Q2141.68 296.341 2143.72 297.475 Q2145.78 298.586 2147.12 300.901 M2132.61 309.952 Q2132.61 314.651 2134.53 317.336 Q2136.47 319.998 2139.85 319.998 Q2143.23 319.998 2145.17 317.336 Q2147.12 314.651 2147.12 309.952 Q2147.12 305.253 2145.17 302.591 Q2143.23 299.906 2139.85 299.906 Q2136.47 299.906 2134.53 302.591 Q2132.61 305.253 2132.61 309.952 Z" fill="#000000" fill-rule="nonzero" fill-opacity="1" /><path clip-path="url(#clip700)" d="M2182.33 308.864 L2182.33 310.947 L2162.74 310.947 Q2163.02 315.345 2165.38 317.66 Q2167.77 319.952 2172 319.952 Q2174.46 319.952 2176.75 319.35 Q2179.06 318.748 2181.33 317.545 L2181.33 321.572 Q2179.04 322.544 2176.63 323.054 Q2174.23 323.563 2171.75 323.563 Q2165.55 323.563 2161.91 319.952 Q2158.3 316.341 2158.3 310.183 Q2158.3 303.818 2161.73 300.091 Q2165.17 296.341 2171.01 296.341 Q2176.24 296.341 2179.27 299.721 Q2182.33 303.077 2182.33 308.864 M2178.07 307.614 Q2178.02 304.119 2176.1 302.035 Q2174.2 299.952 2171.05 299.952 Q2167.49 299.952 2165.34 301.966 Q2163.21 303.98 2162.88 307.637 L2178.07 307.614 Z" fill="#000000" fill-rule="nonzero" fill-opacity="1" /><path clip-path="url(#clip700)" d="M2193.44 319.003 L2193.44 332.753 L2189.16 332.753 L2189.16 296.966 L2193.44 296.966 L2193.44 300.901 Q2194.78 298.586 2196.82 297.475 Q2198.88 296.341 2201.73 296.341 Q2206.45 296.341 2209.39 300.091 Q2212.35 303.841 2212.35 309.952 Q2212.35 316.063 2209.39 319.813 Q2206.45 323.563 2201.73 323.563 Q2198.88 323.563 2196.82 322.452 Q2194.78 321.318 2193.44 319.003 M2207.93 309.952 Q2207.93 305.253 2205.98 302.591 Q2204.06 299.906 2200.68 299.906 Q2197.3 299.906 2195.36 302.591 Q2193.44 305.253 2193.44 309.952 Q2193.44 314.651 2195.36 317.336 Q2197.3 319.998 2200.68 319.998 Q2204.06 319.998 2205.98 317.336 Q2207.93 314.651 2207.93 309.952 Z" fill="#000000" fill-rule="nonzero" fill-opacity="1" /><path clip-path="url(#clip700)" d="M2223.62 289.605 L2223.62 296.966 L2232.4 296.966 L2232.4 300.276 L2223.62 300.276 L2223.62 314.35 Q2223.62 317.521 2224.48 318.424 Q2225.36 319.327 2228.02 319.327 L2232.4 319.327 L2232.4 322.892 L2228.02 322.892 Q2223.09 322.892 2221.22 321.063 Q2219.34 319.211 2219.34 314.35 L2219.34 300.276 L2216.22 300.276 L2216.22 296.966 L2219.34 296.966 L2219.34 289.605 L2223.62 289.605 Z" fill="#000000" fill-rule="nonzero" fill-opacity="1" /><path clip-path="url(#clip700)" d="M2259.55 307.244 L2259.55 322.892 L2255.29 322.892 L2255.29 307.383 Q2255.29 303.702 2253.85 301.873 Q2252.42 300.045 2249.55 300.045 Q2246.1 300.045 2244.11 302.244 Q2242.12 304.443 2242.12 308.239 L2242.12 322.892 L2237.84 322.892 L2237.84 286.873 L2242.12 286.873 L2242.12 300.994 Q2243.65 298.656 2245.71 297.498 Q2247.79 296.341 2250.5 296.341 Q2254.97 296.341 2257.26 299.119 Q2259.55 301.873 2259.55 307.244 Z" fill="#000000" fill-rule="nonzero" fill-opacity="1" /><polyline clip-path="url(#clip700)" style="stroke:#c271d2; stroke-linecap:round; stroke-linejoin:round; stroke-width:4; stroke-opacity:1; fill:none" points="1676.32,357.452 1816.13,357.452 "/>
<path clip-path="url(#clip700)" d="M1861.15 359.084 L1861.15 374.732 L1856.89 374.732 L1856.89 359.223 Q1856.89 355.542 1855.45 353.713 Q1854.02 351.885 1851.15 351.885 Q1847.7 351.885 1845.71 354.084 Q1843.72 356.283 1843.72 360.079 L1843.72 374.732 L1839.44 374.732 L1839.44 348.806 L1843.72 348.806 L1843.72 352.834 Q1845.25 350.496 1847.31 349.338 Q1849.39 348.181 1852.1 348.181 Q1856.57 348.181 1858.86 350.959 Q1861.15 353.713 1861.15 359.084 Z" fill="#000000" fill-rule="nonzero" fill-opacity="1" /><path clip-path="url(#clip700)" d="M1879.69 351.792 Q1876.26 351.792 1874.27 354.477 Q1872.28 357.139 1872.28 361.792 Q1872.28 366.445 1874.25 369.13 Q1876.24 371.792 1879.69 371.792 Q1883.09 371.792 1885.08 369.107 Q1887.07 366.422 1887.07 361.792 Q1887.07 357.186 1885.08 354.5 Q1883.09 351.792 1879.69 351.792 M1879.69 348.181 Q1885.25 348.181 1888.42 351.792 Q1891.59 355.403 1891.59 361.792 Q1891.59 368.158 1888.42 371.792 Q1885.25 375.403 1879.69 375.403 Q1874.11 375.403 1870.94 371.792 Q1867.79 368.158 1867.79 361.792 Q1867.79 355.403 1870.94 351.792 Q1874.11 348.181 1879.69 348.181 Z" fill="#000000" fill-rule="nonzero" fill-opacity="1" /><path clip-path="url(#clip700)" d="M1920.2 359.084 L1920.2 374.732 L1915.94 374.732 L1915.94 359.223 Q1915.94 355.542 1914.5 353.713 Q1913.07 351.885 1910.2 351.885 Q1906.75 351.885 1904.76 354.084 Q1902.77 356.283 1902.77 360.079 L1902.77 374.732 L1898.49 374.732 L1898.49 348.806 L1902.77 348.806 L1902.77 352.834 Q1904.3 350.496 1906.36 349.338 Q1908.44 348.181 1911.15 348.181 Q1915.62 348.181 1917.91 350.959 Q1920.2 353.713 1920.2 359.084 Z" fill="#000000" fill-rule="nonzero" fill-opacity="1" /><path clip-path="url(#clip700)" d="M1926.54 359.848 L1939.02 359.848 L1939.02 363.644 L1926.54 363.644 L1926.54 359.848 Z" fill="#000000" fill-rule="nonzero" fill-opacity="1" /><path clip-path="url(#clip700)" d="M1967.35 359.084 L1967.35 374.732 L1963.09 374.732 L1963.09 359.223 Q1963.09 355.542 1961.66 353.713 Q1960.22 351.885 1957.35 351.885 Q1953.9 351.885 1951.91 354.084 Q1949.92 356.283 1949.92 360.079 L1949.92 374.732 L1945.64 374.732 L1945.64 338.713 L1949.92 338.713 L1949.92 352.834 Q1951.45 350.496 1953.51 349.338 Q1955.59 348.181 1958.3 348.181 Q1962.77 348.181 1965.06 350.959 Q1967.35 353.713 1967.35 359.084 Z" fill="#000000" fill-rule="nonzero" fill-opacity="1" /><path clip-path="url(#clip700)" d="M1986.63 377.139 Q1984.83 381.769 1983.12 383.181 Q1981.4 384.593 1978.53 384.593 L1975.13 384.593 L1975.13 381.028 L1977.63 381.028 Q1979.39 381.028 1980.36 380.195 Q1981.33 379.361 1982.51 376.259 L1983.28 374.315 L1972.79 348.806 L1977.31 348.806 L1985.41 369.084 L1993.51 348.806 L1998.02 348.806 L1986.63 377.139 Z" fill="#000000" fill-rule="nonzero" fill-opacity="1" /><path clip-path="url(#clip700)" d="M2020.96 352.741 L2020.96 338.713 L2025.22 338.713 L2025.22 374.732 L2020.96 374.732 L2020.96 370.843 Q2019.62 373.158 2017.56 374.292 Q2015.52 375.403 2012.65 375.403 Q2007.95 375.403 2004.99 371.653 Q2002.05 367.903 2002.05 361.792 Q2002.05 355.681 2004.99 351.931 Q2007.95 348.181 2012.65 348.181 Q2015.52 348.181 2017.56 349.315 Q2019.62 350.426 2020.96 352.741 M2006.45 361.792 Q2006.45 366.491 2008.37 369.176 Q2010.31 371.838 2013.69 371.838 Q2017.07 371.838 2019.02 369.176 Q2020.96 366.491 2020.96 361.792 Q2020.96 357.093 2019.02 354.431 Q2017.07 351.746 2013.69 351.746 Q2010.31 351.746 2008.37 354.431 Q2006.45 357.093 2006.45 361.792 Z" fill="#000000" fill-rule="nonzero" fill-opacity="1" /><path clip-path="url(#clip700)" d="M2049.02 352.787 Q2048.3 352.371 2047.44 352.186 Q2046.61 351.977 2045.59 351.977 Q2041.98 351.977 2040.04 354.338 Q2038.12 356.676 2038.12 361.074 L2038.12 374.732 L2033.83 374.732 L2033.83 348.806 L2038.12 348.806 L2038.12 352.834 Q2039.46 350.473 2041.61 349.338 Q2043.76 348.181 2046.84 348.181 Q2047.28 348.181 2047.81 348.25 Q2048.35 348.297 2048.99 348.412 L2049.02 352.787 Z" fill="#000000" fill-rule="nonzero" fill-opacity="1" /><path clip-path="url(#clip700)" d="M2062.49 351.792 Q2059.06 351.792 2057.07 354.477 Q2055.08 357.139 2055.08 361.792 Q2055.08 366.445 2057.05 369.13 Q2059.04 371.792 2062.49 371.792 Q2065.89 371.792 2067.88 369.107 Q2069.87 366.422 2069.87 361.792 Q2069.87 357.186 2067.88 354.5 Q2065.89 351.792 2062.49 351.792 M2062.49 348.181 Q2068.05 348.181 2071.22 351.792 Q2074.39 355.403 2074.39 361.792 Q2074.39 368.158 2071.22 371.792 Q2068.05 375.403 2062.49 375.403 Q2056.91 375.403 2053.74 371.792 Q2050.59 368.158 2050.59 361.792 Q2050.59 355.403 2053.74 351.792 Q2056.91 348.181 2062.49 348.181 Z" fill="#000000" fill-rule="nonzero" fill-opacity="1" /><path clip-path="url(#clip700)" d="M2097.98 349.57 L2097.98 353.598 Q2096.17 352.672 2094.23 352.209 Q2092.28 351.746 2090.2 351.746 Q2087.03 351.746 2085.43 352.718 Q2083.86 353.69 2083.86 355.635 Q2083.86 357.116 2084.99 357.973 Q2086.12 358.806 2089.55 359.57 L2091.01 359.894 Q2095.55 360.866 2097.44 362.648 Q2099.36 364.408 2099.36 367.579 Q2099.36 371.19 2096.49 373.297 Q2093.65 375.403 2088.65 375.403 Q2086.56 375.403 2084.3 374.986 Q2082.05 374.593 2079.55 373.783 L2079.55 369.385 Q2081.91 370.611 2084.2 371.236 Q2086.49 371.838 2088.74 371.838 Q2091.75 371.838 2093.37 370.82 Q2094.99 369.778 2094.99 367.903 Q2094.99 366.167 2093.81 365.241 Q2092.65 364.315 2088.69 363.459 L2087.21 363.111 Q2083.25 362.278 2081.49 360.565 Q2079.74 358.829 2079.74 355.82 Q2079.74 352.162 2082.33 350.172 Q2084.92 348.181 2089.69 348.181 Q2092.05 348.181 2094.13 348.528 Q2096.22 348.875 2097.98 349.57 Z" fill="#000000" fill-rule="nonzero" fill-opacity="1" /><path clip-path="url(#clip700)" d="M2110.36 341.445 L2110.36 348.806 L2119.13 348.806 L2119.13 352.116 L2110.36 352.116 L2110.36 366.19 Q2110.36 369.361 2111.22 370.264 Q2112.1 371.167 2114.76 371.167 L2119.13 371.167 L2119.13 374.732 L2114.76 374.732 Q2109.83 374.732 2107.95 372.903 Q2106.08 371.051 2106.08 366.19 L2106.08 352.116 L2102.95 352.116 L2102.95 348.806 L2106.08 348.806 L2106.08 341.445 L2110.36 341.445 Z" fill="#000000" fill-rule="nonzero" fill-opacity="1" /><path clip-path="url(#clip700)" d="M2136.52 361.699 Q2131.36 361.699 2129.36 362.88 Q2127.37 364.06 2127.37 366.908 Q2127.37 369.176 2128.86 370.519 Q2130.36 371.838 2132.93 371.838 Q2136.47 371.838 2138.6 369.338 Q2140.75 366.815 2140.75 362.648 L2140.75 361.699 L2136.52 361.699 M2145.01 359.94 L2145.01 374.732 L2140.75 374.732 L2140.75 370.797 Q2139.3 373.158 2137.12 374.292 Q2134.94 375.403 2131.8 375.403 Q2127.81 375.403 2125.45 373.181 Q2123.11 370.935 2123.11 367.185 Q2123.11 362.81 2126.03 360.588 Q2128.97 358.366 2134.78 358.366 L2140.75 358.366 L2140.75 357.949 Q2140.75 355.01 2138.81 353.412 Q2136.89 351.792 2133.39 351.792 Q2131.17 351.792 2129.06 352.324 Q2126.96 352.857 2125.01 353.922 L2125.01 349.986 Q2127.35 349.084 2129.55 348.644 Q2131.75 348.181 2133.83 348.181 Q2139.46 348.181 2142.24 351.098 Q2145.01 354.014 2145.01 359.94 Z" fill="#000000" fill-rule="nonzero" fill-opacity="1" /><path clip-path="url(#clip700)" d="M2158 341.445 L2158 348.806 L2166.77 348.806 L2166.77 352.116 L2158 352.116 L2158 366.19 Q2158 369.361 2158.86 370.264 Q2159.73 371.167 2162.4 371.167 L2166.77 371.167 L2166.77 374.732 L2162.4 374.732 Q2157.47 374.732 2155.59 372.903 Q2153.72 371.051 2153.72 366.19 L2153.72 352.116 L2150.59 352.116 L2150.59 348.806 L2153.72 348.806 L2153.72 341.445 L2158 341.445 Z" fill="#000000" fill-rule="nonzero" fill-opacity="1" /><path clip-path="url(#clip700)" d="M2172.37 348.806 L2176.63 348.806 L2176.63 374.732 L2172.37 374.732 L2172.37 348.806 M2172.37 338.713 L2176.63 338.713 L2176.63 344.107 L2172.37 344.107 L2172.37 338.713 Z" fill="#000000" fill-rule="nonzero" fill-opacity="1" /><path clip-path="url(#clip700)" d="M2204.2 349.801 L2204.2 353.783 Q2202.4 352.787 2200.57 352.301 Q2198.76 351.792 2196.91 351.792 Q2192.77 351.792 2190.48 354.431 Q2188.18 357.047 2188.18 361.792 Q2188.18 366.537 2190.48 369.176 Q2192.77 371.792 2196.91 371.792 Q2198.76 371.792 2200.57 371.306 Q2202.4 370.797 2204.2 369.801 L2204.2 373.736 Q2202.42 374.57 2200.5 374.986 Q2198.6 375.403 2196.45 375.403 Q2190.59 375.403 2187.14 371.722 Q2183.69 368.042 2183.69 361.792 Q2183.69 355.449 2187.17 351.815 Q2190.66 348.181 2196.73 348.181 Q2198.69 348.181 2200.57 348.598 Q2202.44 348.991 2204.2 349.801 Z" fill="#000000" fill-rule="nonzero" fill-opacity="1" /></svg>
