<?xml version="1.0" encoding="utf-8"?>
<svg xmlns="http://www.w3.org/2000/svg" xmlns:xlink="http://www.w3.org/1999/xlink" width="600" height="400" viewBox="0 0 2400 1600">
<defs>
  <clipPath id="clip570">
    <rect x="0" y="0" width="2400" height="1600"/>
  </clipPath>
</defs>
<path clip-path="url(#clip570)" d="M0 1600 L2400 1600 L2400 0 L0 0  Z" fill="#ffffff" fill-rule="evenodd" fill-opacity="1"/>
<defs>
  <clipPath id="clip571">
    <rect x="219" y="106" width="2134" height="1318"/>
  </clipPath>
</defs>
<path clip-path="url(#clip570)" d="M219.866 1423.18 L2352.76 1423.18 L2352.76 106.192 L219.866 106.192  Z" fill="#ffffff" fill-rule="evenodd" fill-opacity="1"/>
<polyline clip-path="url(#clip571)" style="stroke:#000000; stroke-linecap:round; stroke-linejoin:round; stroke-width:2; stroke-opacity:0.1; fill:none" points="327.419,1423.18 327.419,106.192 "/>
<polyline clip-path="url(#clip571)" style="stroke:#000000; stroke-linecap:round; stroke-linejoin:round; stroke-width:2; stroke-opacity:0.1; fill:none" points="648.004,1423.18 648.004,106.192 "/>
<polyline clip-path="url(#clip571)" style="stroke:#000000; stroke-linecap:round; stroke-linejoin:round; stroke-width:2; stroke-opacity:0.1; fill:none" points="968.59,1423.18 968.59,106.192 "/>
<polyline clip-path="url(#clip571)" style="stroke:#000000; stroke-linecap:round; stroke-linejoin:round; stroke-width:2; stroke-opacity:0.1; fill:none" points="1289.18,1423.18 1289.18,106.192 "/>
<polyline clip-path="url(#clip571)" style="stroke:#000000; stroke-linecap:round; stroke-linejoin:round; stroke-width:2; stroke-opacity:0.1; fill:none" points="1609.76,1423.18 1609.76,106.192 "/>
<polyline clip-path="url(#clip571)" style="stroke:#000000; stroke-linecap:round; stroke-linejoin:round; stroke-width:2; stroke-opacity:0.1; fill:none" points="1930.35,1423.18 1930.35,106.192 "/>
<polyline clip-path="url(#clip571)" style="stroke:#000000; stroke-linecap:round; stroke-linejoin:round; stroke-width:2; stroke-opacity:0.1; fill:none" points="2250.93,1423.18 2250.93,106.192 "/>
<polyline clip-path="url(#clip571)" style="stroke:#000000; stroke-linecap:round; stroke-linejoin:round; stroke-width:2; stroke-opacity:0.1; fill:none" points="219.866,1252.18 2352.76,1252.18 "/>
<polyline clip-path="url(#clip571)" style="stroke:#000000; stroke-linecap:round; stroke-linejoin:round; stroke-width:2; stroke-opacity:0.1; fill:none" points="219.866,937.68 2352.76,937.68 "/>
<polyline clip-path="url(#clip571)" style="stroke:#000000; stroke-linecap:round; stroke-linejoin:round; stroke-width:2; stroke-opacity:0.1; fill:none" points="219.866,623.18 2352.76,623.18 "/>
<polyline clip-path="url(#clip571)" style="stroke:#000000; stroke-linecap:round; stroke-linejoin:round; stroke-width:2; stroke-opacity:0.1; fill:none" points="219.866,308.681 2352.76,308.681 "/>
<polyline clip-path="url(#clip570)" style="stroke:#000000; stroke-linecap:round; stroke-linejoin:round; stroke-width:4; stroke-opacity:1; fill:none" points="219.866,1423.18 2352.76,1423.18 "/>
<polyline clip-path="url(#clip570)" style="stroke:#000000; stroke-linecap:round; stroke-linejoin:round; stroke-width:4; stroke-opacity:1; fill:none" points="327.419,1423.18 327.419,1404.28 "/>
<polyline clip-path="url(#clip570)" style="stroke:#000000; stroke-linecap:round; stroke-linejoin:round; stroke-width:4; stroke-opacity:1; fill:none" points="648.004,1423.18 648.004,1404.28 "/>
<polyline clip-path="url(#clip570)" style="stroke:#000000; stroke-linecap:round; stroke-linejoin:round; stroke-width:4; stroke-opacity:1; fill:none" points="968.59,1423.18 968.59,1404.28 "/>
<polyline clip-path="url(#clip570)" style="stroke:#000000; stroke-linecap:round; stroke-linejoin:round; stroke-width:4; stroke-opacity:1; fill:none" points="1289.18,1423.18 1289.18,1404.28 "/>
<polyline clip-path="url(#clip570)" style="stroke:#000000; stroke-linecap:round; stroke-linejoin:round; stroke-width:4; stroke-opacity:1; fill:none" points="1609.76,1423.18 1609.76,1404.28 "/>
<polyline clip-path="url(#clip570)" style="stroke:#000000; stroke-linecap:round; stroke-linejoin:round; stroke-width:4; stroke-opacity:1; fill:none" points="1930.35,1423.18 1930.35,1404.28 "/>
<polyline clip-path="url(#clip570)" style="stroke:#000000; stroke-linecap:round; stroke-linejoin:round; stroke-width:4; stroke-opacity:1; fill:none" points="2250.93,1423.18 2250.93,1404.28 "/>
<path clip-path="url(#clip570)" d="M296.886 1468.75 L326.562 1468.75 L326.562 1472.69 L296.886 1472.69 L296.886 1468.75 Z" fill="#000000" fill-rule="nonzero" fill-opacity="1" /><path clip-path="url(#clip570)" d="M350.821 1466.95 Q354.178 1467.66 356.053 1469.93 Q357.951 1472.2 357.951 1475.53 Q357.951 1480.65 354.432 1483.45 Q350.914 1486.25 344.432 1486.25 Q342.257 1486.25 339.942 1485.81 Q337.65 1485.39 335.196 1484.54 L335.196 1480.02 Q337.141 1481.16 339.456 1481.74 Q341.77 1482.32 344.294 1482.32 Q348.692 1482.32 350.983 1480.58 Q353.298 1478.84 353.298 1475.53 Q353.298 1472.48 351.145 1470.77 Q349.016 1469.03 345.196 1469.03 L341.169 1469.03 L341.169 1465.19 L345.382 1465.19 Q348.831 1465.19 350.659 1463.82 Q352.488 1462.43 352.488 1459.84 Q352.488 1457.18 350.59 1455.77 Q348.715 1454.33 345.196 1454.33 Q343.275 1454.33 341.076 1454.75 Q338.877 1455.16 336.238 1456.04 L336.238 1451.88 Q338.9 1451.14 341.215 1450.77 Q343.553 1450.39 345.613 1450.39 Q350.937 1450.39 354.039 1452.83 Q357.141 1455.23 357.141 1459.35 Q357.141 1462.22 355.497 1464.21 Q353.854 1466.18 350.821 1466.95 Z" fill="#000000" fill-rule="nonzero" fill-opacity="1" /><path clip-path="url(#clip570)" d="M617.947 1468.75 L647.622 1468.75 L647.622 1472.69 L617.947 1472.69 L617.947 1468.75 Z" fill="#000000" fill-rule="nonzero" fill-opacity="1" /><path clip-path="url(#clip570)" d="M661.743 1481.64 L678.062 1481.64 L678.062 1485.58 L656.118 1485.58 L656.118 1481.64 Q658.78 1478.89 663.363 1474.26 Q667.97 1469.61 669.15 1468.27 Q671.395 1465.74 672.275 1464.01 Q673.178 1462.25 673.178 1460.56 Q673.178 1457.8 671.233 1456.07 Q669.312 1454.33 666.21 1454.33 Q664.011 1454.33 661.557 1455.09 Q659.127 1455.86 656.349 1457.41 L656.349 1452.69 Q659.173 1451.55 661.627 1450.97 Q664.081 1450.39 666.118 1450.39 Q671.488 1450.39 674.682 1453.08 Q677.877 1455.77 677.877 1460.26 Q677.877 1462.39 677.067 1464.31 Q676.28 1466.2 674.173 1468.8 Q673.594 1469.47 670.493 1472.69 Q667.391 1475.88 661.743 1481.64 Z" fill="#000000" fill-rule="nonzero" fill-opacity="1" /><path clip-path="url(#clip570)" d="M938.347 1468.75 L968.023 1468.75 L968.023 1472.69 L938.347 1472.69 L938.347 1468.75 Z" fill="#000000" fill-rule="nonzero" fill-opacity="1" /><path clip-path="url(#clip570)" d="M978.926 1481.64 L986.564 1481.64 L986.564 1455.28 L978.254 1456.95 L978.254 1452.69 L986.518 1451.02 L991.194 1451.02 L991.194 1481.64 L998.833 1481.64 L998.833 1485.58 L978.926 1485.58 L978.926 1481.64 Z" fill="#000000" fill-rule="nonzero" fill-opacity="1" /><path clip-path="url(#clip570)" d="M1289.18 1454.1 Q1285.56 1454.1 1283.74 1457.66 Q1281.93 1461.2 1281.93 1468.33 Q1281.93 1475.44 1283.74 1479.01 Q1285.56 1482.55 1289.18 1482.55 Q1292.81 1482.55 1294.62 1479.01 Q1296.44 1475.44 1296.44 1468.33 Q1296.44 1461.2 1294.62 1457.66 Q1292.81 1454.1 1289.18 1454.1 M1289.18 1450.39 Q1294.99 1450.39 1298.04 1455 Q1301.12 1459.58 1301.12 1468.33 Q1301.12 1477.06 1298.04 1481.67 Q1294.99 1486.25 1289.18 1486.25 Q1283.37 1486.25 1280.29 1481.67 Q1277.23 1477.06 1277.23 1468.33 Q1277.23 1459.58 1280.29 1455 Q1283.37 1450.39 1289.18 1450.39 Z" fill="#000000" fill-rule="nonzero" fill-opacity="1" /><path clip-path="url(#clip570)" d="M1600.14 1481.64 L1607.78 1481.64 L1607.78 1455.28 L1599.47 1456.95 L1599.47 1452.69 L1607.74 1451.02 L1612.41 1451.02 L1612.41 1481.64 L1620.05 1481.64 L1620.05 1485.58 L1600.14 1485.58 L1600.14 1481.64 Z" fill="#000000" fill-rule="nonzero" fill-opacity="1" /><path clip-path="url(#clip570)" d="M1925 1481.64 L1941.32 1481.64 L1941.32 1485.58 L1919.37 1485.58 L1919.37 1481.64 Q1922.04 1478.89 1926.62 1474.26 Q1931.23 1469.61 1932.41 1468.27 Q1934.65 1465.74 1935.53 1464.01 Q1936.43 1462.25 1936.43 1460.56 Q1936.43 1457.8 1934.49 1456.07 Q1932.57 1454.33 1929.47 1454.33 Q1927.27 1454.33 1924.81 1455.09 Q1922.38 1455.86 1919.61 1457.41 L1919.61 1452.69 Q1922.43 1451.55 1924.88 1450.97 Q1927.34 1450.39 1929.37 1450.39 Q1934.75 1450.39 1937.94 1453.08 Q1941.13 1455.77 1941.13 1460.26 Q1941.13 1462.39 1940.32 1464.31 Q1939.54 1466.2 1937.43 1468.8 Q1936.85 1469.47 1933.75 1472.69 Q1930.65 1475.88 1925 1481.64 Z" fill="#000000" fill-rule="nonzero" fill-opacity="1" /><path clip-path="url(#clip570)" d="M2255.18 1466.95 Q2258.54 1467.66 2260.41 1469.93 Q2262.31 1472.2 2262.31 1475.53 Q2262.31 1480.65 2258.79 1483.45 Q2255.27 1486.25 2248.79 1486.25 Q2246.62 1486.25 2244.3 1485.81 Q2242.01 1485.39 2239.56 1484.54 L2239.56 1480.02 Q2241.5 1481.16 2243.81 1481.74 Q2246.13 1482.32 2248.65 1482.32 Q2253.05 1482.32 2255.34 1480.58 Q2257.66 1478.84 2257.66 1475.53 Q2257.66 1472.48 2255.5 1470.77 Q2253.37 1469.03 2249.56 1469.03 L2245.53 1469.03 L2245.53 1465.19 L2249.74 1465.19 Q2253.19 1465.19 2255.02 1463.82 Q2256.85 1462.43 2256.85 1459.84 Q2256.85 1457.18 2254.95 1455.77 Q2253.07 1454.33 2249.56 1454.33 Q2247.63 1454.33 2245.44 1454.75 Q2243.24 1455.16 2240.6 1456.04 L2240.6 1451.88 Q2243.26 1451.14 2245.57 1450.77 Q2247.91 1450.39 2249.97 1450.39 Q2255.3 1450.39 2258.4 1452.83 Q2261.5 1455.23 2261.5 1459.35 Q2261.5 1462.22 2259.86 1464.21 Q2258.21 1466.18 2255.18 1466.95 Z" fill="#000000" fill-rule="nonzero" fill-opacity="1" /><path clip-path="url(#clip570)" d="M1302.93 1532.4 L1290.04 1549.74 L1303.59 1568.04 L1296.69 1568.04 L1286.31 1554.04 L1275.93 1568.04 L1269.03 1568.04 L1282.87 1549.39 L1270.21 1532.4 L1277.11 1532.4 L1286.57 1545.1 L1296.02 1532.4 L1302.93 1532.4 Z" fill="#000000" fill-rule="nonzero" fill-opacity="1" /><polyline clip-path="url(#clip570)" style="stroke:#000000; stroke-linecap:round; stroke-linejoin:round; stroke-width:4; stroke-opacity:1; fill:none" points="219.866,1423.18 219.866,106.192 "/>
<polyline clip-path="url(#clip570)" style="stroke:#000000; stroke-linecap:round; stroke-linejoin:round; stroke-width:4; stroke-opacity:1; fill:none" points="219.866,1252.18 238.764,1252.18 "/>
<polyline clip-path="url(#clip570)" style="stroke:#000000; stroke-linecap:round; stroke-linejoin:round; stroke-width:4; stroke-opacity:1; fill:none" points="219.866,937.68 238.764,937.68 "/>
<polyline clip-path="url(#clip570)" style="stroke:#000000; stroke-linecap:round; stroke-linejoin:round; stroke-width:4; stroke-opacity:1; fill:none" points="219.866,623.18 238.764,623.18 "/>
<polyline clip-path="url(#clip570)" style="stroke:#000000; stroke-linecap:round; stroke-linejoin:round; stroke-width:4; stroke-opacity:1; fill:none" points="219.866,308.681 238.764,308.681 "/>
<path clip-path="url(#clip570)" d="M128.288 1237.98 Q124.677 1237.98 122.848 1241.54 Q121.043 1245.08 121.043 1252.21 Q121.043 1259.32 122.848 1262.88 Q124.677 1266.43 128.288 1266.43 Q131.922 1266.43 133.728 1262.88 Q135.556 1259.32 135.556 1252.21 Q135.556 1245.08 133.728 1241.54 Q131.922 1237.98 128.288 1237.98 M128.288 1234.27 Q134.098 1234.27 137.154 1238.88 Q140.232 1243.46 140.232 1252.21 Q140.232 1260.94 137.154 1265.55 Q134.098 1270.13 128.288 1270.13 Q122.478 1270.13 119.399 1265.55 Q116.343 1260.94 116.343 1252.21 Q116.343 1243.46 119.399 1238.88 Q122.478 1234.27 128.288 1234.27 Z" fill="#000000" fill-rule="nonzero" fill-opacity="1" /><path clip-path="url(#clip570)" d="M148.45 1263.58 L153.334 1263.58 L153.334 1269.46 L148.45 1269.46 L148.45 1263.58 Z" fill="#000000" fill-rule="nonzero" fill-opacity="1" /><path clip-path="url(#clip570)" d="M167.547 1265.52 L183.866 1265.52 L183.866 1269.46 L161.922 1269.46 L161.922 1265.52 Q164.584 1262.77 169.167 1258.14 Q173.774 1253.49 174.954 1252.14 Q177.2 1249.62 178.079 1247.89 Q178.982 1246.13 178.982 1244.44 Q178.982 1241.68 177.038 1239.95 Q175.116 1238.21 172.014 1238.21 Q169.815 1238.21 167.362 1238.97 Q164.931 1239.74 162.153 1241.29 L162.153 1236.57 Q164.977 1235.43 167.431 1234.85 Q169.885 1234.27 171.922 1234.27 Q177.292 1234.27 180.487 1236.96 Q183.681 1239.64 183.681 1244.14 Q183.681 1246.26 182.871 1248.19 Q182.084 1250.08 179.977 1252.68 Q179.399 1253.35 176.297 1256.57 Q173.195 1259.76 167.547 1265.52 Z" fill="#000000" fill-rule="nonzero" fill-opacity="1" /><path clip-path="url(#clip570)" d="M126.205 923.478 Q122.593 923.478 120.765 927.043 Q118.959 930.585 118.959 937.714 Q118.959 944.821 120.765 948.386 Q122.593 951.927 126.205 951.927 Q129.839 951.927 131.644 948.386 Q133.473 944.821 133.473 937.714 Q133.473 930.585 131.644 927.043 Q129.839 923.478 126.205 923.478 M126.205 919.775 Q132.015 919.775 135.07 924.381 Q138.149 928.964 138.149 937.714 Q138.149 946.441 135.07 951.048 Q132.015 955.631 126.205 955.631 Q120.394 955.631 117.316 951.048 Q114.26 946.441 114.26 937.714 Q114.26 928.964 117.316 924.381 Q120.394 919.775 126.205 919.775 Z" fill="#000000" fill-rule="nonzero" fill-opacity="1" /><path clip-path="url(#clip570)" d="M146.366 949.08 L151.251 949.08 L151.251 954.96 L146.366 954.96 L146.366 949.08 Z" fill="#000000" fill-rule="nonzero" fill-opacity="1" /><path clip-path="url(#clip570)" d="M174.283 924.474 L162.477 942.923 L174.283 942.923 L174.283 924.474 M173.056 920.4 L178.936 920.4 L178.936 942.923 L183.866 942.923 L183.866 946.812 L178.936 946.812 L178.936 954.96 L174.283 954.96 L174.283 946.812 L158.681 946.812 L158.681 942.298 L173.056 920.4 Z" fill="#000000" fill-rule="nonzero" fill-opacity="1" /><path clip-path="url(#clip570)" d="M126.529 608.979 Q122.918 608.979 121.089 612.544 Q119.283 616.086 119.283 623.215 Q119.283 630.322 121.089 633.886 Q122.918 637.428 126.529 637.428 Q130.163 637.428 131.968 633.886 Q133.797 630.322 133.797 623.215 Q133.797 616.086 131.968 612.544 Q130.163 608.979 126.529 608.979 M126.529 605.275 Q132.339 605.275 135.394 609.882 Q138.473 614.465 138.473 623.215 Q138.473 631.942 135.394 636.548 Q132.339 641.132 126.529 641.132 Q120.718 641.132 117.64 636.548 Q114.584 631.942 114.584 623.215 Q114.584 614.465 117.64 609.882 Q120.718 605.275 126.529 605.275 Z" fill="#000000" fill-rule="nonzero" fill-opacity="1" /><path clip-path="url(#clip570)" d="M146.691 634.581 L151.575 634.581 L151.575 640.46 L146.691 640.46 L146.691 634.581 Z" fill="#000000" fill-rule="nonzero" fill-opacity="1" /><path clip-path="url(#clip570)" d="M172.339 621.317 Q169.19 621.317 167.339 623.47 Q165.51 625.623 165.51 629.373 Q165.51 633.099 167.339 635.275 Q169.19 637.428 172.339 637.428 Q175.487 637.428 177.315 635.275 Q179.167 633.099 179.167 629.373 Q179.167 625.623 177.315 623.47 Q175.487 621.317 172.339 621.317 M181.621 606.664 L181.621 610.924 Q179.862 610.09 178.056 609.65 Q176.274 609.211 174.514 609.211 Q169.885 609.211 167.431 612.336 Q165.001 615.461 164.653 621.78 Q166.019 619.766 168.079 618.701 Q170.139 617.613 172.616 617.613 Q177.825 617.613 180.834 620.785 Q183.866 623.933 183.866 629.373 Q183.866 634.697 180.718 637.914 Q177.57 641.132 172.339 641.132 Q166.343 641.132 163.172 636.548 Q160.001 631.942 160.001 623.215 Q160.001 615.021 163.89 610.16 Q167.778 605.275 174.329 605.275 Q176.089 605.275 177.871 605.623 Q179.676 605.97 181.621 606.664 Z" fill="#000000" fill-rule="nonzero" fill-opacity="1" /><path clip-path="url(#clip570)" d="M126.783 294.48 Q123.172 294.48 121.343 298.045 Q119.538 301.586 119.538 308.716 Q119.538 315.822 121.343 319.387 Q123.172 322.929 126.783 322.929 Q130.417 322.929 132.223 319.387 Q134.052 315.822 134.052 308.716 Q134.052 301.586 132.223 298.045 Q130.417 294.48 126.783 294.48 M126.783 290.776 Q132.593 290.776 135.649 295.383 Q138.728 299.966 138.728 308.716 Q138.728 317.443 135.649 322.049 Q132.593 326.632 126.783 326.632 Q120.973 326.632 117.894 322.049 Q114.839 317.443 114.839 308.716 Q114.839 299.966 117.894 295.383 Q120.973 290.776 126.783 290.776 Z" fill="#000000" fill-rule="nonzero" fill-opacity="1" /><path clip-path="url(#clip570)" d="M146.945 320.082 L151.829 320.082 L151.829 325.961 L146.945 325.961 L146.945 320.082 Z" fill="#000000" fill-rule="nonzero" fill-opacity="1" /><path clip-path="url(#clip570)" d="M172.014 309.549 Q168.681 309.549 166.76 311.332 Q164.862 313.114 164.862 316.239 Q164.862 319.364 166.76 321.146 Q168.681 322.929 172.014 322.929 Q175.348 322.929 177.269 321.146 Q179.19 319.341 179.19 316.239 Q179.19 313.114 177.269 311.332 Q175.371 309.549 172.014 309.549 M167.339 307.558 Q164.329 306.818 162.64 304.758 Q160.973 302.697 160.973 299.734 Q160.973 295.591 163.913 293.184 Q166.876 290.776 172.014 290.776 Q177.176 290.776 180.116 293.184 Q183.056 295.591 183.056 299.734 Q183.056 302.697 181.366 304.758 Q179.7 306.818 176.714 307.558 Q180.093 308.346 181.968 310.637 Q183.866 312.929 183.866 316.239 Q183.866 321.262 180.788 323.947 Q177.732 326.632 172.014 326.632 Q166.297 326.632 163.218 323.947 Q160.163 321.262 160.163 316.239 Q160.163 312.929 162.061 310.637 Q163.959 308.346 167.339 307.558 M165.626 300.174 Q165.626 302.859 167.292 304.364 Q168.982 305.869 172.014 305.869 Q175.024 305.869 176.714 304.364 Q178.426 302.859 178.426 300.174 Q178.426 297.489 176.714 295.984 Q175.024 294.48 172.014 294.48 Q168.982 294.48 167.292 295.984 Q165.626 297.489 165.626 300.174 Z" fill="#000000" fill-rule="nonzero" fill-opacity="1" /><path clip-path="url(#clip570)" d="M42.4881 749.758 L77.5631 749.758 L77.5631 755.615 L42.679 755.615 Q37.6183 755.615 35.1038 757.588 Q32.5894 759.562 32.5894 763.508 Q32.5894 768.251 35.6131 770.988 Q38.6368 773.725 43.8567 773.725 L64.0042 773.725 L64.0042 779.614 L28.3562 779.614 L28.3562 773.725 L33.8944 773.725 Q30.6797 771.625 29.0883 768.792 Q27.4968 765.927 27.4968 762.203 Q27.4968 756.06 31.2844 752.909 Q35.1038 749.758 42.4881 749.758 Z" fill="#000000" fill-rule="nonzero" fill-opacity="1" /><path clip-path="url(#clip570)" d="M816.58 10.0578 L816.58 15.758 Q813.252 14.1666 810.301 13.3853 Q807.35 12.6041 804.601 12.6041 Q799.826 12.6041 797.222 14.4559 Q794.647 16.3078 794.647 19.7221 Q794.647 22.5867 796.354 24.0624 Q798.09 25.5091 802.894 26.4061 L806.424 27.1295 Q812.963 28.3737 816.059 31.5276 Q819.184 34.6526 819.184 39.9188 Q819.184 46.1977 814.959 49.4384 Q810.764 52.6791 802.633 52.6791 Q799.566 52.6791 796.094 51.9847 Q792.651 51.2902 788.947 49.9303 L788.947 43.9118 Q792.506 45.9083 795.92 46.921 Q799.335 47.9338 802.633 47.9338 Q807.639 47.9338 810.359 45.9662 Q813.079 43.9986 813.079 40.3528 Q813.079 37.1699 811.111 35.376 Q809.172 33.582 804.716 32.685 L801.157 31.9906 Q794.618 30.6885 791.696 27.9107 Q788.773 25.133 788.773 20.1851 Q788.773 14.4559 792.795 11.1573 Q796.846 7.85875 803.935 7.85875 Q806.973 7.85875 810.127 8.40852 Q813.281 8.95829 816.58 10.0578 Z" fill="#000000" fill-rule="nonzero" fill-opacity="1" /><path clip-path="url(#clip570)" d="M827.517 39.0507 L827.517 19.4328 L832.841 19.4328 L832.841 38.8482 Q832.841 43.4488 834.635 45.7636 Q836.429 48.0495 840.017 48.0495 Q844.329 48.0495 846.817 45.3007 Q849.334 42.5519 849.334 37.8065 L849.334 19.4328 L854.658 19.4328 L854.658 51.84 L849.334 51.84 L849.334 46.8632 Q847.396 49.8145 844.82 51.2613 Q842.274 52.6791 838.889 52.6791 Q833.304 52.6791 830.411 49.2069 Q827.517 45.7347 827.517 39.0507 M840.914 18.6515 L840.914 18.6515 Z" fill="#000000" fill-rule="nonzero" fill-opacity="1" /><path clip-path="url(#clip570)" d="M884.404 24.4096 Q883.507 23.8888 882.436 23.6573 Q881.394 23.3969 880.121 23.3969 Q875.607 23.3969 873.177 26.3482 Q870.775 29.2707 870.775 34.7683 L870.775 51.84 L865.422 51.84 L865.422 19.4328 L870.775 19.4328 L870.775 24.4675 Q872.453 21.5161 875.144 20.0983 Q877.835 18.6515 881.684 18.6515 Q882.233 18.6515 882.899 18.7383 Q883.564 18.7962 884.375 18.9409 L884.404 24.4096 Z" fill="#000000" fill-rule="nonzero" fill-opacity="1" /><path clip-path="url(#clip570)" d="M906.394 6.81709 L906.394 11.2442 L901.302 11.2442 Q898.437 11.2442 897.309 12.4016 Q896.209 13.559 896.209 16.5682 L896.209 19.4328 L904.976 19.4328 L904.976 23.5705 L896.209 23.5705 L896.209 51.84 L890.856 51.84 L890.856 23.5705 L885.763 23.5705 L885.763 19.4328 L890.856 19.4328 L890.856 17.1758 Q890.856 11.765 893.373 9.30551 Q895.891 6.81709 901.359 6.81709 L906.394 6.81709 Z" fill="#000000" fill-rule="nonzero" fill-opacity="1" /><path clip-path="url(#clip570)" d="M925.578 35.5496 Q919.126 35.5496 916.637 37.0253 Q914.149 38.501 914.149 42.06 Q914.149 44.8956 916.001 46.5738 Q917.881 48.2231 921.093 48.2231 Q925.52 48.2231 928.182 45.0981 Q930.873 41.9442 930.873 36.7359 L930.873 35.5496 L925.578 35.5496 M936.197 33.3505 L936.197 51.84 L930.873 51.84 L930.873 46.921 Q929.05 49.8724 926.33 51.2902 Q923.61 52.6791 919.675 52.6791 Q914.698 52.6791 911.747 49.9014 Q908.825 47.0947 908.825 42.4072 Q908.825 36.9385 912.47 34.1607 Q916.145 31.3829 923.408 31.3829 L930.873 31.3829 L930.873 30.8621 Q930.873 27.1874 928.443 25.1908 Q926.041 23.1654 921.672 23.1654 Q918.894 23.1654 916.261 23.8309 Q913.628 24.4964 911.197 25.8274 L911.197 20.9085 Q914.12 19.78 916.869 19.2302 Q919.617 18.6515 922.222 18.6515 Q929.253 18.6515 932.725 22.2973 Q936.197 25.9431 936.197 33.3505 Z" fill="#000000" fill-rule="nonzero" fill-opacity="1" /><path clip-path="url(#clip570)" d="M970.485 20.677 L970.485 25.6538 Q968.228 24.4096 965.942 23.802 Q963.685 23.1654 961.371 23.1654 Q956.191 23.1654 953.327 26.464 Q950.462 29.7336 950.462 35.6653 Q950.462 41.597 953.327 44.8956 Q956.191 48.1653 961.371 48.1653 Q963.685 48.1653 965.942 47.5576 Q968.228 46.921 970.485 45.6768 L970.485 50.5958 Q968.257 51.6375 965.856 52.1583 Q963.483 52.6791 960.792 52.6791 Q953.471 52.6791 949.16 48.0784 Q944.849 43.4778 944.849 35.6653 Q944.849 27.7371 949.189 23.1943 Q953.558 18.6515 961.139 18.6515 Q963.599 18.6515 965.942 19.1724 Q968.286 19.6642 970.485 20.677 Z" fill="#000000" fill-rule="nonzero" fill-opacity="1" /><path clip-path="url(#clip570)" d="M1007.46 34.3054 L1007.46 36.9095 L982.985 36.9095 Q983.332 42.4072 986.284 45.3007 Q989.264 48.1653 994.559 48.1653 Q997.626 48.1653 1000.49 47.4129 Q1003.38 46.6606 1006.22 45.156 L1006.22 50.1907 Q1003.36 51.406 1000.35 52.0425 Q997.337 52.6791 994.241 52.6791 Q986.486 52.6791 981.944 48.1653 Q977.43 43.6514 977.43 35.9547 Q977.43 27.9975 981.712 23.339 Q986.023 18.6515 993.315 18.6515 Q999.854 18.6515 1003.64 22.876 Q1007.46 27.0716 1007.46 34.3054 M1002.14 32.7429 Q1002.08 28.3737 999.681 25.7695 Q997.308 23.1654 993.373 23.1654 Q988.917 23.1654 986.226 25.6827 Q983.564 28.2001 983.159 32.7718 L1002.14 32.7429 Z" fill="#000000" fill-rule="nonzero" fill-opacity="1" /><path clip-path="url(#clip570)" d="M1056.36 24.3517 L1056.36 6.81709 L1061.69 6.81709 L1061.69 51.84 L1056.36 51.84 L1056.36 46.9789 Q1054.69 49.8724 1052.11 51.2902 Q1049.56 52.6791 1045.98 52.6791 Q1040.1 52.6791 1036.4 47.9916 Q1032.72 43.3042 1032.72 35.6653 Q1032.72 28.0265 1036.4 23.339 Q1040.1 18.6515 1045.98 18.6515 Q1049.56 18.6515 1052.11 20.0693 Q1054.69 21.4582 1056.36 24.3517 M1038.22 35.6653 Q1038.22 41.5391 1040.62 44.8956 Q1043.05 48.2231 1047.28 48.2231 Q1051.5 48.2231 1053.93 44.8956 Q1056.36 41.5391 1056.36 35.6653 Q1056.36 29.7915 1053.93 26.464 Q1051.5 23.1075 1047.28 23.1075 Q1043.05 23.1075 1040.62 26.464 Q1038.22 29.7915 1038.22 35.6653 Z" fill="#000000" fill-rule="nonzero" fill-opacity="1" /><path clip-path="url(#clip570)" d="M1100.37 34.3054 L1100.37 36.9095 L1075.9 36.9095 Q1076.24 42.4072 1079.19 45.3007 Q1082.17 48.1653 1087.47 48.1653 Q1090.54 48.1653 1093.4 47.4129 Q1096.29 46.6606 1099.13 45.156 L1099.13 50.1907 Q1096.27 51.406 1093.26 52.0425 Q1090.25 52.6791 1087.15 52.6791 Q1079.4 52.6791 1074.85 48.1653 Q1070.34 43.6514 1070.34 35.9547 Q1070.34 27.9975 1074.62 23.339 Q1078.93 18.6515 1086.23 18.6515 Q1092.76 18.6515 1096.56 22.876 Q1100.37 27.0716 1100.37 34.3054 M1095.05 32.7429 Q1094.99 28.3737 1092.59 25.7695 Q1090.22 23.1654 1086.28 23.1654 Q1081.83 23.1654 1079.14 25.6827 Q1076.47 28.2001 1076.07 32.7718 L1095.05 32.7429 Z" fill="#000000" fill-rule="nonzero" fill-opacity="1" /><path clip-path="url(#clip570)" d="M1125.52 6.81709 L1125.52 11.2442 L1120.43 11.2442 Q1117.56 11.2442 1116.43 12.4016 Q1115.33 13.559 1115.33 16.5682 L1115.33 19.4328 L1124.1 19.4328 L1124.1 23.5705 L1115.33 23.5705 L1115.33 51.84 L1109.98 51.84 L1109.98 23.5705 L1104.89 23.5705 L1104.89 19.4328 L1109.98 19.4328 L1109.98 17.1758 Q1109.98 11.765 1112.5 9.30551 Q1115.02 6.81709 1120.48 6.81709 L1125.52 6.81709 Z" fill="#000000" fill-rule="nonzero" fill-opacity="1" /><path clip-path="url(#clip570)" d="M1142.53 23.1654 Q1138.25 23.1654 1135.76 26.5218 Q1133.27 29.8494 1133.27 35.6653 Q1133.27 41.4813 1135.73 44.8377 Q1138.22 48.1653 1142.53 48.1653 Q1146.79 48.1653 1149.27 44.8088 Q1151.76 41.4523 1151.76 35.6653 Q1151.76 29.9072 1149.27 26.5508 Q1146.79 23.1654 1142.53 23.1654 M1142.53 18.6515 Q1149.48 18.6515 1153.44 23.1654 Q1157.41 27.6792 1157.41 35.6653 Q1157.41 43.6225 1153.44 48.1653 Q1149.48 52.6791 1142.53 52.6791 Q1135.56 52.6791 1131.6 48.1653 Q1127.66 43.6225 1127.66 35.6653 Q1127.66 27.6792 1131.6 23.1654 Q1135.56 18.6515 1142.53 18.6515 Z" fill="#000000" fill-rule="nonzero" fill-opacity="1" /><path clip-path="url(#clip570)" d="M1185.01 24.4096 Q1184.11 23.8888 1183.04 23.6573 Q1182 23.3969 1180.73 23.3969 Q1176.21 23.3969 1173.78 26.3482 Q1171.38 29.2707 1171.38 34.7683 L1171.38 51.84 L1166.03 51.84 L1166.03 19.4328 L1171.38 19.4328 L1171.38 24.4675 Q1173.06 21.5161 1175.75 20.0983 Q1178.44 18.6515 1182.29 18.6515 Q1182.84 18.6515 1183.5 18.7383 Q1184.17 18.7962 1184.98 18.9409 L1185.01 24.4096 Z" fill="#000000" fill-rule="nonzero" fill-opacity="1" /><path clip-path="url(#clip570)" d="M1214.78 25.6538 Q1216.78 22.0659 1219.56 20.3587 Q1222.34 18.6515 1226.1 18.6515 Q1231.16 18.6515 1233.91 22.2105 Q1236.66 25.7406 1236.66 32.2799 L1236.66 51.84 L1231.31 51.84 L1231.31 32.4535 Q1231.31 27.795 1229.66 25.5381 Q1228.01 23.2811 1224.62 23.2811 Q1220.48 23.2811 1218.08 26.03 Q1215.68 28.7788 1215.68 33.5241 L1215.68 51.84 L1210.33 51.84 L1210.33 32.4535 Q1210.33 27.7661 1208.68 25.5381 Q1207.03 23.2811 1203.59 23.2811 Q1199.51 23.2811 1197.1 26.0589 Q1194.7 28.8077 1194.7 33.5241 L1194.7 51.84 L1189.35 51.84 L1189.35 19.4328 L1194.7 19.4328 L1194.7 24.4675 Q1196.53 21.4872 1199.07 20.0693 Q1201.62 18.6515 1205.12 18.6515 Q1208.65 18.6515 1211.11 20.4455 Q1213.6 22.2395 1214.78 25.6538 Z" fill="#000000" fill-rule="nonzero" fill-opacity="1" /><path clip-path="url(#clip570)" d="M1262.01 35.5496 Q1255.55 35.5496 1253.06 37.0253 Q1250.58 38.501 1250.58 42.06 Q1250.58 44.8956 1252.43 46.5738 Q1254.31 48.2231 1257.52 48.2231 Q1261.95 48.2231 1264.61 45.0981 Q1267.3 41.9442 1267.3 36.7359 L1267.3 35.5496 L1262.01 35.5496 M1272.62 33.3505 L1272.62 51.84 L1267.3 51.84 L1267.3 46.921 Q1265.48 49.8724 1262.76 51.2902 Q1260.04 52.6791 1256.1 52.6791 Q1251.13 52.6791 1248.17 49.9014 Q1245.25 47.0947 1245.25 42.4072 Q1245.25 36.9385 1248.9 34.1607 Q1252.57 31.3829 1259.84 31.3829 L1267.3 31.3829 L1267.3 30.8621 Q1267.3 27.1874 1264.87 25.1908 Q1262.47 23.1654 1258.1 23.1654 Q1255.32 23.1654 1252.69 23.8309 Q1250.06 24.4964 1247.62 25.8274 L1247.62 20.9085 Q1250.55 19.78 1253.3 19.2302 Q1256.05 18.6515 1258.65 18.6515 Q1265.68 18.6515 1269.15 22.2973 Q1272.62 25.9431 1272.62 33.3505 Z" fill="#000000" fill-rule="nonzero" fill-opacity="1" /><path clip-path="url(#clip570)" d="M1288.86 10.2314 L1288.86 19.4328 L1299.82 19.4328 L1299.82 23.5705 L1288.86 23.5705 L1288.86 41.163 Q1288.86 45.1271 1289.93 46.2555 Q1291.03 47.384 1294.36 47.384 L1299.82 47.384 L1299.82 51.84 L1294.36 51.84 Q1288.19 51.84 1285.85 49.5541 Q1283.5 47.2393 1283.5 41.163 L1283.5 23.5705 L1279.6 23.5705 L1279.6 19.4328 L1283.5 19.4328 L1283.5 10.2314 L1288.86 10.2314 Z" fill="#000000" fill-rule="nonzero" fill-opacity="1" /><path clip-path="url(#clip570)" d="M1306.83 19.4328 L1312.15 19.4328 L1312.15 51.84 L1306.83 51.84 L1306.83 19.4328 M1306.83 6.81709 L1312.15 6.81709 L1312.15 13.559 L1306.83 13.559 L1306.83 6.81709 Z" fill="#000000" fill-rule="nonzero" fill-opacity="1" /><path clip-path="url(#clip570)" d="M1335.85 23.1654 Q1331.57 23.1654 1329.08 26.5218 Q1326.59 29.8494 1326.59 35.6653 Q1326.59 41.4813 1329.05 44.8377 Q1331.54 48.1653 1335.85 48.1653 Q1340.1 48.1653 1342.59 44.8088 Q1345.08 41.4523 1345.08 35.6653 Q1345.08 29.9072 1342.59 26.5508 Q1340.1 23.1654 1335.85 23.1654 M1335.85 18.6515 Q1342.79 18.6515 1346.76 23.1654 Q1350.72 27.6792 1350.72 35.6653 Q1350.72 43.6225 1346.76 48.1653 Q1342.79 52.6791 1335.85 52.6791 Q1328.87 52.6791 1324.91 48.1653 Q1320.98 43.6225 1320.98 35.6653 Q1320.98 27.6792 1324.91 23.1654 Q1328.87 18.6515 1335.85 18.6515 Z" fill="#000000" fill-rule="nonzero" fill-opacity="1" /><path clip-path="url(#clip570)" d="M1386.48 32.2799 L1386.48 51.84 L1381.16 51.84 L1381.16 32.4535 Q1381.16 27.8529 1379.37 25.567 Q1377.57 23.2811 1373.98 23.2811 Q1369.67 23.2811 1367.18 26.03 Q1364.7 28.7788 1364.7 33.5241 L1364.7 51.84 L1359.34 51.84 L1359.34 19.4328 L1364.7 19.4328 L1364.7 24.4675 Q1366.61 21.545 1369.18 20.0983 Q1371.79 18.6515 1375.17 18.6515 Q1380.76 18.6515 1383.62 22.1237 Q1386.48 25.567 1386.48 32.2799 Z" fill="#000000" fill-rule="nonzero" fill-opacity="1" /><path clip-path="url(#clip570)" d="M1430.67 35.5496 Q1424.22 35.5496 1421.73 37.0253 Q1419.24 38.501 1419.24 42.06 Q1419.24 44.8956 1421.09 46.5738 Q1422.97 48.2231 1426.18 48.2231 Q1430.61 48.2231 1433.27 45.0981 Q1435.96 41.9442 1435.96 36.7359 L1435.96 35.5496 L1430.67 35.5496 M1441.29 33.3505 L1441.29 51.84 L1435.96 51.84 L1435.96 46.921 Q1434.14 49.8724 1431.42 51.2902 Q1428.7 52.6791 1424.77 52.6791 Q1419.79 52.6791 1416.84 49.9014 Q1413.91 47.0947 1413.91 42.4072 Q1413.91 36.9385 1417.56 34.1607 Q1421.24 31.3829 1428.5 31.3829 L1435.96 31.3829 L1435.96 30.8621 Q1435.96 27.1874 1433.53 25.1908 Q1431.13 23.1654 1426.76 23.1654 Q1423.98 23.1654 1421.35 23.8309 Q1418.72 24.4964 1416.29 25.8274 L1416.29 20.9085 Q1419.21 19.78 1421.96 19.2302 Q1424.71 18.6515 1427.31 18.6515 Q1434.34 18.6515 1437.81 22.2973 Q1441.29 25.9431 1441.29 33.3505 Z" fill="#000000" fill-rule="nonzero" fill-opacity="1" /><path clip-path="url(#clip570)" d="M1457.52 10.2314 L1457.52 19.4328 L1468.49 19.4328 L1468.49 23.5705 L1457.52 23.5705 L1457.52 41.163 Q1457.52 45.1271 1458.59 46.2555 Q1459.69 47.384 1463.02 47.384 L1468.49 47.384 L1468.49 51.84 L1463.02 51.84 Q1456.85 51.84 1454.51 49.5541 Q1452.17 47.2393 1452.17 41.163 L1452.17 23.5705 L1448.26 23.5705 L1448.26 19.4328 L1452.17 19.4328 L1452.17 10.2314 L1457.52 10.2314 Z" fill="#000000" fill-rule="nonzero" fill-opacity="1" /><path clip-path="url(#clip570)" d="M1499.59 10.2314 L1499.59 19.4328 L1510.56 19.4328 L1510.56 23.5705 L1499.59 23.5705 L1499.59 41.163 Q1499.59 45.1271 1500.66 46.2555 Q1501.76 47.384 1505.09 47.384 L1510.56 47.384 L1510.56 51.84 L1505.09 51.84 Q1498.93 51.84 1496.58 49.5541 Q1494.24 47.2393 1494.24 41.163 L1494.24 23.5705 L1490.33 23.5705 L1490.33 19.4328 L1494.24 19.4328 L1494.24 10.2314 L1499.59 10.2314 Z" fill="#000000" fill-rule="nonzero" fill-opacity="1" /><path clip-path="url(#clip570)" d="M1518.25 24.9304 L1555.35 24.9304 L1555.35 29.7915 L1518.25 29.7915 L1518.25 24.9304 M1518.25 36.7359 L1555.35 36.7359 L1555.35 41.6549 L1518.25 41.6549 L1518.25 36.7359 Z" fill="#000000" fill-rule="nonzero" fill-opacity="1" /><path clip-path="url(#clip570)" d="M1625.49 46.921 L1635.04 46.921 L1635.04 13.964 L1624.65 16.0474 L1624.65 10.7233 L1634.98 8.64 L1640.82 8.64 L1640.82 46.921 L1650.37 46.921 L1650.37 51.84 L1625.49 51.84 L1625.49 46.921 Z" fill="#000000" fill-rule="nonzero" fill-opacity="1" /><path clip-path="url(#clip570)" d="M1662.18 44.4905 L1668.28 44.4905 L1668.28 51.84 L1662.18 51.84 L1662.18 44.4905 Z" fill="#000000" fill-rule="nonzero" fill-opacity="1" /><path clip-path="url(#clip570)" d="M1693.51 12.4884 Q1689 12.4884 1686.71 16.9444 Q1684.46 21.3714 1684.46 30.2834 Q1684.46 39.1665 1686.71 43.6225 Q1689 48.0495 1693.51 48.0495 Q1698.06 48.0495 1700.31 43.6225 Q1702.6 39.1665 1702.6 30.2834 Q1702.6 21.3714 1700.31 16.9444 Q1698.06 12.4884 1693.51 12.4884 M1693.51 7.85875 Q1700.78 7.85875 1704.6 13.6168 Q1708.44 19.346 1708.44 30.2834 Q1708.44 41.1919 1704.6 46.95 Q1700.78 52.6791 1693.51 52.6791 Q1686.25 52.6791 1682.4 46.95 Q1678.58 41.1919 1678.58 30.2834 Q1678.58 19.346 1682.4 13.6168 Q1686.25 7.85875 1693.51 7.85875 Z" fill="#000000" fill-rule="nonzero" fill-opacity="1" /><path clip-path="url(#clip570)" d="M1731.22 12.4884 Q1726.7 12.4884 1724.42 16.9444 Q1722.16 21.3714 1722.16 30.2834 Q1722.16 39.1665 1724.42 43.6225 Q1726.7 48.0495 1731.22 48.0495 Q1735.76 48.0495 1738.02 43.6225 Q1740.3 39.1665 1740.3 30.2834 Q1740.3 21.3714 1738.02 16.9444 Q1735.76 12.4884 1731.22 12.4884 M1731.22 7.85875 Q1738.48 7.85875 1742.3 13.6168 Q1746.15 19.346 1746.15 30.2834 Q1746.15 41.1919 1742.3 46.95 Q1738.48 52.6791 1731.22 52.6791 Q1723.95 52.6791 1720.11 46.95 Q1716.29 41.1919 1716.29 30.2834 Q1716.29 19.346 1720.11 13.6168 Q1723.95 7.85875 1731.22 7.85875 Z" fill="#000000" fill-rule="nonzero" fill-opacity="1" /><path clip-path="url(#clip570)" d="M1768.92 12.4884 Q1764.4 12.4884 1762.12 16.9444 Q1759.86 21.3714 1759.86 30.2834 Q1759.86 39.1665 1762.12 43.6225 Q1764.4 48.0495 1768.92 48.0495 Q1773.46 48.0495 1775.72 43.6225 Q1778 39.1665 1778 30.2834 Q1778 21.3714 1775.72 16.9444 Q1773.46 12.4884 1768.92 12.4884 M1768.92 7.85875 Q1776.18 7.85875 1780 13.6168 Q1783.85 19.346 1783.85 30.2834 Q1783.85 41.1919 1780 46.95 Q1776.18 52.6791 1768.92 52.6791 Q1761.66 52.6791 1757.81 46.95 Q1753.99 41.1919 1753.99 30.2834 Q1753.99 19.346 1757.81 13.6168 Q1761.66 7.85875 1768.92 7.85875 Z" fill="#000000" fill-rule="nonzero" fill-opacity="1" /><polyline clip-path="url(#clip571)" style="stroke:#009af9; stroke-linecap:round; stroke-linejoin:round; stroke-width:4; stroke-opacity:1; fill:none" points="280.231,1271.87 283.919,1275.41 287.608,1278.75 291.298,1281.92 294.989,1284.97 298.68,1287.91 302.371,1290.78 306.062,1293.59 309.752,1296.37 313.441,1299.12 317.129,1301.85 320.814,1304.55 324.497,1307.21 328.176,1309.82 331.853,1312.35 335.525,1314.79 339.193,1317.08 342.858,1319.21 346.518,1321.14 350.174,1322.84 353.825,1324.25 357.473,1325.35 361.117,1326.11 364.758,1326.48 368.396,1326.44 372.031,1325.96 375.664,1325 379.296,1323.55 382.927,1321.57 386.557,1319.06 390.188,1316 393.82,1312.36 397.454,1308.15 401.09,1303.37 404.73,1297.99 408.374,1292.05 412.022,1285.52 415.676,1278.45 419.337,1270.82 423.005,1262.68 426.68,1254.05 430.364,1244.96 434.057,1235.44 437.76,1225.54 441.472,1215.3 445.195,1204.77 448.929,1194 452.673,1183.04 456.428,1171.95 460.193,1160.76 463.969,1149.53 467.754,1138.3 471.55,1127.1 475.354,1115.96 479.166,1104.91 482.986,1093.95 486.813,1083.09 490.647,1072.33 494.487,1061.66 498.333,1051.06 502.184,1040.52 506.04,1030 509.901,1019.5 513.767,1008.97 517.637,998.409 521.513,987.784 525.394,977.081 529.281,966.288 533.174,955.399 537.072,944.412 540.977,933.332 544.889,922.166 548.808,910.928 552.735,899.635 556.668,888.307 560.608,876.965 564.556,865.628 568.511,854.315 572.472,843.044 576.44,831.826 580.413,820.669 584.392,809.576 588.377,798.542 592.365,787.56 596.358,776.613 600.354,765.682 604.354,754.74 608.356,743.755 612.36,732.691 616.367,721.504 620.376,710.146 624.386,698.562 628.399,686.691 632.413,674.468 636.429,661.822 640.448,648.678 644.47,634.96 648.496,620.591 652.528,605.498 656.566,589.611 660.613,572.868 664.67,555.218 668.739,536.622 672.824,517.061 676.926,496.534 681.048,475.065 685.195,452.707 689.367,429.544 693.57,405.698 697.806,381.329 702.078,356.643 706.388,331.889 710.738,307.366 715.131,283.414 719.565,260.413 724.041,238.771 728.556,218.902 733.106,201.207 737.686,186.04 742.288,173.679 746.905,164.295 751.529,157.941 756.152,154.546 760.766,153.93 765.366,155.831 769.946,159.939 774.505,165.925 779.041,173.467 783.552,182.266 788.039,192.059 792.503,202.622 796.944,213.763 801.366,225.329 805.768,237.194 810.152,249.257 814.52,261.44 818.874,273.686 823.215,285.952 827.543,298.216 831.862,310.47 836.172,322.724 840.473,335.001 844.768,347.342 849.057,359.799 853.34,372.431 857.617,385.304 861.888,398.482 866.153,412.023 870.411,425.976 874.661,440.375 878.902,455.241 883.132,470.573 887.351,486.357 891.558,502.564 895.751,519.153 899.93,536.072 904.095,553.268 908.244,570.681 912.378,588.256 916.497,605.937 920.6,623.674 924.689,641.42 928.762,659.133 932.821,676.777 936.865,694.318 940.894,711.724 944.909,728.967 948.911,746.018 952.898,762.85 956.872,779.434 960.833,795.74 964.78,811.739 968.714,827.399 972.636,842.688 976.545,857.573 980.443,872.023 984.328,886.007 988.203,899.495 992.067,912.458 995.922,924.873 999.767,936.717 1003.6,947.97 1007.43,958.619 1011.25,968.651 1015.07,978.058 1018.88,986.835 1022.68,994.982 1026.48,1002.5 1030.28,1009.39 1034.07,1015.67 1037.86,1021.34 1041.65,1026.42 1045.44,1030.91 1049.22,1034.84 1053.01,1038.22 1056.8,1041.06 1060.58,1043.39 1064.37,1045.22 1068.16,1046.58 1071.95,1047.49 1075.75,1047.96 1079.54,1048.02 1083.34,1047.7 1087.15,1047.01 1090.95,1045.99 1094.76,1044.66 1098.58,1043.05 1102.4,1041.18 1106.22,1039.09 1110.05,1036.79 1113.88,1034.32 1117.72,1031.71 1121.56,1028.97 1125.4,1026.14 1129.25,1023.23 1133.11,1020.26 1136.97,1017.27 1140.83,1014.25 1144.69,1011.23 1148.56,1008.22 1152.43,1005.23 1156.31,1002.27 1160.19,999.348 1164.07,996.465 1167.95,993.628 1171.84,990.838 1175.73,988.098 1179.62,985.408 1183.51,982.768 1187.41,980.176 1191.3,977.631 1195.2,975.131 1199.1,972.674 1203,970.259 1206.9,967.883 1210.81,965.544 1214.72,963.243 1218.62,960.978 1222.53,958.75 1226.44,956.561 1230.36,954.415 1234.27,952.314 1238.19,950.266 1242.11,948.277 1246.03,946.356 1249.95,944.513 1253.87,942.758 1257.8,941.103 1261.73,939.561 1265.66,938.143 1269.59,936.862 1273.52,935.728 1277.45,934.752 1281.38,933.94 1285.32,933.299 1289.25,932.831 1293.18,932.534 1297.11,932.403 1301.04,932.429 1304.97,932.599 1308.9,932.894 1312.82,933.294 1316.74,933.773 1320.66,934.302 1324.57,934.849 1328.49,935.381 1332.39,935.864 1336.3,936.261 1340.2,936.537 1344.1,936.66 1348,936.596 1351.89,936.318 1355.78,935.8 1359.67,935.021 1363.56,933.966 1367.46,932.625 1371.35,930.995 1375.24,929.08 1379.14,926.89 1383.03,924.443 1386.94,921.764 1390.84,918.883 1394.75,915.837 1398.66,912.666 1402.58,909.416 1406.5,906.13 1410.43,902.854 1414.36,899.63 1418.29,896.493 1422.23,893.471 1426.17,890.585 1430.11,887.84 1434.05,885.233 1437.99,882.746 1441.93,880.349 1445.87,878.002 1449.8,875.656 1453.73,873.251 1457.66,870.726 1461.58,868.015 1465.51,865.051 1469.42,861.767 1473.34,858.101 1477.26,853.992 1481.17,849.386 1485.09,844.232 1489,838.486 1492.92,832.112 1496.84,825.079 1500.77,817.364 1504.71,808.957 1508.65,799.854 1512.6,790.065 1516.57,779.615 1520.55,768.544 1524.55,756.914 1528.56,744.806 1532.6,732.329 1536.66,719.62 1540.74,706.847 1544.85,694.208 1548.98,681.938 1553.15,670.297 1557.34,659.573 1561.56,650.064 1565.8,642.07 1570.06,635.872 1574.33,631.713 1578.62,629.776 1582.91,630.167 1587.2,632.905 1591.48,637.915 1595.75,645.043 1600,654.059 1604.22,664.689 1608.42,676.628 1612.59,689.569 1616.74,703.214 1620.86,717.293 1624.95,731.568 1629.02,745.839 1633.07,759.945 1637.09,773.761 1641.11,787.195 1645.1,800.186 1649.09,812.699 1653.06,824.72 1657.03,836.257 1660.98,847.333 1664.94,857.987 1668.89,868.27 1672.84,878.246 1676.79,887.991 1680.74,897.589 1684.69,907.136 1688.64,916.735 1692.59,926.498 1696.55,936.541 1700.5,946.981 1704.46,957.935 1708.41,969.51 1712.36,981.799 1716.31,994.873 1720.25,1008.78 1724.17,1023.53 1728.09,1039.1 1731.99,1055.45 1735.87,1072.47 1739.74,1090.08 1743.58,1108.12 1747.4,1126.45 1751.19,1144.94 1754.97,1163.41 1758.72,1181.73 1762.44,1199.76 1766.15,1217.36 1769.83,1234.42 1773.49,1250.84 1777.14,1266.52 1780.76,1281.37 1784.37,1295.34 1787.96,1308.36 1791.54,1320.39 1795.11,1331.37 1798.67,1341.27 1802.22,1350.07 1805.76,1357.75 1809.29,1364.28 1812.81,1369.65 1816.33,1373.86 1819.85,1376.89 1823.37,1378.76 1826.89,1379.45 1830.4,1378.97 1833.92,1377.33 1837.44,1374.55 1840.97,1370.63 1844.5,1365.6 1848.04,1359.48 1851.58,1352.29 1855.13,1344.07 1858.7,1334.85 1862.27,1324.68 1865.86,1313.6 1869.46,1301.67 1873.07,1288.96 1876.7,1275.52 1880.35,1261.44 1884.01,1246.8 1887.69,1231.7 1891.39,1216.22 1895.11,1200.47 1898.84,1184.55 1902.59,1168.57 1906.36,1152.62 1910.15,1136.79 1913.94,1121.16 1917.76,1105.79 1921.58,1090.72 1925.41,1075.97 1929.25,1061.51 1933.1,1047.33 1936.95,1033.35 1940.81,1019.5 1944.67,1005.69 1948.53,991.819 1952.4,977.784 1956.27,963.484 1960.14,948.824 1964.02,933.72 1967.91,918.098 1971.8,901.896 1975.7,885.064 1979.61,867.567 1983.53,849.38 1987.47,830.494 1991.43,810.909 1995.41,790.642 1999.4,769.728 2003.42,748.218 2007.47,726.19 2011.55,703.754 2015.66,681.055 2019.81,658.288 2024,635.709 2028.23,613.638 2032.51,592.473 2036.83,572.684 2041.2,554.807 2045.61,539.409 2050.05,527.049 2054.52,518.217 2059.02,513.266 2063.51,512.369 2068,515.491 2072.48,522.4 2076.92,532.711 2081.34,545.942 2085.71,561.572 2090.04,579.087 2094.33,598.014 2098.58,617.938 2102.79,638.505 2106.97,659.425 2111.11,680.461 2115.22,701.427 2119.29,722.176 2123.35,742.597 2127.37,762.606 2131.38,782.142 2135.37,801.163 2139.34,819.646 2143.29,837.579 2147.23,854.965 2151.15,871.815 2155.07,888.151 2158.97,904.003 2162.86,919.406 2166.75,934.401 2170.63,949.031 2174.5,963.34 2178.36,977.371 2182.22,991.163 2186.07,1004.75 2189.91,1018.16 2193.75,1031.4 2197.57,1044.5 2201.39,1057.44 2205.2,1070.23 2209,1082.84 2212.79,1095.25 2216.58,1107.44 2220.35,1119.37 2224.12,1131.01 2227.87,1142.33 2231.62,1153.29 2235.36,1163.86 2239.09,1174.02 2242.81,1183.74 2246.53,1192.99 2250.24,1201.78 2253.94,1210.08 2257.64,1217.89 2261.34,1225.22 2265.03,1232.07 2268.72,1238.45 2272.41,1244.38 2276.1,1249.87 2279.78,1254.96 2283.47,1259.67 2287.16,1264.04 2290.84,1268.09 "/>
<polyline clip-path="url(#clip571)" style="stroke:#e26f46; stroke-linecap:round; stroke-linejoin:round; stroke-width:4; stroke-opacity:1; fill:none" points="282.026,1308.37 285.96,1311.48 289.894,1314.05 293.829,1316.11 297.763,1317.68 301.697,1318.78 305.631,1319.44 309.565,1319.69 313.5,1319.53 317.434,1319 321.368,1318.12 325.302,1316.89 329.236,1315.34 333.17,1313.48 337.105,1311.34 341.039,1308.91 344.973,1306.23 348.907,1303.3 352.841,1300.14 356.775,1296.76 360.71,1293.18 364.644,1289.4 368.578,1285.45 372.512,1281.34 376.446,1277.08 380.381,1272.69 384.315,1268.17 388.249,1263.54 392.183,1258.8 396.117,1253.98 400.051,1249.07 403.986,1244.08 407.92,1239.01 411.854,1233.87 415.788,1228.66 419.722,1223.37 423.656,1217.99 427.591,1212.54 431.525,1206.98 435.459,1201.33 439.393,1195.56 443.327,1189.67 447.262,1183.64 451.196,1177.46 455.13,1171.13 459.064,1164.61 462.998,1157.92 466.932,1151.02 470.867,1143.9 474.801,1136.56 478.735,1128.97 482.669,1121.13 486.603,1113.02 490.538,1104.62 494.472,1095.93 498.406,1086.93 502.34,1077.61 506.274,1067.96 510.208,1057.96 514.143,1047.6 518.077,1036.87 522.011,1025.77 525.945,1014.29 529.879,1002.42 533.813,990.169 537.748,977.535 541.682,964.525 545.616,951.152 549.55,937.43 553.484,923.379 557.419,909.023 561.353,894.391 565.287,879.514 569.221,864.428 573.155,849.169 577.089,833.776 581.024,818.288 584.958,802.742 588.892,787.175 592.826,771.62 596.76,756.108 600.695,740.666 604.629,725.316 608.563,710.076 612.497,694.962 616.431,679.982 620.365,665.145 624.3,650.455 628.234,635.914 632.168,621.523 636.102,607.28 640.036,593.183 643.97,579.229 647.905,565.416 651.839,551.737 655.773,538.188 659.707,524.763 663.641,511.453 667.576,498.251 671.51,485.149 675.444,472.139 679.378,459.213 683.312,446.366 687.246,433.597 691.181,420.906 695.115,408.302 699.049,395.796 702.983,383.408 706.917,371.163 710.851,359.094 714.786,347.237 718.72,335.637 722.654,324.339 726.588,313.393 730.522,302.847 734.457,292.75 738.391,283.147 742.325,274.077 746.259,265.575 750.193,257.669 754.127,250.379 758.062,243.718 761.996,237.695 765.93,232.309 769.864,227.558 773.798,223.436 777.733,219.937 781.667,217.055 785.601,214.79 789.535,213.143 793.469,212.125 797.403,211.753 801.338,212.05 805.272,213.051 809.206,214.794 813.14,217.326 817.074,220.695 821.008,224.953 824.943,230.149 828.877,236.329 832.811,243.536 836.745,251.802 840.679,261.151 844.614,271.595 848.548,283.134 852.482,295.757 856.416,309.439 860.35,324.144 864.284,339.825 868.219,356.423 872.153,373.873 876.087,392.102 880.021,411.032 883.955,430.581 887.89,450.664 891.824,471.197 895.758,492.097 899.692,513.282 903.626,534.671 907.56,556.191 911.495,577.768 915.429,599.337 919.363,620.834 923.297,642.203 927.231,663.39 931.165,684.345 935.1,705.023 939.034,725.382 942.968,745.382 946.902,764.985 950.836,784.157 954.771,802.862 958.705,821.067 962.639,838.74 966.573,855.849 970.507,872.362 974.441,888.252 978.376,903.488 982.31,918.045 986.244,931.897 990.178,945.022 994.112,957.4 998.046,969.015 1001.98,979.854 1005.91,989.907 1009.85,999.168 1013.78,1007.64 1017.72,1015.31 1021.65,1022.21 1025.59,1028.32 1029.52,1033.68 1033.45,1038.3 1037.39,1042.19 1041.32,1045.39 1045.26,1047.91 1049.19,1049.8 1053.12,1051.07 1057.06,1051.76 1060.99,1051.9 1064.93,1051.52 1068.86,1050.67 1072.8,1049.36 1076.73,1047.64 1080.66,1045.54 1084.6,1043.08 1088.53,1040.3 1092.47,1037.23 1096.4,1033.89 1100.34,1030.33 1104.27,1026.56 1108.2,1022.62 1112.14,1018.54 1116.07,1014.34 1120.01,1010.05 1123.94,1005.7 1127.87,1001.32 1131.81,996.937 1135.74,992.577 1139.68,988.268 1143.61,984.037 1147.55,979.907 1151.48,975.904 1155.41,972.05 1159.35,968.366 1163.28,964.869 1167.22,961.578 1171.15,958.506 1175.08,955.666 1179.02,953.066 1182.95,950.714 1186.89,948.615 1190.82,946.769 1194.76,945.177 1198.69,943.834 1202.62,942.736 1206.56,941.874 1210.49,941.239 1214.43,940.819 1218.36,940.6 1222.29,940.569 1226.23,940.709 1230.16,941.003 1234.1,941.435 1238.03,941.987 1241.97,942.642 1245.9,943.382 1249.83,944.191 1253.77,945.054 1257.7,945.955 1261.64,946.88 1265.57,947.817 1269.5,948.753 1273.44,949.678 1277.37,950.581 1281.31,951.453 1285.24,952.284 1289.18,953.065 1293.11,953.787 1297.04,954.44 1300.98,955.014 1304.91,955.499 1308.85,955.883 1312.78,956.154 1316.71,956.301 1320.65,956.311 1324.58,956.17 1328.52,955.866 1332.45,955.386 1336.39,954.718 1340.32,953.852 1344.25,952.777 1348.19,951.484 1352.12,949.967 1356.06,948.221 1359.99,946.242 1363.93,944.029 1367.86,941.583 1371.79,938.907 1375.73,936.006 1379.66,932.887 1383.6,929.559 1387.53,926.031 1391.46,922.318 1395.4,918.431 1399.33,914.387 1403.27,910.202 1407.2,905.894 1411.14,901.48 1415.07,896.982 1419,892.417 1422.94,887.805 1426.87,883.166 1430.81,878.518 1434.74,873.877 1438.67,869.258 1442.61,864.672 1446.54,860.128 1450.48,855.63 1454.41,851.179 1458.35,846.771 1462.28,842.398 1466.21,838.05 1470.15,833.71 1474.08,829.361 1478.02,824.983 1481.95,820.554 1485.88,816.053 1489.82,811.459 1493.75,806.753 1497.69,801.921 1501.62,796.949 1505.56,791.831 1509.49,786.565 1513.42,781.155 1517.36,775.609 1521.29,769.946 1525.23,764.186 1529.16,758.356 1533.09,752.491 1537.03,746.627 1540.96,740.807 1544.9,735.077 1548.83,729.483 1552.77,724.078 1556.7,718.913 1560.63,714.039 1564.57,709.508 1568.5,705.372 1572.44,701.678 1576.37,698.473 1580.3,695.798 1584.24,693.691 1588.17,692.186 1592.11,691.31 1596.04,691.087 1599.98,691.534 1603.91,692.665 1607.84,694.487 1611.78,697.006 1615.71,700.221 1619.65,704.129 1623.58,708.726 1627.52,714.001 1631.45,719.945 1635.38,726.545 1639.32,733.786 1643.25,741.654 1647.19,750.134 1651.12,759.209 1655.05,768.867 1658.99,779.095 1662.92,789.884 1666.86,801.227 1670.79,813.119 1674.73,825.559 1678.66,838.547 1682.59,852.087 1686.53,866.18 1690.46,880.827 1694.4,896.026 1698.33,911.771 1702.26,928.049 1706.2,944.842 1710.13,962.122 1714.07,979.852 1718,997.989 1721.94,1016.48 1725.87,1035.26 1729.8,1054.27 1733.74,1073.42 1737.67,1092.65 1741.61,1111.86 1745.54,1130.99 1749.47,1149.94 1753.41,1168.62 1757.34,1186.97 1761.28,1204.89 1765.21,1222.32 1769.15,1239.17 1773.08,1255.37 1777.01,1270.87 1780.95,1285.59 1784.88,1299.48 1788.82,1312.49 1792.75,1324.55 1796.68,1335.64 1800.62,1345.71 1804.55,1354.71 1808.49,1362.63 1812.42,1369.42 1816.36,1375.07 1820.29,1379.56 1824.22,1382.87 1828.16,1384.99 1832.09,1385.91 1836.03,1385.62 1839.96,1384.12 1843.89,1381.43 1847.83,1377.53 1851.76,1372.44 1855.7,1366.19 1859.63,1358.77 1863.57,1350.22 1867.5,1340.56 1871.43,1329.82 1875.37,1318.05 1879.3,1305.27 1883.24,1291.53 1887.17,1276.88 1891.1,1261.37 1895.04,1245.05 1898.97,1227.99 1902.91,1210.25 1906.84,1191.88 1910.78,1172.95 1914.71,1153.51 1918.64,1133.64 1922.58,1113.39 1926.51,1092.82 1930.45,1071.98 1934.38,1050.92 1938.32,1029.7 1942.25,1008.35 1946.18,986.919 1950.12,965.442 1954.05,943.955 1957.99,922.493 1961.92,901.089 1965.85,879.78 1969.79,858.604 1973.72,837.605 1977.66,816.831 1981.59,796.339 1985.53,776.192 1989.46,756.461 1993.39,737.226 1997.33,718.574 2001.26,700.594 2005.2,683.383 2009.13,667.037 2013.06,651.65 2017,637.315 2020.93,624.116 2024.87,612.13 2028.8,601.425 2032.74,592.056 2036.67,584.067 2040.6,577.489 2044.54,572.341 2048.47,568.631 2052.41,566.356 2056.34,565.504 2060.27,566.053 2064.21,567.974 2068.14,571.229 2072.08,575.777 2076.01,581.568 2079.95,588.545 2083.88,596.649 2087.81,605.812 2091.75,615.964 2095.68,627.028 2099.62,638.926 2103.55,651.578 2107.48,664.903 2111.42,678.823 2115.35,693.26 2119.29,708.144 2123.22,723.409 2127.16,738.996 2131.09,754.853 2135.02,770.936 2138.96,787.206 2142.89,803.632 2146.83,820.187 2150.76,836.85 2154.69,853.601 2158.63,870.424 2162.56,887.302 2166.5,904.22 2170.43,921.162 2174.37,938.11 2178.3,955.044 2182.23,971.942 2186.17,988.78 2190.1,1005.53 2194.04,1022.17 2197.97,1038.66 2201.91,1054.97 2205.84,1071.06 2209.77,1086.89 2213.71,1102.44 2217.64,1117.65 2221.58,1132.5 2225.51,1146.93 2229.44,1160.93 2233.38,1174.44 2237.31,1187.43 2241.25,1199.88 2245.18,1211.76 2249.12,1223.04 2253.05,1233.7 2256.98,1243.73 2260.92,1253.11 2264.85,1261.83 2268.79,1269.89 2272.72,1277.29 2276.65,1284.04 2280.59,1290.14 2284.52,1295.61 2288.46,1300.46 2292.39,1304.71 "/>
<polyline clip-path="url(#clip571)" style="stroke:#3da44d; stroke-linecap:round; stroke-linejoin:round; stroke-width:4; stroke-opacity:1; fill:none" points="282.026,1267.89 285.96,1273.05 289.894,1278.03 293.829,1282.84 297.763,1287.47 301.697,1291.92 305.631,1296.19 309.565,1300.27 313.5,1304.14 317.434,1307.8 321.368,1311.23 325.302,1314.42 329.236,1317.35 333.17,1320.01 337.105,1322.37 341.039,1324.42 344.973,1326.14 348.907,1327.51 352.841,1328.51 356.775,1329.12 360.71,1329.32 364.644,1329.1 368.578,1328.42 372.512,1327.28 376.446,1325.65 380.381,1323.52 384.315,1320.87 388.249,1317.69 392.183,1313.98 396.117,1309.71 400.051,1304.89 403.986,1299.52 407.92,1293.6 411.854,1287.12 415.788,1280.1 419.722,1272.55 423.656,1264.49 427.591,1255.92 431.525,1246.87 435.459,1237.35 439.393,1227.4 443.327,1217.03 447.262,1206.27 451.196,1195.15 455.13,1183.7 459.064,1171.95 462.998,1159.93 466.932,1147.68 470.867,1135.24 474.801,1122.63 478.735,1109.9 482.669,1097.08 486.603,1084.23 490.538,1071.37 494.472,1058.55 498.406,1045.81 502.34,1033.17 506.274,1020.68 510.208,1008.35 514.143,996.214 518.077,984.284 522.011,972.571 525.945,961.082 529.879,949.818 533.813,938.778 537.748,927.956 541.682,917.347 545.616,906.943 549.55,896.733 553.484,886.71 557.419,876.862 561.353,867.177 565.287,857.64 569.221,848.236 573.155,838.943 577.089,829.737 581.024,820.59 584.958,811.468 588.892,802.335 592.826,793.148 596.76,783.863 600.695,774.431 604.629,764.802 608.563,754.924 612.497,744.743 616.431,734.208 620.365,723.267 624.3,711.868 628.234,699.965 632.168,687.509 636.102,674.458 640.036,660.771 643.97,646.41 647.905,631.343 651.839,615.539 655.773,598.976 659.707,581.634 663.641,563.502 667.576,544.58 671.51,524.875 675.444,504.412 679.378,483.232 683.312,461.397 687.246,438.993 691.181,416.133 695.115,392.96 699.049,369.647 702.983,346.393 706.917,323.418 710.851,300.958 714.786,279.256 718.72,258.551 722.654,239.071 726.588,221.024 730.522,204.596 734.457,189.942 738.391,177.188 742.325,166.428 746.259,157.72 750.193,151.092 754.127,146.536 758.062,144.015 761.996,143.465 765.93,144.801 769.864,147.916 773.798,152.695 777.733,159.008 781.667,166.719 785.601,175.687 789.535,185.762 793.469,196.792 797.403,208.624 801.338,221.101 805.272,234.074 809.206,247.397 813.14,260.938 817.074,274.573 821.008,288.196 824.943,301.716 828.877,315.059 832.811,328.167 836.745,341.003 840.679,353.542 844.614,365.779 848.548,377.722 852.482,389.396 856.416,400.836 860.35,412.094 864.284,423.23 868.219,434.316 872.153,445.432 876.087,456.665 880.021,468.105 883.955,479.846 887.89,491.976 891.824,504.58 895.758,517.731 899.692,531.486 903.626,545.884 907.56,560.937 911.495,576.63 915.429,592.924 919.363,609.749 923.297,627.017 927.231,644.621 931.165,662.448 935.1,680.381 939.034,698.308 942.968,716.128 946.902,733.751 950.836,751.103 954.771,768.123 958.705,784.764 962.639,800.99 966.573,816.778 970.507,832.109 974.441,846.975 978.376,861.369 982.31,875.289 986.244,888.733 990.178,901.701 994.112,914.189 998.046,926.194 1001.98,937.711 1005.91,948.73 1009.85,959.243 1013.78,969.234 1017.72,978.692 1021.65,987.6 1025.59,995.942 1029.52,1003.7 1033.45,1010.87 1037.39,1017.43 1041.32,1023.37 1045.26,1028.69 1049.19,1033.39 1053.12,1037.45 1057.06,1040.9 1060.99,1043.73 1064.93,1045.97 1068.86,1047.63 1072.8,1048.74 1076.73,1049.32 1080.66,1049.41 1084.6,1049.04 1088.53,1048.26 1092.47,1047.1 1096.4,1045.6 1100.34,1043.82 1104.27,1041.79 1108.2,1039.56 1112.14,1037.17 1116.07,1034.65 1120.01,1032.05 1123.94,1029.38 1127.87,1026.68 1131.81,1023.97 1135.74,1021.26 1139.68,1018.55 1143.61,1015.87 1147.55,1013.2 1151.48,1010.55 1155.41,1007.9 1159.35,1005.26 1163.28,1002.6 1167.22,999.927 1171.15,997.221 1175.08,994.474 1179.02,991.677 1182.95,988.824 1186.89,985.91 1190.82,982.936 1194.76,979.903 1198.69,976.818 1202.62,973.693 1206.56,970.543 1210.49,967.384 1214.43,964.24 1218.36,961.134 1222.29,958.092 1226.23,955.142 1230.16,952.312 1234.1,949.627 1238.03,947.113 1241.97,944.79 1245.9,942.678 1249.83,940.789 1253.77,939.131 1257.7,937.708 1261.64,936.517 1265.57,935.55 1269.5,934.796 1273.44,934.238 1277.37,933.857 1281.31,933.629 1285.24,933.531 1289.18,933.537 1293.11,933.621 1297.04,933.758 1300.98,933.922 1304.91,934.088 1308.85,934.234 1312.78,934.336 1316.71,934.375 1320.65,934.331 1324.58,934.189 1328.52,933.932 1332.45,933.549 1336.39,933.029 1340.32,932.365 1344.25,931.555 1348.19,930.597 1352.12,929.495 1356.06,928.257 1359.99,926.894 1363.93,925.421 1367.86,923.857 1371.79,922.222 1375.73,920.538 1379.66,918.826 1383.6,917.107 1387.53,915.399 1391.46,913.715 1395.4,912.063 1399.33,910.447 1403.27,908.864 1407.2,907.307 1411.14,905.761 1415.07,904.211 1419,902.634 1422.94,901.006 1426.87,899.302 1430.81,897.495 1434.74,895.555 1438.67,893.453 1442.61,891.16 1446.54,888.645 1450.48,885.879 1454.41,882.829 1458.35,879.466 1462.28,875.758 1466.21,871.672 1470.15,867.177 1474.08,862.238 1478.02,856.824 1481.95,850.903 1485.88,844.445 1489.82,837.422 1493.75,829.809 1497.69,821.587 1501.62,812.746 1505.56,803.281 1509.49,793.2 1513.42,782.527 1517.36,771.299 1521.29,759.577 1525.23,747.442 1529.16,735.004 1533.09,722.4 1537.03,709.8 1540.96,697.4 1544.9,685.42 1548.83,674.099 1552.77,663.673 1556.7,654.374 1560.63,646.404 1564.57,639.933 1568.5,635.086 1572.44,631.946 1576.37,630.551 1580.3,630.901 1584.24,632.965 1588.17,636.681 1592.11,641.966 1596.04,648.714 1599.98,656.805 1603.91,666.099 1607.84,676.447 1611.78,687.689 1615.71,699.661 1619.65,712.198 1623.58,725.141 1627.52,738.343 1631.45,751.669 1635.38,765.003 1639.32,778.246 1643.25,791.323 1647.19,804.175 1651.12,816.762 1655.05,829.064 1658.99,841.072 1662.92,852.793 1666.86,864.246 1670.79,875.459 1674.73,886.469 1678.66,897.321 1682.59,908.064 1686.53,918.754 1690.46,929.449 1694.4,940.213 1698.33,951.109 1702.26,962.204 1706.2,973.566 1710.13,985.261 1714.07,997.355 1718,1009.91 1721.94,1022.99 1725.87,1036.64 1729.8,1050.9 1733.74,1065.82 1737.67,1081.39 1741.61,1097.62 1745.54,1114.48 1749.47,1131.92 1753.41,1149.85 1757.34,1168.16 1761.28,1186.71 1765.21,1205.33 1769.15,1223.85 1773.08,1242.07 1777.01,1259.79 1780.95,1276.83 1784.88,1292.99 1788.82,1308.14 1792.75,1322.12 1796.68,1334.81 1800.62,1346.13 1804.55,1355.98 1808.49,1364.32 1812.42,1371.08 1816.36,1376.25 1820.29,1379.79 1824.22,1381.71 1828.16,1381.99 1832.09,1380.65 1836.03,1377.71 1839.96,1373.2 1843.89,1367.16 1847.83,1359.64 1851.76,1350.7 1855.7,1340.43 1859.63,1328.92 1863.57,1316.28 1867.5,1302.66 1871.43,1288.19 1875.37,1273.05 1879.3,1257.42 1883.24,1241.47 1887.17,1225.36 1891.1,1209.27 1895.04,1193.31 1898.97,1177.59 1902.91,1162.17 1906.84,1147.09 1910.78,1132.35 1914.71,1117.93 1918.64,1103.78 1922.58,1089.85 1926.51,1076.07 1930.45,1062.36 1934.38,1048.64 1938.32,1034.85 1942.25,1020.89 1946.18,1006.71 1950.12,992.232 1954.05,977.392 1957.99,962.134 1961.92,946.406 1965.85,930.163 1969.79,913.366 1973.72,895.986 1977.66,878.004 1981.59,859.41 1985.53,840.213 1989.46,820.434 1993.39,800.117 1997.33,779.33 2001.26,758.164 2005.2,736.74 2009.13,715.207 2013.06,693.744 2017,672.552 2020.93,651.851 2024.87,631.875 2028.8,612.86 2032.74,595.038 2036.67,578.629 2040.6,563.838 2044.54,550.849 2048.47,539.83 2052.41,530.927 2056.34,524.271 2060.27,519.975 2064.21,518.133 2068.14,518.821 2072.08,522.085 2076.01,527.937 2079.95,536.345 2083.88,547.217 2087.81,560.398 2091.75,575.665 2095.68,592.739 2099.62,611.295 2103.55,630.993 2107.48,651.501 2111.42,672.513 2115.35,693.771 2119.29,715.063 2123.22,736.224 2127.16,757.134 2131.09,777.704 2135.02,797.877 2138.96,817.613 2142.89,836.886 2146.83,855.681 2150.76,873.989 2154.69,891.805 2158.63,909.127 2162.56,925.954 2166.5,942.286 2170.43,958.125 2174.37,973.474 2178.3,988.337 2182.23,1002.72 2186.17,1016.63 2190.1,1030.09 2194.04,1043.1 2197.97,1055.68 2201.91,1067.84 2205.84,1079.62 2209.77,1091.02 2213.71,1102.07 2217.64,1112.79 2221.58,1123.19 2225.51,1133.3 2229.44,1143.12 2233.38,1152.67 2237.31,1161.93 2241.25,1170.93 2245.18,1179.64 2249.12,1188.07 2253.05,1196.22 2256.98,1204.08 2260.92,1211.64 2264.85,1218.92 2268.79,1225.91 2272.72,1232.62 2276.65,1239.08 2280.59,1245.28 2284.52,1251.25 2288.46,1257 2292.39,1262.54 "/>
<path clip-path="url(#clip570)" d="M1698.03 357.452 L2281.66 357.452 L2281.66 150.092 L1698.03 150.092  Z" fill="#ffffff" fill-rule="evenodd" fill-opacity="1"/>
<polyline clip-path="url(#clip570)" style="stroke:#000000; stroke-linecap:round; stroke-linejoin:round; stroke-width:4; stroke-opacity:1; fill:none" points="1698.03,357.452 2281.66,357.452 2281.66,150.092 1698.03,150.092 1698.03,357.452 "/>
<polyline clip-path="url(#clip570)" style="stroke:#009af9; stroke-linecap:round; stroke-linejoin:round; stroke-width:4; stroke-opacity:1; fill:none" points="1721.72,201.932 1863.92,201.932 "/>
<path clip-path="url(#clip570)" d="M1887.62 193.286 L1891.87 193.286 L1897.2 213.517 L1902.5 193.286 L1907.52 193.286 L1912.85 213.517 L1918.15 193.286 L1922.41 193.286 L1915.62 219.212 L1910.6 219.212 L1905.02 197.962 L1899.42 219.212 L1894.4 219.212 L1887.62 193.286 Z" fill="#000000" fill-rule="nonzero" fill-opacity="1" /><path clip-path="url(#clip570)" d="M1940.65 206.179 Q1935.49 206.179 1933.49 207.36 Q1931.5 208.54 1931.5 211.388 Q1931.5 213.656 1932.99 214.999 Q1934.49 216.318 1937.06 216.318 Q1940.6 216.318 1942.73 213.818 Q1944.88 211.295 1944.88 207.128 L1944.88 206.179 L1940.65 206.179 M1949.14 204.42 L1949.14 219.212 L1944.88 219.212 L1944.88 215.277 Q1943.43 217.638 1941.25 218.772 Q1939.07 219.883 1935.93 219.883 Q1931.94 219.883 1929.58 217.661 Q1927.24 215.415 1927.24 211.665 Q1927.24 207.29 1930.16 205.068 Q1933.1 202.846 1938.91 202.846 L1944.88 202.846 L1944.88 202.429 Q1944.88 199.49 1942.94 197.892 Q1941.02 196.272 1937.52 196.272 Q1935.3 196.272 1933.19 196.804 Q1931.09 197.337 1929.14 198.402 L1929.14 194.466 Q1931.48 193.564 1933.68 193.124 Q1935.88 192.661 1937.96 192.661 Q1943.59 192.661 1946.37 195.578 Q1949.14 198.494 1949.14 204.42 Z" fill="#000000" fill-rule="nonzero" fill-opacity="1" /><path clip-path="url(#clip570)" d="M1962.13 185.925 L1962.13 193.286 L1970.9 193.286 L1970.9 196.596 L1962.13 196.596 L1962.13 210.67 Q1962.13 213.841 1962.99 214.744 Q1963.87 215.647 1966.53 215.647 L1970.9 215.647 L1970.9 219.212 L1966.53 219.212 Q1961.6 219.212 1959.72 217.383 Q1957.85 215.531 1957.85 210.67 L1957.85 196.596 L1954.72 196.596 L1954.72 193.286 L1957.85 193.286 L1957.85 185.925 L1962.13 185.925 Z" fill="#000000" fill-rule="nonzero" fill-opacity="1" /><path clip-path="url(#clip570)" d="M1998.68 205.184 L1998.68 207.267 L1979.1 207.267 Q1979.37 211.665 1981.74 213.98 Q1984.12 216.272 1988.36 216.272 Q1990.81 216.272 1993.1 215.67 Q1995.42 215.068 1997.68 213.865 L1997.68 217.892 Q1995.39 218.864 1992.99 219.374 Q1990.58 219.883 1988.1 219.883 Q1981.9 219.883 1978.26 216.272 Q1974.65 212.661 1974.65 206.503 Q1974.65 200.138 1978.08 196.411 Q1981.53 192.661 1987.36 192.661 Q1992.59 192.661 1995.62 196.041 Q1998.68 199.397 1998.68 205.184 M1994.42 203.934 Q1994.37 200.439 1992.45 198.355 Q1990.55 196.272 1987.41 196.272 Q1983.84 196.272 1981.69 198.286 Q1979.56 200.3 1979.24 203.957 L1994.42 203.934 Z" fill="#000000" fill-rule="nonzero" fill-opacity="1" /><path clip-path="url(#clip570)" d="M2020.69 197.267 Q2019.98 196.851 2019.12 196.666 Q2018.29 196.457 2017.27 196.457 Q2013.66 196.457 2011.71 198.818 Q2009.79 201.156 2009.79 205.554 L2009.79 219.212 L2005.51 219.212 L2005.51 193.286 L2009.79 193.286 L2009.79 197.314 Q2011.13 194.953 2013.29 193.818 Q2015.44 192.661 2018.52 192.661 Q2018.96 192.661 2019.49 192.73 Q2020.02 192.777 2020.67 192.892 L2020.69 197.267 Z" fill="#000000" fill-rule="nonzero" fill-opacity="1" /><path clip-path="url(#clip570)" d="M2037.75 193.286 L2042.01 193.286 L2047.34 213.517 L2052.64 193.286 L2057.66 193.286 L2062.99 213.517 L2068.29 193.286 L2072.55 193.286 L2065.76 219.212 L2060.74 219.212 L2055.16 197.962 L2049.56 219.212 L2044.54 219.212 L2037.75 193.286 Z" fill="#000000" fill-rule="nonzero" fill-opacity="1" /><path clip-path="url(#clip570)" d="M2090.79 206.179 Q2085.62 206.179 2083.63 207.36 Q2081.64 208.54 2081.64 211.388 Q2081.64 213.656 2083.12 214.999 Q2084.63 216.318 2087.2 216.318 Q2090.74 216.318 2092.87 213.818 Q2095.02 211.295 2095.02 207.128 L2095.02 206.179 L2090.79 206.179 M2099.28 204.42 L2099.28 219.212 L2095.02 219.212 L2095.02 215.277 Q2093.56 217.638 2091.39 218.772 Q2089.21 219.883 2086.06 219.883 Q2082.08 219.883 2079.72 217.661 Q2077.38 215.415 2077.38 211.665 Q2077.38 207.29 2080.3 205.068 Q2083.24 202.846 2089.05 202.846 L2095.02 202.846 L2095.02 202.429 Q2095.02 199.49 2093.08 197.892 Q2091.16 196.272 2087.66 196.272 Q2085.44 196.272 2083.33 196.804 Q2081.23 197.337 2079.28 198.402 L2079.28 194.466 Q2081.62 193.564 2083.82 193.124 Q2086.02 192.661 2088.1 192.661 Q2093.73 192.661 2096.5 195.578 Q2099.28 198.494 2099.28 204.42 Z" fill="#000000" fill-rule="nonzero" fill-opacity="1" /><path clip-path="url(#clip570)" d="M2105 193.286 L2109.51 193.286 L2117.61 215.045 L2125.72 193.286 L2130.23 193.286 L2120.51 219.212 L2114.72 219.212 L2105 193.286 Z" fill="#000000" fill-rule="nonzero" fill-opacity="1" /><path clip-path="url(#clip570)" d="M2158.29 205.184 L2158.29 207.267 L2138.7 207.267 Q2138.98 211.665 2141.34 213.98 Q2143.73 216.272 2147.96 216.272 Q2150.42 216.272 2152.71 215.67 Q2155.02 215.068 2157.29 213.865 L2157.29 217.892 Q2155 218.864 2152.59 219.374 Q2150.18 219.883 2147.71 219.883 Q2141.5 219.883 2137.87 216.272 Q2134.26 212.661 2134.26 206.503 Q2134.26 200.138 2137.68 196.411 Q2141.13 192.661 2146.97 192.661 Q2152.2 192.661 2155.23 196.041 Q2158.29 199.397 2158.29 205.184 M2154.03 203.934 Q2153.98 200.439 2152.06 198.355 Q2150.16 196.272 2147.01 196.272 Q2143.45 196.272 2141.29 198.286 Q2139.17 200.3 2138.84 203.957 L2154.03 203.934 Z" fill="#000000" fill-rule="nonzero" fill-opacity="1" /><path clip-path="url(#clip570)" d="M2181.8 194.05 L2181.8 198.078 Q2180 197.152 2178.05 196.689 Q2176.11 196.226 2174.03 196.226 Q2170.85 196.226 2169.26 197.198 Q2167.68 198.17 2167.68 200.115 Q2167.68 201.596 2168.82 202.453 Q2169.95 203.286 2173.38 204.05 L2174.84 204.374 Q2179.37 205.346 2181.27 207.128 Q2183.19 208.888 2183.19 212.059 Q2183.19 215.67 2180.32 217.777 Q2177.48 219.883 2172.48 219.883 Q2170.39 219.883 2168.12 219.466 Q2165.88 219.073 2163.38 218.263 L2163.38 213.865 Q2165.74 215.091 2168.03 215.716 Q2170.32 216.318 2172.57 216.318 Q2175.58 216.318 2177.2 215.3 Q2178.82 214.258 2178.82 212.383 Q2178.82 210.647 2177.64 209.721 Q2176.48 208.795 2172.52 207.939 L2171.04 207.591 Q2167.08 206.758 2165.32 205.045 Q2163.56 203.309 2163.56 200.3 Q2163.56 196.642 2166.16 194.652 Q2168.75 192.661 2173.52 192.661 Q2175.88 192.661 2177.96 193.008 Q2180.04 193.355 2181.8 194.05 Z" fill="#000000" fill-rule="nonzero" fill-opacity="1" /><polyline clip-path="url(#clip570)" style="stroke:#e26f46; stroke-linecap:round; stroke-linejoin:round; stroke-width:4; stroke-opacity:1; fill:none" points="1721.72,253.772 1863.92,253.772 "/>
<path clip-path="url(#clip570)" d="M1913.17 266.121 L1913.17 256.839 L1905.53 256.839 L1905.53 252.996 L1917.8 252.996 L1917.8 267.834 Q1915.09 269.755 1911.83 270.751 Q1908.56 271.723 1904.86 271.723 Q1896.76 271.723 1892.18 267.001 Q1887.62 262.255 1887.62 253.806 Q1887.62 245.334 1892.18 240.612 Q1896.76 235.867 1904.86 235.867 Q1908.24 235.867 1911.27 236.7 Q1914.33 237.533 1916.9 239.154 L1916.9 244.131 Q1914.31 241.932 1911.39 240.82 Q1908.47 239.709 1905.25 239.709 Q1898.91 239.709 1895.72 243.251 Q1892.55 246.793 1892.55 253.806 Q1892.55 260.797 1895.72 264.339 Q1898.91 267.88 1905.25 267.88 Q1907.73 267.88 1909.68 267.464 Q1911.62 267.024 1913.17 266.121 Z" fill="#000000" fill-rule="nonzero" fill-opacity="1" /><path clip-path="url(#clip570)" d="M1941.18 249.107 Q1940.46 248.691 1939.61 248.506 Q1938.77 248.297 1937.75 248.297 Q1934.14 248.297 1932.2 250.658 Q1930.28 252.996 1930.28 257.394 L1930.28 271.052 L1925.99 271.052 L1925.99 245.126 L1930.28 245.126 L1930.28 249.154 Q1931.62 246.793 1933.77 245.658 Q1935.93 244.501 1939 244.501 Q1939.44 244.501 1939.98 244.57 Q1940.51 244.617 1941.16 244.732 L1941.18 249.107 Z" fill="#000000" fill-rule="nonzero" fill-opacity="1" /><path clip-path="url(#clip570)" d="M1966.78 257.024 L1966.78 259.107 L1947.2 259.107 Q1947.48 263.505 1949.84 265.82 Q1952.22 268.112 1956.46 268.112 Q1958.91 268.112 1961.2 267.51 Q1963.52 266.908 1965.79 265.705 L1965.79 269.732 Q1963.49 270.704 1961.09 271.214 Q1958.68 271.723 1956.2 271.723 Q1950 271.723 1946.37 268.112 Q1942.75 264.501 1942.75 258.343 Q1942.75 251.978 1946.18 248.251 Q1949.63 244.501 1955.46 244.501 Q1960.69 244.501 1963.73 247.881 Q1966.78 251.237 1966.78 257.024 M1962.52 255.774 Q1962.48 252.279 1960.55 250.195 Q1958.66 248.112 1955.51 248.112 Q1951.94 248.112 1949.79 250.126 Q1947.66 252.14 1947.34 255.797 L1962.52 255.774 Z" fill="#000000" fill-rule="nonzero" fill-opacity="1" /><path clip-path="url(#clip570)" d="M1995.95 257.024 L1995.95 259.107 L1976.37 259.107 Q1976.64 263.505 1979 265.82 Q1981.39 268.112 1985.62 268.112 Q1988.08 268.112 1990.37 267.51 Q1992.68 266.908 1994.95 265.705 L1994.95 269.732 Q1992.66 270.704 1990.25 271.214 Q1987.85 271.723 1985.37 271.723 Q1979.17 271.723 1975.53 268.112 Q1971.92 264.501 1971.92 258.343 Q1971.92 251.978 1975.35 248.251 Q1978.8 244.501 1984.63 244.501 Q1989.86 244.501 1992.89 247.881 Q1995.95 251.237 1995.95 257.024 M1991.69 255.774 Q1991.64 252.279 1989.72 250.195 Q1987.82 248.112 1984.68 248.112 Q1981.11 248.112 1978.96 250.126 Q1976.83 252.14 1976.5 255.797 L1991.69 255.774 Z" fill="#000000" fill-rule="nonzero" fill-opacity="1" /><path clip-path="url(#clip570)" d="M2024.49 255.404 L2024.49 271.052 L2020.23 271.052 L2020.23 255.543 Q2020.23 251.862 2018.8 250.033 Q2017.36 248.205 2014.49 248.205 Q2011.04 248.205 2009.05 250.404 Q2007.06 252.603 2007.06 256.399 L2007.06 271.052 L2002.78 271.052 L2002.78 245.126 L2007.06 245.126 L2007.06 249.154 Q2008.59 246.816 2010.65 245.658 Q2012.73 244.501 2015.44 244.501 Q2019.91 244.501 2022.2 247.279 Q2024.49 250.033 2024.49 255.404 Z" fill="#000000" fill-rule="nonzero" fill-opacity="1" /><path clip-path="url(#clip570)" d="M2030.83 256.168 L2043.31 256.168 L2043.31 259.964 L2030.83 259.964 L2030.83 256.168 Z" fill="#000000" fill-rule="nonzero" fill-opacity="1" /><path clip-path="url(#clip570)" d="M2050.28 236.492 L2056.57 236.492 L2071.9 265.404 L2071.9 236.492 L2076.43 236.492 L2076.43 271.052 L2070.14 271.052 L2054.81 242.14 L2054.81 271.052 L2050.28 271.052 L2050.28 236.492 Z" fill="#000000" fill-rule="nonzero" fill-opacity="1" /><path clip-path="url(#clip570)" d="M2097.34 258.019 Q2092.17 258.019 2090.18 259.2 Q2088.19 260.38 2088.19 263.228 Q2088.19 265.496 2089.67 266.839 Q2091.18 268.158 2093.75 268.158 Q2097.29 268.158 2099.42 265.658 Q2101.57 263.135 2101.57 258.968 L2101.57 258.019 L2097.34 258.019 M2105.83 256.26 L2105.83 271.052 L2101.57 271.052 L2101.57 267.117 Q2100.11 269.478 2097.94 270.612 Q2095.76 271.723 2092.61 271.723 Q2088.63 271.723 2086.27 269.501 Q2083.93 267.255 2083.93 263.505 Q2083.93 259.13 2086.85 256.908 Q2089.79 254.686 2095.6 254.686 L2101.57 254.686 L2101.57 254.269 Q2101.57 251.33 2099.63 249.732 Q2097.71 248.112 2094.21 248.112 Q2091.99 248.112 2089.88 248.644 Q2087.78 249.177 2085.83 250.242 L2085.83 246.306 Q2088.17 245.404 2090.37 244.964 Q2092.57 244.501 2094.65 244.501 Q2100.28 244.501 2103.05 247.418 Q2105.83 250.334 2105.83 256.26 Z" fill="#000000" fill-rule="nonzero" fill-opacity="1" /><path clip-path="url(#clip570)" d="M2131.67 257.788 Q2131.67 253.158 2129.74 250.612 Q2127.85 248.066 2124.4 248.066 Q2120.97 248.066 2119.05 250.612 Q2117.15 253.158 2117.15 257.788 Q2117.15 262.394 2119.05 264.941 Q2120.97 267.487 2124.4 267.487 Q2127.85 267.487 2129.74 264.941 Q2131.67 262.394 2131.67 257.788 M2135.92 267.834 Q2135.92 274.454 2132.98 277.672 Q2130.04 280.913 2123.98 280.913 Q2121.73 280.913 2119.74 280.566 Q2117.75 280.241 2115.88 279.547 L2115.88 275.404 Q2117.75 276.422 2119.58 276.908 Q2121.41 277.394 2123.31 277.394 Q2127.5 277.394 2129.58 275.195 Q2131.67 273.019 2131.67 268.598 L2131.67 266.492 Q2130.35 268.783 2128.29 269.917 Q2126.23 271.052 2123.36 271.052 Q2118.59 271.052 2115.67 267.417 Q2112.75 263.783 2112.75 257.788 Q2112.75 251.769 2115.67 248.135 Q2118.59 244.501 2123.36 244.501 Q2126.23 244.501 2128.29 245.635 Q2130.35 246.769 2131.67 249.061 L2131.67 245.126 L2135.92 245.126 L2135.92 267.834 Z" fill="#000000" fill-rule="nonzero" fill-opacity="1" /><path clip-path="url(#clip570)" d="M2166.25 255.404 L2166.25 271.052 L2161.99 271.052 L2161.99 255.543 Q2161.99 251.862 2160.55 250.033 Q2159.12 248.205 2156.25 248.205 Q2152.8 248.205 2150.81 250.404 Q2148.82 252.603 2148.82 256.399 L2148.82 271.052 L2144.54 271.052 L2144.54 235.033 L2148.82 235.033 L2148.82 249.154 Q2150.35 246.816 2152.41 245.658 Q2154.49 244.501 2157.2 244.501 Q2161.67 244.501 2163.96 247.279 Q2166.25 250.033 2166.25 255.404 Z" fill="#000000" fill-rule="nonzero" fill-opacity="1" /><path clip-path="url(#clip570)" d="M2191.8 249.061 L2191.8 235.033 L2196.06 235.033 L2196.06 271.052 L2191.8 271.052 L2191.8 267.163 Q2190.46 269.478 2188.4 270.612 Q2186.36 271.723 2183.49 271.723 Q2178.79 271.723 2175.83 267.973 Q2172.89 264.223 2172.89 258.112 Q2172.89 252.001 2175.83 248.251 Q2178.79 244.501 2183.49 244.501 Q2186.36 244.501 2188.4 245.635 Q2190.46 246.746 2191.8 249.061 M2177.29 258.112 Q2177.29 262.811 2179.21 265.496 Q2181.16 268.158 2184.54 268.158 Q2187.91 268.158 2189.86 265.496 Q2191.8 262.811 2191.8 258.112 Q2191.8 253.413 2189.86 250.751 Q2187.91 248.066 2184.54 248.066 Q2181.16 248.066 2179.21 250.751 Q2177.29 253.413 2177.29 258.112 Z" fill="#000000" fill-rule="nonzero" fill-opacity="1" /><path clip-path="url(#clip570)" d="M2204.84 245.126 L2209.1 245.126 L2209.1 271.052 L2204.84 271.052 L2204.84 245.126 M2204.84 235.033 L2209.1 235.033 L2209.1 240.427 L2204.84 240.427 L2204.84 235.033 Z" fill="#000000" fill-rule="nonzero" fill-opacity="1" /><polyline clip-path="url(#clip570)" style="stroke:#3da44d; stroke-linecap:round; stroke-linejoin:round; stroke-width:4; stroke-opacity:1; fill:none" points="1721.72,305.612 1863.92,305.612 "/>
<path clip-path="url(#clip570)" d="M1887.62 288.332 L1892.29 288.332 L1892.29 322.892 L1887.62 322.892 L1887.62 288.332 Z" fill="#000000" fill-rule="nonzero" fill-opacity="1" /><path clip-path="url(#clip570)" d="M1917.94 297.73 L1917.94 301.758 Q1916.13 300.832 1914.19 300.369 Q1912.25 299.906 1910.16 299.906 Q1906.99 299.906 1905.39 300.878 Q1903.82 301.85 1903.82 303.795 Q1903.82 305.276 1904.95 306.133 Q1906.09 306.966 1909.51 307.73 L1910.97 308.054 Q1915.51 309.026 1917.41 310.808 Q1919.33 312.568 1919.33 315.739 Q1919.33 319.35 1916.46 321.457 Q1913.61 323.563 1908.61 323.563 Q1906.53 323.563 1904.26 323.146 Q1902.01 322.753 1899.51 321.943 L1899.51 317.545 Q1901.87 318.771 1904.17 319.396 Q1906.46 319.998 1908.7 319.998 Q1911.71 319.998 1913.33 318.98 Q1914.95 317.938 1914.95 316.063 Q1914.95 314.327 1913.77 313.401 Q1912.62 312.475 1908.66 311.619 L1907.18 311.271 Q1903.22 310.438 1901.46 308.725 Q1899.7 306.989 1899.7 303.98 Q1899.7 300.322 1902.29 298.332 Q1904.88 296.341 1909.65 296.341 Q1912.01 296.341 1914.1 296.688 Q1916.18 297.035 1917.94 297.73 Z" fill="#000000" fill-rule="nonzero" fill-opacity="1" /><path clip-path="url(#clip570)" d="M1936.16 299.952 Q1932.73 299.952 1930.74 302.637 Q1928.75 305.299 1928.75 309.952 Q1928.75 314.605 1930.72 317.29 Q1932.71 319.952 1936.16 319.952 Q1939.56 319.952 1941.55 317.267 Q1943.54 314.582 1943.54 309.952 Q1943.54 305.346 1941.55 302.66 Q1939.56 299.952 1936.16 299.952 M1936.16 296.341 Q1941.71 296.341 1944.88 299.952 Q1948.06 303.563 1948.06 309.952 Q1948.06 316.318 1944.88 319.952 Q1941.71 323.563 1936.16 323.563 Q1930.58 323.563 1927.41 319.952 Q1924.26 316.318 1924.26 309.952 Q1924.26 303.563 1927.41 299.952 Q1930.58 296.341 1936.16 296.341 Z" fill="#000000" fill-rule="nonzero" fill-opacity="1" /><path clip-path="url(#clip570)" d="M1973.73 309.952 Q1973.73 305.253 1971.78 302.591 Q1969.86 299.906 1966.48 299.906 Q1963.1 299.906 1961.16 302.591 Q1959.24 305.253 1959.24 309.952 Q1959.24 314.651 1961.16 317.336 Q1963.1 319.998 1966.48 319.998 Q1969.86 319.998 1971.78 317.336 Q1973.73 314.651 1973.73 309.952 M1959.24 300.901 Q1960.58 298.586 1962.62 297.475 Q1964.68 296.341 1967.52 296.341 Q1972.24 296.341 1975.18 300.091 Q1978.15 303.841 1978.15 309.952 Q1978.15 316.063 1975.18 319.813 Q1972.24 323.563 1967.52 323.563 Q1964.68 323.563 1962.62 322.452 Q1960.58 321.318 1959.24 319.003 L1959.24 322.892 L1954.95 322.892 L1954.95 286.873 L1959.24 286.873 L1959.24 300.901 Z" fill="#000000" fill-rule="nonzero" fill-opacity="1" /><path clip-path="url(#clip570)" d="M2007.38 308.864 L2007.38 310.947 L1987.8 310.947 Q1988.08 315.345 1990.44 317.66 Q1992.82 319.952 1997.06 319.952 Q1999.51 319.952 2001.8 319.35 Q2004.12 318.748 2006.39 317.545 L2006.39 321.572 Q2004.1 322.544 2001.69 323.054 Q1999.28 323.563 1996.8 323.563 Q1990.6 323.563 1986.97 319.952 Q1983.36 316.341 1983.36 310.183 Q1983.36 303.818 1986.78 300.091 Q1990.23 296.341 1996.06 296.341 Q2001.3 296.341 2004.33 299.721 Q2007.38 303.077 2007.38 308.864 M2003.12 307.614 Q2003.08 304.119 2001.16 302.035 Q1999.26 299.952 1996.11 299.952 Q1992.55 299.952 1990.39 301.966 Q1988.26 303.98 1987.94 307.637 L2003.12 307.614 Z" fill="#000000" fill-rule="nonzero" fill-opacity="1" /><path clip-path="url(#clip570)" d="M2012.22 308.008 L2024.7 308.008 L2024.7 311.804 L2012.22 311.804 L2012.22 308.008 Z" fill="#000000" fill-rule="nonzero" fill-opacity="1" /><path clip-path="url(#clip570)" d="M2031.67 288.332 L2036.34 288.332 L2036.34 302.938 L2051.85 288.332 L2057.87 288.332 L2040.72 304.443 L2059.1 322.892 L2052.94 322.892 L2036.34 306.248 L2036.34 322.892 L2031.67 322.892 L2031.67 288.332 Z" fill="#000000" fill-rule="nonzero" fill-opacity="1" /><path clip-path="url(#clip570)" d="M2073.52 309.859 Q2068.36 309.859 2066.36 311.04 Q2064.37 312.22 2064.37 315.068 Q2064.37 317.336 2065.86 318.679 Q2067.36 319.998 2069.93 319.998 Q2073.47 319.998 2075.6 317.498 Q2077.75 314.975 2077.75 310.808 L2077.75 309.859 L2073.52 309.859 M2082.01 308.1 L2082.01 322.892 L2077.75 322.892 L2077.75 318.957 Q2076.3 321.318 2074.12 322.452 Q2071.94 323.563 2068.8 323.563 Q2064.81 323.563 2062.45 321.341 Q2060.11 319.095 2060.11 315.345 Q2060.11 310.97 2063.03 308.748 Q2065.97 306.526 2071.78 306.526 L2077.75 306.526 L2077.75 306.109 Q2077.75 303.17 2075.81 301.572 Q2073.89 299.952 2070.39 299.952 Q2068.17 299.952 2066.06 300.484 Q2063.96 301.017 2062.01 302.082 L2062.01 298.146 Q2064.35 297.244 2066.55 296.804 Q2068.75 296.341 2070.83 296.341 Q2076.46 296.341 2079.23 299.258 Q2082.01 302.174 2082.01 308.1 Z" fill="#000000" fill-rule="nonzero" fill-opacity="1" /><path clip-path="url(#clip570)" d="M2090.62 286.873 L2094.91 286.873 L2094.91 308.146 L2107.61 296.966 L2113.05 296.966 L2099.3 309.095 L2113.63 322.892 L2108.08 322.892 L2094.91 310.23 L2094.91 322.892 L2090.62 322.892 L2090.62 286.873 Z" fill="#000000" fill-rule="nonzero" fill-opacity="1" /><path clip-path="url(#clip570)" d="M2118.24 296.966 L2122.5 296.966 L2122.5 322.892 L2118.24 322.892 L2118.24 296.966 M2118.24 286.873 L2122.5 286.873 L2122.5 292.267 L2118.24 292.267 L2118.24 286.873 Z" fill="#000000" fill-rule="nonzero" fill-opacity="1" /><path clip-path="url(#clip570)" d="M2152.96 307.244 L2152.96 322.892 L2148.7 322.892 L2148.7 307.383 Q2148.7 303.702 2147.27 301.873 Q2145.83 300.045 2142.96 300.045 Q2139.51 300.045 2137.52 302.244 Q2135.53 304.443 2135.53 308.239 L2135.53 322.892 L2131.25 322.892 L2131.25 296.966 L2135.53 296.966 L2135.53 300.994 Q2137.06 298.656 2139.12 297.498 Q2141.2 296.341 2143.91 296.341 Q2148.38 296.341 2150.67 299.119 Q2152.96 301.873 2152.96 307.244 Z" fill="#000000" fill-rule="nonzero" fill-opacity="1" /><path clip-path="url(#clip570)" d="M2161.02 312.66 L2161.02 296.966 L2165.28 296.966 L2165.28 312.498 Q2165.28 316.179 2166.71 318.031 Q2168.15 319.859 2171.02 319.859 Q2174.47 319.859 2176.46 317.66 Q2178.47 315.461 2178.47 311.665 L2178.47 296.966 L2182.73 296.966 L2182.73 322.892 L2178.47 322.892 L2178.47 318.91 Q2176.92 321.271 2174.86 322.429 Q2172.82 323.563 2170.11 323.563 Q2165.65 323.563 2163.33 320.785 Q2161.02 318.007 2161.02 312.66 M2171.73 296.341 L2171.73 296.341 Z" fill="#000000" fill-rule="nonzero" fill-opacity="1" /><path clip-path="url(#clip570)" d="M2211.69 301.943 Q2213.29 299.072 2215.51 297.707 Q2217.73 296.341 2220.74 296.341 Q2224.79 296.341 2226.99 299.188 Q2229.19 302.012 2229.19 307.244 L2229.19 322.892 L2224.91 322.892 L2224.91 307.383 Q2224.91 303.656 2223.59 301.85 Q2222.27 300.045 2219.56 300.045 Q2216.25 300.045 2214.33 302.244 Q2212.41 304.443 2212.41 308.239 L2212.41 322.892 L2208.12 322.892 L2208.12 307.383 Q2208.12 303.633 2206.8 301.85 Q2205.48 300.045 2202.73 300.045 Q2199.47 300.045 2197.54 302.267 Q2195.62 304.466 2195.62 308.239 L2195.62 322.892 L2191.34 322.892 L2191.34 296.966 L2195.62 296.966 L2195.62 300.994 Q2197.08 298.609 2199.12 297.475 Q2201.16 296.341 2203.96 296.341 Q2206.78 296.341 2208.75 297.776 Q2210.74 299.211 2211.69 301.943 Z" fill="#000000" fill-rule="nonzero" fill-opacity="1" /><path clip-path="url(#clip570)" d="M2249.47 309.859 Q2244.3 309.859 2242.31 311.04 Q2240.32 312.22 2240.32 315.068 Q2240.32 317.336 2241.8 318.679 Q2243.31 319.998 2245.88 319.998 Q2249.42 319.998 2251.55 317.498 Q2253.7 314.975 2253.7 310.808 L2253.7 309.859 L2249.47 309.859 M2257.96 308.1 L2257.96 322.892 L2253.7 322.892 L2253.7 318.957 Q2252.24 321.318 2250.07 322.452 Q2247.89 323.563 2244.74 323.563 Q2240.76 323.563 2238.4 321.341 Q2236.06 319.095 2236.06 315.345 Q2236.06 310.97 2238.98 308.748 Q2241.92 306.526 2247.73 306.526 L2253.7 306.526 L2253.7 306.109 Q2253.7 303.17 2251.76 301.572 Q2249.84 299.952 2246.34 299.952 Q2244.12 299.952 2242.01 300.484 Q2239.91 301.017 2237.96 302.082 L2237.96 298.146 Q2240.3 297.244 2242.5 296.804 Q2244.7 296.341 2246.78 296.341 Q2252.41 296.341 2255.18 299.258 Q2257.96 302.174 2257.96 308.1 Z" fill="#000000" fill-rule="nonzero" fill-opacity="1" /></svg>
