<?xml version="1.0" encoding="utf-8"?>
<svg xmlns="http://www.w3.org/2000/svg" xmlns:xlink="http://www.w3.org/1999/xlink" width="600" height="400" viewBox="0 0 2400 1600">
<defs>
  <clipPath id="clip670">
    <rect x="0" y="0" width="2400" height="1600"/>
  </clipPath>
</defs>
<path clip-path="url(#clip670)" d="M0 1600 L2400 1600 L2400 0 L0 0  Z" fill="#ffffff" fill-rule="evenodd" fill-opacity="1"/>
<defs>
  <clipPath id="clip671">
    <rect x="194" y="123" width="2159" height="1364"/>
  </clipPath>
</defs>
<path clip-path="url(#clip670)" d="M194.422 1486.45 L2352.76 1486.45 L2352.76 123.472 L194.422 123.472  Z" fill="#ffffff" fill-rule="evenodd" fill-opacity="1"/>
<polyline clip-path="url(#clip671)" style="stroke:#000000; stroke-linecap:round; stroke-linejoin:round; stroke-width:2; stroke-opacity:0.1; fill:none" points="301.482,1486.45 301.482,123.472 "/>
<polyline clip-path="url(#clip671)" style="stroke:#000000; stroke-linecap:round; stroke-linejoin:round; stroke-width:2; stroke-opacity:0.1; fill:none" points="626.182,1486.45 626.182,123.472 "/>
<polyline clip-path="url(#clip671)" style="stroke:#000000; stroke-linecap:round; stroke-linejoin:round; stroke-width:2; stroke-opacity:0.1; fill:none" points="950.882,1486.45 950.882,123.472 "/>
<polyline clip-path="url(#clip671)" style="stroke:#000000; stroke-linecap:round; stroke-linejoin:round; stroke-width:2; stroke-opacity:0.1; fill:none" points="1275.58,1486.45 1275.58,123.472 "/>
<polyline clip-path="url(#clip671)" style="stroke:#000000; stroke-linecap:round; stroke-linejoin:round; stroke-width:2; stroke-opacity:0.1; fill:none" points="1600.28,1486.45 1600.28,123.472 "/>
<polyline clip-path="url(#clip671)" style="stroke:#000000; stroke-linecap:round; stroke-linejoin:round; stroke-width:2; stroke-opacity:0.1; fill:none" points="1924.98,1486.45 1924.98,123.472 "/>
<polyline clip-path="url(#clip671)" style="stroke:#000000; stroke-linecap:round; stroke-linejoin:round; stroke-width:2; stroke-opacity:0.1; fill:none" points="2249.68,1486.45 2249.68,123.472 "/>
<polyline clip-path="url(#clip671)" style="stroke:#000000; stroke-linecap:round; stroke-linejoin:round; stroke-width:2; stroke-opacity:0.1; fill:none" points="194.422,1395.53 2352.76,1395.53 "/>
<polyline clip-path="url(#clip671)" style="stroke:#000000; stroke-linecap:round; stroke-linejoin:round; stroke-width:2; stroke-opacity:0.1; fill:none" points="194.422,1138.36 2352.76,1138.36 "/>
<polyline clip-path="url(#clip671)" style="stroke:#000000; stroke-linecap:round; stroke-linejoin:round; stroke-width:2; stroke-opacity:0.1; fill:none" points="194.422,881.197 2352.76,881.197 "/>
<polyline clip-path="url(#clip671)" style="stroke:#000000; stroke-linecap:round; stroke-linejoin:round; stroke-width:2; stroke-opacity:0.1; fill:none" points="194.422,624.031 2352.76,624.031 "/>
<polyline clip-path="url(#clip671)" style="stroke:#000000; stroke-linecap:round; stroke-linejoin:round; stroke-width:2; stroke-opacity:0.1; fill:none" points="194.422,366.866 2352.76,366.866 "/>
<polyline clip-path="url(#clip670)" style="stroke:#000000; stroke-linecap:round; stroke-linejoin:round; stroke-width:4; stroke-opacity:1; fill:none" points="194.422,1486.45 2352.76,1486.45 "/>
<polyline clip-path="url(#clip670)" style="stroke:#000000; stroke-linecap:round; stroke-linejoin:round; stroke-width:4; stroke-opacity:1; fill:none" points="301.482,1486.45 301.482,1467.55 "/>
<polyline clip-path="url(#clip670)" style="stroke:#000000; stroke-linecap:round; stroke-linejoin:round; stroke-width:4; stroke-opacity:1; fill:none" points="626.182,1486.45 626.182,1467.55 "/>
<polyline clip-path="url(#clip670)" style="stroke:#000000; stroke-linecap:round; stroke-linejoin:round; stroke-width:4; stroke-opacity:1; fill:none" points="950.882,1486.45 950.882,1467.55 "/>
<polyline clip-path="url(#clip670)" style="stroke:#000000; stroke-linecap:round; stroke-linejoin:round; stroke-width:4; stroke-opacity:1; fill:none" points="1275.58,1486.45 1275.58,1467.55 "/>
<polyline clip-path="url(#clip670)" style="stroke:#000000; stroke-linecap:round; stroke-linejoin:round; stroke-width:4; stroke-opacity:1; fill:none" points="1600.28,1486.45 1600.28,1467.55 "/>
<polyline clip-path="url(#clip670)" style="stroke:#000000; stroke-linecap:round; stroke-linejoin:round; stroke-width:4; stroke-opacity:1; fill:none" points="1924.98,1486.45 1924.98,1467.55 "/>
<polyline clip-path="url(#clip670)" style="stroke:#000000; stroke-linecap:round; stroke-linejoin:round; stroke-width:4; stroke-opacity:1; fill:none" points="2249.68,1486.45 2249.68,1467.55 "/>
<path clip-path="url(#clip670)" d="M270.95 1532.02 L300.626 1532.02 L300.626 1535.95 L270.95 1535.95 L270.95 1532.02 Z" fill="#000000" fill-rule="nonzero" fill-opacity="1" /><path clip-path="url(#clip670)" d="M324.885 1530.21 Q328.241 1530.93 330.116 1533.2 Q332.014 1535.47 332.014 1538.8 Q332.014 1543.92 328.496 1546.72 Q324.977 1549.52 318.496 1549.52 Q316.32 1549.52 314.005 1549.08 Q311.714 1548.66 309.26 1547.81 L309.26 1543.29 Q311.204 1544.43 313.519 1545.01 Q315.834 1545.58 318.357 1545.58 Q322.755 1545.58 325.047 1543.85 Q327.362 1542.11 327.362 1538.8 Q327.362 1535.75 325.209 1534.03 Q323.079 1532.3 319.26 1532.3 L315.232 1532.3 L315.232 1528.45 L319.445 1528.45 Q322.894 1528.45 324.723 1527.09 Q326.551 1525.7 326.551 1523.11 Q326.551 1520.45 324.653 1519.03 Q322.778 1517.6 319.26 1517.6 Q317.339 1517.6 315.139 1518.01 Q312.94 1518.43 310.302 1519.31 L310.302 1515.14 Q312.964 1514.4 315.278 1514.03 Q317.616 1513.66 319.676 1513.66 Q325.001 1513.66 328.102 1516.09 Q331.204 1518.5 331.204 1522.62 Q331.204 1525.49 329.561 1527.48 Q327.917 1529.45 324.885 1530.21 Z" fill="#000000" fill-rule="nonzero" fill-opacity="1" /><path clip-path="url(#clip670)" d="M596.124 1532.02 L625.8 1532.02 L625.8 1535.95 L596.124 1535.95 L596.124 1532.02 Z" fill="#000000" fill-rule="nonzero" fill-opacity="1" /><path clip-path="url(#clip670)" d="M639.92 1544.91 L656.24 1544.91 L656.24 1548.85 L634.295 1548.85 L634.295 1544.91 Q636.957 1542.16 641.541 1537.53 Q646.147 1532.88 647.328 1531.53 Q649.573 1529.01 650.453 1527.27 Q651.355 1525.51 651.355 1523.82 Q651.355 1521.07 649.411 1519.33 Q647.49 1517.6 644.388 1517.6 Q642.189 1517.6 639.735 1518.36 Q637.304 1519.13 634.527 1520.68 L634.527 1515.95 Q637.351 1514.82 639.804 1514.24 Q642.258 1513.66 644.295 1513.66 Q649.666 1513.66 652.86 1516.35 Q656.054 1519.03 656.054 1523.52 Q656.054 1525.65 655.244 1527.57 Q654.457 1529.47 652.351 1532.07 Q651.772 1532.74 648.67 1535.95 Q645.568 1539.15 639.92 1544.91 Z" fill="#000000" fill-rule="nonzero" fill-opacity="1" /><path clip-path="url(#clip670)" d="M920.639 1532.02 L950.314 1532.02 L950.314 1535.95 L920.639 1535.95 L920.639 1532.02 Z" fill="#000000" fill-rule="nonzero" fill-opacity="1" /><path clip-path="url(#clip670)" d="M961.217 1544.91 L968.856 1544.91 L968.856 1518.55 L960.546 1520.21 L960.546 1515.95 L968.81 1514.29 L973.486 1514.29 L973.486 1544.91 L981.124 1544.91 L981.124 1548.85 L961.217 1548.85 L961.217 1544.91 Z" fill="#000000" fill-rule="nonzero" fill-opacity="1" /><path clip-path="url(#clip670)" d="M1275.58 1517.37 Q1271.97 1517.37 1270.14 1520.93 Q1268.34 1524.47 1268.34 1531.6 Q1268.34 1538.71 1270.14 1542.27 Q1271.97 1545.82 1275.58 1545.82 Q1279.22 1545.82 1281.02 1542.27 Q1282.85 1538.71 1282.85 1531.6 Q1282.85 1524.47 1281.02 1520.93 Q1279.22 1517.37 1275.58 1517.37 M1275.58 1513.66 Q1281.39 1513.66 1284.45 1518.27 Q1287.53 1522.85 1287.53 1531.6 Q1287.53 1540.33 1284.45 1544.94 Q1281.39 1549.52 1275.58 1549.52 Q1269.77 1549.52 1266.69 1544.94 Q1263.64 1540.33 1263.64 1531.6 Q1263.64 1522.85 1266.69 1518.27 Q1269.77 1513.66 1275.58 1513.66 Z" fill="#000000" fill-rule="nonzero" fill-opacity="1" /><path clip-path="url(#clip670)" d="M1590.66 1544.91 L1598.3 1544.91 L1598.3 1518.55 L1589.99 1520.21 L1589.99 1515.95 L1598.26 1514.29 L1602.93 1514.29 L1602.93 1544.91 L1610.57 1544.91 L1610.57 1548.85 L1590.66 1548.85 L1590.66 1544.91 Z" fill="#000000" fill-rule="nonzero" fill-opacity="1" /><path clip-path="url(#clip670)" d="M1919.63 1544.91 L1935.95 1544.91 L1935.95 1548.85 L1914.01 1548.85 L1914.01 1544.91 Q1916.67 1542.16 1921.25 1537.53 Q1925.86 1532.88 1927.04 1531.53 Q1929.29 1529.01 1930.17 1527.27 Q1931.07 1525.51 1931.07 1523.82 Q1931.07 1521.07 1929.12 1519.33 Q1927.2 1517.6 1924.1 1517.6 Q1921.9 1517.6 1919.45 1518.36 Q1917.02 1519.13 1914.24 1520.68 L1914.24 1515.95 Q1917.06 1514.82 1919.52 1514.24 Q1921.97 1513.66 1924.01 1513.66 Q1929.38 1513.66 1932.57 1516.35 Q1935.77 1519.03 1935.77 1523.52 Q1935.77 1525.65 1934.96 1527.57 Q1934.17 1529.47 1932.06 1532.07 Q1931.49 1532.74 1928.38 1535.95 Q1925.28 1539.15 1919.63 1544.91 Z" fill="#000000" fill-rule="nonzero" fill-opacity="1" /><path clip-path="url(#clip670)" d="M2253.93 1530.21 Q2257.28 1530.93 2259.16 1533.2 Q2261.06 1535.47 2261.06 1538.8 Q2261.06 1543.92 2257.54 1546.72 Q2254.02 1549.52 2247.54 1549.52 Q2245.36 1549.52 2243.05 1549.08 Q2240.76 1548.66 2238.3 1547.81 L2238.3 1543.29 Q2240.25 1544.43 2242.56 1545.01 Q2244.88 1545.58 2247.4 1545.58 Q2251.8 1545.58 2254.09 1543.85 Q2256.41 1542.11 2256.41 1538.8 Q2256.41 1535.75 2254.25 1534.03 Q2252.12 1532.3 2248.3 1532.3 L2244.28 1532.3 L2244.28 1528.45 L2248.49 1528.45 Q2251.94 1528.45 2253.77 1527.09 Q2255.59 1525.7 2255.59 1523.11 Q2255.59 1520.45 2253.7 1519.03 Q2251.82 1517.6 2248.3 1517.6 Q2246.38 1517.6 2244.18 1518.01 Q2241.98 1518.43 2239.34 1519.31 L2239.34 1515.14 Q2242.01 1514.4 2244.32 1514.03 Q2246.66 1513.66 2248.72 1513.66 Q2254.04 1513.66 2257.15 1516.09 Q2260.25 1518.5 2260.25 1522.62 Q2260.25 1525.49 2258.6 1527.48 Q2256.96 1529.45 2253.93 1530.21 Z" fill="#000000" fill-rule="nonzero" fill-opacity="1" /><polyline clip-path="url(#clip670)" style="stroke:#000000; stroke-linecap:round; stroke-linejoin:round; stroke-width:4; stroke-opacity:1; fill:none" points="194.422,1486.45 194.422,123.472 "/>
<polyline clip-path="url(#clip670)" style="stroke:#000000; stroke-linecap:round; stroke-linejoin:round; stroke-width:4; stroke-opacity:1; fill:none" points="194.422,1395.53 213.32,1395.53 "/>
<polyline clip-path="url(#clip670)" style="stroke:#000000; stroke-linecap:round; stroke-linejoin:round; stroke-width:4; stroke-opacity:1; fill:none" points="194.422,1138.36 213.32,1138.36 "/>
<polyline clip-path="url(#clip670)" style="stroke:#000000; stroke-linecap:round; stroke-linejoin:round; stroke-width:4; stroke-opacity:1; fill:none" points="194.422,881.197 213.32,881.197 "/>
<polyline clip-path="url(#clip670)" style="stroke:#000000; stroke-linecap:round; stroke-linejoin:round; stroke-width:4; stroke-opacity:1; fill:none" points="194.422,624.031 213.32,624.031 "/>
<polyline clip-path="url(#clip670)" style="stroke:#000000; stroke-linecap:round; stroke-linejoin:round; stroke-width:4; stroke-opacity:1; fill:none" points="194.422,366.866 213.32,366.866 "/>
<path clip-path="url(#clip670)" d="M50.9921 1395.98 L80.6679 1395.98 L80.6679 1399.91 L50.9921 1399.91 L50.9921 1395.98 Z" fill="#000000" fill-rule="nonzero" fill-opacity="1" /><path clip-path="url(#clip670)" d="M100.76 1381.33 Q97.1493 1381.33 95.3206 1384.89 Q93.515 1388.43 93.515 1395.56 Q93.515 1402.67 95.3206 1406.23 Q97.1493 1409.77 100.76 1409.77 Q104.395 1409.77 106.2 1406.23 Q108.029 1402.67 108.029 1395.56 Q108.029 1388.43 106.2 1384.89 Q104.395 1381.33 100.76 1381.33 M100.76 1377.62 Q106.571 1377.62 109.626 1382.23 Q112.705 1386.81 112.705 1395.56 Q112.705 1404.29 109.626 1408.9 Q106.571 1413.48 100.76 1413.48 Q94.9502 1413.48 91.8715 1408.9 Q88.816 1404.29 88.816 1395.56 Q88.816 1386.81 91.8715 1382.23 Q94.9502 1377.62 100.76 1377.62 Z" fill="#000000" fill-rule="nonzero" fill-opacity="1" /><path clip-path="url(#clip670)" d="M120.922 1406.93 L125.807 1406.93 L125.807 1412.81 L120.922 1412.81 L120.922 1406.93 Z" fill="#000000" fill-rule="nonzero" fill-opacity="1" /><path clip-path="url(#clip670)" d="M148.839 1382.32 L137.033 1400.77 L148.839 1400.77 L148.839 1382.32 M147.612 1378.25 L153.492 1378.25 L153.492 1400.77 L158.422 1400.77 L158.422 1404.66 L153.492 1404.66 L153.492 1412.81 L148.839 1412.81 L148.839 1404.66 L133.237 1404.66 L133.237 1400.15 L147.612 1378.25 Z" fill="#000000" fill-rule="nonzero" fill-opacity="1" /><path clip-path="url(#clip670)" d="M53.0754 1138.81 L82.7512 1138.81 L82.7512 1142.75 L53.0754 1142.75 L53.0754 1138.81 Z" fill="#000000" fill-rule="nonzero" fill-opacity="1" /><path clip-path="url(#clip670)" d="M102.844 1124.16 Q99.2326 1124.16 97.4039 1127.73 Q95.5984 1131.27 95.5984 1138.4 Q95.5984 1145.5 97.4039 1149.07 Q99.2326 1152.61 102.844 1152.61 Q106.478 1152.61 108.283 1149.07 Q110.112 1145.5 110.112 1138.4 Q110.112 1131.27 108.283 1127.73 Q106.478 1124.16 102.844 1124.16 M102.844 1120.46 Q108.654 1120.46 111.709 1125.06 Q114.788 1129.65 114.788 1138.4 Q114.788 1147.12 111.709 1151.73 Q108.654 1156.31 102.844 1156.31 Q97.0335 1156.31 93.9549 1151.73 Q90.8993 1147.12 90.8993 1138.4 Q90.8993 1129.65 93.9549 1125.06 Q97.0335 1120.46 102.844 1120.46 Z" fill="#000000" fill-rule="nonzero" fill-opacity="1" /><path clip-path="url(#clip670)" d="M123.006 1149.76 L127.89 1149.76 L127.89 1155.64 L123.006 1155.64 L123.006 1149.76 Z" fill="#000000" fill-rule="nonzero" fill-opacity="1" /><path clip-path="url(#clip670)" d="M142.103 1151.71 L158.422 1151.71 L158.422 1155.64 L136.478 1155.64 L136.478 1151.71 Q139.14 1148.95 143.723 1144.32 Q148.33 1139.67 149.51 1138.33 Q151.755 1135.8 152.635 1134.07 Q153.538 1132.31 153.538 1130.62 Q153.538 1127.86 151.593 1126.13 Q149.672 1124.39 146.57 1124.39 Q144.371 1124.39 141.918 1125.16 Q139.487 1125.92 136.709 1127.47 L136.709 1122.75 Q139.533 1121.61 141.987 1121.04 Q144.441 1120.46 146.478 1120.46 Q151.848 1120.46 155.042 1123.14 Q158.237 1125.83 158.237 1130.32 Q158.237 1132.45 157.427 1134.37 Q156.64 1136.27 154.533 1138.86 Q153.955 1139.53 150.853 1142.75 Q147.751 1145.94 142.103 1151.71 Z" fill="#000000" fill-rule="nonzero" fill-opacity="1" /><path clip-path="url(#clip670)" d="M101.246 866.995 Q97.6354 866.995 95.8067 870.56 Q94.0012 874.102 94.0012 881.231 Q94.0012 888.338 95.8067 891.903 Q97.6354 895.444 101.246 895.444 Q104.881 895.444 106.686 891.903 Q108.515 888.338 108.515 881.231 Q108.515 874.102 106.686 870.56 Q104.881 866.995 101.246 866.995 M101.246 863.292 Q107.057 863.292 110.112 867.898 Q113.191 872.481 113.191 881.231 Q113.191 889.958 110.112 894.565 Q107.057 899.148 101.246 899.148 Q95.4363 899.148 92.3576 894.565 Q89.3021 889.958 89.3021 881.231 Q89.3021 872.481 92.3576 867.898 Q95.4363 863.292 101.246 863.292 Z" fill="#000000" fill-rule="nonzero" fill-opacity="1" /><path clip-path="url(#clip670)" d="M121.408 892.597 L126.293 892.597 L126.293 898.477 L121.408 898.477 L121.408 892.597 Z" fill="#000000" fill-rule="nonzero" fill-opacity="1" /><path clip-path="url(#clip670)" d="M146.478 866.995 Q142.867 866.995 141.038 870.56 Q139.232 874.102 139.232 881.231 Q139.232 888.338 141.038 891.903 Q142.867 895.444 146.478 895.444 Q150.112 895.444 151.918 891.903 Q153.746 888.338 153.746 881.231 Q153.746 874.102 151.918 870.56 Q150.112 866.995 146.478 866.995 M146.478 863.292 Q152.288 863.292 155.343 867.898 Q158.422 872.481 158.422 881.231 Q158.422 889.958 155.343 894.565 Q152.288 899.148 146.478 899.148 Q140.668 899.148 137.589 894.565 Q134.533 889.958 134.533 881.231 Q134.533 872.481 137.589 867.898 Q140.668 863.292 146.478 863.292 Z" fill="#000000" fill-rule="nonzero" fill-opacity="1" /><path clip-path="url(#clip670)" d="M102.844 609.83 Q99.2326 609.83 97.4039 613.395 Q95.5984 616.936 95.5984 624.066 Q95.5984 631.172 97.4039 634.737 Q99.2326 638.279 102.844 638.279 Q106.478 638.279 108.283 634.737 Q110.112 631.172 110.112 624.066 Q110.112 616.936 108.283 613.395 Q106.478 609.83 102.844 609.83 M102.844 606.126 Q108.654 606.126 111.709 610.733 Q114.788 615.316 114.788 624.066 Q114.788 632.793 111.709 637.399 Q108.654 641.983 102.844 641.983 Q97.0335 641.983 93.9549 637.399 Q90.8993 632.793 90.8993 624.066 Q90.8993 615.316 93.9549 610.733 Q97.0335 606.126 102.844 606.126 Z" fill="#000000" fill-rule="nonzero" fill-opacity="1" /><path clip-path="url(#clip670)" d="M123.006 635.432 L127.89 635.432 L127.89 641.311 L123.006 641.311 L123.006 635.432 Z" fill="#000000" fill-rule="nonzero" fill-opacity="1" /><path clip-path="url(#clip670)" d="M142.103 637.376 L158.422 637.376 L158.422 641.311 L136.478 641.311 L136.478 637.376 Q139.14 634.622 143.723 629.992 Q148.33 625.339 149.51 623.997 Q151.755 621.473 152.635 619.737 Q153.538 617.978 153.538 616.288 Q153.538 613.534 151.593 611.798 Q149.672 610.061 146.57 610.061 Q144.371 610.061 141.918 610.825 Q139.487 611.589 136.709 613.14 L136.709 608.418 Q139.533 607.284 141.987 606.705 Q144.441 606.126 146.478 606.126 Q151.848 606.126 155.042 608.811 Q158.237 611.497 158.237 615.987 Q158.237 618.117 157.427 620.038 Q156.64 621.936 154.533 624.529 Q153.955 625.2 150.853 628.418 Q147.751 631.612 142.103 637.376 Z" fill="#000000" fill-rule="nonzero" fill-opacity="1" /><path clip-path="url(#clip670)" d="M100.76 352.665 Q97.1493 352.665 95.3206 356.23 Q93.515 359.771 93.515 366.901 Q93.515 374.007 95.3206 377.572 Q97.1493 381.114 100.76 381.114 Q104.395 381.114 106.2 377.572 Q108.029 374.007 108.029 366.901 Q108.029 359.771 106.2 356.23 Q104.395 352.665 100.76 352.665 M100.76 348.961 Q106.571 348.961 109.626 353.568 Q112.705 358.151 112.705 366.901 Q112.705 375.628 109.626 380.234 Q106.571 384.817 100.76 384.817 Q94.9502 384.817 91.8715 380.234 Q88.816 375.628 88.816 366.901 Q88.816 358.151 91.8715 353.568 Q94.9502 348.961 100.76 348.961 Z" fill="#000000" fill-rule="nonzero" fill-opacity="1" /><path clip-path="url(#clip670)" d="M120.922 378.266 L125.807 378.266 L125.807 384.146 L120.922 384.146 L120.922 378.266 Z" fill="#000000" fill-rule="nonzero" fill-opacity="1" /><path clip-path="url(#clip670)" d="M148.839 353.66 L137.033 372.109 L148.839 372.109 L148.839 353.66 M147.612 349.586 L153.492 349.586 L153.492 372.109 L158.422 372.109 L158.422 375.998 L153.492 375.998 L153.492 384.146 L148.839 384.146 L148.839 375.998 L133.237 375.998 L133.237 371.484 L147.612 349.586 Z" fill="#000000" fill-rule="nonzero" fill-opacity="1" /><path clip-path="url(#clip670)" d="M1060.03 12.096 L1068.21 12.096 L1068.21 72.576 L1060.03 72.576 L1060.03 12.096 Z" fill="#000000" fill-rule="nonzero" fill-opacity="1" /><path clip-path="url(#clip670)" d="M1121.88 45.1919 L1121.88 72.576 L1114.43 72.576 L1114.43 45.4349 Q1114.43 38.994 1111.92 35.7938 Q1109.41 32.5936 1104.38 32.5936 Q1098.35 32.5936 1094.86 36.4419 Q1091.38 40.2903 1091.38 46.9338 L1091.38 72.576 L1083.89 72.576 L1083.89 27.2059 L1091.38 27.2059 L1091.38 34.2544 Q1094.05 30.163 1097.66 28.1376 Q1101.3 26.1121 1106.04 26.1121 Q1113.86 26.1121 1117.87 30.9732 Q1121.88 35.7938 1121.88 45.1919 Z" fill="#000000" fill-rule="nonzero" fill-opacity="1" /><path clip-path="url(#clip670)" d="M1136.75 27.2059 L1144.2 27.2059 L1144.2 72.576 L1136.75 72.576 L1136.75 27.2059 M1136.75 9.54393 L1144.2 9.54393 L1144.2 18.9825 L1136.75 18.9825 L1136.75 9.54393 Z" fill="#000000" fill-rule="nonzero" fill-opacity="1" /><path clip-path="url(#clip670)" d="M1167.17 14.324 L1167.17 27.2059 L1182.52 27.2059 L1182.52 32.9987 L1167.17 32.9987 L1167.17 57.6282 Q1167.17 63.1779 1168.67 64.7578 Q1170.21 66.3376 1174.87 66.3376 L1182.52 66.3376 L1182.52 72.576 L1174.87 72.576 Q1166.24 72.576 1162.96 69.3758 Q1159.68 66.1351 1159.68 57.6282 L1159.68 32.9987 L1154.21 32.9987 L1154.21 27.2059 L1159.68 27.2059 L1159.68 14.324 L1167.17 14.324 Z" fill="#000000" fill-rule="nonzero" fill-opacity="1" /><path clip-path="url(#clip670)" d="M1192.33 27.2059 L1199.78 27.2059 L1199.78 72.576 L1192.33 72.576 L1192.33 27.2059 M1192.33 9.54393 L1199.78 9.54393 L1199.78 18.9825 L1192.33 18.9825 L1192.33 9.54393 Z" fill="#000000" fill-rule="nonzero" fill-opacity="1" /><path clip-path="url(#clip670)" d="M1236 49.7694 Q1226.96 49.7694 1223.48 51.8354 Q1220 53.9013 1220 58.8839 Q1220 62.8538 1222.59 65.2034 Q1225.22 67.5124 1229.72 67.5124 Q1235.92 67.5124 1239.64 63.1374 Q1243.41 58.7219 1243.41 51.4303 L1243.41 49.7694 L1236 49.7694 M1250.86 46.6907 L1250.86 72.576 L1243.41 72.576 L1243.41 65.6895 Q1240.86 69.8214 1237.05 71.8063 Q1233.24 73.7508 1227.73 73.7508 Q1220.77 73.7508 1216.63 69.8619 Q1212.54 65.9325 1212.54 59.3701 Q1212.54 51.7138 1217.65 47.825 Q1222.79 43.9361 1232.96 43.9361 L1243.41 43.9361 L1243.41 43.2069 Q1243.41 38.0623 1240.01 35.2672 Q1236.64 32.4315 1230.53 32.4315 Q1226.64 32.4315 1222.95 33.3632 Q1219.27 34.295 1215.86 36.1584 L1215.86 29.2718 Q1219.96 27.692 1223.8 26.9223 Q1227.65 26.1121 1231.3 26.1121 Q1241.14 26.1121 1246 31.2163 Q1250.86 36.3204 1250.86 46.6907 Z" fill="#000000" fill-rule="nonzero" fill-opacity="1" /><path clip-path="url(#clip670)" d="M1266.22 9.54393 L1273.67 9.54393 L1273.67 72.576 L1266.22 72.576 L1266.22 9.54393 Z" fill="#000000" fill-rule="nonzero" fill-opacity="1" /><path clip-path="url(#clip670)" d="M1345.49 34.0924 L1345.49 9.54393 L1352.95 9.54393 L1352.95 72.576 L1345.49 72.576 L1345.49 65.7705 Q1343.14 69.8214 1339.54 71.8063 Q1335.97 73.7508 1330.95 73.7508 Q1322.73 73.7508 1317.54 67.1883 Q1312.4 60.6258 1312.4 49.9314 Q1312.4 39.2371 1317.54 32.6746 Q1322.73 26.1121 1330.95 26.1121 Q1335.97 26.1121 1339.54 28.0971 Q1343.14 30.0415 1345.49 34.0924 M1320.09 49.9314 Q1320.09 58.1548 1323.46 62.8538 Q1326.86 67.5124 1332.77 67.5124 Q1338.69 67.5124 1342.09 62.8538 Q1345.49 58.1548 1345.49 49.9314 Q1345.49 41.7081 1342.09 37.0496 Q1338.69 32.3505 1332.77 32.3505 Q1326.86 32.3505 1323.46 37.0496 Q1320.09 41.7081 1320.09 49.9314 Z" fill="#000000" fill-rule="nonzero" fill-opacity="1" /><path clip-path="url(#clip670)" d="M1388.92 49.7694 Q1379.88 49.7694 1376.4 51.8354 Q1372.92 53.9013 1372.92 58.8839 Q1372.92 62.8538 1375.51 65.2034 Q1378.14 67.5124 1382.64 67.5124 Q1388.84 67.5124 1392.56 63.1374 Q1396.33 58.7219 1396.33 51.4303 L1396.33 49.7694 L1388.92 49.7694 M1403.79 46.6907 L1403.79 72.576 L1396.33 72.576 L1396.33 65.6895 Q1393.78 69.8214 1389.97 71.8063 Q1386.16 73.7508 1380.65 73.7508 Q1373.69 73.7508 1369.55 69.8619 Q1365.46 65.9325 1365.46 59.3701 Q1365.46 51.7138 1370.57 47.825 Q1375.71 43.9361 1385.88 43.9361 L1396.33 43.9361 L1396.33 43.2069 Q1396.33 38.0623 1392.93 35.2672 Q1389.57 32.4315 1383.45 32.4315 Q1379.56 32.4315 1375.87 33.3632 Q1372.19 34.295 1368.79 36.1584 L1368.79 29.2718 Q1372.88 27.692 1376.73 26.9223 Q1380.57 26.1121 1384.22 26.1121 Q1394.06 26.1121 1398.92 31.2163 Q1403.79 36.3204 1403.79 46.6907 Z" fill="#000000" fill-rule="nonzero" fill-opacity="1" /><path clip-path="url(#clip670)" d="M1426.51 14.324 L1426.51 27.2059 L1441.86 27.2059 L1441.86 32.9987 L1426.51 32.9987 L1426.51 57.6282 Q1426.51 63.1779 1428.01 64.7578 Q1429.55 66.3376 1434.21 66.3376 L1441.86 66.3376 L1441.86 72.576 L1434.21 72.576 Q1425.58 72.576 1422.3 69.3758 Q1419.02 66.1351 1419.02 57.6282 L1419.02 32.9987 L1413.55 32.9987 L1413.55 27.2059 L1419.02 27.2059 L1419.02 14.324 L1426.51 14.324 Z" fill="#000000" fill-rule="nonzero" fill-opacity="1" /><path clip-path="url(#clip670)" d="M1472.29 49.7694 Q1463.25 49.7694 1459.77 51.8354 Q1456.28 53.9013 1456.28 58.8839 Q1456.28 62.8538 1458.88 65.2034 Q1461.51 67.5124 1466.01 67.5124 Q1472.2 67.5124 1475.93 63.1374 Q1479.7 58.7219 1479.7 51.4303 L1479.7 49.7694 L1472.29 49.7694 M1487.15 46.6907 L1487.15 72.576 L1479.7 72.576 L1479.7 65.6895 Q1477.15 69.8214 1473.34 71.8063 Q1469.53 73.7508 1464.02 73.7508 Q1457.05 73.7508 1452.92 69.8619 Q1448.83 65.9325 1448.83 59.3701 Q1448.83 51.7138 1453.94 47.825 Q1459.08 43.9361 1469.25 43.9361 L1479.7 43.9361 L1479.7 43.2069 Q1479.7 38.0623 1476.3 35.2672 Q1472.93 32.4315 1466.82 32.4315 Q1462.93 32.4315 1459.24 33.3632 Q1455.56 34.295 1452.15 36.1584 L1452.15 29.2718 Q1456.24 27.692 1460.09 26.9223 Q1463.94 26.1121 1467.59 26.1121 Q1477.43 26.1121 1482.29 31.2163 Q1487.15 36.3204 1487.15 46.6907 Z" fill="#000000" fill-rule="nonzero" fill-opacity="1" /><polyline clip-path="url(#clip671)" style="stroke:#009af9; stroke-linecap:round; stroke-linejoin:round; stroke-width:4; stroke-opacity:1; fill:none" points="255.507,1420.52 259.492,1426.96 263.476,1432.5 267.461,1437.15 271.446,1440.93 275.43,1443.87 279.415,1445.99 283.4,1447.31 287.384,1447.87 291.369,1447.71 295.354,1446.85 299.338,1445.33 303.323,1443.19 307.308,1440.47 311.292,1437.21 315.277,1433.45 319.262,1429.22 323.246,1424.58 327.231,1419.56 331.216,1414.21 335.2,1408.56 339.185,1402.66 343.17,1396.54 347.154,1390.24 351.139,1383.79 355.124,1377.23 359.108,1370.58 363.093,1363.86 367.078,1357.08 371.062,1350.26 375.047,1343.41 379.032,1336.52 383.016,1329.59 387.001,1322.61 390.986,1315.56 394.97,1308.43 398.955,1301.21 402.94,1293.86 406.924,1286.36 410.909,1278.69 414.894,1270.84 418.878,1262.77 422.863,1254.48 426.848,1245.94 430.832,1237.16 434.817,1228.13 438.802,1218.85 442.786,1209.33 446.771,1199.58 450.756,1189.61 454.74,1179.45 458.725,1169.11 462.71,1158.63 466.694,1148.04 470.679,1137.36 474.664,1126.62 478.648,1115.86 482.633,1105.11 486.618,1094.4 490.602,1083.76 494.587,1073.21 498.572,1062.79 502.556,1052.52 506.541,1042.42 510.526,1032.52 514.51,1022.83 518.495,1013.39 522.48,1004.2 526.464,995.284 530.449,986.665 534.434,978.358 538.418,970.382 542.403,962.755 546.388,955.497 550.372,948.626 554.357,942.162 558.342,936.125 562.326,930.532 566.311,925.402 570.296,920.751 574.28,916.593 578.265,912.94 582.25,909.801 586.234,907.181 590.219,905.082 594.204,903.501 598.188,902.433 602.173,901.869 606.158,901.794 610.142,902.195 614.127,903.054 618.112,904.351 622.096,906.067 626.081,908.183 630.066,910.679 634.05,913.537 638.035,916.742 642.02,920.278 646.004,924.131 649.989,928.291 653.974,932.745 657.958,937.484 661.943,942.497 665.928,947.773 669.912,953.299 673.897,959.062 677.882,965.044 681.866,971.225 685.851,977.582 689.836,984.089 693.82,990.714 697.805,997.425 701.79,1004.19 705.774,1010.95 709.759,1017.69 713.744,1024.36 717.728,1030.9 721.713,1037.29 725.698,1043.48 729.682,1049.42 733.667,1055.09 737.652,1060.44 741.636,1065.46 745.621,1070.11 749.606,1074.38 753.59,1078.25 757.575,1081.71 761.56,1084.76 765.544,1087.4 769.529,1089.64 773.514,1091.48 777.498,1092.95 781.483,1094.05 785.468,1094.81 789.452,1095.26 793.437,1095.41 797.422,1095.3 801.406,1094.95 805.391,1094.39 809.375,1093.63 813.36,1092.71 817.345,1091.64 821.329,1090.44 825.314,1089.1 829.299,1087.62 833.283,1086.01 837.268,1084.23 841.253,1082.25 845.237,1080.05 849.222,1077.57 853.207,1074.76 857.191,1071.54 861.176,1067.86 865.161,1063.63 869.145,1058.77 873.13,1053.22 877.115,1046.88 881.099,1039.69 885.084,1031.58 889.069,1022.49 893.053,1012.37 897.038,1001.17 901.023,988.854 905.007,975.409 908.992,960.82 912.977,945.084 916.961,928.208 920.946,910.207 924.931,891.106 928.915,870.935 932.9,849.732 936.885,827.54 940.869,804.41 944.854,780.398 948.839,755.565 952.823,729.981 956.808,703.72 960.793,676.866 964.777,649.511 968.762,621.753 972.747,593.701 976.731,565.473 980.716,537.193 984.701,508.995 988.685,481.018 992.67,453.408 996.655,426.313 1000.64,399.885 1004.62,374.272 1008.61,349.623 1012.59,326.079 1016.58,303.774 1020.56,282.833 1024.55,263.368 1028.53,245.476 1032.52,229.239 1036.5,214.721 1040.49,201.969 1044.47,191.01 1048.46,181.851 1052.44,174.482 1056.42,168.872 1060.41,164.975 1064.39,162.727 1068.38,162.047 1072.36,162.843 1076.35,165.009 1080.33,168.43 1084.32,172.983 1088.3,178.536 1092.29,184.954 1096.27,192.1 1100.26,199.836 1104.24,208.023 1108.23,216.526 1112.21,225.216 1116.19,233.969 1120.18,242.667 1124.16,251.207 1128.15,259.491 1132.13,267.437 1136.12,274.976 1140.1,282.053 1144.09,288.63 1148.07,294.683 1152.06,300.205 1156.04,305.206 1160.03,309.711 1164.01,313.758 1168,317.401 1171.98,320.705 1175.96,323.744 1179.95,326.602 1183.93,329.368 1187.92,332.134 1191.9,334.993 1195.89,338.039 1199.87,341.358 1203.86,345.034 1207.84,349.142 1211.83,353.748 1215.81,358.907 1219.8,364.664 1223.78,371.05 1227.77,378.085 1231.75,385.777 1235.73,394.121 1239.72,403.104 1243.7,412.7 1247.69,422.877 1251.67,433.595 1255.66,444.808 1259.64,456.47 1263.63,468.529 1267.61,480.935 1271.6,493.641 1275.58,506.6 1279.57,519.772 1283.55,533.118 1287.54,546.609 1291.52,560.22 1295.5,573.933 1299.49,587.734 1303.47,601.618 1307.46,615.582 1311.44,629.63 1315.43,643.767 1319.41,658.002 1323.4,672.341 1327.38,686.794 1331.37,701.366 1335.35,716.057 1339.34,730.866 1343.32,745.783 1347.31,760.792 1351.29,775.872 1355.27,790.993 1359.26,806.117 1363.24,821.202 1367.23,836.2 1371.21,851.058 1375.2,865.721 1379.18,880.133 1383.17,894.241 1387.15,907.991 1391.14,921.338 1395.12,934.237 1399.11,946.656 1403.09,958.567 1407.08,969.951 1411.06,980.797 1415.04,991.104 1419.03,1000.87 1423.01,1010.12 1427,1018.86 1430.98,1027.12 1434.97,1034.91 1438.95,1042.27 1442.94,1049.21 1446.92,1055.77 1450.91,1061.96 1454.89,1067.81 1458.88,1073.32 1462.86,1078.5 1466.85,1083.36 1470.83,1087.9 1474.81,1092.11 1478.8,1095.96 1482.78,1099.45 1486.77,1102.55 1490.75,1105.23 1494.74,1107.45 1498.72,1109.18 1502.71,1110.38 1506.69,1111 1510.68,1111 1514.66,1110.33 1518.65,1108.96 1522.63,1106.84 1526.62,1103.93 1530.6,1100.18 1534.58,1095.57 1538.57,1090.06 1542.55,1083.63 1546.54,1076.25 1550.52,1067.92 1554.51,1058.62 1558.49,1048.35 1562.48,1037.12 1566.46,1024.95 1570.45,1011.85 1574.43,997.862 1578.42,983.021 1582.4,967.374 1586.39,950.974 1590.37,933.883 1594.35,916.166 1598.34,897.896 1602.32,879.148 1606.31,860.002 1610.29,840.538 1614.28,820.837 1618.26,800.981 1622.25,781.048 1626.23,761.113 1630.22,741.249 1634.2,721.521 1638.19,701.99 1642.17,682.709 1646.16,663.726 1650.14,645.078 1654.12,626.797 1658.11,608.906 1662.09,591.42 1666.08,574.346 1670.06,557.685 1674.05,541.431 1678.03,525.57 1682.02,510.085 1686,494.957 1689.99,480.16 1693.97,465.67 1697.96,451.463 1701.94,437.514 1705.93,423.803 1709.91,410.312 1713.89,397.03 1717.88,383.949 1721.86,371.069 1725.85,358.393 1729.83,345.932 1733.82,333.704 1737.8,321.729 1741.79,310.035 1745.77,298.651 1749.76,287.61 1753.74,276.95 1757.73,266.707 1761.71,256.921 1765.7,247.634 1769.68,238.885 1773.66,230.717 1777.65,223.172 1781.63,216.293 1785.62,210.122 1789.6,204.701 1793.59,200.072 1797.57,196.275 1801.56,193.35 1805.54,191.331 1809.53,190.253 1813.51,190.144 1817.5,191.027 1821.48,192.922 1825.47,195.84 1829.45,199.787 1833.43,204.762 1837.42,210.759 1841.4,217.764 1845.39,225.76 1849.37,234.721 1853.36,244.623 1857.34,255.433 1861.33,267.121 1865.31,279.653 1869.3,292.996 1873.28,307.117 1877.27,321.985 1881.25,337.57 1885.24,353.845 1889.22,370.785 1893.2,388.368 1897.19,406.572 1901.17,425.379 1905.16,444.769 1909.14,464.724 1913.13,485.225 1917.11,506.247 1921.1,527.764 1925.08,549.745 1929.07,572.152 1933.05,594.939 1937.04,618.055 1941.02,641.437 1945.01,665.018 1948.99,688.717 1952.97,712.451 1956.96,736.127 1960.94,759.647 1964.93,782.908 1968.91,805.806 1972.9,828.234 1976.88,850.086 1980.87,871.26 1984.85,891.657 1988.84,911.183 1992.82,929.753 1996.81,947.289 2000.79,963.723 2004.78,978.998 2008.76,993.065 2012.74,1005.89 2016.73,1017.45 2020.71,1027.73 2024.7,1036.72 2028.68,1044.44 2032.67,1050.89 2036.65,1056.12 2040.64,1060.14 2044.62,1062.99 2048.61,1064.74 2052.59,1065.42 2056.58,1065.11 2060.56,1063.85 2064.55,1061.73 2068.53,1058.82 2072.51,1055.18 2076.5,1050.92 2080.48,1046.11 2084.47,1040.84 2088.45,1035.21 2092.44,1029.31 2096.42,1023.24 2100.41,1017.1 2104.39,1010.99 2108.38,1005 2112.36,999.236 2116.35,993.797 2120.33,988.775 2124.32,984.264 2128.3,980.351 2132.28,977.121 2136.27,974.654 2140.25,973.023 2144.24,972.296 2148.22,972.534 2152.21,973.791 2156.19,976.11 2160.18,979.53 2164.16,984.075 2168.15,989.762 2172.13,996.597 2176.12,1004.57 2180.1,1013.67 2184.09,1023.87 2188.07,1035.12 2192.05,1047.38 2196.04,1060.58 2200.02,1074.65 2204.01,1089.5 2207.99,1105.05 2211.98,1121.2 2215.96,1137.85 2219.95,1154.88 2223.93,1172.18 2227.92,1189.64 2231.9,1207.15 2235.89,1224.6 2239.87,1241.87 2243.86,1258.86 2247.84,1275.48 2251.82,1291.63 2255.81,1307.23 2259.79,1322.2 2263.78,1336.47 2267.76,1349.99 2271.75,1362.71 2275.73,1374.58 2279.72,1385.58 2283.7,1395.69 2287.69,1404.88 2291.67,1413.16 "/>
<polyline clip-path="url(#clip671)" style="stroke:#e26f46; stroke-linecap:round; stroke-linejoin:round; stroke-width:4; stroke-opacity:1; fill:none" points="255.507,881.197 259.492,881.197 263.476,881.197 267.461,881.197 271.446,881.197 275.43,881.197 279.415,881.197 283.4,881.197 287.384,881.197 291.369,881.197 295.354,881.197 299.338,881.197 303.323,881.197 307.308,881.197 311.292,881.197 315.277,881.197 319.262,881.197 323.246,881.197 327.231,881.197 331.216,881.197 335.2,881.197 339.185,881.197 343.17,881.197 347.154,881.197 351.139,881.197 355.124,881.197 359.108,881.197 363.093,881.197 367.078,881.197 371.062,881.197 375.047,881.197 379.032,881.197 383.016,881.197 387.001,881.197 390.986,881.197 394.97,881.197 398.955,881.197 402.94,881.197 406.924,881.197 410.909,881.197 414.894,881.197 418.878,881.197 422.863,881.197 426.848,881.197 430.832,881.197 434.817,881.197 438.802,881.197 442.786,881.197 446.771,881.197 450.756,881.197 454.74,881.197 458.725,881.197 462.71,881.197 466.694,881.197 470.679,881.197 474.664,881.197 478.648,881.197 482.633,881.197 486.618,881.197 490.602,881.197 494.587,881.197 498.572,881.197 502.556,881.197 506.541,881.197 510.526,881.197 514.51,881.197 518.495,881.197 522.48,881.197 526.464,881.197 530.449,881.197 534.434,881.197 538.418,881.197 542.403,881.197 546.388,881.197 550.372,881.197 554.357,881.197 558.342,881.197 562.326,881.197 566.311,881.197 570.296,881.197 574.28,881.197 578.265,881.197 582.25,881.197 586.234,881.197 590.219,881.197 594.204,881.197 598.188,881.197 602.173,881.197 606.158,881.197 610.142,881.197 614.127,881.197 618.112,881.197 622.096,881.197 626.081,881.197 630.066,881.197 634.05,881.197 638.035,881.197 642.02,881.197 646.004,881.197 649.989,881.197 653.974,881.197 657.958,881.197 661.943,881.197 665.928,881.197 669.912,881.197 673.897,881.197 677.882,881.197 681.866,881.197 685.851,881.197 689.836,881.197 693.82,881.197 697.805,881.197 701.79,881.197 705.774,881.197 709.759,881.197 713.744,881.197 717.728,881.197 721.713,881.197 725.698,881.197 729.682,881.197 733.667,881.197 737.652,881.197 741.636,881.197 745.621,881.197 749.606,881.197 753.59,881.197 757.575,881.197 761.56,881.197 765.544,881.197 769.529,881.197 773.514,881.197 777.498,881.197 781.483,881.197 785.468,881.197 789.452,881.197 793.437,881.197 797.422,881.197 801.406,881.197 805.391,881.197 809.375,881.197 813.36,881.197 817.345,881.197 821.329,881.197 825.314,881.197 829.299,881.197 833.283,881.197 837.268,881.197 841.253,881.197 845.237,881.197 849.222,881.197 853.207,881.197 857.191,881.197 861.176,881.197 865.161,881.197 869.145,881.197 873.13,881.197 877.115,881.197 881.099,881.197 885.084,881.197 889.069,881.197 893.053,881.197 897.038,881.197 901.023,881.197 905.007,881.197 908.992,881.197 912.977,881.197 916.961,881.197 920.946,881.197 924.931,881.197 928.915,881.197 932.9,881.197 936.885,881.197 940.869,881.197 944.854,881.197 948.839,881.197 952.823,881.197 956.808,881.197 960.793,881.197 964.777,881.197 968.762,881.197 972.747,881.197 976.731,881.197 980.716,881.197 984.701,881.197 988.685,881.197 992.67,881.197 996.655,881.197 1000.64,881.197 1004.62,881.197 1008.61,881.197 1012.59,881.197 1016.58,881.197 1020.56,881.197 1024.55,881.197 1028.53,881.197 1032.52,881.197 1036.5,881.197 1040.49,881.197 1044.47,881.197 1048.46,881.197 1052.44,881.197 1056.42,881.197 1060.41,881.197 1064.39,881.197 1068.38,881.197 1072.36,881.197 1076.35,881.197 1080.33,881.197 1084.32,881.197 1088.3,881.197 1092.29,881.197 1096.27,881.197 1100.26,881.197 1104.24,881.197 1108.23,881.197 1112.21,881.197 1116.19,881.197 1120.18,881.197 1124.16,881.197 1128.15,881.197 1132.13,881.197 1136.12,881.197 1140.1,881.197 1144.09,881.197 1148.07,881.197 1152.06,881.197 1156.04,881.197 1160.03,881.197 1164.01,881.197 1168,881.197 1171.98,881.197 1175.96,881.197 1179.95,881.197 1183.93,881.197 1187.92,881.197 1191.9,881.197 1195.89,881.197 1199.87,881.197 1203.86,881.197 1207.84,881.197 1211.83,881.197 1215.81,881.197 1219.8,881.197 1223.78,881.197 1227.77,881.197 1231.75,881.197 1235.73,881.197 1239.72,881.197 1243.7,881.197 1247.69,881.197 1251.67,881.197 1255.66,881.197 1259.64,881.197 1263.63,881.197 1267.61,881.197 1271.6,881.197 1275.58,881.197 1279.57,881.197 1283.55,881.197 1287.54,881.197 1291.52,881.197 1295.5,881.197 1299.49,881.197 1303.47,881.197 1307.46,881.197 1311.44,881.197 1315.43,881.197 1319.41,881.197 1323.4,881.197 1327.38,881.197 1331.37,881.197 1335.35,881.197 1339.34,881.197 1343.32,881.197 1347.31,881.197 1351.29,881.197 1355.27,881.197 1359.26,881.197 1363.24,881.197 1367.23,881.197 1371.21,881.197 1375.2,881.197 1379.18,881.197 1383.17,881.197 1387.15,881.197 1391.14,881.197 1395.12,881.197 1399.11,881.197 1403.09,881.197 1407.08,881.197 1411.06,881.197 1415.04,881.197 1419.03,881.197 1423.01,881.197 1427,881.197 1430.98,881.197 1434.97,881.197 1438.95,881.197 1442.94,881.197 1446.92,881.197 1450.91,881.197 1454.89,881.197 1458.88,881.197 1462.86,881.197 1466.85,881.197 1470.83,881.197 1474.81,881.197 1478.8,881.197 1482.78,881.197 1486.77,881.197 1490.75,881.197 1494.74,881.197 1498.72,881.197 1502.71,881.197 1506.69,881.197 1510.68,881.197 1514.66,881.197 1518.65,881.197 1522.63,881.197 1526.62,881.197 1530.6,881.197 1534.58,881.197 1538.57,881.197 1542.55,881.197 1546.54,881.197 1550.52,881.197 1554.51,881.197 1558.49,881.197 1562.48,881.197 1566.46,881.197 1570.45,881.197 1574.43,881.197 1578.42,881.197 1582.4,881.197 1586.39,881.197 1590.37,881.197 1594.35,881.197 1598.34,881.197 1602.32,881.197 1606.31,881.197 1610.29,881.197 1614.28,881.197 1618.26,881.197 1622.25,881.197 1626.23,881.197 1630.22,881.197 1634.2,881.197 1638.19,881.197 1642.17,881.197 1646.16,881.197 1650.14,881.197 1654.12,881.197 1658.11,881.197 1662.09,881.197 1666.08,881.197 1670.06,881.197 1674.05,881.197 1678.03,881.197 1682.02,881.197 1686,881.197 1689.99,881.197 1693.97,881.197 1697.96,881.197 1701.94,881.197 1705.93,881.197 1709.91,881.197 1713.89,881.197 1717.88,881.197 1721.86,881.197 1725.85,881.197 1729.83,881.197 1733.82,881.197 1737.8,881.197 1741.79,881.197 1745.77,881.197 1749.76,881.197 1753.74,881.197 1757.73,881.197 1761.71,881.197 1765.7,881.197 1769.68,881.197 1773.66,881.197 1777.65,881.197 1781.63,881.197 1785.62,881.197 1789.6,881.197 1793.59,881.197 1797.57,881.197 1801.56,881.197 1805.54,881.197 1809.53,881.197 1813.51,881.197 1817.5,881.197 1821.48,881.197 1825.47,881.197 1829.45,881.197 1833.43,881.197 1837.42,881.197 1841.4,881.197 1845.39,881.197 1849.37,881.197 1853.36,881.197 1857.34,881.197 1861.33,881.197 1865.31,881.197 1869.3,881.197 1873.28,881.197 1877.27,881.197 1881.25,881.197 1885.24,881.197 1889.22,881.197 1893.2,881.197 1897.19,881.197 1901.17,881.197 1905.16,881.197 1909.14,881.197 1913.13,881.197 1917.11,881.197 1921.1,881.197 1925.08,881.197 1929.07,881.197 1933.05,881.197 1937.04,881.197 1941.02,881.197 1945.01,881.197 1948.99,881.197 1952.97,881.197 1956.96,881.197 1960.94,881.197 1964.93,881.197 1968.91,881.197 1972.9,881.197 1976.88,881.197 1980.87,881.197 1984.85,881.197 1988.84,881.197 1992.82,881.197 1996.81,881.197 2000.79,881.197 2004.78,881.197 2008.76,881.197 2012.74,881.197 2016.73,881.197 2020.71,881.197 2024.7,881.197 2028.68,881.197 2032.67,881.197 2036.65,881.197 2040.64,881.197 2044.62,881.197 2048.61,881.197 2052.59,881.197 2056.58,881.197 2060.56,881.197 2064.55,881.197 2068.53,881.197 2072.51,881.197 2076.5,881.197 2080.48,881.197 2084.47,881.197 2088.45,881.197 2092.44,881.197 2096.42,881.197 2100.41,881.197 2104.39,881.197 2108.38,881.197 2112.36,881.197 2116.35,881.197 2120.33,881.197 2124.32,881.197 2128.3,881.197 2132.28,881.197 2136.27,881.197 2140.25,881.197 2144.24,881.197 2148.22,881.197 2152.21,881.197 2156.19,881.197 2160.18,881.197 2164.16,881.197 2168.15,881.197 2172.13,881.197 2176.12,881.197 2180.1,881.197 2184.09,881.197 2188.07,881.197 2192.05,881.197 2196.04,881.197 2200.02,881.197 2204.01,881.197 2207.99,881.197 2211.98,881.197 2215.96,881.197 2219.95,881.197 2223.93,881.197 2227.92,881.197 2231.9,881.197 2235.89,881.197 2239.87,881.197 2243.86,881.197 2247.84,881.197 2251.82,881.197 2255.81,881.197 2259.79,881.197 2263.78,881.197 2267.76,881.197 2271.75,881.197 2275.73,881.197 2279.72,881.197 2283.7,881.197 2287.69,881.197 2291.67,881.197 "/>
<path clip-path="url(#clip670)" d="M266.367 324.425 L955.531 324.425 L955.531 168.905 L266.367 168.905  Z" fill="#ffffff" fill-rule="evenodd" fill-opacity="1"/>
<polyline clip-path="url(#clip670)" style="stroke:#000000; stroke-linecap:round; stroke-linejoin:round; stroke-width:4; stroke-opacity:1; fill:none" points="266.367,324.425 955.531,324.425 955.531,168.905 266.367,168.905 266.367,324.425 "/>
<polyline clip-path="url(#clip670)" style="stroke:#009af9; stroke-linecap:round; stroke-linejoin:round; stroke-width:4; stroke-opacity:1; fill:none" points="290.348,220.745 434.237,220.745 "/>
<path clip-path="url(#clip670)" d="M476.644 212.863 L476.644 216.891 Q474.839 215.965 472.894 215.502 Q470.95 215.039 468.867 215.039 Q465.695 215.039 464.098 216.011 Q462.524 216.983 462.524 218.928 Q462.524 220.409 463.658 221.265 Q464.792 222.099 468.218 222.863 L469.677 223.187 Q474.214 224.159 476.112 225.941 Q478.033 227.701 478.033 230.872 Q478.033 234.483 475.163 236.589 Q472.316 238.696 467.316 238.696 Q465.232 238.696 462.964 238.279 Q460.718 237.886 458.218 237.076 L458.218 232.677 Q460.58 233.904 462.871 234.529 Q465.163 235.131 467.408 235.131 Q470.417 235.131 472.038 234.113 Q473.658 233.071 473.658 231.196 Q473.658 229.46 472.478 228.534 Q471.32 227.608 467.362 226.752 L465.88 226.404 Q461.922 225.571 460.163 223.858 Q458.404 222.122 458.404 219.113 Q458.404 215.455 460.996 213.465 Q463.589 211.474 468.357 211.474 Q470.718 211.474 472.802 211.821 Q474.885 212.168 476.644 212.863 Z" fill="#000000" fill-rule="nonzero" fill-opacity="1" /><path clip-path="url(#clip670)" d="M484.376 227.793 L484.376 212.099 L488.635 212.099 L488.635 227.631 Q488.635 231.312 490.07 233.164 Q491.505 234.992 494.376 234.992 Q497.825 234.992 499.815 232.793 Q501.829 230.594 501.829 226.798 L501.829 212.099 L506.089 212.099 L506.089 238.025 L501.829 238.025 L501.829 234.043 Q500.278 236.404 498.218 237.562 Q496.181 238.696 493.473 238.696 Q489.005 238.696 486.691 235.918 Q484.376 233.14 484.376 227.793 M495.093 211.474 L495.093 211.474 Z" fill="#000000" fill-rule="nonzero" fill-opacity="1" /><path clip-path="url(#clip670)" d="M529.885 216.08 Q529.167 215.664 528.311 215.478 Q527.477 215.27 526.459 215.27 Q522.848 215.27 520.903 217.631 Q518.982 219.969 518.982 224.367 L518.982 238.025 L514.7 238.025 L514.7 212.099 L518.982 212.099 L518.982 216.127 Q520.325 213.766 522.477 212.631 Q524.63 211.474 527.709 211.474 Q528.149 211.474 528.681 211.543 Q529.213 211.59 529.862 211.705 L529.885 216.08 Z" fill="#000000" fill-rule="nonzero" fill-opacity="1" /><path clip-path="url(#clip670)" d="M547.477 202.006 L547.477 205.548 L543.403 205.548 Q541.112 205.548 540.209 206.474 Q539.329 207.4 539.329 209.807 L539.329 212.099 L546.343 212.099 L546.343 215.409 L539.329 215.409 L539.329 238.025 L535.047 238.025 L535.047 215.409 L530.973 215.409 L530.973 212.099 L535.047 212.099 L535.047 210.293 Q535.047 205.965 537.061 203.997 Q539.075 202.006 543.449 202.006 L547.477 202.006 Z" fill="#000000" fill-rule="nonzero" fill-opacity="1" /><path clip-path="url(#clip670)" d="M562.824 224.992 Q557.662 224.992 555.672 226.173 Q553.681 227.353 553.681 230.201 Q553.681 232.469 555.162 233.812 Q556.667 235.131 559.236 235.131 Q562.778 235.131 564.908 232.631 Q567.06 230.108 567.06 225.941 L567.06 224.992 L562.824 224.992 M571.32 223.233 L571.32 238.025 L567.06 238.025 L567.06 234.089 Q565.602 236.451 563.426 237.585 Q561.25 238.696 558.102 238.696 Q554.121 238.696 551.76 236.474 Q549.422 234.228 549.422 230.478 Q549.422 226.103 552.338 223.881 Q555.278 221.659 561.088 221.659 L567.06 221.659 L567.06 221.242 Q567.06 218.303 565.116 216.705 Q563.195 215.085 559.699 215.085 Q557.477 215.085 555.371 215.617 Q553.264 216.15 551.32 217.215 L551.32 213.279 Q553.658 212.377 555.857 211.937 Q558.056 211.474 560.139 211.474 Q565.764 211.474 568.542 214.391 Q571.32 217.307 571.32 223.233 Z" fill="#000000" fill-rule="nonzero" fill-opacity="1" /><path clip-path="url(#clip670)" d="M598.75 213.094 L598.75 217.076 Q596.945 216.08 595.116 215.594 Q593.31 215.085 591.458 215.085 Q587.315 215.085 585.023 217.724 Q582.732 220.34 582.732 225.085 Q582.732 229.83 585.023 232.469 Q587.315 235.085 591.458 235.085 Q593.31 235.085 595.116 234.599 Q596.945 234.089 598.75 233.094 L598.75 237.029 Q596.968 237.863 595.046 238.279 Q593.148 238.696 590.996 238.696 Q585.139 238.696 581.69 235.015 Q578.241 231.335 578.241 225.085 Q578.241 218.742 581.713 215.108 Q585.209 211.474 591.273 211.474 Q593.241 211.474 595.116 211.891 Q596.991 212.284 598.75 213.094 Z" fill="#000000" fill-rule="nonzero" fill-opacity="1" /><path clip-path="url(#clip670)" d="M628.333 223.997 L628.333 226.08 L608.75 226.08 Q609.028 230.478 611.389 232.793 Q613.773 235.085 618.009 235.085 Q620.463 235.085 622.755 234.483 Q625.069 233.881 627.338 232.677 L627.338 236.705 Q625.046 237.677 622.639 238.187 Q620.231 238.696 617.755 238.696 Q611.551 238.696 607.917 235.085 Q604.306 231.474 604.306 225.316 Q604.306 218.951 607.732 215.224 Q611.181 211.474 617.014 211.474 Q622.245 211.474 625.278 214.853 Q628.333 218.21 628.333 223.997 M624.074 222.747 Q624.028 219.252 622.106 217.168 Q620.208 215.085 617.06 215.085 Q613.495 215.085 611.343 217.099 Q609.213 219.113 608.889 222.77 L624.074 222.747 Z" fill="#000000" fill-rule="nonzero" fill-opacity="1" /><path clip-path="url(#clip670)" d="M667.453 216.034 L667.453 202.006 L671.713 202.006 L671.713 238.025 L667.453 238.025 L667.453 234.136 Q666.111 236.451 664.051 237.585 Q662.014 238.696 659.143 238.696 Q654.444 238.696 651.481 234.946 Q648.542 231.196 648.542 225.085 Q648.542 218.974 651.481 215.224 Q654.444 211.474 659.143 211.474 Q662.014 211.474 664.051 212.608 Q666.111 213.719 667.453 216.034 M652.94 225.085 Q652.94 229.784 654.861 232.469 Q656.805 235.131 660.185 235.131 Q663.565 235.131 665.509 232.469 Q667.453 229.784 667.453 225.085 Q667.453 220.386 665.509 217.724 Q663.565 215.039 660.185 215.039 Q656.805 215.039 654.861 217.724 Q652.94 220.386 652.94 225.085 Z" fill="#000000" fill-rule="nonzero" fill-opacity="1" /><path clip-path="url(#clip670)" d="M702.662 223.997 L702.662 226.08 L683.078 226.08 Q683.356 230.478 685.717 232.793 Q688.101 235.085 692.338 235.085 Q694.791 235.085 697.083 234.483 Q699.398 233.881 701.666 232.677 L701.666 236.705 Q699.375 237.677 696.967 238.187 Q694.56 238.696 692.083 238.696 Q685.879 238.696 682.245 235.085 Q678.634 231.474 678.634 225.316 Q678.634 218.951 682.06 215.224 Q685.509 211.474 691.342 211.474 Q696.574 211.474 699.606 214.853 Q702.662 218.21 702.662 223.997 M698.402 222.747 Q698.356 219.252 696.435 217.168 Q694.537 215.085 691.389 215.085 Q687.824 215.085 685.671 217.099 Q683.541 219.113 683.217 222.77 L698.402 222.747 Z" fill="#000000" fill-rule="nonzero" fill-opacity="1" /><path clip-path="url(#clip670)" d="M722.777 202.006 L722.777 205.548 L718.703 205.548 Q716.412 205.548 715.509 206.474 Q714.629 207.4 714.629 209.807 L714.629 212.099 L721.643 212.099 L721.643 215.409 L714.629 215.409 L714.629 238.025 L710.347 238.025 L710.347 215.409 L706.273 215.409 L706.273 212.099 L710.347 212.099 L710.347 210.293 Q710.347 205.965 712.361 203.997 Q714.374 202.006 718.749 202.006 L722.777 202.006 Z" fill="#000000" fill-rule="nonzero" fill-opacity="1" /><path clip-path="url(#clip670)" d="M736.388 215.085 Q732.962 215.085 730.972 217.77 Q728.981 220.432 728.981 225.085 Q728.981 229.738 730.948 232.423 Q732.939 235.085 736.388 235.085 Q739.791 235.085 741.782 232.4 Q743.772 229.715 743.772 225.085 Q743.772 220.478 741.782 217.793 Q739.791 215.085 736.388 215.085 M736.388 211.474 Q741.944 211.474 745.115 215.085 Q748.286 218.696 748.286 225.085 Q748.286 231.451 745.115 235.085 Q741.944 238.696 736.388 238.696 Q730.81 238.696 727.638 235.085 Q724.49 231.451 724.49 225.085 Q724.49 218.696 727.638 215.085 Q730.81 211.474 736.388 211.474 Z" fill="#000000" fill-rule="nonzero" fill-opacity="1" /><path clip-path="url(#clip670)" d="M770.37 216.08 Q769.652 215.664 768.795 215.478 Q767.962 215.27 766.944 215.27 Q763.333 215.27 761.388 217.631 Q759.467 219.969 759.467 224.367 L759.467 238.025 L755.184 238.025 L755.184 212.099 L759.467 212.099 L759.467 216.127 Q760.809 213.766 762.962 212.631 Q765.115 211.474 768.194 211.474 Q768.633 211.474 769.166 211.543 Q769.698 211.59 770.346 211.705 L770.37 216.08 Z" fill="#000000" fill-rule="nonzero" fill-opacity="1" /><path clip-path="url(#clip670)" d="M794.189 217.076 Q795.786 214.205 798.008 212.84 Q800.231 211.474 803.24 211.474 Q807.291 211.474 809.49 214.321 Q811.689 217.145 811.689 222.377 L811.689 238.025 L807.406 238.025 L807.406 222.515 Q807.406 218.789 806.087 216.983 Q804.768 215.178 802.059 215.178 Q798.749 215.178 796.828 217.377 Q794.906 219.576 794.906 223.372 L794.906 238.025 L790.624 238.025 L790.624 222.515 Q790.624 218.765 789.305 216.983 Q787.985 215.178 785.231 215.178 Q781.967 215.178 780.045 217.4 Q778.124 219.599 778.124 223.372 L778.124 238.025 L773.842 238.025 L773.842 212.099 L778.124 212.099 L778.124 216.127 Q779.582 213.742 781.62 212.608 Q783.657 211.474 786.457 211.474 Q789.282 211.474 791.249 212.909 Q793.24 214.344 794.189 217.076 Z" fill="#000000" fill-rule="nonzero" fill-opacity="1" /><path clip-path="url(#clip670)" d="M831.966 224.992 Q826.804 224.992 824.814 226.173 Q822.823 227.353 822.823 230.201 Q822.823 232.469 824.304 233.812 Q825.809 235.131 828.379 235.131 Q831.92 235.131 834.05 232.631 Q836.203 230.108 836.203 225.941 L836.203 224.992 L831.966 224.992 M840.462 223.233 L840.462 238.025 L836.203 238.025 L836.203 234.089 Q834.744 236.451 832.568 237.585 Q830.392 238.696 827.244 238.696 Q823.263 238.696 820.902 236.474 Q818.564 234.228 818.564 230.478 Q818.564 226.103 821.48 223.881 Q824.42 221.659 830.23 221.659 L836.203 221.659 L836.203 221.242 Q836.203 218.303 834.258 216.705 Q832.337 215.085 828.841 215.085 Q826.619 215.085 824.513 215.617 Q822.406 216.15 820.462 217.215 L820.462 213.279 Q822.8 212.377 824.999 211.937 Q827.198 211.474 829.281 211.474 Q834.906 211.474 837.684 214.391 Q840.462 217.307 840.462 223.233 Z" fill="#000000" fill-rule="nonzero" fill-opacity="1" /><path clip-path="url(#clip670)" d="M853.448 204.738 L853.448 212.099 L862.221 212.099 L862.221 215.409 L853.448 215.409 L853.448 229.483 Q853.448 232.654 854.304 233.557 Q855.184 234.46 857.846 234.46 L862.221 234.46 L862.221 238.025 L857.846 238.025 Q852.915 238.025 851.04 236.196 Q849.165 234.344 849.165 229.483 L849.165 215.409 L846.04 215.409 L846.04 212.099 L849.165 212.099 L849.165 204.738 L853.448 204.738 Z" fill="#000000" fill-rule="nonzero" fill-opacity="1" /><path clip-path="url(#clip670)" d="M867.823 212.099 L872.082 212.099 L872.082 238.025 L867.823 238.025 L867.823 212.099 M867.823 202.006 L872.082 202.006 L872.082 207.4 L867.823 207.4 L867.823 202.006 Z" fill="#000000" fill-rule="nonzero" fill-opacity="1" /><path clip-path="url(#clip670)" d="M891.04 215.085 Q887.614 215.085 885.624 217.77 Q883.633 220.432 883.633 225.085 Q883.633 229.738 885.6 232.423 Q887.591 235.085 891.04 235.085 Q894.443 235.085 896.434 232.4 Q898.424 229.715 898.424 225.085 Q898.424 220.478 896.434 217.793 Q894.443 215.085 891.04 215.085 M891.04 211.474 Q896.596 211.474 899.767 215.085 Q902.938 218.696 902.938 225.085 Q902.938 231.451 899.767 235.085 Q896.596 238.696 891.04 238.696 Q885.462 238.696 882.29 235.085 Q879.142 231.451 879.142 225.085 Q879.142 218.696 882.29 215.085 Q885.462 211.474 891.04 211.474 Z" fill="#000000" fill-rule="nonzero" fill-opacity="1" /><path clip-path="url(#clip670)" d="M931.549 222.377 L931.549 238.025 L927.29 238.025 L927.29 222.515 Q927.29 218.835 925.855 217.006 Q924.42 215.178 921.549 215.178 Q918.1 215.178 916.11 217.377 Q914.119 219.576 914.119 223.372 L914.119 238.025 L909.836 238.025 L909.836 212.099 L914.119 212.099 L914.119 216.127 Q915.647 213.789 917.707 212.631 Q919.79 211.474 922.498 211.474 Q926.966 211.474 929.258 214.252 Q931.549 217.006 931.549 222.377 Z" fill="#000000" fill-rule="nonzero" fill-opacity="1" /><polyline clip-path="url(#clip670)" style="stroke:#e26f46; stroke-linecap:round; stroke-linejoin:round; stroke-width:4; stroke-opacity:1; fill:none" points="290.348,272.585 434.237,272.585 "/>
<path clip-path="url(#clip670)" d="M458.218 263.939 L462.732 263.939 L470.834 285.698 L478.936 263.939 L483.45 263.939 L473.728 289.865 L467.941 289.865 L458.218 263.939 Z" fill="#000000" fill-rule="nonzero" fill-opacity="1" /><path clip-path="url(#clip670)" d="M511.505 275.837 L511.505 277.92 L491.922 277.92 Q492.2 282.318 494.561 284.633 Q496.945 286.925 501.181 286.925 Q503.635 286.925 505.927 286.323 Q508.241 285.721 510.51 284.517 L510.51 288.545 Q508.218 289.517 505.811 290.027 Q503.403 290.536 500.927 290.536 Q494.723 290.536 491.089 286.925 Q487.478 283.314 487.478 277.156 Q487.478 270.791 490.903 267.064 Q494.353 263.314 500.186 263.314 Q505.417 263.314 508.45 266.693 Q511.505 270.05 511.505 275.837 M507.246 274.587 Q507.2 271.092 505.278 269.008 Q503.38 266.925 500.232 266.925 Q496.667 266.925 494.515 268.939 Q492.385 270.953 492.061 274.61 L507.246 274.587 Z" fill="#000000" fill-rule="nonzero" fill-opacity="1" /><path clip-path="url(#clip670)" d="M518.496 253.846 L522.755 253.846 L522.755 289.865 L518.496 289.865 L518.496 253.846 Z" fill="#000000" fill-rule="nonzero" fill-opacity="1" /><path clip-path="url(#clip670)" d="M541.713 266.925 Q538.287 266.925 536.297 269.61 Q534.306 272.272 534.306 276.925 Q534.306 281.578 536.274 284.263 Q538.264 286.925 541.713 286.925 Q545.116 286.925 547.107 284.24 Q549.098 281.555 549.098 276.925 Q549.098 272.318 547.107 269.633 Q545.116 266.925 541.713 266.925 M541.713 263.314 Q547.269 263.314 550.44 266.925 Q553.611 270.536 553.611 276.925 Q553.611 283.291 550.44 286.925 Q547.269 290.536 541.713 290.536 Q536.135 290.536 532.963 286.925 Q529.815 283.291 529.815 276.925 Q529.815 270.536 532.963 266.925 Q536.135 263.314 541.713 263.314 Z" fill="#000000" fill-rule="nonzero" fill-opacity="1" /><path clip-path="url(#clip670)" d="M579.329 264.934 L579.329 268.916 Q577.523 267.92 575.695 267.434 Q573.889 266.925 572.037 266.925 Q567.894 266.925 565.602 269.564 Q563.31 272.18 563.31 276.925 Q563.31 281.67 565.602 284.309 Q567.894 286.925 572.037 286.925 Q573.889 286.925 575.695 286.439 Q577.523 285.929 579.329 284.934 L579.329 288.869 Q577.547 289.703 575.625 290.119 Q573.727 290.536 571.574 290.536 Q565.718 290.536 562.269 286.855 Q558.82 283.175 558.82 276.925 Q558.82 270.582 562.292 266.948 Q565.787 263.314 571.852 263.314 Q573.82 263.314 575.695 263.731 Q577.57 264.124 579.329 264.934 Z" fill="#000000" fill-rule="nonzero" fill-opacity="1" /><path clip-path="url(#clip670)" d="M586.736 263.939 L590.996 263.939 L590.996 289.865 L586.736 289.865 L586.736 263.939 M586.736 253.846 L590.996 253.846 L590.996 259.24 L586.736 259.24 L586.736 253.846 Z" fill="#000000" fill-rule="nonzero" fill-opacity="1" /><path clip-path="url(#clip670)" d="M604.12 256.578 L604.12 263.939 L612.894 263.939 L612.894 267.249 L604.12 267.249 L604.12 281.323 Q604.12 284.494 604.977 285.397 Q605.857 286.3 608.519 286.3 L612.894 286.3 L612.894 289.865 L608.519 289.865 Q603.588 289.865 601.713 288.036 Q599.838 286.184 599.838 281.323 L599.838 267.249 L596.713 267.249 L596.713 263.939 L599.838 263.939 L599.838 256.578 L604.12 256.578 Z" fill="#000000" fill-rule="nonzero" fill-opacity="1" /><path clip-path="url(#clip670)" d="M629.282 292.272 Q627.477 296.902 625.764 298.314 Q624.051 299.726 621.181 299.726 L617.778 299.726 L617.778 296.161 L620.278 296.161 Q622.037 296.161 623.009 295.328 Q623.981 294.494 625.162 291.392 L625.926 289.448 L615.44 263.939 L619.954 263.939 L628.056 284.217 L636.157 263.939 L640.671 263.939 L629.282 292.272 Z" fill="#000000" fill-rule="nonzero" fill-opacity="1" /></svg>
