<?xml version="1.0" encoding="utf-8"?>
<svg xmlns="http://www.w3.org/2000/svg" xmlns:xlink="http://www.w3.org/1999/xlink" width="600" height="400" viewBox="0 0 2400 1600">
<defs>
  <clipPath id="clip140">
    <rect x="0" y="0" width="2400" height="1600"/>
  </clipPath>
</defs>
<path clip-path="url(#clip140)" d="M0 1600 L2400 1600 L2400 0 L0 0  Z" fill="#ffffff" fill-rule="evenodd" fill-opacity="1"/>
<defs>
  <clipPath id="clip141">
    <rect x="186" y="123" width="2167" height="1364"/>
  </clipPath>
</defs>
<path clip-path="url(#clip140)" d="M186.274 1486.45 L2352.76 1486.45 L2352.76 123.472 L186.274 123.472  Z" fill="#ffffff" fill-rule="evenodd" fill-opacity="1"/>
<polyline clip-path="url(#clip141)" style="stroke:#000000; stroke-linecap:round; stroke-linejoin:round; stroke-width:2; stroke-opacity:0.1; fill:none" points="293.738,1486.45 293.738,123.472 "/>
<polyline clip-path="url(#clip141)" style="stroke:#000000; stroke-linecap:round; stroke-linejoin:round; stroke-width:2; stroke-opacity:0.1; fill:none" points="619.664,1486.45 619.664,123.472 "/>
<polyline clip-path="url(#clip141)" style="stroke:#000000; stroke-linecap:round; stroke-linejoin:round; stroke-width:2; stroke-opacity:0.1; fill:none" points="945.589,1486.45 945.589,123.472 "/>
<polyline clip-path="url(#clip141)" style="stroke:#000000; stroke-linecap:round; stroke-linejoin:round; stroke-width:2; stroke-opacity:0.1; fill:none" points="1271.51,1486.45 1271.51,123.472 "/>
<polyline clip-path="url(#clip141)" style="stroke:#000000; stroke-linecap:round; stroke-linejoin:round; stroke-width:2; stroke-opacity:0.1; fill:none" points="1597.44,1486.45 1597.44,123.472 "/>
<polyline clip-path="url(#clip141)" style="stroke:#000000; stroke-linecap:round; stroke-linejoin:round; stroke-width:2; stroke-opacity:0.1; fill:none" points="1923.37,1486.45 1923.37,123.472 "/>
<polyline clip-path="url(#clip141)" style="stroke:#000000; stroke-linecap:round; stroke-linejoin:round; stroke-width:2; stroke-opacity:0.1; fill:none" points="2249.29,1486.45 2249.29,123.472 "/>
<polyline clip-path="url(#clip141)" style="stroke:#000000; stroke-linecap:round; stroke-linejoin:round; stroke-width:2; stroke-opacity:0.1; fill:none" points="186.274,1227.59 2352.76,1227.59 "/>
<polyline clip-path="url(#clip141)" style="stroke:#000000; stroke-linecap:round; stroke-linejoin:round; stroke-width:2; stroke-opacity:0.1; fill:none" points="186.274,906.13 2352.76,906.13 "/>
<polyline clip-path="url(#clip141)" style="stroke:#000000; stroke-linecap:round; stroke-linejoin:round; stroke-width:2; stroke-opacity:0.1; fill:none" points="186.274,584.674 2352.76,584.674 "/>
<polyline clip-path="url(#clip141)" style="stroke:#000000; stroke-linecap:round; stroke-linejoin:round; stroke-width:2; stroke-opacity:0.1; fill:none" points="186.274,263.217 2352.76,263.217 "/>
<polyline clip-path="url(#clip140)" style="stroke:#000000; stroke-linecap:round; stroke-linejoin:round; stroke-width:4; stroke-opacity:1; fill:none" points="186.274,1486.45 2352.76,1486.45 "/>
<polyline clip-path="url(#clip140)" style="stroke:#000000; stroke-linecap:round; stroke-linejoin:round; stroke-width:4; stroke-opacity:1; fill:none" points="293.738,1486.45 293.738,1467.55 "/>
<polyline clip-path="url(#clip140)" style="stroke:#000000; stroke-linecap:round; stroke-linejoin:round; stroke-width:4; stroke-opacity:1; fill:none" points="619.664,1486.45 619.664,1467.55 "/>
<polyline clip-path="url(#clip140)" style="stroke:#000000; stroke-linecap:round; stroke-linejoin:round; stroke-width:4; stroke-opacity:1; fill:none" points="945.589,1486.45 945.589,1467.55 "/>
<polyline clip-path="url(#clip140)" style="stroke:#000000; stroke-linecap:round; stroke-linejoin:round; stroke-width:4; stroke-opacity:1; fill:none" points="1271.51,1486.45 1271.51,1467.55 "/>
<polyline clip-path="url(#clip140)" style="stroke:#000000; stroke-linecap:round; stroke-linejoin:round; stroke-width:4; stroke-opacity:1; fill:none" points="1597.44,1486.45 1597.44,1467.55 "/>
<polyline clip-path="url(#clip140)" style="stroke:#000000; stroke-linecap:round; stroke-linejoin:round; stroke-width:4; stroke-opacity:1; fill:none" points="1923.37,1486.45 1923.37,1467.55 "/>
<polyline clip-path="url(#clip140)" style="stroke:#000000; stroke-linecap:round; stroke-linejoin:round; stroke-width:4; stroke-opacity:1; fill:none" points="2249.29,1486.45 2249.29,1467.55 "/>
<path clip-path="url(#clip140)" d="M263.206 1532.02 L292.882 1532.02 L292.882 1535.95 L263.206 1535.95 L263.206 1532.02 Z" fill="#000000" fill-rule="nonzero" fill-opacity="1" /><path clip-path="url(#clip140)" d="M317.141 1530.21 Q320.497 1530.93 322.372 1533.2 Q324.27 1535.47 324.27 1538.8 Q324.27 1543.92 320.752 1546.72 Q317.233 1549.52 310.752 1549.52 Q308.576 1549.52 306.261 1549.08 Q303.97 1548.66 301.516 1547.81 L301.516 1543.29 Q303.46 1544.43 305.775 1545.01 Q308.09 1545.58 310.613 1545.58 Q315.011 1545.58 317.303 1543.85 Q319.618 1542.11 319.618 1538.8 Q319.618 1535.75 317.465 1534.03 Q315.335 1532.3 311.516 1532.3 L307.488 1532.3 L307.488 1528.45 L311.701 1528.45 Q315.15 1528.45 316.979 1527.09 Q318.807 1525.7 318.807 1523.11 Q318.807 1520.45 316.909 1519.03 Q315.034 1517.6 311.516 1517.6 Q309.595 1517.6 307.396 1518.01 Q305.196 1518.43 302.558 1519.31 L302.558 1515.14 Q305.22 1514.4 307.534 1514.03 Q309.872 1513.66 311.933 1513.66 Q317.257 1513.66 320.358 1516.09 Q323.46 1518.5 323.46 1522.62 Q323.46 1525.49 321.817 1527.48 Q320.173 1529.45 317.141 1530.21 Z" fill="#000000" fill-rule="nonzero" fill-opacity="1" /><path clip-path="url(#clip140)" d="M589.606 1532.02 L619.282 1532.02 L619.282 1535.95 L589.606 1535.95 L589.606 1532.02 Z" fill="#000000" fill-rule="nonzero" fill-opacity="1" /><path clip-path="url(#clip140)" d="M633.402 1544.91 L649.721 1544.91 L649.721 1548.85 L627.777 1548.85 L627.777 1544.91 Q630.439 1542.16 635.022 1537.53 Q639.629 1532.88 640.809 1531.53 Q643.055 1529.01 643.934 1527.27 Q644.837 1525.51 644.837 1523.82 Q644.837 1521.07 642.893 1519.33 Q640.971 1517.6 637.87 1517.6 Q635.671 1517.6 633.217 1518.36 Q630.786 1519.13 628.009 1520.68 L628.009 1515.95 Q630.833 1514.82 633.286 1514.24 Q635.74 1513.66 637.777 1513.66 Q643.147 1513.66 646.342 1516.35 Q649.536 1519.03 649.536 1523.52 Q649.536 1525.65 648.726 1527.57 Q647.939 1529.47 645.833 1532.07 Q645.254 1532.74 642.152 1535.95 Q639.05 1539.15 633.402 1544.91 Z" fill="#000000" fill-rule="nonzero" fill-opacity="1" /><path clip-path="url(#clip140)" d="M915.346 1532.02 L945.022 1532.02 L945.022 1535.95 L915.346 1535.95 L915.346 1532.02 Z" fill="#000000" fill-rule="nonzero" fill-opacity="1" /><path clip-path="url(#clip140)" d="M955.925 1544.91 L963.564 1544.91 L963.564 1518.55 L955.254 1520.21 L955.254 1515.95 L963.517 1514.29 L968.193 1514.29 L968.193 1544.91 L975.832 1544.91 L975.832 1548.85 L955.925 1548.85 L955.925 1544.91 Z" fill="#000000" fill-rule="nonzero" fill-opacity="1" /><path clip-path="url(#clip140)" d="M1271.51 1517.37 Q1267.9 1517.37 1266.08 1520.93 Q1264.27 1524.47 1264.27 1531.6 Q1264.27 1538.71 1266.08 1542.27 Q1267.9 1545.82 1271.51 1545.82 Q1275.15 1545.82 1276.95 1542.27 Q1278.78 1538.71 1278.78 1531.6 Q1278.78 1524.47 1276.95 1520.93 Q1275.15 1517.37 1271.51 1517.37 M1271.51 1513.66 Q1277.32 1513.66 1280.38 1518.27 Q1283.46 1522.85 1283.46 1531.6 Q1283.46 1540.33 1280.38 1544.94 Q1277.32 1549.52 1271.51 1549.52 Q1265.7 1549.52 1262.63 1544.94 Q1259.57 1540.33 1259.57 1531.6 Q1259.57 1522.85 1262.63 1518.27 Q1265.7 1513.66 1271.51 1513.66 Z" fill="#000000" fill-rule="nonzero" fill-opacity="1" /><path clip-path="url(#clip140)" d="M1587.82 1544.91 L1595.46 1544.91 L1595.46 1518.55 L1587.15 1520.21 L1587.15 1515.95 L1595.41 1514.29 L1600.09 1514.29 L1600.09 1544.91 L1607.73 1544.91 L1607.73 1548.85 L1587.82 1548.85 L1587.82 1544.91 Z" fill="#000000" fill-rule="nonzero" fill-opacity="1" /><path clip-path="url(#clip140)" d="M1918.02 1544.91 L1934.34 1544.91 L1934.34 1548.85 L1912.39 1548.85 L1912.39 1544.91 Q1915.06 1542.16 1919.64 1537.53 Q1924.25 1532.88 1925.43 1531.53 Q1927.67 1529.01 1928.55 1527.27 Q1929.45 1525.51 1929.45 1523.82 Q1929.45 1521.07 1927.51 1519.33 Q1925.59 1517.6 1922.49 1517.6 Q1920.29 1517.6 1917.83 1518.36 Q1915.4 1519.13 1912.63 1520.68 L1912.63 1515.95 Q1915.45 1514.82 1917.9 1514.24 Q1920.36 1513.66 1922.39 1513.66 Q1927.76 1513.66 1930.96 1516.35 Q1934.15 1519.03 1934.15 1523.52 Q1934.15 1525.65 1933.34 1527.57 Q1932.56 1529.47 1930.45 1532.07 Q1929.87 1532.74 1926.77 1535.95 Q1923.67 1539.15 1918.02 1544.91 Z" fill="#000000" fill-rule="nonzero" fill-opacity="1" /><path clip-path="url(#clip140)" d="M2253.54 1530.21 Q2256.9 1530.93 2258.77 1533.2 Q2260.67 1535.47 2260.67 1538.8 Q2260.67 1543.92 2257.15 1546.72 Q2253.63 1549.52 2247.15 1549.52 Q2244.97 1549.52 2242.66 1549.08 Q2240.37 1548.66 2237.91 1547.81 L2237.91 1543.29 Q2239.86 1544.43 2242.17 1545.01 Q2244.49 1545.58 2247.01 1545.58 Q2251.41 1545.58 2253.7 1543.85 Q2256.02 1542.11 2256.02 1538.8 Q2256.02 1535.75 2253.86 1534.03 Q2251.73 1532.3 2247.91 1532.3 L2243.89 1532.3 L2243.89 1528.45 L2248.1 1528.45 Q2251.55 1528.45 2253.38 1527.09 Q2255.21 1525.7 2255.21 1523.11 Q2255.21 1520.45 2253.31 1519.03 Q2251.43 1517.6 2247.91 1517.6 Q2245.99 1517.6 2243.79 1518.01 Q2241.59 1518.43 2238.96 1519.31 L2238.96 1515.14 Q2241.62 1514.4 2243.93 1514.03 Q2246.27 1513.66 2248.33 1513.66 Q2253.65 1513.66 2256.76 1516.09 Q2259.86 1518.5 2259.86 1522.62 Q2259.86 1525.49 2258.21 1527.48 Q2256.57 1529.45 2253.54 1530.21 Z" fill="#000000" fill-rule="nonzero" fill-opacity="1" /><polyline clip-path="url(#clip140)" style="stroke:#000000; stroke-linecap:round; stroke-linejoin:round; stroke-width:4; stroke-opacity:1; fill:none" points="186.274,1486.45 186.274,123.472 "/>
<polyline clip-path="url(#clip140)" style="stroke:#000000; stroke-linecap:round; stroke-linejoin:round; stroke-width:4; stroke-opacity:1; fill:none" points="186.274,1227.59 205.172,1227.59 "/>
<polyline clip-path="url(#clip140)" style="stroke:#000000; stroke-linecap:round; stroke-linejoin:round; stroke-width:4; stroke-opacity:1; fill:none" points="186.274,906.13 205.172,906.13 "/>
<polyline clip-path="url(#clip140)" style="stroke:#000000; stroke-linecap:round; stroke-linejoin:round; stroke-width:4; stroke-opacity:1; fill:none" points="186.274,584.674 205.172,584.674 "/>
<polyline clip-path="url(#clip140)" style="stroke:#000000; stroke-linecap:round; stroke-linejoin:round; stroke-width:4; stroke-opacity:1; fill:none" points="186.274,263.217 205.172,263.217 "/>
<path clip-path="url(#clip140)" d="M62.9365 1213.39 Q59.3254 1213.39 57.4967 1216.95 Q55.6912 1220.49 55.6912 1227.62 Q55.6912 1234.73 57.4967 1238.29 Q59.3254 1241.83 62.9365 1241.83 Q66.5707 1241.83 68.3763 1238.29 Q70.205 1234.73 70.205 1227.62 Q70.205 1220.49 68.3763 1216.95 Q66.5707 1213.39 62.9365 1213.39 M62.9365 1209.68 Q68.7467 1209.68 71.8022 1214.29 Q74.8809 1218.87 74.8809 1227.62 Q74.8809 1236.35 71.8022 1240.95 Q68.7467 1245.54 62.9365 1245.54 Q57.1264 1245.54 54.0477 1240.95 Q50.9921 1236.35 50.9921 1227.62 Q50.9921 1218.87 54.0477 1214.29 Q57.1264 1209.68 62.9365 1209.68 Z" fill="#000000" fill-rule="nonzero" fill-opacity="1" /><path clip-path="url(#clip140)" d="M83.0984 1238.99 L87.9827 1238.99 L87.9827 1244.87 L83.0984 1244.87 L83.0984 1238.99 Z" fill="#000000" fill-rule="nonzero" fill-opacity="1" /><path clip-path="url(#clip140)" d="M108.168 1213.39 Q104.557 1213.39 102.728 1216.95 Q100.922 1220.49 100.922 1227.62 Q100.922 1234.73 102.728 1238.29 Q104.557 1241.83 108.168 1241.83 Q111.802 1241.83 113.608 1238.29 Q115.436 1234.73 115.436 1227.62 Q115.436 1220.49 113.608 1216.95 Q111.802 1213.39 108.168 1213.39 M108.168 1209.68 Q113.978 1209.68 117.033 1214.29 Q120.112 1218.87 120.112 1227.62 Q120.112 1236.35 117.033 1240.95 Q113.978 1245.54 108.168 1245.54 Q102.358 1245.54 99.2789 1240.95 Q96.2234 1236.35 96.2234 1227.62 Q96.2234 1218.87 99.2789 1214.29 Q102.358 1209.68 108.168 1209.68 Z" fill="#000000" fill-rule="nonzero" fill-opacity="1" /><path clip-path="url(#clip140)" d="M138.33 1213.39 Q134.719 1213.39 132.89 1216.95 Q131.084 1220.49 131.084 1227.62 Q131.084 1234.73 132.89 1238.29 Q134.719 1241.83 138.33 1241.83 Q141.964 1241.83 143.769 1238.29 Q145.598 1234.73 145.598 1227.62 Q145.598 1220.49 143.769 1216.95 Q141.964 1213.39 138.33 1213.39 M138.33 1209.68 Q144.14 1209.68 147.195 1214.29 Q150.274 1218.87 150.274 1227.62 Q150.274 1236.35 147.195 1240.95 Q144.14 1245.54 138.33 1245.54 Q132.519 1245.54 129.441 1240.95 Q126.385 1236.35 126.385 1227.62 Q126.385 1218.87 129.441 1214.29 Q132.519 1209.68 138.33 1209.68 Z" fill="#000000" fill-rule="nonzero" fill-opacity="1" /><path clip-path="url(#clip140)" d="M63.9319 891.929 Q60.3208 891.929 58.4921 895.494 Q56.6865 899.036 56.6865 906.165 Q56.6865 913.272 58.4921 916.836 Q60.3208 920.378 63.9319 920.378 Q67.5661 920.378 69.3717 916.836 Q71.2004 913.272 71.2004 906.165 Q71.2004 899.036 69.3717 895.494 Q67.5661 891.929 63.9319 891.929 M63.9319 888.225 Q69.742 888.225 72.7976 892.832 Q75.8763 897.415 75.8763 906.165 Q75.8763 914.892 72.7976 919.498 Q69.742 924.082 63.9319 924.082 Q58.1217 924.082 55.043 919.498 Q51.9875 914.892 51.9875 906.165 Q51.9875 897.415 55.043 892.832 Q58.1217 888.225 63.9319 888.225 Z" fill="#000000" fill-rule="nonzero" fill-opacity="1" /><path clip-path="url(#clip140)" d="M84.0938 917.531 L88.978 917.531 L88.978 923.41 L84.0938 923.41 L84.0938 917.531 Z" fill="#000000" fill-rule="nonzero" fill-opacity="1" /><path clip-path="url(#clip140)" d="M103.191 919.475 L119.51 919.475 L119.51 923.41 L97.566 923.41 L97.566 919.475 Q100.228 916.721 104.811 912.091 Q109.418 907.438 110.598 906.096 Q112.844 903.573 113.723 901.836 Q114.626 900.077 114.626 898.387 Q114.626 895.633 112.682 893.897 Q110.76 892.161 107.658 892.161 Q105.459 892.161 103.006 892.925 Q100.575 893.688 97.7974 895.239 L97.7974 890.517 Q100.621 889.383 103.075 888.804 Q105.529 888.225 107.566 888.225 Q112.936 888.225 116.131 890.911 Q119.325 893.596 119.325 898.087 Q119.325 900.216 118.515 902.137 Q117.728 904.036 115.621 906.628 Q115.043 907.299 111.941 910.517 Q108.839 913.711 103.191 919.475 Z" fill="#000000" fill-rule="nonzero" fill-opacity="1" /><path clip-path="url(#clip140)" d="M129.371 888.85 L147.728 888.85 L147.728 892.786 L133.654 892.786 L133.654 901.258 Q134.672 900.911 135.691 900.749 Q136.709 900.563 137.728 900.563 Q143.515 900.563 146.894 903.735 Q150.274 906.906 150.274 912.323 Q150.274 917.901 146.802 921.003 Q143.33 924.082 137.01 924.082 Q134.834 924.082 132.566 923.711 Q130.32 923.341 127.913 922.6 L127.913 917.901 Q129.996 919.035 132.219 919.591 Q134.441 920.147 136.918 920.147 Q140.922 920.147 143.26 918.04 Q145.598 915.934 145.598 912.323 Q145.598 908.711 143.26 906.605 Q140.922 904.499 136.918 904.499 Q135.043 904.499 133.168 904.915 Q131.316 905.332 129.371 906.211 L129.371 888.85 Z" fill="#000000" fill-rule="nonzero" fill-opacity="1" /><path clip-path="url(#clip140)" d="M62.9365 570.473 Q59.3254 570.473 57.4967 574.037 Q55.6912 577.579 55.6912 584.709 Q55.6912 591.815 57.4967 595.38 Q59.3254 598.922 62.9365 598.922 Q66.5707 598.922 68.3763 595.38 Q70.205 591.815 70.205 584.709 Q70.205 577.579 68.3763 574.037 Q66.5707 570.473 62.9365 570.473 M62.9365 566.769 Q68.7467 566.769 71.8022 571.375 Q74.8809 575.959 74.8809 584.709 Q74.8809 593.435 71.8022 598.042 Q68.7467 602.625 62.9365 602.625 Q57.1264 602.625 54.0477 598.042 Q50.9921 593.435 50.9921 584.709 Q50.9921 575.959 54.0477 571.375 Q57.1264 566.769 62.9365 566.769 Z" fill="#000000" fill-rule="nonzero" fill-opacity="1" /><path clip-path="url(#clip140)" d="M83.0984 596.074 L87.9827 596.074 L87.9827 601.954 L83.0984 601.954 L83.0984 596.074 Z" fill="#000000" fill-rule="nonzero" fill-opacity="1" /><path clip-path="url(#clip140)" d="M98.2141 567.394 L116.57 567.394 L116.57 571.329 L102.496 571.329 L102.496 579.801 Q103.515 579.454 104.534 579.292 Q105.552 579.107 106.571 579.107 Q112.358 579.107 115.737 582.278 Q119.117 585.449 119.117 590.866 Q119.117 596.445 115.645 599.547 Q112.172 602.625 105.853 602.625 Q103.677 602.625 101.409 602.255 Q99.1632 601.884 96.7558 601.144 L96.7558 596.445 Q98.8391 597.579 101.061 598.134 Q103.284 598.69 105.76 598.69 Q109.765 598.69 112.103 596.584 Q114.441 594.477 114.441 590.866 Q114.441 587.255 112.103 585.148 Q109.765 583.042 105.76 583.042 Q103.885 583.042 102.01 583.459 Q100.159 583.875 98.2141 584.755 L98.2141 567.394 Z" fill="#000000" fill-rule="nonzero" fill-opacity="1" /><path clip-path="url(#clip140)" d="M138.33 570.473 Q134.719 570.473 132.89 574.037 Q131.084 577.579 131.084 584.709 Q131.084 591.815 132.89 595.38 Q134.719 598.922 138.33 598.922 Q141.964 598.922 143.769 595.38 Q145.598 591.815 145.598 584.709 Q145.598 577.579 143.769 574.037 Q141.964 570.473 138.33 570.473 M138.33 566.769 Q144.14 566.769 147.195 571.375 Q150.274 575.959 150.274 584.709 Q150.274 593.435 147.195 598.042 Q144.14 602.625 138.33 602.625 Q132.519 602.625 129.441 598.042 Q126.385 593.435 126.385 584.709 Q126.385 575.959 129.441 571.375 Q132.519 566.769 138.33 566.769 Z" fill="#000000" fill-rule="nonzero" fill-opacity="1" /><path clip-path="url(#clip140)" d="M63.9319 249.016 Q60.3208 249.016 58.4921 252.581 Q56.6865 256.122 56.6865 263.252 Q56.6865 270.359 58.4921 273.923 Q60.3208 277.465 63.9319 277.465 Q67.5661 277.465 69.3717 273.923 Q71.2004 270.359 71.2004 263.252 Q71.2004 256.122 69.3717 252.581 Q67.5661 249.016 63.9319 249.016 M63.9319 245.312 Q69.742 245.312 72.7976 249.919 Q75.8763 254.502 75.8763 263.252 Q75.8763 271.979 72.7976 276.585 Q69.742 281.169 63.9319 281.169 Q58.1217 281.169 55.043 276.585 Q51.9875 271.979 51.9875 263.252 Q51.9875 254.502 55.043 249.919 Q58.1217 245.312 63.9319 245.312 Z" fill="#000000" fill-rule="nonzero" fill-opacity="1" /><path clip-path="url(#clip140)" d="M84.0938 274.618 L88.978 274.618 L88.978 280.497 L84.0938 280.497 L84.0938 274.618 Z" fill="#000000" fill-rule="nonzero" fill-opacity="1" /><path clip-path="url(#clip140)" d="M97.9826 245.937 L120.205 245.937 L120.205 247.928 L107.658 280.497 L102.774 280.497 L114.58 249.873 L97.9826 249.873 L97.9826 245.937 Z" fill="#000000" fill-rule="nonzero" fill-opacity="1" /><path clip-path="url(#clip140)" d="M129.371 245.937 L147.728 245.937 L147.728 249.873 L133.654 249.873 L133.654 258.345 Q134.672 257.997 135.691 257.835 Q136.709 257.65 137.728 257.65 Q143.515 257.65 146.894 260.822 Q150.274 263.993 150.274 269.409 Q150.274 274.988 146.802 278.09 Q143.33 281.169 137.01 281.169 Q134.834 281.169 132.566 280.798 Q130.32 280.428 127.913 279.687 L127.913 274.988 Q129.996 276.122 132.219 276.678 Q134.441 277.233 136.918 277.233 Q140.922 277.233 143.26 275.127 Q145.598 273.021 145.598 269.409 Q145.598 265.798 143.26 263.692 Q140.922 261.585 136.918 261.585 Q135.043 261.585 133.168 262.002 Q131.316 262.419 129.371 263.298 L129.371 245.937 Z" fill="#000000" fill-rule="nonzero" fill-opacity="1" /><path clip-path="url(#clip140)" d="M1055.95 12.096 L1064.13 12.096 L1064.13 72.576 L1055.95 72.576 L1055.95 12.096 Z" fill="#000000" fill-rule="nonzero" fill-opacity="1" /><path clip-path="url(#clip140)" d="M1117.81 45.1919 L1117.81 72.576 L1110.35 72.576 L1110.35 45.4349 Q1110.35 38.994 1107.84 35.7938 Q1105.33 32.5936 1100.31 32.5936 Q1094.27 32.5936 1090.79 36.4419 Q1087.31 40.2903 1087.31 46.9338 L1087.31 72.576 L1079.81 72.576 L1079.81 27.2059 L1087.31 27.2059 L1087.31 34.2544 Q1089.98 30.163 1093.58 28.1376 Q1097.23 26.1121 1101.97 26.1121 Q1109.79 26.1121 1113.8 30.9732 Q1117.81 35.7938 1117.81 45.1919 Z" fill="#000000" fill-rule="nonzero" fill-opacity="1" /><path clip-path="url(#clip140)" d="M1132.68 27.2059 L1140.13 27.2059 L1140.13 72.576 L1132.68 72.576 L1132.68 27.2059 M1132.68 9.54393 L1140.13 9.54393 L1140.13 18.9825 L1132.68 18.9825 L1132.68 9.54393 Z" fill="#000000" fill-rule="nonzero" fill-opacity="1" /><path clip-path="url(#clip140)" d="M1163.1 14.324 L1163.1 27.2059 L1178.45 27.2059 L1178.45 32.9987 L1163.1 32.9987 L1163.1 57.6282 Q1163.1 63.1779 1164.6 64.7578 Q1166.14 66.3376 1170.79 66.3376 L1178.45 66.3376 L1178.45 72.576 L1170.79 72.576 Q1162.17 72.576 1158.88 69.3758 Q1155.6 66.1351 1155.6 57.6282 L1155.6 32.9987 L1150.13 32.9987 L1150.13 27.2059 L1155.6 27.2059 L1155.6 14.324 L1163.1 14.324 Z" fill="#000000" fill-rule="nonzero" fill-opacity="1" /><path clip-path="url(#clip140)" d="M1188.25 27.2059 L1195.71 27.2059 L1195.71 72.576 L1188.25 72.576 L1188.25 27.2059 M1188.25 9.54393 L1195.71 9.54393 L1195.71 18.9825 L1188.25 18.9825 L1188.25 9.54393 Z" fill="#000000" fill-rule="nonzero" fill-opacity="1" /><path clip-path="url(#clip140)" d="M1231.92 49.7694 Q1222.89 49.7694 1219.41 51.8354 Q1215.92 53.9013 1215.92 58.8839 Q1215.92 62.8538 1218.51 65.2034 Q1221.15 67.5124 1225.64 67.5124 Q1231.84 67.5124 1235.57 63.1374 Q1239.34 58.7219 1239.34 51.4303 L1239.34 49.7694 L1231.92 49.7694 M1246.79 46.6907 L1246.79 72.576 L1239.34 72.576 L1239.34 65.6895 Q1236.78 69.8214 1232.98 71.8063 Q1229.17 73.7508 1223.66 73.7508 Q1216.69 73.7508 1212.56 69.8619 Q1208.47 65.9325 1208.47 59.3701 Q1208.47 51.7138 1213.57 47.825 Q1218.72 43.9361 1228.88 43.9361 L1239.34 43.9361 L1239.34 43.2069 Q1239.34 38.0623 1235.93 35.2672 Q1232.57 32.4315 1226.45 32.4315 Q1222.56 32.4315 1218.88 33.3632 Q1215.19 34.295 1211.79 36.1584 L1211.79 29.2718 Q1215.88 27.692 1219.73 26.9223 Q1223.58 26.1121 1227.22 26.1121 Q1237.07 26.1121 1241.93 31.2163 Q1246.79 36.3204 1246.79 46.6907 Z" fill="#000000" fill-rule="nonzero" fill-opacity="1" /><path clip-path="url(#clip140)" d="M1262.14 9.54393 L1269.6 9.54393 L1269.6 72.576 L1262.14 72.576 L1262.14 9.54393 Z" fill="#000000" fill-rule="nonzero" fill-opacity="1" /><path clip-path="url(#clip140)" d="M1341.42 34.0924 L1341.42 9.54393 L1348.87 9.54393 L1348.87 72.576 L1341.42 72.576 L1341.42 65.7705 Q1339.07 69.8214 1335.46 71.8063 Q1331.9 73.7508 1326.88 73.7508 Q1318.65 73.7508 1313.47 67.1883 Q1308.32 60.6258 1308.32 49.9314 Q1308.32 39.2371 1313.47 32.6746 Q1318.65 26.1121 1326.88 26.1121 Q1331.9 26.1121 1335.46 28.0971 Q1339.07 30.0415 1341.42 34.0924 M1316.02 49.9314 Q1316.02 58.1548 1319.38 62.8538 Q1322.78 67.5124 1328.7 67.5124 Q1334.61 67.5124 1338.02 62.8538 Q1341.42 58.1548 1341.42 49.9314 Q1341.42 41.7081 1338.02 37.0496 Q1334.61 32.3505 1328.7 32.3505 Q1322.78 32.3505 1319.38 37.0496 Q1316.02 41.7081 1316.02 49.9314 Z" fill="#000000" fill-rule="nonzero" fill-opacity="1" /><path clip-path="url(#clip140)" d="M1384.84 49.7694 Q1375.81 49.7694 1372.33 51.8354 Q1368.84 53.9013 1368.84 58.8839 Q1368.84 62.8538 1371.44 65.2034 Q1374.07 67.5124 1378.57 67.5124 Q1384.76 67.5124 1388.49 63.1374 Q1392.26 58.7219 1392.26 51.4303 L1392.26 49.7694 L1384.84 49.7694 M1399.71 46.6907 L1399.71 72.576 L1392.26 72.576 L1392.26 65.6895 Q1389.71 69.8214 1385.9 71.8063 Q1382.09 73.7508 1376.58 73.7508 Q1369.61 73.7508 1365.48 69.8619 Q1361.39 65.9325 1361.39 59.3701 Q1361.39 51.7138 1366.49 47.825 Q1371.64 43.9361 1381.81 43.9361 L1392.26 43.9361 L1392.26 43.2069 Q1392.26 38.0623 1388.85 35.2672 Q1385.49 32.4315 1379.38 32.4315 Q1375.49 32.4315 1371.8 33.3632 Q1368.11 34.295 1364.71 36.1584 L1364.71 29.2718 Q1368.8 27.692 1372.65 26.9223 Q1376.5 26.1121 1380.15 26.1121 Q1389.99 26.1121 1394.85 31.2163 Q1399.71 36.3204 1399.71 46.6907 Z" fill="#000000" fill-rule="nonzero" fill-opacity="1" /><path clip-path="url(#clip140)" d="M1422.44 14.324 L1422.44 27.2059 L1437.79 27.2059 L1437.79 32.9987 L1422.44 32.9987 L1422.44 57.6282 Q1422.44 63.1779 1423.94 64.7578 Q1425.47 66.3376 1430.13 66.3376 L1437.79 66.3376 L1437.79 72.576 L1430.13 72.576 Q1421.5 72.576 1418.22 69.3758 Q1414.94 66.1351 1414.94 57.6282 L1414.94 32.9987 L1409.47 32.9987 L1409.47 27.2059 L1414.94 27.2059 L1414.94 14.324 L1422.44 14.324 Z" fill="#000000" fill-rule="nonzero" fill-opacity="1" /><path clip-path="url(#clip140)" d="M1468.21 49.7694 Q1459.18 49.7694 1455.69 51.8354 Q1452.21 53.9013 1452.21 58.8839 Q1452.21 62.8538 1454.8 65.2034 Q1457.44 67.5124 1461.93 67.5124 Q1468.13 67.5124 1471.86 63.1374 Q1475.62 58.7219 1475.62 51.4303 L1475.62 49.7694 L1468.21 49.7694 M1483.08 46.6907 L1483.08 72.576 L1475.62 72.576 L1475.62 65.6895 Q1473.07 69.8214 1469.27 71.8063 Q1465.46 73.7508 1459.95 73.7508 Q1452.98 73.7508 1448.85 69.8619 Q1444.76 65.9325 1444.76 59.3701 Q1444.76 51.7138 1449.86 47.825 Q1455.01 43.9361 1465.17 43.9361 L1475.62 43.9361 L1475.62 43.2069 Q1475.62 38.0623 1472.22 35.2672 Q1468.86 32.4315 1462.74 32.4315 Q1458.85 32.4315 1455.17 33.3632 Q1451.48 34.295 1448.08 36.1584 L1448.08 29.2718 Q1452.17 27.692 1456.02 26.9223 Q1459.87 26.1121 1463.51 26.1121 Q1473.36 26.1121 1478.22 31.2163 Q1483.08 36.3204 1483.08 46.6907 Z" fill="#000000" fill-rule="nonzero" fill-opacity="1" /><polyline clip-path="url(#clip141)" style="stroke:#009af9; stroke-linecap:round; stroke-linejoin:round; stroke-width:4; stroke-opacity:1; fill:none" points="247.59,538.925 251.589,540.662 255.589,542.621 259.589,544.821 263.588,547.278 267.588,550.005 271.588,553.013 275.587,556.312 279.587,559.91 283.587,563.814 287.587,568.031 291.586,572.568 295.586,577.434 299.586,582.638 303.585,588.192 307.585,594.11 311.585,600.409 315.585,607.105 319.584,614.221 323.584,621.778 327.584,629.8 331.583,638.311 335.583,647.334 339.583,656.893 343.583,667.01 347.582,677.704 351.582,688.992 355.582,700.885 359.581,713.391 363.581,726.513 367.581,740.244 371.58,754.572 375.58,769.477 379.58,784.93 383.58,800.893 387.579,817.317 391.579,834.146 395.579,851.316 399.578,868.753 403.578,886.378 407.578,904.105 411.578,921.846 415.577,939.509 419.577,957.005 423.577,974.243 427.576,991.138 431.576,1007.61 435.576,1023.59 439.576,1039 443.575,1053.8 447.575,1067.93 451.575,1081.36 455.574,1094.05 459.574,1105.97 463.574,1117.12 467.573,1127.47 471.573,1137.02 475.573,1145.75 479.573,1153.66 483.572,1160.73 487.572,1166.95 491.572,1172.31 495.571,1176.79 499.571,1180.37 503.571,1183.02 507.571,1184.71 511.57,1185.43 515.57,1185.15 519.57,1183.86 523.569,1181.53 527.569,1178.15 531.569,1173.73 535.569,1168.27 539.568,1161.8 543.568,1154.34 547.568,1145.93 551.567,1136.63 555.567,1126.52 559.567,1115.66 563.566,1104.17 567.566,1092.13 571.566,1079.68 575.566,1066.94 579.565,1054.05 583.565,1041.14 587.565,1028.38 591.564,1015.9 595.564,1003.86 599.564,992.404 603.564,981.675 607.563,971.806 611.563,962.921 615.563,955.131 619.562,948.532 623.562,943.205 627.562,939.214 631.562,936.602 635.561,935.395 639.561,935.602 643.561,937.209 647.56,940.188 651.56,944.491 655.56,950.056 659.559,956.805 663.559,964.648 667.559,973.483 671.559,983.2 675.558,993.679 679.558,1004.8 683.558,1016.43 687.557,1028.44 691.557,1040.71 695.557,1053.1 699.557,1065.49 703.556,1077.77 707.556,1089.83 711.556,1101.54 715.555,1112.83 719.555,1123.61 723.555,1133.78 727.555,1143.3 731.554,1152.11 735.554,1160.15 739.554,1167.4 743.553,1173.84 747.553,1179.45 751.553,1184.24 755.552,1188.2 759.552,1191.35 763.552,1193.72 767.552,1195.32 771.551,1196.2 775.551,1196.38 779.551,1195.89 783.55,1194.77 787.55,1193.06 791.55,1190.78 795.55,1187.98 799.549,1184.67 803.549,1180.91 807.549,1176.71 811.548,1172.12 815.548,1167.18 819.548,1161.94 823.547,1156.44 827.547,1150.74 831.547,1144.9 835.547,1139.01 839.546,1133.12 843.546,1127.33 847.546,1121.71 851.545,1116.36 855.545,1111.37 859.545,1106.81 863.545,1102.77 867.544,1099.34 871.544,1096.59 875.544,1094.58 879.543,1093.39 883.543,1093.05 887.543,1093.63 891.543,1095.14 895.542,1097.64 899.542,1101.12 903.542,1105.62 907.541,1111.13 911.541,1117.65 915.541,1125.16 919.54,1133.65 923.54,1143.09 927.54,1153.43 931.54,1164.63 935.539,1176.63 939.539,1189.36 943.539,1202.74 947.538,1216.68 951.538,1231.08 955.538,1245.85 959.538,1260.87 963.537,1276.02 967.537,1291.19 971.537,1306.25 975.536,1321.07 979.536,1335.54 983.536,1349.54 987.536,1362.95 991.535,1375.66 995.535,1387.58 999.535,1398.62 1003.53,1408.68 1007.53,1417.7 1011.53,1425.62 1015.53,1432.39 1019.53,1437.96 1023.53,1442.31 1027.53,1445.41 1031.53,1447.27 1035.53,1447.87 1039.53,1447.24 1043.53,1445.4 1047.53,1442.38 1051.53,1438.21 1055.53,1432.95 1059.53,1426.63 1063.53,1419.33 1067.53,1411.1 1071.53,1401.98 1075.53,1392.05 1079.53,1381.35 1083.53,1369.94 1087.53,1357.85 1091.53,1345.14 1095.53,1331.83 1099.53,1317.95 1103.53,1303.53 1107.53,1288.59 1111.53,1273.15 1115.53,1257.23 1119.53,1240.85 1123.53,1224.03 1127.53,1206.79 1131.53,1189.18 1135.52,1171.22 1139.52,1152.98 1143.52,1134.49 1147.52,1115.84 1151.52,1097.1 1155.52,1078.34 1159.52,1059.66 1163.52,1041.15 1167.52,1022.9 1171.52,1005.03 1175.52,987.617 1179.52,970.765 1183.52,954.561 1187.52,939.084 1191.52,924.406 1195.52,910.582 1199.52,897.66 1203.52,885.667 1207.52,874.618 1211.52,864.512 1215.52,855.331 1219.52,847.04 1223.52,839.59 1227.52,832.917 1231.52,826.943 1235.52,821.577 1239.52,816.717 1243.52,812.249 1247.52,808.052 1251.52,803.999 1255.52,799.956 1259.52,795.785 1263.52,791.348 1267.52,786.509 1271.51,781.132 1275.51,775.09 1279.51,768.261 1283.51,760.536 1287.51,751.817 1291.51,742.022 1295.51,731.086 1299.51,718.964 1303.51,705.629 1307.51,691.078 1311.51,675.326 1315.51,658.413 1319.51,640.398 1323.51,621.358 1327.51,601.392 1331.51,580.61 1335.51,559.139 1339.51,537.115 1343.51,514.681 1347.51,491.988 1351.51,469.185 1355.51,446.424 1359.51,423.854 1363.51,401.616 1367.51,379.848 1371.51,358.677 1375.51,338.22 1379.51,318.586 1383.51,299.869 1387.51,282.154 1391.51,265.515 1395.51,250.012 1399.51,235.697 1403.51,222.608 1407.5,210.778 1411.5,200.227 1415.5,190.968 1419.5,183.009 1423.5,176.347 1427.5,170.976 1431.5,166.882 1435.5,164.046 1439.5,162.445 1443.5,162.047 1447.5,162.816 1451.5,164.71 1455.5,167.679 1459.5,171.668 1463.5,176.615 1467.5,182.452 1471.5,189.102 1475.5,196.487 1479.5,204.519 1483.5,213.108 1487.5,222.161 1491.5,231.583 1495.5,241.275 1499.5,251.141 1503.5,261.084 1507.5,271.011 1511.5,280.829 1515.5,290.451 1519.5,299.793 1523.5,308.774 1527.5,317.321 1531.5,325.363 1535.5,332.837 1539.5,339.685 1543.49,345.854 1547.49,351.302 1551.49,355.992 1555.49,359.897 1559.49,363 1563.49,365.297 1567.49,366.793 1571.49,367.509 1575.49,367.479 1579.49,366.749 1583.49,365.381 1587.49,363.449 1591.49,361.04 1595.49,358.251 1599.49,355.187 1603.49,351.958 1607.49,348.68 1611.49,345.468 1615.49,342.433 1619.49,339.683 1623.49,337.318 1627.49,335.427 1631.49,334.091 1635.49,333.373 1639.49,333.326 1643.49,333.988 1647.49,335.385 1651.49,337.526 1655.49,340.411 1659.49,344.028 1663.49,348.352 1667.49,353.353 1671.49,358.99 1675.49,365.217 1679.49,371.984 1683.48,379.235 1687.48,386.91 1691.48,394.95 1695.48,403.291 1699.48,411.869 1703.48,420.622 1707.48,429.484 1711.48,438.395 1715.48,447.294 1719.48,456.121 1723.48,464.823 1727.48,473.35 1731.48,481.658 1735.48,489.707 1739.48,497.469 1743.48,504.923 1747.48,512.057 1751.48,518.871 1755.48,525.377 1759.48,531.598 1763.48,537.568 1767.48,543.332 1771.48,548.948 1775.48,554.48 1779.48,560.003 1783.48,565.595 1787.48,571.339 1791.48,577.321 1795.48,583.623 1799.48,590.326 1803.48,597.504 1807.48,605.223 1811.48,613.538 1815.48,622.494 1819.47,632.119 1823.47,642.431 1827.47,653.43 1831.47,665.103 1835.47,677.421 1839.47,690.344 1843.47,703.819 1847.47,717.782 1851.47,732.161 1855.47,746.878 1859.47,761.849 1863.47,776.989 1867.47,792.21 1871.47,807.426 1875.47,822.551 1879.47,837.504 1883.47,852.202 1887.47,866.568 1891.47,880.528 1895.47,894.007 1899.47,906.935 1903.47,919.24 1907.47,930.852 1911.47,941.701 1915.47,951.715 1919.47,960.824 1923.47,968.956 1927.47,976.042 1931.47,982.013 1935.47,986.804 1939.47,990.352 1943.47,992.603 1947.47,993.507 1951.47,993.024 1955.46,991.126 1959.46,987.791 1963.46,983.015 1967.46,976.804 1971.46,969.176 1975.46,960.166 1979.46,949.819 1983.46,938.196 1987.46,925.367 1991.46,911.415 1995.46,896.431 1999.46,880.517 2003.46,863.78 2007.46,846.334 2011.46,828.298 2015.46,809.792 2019.46,790.941 2023.46,771.866 2027.46,752.693 2031.46,733.542 2035.46,714.532 2039.46,695.78 2043.46,677.394 2047.46,659.482 2051.46,642.14 2055.46,625.462 2059.46,609.529 2063.46,594.416 2067.46,580.187 2071.46,566.897 2075.46,554.59 2079.46,543.298 2083.46,533.044 2087.46,523.838 2091.45,515.681 2095.45,508.562 2099.45,502.459 2103.45,497.342 2107.45,493.171 2111.45,489.896 2115.45,487.46 2119.45,485.802 2123.45,484.851 2127.45,484.537 2131.45,484.784 2135.45,485.517 2139.45,486.658 2143.45,488.136 2147.45,489.88 2151.45,491.824 2155.45,493.907 2159.45,496.077 2163.45,498.284 2167.45,500.49 2171.45,502.661 2175.45,504.77 2179.45,506.8 2183.45,508.734 2187.45,510.566 2191.45,512.291 2195.45,513.909 2199.45,515.422 2203.45,516.834 2207.45,518.153 2211.45,519.385 2215.45,520.536 2219.45,521.614 2223.45,522.624 2227.45,523.574 2231.44,524.469 2235.44,525.315 2239.44,526.117 2243.44,526.882 2247.44,527.617 2251.44,528.33 2255.44,529.03 2259.44,529.731 2263.44,530.444 2267.44,531.188 2271.44,531.978 2275.44,532.837 2279.44,533.784 2283.44,534.844 2287.44,536.038 2291.44,537.391 "/>
<polyline clip-path="url(#clip141)" style="stroke:#e26f46; stroke-linecap:round; stroke-linejoin:round; stroke-width:4; stroke-opacity:1; fill:none" points="247.59,1227.59 251.589,1227.59 255.589,1227.59 259.589,1227.59 263.588,1227.59 267.588,1227.59 271.588,1227.59 275.587,1227.59 279.587,1227.59 283.587,1227.59 287.587,1227.59 291.586,1227.59 295.586,1227.59 299.586,1227.59 303.585,1227.59 307.585,1227.59 311.585,1227.59 315.585,1227.59 319.584,1227.59 323.584,1227.59 327.584,1227.59 331.583,1227.59 335.583,1227.59 339.583,1227.59 343.583,1227.59 347.582,1227.59 351.582,1227.59 355.582,1227.59 359.581,1227.59 363.581,1227.59 367.581,1227.59 371.58,1227.59 375.58,1227.59 379.58,1227.59 383.58,1227.59 387.579,1227.59 391.579,1227.59 395.579,1227.59 399.578,1227.59 403.578,1227.59 407.578,1227.59 411.578,1227.59 415.577,1227.59 419.577,1227.59 423.577,1227.59 427.576,1227.59 431.576,1227.59 435.576,1227.59 439.576,1227.59 443.575,1227.59 447.575,1227.59 451.575,1227.59 455.574,1227.59 459.574,1227.59 463.574,1227.59 467.573,1227.59 471.573,1227.59 475.573,1227.59 479.573,1227.59 483.572,1227.59 487.572,1227.59 491.572,1227.59 495.571,1227.59 499.571,1227.59 503.571,1227.59 507.571,1227.59 511.57,1227.59 515.57,1227.59 519.57,1227.59 523.569,1227.59 527.569,1227.59 531.569,1227.59 535.569,1227.59 539.568,1227.59 543.568,1227.59 547.568,1227.59 551.567,1227.59 555.567,1227.59 559.567,1227.59 563.566,1227.59 567.566,1227.59 571.566,1227.59 575.566,1227.59 579.565,1227.59 583.565,1227.59 587.565,1227.59 591.564,1227.59 595.564,1227.59 599.564,1227.59 603.564,1227.59 607.563,1227.59 611.563,1227.59 615.563,1227.59 619.562,1227.59 623.562,1227.59 627.562,1227.59 631.562,1227.59 635.561,1227.59 639.561,1227.59 643.561,1227.59 647.56,1227.59 651.56,1227.59 655.56,1227.59 659.559,1227.59 663.559,1227.59 667.559,1227.59 671.559,1227.59 675.558,1227.59 679.558,1227.59 683.558,1227.59 687.557,1227.59 691.557,1227.59 695.557,1227.59 699.557,1227.59 703.556,1227.59 707.556,1227.59 711.556,1227.59 715.555,1227.59 719.555,1227.59 723.555,1227.59 727.555,1227.59 731.554,1227.59 735.554,1227.59 739.554,1227.59 743.553,1227.59 747.553,1227.59 751.553,1227.59 755.552,1227.59 759.552,1227.59 763.552,1227.59 767.552,1227.59 771.551,1227.59 775.551,1227.59 779.551,1227.59 783.55,1227.59 787.55,1227.59 791.55,1227.59 795.55,1227.59 799.549,1227.59 803.549,1227.59 807.549,1227.59 811.548,1227.59 815.548,1227.59 819.548,1227.59 823.547,1227.59 827.547,1227.59 831.547,1227.59 835.547,1227.59 839.546,1227.59 843.546,1227.59 847.546,1227.59 851.545,1227.59 855.545,1227.59 859.545,1227.59 863.545,1227.59 867.544,1227.59 871.544,1227.59 875.544,1227.59 879.543,1227.59 883.543,1227.59 887.543,1227.59 891.543,1227.59 895.542,1227.59 899.542,1227.59 903.542,1227.59 907.541,1227.59 911.541,1227.59 915.541,1227.59 919.54,1227.59 923.54,1227.59 927.54,1227.59 931.54,1227.59 935.539,1227.59 939.539,1227.59 943.539,1227.59 947.538,1227.59 951.538,1227.59 955.538,1227.59 959.538,1227.59 963.537,1227.59 967.537,1227.59 971.537,1227.59 975.536,1227.59 979.536,1227.59 983.536,1227.59 987.536,1227.59 991.535,1227.59 995.535,1227.59 999.535,1227.59 1003.53,1227.59 1007.53,1227.59 1011.53,1227.59 1015.53,1227.59 1019.53,1227.59 1023.53,1227.59 1027.53,1227.59 1031.53,1227.59 1035.53,1227.59 1039.53,1227.59 1043.53,1227.59 1047.53,1227.59 1051.53,1227.59 1055.53,1227.59 1059.53,1227.59 1063.53,1227.59 1067.53,1227.59 1071.53,1227.59 1075.53,1227.59 1079.53,1227.59 1083.53,1227.59 1087.53,1227.59 1091.53,1227.59 1095.53,1227.59 1099.53,1227.59 1103.53,1227.59 1107.53,1227.59 1111.53,1227.59 1115.53,1227.59 1119.53,1227.59 1123.53,1227.59 1127.53,1227.59 1131.53,1227.59 1135.52,1227.59 1139.52,1227.59 1143.52,1227.59 1147.52,1227.59 1151.52,1227.59 1155.52,1227.59 1159.52,1227.59 1163.52,1227.59 1167.52,1227.59 1171.52,1227.59 1175.52,1227.59 1179.52,1227.59 1183.52,1227.59 1187.52,1227.59 1191.52,1227.59 1195.52,1227.59 1199.52,1227.59 1203.52,1227.59 1207.52,1227.59 1211.52,1227.59 1215.52,1227.59 1219.52,1227.59 1223.52,1227.59 1227.52,1227.59 1231.52,1227.59 1235.52,1227.59 1239.52,1227.59 1243.52,1227.59 1247.52,1227.59 1251.52,1227.59 1255.52,1227.59 1259.52,1227.59 1263.52,1227.59 1267.52,1227.59 1271.51,1227.59 1275.51,1227.59 1279.51,1227.59 1283.51,1227.59 1287.51,1227.59 1291.51,1227.59 1295.51,1227.59 1299.51,1227.59 1303.51,1227.59 1307.51,1227.59 1311.51,1227.59 1315.51,1227.59 1319.51,1227.59 1323.51,1227.59 1327.51,1227.59 1331.51,1227.59 1335.51,1227.59 1339.51,1227.59 1343.51,1227.59 1347.51,1227.59 1351.51,1227.59 1355.51,1227.59 1359.51,1227.59 1363.51,1227.59 1367.51,1227.59 1371.51,1227.59 1375.51,1227.59 1379.51,1227.59 1383.51,1227.59 1387.51,1227.59 1391.51,1227.59 1395.51,1227.59 1399.51,1227.59 1403.51,1227.59 1407.5,1227.59 1411.5,1227.59 1415.5,1227.59 1419.5,1227.59 1423.5,1227.59 1427.5,1227.59 1431.5,1227.59 1435.5,1227.59 1439.5,1227.59 1443.5,1227.59 1447.5,1227.59 1451.5,1227.59 1455.5,1227.59 1459.5,1227.59 1463.5,1227.59 1467.5,1227.59 1471.5,1227.59 1475.5,1227.59 1479.5,1227.59 1483.5,1227.59 1487.5,1227.59 1491.5,1227.59 1495.5,1227.59 1499.5,1227.59 1503.5,1227.59 1507.5,1227.59 1511.5,1227.59 1515.5,1227.59 1519.5,1227.59 1523.5,1227.59 1527.5,1227.59 1531.5,1227.59 1535.5,1227.59 1539.5,1227.59 1543.49,1227.59 1547.49,1227.59 1551.49,1227.59 1555.49,1227.59 1559.49,1227.59 1563.49,1227.59 1567.49,1227.59 1571.49,1227.59 1575.49,1227.59 1579.49,1227.59 1583.49,1227.59 1587.49,1227.59 1591.49,1227.59 1595.49,1227.59 1599.49,1227.59 1603.49,1227.59 1607.49,1227.59 1611.49,1227.59 1615.49,1227.59 1619.49,1227.59 1623.49,1227.59 1627.49,1227.59 1631.49,1227.59 1635.49,1227.59 1639.49,1227.59 1643.49,1227.59 1647.49,1227.59 1651.49,1227.59 1655.49,1227.59 1659.49,1227.59 1663.49,1227.59 1667.49,1227.59 1671.49,1227.59 1675.49,1227.59 1679.49,1227.59 1683.48,1227.59 1687.48,1227.59 1691.48,1227.59 1695.48,1227.59 1699.48,1227.59 1703.48,1227.59 1707.48,1227.59 1711.48,1227.59 1715.48,1227.59 1719.48,1227.59 1723.48,1227.59 1727.48,1227.59 1731.48,1227.59 1735.48,1227.59 1739.48,1227.59 1743.48,1227.59 1747.48,1227.59 1751.48,1227.59 1755.48,1227.59 1759.48,1227.59 1763.48,1227.59 1767.48,1227.59 1771.48,1227.59 1775.48,1227.59 1779.48,1227.59 1783.48,1227.59 1787.48,1227.59 1791.48,1227.59 1795.48,1227.59 1799.48,1227.59 1803.48,1227.59 1807.48,1227.59 1811.48,1227.59 1815.48,1227.59 1819.47,1227.59 1823.47,1227.59 1827.47,1227.59 1831.47,1227.59 1835.47,1227.59 1839.47,1227.59 1843.47,1227.59 1847.47,1227.59 1851.47,1227.59 1855.47,1227.59 1859.47,1227.59 1863.47,1227.59 1867.47,1227.59 1871.47,1227.59 1875.47,1227.59 1879.47,1227.59 1883.47,1227.59 1887.47,1227.59 1891.47,1227.59 1895.47,1227.59 1899.47,1227.59 1903.47,1227.59 1907.47,1227.59 1911.47,1227.59 1915.47,1227.59 1919.47,1227.59 1923.47,1227.59 1927.47,1227.59 1931.47,1227.59 1935.47,1227.59 1939.47,1227.59 1943.47,1227.59 1947.47,1227.59 1951.47,1227.59 1955.46,1227.59 1959.46,1227.59 1963.46,1227.59 1967.46,1227.59 1971.46,1227.59 1975.46,1227.59 1979.46,1227.59 1983.46,1227.59 1987.46,1227.59 1991.46,1227.59 1995.46,1227.59 1999.46,1227.59 2003.46,1227.59 2007.46,1227.59 2011.46,1227.59 2015.46,1227.59 2019.46,1227.59 2023.46,1227.59 2027.46,1227.59 2031.46,1227.59 2035.46,1227.59 2039.46,1227.59 2043.46,1227.59 2047.46,1227.59 2051.46,1227.59 2055.46,1227.59 2059.46,1227.59 2063.46,1227.59 2067.46,1227.59 2071.46,1227.59 2075.46,1227.59 2079.46,1227.59 2083.46,1227.59 2087.46,1227.59 2091.45,1227.59 2095.45,1227.59 2099.45,1227.59 2103.45,1227.59 2107.45,1227.59 2111.45,1227.59 2115.45,1227.59 2119.45,1227.59 2123.45,1227.59 2127.45,1227.59 2131.45,1227.59 2135.45,1227.59 2139.45,1227.59 2143.45,1227.59 2147.45,1227.59 2151.45,1227.59 2155.45,1227.59 2159.45,1227.59 2163.45,1227.59 2167.45,1227.59 2171.45,1227.59 2175.45,1227.59 2179.45,1227.59 2183.45,1227.59 2187.45,1227.59 2191.45,1227.59 2195.45,1227.59 2199.45,1227.59 2203.45,1227.59 2207.45,1227.59 2211.45,1227.59 2215.45,1227.59 2219.45,1227.59 2223.45,1227.59 2227.45,1227.59 2231.44,1227.59 2235.44,1227.59 2239.44,1227.59 2243.44,1227.59 2247.44,1227.59 2251.44,1227.59 2255.44,1227.59 2259.44,1227.59 2263.44,1227.59 2267.44,1227.59 2271.44,1227.59 2275.44,1227.59 2279.44,1227.59 2283.44,1227.59 2287.44,1227.59 2291.44,1227.59 "/>
<path clip-path="url(#clip140)" d="M1590.56 324.425 L2280.54 324.425 L2280.54 168.905 L1590.56 168.905  Z" fill="#ffffff" fill-rule="evenodd" fill-opacity="1"/>
<polyline clip-path="url(#clip140)" style="stroke:#000000; stroke-linecap:round; stroke-linejoin:round; stroke-width:4; stroke-opacity:1; fill:none" points="1590.56,324.425 2280.54,324.425 2280.54,168.905 1590.56,168.905 1590.56,324.425 "/>
<polyline clip-path="url(#clip140)" style="stroke:#009af9; stroke-linecap:round; stroke-linejoin:round; stroke-width:4; stroke-opacity:1; fill:none" points="1614.63,220.745 1759.07,220.745 "/>
<path clip-path="url(#clip140)" d="M1801.56 212.863 L1801.56 216.891 Q1799.76 215.965 1797.81 215.502 Q1795.87 215.039 1793.79 215.039 Q1790.61 215.039 1789.02 216.011 Q1787.44 216.983 1787.44 218.928 Q1787.44 220.409 1788.58 221.265 Q1789.71 222.099 1793.14 222.863 L1794.6 223.187 Q1799.13 224.159 1801.03 225.941 Q1802.95 227.701 1802.95 230.872 Q1802.95 234.483 1800.08 236.589 Q1797.23 238.696 1792.23 238.696 Q1790.15 238.696 1787.88 238.279 Q1785.64 237.886 1783.14 237.076 L1783.14 232.677 Q1785.5 233.904 1787.79 234.529 Q1790.08 235.131 1792.33 235.131 Q1795.34 235.131 1796.96 234.113 Q1798.58 233.071 1798.58 231.196 Q1798.58 229.46 1797.4 228.534 Q1796.24 227.608 1792.28 226.752 L1790.8 226.404 Q1786.84 225.571 1785.08 223.858 Q1783.32 222.122 1783.32 219.113 Q1783.32 215.455 1785.91 213.465 Q1788.51 211.474 1793.28 211.474 Q1795.64 211.474 1797.72 211.821 Q1799.8 212.168 1801.56 212.863 Z" fill="#000000" fill-rule="nonzero" fill-opacity="1" /><path clip-path="url(#clip140)" d="M1809.29 227.793 L1809.29 212.099 L1813.55 212.099 L1813.55 227.631 Q1813.55 231.312 1814.99 233.164 Q1816.42 234.992 1819.29 234.992 Q1822.74 234.992 1824.73 232.793 Q1826.75 230.594 1826.75 226.798 L1826.75 212.099 L1831.01 212.099 L1831.01 238.025 L1826.75 238.025 L1826.75 234.043 Q1825.2 236.404 1823.14 237.562 Q1821.1 238.696 1818.39 238.696 Q1813.92 238.696 1811.61 235.918 Q1809.29 233.14 1809.29 227.793 M1820.01 211.474 L1820.01 211.474 Z" fill="#000000" fill-rule="nonzero" fill-opacity="1" /><path clip-path="url(#clip140)" d="M1854.8 216.08 Q1854.09 215.664 1853.23 215.478 Q1852.4 215.27 1851.38 215.27 Q1847.77 215.27 1845.82 217.631 Q1843.9 219.969 1843.9 224.367 L1843.9 238.025 L1839.62 238.025 L1839.62 212.099 L1843.9 212.099 L1843.9 216.127 Q1845.24 213.766 1847.4 212.631 Q1849.55 211.474 1852.63 211.474 Q1853.07 211.474 1853.6 211.543 Q1854.13 211.59 1854.78 211.705 L1854.8 216.08 Z" fill="#000000" fill-rule="nonzero" fill-opacity="1" /><path clip-path="url(#clip140)" d="M1872.4 202.006 L1872.4 205.548 L1868.32 205.548 Q1866.03 205.548 1865.13 206.474 Q1864.25 207.4 1864.25 209.807 L1864.25 212.099 L1871.26 212.099 L1871.26 215.409 L1864.25 215.409 L1864.25 238.025 L1859.97 238.025 L1859.97 215.409 L1855.89 215.409 L1855.89 212.099 L1859.97 212.099 L1859.97 210.293 Q1859.97 205.965 1861.98 203.997 Q1863.99 202.006 1868.37 202.006 L1872.4 202.006 Z" fill="#000000" fill-rule="nonzero" fill-opacity="1" /><path clip-path="url(#clip140)" d="M1887.74 224.992 Q1882.58 224.992 1880.59 226.173 Q1878.6 227.353 1878.6 230.201 Q1878.6 232.469 1880.08 233.812 Q1881.59 235.131 1884.16 235.131 Q1887.7 235.131 1889.83 232.631 Q1891.98 230.108 1891.98 225.941 L1891.98 224.992 L1887.74 224.992 M1896.24 223.233 L1896.24 238.025 L1891.98 238.025 L1891.98 234.089 Q1890.52 236.451 1888.34 237.585 Q1886.17 238.696 1883.02 238.696 Q1879.04 238.696 1876.68 236.474 Q1874.34 234.228 1874.34 230.478 Q1874.34 226.103 1877.26 223.881 Q1880.2 221.659 1886.01 221.659 L1891.98 221.659 L1891.98 221.242 Q1891.98 218.303 1890.03 216.705 Q1888.11 215.085 1884.62 215.085 Q1882.4 215.085 1880.29 215.617 Q1878.18 216.15 1876.24 217.215 L1876.24 213.279 Q1878.58 212.377 1880.78 211.937 Q1882.97 211.474 1885.06 211.474 Q1890.68 211.474 1893.46 214.391 Q1896.24 217.307 1896.24 223.233 Z" fill="#000000" fill-rule="nonzero" fill-opacity="1" /><path clip-path="url(#clip140)" d="M1923.67 213.094 L1923.67 217.076 Q1921.86 216.08 1920.03 215.594 Q1918.23 215.085 1916.38 215.085 Q1912.23 215.085 1909.94 217.724 Q1907.65 220.34 1907.65 225.085 Q1907.65 229.83 1909.94 232.469 Q1912.23 235.085 1916.38 235.085 Q1918.23 235.085 1920.03 234.599 Q1921.86 234.089 1923.67 233.094 L1923.67 237.029 Q1921.89 237.863 1919.96 238.279 Q1918.07 238.696 1915.91 238.696 Q1910.06 238.696 1906.61 235.015 Q1903.16 231.335 1903.16 225.085 Q1903.16 218.742 1906.63 215.108 Q1910.13 211.474 1916.19 211.474 Q1918.16 211.474 1920.03 211.891 Q1921.91 212.284 1923.67 213.094 Z" fill="#000000" fill-rule="nonzero" fill-opacity="1" /><path clip-path="url(#clip140)" d="M1953.25 223.997 L1953.25 226.08 L1933.67 226.08 Q1933.95 230.478 1936.31 232.793 Q1938.69 235.085 1942.93 235.085 Q1945.38 235.085 1947.67 234.483 Q1949.99 233.881 1952.26 232.677 L1952.26 236.705 Q1949.96 237.677 1947.56 238.187 Q1945.15 238.696 1942.67 238.696 Q1936.47 238.696 1932.84 235.085 Q1929.22 231.474 1929.22 225.316 Q1929.22 218.951 1932.65 215.224 Q1936.1 211.474 1941.93 211.474 Q1947.16 211.474 1950.2 214.853 Q1953.25 218.21 1953.25 223.997 M1948.99 222.747 Q1948.95 219.252 1947.03 217.168 Q1945.13 215.085 1941.98 215.085 Q1938.41 215.085 1936.26 217.099 Q1934.13 219.113 1933.81 222.77 L1948.99 222.747 Z" fill="#000000" fill-rule="nonzero" fill-opacity="1" /><path clip-path="url(#clip140)" d="M1992.37 216.034 L1992.37 202.006 L1996.63 202.006 L1996.63 238.025 L1992.37 238.025 L1992.37 234.136 Q1991.03 236.451 1988.97 237.585 Q1986.93 238.696 1984.06 238.696 Q1979.36 238.696 1976.4 234.946 Q1973.46 231.196 1973.46 225.085 Q1973.46 218.974 1976.4 215.224 Q1979.36 211.474 1984.06 211.474 Q1986.93 211.474 1988.97 212.608 Q1991.03 213.719 1992.37 216.034 M1977.86 225.085 Q1977.86 229.784 1979.78 232.469 Q1981.72 235.131 1985.1 235.131 Q1988.48 235.131 1990.43 232.469 Q1992.37 229.784 1992.37 225.085 Q1992.37 220.386 1990.43 217.724 Q1988.48 215.039 1985.1 215.039 Q1981.72 215.039 1979.78 217.724 Q1977.86 220.386 1977.86 225.085 Z" fill="#000000" fill-rule="nonzero" fill-opacity="1" /><path clip-path="url(#clip140)" d="M2027.58 223.997 L2027.58 226.08 L2008 226.08 Q2008.27 230.478 2010.64 232.793 Q2013.02 235.085 2017.26 235.085 Q2019.71 235.085 2022 234.483 Q2024.32 233.881 2026.58 232.677 L2026.58 236.705 Q2024.29 237.677 2021.89 238.187 Q2019.48 238.696 2017 238.696 Q2010.8 238.696 2007.16 235.085 Q2003.55 231.474 2003.55 225.316 Q2003.55 218.951 2006.98 215.224 Q2010.43 211.474 2016.26 211.474 Q2021.49 211.474 2024.52 214.853 Q2027.58 218.21 2027.58 223.997 M2023.32 222.747 Q2023.27 219.252 2021.35 217.168 Q2019.46 215.085 2016.31 215.085 Q2012.74 215.085 2010.59 217.099 Q2008.46 219.113 2008.14 222.77 L2023.32 222.747 Z" fill="#000000" fill-rule="nonzero" fill-opacity="1" /><path clip-path="url(#clip140)" d="M2047.7 202.006 L2047.7 205.548 L2043.62 205.548 Q2041.33 205.548 2040.43 206.474 Q2039.55 207.4 2039.55 209.807 L2039.55 212.099 L2046.56 212.099 L2046.56 215.409 L2039.55 215.409 L2039.55 238.025 L2035.27 238.025 L2035.27 215.409 L2031.19 215.409 L2031.19 212.099 L2035.27 212.099 L2035.27 210.293 Q2035.27 205.965 2037.28 203.997 Q2039.29 202.006 2043.67 202.006 L2047.7 202.006 Z" fill="#000000" fill-rule="nonzero" fill-opacity="1" /><path clip-path="url(#clip140)" d="M2061.31 215.085 Q2057.88 215.085 2055.89 217.77 Q2053.9 220.432 2053.9 225.085 Q2053.9 229.738 2055.87 232.423 Q2057.86 235.085 2061.31 235.085 Q2064.71 235.085 2066.7 232.4 Q2068.69 229.715 2068.69 225.085 Q2068.69 220.478 2066.7 217.793 Q2064.71 215.085 2061.31 215.085 M2061.31 211.474 Q2066.86 211.474 2070.03 215.085 Q2073.2 218.696 2073.2 225.085 Q2073.2 231.451 2070.03 235.085 Q2066.86 238.696 2061.31 238.696 Q2055.73 238.696 2052.56 235.085 Q2049.41 231.451 2049.41 225.085 Q2049.41 218.696 2052.56 215.085 Q2055.73 211.474 2061.31 211.474 Z" fill="#000000" fill-rule="nonzero" fill-opacity="1" /><path clip-path="url(#clip140)" d="M2095.29 216.08 Q2094.57 215.664 2093.71 215.478 Q2092.88 215.27 2091.86 215.27 Q2088.25 215.27 2086.31 217.631 Q2084.39 219.969 2084.39 224.367 L2084.39 238.025 L2080.1 238.025 L2080.1 212.099 L2084.39 212.099 L2084.39 216.127 Q2085.73 213.766 2087.88 212.631 Q2090.03 211.474 2093.11 211.474 Q2093.55 211.474 2094.08 211.543 Q2094.62 211.59 2095.26 211.705 L2095.29 216.08 Z" fill="#000000" fill-rule="nonzero" fill-opacity="1" /><path clip-path="url(#clip140)" d="M2119.11 217.076 Q2120.7 214.205 2122.93 212.84 Q2125.15 211.474 2128.16 211.474 Q2132.21 211.474 2134.41 214.321 Q2136.61 217.145 2136.61 222.377 L2136.61 238.025 L2132.32 238.025 L2132.32 222.515 Q2132.32 218.789 2131.01 216.983 Q2129.69 215.178 2126.98 215.178 Q2123.67 215.178 2121.75 217.377 Q2119.83 219.576 2119.83 223.372 L2119.83 238.025 L2115.54 238.025 L2115.54 222.515 Q2115.54 218.765 2114.22 216.983 Q2112.9 215.178 2110.15 215.178 Q2106.89 215.178 2104.96 217.4 Q2103.04 219.599 2103.04 223.372 L2103.04 238.025 L2098.76 238.025 L2098.76 212.099 L2103.04 212.099 L2103.04 216.127 Q2104.5 213.742 2106.54 212.608 Q2108.58 211.474 2111.38 211.474 Q2114.2 211.474 2116.17 212.909 Q2118.16 214.344 2119.11 217.076 Z" fill="#000000" fill-rule="nonzero" fill-opacity="1" /><path clip-path="url(#clip140)" d="M2156.89 224.992 Q2151.72 224.992 2149.73 226.173 Q2147.74 227.353 2147.74 230.201 Q2147.74 232.469 2149.22 233.812 Q2150.73 235.131 2153.3 235.131 Q2156.84 235.131 2158.97 232.631 Q2161.12 230.108 2161.12 225.941 L2161.12 224.992 L2156.89 224.992 M2165.38 223.233 L2165.38 238.025 L2161.12 238.025 L2161.12 234.089 Q2159.66 236.451 2157.49 237.585 Q2155.31 238.696 2152.16 238.696 Q2148.18 238.696 2145.82 236.474 Q2143.48 234.228 2143.48 230.478 Q2143.48 226.103 2146.4 223.881 Q2149.34 221.659 2155.15 221.659 L2161.12 221.659 L2161.12 221.242 Q2161.12 218.303 2159.18 216.705 Q2157.26 215.085 2153.76 215.085 Q2151.54 215.085 2149.43 215.617 Q2147.32 216.15 2145.38 217.215 L2145.38 213.279 Q2147.72 212.377 2149.92 211.937 Q2152.12 211.474 2154.2 211.474 Q2159.82 211.474 2162.6 214.391 Q2165.38 217.307 2165.38 223.233 Z" fill="#000000" fill-rule="nonzero" fill-opacity="1" /><path clip-path="url(#clip140)" d="M2178.37 204.738 L2178.37 212.099 L2187.14 212.099 L2187.14 215.409 L2178.37 215.409 L2178.37 229.483 Q2178.37 232.654 2179.22 233.557 Q2180.1 234.46 2182.76 234.46 L2187.14 234.46 L2187.14 238.025 L2182.76 238.025 Q2177.83 238.025 2175.96 236.196 Q2174.08 234.344 2174.08 229.483 L2174.08 215.409 L2170.96 215.409 L2170.96 212.099 L2174.08 212.099 L2174.08 204.738 L2178.37 204.738 Z" fill="#000000" fill-rule="nonzero" fill-opacity="1" /><path clip-path="url(#clip140)" d="M2192.74 212.099 L2197 212.099 L2197 238.025 L2192.74 238.025 L2192.74 212.099 M2192.74 202.006 L2197 202.006 L2197 207.4 L2192.74 207.4 L2192.74 202.006 Z" fill="#000000" fill-rule="nonzero" fill-opacity="1" /><path clip-path="url(#clip140)" d="M2215.96 215.085 Q2212.53 215.085 2210.54 217.77 Q2208.55 220.432 2208.55 225.085 Q2208.55 229.738 2210.52 232.423 Q2212.51 235.085 2215.96 235.085 Q2219.36 235.085 2221.35 232.4 Q2223.34 229.715 2223.34 225.085 Q2223.34 220.478 2221.35 217.793 Q2219.36 215.085 2215.96 215.085 M2215.96 211.474 Q2221.51 211.474 2224.69 215.085 Q2227.86 218.696 2227.86 225.085 Q2227.86 231.451 2224.69 235.085 Q2221.51 238.696 2215.96 238.696 Q2210.38 238.696 2207.21 235.085 Q2204.06 231.451 2204.06 225.085 Q2204.06 218.696 2207.21 215.085 Q2210.38 211.474 2215.96 211.474 Z" fill="#000000" fill-rule="nonzero" fill-opacity="1" /><path clip-path="url(#clip140)" d="M2256.47 222.377 L2256.47 238.025 L2252.21 238.025 L2252.21 222.515 Q2252.21 218.835 2250.77 217.006 Q2249.34 215.178 2246.47 215.178 Q2243.02 215.178 2241.03 217.377 Q2239.04 219.576 2239.04 223.372 L2239.04 238.025 L2234.75 238.025 L2234.75 212.099 L2239.04 212.099 L2239.04 216.127 Q2240.57 213.789 2242.63 212.631 Q2244.71 211.474 2247.42 211.474 Q2251.88 211.474 2254.18 214.252 Q2256.47 217.006 2256.47 222.377 Z" fill="#000000" fill-rule="nonzero" fill-opacity="1" /><polyline clip-path="url(#clip140)" style="stroke:#e26f46; stroke-linecap:round; stroke-linejoin:round; stroke-width:4; stroke-opacity:1; fill:none" points="1614.63,272.585 1759.07,272.585 "/>
<path clip-path="url(#clip140)" d="M1783.14 263.939 L1787.65 263.939 L1795.75 285.698 L1803.85 263.939 L1808.37 263.939 L1798.65 289.865 L1792.86 289.865 L1783.14 263.939 Z" fill="#000000" fill-rule="nonzero" fill-opacity="1" /><path clip-path="url(#clip140)" d="M1836.42 275.837 L1836.42 277.92 L1816.84 277.92 Q1817.12 282.318 1819.48 284.633 Q1821.86 286.925 1826.1 286.925 Q1828.55 286.925 1830.85 286.323 Q1833.16 285.721 1835.43 284.517 L1835.43 288.545 Q1833.14 289.517 1830.73 290.027 Q1828.32 290.536 1825.85 290.536 Q1819.64 290.536 1816.01 286.925 Q1812.4 283.314 1812.4 277.156 Q1812.4 270.791 1815.82 267.064 Q1819.27 263.314 1825.1 263.314 Q1830.34 263.314 1833.37 266.693 Q1836.42 270.05 1836.42 275.837 M1832.16 274.587 Q1832.12 271.092 1830.2 269.008 Q1828.3 266.925 1825.15 266.925 Q1821.59 266.925 1819.43 268.939 Q1817.3 270.953 1816.98 274.61 L1832.16 274.587 Z" fill="#000000" fill-rule="nonzero" fill-opacity="1" /><path clip-path="url(#clip140)" d="M1843.41 253.846 L1847.67 253.846 L1847.67 289.865 L1843.41 289.865 L1843.41 253.846 Z" fill="#000000" fill-rule="nonzero" fill-opacity="1" /><path clip-path="url(#clip140)" d="M1866.63 266.925 Q1863.21 266.925 1861.22 269.61 Q1859.22 272.272 1859.22 276.925 Q1859.22 281.578 1861.19 284.263 Q1863.18 286.925 1866.63 286.925 Q1870.03 286.925 1872.03 284.24 Q1874.02 281.555 1874.02 276.925 Q1874.02 272.318 1872.03 269.633 Q1870.03 266.925 1866.63 266.925 M1866.63 263.314 Q1872.19 263.314 1875.36 266.925 Q1878.53 270.536 1878.53 276.925 Q1878.53 283.291 1875.36 286.925 Q1872.19 290.536 1866.63 290.536 Q1861.05 290.536 1857.88 286.925 Q1854.73 283.291 1854.73 276.925 Q1854.73 270.536 1857.88 266.925 Q1861.05 263.314 1866.63 263.314 Z" fill="#000000" fill-rule="nonzero" fill-opacity="1" /><path clip-path="url(#clip140)" d="M1904.25 264.934 L1904.25 268.916 Q1902.44 267.92 1900.61 267.434 Q1898.81 266.925 1896.96 266.925 Q1892.81 266.925 1890.52 269.564 Q1888.23 272.18 1888.23 276.925 Q1888.23 281.67 1890.52 284.309 Q1892.81 286.925 1896.96 286.925 Q1898.81 286.925 1900.61 286.439 Q1902.44 285.929 1904.25 284.934 L1904.25 288.869 Q1902.47 289.703 1900.54 290.119 Q1898.65 290.536 1896.49 290.536 Q1890.64 290.536 1887.19 286.855 Q1883.74 283.175 1883.74 276.925 Q1883.74 270.582 1887.21 266.948 Q1890.71 263.314 1896.77 263.314 Q1898.74 263.314 1900.61 263.731 Q1902.49 264.124 1904.25 264.934 Z" fill="#000000" fill-rule="nonzero" fill-opacity="1" /><path clip-path="url(#clip140)" d="M1911.65 263.939 L1915.91 263.939 L1915.91 289.865 L1911.65 289.865 L1911.65 263.939 M1911.65 253.846 L1915.91 253.846 L1915.91 259.24 L1911.65 259.24 L1911.65 253.846 Z" fill="#000000" fill-rule="nonzero" fill-opacity="1" /><path clip-path="url(#clip140)" d="M1929.04 256.578 L1929.04 263.939 L1937.81 263.939 L1937.81 267.249 L1929.04 267.249 L1929.04 281.323 Q1929.04 284.494 1929.9 285.397 Q1930.78 286.3 1933.44 286.3 L1937.81 286.3 L1937.81 289.865 L1933.44 289.865 Q1928.51 289.865 1926.63 288.036 Q1924.76 286.184 1924.76 281.323 L1924.76 267.249 L1921.63 267.249 L1921.63 263.939 L1924.76 263.939 L1924.76 256.578 L1929.04 256.578 Z" fill="#000000" fill-rule="nonzero" fill-opacity="1" /><path clip-path="url(#clip140)" d="M1954.2 292.272 Q1952.4 296.902 1950.68 298.314 Q1948.97 299.726 1946.1 299.726 L1942.7 299.726 L1942.7 296.161 L1945.2 296.161 Q1946.96 296.161 1947.93 295.328 Q1948.9 294.494 1950.08 291.392 L1950.84 289.448 L1940.36 263.939 L1944.87 263.939 L1952.97 284.217 L1961.08 263.939 L1965.59 263.939 L1954.2 292.272 Z" fill="#000000" fill-rule="nonzero" fill-opacity="1" /></svg>
