<?xml version="1.0" encoding="utf-8"?>
<svg xmlns="http://www.w3.org/2000/svg" xmlns:xlink="http://www.w3.org/1999/xlink" width="600" height="400" viewBox="0 0 2400 1600">
<defs>
  <clipPath id="clip760">
    <rect x="0" y="0" width="2400" height="1600"/>
  </clipPath>
</defs>
<path clip-path="url(#clip760)" d="M0 1600 L2400 1600 L2400 0 L0 0  Z" fill="#ffffff" fill-rule="evenodd" fill-opacity="1"/>
<defs>
  <clipPath id="clip761">
    <rect x="255" y="106" width="2098" height="1318"/>
  </clipPath>
</defs>
<path clip-path="url(#clip760)" d="M255.607 1423.18 L2352.76 1423.18 L2352.76 106.192 L255.607 106.192  Z" fill="#ffffff" fill-rule="evenodd" fill-opacity="1"/>
<polyline clip-path="url(#clip761)" style="stroke:#000000; stroke-linecap:round; stroke-linejoin:round; stroke-width:2; stroke-opacity:0.1; fill:none" points="359.555,1423.18 359.555,106.192 "/>
<polyline clip-path="url(#clip761)" style="stroke:#000000; stroke-linecap:round; stroke-linejoin:round; stroke-width:2; stroke-opacity:0.1; fill:none" points="674.511,1423.18 674.511,106.192 "/>
<polyline clip-path="url(#clip761)" style="stroke:#000000; stroke-linecap:round; stroke-linejoin:round; stroke-width:2; stroke-opacity:0.1; fill:none" points="989.466,1423.18 989.466,106.192 "/>
<polyline clip-path="url(#clip761)" style="stroke:#000000; stroke-linecap:round; stroke-linejoin:round; stroke-width:2; stroke-opacity:0.1; fill:none" points="1304.42,1423.18 1304.42,106.192 "/>
<polyline clip-path="url(#clip761)" style="stroke:#000000; stroke-linecap:round; stroke-linejoin:round; stroke-width:2; stroke-opacity:0.1; fill:none" points="1619.38,1423.18 1619.38,106.192 "/>
<polyline clip-path="url(#clip761)" style="stroke:#000000; stroke-linecap:round; stroke-linejoin:round; stroke-width:2; stroke-opacity:0.1; fill:none" points="1934.33,1423.18 1934.33,106.192 "/>
<polyline clip-path="url(#clip761)" style="stroke:#000000; stroke-linecap:round; stroke-linejoin:round; stroke-width:2; stroke-opacity:0.1; fill:none" points="2249.29,1423.18 2249.29,106.192 "/>
<polyline clip-path="url(#clip761)" style="stroke:#000000; stroke-linecap:round; stroke-linejoin:round; stroke-width:2; stroke-opacity:0.1; fill:none" points="255.607,1298.07 2352.76,1298.07 "/>
<polyline clip-path="url(#clip761)" style="stroke:#000000; stroke-linecap:round; stroke-linejoin:round; stroke-width:2; stroke-opacity:0.1; fill:none" points="255.607,978.354 2352.76,978.354 "/>
<polyline clip-path="url(#clip761)" style="stroke:#000000; stroke-linecap:round; stroke-linejoin:round; stroke-width:2; stroke-opacity:0.1; fill:none" points="255.607,658.642 2352.76,658.642 "/>
<polyline clip-path="url(#clip761)" style="stroke:#000000; stroke-linecap:round; stroke-linejoin:round; stroke-width:2; stroke-opacity:0.1; fill:none" points="255.607,338.929 2352.76,338.929 "/>
<polyline clip-path="url(#clip760)" style="stroke:#000000; stroke-linecap:round; stroke-linejoin:round; stroke-width:4; stroke-opacity:1; fill:none" points="255.607,1423.18 2352.76,1423.18 "/>
<polyline clip-path="url(#clip760)" style="stroke:#000000; stroke-linecap:round; stroke-linejoin:round; stroke-width:4; stroke-opacity:1; fill:none" points="359.555,1423.18 359.555,1404.28 "/>
<polyline clip-path="url(#clip760)" style="stroke:#000000; stroke-linecap:round; stroke-linejoin:round; stroke-width:4; stroke-opacity:1; fill:none" points="674.511,1423.18 674.511,1404.28 "/>
<polyline clip-path="url(#clip760)" style="stroke:#000000; stroke-linecap:round; stroke-linejoin:round; stroke-width:4; stroke-opacity:1; fill:none" points="989.466,1423.18 989.466,1404.28 "/>
<polyline clip-path="url(#clip760)" style="stroke:#000000; stroke-linecap:round; stroke-linejoin:round; stroke-width:4; stroke-opacity:1; fill:none" points="1304.42,1423.18 1304.42,1404.28 "/>
<polyline clip-path="url(#clip760)" style="stroke:#000000; stroke-linecap:round; stroke-linejoin:round; stroke-width:4; stroke-opacity:1; fill:none" points="1619.38,1423.18 1619.38,1404.28 "/>
<polyline clip-path="url(#clip760)" style="stroke:#000000; stroke-linecap:round; stroke-linejoin:round; stroke-width:4; stroke-opacity:1; fill:none" points="1934.33,1423.18 1934.33,1404.28 "/>
<polyline clip-path="url(#clip760)" style="stroke:#000000; stroke-linecap:round; stroke-linejoin:round; stroke-width:4; stroke-opacity:1; fill:none" points="2249.29,1423.18 2249.29,1404.28 "/>
<path clip-path="url(#clip760)" d="M329.023 1468.75 L358.699 1468.75 L358.699 1472.69 L329.023 1472.69 L329.023 1468.75 Z" fill="#000000" fill-rule="nonzero" fill-opacity="1" /><path clip-path="url(#clip760)" d="M382.958 1466.95 Q386.315 1467.66 388.19 1469.93 Q390.088 1472.2 390.088 1475.53 Q390.088 1480.65 386.569 1483.45 Q383.051 1486.25 376.569 1486.25 Q374.393 1486.25 372.079 1485.81 Q369.787 1485.39 367.333 1484.54 L367.333 1480.02 Q369.278 1481.16 371.592 1481.74 Q373.907 1482.32 376.43 1482.32 Q380.829 1482.32 383.12 1480.58 Q385.435 1478.84 385.435 1475.53 Q385.435 1472.48 383.282 1470.77 Q381.153 1469.03 377.333 1469.03 L373.305 1469.03 L373.305 1465.19 L377.518 1465.19 Q380.967 1465.19 382.796 1463.82 Q384.625 1462.43 384.625 1459.84 Q384.625 1457.18 382.727 1455.77 Q380.852 1454.33 377.333 1454.33 Q375.412 1454.33 373.213 1454.75 Q371.014 1455.16 368.375 1456.04 L368.375 1451.88 Q371.037 1451.14 373.352 1450.77 Q375.69 1450.39 377.75 1450.39 Q383.074 1450.39 386.176 1452.83 Q389.278 1455.23 389.278 1459.35 Q389.278 1462.22 387.634 1464.21 Q385.991 1466.18 382.958 1466.95 Z" fill="#000000" fill-rule="nonzero" fill-opacity="1" /><path clip-path="url(#clip760)" d="M644.453 1468.75 L674.129 1468.75 L674.129 1472.69 L644.453 1472.69 L644.453 1468.75 Z" fill="#000000" fill-rule="nonzero" fill-opacity="1" /><path clip-path="url(#clip760)" d="M688.249 1481.64 L704.569 1481.64 L704.569 1485.58 L682.624 1485.58 L682.624 1481.64 Q685.286 1478.89 689.87 1474.26 Q694.476 1469.61 695.657 1468.27 Q697.902 1465.74 698.782 1464.01 Q699.684 1462.25 699.684 1460.56 Q699.684 1457.8 697.74 1456.07 Q695.819 1454.33 692.717 1454.33 Q690.518 1454.33 688.064 1455.09 Q685.634 1455.86 682.856 1457.41 L682.856 1452.69 Q685.68 1451.55 688.134 1450.97 Q690.587 1450.39 692.624 1450.39 Q697.995 1450.39 701.189 1453.08 Q704.383 1455.77 704.383 1460.26 Q704.383 1462.39 703.573 1464.31 Q702.786 1466.2 700.68 1468.8 Q700.101 1469.47 696.999 1472.69 Q693.897 1475.88 688.249 1481.64 Z" fill="#000000" fill-rule="nonzero" fill-opacity="1" /><path clip-path="url(#clip760)" d="M959.224 1468.75 L988.899 1468.75 L988.899 1472.69 L959.224 1472.69 L959.224 1468.75 Z" fill="#000000" fill-rule="nonzero" fill-opacity="1" /><path clip-path="url(#clip760)" d="M999.802 1481.64 L1007.44 1481.64 L1007.44 1455.28 L999.131 1456.95 L999.131 1452.69 L1007.39 1451.02 L1012.07 1451.02 L1012.07 1481.64 L1019.71 1481.64 L1019.71 1485.58 L999.802 1485.58 L999.802 1481.64 Z" fill="#000000" fill-rule="nonzero" fill-opacity="1" /><path clip-path="url(#clip760)" d="M1304.42 1454.1 Q1300.81 1454.1 1298.98 1457.66 Q1297.18 1461.2 1297.18 1468.33 Q1297.18 1475.44 1298.98 1479.01 Q1300.81 1482.55 1304.42 1482.55 Q1308.06 1482.55 1309.86 1479.01 Q1311.69 1475.44 1311.69 1468.33 Q1311.69 1461.2 1309.86 1457.66 Q1308.06 1454.1 1304.42 1454.1 M1304.42 1450.39 Q1310.23 1450.39 1313.29 1455 Q1316.37 1459.58 1316.37 1468.33 Q1316.37 1477.06 1313.29 1481.67 Q1310.23 1486.25 1304.42 1486.25 Q1298.61 1486.25 1295.53 1481.67 Q1292.48 1477.06 1292.48 1468.33 Q1292.48 1459.58 1295.53 1455 Q1298.61 1450.39 1304.42 1450.39 Z" fill="#000000" fill-rule="nonzero" fill-opacity="1" /><path clip-path="url(#clip760)" d="M1609.76 1481.64 L1617.4 1481.64 L1617.4 1455.28 L1609.09 1456.95 L1609.09 1452.69 L1617.35 1451.02 L1622.03 1451.02 L1622.03 1481.64 L1629.67 1481.64 L1629.67 1485.58 L1609.76 1485.58 L1609.76 1481.64 Z" fill="#000000" fill-rule="nonzero" fill-opacity="1" /><path clip-path="url(#clip760)" d="M1928.99 1481.64 L1945.31 1481.64 L1945.31 1485.58 L1923.36 1485.58 L1923.36 1481.64 Q1926.02 1478.89 1930.61 1474.26 Q1935.21 1469.61 1936.39 1468.27 Q1938.64 1465.74 1939.52 1464.01 Q1940.42 1462.25 1940.42 1460.56 Q1940.42 1457.8 1938.48 1456.07 Q1936.56 1454.33 1933.45 1454.33 Q1931.25 1454.33 1928.8 1455.09 Q1926.37 1455.86 1923.59 1457.41 L1923.59 1452.69 Q1926.42 1451.55 1928.87 1450.97 Q1931.32 1450.39 1933.36 1450.39 Q1938.73 1450.39 1941.93 1453.08 Q1945.12 1455.77 1945.12 1460.26 Q1945.12 1462.39 1944.31 1464.31 Q1943.52 1466.2 1941.42 1468.8 Q1940.84 1469.47 1937.74 1472.69 Q1934.63 1475.88 1928.99 1481.64 Z" fill="#000000" fill-rule="nonzero" fill-opacity="1" /><path clip-path="url(#clip760)" d="M2253.54 1466.95 Q2256.89 1467.66 2258.77 1469.93 Q2260.67 1472.2 2260.67 1475.53 Q2260.67 1480.65 2257.15 1483.45 Q2253.63 1486.25 2247.15 1486.25 Q2244.97 1486.25 2242.66 1485.81 Q2240.36 1485.39 2237.91 1484.54 L2237.91 1480.02 Q2239.86 1481.16 2242.17 1481.74 Q2244.49 1482.32 2247.01 1482.32 Q2251.41 1482.32 2253.7 1480.58 Q2256.01 1478.84 2256.01 1475.53 Q2256.01 1472.48 2253.86 1470.77 Q2251.73 1469.03 2247.91 1469.03 L2243.88 1469.03 L2243.88 1465.19 L2248.1 1465.19 Q2251.55 1465.19 2253.37 1463.82 Q2255.2 1462.43 2255.2 1459.84 Q2255.2 1457.18 2253.3 1455.77 Q2251.43 1454.33 2247.91 1454.33 Q2245.99 1454.33 2243.79 1454.75 Q2241.59 1455.16 2238.95 1456.04 L2238.95 1451.88 Q2241.61 1451.14 2243.93 1450.77 Q2246.27 1450.39 2248.33 1450.39 Q2253.65 1450.39 2256.75 1452.83 Q2259.86 1455.23 2259.86 1459.35 Q2259.86 1462.22 2258.21 1464.21 Q2256.57 1466.18 2253.54 1466.95 Z" fill="#000000" fill-rule="nonzero" fill-opacity="1" /><path clip-path="url(#clip760)" d="M1320.8 1532.4 L1307.91 1549.74 L1321.46 1568.04 L1314.56 1568.04 L1304.18 1554.04 L1293.81 1568.04 L1286.9 1568.04 L1300.74 1549.39 L1288.08 1532.4 L1294.98 1532.4 L1304.44 1545.1 L1313.89 1532.4 L1320.8 1532.4 Z" fill="#000000" fill-rule="nonzero" fill-opacity="1" /><polyline clip-path="url(#clip760)" style="stroke:#000000; stroke-linecap:round; stroke-linejoin:round; stroke-width:4; stroke-opacity:1; fill:none" points="255.607,1423.18 255.607,106.192 "/>
<polyline clip-path="url(#clip760)" style="stroke:#000000; stroke-linecap:round; stroke-linejoin:round; stroke-width:4; stroke-opacity:1; fill:none" points="255.607,1298.07 274.504,1298.07 "/>
<polyline clip-path="url(#clip760)" style="stroke:#000000; stroke-linecap:round; stroke-linejoin:round; stroke-width:4; stroke-opacity:1; fill:none" points="255.607,978.354 274.504,978.354 "/>
<polyline clip-path="url(#clip760)" style="stroke:#000000; stroke-linecap:round; stroke-linejoin:round; stroke-width:4; stroke-opacity:1; fill:none" points="255.607,658.642 274.504,658.642 "/>
<polyline clip-path="url(#clip760)" style="stroke:#000000; stroke-linecap:round; stroke-linejoin:round; stroke-width:4; stroke-opacity:1; fill:none" points="255.607,338.929 274.504,338.929 "/>
<path clip-path="url(#clip760)" d="M114.26 1298.52 L143.936 1298.52 L143.936 1302.45 L114.26 1302.45 L114.26 1298.52 Z" fill="#000000" fill-rule="nonzero" fill-opacity="1" /><path clip-path="url(#clip760)" d="M164.028 1283.87 Q160.417 1283.87 158.589 1287.43 Q156.783 1290.97 156.783 1298.1 Q156.783 1305.21 158.589 1308.77 Q160.417 1312.31 164.028 1312.31 Q167.663 1312.31 169.468 1308.77 Q171.297 1305.21 171.297 1298.1 Q171.297 1290.97 169.468 1287.43 Q167.663 1283.87 164.028 1283.87 M164.028 1280.16 Q169.839 1280.16 172.894 1284.77 Q175.973 1289.35 175.973 1298.1 Q175.973 1306.83 172.894 1311.44 Q169.839 1316.02 164.028 1316.02 Q158.218 1316.02 155.14 1311.44 Q152.084 1306.83 152.084 1298.1 Q152.084 1289.35 155.14 1284.77 Q158.218 1280.16 164.028 1280.16 Z" fill="#000000" fill-rule="nonzero" fill-opacity="1" /><path clip-path="url(#clip760)" d="M184.19 1309.47 L189.075 1309.47 L189.075 1315.35 L184.19 1315.35 L184.19 1309.47 Z" fill="#000000" fill-rule="nonzero" fill-opacity="1" /><path clip-path="url(#clip760)" d="M203.287 1311.41 L219.607 1311.41 L219.607 1315.35 L197.662 1315.35 L197.662 1311.41 Q200.325 1308.66 204.908 1304.03 Q209.514 1299.37 210.695 1298.03 Q212.94 1295.51 213.82 1293.77 Q214.723 1292.01 214.723 1290.32 Q214.723 1287.57 212.778 1285.83 Q210.857 1284.1 207.755 1284.1 Q205.556 1284.1 203.102 1284.86 Q200.672 1285.62 197.894 1287.18 L197.894 1282.45 Q200.718 1281.32 203.172 1280.74 Q205.625 1280.16 207.662 1280.16 Q213.033 1280.16 216.227 1282.85 Q219.422 1285.53 219.422 1290.02 Q219.422 1292.15 218.611 1294.07 Q217.824 1295.97 215.718 1298.56 Q215.139 1299.24 212.037 1302.45 Q208.936 1305.65 203.287 1311.41 Z" fill="#000000" fill-rule="nonzero" fill-opacity="1" /><path clip-path="url(#clip760)" d="M162.431 964.153 Q158.82 964.153 156.991 967.718 Q155.186 971.259 155.186 978.389 Q155.186 985.495 156.991 989.06 Q158.82 992.602 162.431 992.602 Q166.065 992.602 167.871 989.06 Q169.7 985.495 169.7 978.389 Q169.7 971.259 167.871 967.718 Q166.065 964.153 162.431 964.153 M162.431 960.449 Q168.241 960.449 171.297 965.056 Q174.376 969.639 174.376 978.389 Q174.376 987.116 171.297 991.722 Q168.241 996.306 162.431 996.306 Q156.621 996.306 153.542 991.722 Q150.487 987.116 150.487 978.389 Q150.487 969.639 153.542 965.056 Q156.621 960.449 162.431 960.449 Z" fill="#000000" fill-rule="nonzero" fill-opacity="1" /><path clip-path="url(#clip760)" d="M182.593 989.755 L187.477 989.755 L187.477 995.634 L182.593 995.634 L182.593 989.755 Z" fill="#000000" fill-rule="nonzero" fill-opacity="1" /><path clip-path="url(#clip760)" d="M207.662 964.153 Q204.051 964.153 202.223 967.718 Q200.417 971.259 200.417 978.389 Q200.417 985.495 202.223 989.06 Q204.051 992.602 207.662 992.602 Q211.297 992.602 213.102 989.06 Q214.931 985.495 214.931 978.389 Q214.931 971.259 213.102 967.718 Q211.297 964.153 207.662 964.153 M207.662 960.449 Q213.473 960.449 216.528 965.056 Q219.607 969.639 219.607 978.389 Q219.607 987.116 216.528 991.722 Q213.473 996.306 207.662 996.306 Q201.852 996.306 198.774 991.722 Q195.718 987.116 195.718 978.389 Q195.718 969.639 198.774 965.056 Q201.852 960.449 207.662 960.449 Z" fill="#000000" fill-rule="nonzero" fill-opacity="1" /><path clip-path="url(#clip760)" d="M164.028 644.44 Q160.417 644.44 158.589 648.005 Q156.783 651.547 156.783 658.676 Q156.783 665.783 158.589 669.348 Q160.417 672.889 164.028 672.889 Q167.663 672.889 169.468 669.348 Q171.297 665.783 171.297 658.676 Q171.297 651.547 169.468 648.005 Q167.663 644.44 164.028 644.44 M164.028 640.737 Q169.839 640.737 172.894 645.343 Q175.973 649.926 175.973 658.676 Q175.973 667.403 172.894 672.01 Q169.839 676.593 164.028 676.593 Q158.218 676.593 155.14 672.01 Q152.084 667.403 152.084 658.676 Q152.084 649.926 155.14 645.343 Q158.218 640.737 164.028 640.737 Z" fill="#000000" fill-rule="nonzero" fill-opacity="1" /><path clip-path="url(#clip760)" d="M184.19 670.042 L189.075 670.042 L189.075 675.922 L184.19 675.922 L184.19 670.042 Z" fill="#000000" fill-rule="nonzero" fill-opacity="1" /><path clip-path="url(#clip760)" d="M203.287 671.986 L219.607 671.986 L219.607 675.922 L197.662 675.922 L197.662 671.986 Q200.325 669.232 204.908 664.602 Q209.514 659.95 210.695 658.607 Q212.94 656.084 213.82 654.348 Q214.723 652.588 214.723 650.899 Q214.723 648.144 212.778 646.408 Q210.857 644.672 207.755 644.672 Q205.556 644.672 203.102 645.436 Q200.672 646.2 197.894 647.75 L197.894 643.028 Q200.718 641.894 203.172 641.315 Q205.625 640.737 207.662 640.737 Q213.033 640.737 216.227 643.422 Q219.422 646.107 219.422 650.598 Q219.422 652.727 218.611 654.649 Q217.824 656.547 215.718 659.139 Q215.139 659.811 212.037 663.028 Q208.936 666.223 203.287 671.986 Z" fill="#000000" fill-rule="nonzero" fill-opacity="1" /><path clip-path="url(#clip760)" d="M161.945 324.728 Q158.334 324.728 156.505 328.292 Q154.7 331.834 154.7 338.964 Q154.7 346.07 156.505 349.635 Q158.334 353.177 161.945 353.177 Q165.579 353.177 167.385 349.635 Q169.214 346.07 169.214 338.964 Q169.214 331.834 167.385 328.292 Q165.579 324.728 161.945 324.728 M161.945 321.024 Q167.755 321.024 170.811 325.63 Q173.889 330.214 173.889 338.964 Q173.889 347.69 170.811 352.297 Q167.755 356.88 161.945 356.88 Q156.135 356.88 153.056 352.297 Q150.001 347.69 150.001 338.964 Q150.001 330.214 153.056 325.63 Q156.135 321.024 161.945 321.024 Z" fill="#000000" fill-rule="nonzero" fill-opacity="1" /><path clip-path="url(#clip760)" d="M182.107 350.329 L186.991 350.329 L186.991 356.209 L182.107 356.209 L182.107 350.329 Z" fill="#000000" fill-rule="nonzero" fill-opacity="1" /><path clip-path="url(#clip760)" d="M210.024 325.723 L198.218 344.172 L210.024 344.172 L210.024 325.723 M208.797 321.649 L214.676 321.649 L214.676 344.172 L219.607 344.172 L219.607 348.061 L214.676 348.061 L214.676 356.209 L210.024 356.209 L210.024 348.061 L194.422 348.061 L194.422 343.547 L208.797 321.649 Z" fill="#000000" fill-rule="nonzero" fill-opacity="1" /><path clip-path="url(#clip760)" d="M42.4881 749.758 L77.5631 749.758 L77.5631 755.615 L42.679 755.615 Q37.6183 755.615 35.1038 757.588 Q32.5894 759.562 32.5894 763.508 Q32.5894 768.251 35.6131 770.988 Q38.6368 773.725 43.8567 773.725 L64.0042 773.725 L64.0042 779.614 L28.3562 779.614 L28.3562 773.725 L33.8944 773.725 Q30.6797 771.625 29.0883 768.792 Q27.4968 765.927 27.4968 762.203 Q27.4968 756.06 31.2844 752.909 Q35.1038 749.758 42.4881 749.758 Z" fill="#000000" fill-rule="nonzero" fill-opacity="1" /><path clip-path="url(#clip760)" d="M834.45 10.0578 L834.45 15.758 Q831.123 14.1666 828.171 13.3853 Q825.22 12.6041 822.471 12.6041 Q817.697 12.6041 815.093 14.4559 Q812.517 16.3078 812.517 19.7221 Q812.517 22.5867 814.224 24.0624 Q815.961 25.5091 820.764 26.4061 L824.294 27.1295 Q830.833 28.3737 833.929 31.5276 Q837.054 34.6526 837.054 39.9188 Q837.054 46.1977 832.83 49.4384 Q828.634 52.6791 820.503 52.6791 Q817.436 52.6791 813.964 51.9847 Q810.521 51.2902 806.817 49.9303 L806.817 43.9118 Q810.376 45.9083 813.79 46.921 Q817.205 47.9338 820.503 47.9338 Q825.509 47.9338 828.229 45.9662 Q830.949 43.9986 830.949 40.3528 Q830.949 37.1699 828.981 35.376 Q827.043 33.582 822.587 32.685 L819.028 31.9906 Q812.488 30.6885 809.566 27.9107 Q806.644 25.133 806.644 20.1851 Q806.644 14.4559 810.665 11.1573 Q814.716 7.85875 821.805 7.85875 Q824.844 7.85875 827.998 8.40852 Q831.151 8.95829 834.45 10.0578 Z" fill="#000000" fill-rule="nonzero" fill-opacity="1" /><path clip-path="url(#clip760)" d="M845.388 39.0507 L845.388 19.4328 L850.712 19.4328 L850.712 38.8482 Q850.712 43.4488 852.506 45.7636 Q854.3 48.0495 857.887 48.0495 Q862.199 48.0495 864.687 45.3007 Q867.205 42.5519 867.205 37.8065 L867.205 19.4328 L872.529 19.4328 L872.529 51.84 L867.205 51.84 L867.205 46.8632 Q865.266 49.8145 862.691 51.2613 Q860.144 52.6791 856.759 52.6791 Q851.175 52.6791 848.281 49.2069 Q845.388 45.7347 845.388 39.0507 M858.784 18.6515 L858.784 18.6515 Z" fill="#000000" fill-rule="nonzero" fill-opacity="1" /><path clip-path="url(#clip760)" d="M902.274 24.4096 Q901.377 23.8888 900.306 23.6573 Q899.265 23.3969 897.991 23.3969 Q893.478 23.3969 891.047 26.3482 Q888.645 29.2707 888.645 34.7683 L888.645 51.84 L883.292 51.84 L883.292 19.4328 L888.645 19.4328 L888.645 24.4675 Q890.324 21.5161 893.015 20.0983 Q895.706 18.6515 899.554 18.6515 Q900.104 18.6515 900.769 18.7383 Q901.435 18.7962 902.245 18.9409 L902.274 24.4096 Z" fill="#000000" fill-rule="nonzero" fill-opacity="1" /><path clip-path="url(#clip760)" d="M924.264 6.81709 L924.264 11.2442 L919.172 11.2442 Q916.307 11.2442 915.179 12.4016 Q914.079 13.559 914.079 16.5682 L914.079 19.4328 L922.847 19.4328 L922.847 23.5705 L914.079 23.5705 L914.079 51.84 L908.726 51.84 L908.726 23.5705 L903.634 23.5705 L903.634 19.4328 L908.726 19.4328 L908.726 17.1758 Q908.726 11.765 911.244 9.30551 Q913.761 6.81709 919.23 6.81709 L924.264 6.81709 Z" fill="#000000" fill-rule="nonzero" fill-opacity="1" /><path clip-path="url(#clip760)" d="M943.448 35.5496 Q936.996 35.5496 934.507 37.0253 Q932.019 38.501 932.019 42.06 Q932.019 44.8956 933.871 46.5738 Q935.752 48.2231 938.963 48.2231 Q943.39 48.2231 946.052 45.0981 Q948.743 41.9442 948.743 36.7359 L948.743 35.5496 L943.448 35.5496 M954.067 33.3505 L954.067 51.84 L948.743 51.84 L948.743 46.921 Q946.921 49.8724 944.201 51.2902 Q941.481 52.6791 937.546 52.6791 Q932.569 52.6791 929.617 49.9014 Q926.695 47.0947 926.695 42.4072 Q926.695 36.9385 930.341 34.1607 Q934.016 31.3829 941.278 31.3829 L948.743 31.3829 L948.743 30.8621 Q948.743 27.1874 946.313 25.1908 Q943.911 23.1654 939.542 23.1654 Q936.764 23.1654 934.131 23.8309 Q931.498 24.4964 929.068 25.8274 L929.068 20.9085 Q931.99 19.78 934.739 19.2302 Q937.488 18.6515 940.092 18.6515 Q947.123 18.6515 950.595 22.2973 Q954.067 25.9431 954.067 33.3505 Z" fill="#000000" fill-rule="nonzero" fill-opacity="1" /><path clip-path="url(#clip760)" d="M988.356 20.677 L988.356 25.6538 Q986.099 24.4096 983.813 23.802 Q981.556 23.1654 979.241 23.1654 Q974.062 23.1654 971.197 26.464 Q968.332 29.7336 968.332 35.6653 Q968.332 41.597 971.197 44.8956 Q974.062 48.1653 979.241 48.1653 Q981.556 48.1653 983.813 47.5576 Q986.099 46.921 988.356 45.6768 L988.356 50.5958 Q986.128 51.6375 983.726 52.1583 Q981.353 52.6791 978.662 52.6791 Q971.342 52.6791 967.03 48.0784 Q962.719 43.4778 962.719 35.6653 Q962.719 27.7371 967.059 23.1943 Q971.429 18.6515 979.009 18.6515 Q981.469 18.6515 983.813 19.1724 Q986.156 19.6642 988.356 20.677 Z" fill="#000000" fill-rule="nonzero" fill-opacity="1" /><path clip-path="url(#clip760)" d="M1025.33 34.3054 L1025.33 36.9095 L1000.86 36.9095 Q1001.2 42.4072 1004.15 45.3007 Q1007.13 48.1653 1012.43 48.1653 Q1015.5 48.1653 1018.36 47.4129 Q1021.25 46.6606 1024.09 45.156 L1024.09 50.1907 Q1021.23 51.406 1018.22 52.0425 Q1015.21 52.6791 1012.11 52.6791 Q1004.36 52.6791 999.814 48.1653 Q995.3 43.6514 995.3 35.9547 Q995.3 27.9975 999.582 23.339 Q1003.89 18.6515 1011.19 18.6515 Q1017.72 18.6515 1021.52 22.876 Q1025.33 27.0716 1025.33 34.3054 M1020.01 32.7429 Q1019.95 28.3737 1017.55 25.7695 Q1015.18 23.1654 1011.24 23.1654 Q1006.79 23.1654 1004.1 25.6827 Q1001.43 28.2001 1001.03 32.7718 L1020.01 32.7429 Z" fill="#000000" fill-rule="nonzero" fill-opacity="1" /><path clip-path="url(#clip760)" d="M1074.23 24.3517 L1074.23 6.81709 L1079.56 6.81709 L1079.56 51.84 L1074.23 51.84 L1074.23 46.9789 Q1072.56 49.8724 1069.98 51.2902 Q1067.43 52.6791 1063.85 52.6791 Q1057.97 52.6791 1054.27 47.9916 Q1050.59 43.3042 1050.59 35.6653 Q1050.59 28.0265 1054.27 23.339 Q1057.97 18.6515 1063.85 18.6515 Q1067.43 18.6515 1069.98 20.0693 Q1072.56 21.4582 1074.23 24.3517 M1056.09 35.6653 Q1056.09 41.5391 1058.49 44.8956 Q1060.92 48.2231 1065.15 48.2231 Q1069.37 48.2231 1071.8 44.8956 Q1074.23 41.5391 1074.23 35.6653 Q1074.23 29.7915 1071.8 26.464 Q1069.37 23.1075 1065.15 23.1075 Q1060.92 23.1075 1058.49 26.464 Q1056.09 29.7915 1056.09 35.6653 Z" fill="#000000" fill-rule="nonzero" fill-opacity="1" /><path clip-path="url(#clip760)" d="M1118.24 34.3054 L1118.24 36.9095 L1093.77 36.9095 Q1094.11 42.4072 1097.06 45.3007 Q1100.04 48.1653 1105.34 48.1653 Q1108.41 48.1653 1111.27 47.4129 Q1114.17 46.6606 1117 45.156 L1117 50.1907 Q1114.14 51.406 1111.13 52.0425 Q1108.12 52.6791 1105.02 52.6791 Q1097.27 52.6791 1092.72 48.1653 Q1088.21 43.6514 1088.21 35.9547 Q1088.21 27.9975 1092.49 23.339 Q1096.8 18.6515 1104.1 18.6515 Q1110.63 18.6515 1114.43 22.876 Q1118.24 27.0716 1118.24 34.3054 M1112.92 32.7429 Q1112.86 28.3737 1110.46 25.7695 Q1108.09 23.1654 1104.15 23.1654 Q1099.7 23.1654 1097.01 25.6827 Q1094.34 28.2001 1093.94 32.7718 L1112.92 32.7429 Z" fill="#000000" fill-rule="nonzero" fill-opacity="1" /><path clip-path="url(#clip760)" d="M1143.39 6.81709 L1143.39 11.2442 L1138.3 11.2442 Q1135.43 11.2442 1134.3 12.4016 Q1133.2 13.559 1133.2 16.5682 L1133.2 19.4328 L1141.97 19.4328 L1141.97 23.5705 L1133.2 23.5705 L1133.2 51.84 L1127.85 51.84 L1127.85 23.5705 L1122.76 23.5705 L1122.76 19.4328 L1127.85 19.4328 L1127.85 17.1758 Q1127.85 11.765 1130.37 9.30551 Q1132.89 6.81709 1138.35 6.81709 L1143.39 6.81709 Z" fill="#000000" fill-rule="nonzero" fill-opacity="1" /><path clip-path="url(#clip760)" d="M1160.4 23.1654 Q1156.12 23.1654 1153.63 26.5218 Q1151.14 29.8494 1151.14 35.6653 Q1151.14 41.4813 1153.6 44.8377 Q1156.09 48.1653 1160.4 48.1653 Q1164.66 48.1653 1167.15 44.8088 Q1169.63 41.4523 1169.63 35.6653 Q1169.63 29.9072 1167.15 26.5508 Q1164.66 23.1654 1160.4 23.1654 M1160.4 18.6515 Q1167.35 18.6515 1171.31 23.1654 Q1175.28 27.6792 1175.28 35.6653 Q1175.28 43.6225 1171.31 48.1653 Q1167.35 52.6791 1160.4 52.6791 Q1153.43 52.6791 1149.47 48.1653 Q1145.53 43.6225 1145.53 35.6653 Q1145.53 27.6792 1149.47 23.1654 Q1153.43 18.6515 1160.4 18.6515 Z" fill="#000000" fill-rule="nonzero" fill-opacity="1" /><path clip-path="url(#clip760)" d="M1202.88 24.4096 Q1201.98 23.8888 1200.91 23.6573 Q1199.87 23.3969 1198.6 23.3969 Q1194.08 23.3969 1191.65 26.3482 Q1189.25 29.2707 1189.25 34.7683 L1189.25 51.84 L1183.9 51.84 L1183.9 19.4328 L1189.25 19.4328 L1189.25 24.4675 Q1190.93 21.5161 1193.62 20.0983 Q1196.31 18.6515 1200.16 18.6515 Q1200.71 18.6515 1201.38 18.7383 Q1202.04 18.7962 1202.85 18.9409 L1202.88 24.4096 Z" fill="#000000" fill-rule="nonzero" fill-opacity="1" /><path clip-path="url(#clip760)" d="M1232.65 25.6538 Q1234.65 22.0659 1237.43 20.3587 Q1240.21 18.6515 1243.97 18.6515 Q1249.03 18.6515 1251.78 22.2105 Q1254.53 25.7406 1254.53 32.2799 L1254.53 51.84 L1249.18 51.84 L1249.18 32.4535 Q1249.18 27.795 1247.53 25.5381 Q1245.88 23.2811 1242.49 23.2811 Q1238.35 23.2811 1235.95 26.03 Q1233.55 28.7788 1233.55 33.5241 L1233.55 51.84 L1228.2 51.84 L1228.2 32.4535 Q1228.2 27.7661 1226.55 25.5381 Q1224.9 23.2811 1221.46 23.2811 Q1217.38 23.2811 1214.97 26.0589 Q1212.57 28.8077 1212.57 33.5241 L1212.57 51.84 L1207.22 51.84 L1207.22 19.4328 L1212.57 19.4328 L1212.57 24.4675 Q1214.4 21.4872 1216.94 20.0693 Q1219.49 18.6515 1222.99 18.6515 Q1226.52 18.6515 1228.98 20.4455 Q1231.47 22.2395 1232.65 25.6538 Z" fill="#000000" fill-rule="nonzero" fill-opacity="1" /><path clip-path="url(#clip760)" d="M1279.88 35.5496 Q1273.42 35.5496 1270.94 37.0253 Q1268.45 38.501 1268.45 42.06 Q1268.45 44.8956 1270.3 46.5738 Q1272.18 48.2231 1275.39 48.2231 Q1279.82 48.2231 1282.48 45.0981 Q1285.17 41.9442 1285.17 36.7359 L1285.17 35.5496 L1279.88 35.5496 M1290.5 33.3505 L1290.5 51.84 L1285.17 51.84 L1285.17 46.921 Q1283.35 49.8724 1280.63 51.2902 Q1277.91 52.6791 1273.97 52.6791 Q1269 52.6791 1266.04 49.9014 Q1263.12 47.0947 1263.12 42.4072 Q1263.12 36.9385 1266.77 34.1607 Q1270.44 31.3829 1277.71 31.3829 L1285.17 31.3829 L1285.17 30.8621 Q1285.17 27.1874 1282.74 25.1908 Q1280.34 23.1654 1275.97 23.1654 Q1273.19 23.1654 1270.56 23.8309 Q1267.93 24.4964 1265.5 25.8274 L1265.5 20.9085 Q1268.42 19.78 1271.17 19.2302 Q1273.92 18.6515 1276.52 18.6515 Q1283.55 18.6515 1287.02 22.2973 Q1290.5 25.9431 1290.5 33.3505 Z" fill="#000000" fill-rule="nonzero" fill-opacity="1" /><path clip-path="url(#clip760)" d="M1306.73 10.2314 L1306.73 19.4328 L1317.69 19.4328 L1317.69 23.5705 L1306.73 23.5705 L1306.73 41.163 Q1306.73 45.1271 1307.8 46.2555 Q1308.9 47.384 1312.23 47.384 L1317.69 47.384 L1317.69 51.84 L1312.23 51.84 Q1306.06 51.84 1303.72 49.5541 Q1301.37 47.2393 1301.37 41.163 L1301.37 23.5705 L1297.47 23.5705 L1297.47 19.4328 L1301.37 19.4328 L1301.37 10.2314 L1306.73 10.2314 Z" fill="#000000" fill-rule="nonzero" fill-opacity="1" /><path clip-path="url(#clip760)" d="M1324.7 19.4328 L1330.02 19.4328 L1330.02 51.84 L1324.7 51.84 L1324.7 19.4328 M1324.7 6.81709 L1330.02 6.81709 L1330.02 13.559 L1324.7 13.559 L1324.7 6.81709 Z" fill="#000000" fill-rule="nonzero" fill-opacity="1" /><path clip-path="url(#clip760)" d="M1353.72 23.1654 Q1349.44 23.1654 1346.95 26.5218 Q1344.46 29.8494 1344.46 35.6653 Q1344.46 41.4813 1346.92 44.8377 Q1349.41 48.1653 1353.72 48.1653 Q1357.97 48.1653 1360.46 44.8088 Q1362.95 41.4523 1362.95 35.6653 Q1362.95 29.9072 1360.46 26.5508 Q1357.97 23.1654 1353.72 23.1654 M1353.72 18.6515 Q1360.66 18.6515 1364.63 23.1654 Q1368.59 27.6792 1368.59 35.6653 Q1368.59 43.6225 1364.63 48.1653 Q1360.66 52.6791 1353.72 52.6791 Q1346.74 52.6791 1342.78 48.1653 Q1338.85 43.6225 1338.85 35.6653 Q1338.85 27.6792 1342.78 23.1654 Q1346.74 18.6515 1353.72 18.6515 Z" fill="#000000" fill-rule="nonzero" fill-opacity="1" /><path clip-path="url(#clip760)" d="M1404.35 32.2799 L1404.35 51.84 L1399.03 51.84 L1399.03 32.4535 Q1399.03 27.8529 1397.24 25.567 Q1395.44 23.2811 1391.85 23.2811 Q1387.54 23.2811 1385.05 26.03 Q1382.57 28.7788 1382.57 33.5241 L1382.57 51.84 L1377.21 51.84 L1377.21 19.4328 L1382.57 19.4328 L1382.57 24.4675 Q1384.48 21.545 1387.05 20.0983 Q1389.66 18.6515 1393.04 18.6515 Q1398.63 18.6515 1401.49 22.1237 Q1404.35 25.567 1404.35 32.2799 Z" fill="#000000" fill-rule="nonzero" fill-opacity="1" /><path clip-path="url(#clip760)" d="M1448.54 35.5496 Q1442.09 35.5496 1439.6 37.0253 Q1437.11 38.501 1437.11 42.06 Q1437.11 44.8956 1438.96 46.5738 Q1440.84 48.2231 1444.05 48.2231 Q1448.48 48.2231 1451.14 45.0981 Q1453.83 41.9442 1453.83 36.7359 L1453.83 35.5496 L1448.54 35.5496 M1459.16 33.3505 L1459.16 51.84 L1453.83 51.84 L1453.83 46.921 Q1452.01 49.8724 1449.29 51.2902 Q1446.57 52.6791 1442.64 52.6791 Q1437.66 52.6791 1434.71 49.9014 Q1431.78 47.0947 1431.78 42.4072 Q1431.78 36.9385 1435.43 34.1607 Q1439.11 31.3829 1446.37 31.3829 L1453.83 31.3829 L1453.83 30.8621 Q1453.83 27.1874 1451.4 25.1908 Q1449 23.1654 1444.63 23.1654 Q1441.85 23.1654 1439.22 23.8309 Q1436.59 24.4964 1434.16 25.8274 L1434.16 20.9085 Q1437.08 19.78 1439.83 19.2302 Q1442.58 18.6515 1445.18 18.6515 Q1452.21 18.6515 1455.69 22.2973 Q1459.16 25.9431 1459.16 33.3505 Z" fill="#000000" fill-rule="nonzero" fill-opacity="1" /><path clip-path="url(#clip760)" d="M1475.39 10.2314 L1475.39 19.4328 L1486.36 19.4328 L1486.36 23.5705 L1475.39 23.5705 L1475.39 41.163 Q1475.39 45.1271 1476.46 46.2555 Q1477.56 47.384 1480.89 47.384 L1486.36 47.384 L1486.36 51.84 L1480.89 51.84 Q1474.72 51.84 1472.38 49.5541 Q1470.04 47.2393 1470.04 41.163 L1470.04 23.5705 L1466.13 23.5705 L1466.13 19.4328 L1470.04 19.4328 L1470.04 10.2314 L1475.39 10.2314 Z" fill="#000000" fill-rule="nonzero" fill-opacity="1" /><path clip-path="url(#clip760)" d="M1517.46 10.2314 L1517.46 19.4328 L1528.43 19.4328 L1528.43 23.5705 L1517.46 23.5705 L1517.46 41.163 Q1517.46 45.1271 1518.53 46.2555 Q1519.63 47.384 1522.96 47.384 L1528.43 47.384 L1528.43 51.84 L1522.96 51.84 Q1516.8 51.84 1514.45 49.5541 Q1512.11 47.2393 1512.11 41.163 L1512.11 23.5705 L1508.2 23.5705 L1508.2 19.4328 L1512.11 19.4328 L1512.11 10.2314 L1517.46 10.2314 Z" fill="#000000" fill-rule="nonzero" fill-opacity="1" /><path clip-path="url(#clip760)" d="M1536.12 24.9304 L1573.22 24.9304 L1573.22 29.7915 L1536.12 29.7915 L1536.12 24.9304 M1536.12 36.7359 L1573.22 36.7359 L1573.22 41.6549 L1536.12 41.6549 L1536.12 36.7359 Z" fill="#000000" fill-rule="nonzero" fill-opacity="1" /><path clip-path="url(#clip760)" d="M1643.36 46.921 L1652.91 46.921 L1652.91 13.964 L1642.52 16.0474 L1642.52 10.7233 L1652.85 8.64 L1658.69 8.64 L1658.69 46.921 L1668.24 46.921 L1668.24 51.84 L1643.36 51.84 L1643.36 46.921 Z" fill="#000000" fill-rule="nonzero" fill-opacity="1" /><path clip-path="url(#clip760)" d="M1680.05 44.4905 L1686.15 44.4905 L1686.15 51.84 L1680.05 51.84 L1680.05 44.4905 Z" fill="#000000" fill-rule="nonzero" fill-opacity="1" /><path clip-path="url(#clip760)" d="M1711.38 12.4884 Q1706.87 12.4884 1704.58 16.9444 Q1702.33 21.3714 1702.33 30.2834 Q1702.33 39.1665 1704.58 43.6225 Q1706.87 48.0495 1711.38 48.0495 Q1715.93 48.0495 1718.18 43.6225 Q1720.47 39.1665 1720.47 30.2834 Q1720.47 21.3714 1718.18 16.9444 Q1715.93 12.4884 1711.38 12.4884 M1711.38 7.85875 Q1718.65 7.85875 1722.47 13.6168 Q1726.31 19.346 1726.31 30.2834 Q1726.31 41.1919 1722.47 46.95 Q1718.65 52.6791 1711.38 52.6791 Q1704.12 52.6791 1700.27 46.95 Q1696.45 41.1919 1696.45 30.2834 Q1696.45 19.346 1700.27 13.6168 Q1704.12 7.85875 1711.38 7.85875 Z" fill="#000000" fill-rule="nonzero" fill-opacity="1" /><path clip-path="url(#clip760)" d="M1749.09 12.4884 Q1744.57 12.4884 1742.29 16.9444 Q1740.03 21.3714 1740.03 30.2834 Q1740.03 39.1665 1742.29 43.6225 Q1744.57 48.0495 1749.09 48.0495 Q1753.63 48.0495 1755.89 43.6225 Q1758.17 39.1665 1758.17 30.2834 Q1758.17 21.3714 1755.89 16.9444 Q1753.63 12.4884 1749.09 12.4884 M1749.09 7.85875 Q1756.35 7.85875 1760.17 13.6168 Q1764.02 19.346 1764.02 30.2834 Q1764.02 41.1919 1760.17 46.95 Q1756.35 52.6791 1749.09 52.6791 Q1741.82 52.6791 1737.98 46.95 Q1734.16 41.1919 1734.16 30.2834 Q1734.16 19.346 1737.98 13.6168 Q1741.82 7.85875 1749.09 7.85875 Z" fill="#000000" fill-rule="nonzero" fill-opacity="1" /><path clip-path="url(#clip760)" d="M1786.79 12.4884 Q1782.27 12.4884 1779.99 16.9444 Q1777.73 21.3714 1777.73 30.2834 Q1777.73 39.1665 1779.99 43.6225 Q1782.27 48.0495 1786.79 48.0495 Q1791.33 48.0495 1793.59 43.6225 Q1795.87 39.1665 1795.87 30.2834 Q1795.87 21.3714 1793.59 16.9444 Q1791.33 12.4884 1786.79 12.4884 M1786.79 7.85875 Q1794.05 7.85875 1797.87 13.6168 Q1801.72 19.346 1801.72 30.2834 Q1801.72 41.1919 1797.87 46.95 Q1794.05 52.6791 1786.79 52.6791 Q1779.53 52.6791 1775.68 46.95 Q1771.86 41.1919 1771.86 30.2834 Q1771.86 19.346 1775.68 13.6168 Q1779.53 7.85875 1786.79 7.85875 Z" fill="#000000" fill-rule="nonzero" fill-opacity="1" /><polyline clip-path="url(#clip761)" style="stroke:#009af9; stroke-linecap:round; stroke-linejoin:round; stroke-width:4; stroke-opacity:1; fill:none" points="318.278,994.373 322.086,988.427 325.903,982.156 329.73,975.612 333.569,968.854 337.42,961.953 341.284,954.991 345.161,948.06 349.051,941.264 352.956,934.715 356.876,928.534 360.809,922.847 364.755,917.784 368.715,913.474 372.685,910.041 376.666,907.6 380.654,906.253 384.649,906.085 388.647,907.161 392.647,909.52 396.645,913.179 400.64,918.131 404.629,924.341 408.609,931.757 412.579,940.306 416.537,949.9 420.481,960.44 424.41,971.819 428.323,983.926 432.219,996.65 436.099,1009.88 439.961,1023.51 443.806,1037.43 447.634,1051.56 451.445,1065.81 455.239,1080.09 459.017,1094.33 462.78,1108.47 466.529,1122.44 470.263,1136.2 473.983,1149.71 477.691,1162.91 481.387,1175.79 485.071,1188.32 488.745,1200.48 492.409,1212.25 496.064,1223.62 499.71,1234.58 503.348,1245.13 506.979,1255.28 510.603,1265.01 514.22,1274.34 517.831,1283.27 521.436,1291.81 525.036,1299.95 528.631,1307.72 532.221,1315.11 535.807,1322.13 539.388,1328.78 542.965,1335.06 546.538,1340.99 550.108,1346.55 553.673,1351.76 557.236,1356.6 560.795,1361.07 564.35,1365.17 567.903,1368.9 571.453,1372.24 575.001,1375.21 578.546,1377.77 582.089,1379.94 585.629,1381.71 589.169,1383.06 592.706,1383.99 596.243,1384.49 599.779,1384.56 603.313,1384.18 606.848,1383.36 610.382,1382.07 613.917,1380.31 617.452,1378.08 620.988,1375.37 624.525,1372.17 628.064,1368.48 631.604,1364.28 635.147,1359.57 638.693,1354.36 642.241,1348.63 645.794,1342.38 649.35,1335.62 652.911,1328.33 656.476,1320.52 660.047,1312.2 663.624,1303.37 667.206,1294.02 670.796,1284.18 674.392,1273.84 677.996,1263.01 681.608,1251.71 685.228,1239.94 688.856,1227.72 692.494,1215.07 696.141,1201.99 699.798,1188.5 703.464,1174.62 707.141,1160.36 710.829,1145.74 714.527,1130.78 718.236,1115.48 721.956,1099.87 725.687,1083.96 729.43,1067.76 733.184,1051.27 736.951,1034.51 740.728,1017.49 744.518,1000.2 748.32,982.651 752.135,964.842 755.962,946.773 759.802,928.441 763.656,909.844 767.523,890.982 771.405,871.853 775.303,852.46 779.216,832.81 783.146,812.915 787.094,792.794 791.06,772.479 795.047,752.01 799.056,731.448 803.087,710.867 807.142,690.366 811.223,670.065 815.33,650.109 819.464,630.67 823.626,611.944 827.816,594.149 832.033,577.517 836.276,562.288 840.542,548.697 844.828,536.962 849.132,527.268 853.449,519.758 857.774,514.519 862.102,511.585 866.429,510.932 870.75,512.484 875.062,516.125 879.36,521.706 883.642,529.054 887.906,537.983 892.149,548.296 896.371,559.795 900.57,572.283 904.745,585.568 908.898,599.465 913.027,613.801 917.135,628.417 921.221,643.169 925.286,657.931 929.333,672.596 933.362,687.079 937.375,701.311 941.374,715.245 945.36,728.852 949.334,742.119 953.297,755.047 957.252,767.652 961.198,779.956 965.137,791.99 969.069,803.788 972.994,815.385 976.914,826.816 980.827,838.111 984.734,849.299 988.635,860.4 992.529,871.432 996.418,882.405 1000.3,893.326 1004.17,904.195 1008.04,915.012 1011.9,925.77 1015.76,936.464 1019.6,947.085 1023.44,957.623 1027.27,968.07 1031.1,978.414 1034.91,988.647 1038.72,998.757 1042.53,1008.74 1046.32,1018.57 1050.11,1028.26 1053.89,1037.78 1057.66,1047.13 1061.43,1056.3 1065.19,1065.28 1068.94,1074.06 1072.69,1082.62 1076.43,1090.96 1080.16,1099.07 1083.89,1106.93 1087.61,1114.52 1091.32,1121.85 1095.03,1128.88 1098.73,1135.61 1102.43,1142.01 1106.12,1148.07 1109.8,1153.77 1113.48,1159.08 1117.15,1163.99 1120.82,1168.46 1124.48,1172.49 1128.14,1176.04 1131.79,1179.09 1135.44,1181.62 1139.09,1183.6 1142.74,1185.02 1146.38,1185.86 1150.02,1186.09 1153.66,1185.71 1157.3,1184.7 1160.94,1183.05 1164.58,1180.76 1168.22,1177.82 1171.86,1174.23 1175.51,1169.99 1179.16,1165.1 1182.82,1159.58 1186.48,1153.43 1190.14,1146.68 1193.82,1139.33 1197.5,1131.41 1201.18,1122.95 1204.88,1113.98 1208.59,1104.52 1212.3,1094.62 1216.03,1084.31 1219.76,1073.64 1223.51,1062.66 1227.27,1051.4 1231.04,1039.94 1234.82,1028.3 1238.61,1016.57 1242.42,1004.77 1246.23,992.97 1250.06,981.214 1253.89,969.546 1257.74,958.003 1261.59,946.614 1265.46,935.403 1269.33,924.381 1273.2,913.55 1277.08,902.903 1280.97,892.422 1284.86,882.079 1288.76,871.839 1292.66,861.661 1296.56,851.495 1300.46,841.292 1304.37,830.997 1308.28,820.556 1312.19,809.918 1316.1,799.032 1320.02,787.854 1323.94,776.342 1327.87,764.462 1331.8,752.188 1335.74,739.499 1339.69,726.384 1343.64,712.838 1347.6,698.864 1351.58,684.473 1355.56,669.682 1359.55,654.512 1363.55,638.989 1367.57,623.143 1371.6,607.004 1375.64,590.602 1379.69,573.966 1383.76,557.12 1387.84,540.089 1391.93,522.889 1396.04,505.536 1400.16,488.042 1404.29,470.416 1408.44,452.667 1412.6,434.806 1416.78,416.847 1420.98,398.806 1425.19,380.709 1429.41,362.587 1433.66,344.481 1437.92,326.444 1442.21,308.537 1446.51,290.837 1450.84,273.436 1455.19,256.442 1459.56,239.979 1463.95,224.193 1468.37,209.249 1472.81,195.33 1477.27,182.639 1481.75,171.384 1486.26,161.781 1490.78,154.031 1495.31,148.312 1499.85,144.762 1504.4,143.465 1508.95,144.44 1513.49,147.64 1518.02,152.952 1522.54,160.212 1527.04,169.217 1531.52,179.74 1535.97,191.548 1540.41,204.414 1544.83,218.13 1549.22,232.511 1553.6,247.404 1557.95,262.681 1562.29,278.249 1566.61,294.042 1570.92,310.018 1575.21,326.162 1579.49,342.478 1583.76,358.986 1588.02,375.724 1592.27,392.738 1596.51,410.083 1600.74,427.817 1604.97,446 1609.18,464.685 1613.38,483.921 1617.56,503.743 1621.74,524.175 1625.9,545.221 1630.04,566.871 1634.17,589.094 1638.27,611.843 1642.36,635.055 1646.42,658.654 1650.47,682.555 1654.49,706.664 1658.49,730.887 1662.46,755.127 1666.42,779.29 1670.35,803.289 1674.26,827.039 1678.14,850.464 1682.01,873.497 1685.86,896.075 1689.68,918.147 1693.49,939.666 1697.28,960.593 1701.06,980.897 1704.82,1000.55 1708.56,1019.53 1712.3,1037.83 1716.01,1055.42 1719.72,1072.3 1723.42,1088.48 1727.1,1103.93 1730.78,1118.67 1734.44,1132.71 1738.1,1146.03 1741.75,1158.67 1745.39,1170.61 1749.03,1181.88 1752.66,1192.48 1756.29,1202.44 1759.91,1211.76 1763.52,1220.46 1767.14,1228.56 1770.75,1236.07 1774.35,1243.02 1777.95,1249.4 1781.56,1255.24 1785.15,1260.56 1788.75,1265.36 1792.35,1269.66 1795.94,1273.47 1799.53,1276.8 1803.12,1279.65 1806.72,1282.04 1810.31,1283.96 1813.89,1285.42 1817.48,1286.43 1821.07,1286.98 1824.66,1287.08 1828.25,1286.72 1831.84,1285.89 1835.43,1284.6 1839.02,1282.84 1842.61,1280.6 1846.2,1277.88 1849.8,1274.67 1853.4,1270.96 1857,1266.75 1860.6,1262.03 1864.2,1256.78 1867.81,1251.02 1871.42,1244.72 1875.04,1237.88 1878.66,1230.51 1882.29,1222.59 1885.92,1214.13 1889.56,1205.13 1893.21,1195.6 1896.87,1185.54 1900.53,1174.97 1904.21,1163.9 1907.89,1152.35 1911.59,1140.36 1915.3,1127.96 1919.02,1115.17 1922.75,1102.06 1926.5,1088.67 1930.27,1075.06 1934.05,1061.3 1937.84,1047.47 1941.65,1033.64 1945.48,1019.91 1949.33,1006.36 1953.19,993.092 1957.06,980.201 1960.96,967.781 1964.86,955.925 1968.78,944.718 1972.72,934.237 1976.66,924.546 1980.61,915.698 1984.58,907.729 1988.54,900.66 1992.52,894.496 1996.49,889.227 2000.47,884.829 2004.44,881.266 2008.42,878.49 2012.39,876.446 2016.36,875.072 2020.33,874.303 2024.29,874.068 2028.24,874.296 2032.19,874.919 2036.13,875.866 2040.07,877.073 2044,878.479 2047.93,880.028 2051.85,881.672 2055.77,883.372 2059.68,885.094 2063.59,886.818 2067.5,888.529 2071.41,890.224 2075.31,891.909 2079.21,893.597 2083.12,895.31 2087.02,897.074 2090.92,898.92 2094.83,900.879 2098.73,902.985 2102.63,905.268 2106.53,907.753 2110.44,910.462 2114.34,913.407 2118.23,916.595 2122.13,920.025 2126.02,923.688 2129.91,927.569 2133.79,931.649 2137.67,935.902 2141.54,940.299 2145.41,944.812 2149.28,949.409 2153.13,954.058 2156.99,958.731 2160.83,963.399 2164.67,968.035 2168.51,972.616 2172.34,977.122 2176.17,981.534 2179.99,985.838 2183.81,990.021 2187.62,994.072 2191.43,997.982 2195.24,1001.74 2199.04,1005.35 2202.84,1008.79 2206.64,1012.05 2210.43,1015.14 2214.21,1018.02 2218,1020.69 2221.78,1023.13 2225.56,1025.32 2229.33,1027.24 2233.1,1028.87 2236.87,1030.19 2240.64,1031.16 2244.4,1031.77 2248.17,1032 2251.93,1031.82 2255.69,1031.22 2259.45,1030.18 2263.21,1028.69 2266.97,1026.73 2270.74,1024.31 2274.5,1021.41 2278.27,1018.03 2282.05,1014.19 2285.83,1009.88 2289.61,1005.13 2293.4,999.952 "/>
<polyline clip-path="url(#clip761)" style="stroke:#e26f46; stroke-linecap:round; stroke-linejoin:round; stroke-width:4; stroke-opacity:1; fill:none" points="314.96,955.608 318.825,949.366 322.69,943.358 326.555,937.644 330.42,932.284 334.286,927.331 338.151,922.839 342.016,918.855 345.881,915.42 349.746,912.574 353.611,910.349 357.476,908.771 361.341,907.866 365.206,907.65 369.071,908.139 372.936,909.344 376.801,911.271 380.667,913.927 384.532,917.311 388.397,921.424 392.262,926.261 396.127,931.815 399.992,938.075 403.857,945.027 407.722,952.651 411.587,960.924 415.452,969.816 419.317,979.295 423.182,989.319 427.048,999.847 430.913,1010.83 434.778,1022.21 438.643,1033.94 442.508,1045.95 446.373,1058.2 450.238,1070.62 454.103,1083.15 457.968,1095.74 461.833,1108.35 465.698,1120.91 469.564,1133.4 473.429,1145.78 477.294,1158 481.159,1170.05 485.024,1181.9 488.889,1193.54 492.754,1204.94 496.619,1216.11 500.484,1227.02 504.349,1237.67 508.214,1248.05 512.079,1258.16 515.945,1267.99 519.81,1277.52 523.675,1286.76 527.54,1295.68 531.405,1304.29 535.27,1312.55 539.135,1320.47 543,1328.02 546.865,1335.18 550.73,1341.95 554.595,1348.29 558.46,1354.2 562.326,1359.66 566.191,1364.65 570.056,1369.14 573.921,1373.13 577.786,1376.61 581.651,1379.55 585.516,1381.94 589.381,1383.78 593.246,1385.06 597.111,1385.77 600.976,1385.91 604.841,1385.46 608.707,1384.43 612.572,1382.82 616.437,1380.63 620.302,1377.84 624.167,1374.47 628.032,1370.51 631.897,1365.96 635.762,1360.82 639.627,1355.09 643.492,1348.76 647.357,1341.84 651.223,1334.32 655.088,1326.2 658.953,1317.48 662.818,1308.16 666.683,1298.25 670.548,1287.74 674.413,1276.65 678.278,1264.98 682.143,1252.75 686.008,1239.96 689.873,1226.65 693.738,1212.82 697.604,1198.51 701.469,1183.73 705.334,1168.52 709.199,1152.91 713.064,1136.92 716.929,1120.59 720.794,1103.94 724.659,1087.02 728.524,1069.84 732.389,1052.45 736.254,1034.86 740.119,1017.1 743.985,999.199 747.85,981.177 751.715,963.055 755.58,944.855 759.445,926.594 763.31,908.293 767.175,889.971 771.04,871.649 774.905,853.349 778.77,835.095 782.635,816.913 786.501,798.834 790.366,780.892 794.231,763.124 798.096,745.57 801.961,728.276 805.826,711.291 809.691,694.668 813.556,678.462 817.421,662.732 821.286,647.542 825.151,632.955 829.016,619.038 832.882,605.858 836.747,593.483 840.612,581.981 844.477,571.416 848.342,561.851 852.207,553.341 856.072,545.938 859.937,539.682 863.802,534.607 867.667,530.734 871.532,528.073 875.397,526.624 879.263,526.374 883.128,527.3 886.993,529.372 890.858,532.551 894.723,536.794 898.588,542.056 902.453,548.29 906.318,555.449 910.183,563.49 914.048,572.37 917.913,582.051 921.778,592.497 925.644,603.674 929.509,615.548 933.374,628.088 937.239,641.258 941.104,655.024 944.969,669.345 948.834,684.179 952.699,699.481 956.564,715.201 960.429,731.284 964.294,747.676 968.16,764.317 972.025,781.149 975.89,798.111 979.755,815.144 983.62,832.19 987.485,849.193 991.35,866.1 995.215,882.859 999.08,899.423 1002.95,915.747 1006.81,931.791 1010.68,947.515 1014.54,962.886 1018.41,977.871 1022.27,992.439 1026.14,1006.56 1030,1020.22 1033.87,1033.38 1037.73,1046.02 1041.6,1058.13 1045.46,1069.69 1049.33,1080.67 1053.19,1091.07 1057.06,1100.86 1060.92,1110.05 1064.79,1118.6 1068.65,1126.53 1072.52,1133.82 1076.38,1140.46 1080.25,1146.46 1084.11,1151.81 1087.98,1156.52 1091.84,1160.59 1095.71,1164.03 1099.57,1166.85 1103.44,1169.05 1107.3,1170.66 1111.17,1171.68 1115.03,1172.13 1118.9,1172.02 1122.76,1171.39 1126.63,1170.24 1130.49,1168.61 1134.36,1166.5 1138.22,1163.94 1142.09,1160.96 1145.95,1157.58 1149.82,1153.81 1153.68,1149.69 1157.55,1145.22 1161.41,1140.44 1165.28,1135.36 1169.14,1129.99 1173.01,1124.37 1176.87,1118.5 1180.74,1112.39 1184.6,1106.08 1188.47,1099.56 1192.33,1092.86 1196.2,1085.98 1200.06,1078.94 1203.93,1071.75 1207.79,1064.43 1211.66,1056.97 1215.52,1049.4 1219.39,1041.72 1223.26,1033.94 1227.12,1026.07 1230.99,1018.11 1234.85,1010.07 1238.72,1001.96 1242.58,993.771 1246.45,985.515 1250.31,977.186 1254.18,968.783 1258.04,960.301 1261.91,951.733 1265.77,943.07 1269.64,934.3 1273.5,925.411 1277.37,916.386 1281.23,907.209 1285.1,897.86 1288.96,888.319 1292.83,878.564 1296.69,868.573 1300.56,858.325 1304.42,847.797 1308.29,836.968 1312.15,825.819 1316.02,814.332 1319.88,802.491 1323.75,790.284 1327.61,777.701 1331.48,764.738 1335.34,751.391 1339.21,737.665 1343.07,723.567 1346.94,709.109 1350.8,694.307 1354.67,679.183 1358.53,663.762 1362.4,648.074 1366.26,632.151 1370.13,616.029 1373.99,599.745 1377.86,583.336 1381.72,566.839 1385.59,550.292 1389.45,533.728 1393.32,517.179 1397.18,500.672 1401.05,484.229 1404.91,467.871 1408.78,451.613 1412.64,435.465 1416.51,419.439 1420.37,403.542 1424.24,387.784 1428.1,372.176 1431.97,356.733 1435.83,341.476 1439.7,326.432 1443.57,311.637 1447.43,297.132 1451.3,282.969 1455.16,269.206 1459.03,255.911 1462.89,243.153 1466.76,231.007 1470.62,219.552 1474.49,208.864 1478.35,199.018 1482.22,190.088 1486.08,182.138 1489.95,175.228 1493.81,169.412 1497.68,164.73 1501.54,161.217 1505.41,158.898 1509.27,157.786 1513.14,157.888 1517,159.2 1520.87,161.712 1524.73,165.405 1528.6,170.254 1532.46,176.231 1536.33,183.299 1540.19,191.422 1544.06,200.558 1547.92,210.663 1551.79,221.694 1555.65,233.606 1559.52,246.354 1563.38,259.893 1567.25,274.182 1571.11,289.178 1574.98,304.843 1578.84,321.138 1582.71,338.029 1586.57,355.482 1590.44,373.467 1594.3,391.954 1598.17,410.915 1602.03,430.321 1605.9,450.146 1609.76,470.363 1613.63,490.942 1617.49,511.855 1621.36,533.07 1625.22,554.555 1629.09,576.274 1632.95,598.192 1636.82,620.27 1640.68,642.469 1644.55,664.745 1648.41,687.059 1652.28,709.366 1656.14,731.624 1660.01,753.789 1663.87,775.819 1667.74,797.672 1671.61,819.307 1675.47,840.686 1679.34,861.77 1683.2,882.525 1687.07,902.917 1690.93,922.915 1694.8,942.493 1698.66,961.624 1702.53,980.288 1706.39,998.464 1710.26,1016.14 1714.12,1033.29 1717.99,1049.92 1721.85,1066.02 1725.72,1081.57 1729.58,1096.58 1733.45,1111.04 1737.31,1124.96 1741.18,1138.32 1745.04,1151.13 1748.91,1163.39 1752.77,1175.11 1756.64,1186.27 1760.5,1196.89 1764.37,1206.95 1768.23,1216.46 1772.1,1225.42 1775.96,1233.82 1779.83,1241.65 1783.69,1248.93 1787.56,1255.64 1791.42,1261.78 1795.29,1267.34 1799.15,1272.33 1803.02,1276.74 1806.88,1280.57 1810.75,1283.81 1814.61,1286.46 1818.48,1288.53 1822.34,1290 1826.21,1290.89 1830.07,1291.18 1833.94,1290.88 1837.8,1289.98 1841.67,1288.5 1845.53,1286.41 1849.4,1283.73 1853.26,1280.46 1857.13,1276.59 1860.99,1272.12 1864.86,1267.06 1868.72,1261.41 1872.59,1255.16 1876.45,1248.33 1880.32,1240.92 1884.18,1232.92 1888.05,1224.36 1891.91,1215.24 1895.78,1205.58 1899.65,1195.38 1903.51,1184.66 1907.38,1173.45 1911.24,1161.77 1915.11,1149.65 1918.97,1137.12 1922.84,1124.21 1926.7,1110.97 1930.57,1097.43 1934.43,1083.64 1938.3,1069.65 1942.16,1055.52 1946.03,1041.3 1949.89,1027.06 1953.76,1012.84 1957.62,998.721 1961.49,984.758 1965.35,971.015 1969.22,957.552 1973.08,944.43 1976.95,931.706 1980.81,919.435 1984.68,907.668 1988.54,896.454 1992.41,885.835 1996.27,875.851 2000.14,866.538 2004,857.927 2007.87,850.045 2011.73,842.916 2015.6,836.56 2019.46,830.994 2023.33,826.232 2027.19,822.284 2031.06,819.159 2034.92,816.861 2038.79,815.394 2042.65,814.754 2046.52,814.94 2050.38,815.941 2054.25,817.745 2058.11,820.337 2061.98,823.692 2065.84,827.784 2069.71,832.582 2073.57,838.046 2077.44,844.135 2081.3,850.801 2085.17,857.992 2089.03,865.655 2092.9,873.732 2096.76,882.163 2100.63,890.887 2104.49,899.844 2108.36,908.973 2112.22,918.212 2116.09,927.503 2119.95,936.787 2123.82,946.008 2127.69,955.111 2131.55,964.044 2135.42,972.756 2139.28,981.201 2143.15,989.334 2147.01,997.115 2150.88,1004.51 2154.74,1011.47 2158.61,1017.99 2162.47,1024.03 2166.34,1029.56 2170.2,1034.59 2174.07,1039.08 2177.93,1043.04 2181.8,1046.46 2185.66,1049.34 2189.53,1051.67 2193.39,1053.48 2197.26,1054.75 2201.12,1055.5 2204.99,1055.75 2208.85,1055.5 2212.72,1054.76 2216.58,1053.55 2220.45,1051.87 2224.31,1049.75 2228.18,1047.19 2232.04,1044.21 2235.91,1040.81 2239.77,1037.02 2243.64,1032.85 2247.5,1028.3 2251.37,1023.41 2255.23,1018.19 2259.1,1012.67 2262.96,1006.88 2266.83,1000.84 2270.69,994.606 2274.56,988.209 2278.42,981.7 2282.29,975.128 2286.15,968.55 2290.02,962.023 "/>
<polyline clip-path="url(#clip761)" style="stroke:#3da44d; stroke-linecap:round; stroke-linejoin:round; stroke-width:4; stroke-opacity:1; fill:none" points="314.96,1003.74 318.825,998.138 322.69,992.142 326.555,985.79 330.42,979.134 334.286,972.235 338.151,965.164 342.016,958.004 345.881,950.846 349.746,943.792 353.611,936.954 357.476,930.449 361.341,924.4 365.206,918.934 369.071,914.177 372.936,910.252 376.801,907.275 380.667,905.351 384.532,904.571 388.397,905.007 392.262,906.712 396.127,909.715 399.992,914.022 403.857,919.615 407.722,926.452 411.587,934.474 415.452,943.602 419.317,953.746 423.182,964.804 427.048,976.673 430.913,989.245 434.778,1002.41 438.643,1016.08 442.508,1030.14 446.373,1044.5 450.238,1059.08 454.103,1073.79 457.968,1088.56 461.833,1103.32 465.698,1118.01 469.564,1132.56 473.429,1146.91 477.294,1161.03 481.159,1174.86 485.024,1188.37 488.889,1201.5 492.754,1214.24 496.619,1226.56 500.484,1238.43 504.349,1249.82 508.214,1260.74 512.079,1271.16 515.945,1281.08 519.81,1290.5 523.675,1299.41 527.54,1307.83 531.405,1315.77 535.27,1323.22 539.135,1330.2 543,1336.72 546.865,1342.81 550.73,1348.46 554.595,1353.68 558.46,1358.5 562.326,1362.91 566.191,1366.92 570.056,1370.53 573.921,1373.73 577.786,1376.52 581.651,1378.9 585.516,1380.84 589.381,1382.34 593.246,1383.37 597.111,1383.92 600.976,1383.96 604.841,1383.48 608.707,1382.46 612.572,1380.87 616.437,1378.7 620.302,1375.93 624.167,1372.56 628.032,1368.56 631.897,1363.93 635.762,1358.66 639.627,1352.76 643.492,1346.22 647.357,1339.05 651.223,1331.26 655.088,1322.86 658.953,1313.86 662.818,1304.28 666.683,1294.13 670.548,1283.45 674.413,1272.26 678.278,1260.58 682.143,1248.43 686.008,1235.84 689.873,1222.84 693.738,1209.46 697.604,1195.7 701.469,1181.6 705.334,1167.16 709.199,1152.42 713.064,1137.37 716.929,1122.03 720.794,1106.41 724.659,1090.5 728.524,1074.31 732.389,1057.84 736.254,1041.08 740.119,1024.02 743.985,1006.65 747.85,988.968 751.715,970.958 755.58,952.611 759.445,933.919 763.31,914.878 767.175,895.489 771.04,875.76 774.905,855.707 778.77,835.356 782.635,814.748 786.501,793.937 790.366,772.994 794.231,752.007 798.096,731.083 801.961,710.344 805.826,689.928 809.691,669.982 813.556,650.661 817.421,632.119 821.286,614.506 825.151,597.963 829.016,582.621 832.882,568.594 836.747,555.985 840.612,544.878 844.477,535.345 848.342,527.444 852.207,521.216 856.072,516.687 859.937,513.867 863.802,512.749 867.667,513.307 871.532,515.499 875.397,519.263 879.263,524.525 883.128,531.192 886.993,539.161 890.858,548.317 894.723,558.537 898.588,569.696 902.453,581.661 906.318,594.304 910.183,607.496 914.048,621.115 917.913,635.041 921.778,649.167 925.644,663.389 929.509,677.616 933.374,691.765 937.239,705.764 941.104,719.551 944.969,733.074 948.834,746.293 952.699,759.177 956.564,771.706 960.429,783.869 964.294,795.666 968.16,807.104 972.025,818.202 975.89,828.983 979.755,839.48 983.62,849.73 987.485,859.775 991.35,869.658 995.215,879.424 999.08,889.118 1002.95,898.78 1006.81,908.445 1010.68,918.142 1014.54,927.891 1018.41,937.706 1022.27,947.588 1026.14,957.534 1030,967.532 1033.87,977.566 1037.73,987.618 1041.6,997.665 1045.46,1007.69 1049.33,1017.67 1053.19,1027.6 1057.06,1037.44 1060.92,1047.21 1064.79,1056.86 1068.65,1066.41 1072.52,1075.82 1076.38,1085.07 1080.25,1094.16 1084.11,1103.04 1087.98,1111.7 1091.84,1120.09 1095.71,1128.19 1099.57,1135.95 1103.44,1143.35 1107.3,1150.33 1111.17,1156.86 1115.03,1162.9 1118.9,1168.41 1122.76,1173.36 1126.63,1177.71 1130.49,1181.44 1134.36,1184.52 1138.22,1186.92 1142.09,1188.62 1145.95,1189.61 1149.82,1189.88 1153.68,1189.41 1157.55,1188.2 1161.41,1186.25 1165.28,1183.56 1169.14,1180.14 1173.01,1176 1176.87,1171.15 1180.74,1165.6 1184.6,1159.39 1188.47,1152.53 1192.33,1145.05 1196.2,1136.99 1200.06,1128.37 1203.93,1119.24 1207.79,1109.62 1211.66,1099.57 1215.52,1089.13 1219.39,1078.34 1223.26,1067.24 1227.12,1055.89 1230.99,1044.32 1234.85,1032.58 1238.72,1020.71 1242.58,1008.76 1246.45,996.76 1250.31,984.746 1254.18,972.752 1258.04,960.804 1261.91,948.928 1265.77,937.141 1269.64,925.459 1273.5,913.891 1277.37,902.439 1281.23,891.103 1285.1,879.876 1288.96,868.746 1292.83,857.695 1296.69,846.704 1300.56,835.747 1304.42,824.796 1308.29,813.822 1312.15,802.796 1316.02,791.686 1319.88,780.466 1323.75,769.108 1327.61,757.589 1331.48,745.89 1335.34,733.992 1339.21,721.881 1343.07,709.544 1346.94,696.969 1350.8,684.145 1354.67,671.062 1358.53,657.709 1362.4,644.074 1366.26,630.146 1370.13,615.915 1373.99,601.368 1377.86,586.498 1381.72,571.297 1385.59,555.761 1389.45,539.889 1393.32,523.686 1397.18,507.16 1401.05,490.328 1404.91,473.21 1408.78,455.834 1412.64,438.238 1416.51,420.466 1420.37,402.568 1424.24,384.607 1428.1,366.65 1431.97,348.776 1435.83,331.07 1439.7,313.626 1443.57,296.545 1447.43,279.934 1451.3,263.904 1455.16,248.569 1459.03,234.042 1462.89,220.431 1466.76,207.839 1470.62,196.355 1474.49,186.056 1478.35,177.003 1482.22,169.24 1486.08,162.796 1489.95,157.684 1493.81,153.903 1497.68,151.445 1501.54,150.293 1505.41,150.425 1509.27,151.818 1513.14,154.443 1517,158.272 1520.87,163.272 1524.73,169.407 1528.6,176.634 1532.46,184.903 1536.33,194.155 1540.19,204.322 1544.06,215.328 1547.92,227.088 1551.79,239.514 1555.65,252.518 1559.52,266.014 1563.38,279.926 1567.25,294.187 1571.11,308.744 1574.98,323.556 1578.84,338.602 1582.71,353.871 1586.57,369.366 1590.44,385.103 1594.3,401.104 1598.17,417.4 1602.03,434.024 1605.9,451.014 1609.76,468.405 1613.63,486.232 1617.49,504.525 1621.36,523.308 1625.22,542.602 1629.09,562.416 1632.95,582.752 1636.82,603.602 1640.68,624.95 1644.55,646.766 1648.41,669.012 1652.28,691.641 1656.14,714.593 1660.01,737.804 1663.87,761.2 1667.74,784.703 1671.61,808.231 1675.47,831.701 1679.34,855.03 1683.2,878.135 1687.07,900.94 1690.93,923.369 1694.8,945.355 1698.66,966.836 1702.53,987.756 1706.39,1008.07 1710.26,1027.73 1714.12,1046.7 1717.99,1064.96 1721.85,1082.48 1725.72,1099.25 1729.58,1115.25 1733.45,1130.47 1737.31,1144.92 1741.18,1158.6 1745.04,1171.5 1748.91,1183.64 1752.77,1195.02 1756.64,1205.66 1760.5,1215.58 1764.37,1224.78 1768.23,1233.29 1772.1,1241.11 1775.96,1248.28 1779.83,1254.8 1783.69,1260.7 1787.56,1265.99 1791.42,1270.69 1795.29,1274.81 1799.15,1278.37 1803.02,1281.38 1806.88,1283.85 1810.75,1285.79 1814.61,1287.2 1818.48,1288.08 1822.34,1288.44 1826.21,1288.27 1830.07,1287.57 1833.94,1286.33 1837.8,1284.54 1841.67,1282.19 1845.53,1279.27 1849.4,1275.77 1853.26,1271.68 1857.13,1266.98 1860.99,1261.65 1864.86,1255.7 1868.72,1249.11 1872.59,1241.88 1876.45,1234.01 1880.32,1225.49 1884.18,1216.34 1888.05,1206.57 1891.91,1196.18 1895.78,1185.22 1899.65,1173.7 1903.51,1161.66 1907.38,1149.15 1911.24,1136.22 1915.11,1122.92 1918.97,1109.34 1922.84,1095.53 1926.7,1081.58 1930.57,1067.57 1934.43,1053.6 1938.3,1039.74 1942.16,1026.09 1946.03,1012.73 1949.89,999.745 1953.76,987.208 1957.62,975.191 1961.49,963.754 1965.35,952.951 1969.22,942.828 1973.08,933.421 1976.95,924.757 1980.81,916.855 1984.68,909.725 1988.54,903.369 1992.41,897.781 1996.27,892.948 2000.14,888.849 2004,885.459 2007.87,882.747 2011.73,880.677 2015.6,879.209 2019.46,878.301 2023.33,877.906 2027.19,877.977 2031.06,878.465 2034.92,879.319 2038.79,880.491 2042.65,881.929 2046.52,883.584 2050.38,885.41 2054.25,887.36 2058.11,889.392 2061.98,891.468 2065.84,893.552 2069.71,895.614 2073.57,897.629 2077.44,899.58 2081.3,901.453 2085.17,903.242 2089.03,904.951 2092.9,906.586 2096.76,908.164 2100.63,909.707 2104.49,911.245 2108.36,912.813 2112.22,914.451 2116.09,916.2 2119.95,918.105 2123.82,920.21 2127.69,922.552 2131.55,925.166 2135.42,928.076 2139.28,931.295 2143.15,934.822 2147.01,938.647 2150.88,942.745 2154.74,947.081 2158.61,951.615 2162.47,956.303 2166.34,961.098 2170.2,965.958 2174.07,970.843 2177.93,975.719 2181.8,980.556 2185.66,985.327 2189.53,990.008 2193.39,994.577 2197.26,999.012 2201.12,1003.29 2204.99,1007.39 2208.85,1011.29 2212.72,1014.96 2216.58,1018.38 2220.45,1021.52 2224.31,1024.36 2228.18,1026.88 2232.04,1029.04 2235.91,1030.84 2239.77,1032.25 2243.64,1033.25 2247.5,1033.82 2251.37,1033.96 2255.23,1033.63 2259.1,1032.85 2262.96,1031.58 2266.83,1029.83 2270.69,1027.58 2274.56,1024.83 2278.42,1021.59 2282.29,1017.84 2286.15,1013.61 2290.02,1008.9 "/>
<path clip-path="url(#clip760)" d="M1702.79 357.452 L2282.85 357.452 L2282.85 150.092 L1702.79 150.092  Z" fill="#ffffff" fill-rule="evenodd" fill-opacity="1"/>
<polyline clip-path="url(#clip760)" style="stroke:#000000; stroke-linecap:round; stroke-linejoin:round; stroke-width:4; stroke-opacity:1; fill:none" points="1702.79,357.452 2282.85,357.452 2282.85,150.092 1702.79,150.092 1702.79,357.452 "/>
<polyline clip-path="url(#clip760)" style="stroke:#009af9; stroke-linecap:round; stroke-linejoin:round; stroke-width:4; stroke-opacity:1; fill:none" points="1726.09,201.932 1865.9,201.932 "/>
<path clip-path="url(#clip760)" d="M1889.2 193.286 L1893.46 193.286 L1898.79 213.517 L1904.09 193.286 L1909.11 193.286 L1914.44 213.517 L1919.74 193.286 L1924 193.286 L1917.21 219.212 L1912.19 219.212 L1906.61 197.962 L1901.01 219.212 L1895.99 219.212 L1889.2 193.286 Z" fill="#000000" fill-rule="nonzero" fill-opacity="1" /><path clip-path="url(#clip760)" d="M1942.24 206.179 Q1937.07 206.179 1935.08 207.36 Q1933.09 208.54 1933.09 211.388 Q1933.09 213.656 1934.57 214.999 Q1936.08 216.318 1938.65 216.318 Q1942.19 216.318 1944.32 213.818 Q1946.47 211.295 1946.47 207.128 L1946.47 206.179 L1942.24 206.179 M1950.73 204.42 L1950.73 219.212 L1946.47 219.212 L1946.47 215.277 Q1945.01 217.638 1942.84 218.772 Q1940.66 219.883 1937.51 219.883 Q1933.53 219.883 1931.17 217.661 Q1928.83 215.415 1928.83 211.665 Q1928.83 207.29 1931.75 205.068 Q1934.69 202.846 1940.5 202.846 L1946.47 202.846 L1946.47 202.429 Q1946.47 199.49 1944.53 197.892 Q1942.61 196.272 1939.11 196.272 Q1936.89 196.272 1934.78 196.804 Q1932.68 197.337 1930.73 198.402 L1930.73 194.466 Q1933.07 193.564 1935.27 193.124 Q1937.47 192.661 1939.55 192.661 Q1945.18 192.661 1947.95 195.578 Q1950.73 198.494 1950.73 204.42 Z" fill="#000000" fill-rule="nonzero" fill-opacity="1" /><path clip-path="url(#clip760)" d="M1963.72 185.925 L1963.72 193.286 L1972.49 193.286 L1972.49 196.596 L1963.72 196.596 L1963.72 210.67 Q1963.72 213.841 1964.57 214.744 Q1965.45 215.647 1968.12 215.647 L1972.49 215.647 L1972.49 219.212 L1968.12 219.212 Q1963.19 219.212 1961.31 217.383 Q1959.44 215.531 1959.44 210.67 L1959.44 196.596 L1956.31 196.596 L1956.31 193.286 L1959.44 193.286 L1959.44 185.925 L1963.72 185.925 Z" fill="#000000" fill-rule="nonzero" fill-opacity="1" /><path clip-path="url(#clip760)" d="M2000.27 205.184 L2000.27 207.267 L1980.69 207.267 Q1980.96 211.665 1983.32 213.98 Q1985.71 216.272 1989.94 216.272 Q1992.4 216.272 1994.69 215.67 Q1997 215.068 1999.27 213.865 L1999.27 217.892 Q1996.98 218.864 1994.57 219.374 Q1992.17 219.883 1989.69 219.883 Q1983.49 219.883 1979.85 216.272 Q1976.24 212.661 1976.24 206.503 Q1976.24 200.138 1979.67 196.411 Q1983.12 192.661 1988.95 192.661 Q1994.18 192.661 1997.21 196.041 Q2000.27 199.397 2000.27 205.184 M1996.01 203.934 Q1995.96 200.439 1994.04 198.355 Q1992.14 196.272 1989 196.272 Q1985.43 196.272 1983.28 198.286 Q1981.15 200.3 1980.82 203.957 L1996.01 203.934 Z" fill="#000000" fill-rule="nonzero" fill-opacity="1" /><path clip-path="url(#clip760)" d="M2022.28 197.267 Q2021.56 196.851 2020.71 196.666 Q2019.87 196.457 2018.86 196.457 Q2015.25 196.457 2013.3 198.818 Q2011.38 201.156 2011.38 205.554 L2011.38 219.212 L2007.1 219.212 L2007.1 193.286 L2011.38 193.286 L2011.38 197.314 Q2012.72 194.953 2014.87 193.818 Q2017.03 192.661 2020.11 192.661 Q2020.55 192.661 2021.08 192.73 Q2021.61 192.777 2022.26 192.892 L2022.28 197.267 Z" fill="#000000" fill-rule="nonzero" fill-opacity="1" /><path clip-path="url(#clip760)" d="M2039.34 193.286 L2043.6 193.286 L2048.93 213.517 L2054.23 193.286 L2059.25 193.286 L2064.57 213.517 L2069.87 193.286 L2074.13 193.286 L2067.35 219.212 L2062.33 219.212 L2056.75 197.962 L2051.15 219.212 L2046.12 219.212 L2039.34 193.286 Z" fill="#000000" fill-rule="nonzero" fill-opacity="1" /><path clip-path="url(#clip760)" d="M2092.37 206.179 Q2087.21 206.179 2085.22 207.36 Q2083.23 208.54 2083.23 211.388 Q2083.23 213.656 2084.71 214.999 Q2086.22 216.318 2088.79 216.318 Q2092.33 216.318 2094.46 213.818 Q2096.61 211.295 2096.61 207.128 L2096.61 206.179 L2092.37 206.179 M2100.87 204.42 L2100.87 219.212 L2096.61 219.212 L2096.61 215.277 Q2095.15 217.638 2092.98 218.772 Q2090.8 219.883 2087.65 219.883 Q2083.67 219.883 2081.31 217.661 Q2078.97 215.415 2078.97 211.665 Q2078.97 207.29 2081.89 205.068 Q2084.83 202.846 2090.64 202.846 L2096.61 202.846 L2096.61 202.429 Q2096.61 199.49 2094.67 197.892 Q2092.74 196.272 2089.25 196.272 Q2087.03 196.272 2084.92 196.804 Q2082.81 197.337 2080.87 198.402 L2080.87 194.466 Q2083.21 193.564 2085.41 193.124 Q2087.61 192.661 2089.69 192.661 Q2095.31 192.661 2098.09 195.578 Q2100.87 198.494 2100.87 204.42 Z" fill="#000000" fill-rule="nonzero" fill-opacity="1" /><path clip-path="url(#clip760)" d="M2106.59 193.286 L2111.1 193.286 L2119.2 215.045 L2127.3 193.286 L2131.82 193.286 L2122.1 219.212 L2116.31 219.212 L2106.59 193.286 Z" fill="#000000" fill-rule="nonzero" fill-opacity="1" /><path clip-path="url(#clip760)" d="M2159.87 205.184 L2159.87 207.267 L2140.29 207.267 Q2140.57 211.665 2142.93 213.98 Q2145.31 216.272 2149.55 216.272 Q2152 216.272 2154.3 215.67 Q2156.61 215.068 2158.88 213.865 L2158.88 217.892 Q2156.59 218.864 2154.18 219.374 Q2151.77 219.883 2149.3 219.883 Q2143.09 219.883 2139.46 216.272 Q2135.85 212.661 2135.85 206.503 Q2135.85 200.138 2139.27 196.411 Q2142.72 192.661 2148.55 192.661 Q2153.79 192.661 2156.82 196.041 Q2159.87 199.397 2159.87 205.184 M2155.61 203.934 Q2155.57 200.439 2153.65 198.355 Q2151.75 196.272 2148.6 196.272 Q2145.04 196.272 2142.88 198.286 Q2140.75 200.3 2140.43 203.957 L2155.61 203.934 Z" fill="#000000" fill-rule="nonzero" fill-opacity="1" /><path clip-path="url(#clip760)" d="M2183.39 194.05 L2183.39 198.078 Q2181.59 197.152 2179.64 196.689 Q2177.7 196.226 2175.61 196.226 Q2172.44 196.226 2170.85 197.198 Q2169.27 198.17 2169.27 200.115 Q2169.27 201.596 2170.41 202.453 Q2171.54 203.286 2174.97 204.05 L2176.42 204.374 Q2180.96 205.346 2182.86 207.128 Q2184.78 208.888 2184.78 212.059 Q2184.78 215.67 2181.91 217.777 Q2179.06 219.883 2174.06 219.883 Q2171.98 219.883 2169.71 219.466 Q2167.47 219.073 2164.97 218.263 L2164.97 213.865 Q2167.33 215.091 2169.62 215.716 Q2171.91 216.318 2174.16 216.318 Q2177.17 216.318 2178.79 215.3 Q2180.41 214.258 2180.41 212.383 Q2180.41 210.647 2179.23 209.721 Q2178.07 208.795 2174.11 207.939 L2172.63 207.591 Q2168.67 206.758 2166.91 205.045 Q2165.15 203.309 2165.15 200.3 Q2165.15 196.642 2167.74 194.652 Q2170.34 192.661 2175.11 192.661 Q2177.47 192.661 2179.55 193.008 Q2181.63 193.355 2183.39 194.05 Z" fill="#000000" fill-rule="nonzero" fill-opacity="1" /><polyline clip-path="url(#clip760)" style="stroke:#e26f46; stroke-linecap:round; stroke-linejoin:round; stroke-width:4; stroke-opacity:1; fill:none" points="1726.09,253.772 1865.9,253.772 "/>
<path clip-path="url(#clip760)" d="M1914.76 266.121 L1914.76 256.839 L1907.12 256.839 L1907.12 252.996 L1919.39 252.996 L1919.39 267.834 Q1916.68 269.755 1913.42 270.751 Q1910.15 271.723 1906.45 271.723 Q1898.35 271.723 1893.76 267.001 Q1889.2 262.255 1889.2 253.806 Q1889.2 245.334 1893.76 240.612 Q1898.35 235.867 1906.45 235.867 Q1909.83 235.867 1912.86 236.7 Q1915.92 237.533 1918.49 239.154 L1918.49 244.131 Q1915.89 241.932 1912.98 240.82 Q1910.06 239.709 1906.84 239.709 Q1900.5 239.709 1897.31 243.251 Q1894.13 246.793 1894.13 253.806 Q1894.13 260.797 1897.31 264.339 Q1900.5 267.88 1906.84 267.88 Q1909.32 267.88 1911.26 267.464 Q1913.21 267.024 1914.76 266.121 Z" fill="#000000" fill-rule="nonzero" fill-opacity="1" /><path clip-path="url(#clip760)" d="M1942.77 249.107 Q1942.05 248.691 1941.19 248.506 Q1940.36 248.297 1939.34 248.297 Q1935.73 248.297 1933.79 250.658 Q1931.87 252.996 1931.87 257.394 L1931.87 271.052 L1927.58 271.052 L1927.58 245.126 L1931.87 245.126 L1931.87 249.154 Q1933.21 246.793 1935.36 245.658 Q1937.51 244.501 1940.59 244.501 Q1941.03 244.501 1941.56 244.57 Q1942.1 244.617 1942.75 244.732 L1942.77 249.107 Z" fill="#000000" fill-rule="nonzero" fill-opacity="1" /><path clip-path="url(#clip760)" d="M1968.37 257.024 L1968.37 259.107 L1948.79 259.107 Q1949.06 263.505 1951.43 265.82 Q1953.81 268.112 1958.05 268.112 Q1960.5 268.112 1962.79 267.51 Q1965.11 266.908 1967.37 265.705 L1967.37 269.732 Q1965.08 270.704 1962.68 271.214 Q1960.27 271.723 1957.79 271.723 Q1951.59 271.723 1947.95 268.112 Q1944.34 264.501 1944.34 258.343 Q1944.34 251.978 1947.77 248.251 Q1951.22 244.501 1957.05 244.501 Q1962.28 244.501 1965.31 247.881 Q1968.37 251.237 1968.37 257.024 M1964.11 255.774 Q1964.06 252.279 1962.14 250.195 Q1960.25 248.112 1957.1 248.112 Q1953.53 248.112 1951.38 250.126 Q1949.25 252.14 1948.93 255.797 L1964.11 255.774 Z" fill="#000000" fill-rule="nonzero" fill-opacity="1" /><path clip-path="url(#clip760)" d="M1997.54 257.024 L1997.54 259.107 L1977.95 259.107 Q1978.23 263.505 1980.59 265.82 Q1982.98 268.112 1987.21 268.112 Q1989.67 268.112 1991.96 267.51 Q1994.27 266.908 1996.54 265.705 L1996.54 269.732 Q1994.25 270.704 1991.84 271.214 Q1989.43 271.723 1986.96 271.723 Q1980.75 271.723 1977.12 268.112 Q1973.51 264.501 1973.51 258.343 Q1973.51 251.978 1976.94 248.251 Q1980.38 244.501 1986.22 244.501 Q1991.45 244.501 1994.48 247.881 Q1997.54 251.237 1997.54 257.024 M1993.28 255.774 Q1993.23 252.279 1991.31 250.195 Q1989.41 248.112 1986.26 248.112 Q1982.7 248.112 1980.55 250.126 Q1978.42 252.14 1978.09 255.797 L1993.28 255.774 Z" fill="#000000" fill-rule="nonzero" fill-opacity="1" /><path clip-path="url(#clip760)" d="M2026.08 255.404 L2026.08 271.052 L2021.82 271.052 L2021.82 255.543 Q2021.82 251.862 2020.38 250.033 Q2018.95 248.205 2016.08 248.205 Q2012.63 248.205 2010.64 250.404 Q2008.65 252.603 2008.65 256.399 L2008.65 271.052 L2004.37 271.052 L2004.37 245.126 L2008.65 245.126 L2008.65 249.154 Q2010.18 246.816 2012.24 245.658 Q2014.32 244.501 2017.03 244.501 Q2021.49 244.501 2023.79 247.279 Q2026.08 250.033 2026.08 255.404 Z" fill="#000000" fill-rule="nonzero" fill-opacity="1" /><path clip-path="url(#clip760)" d="M2032.42 256.168 L2044.9 256.168 L2044.9 259.964 L2032.42 259.964 L2032.42 256.168 Z" fill="#000000" fill-rule="nonzero" fill-opacity="1" /><path clip-path="url(#clip760)" d="M2051.87 236.492 L2058.16 236.492 L2073.49 265.404 L2073.49 236.492 L2078.02 236.492 L2078.02 271.052 L2071.73 271.052 L2056.4 242.14 L2056.4 271.052 L2051.87 271.052 L2051.87 236.492 Z" fill="#000000" fill-rule="nonzero" fill-opacity="1" /><path clip-path="url(#clip760)" d="M2098.93 258.019 Q2093.76 258.019 2091.77 259.2 Q2089.78 260.38 2089.78 263.228 Q2089.78 265.496 2091.26 266.839 Q2092.77 268.158 2095.34 268.158 Q2098.88 268.158 2101.01 265.658 Q2103.16 263.135 2103.16 258.968 L2103.16 258.019 L2098.93 258.019 M2107.42 256.26 L2107.42 271.052 L2103.16 271.052 L2103.16 267.117 Q2101.7 269.478 2099.53 270.612 Q2097.35 271.723 2094.2 271.723 Q2090.22 271.723 2087.86 269.501 Q2085.52 267.255 2085.52 263.505 Q2085.52 259.13 2088.44 256.908 Q2091.38 254.686 2097.19 254.686 L2103.16 254.686 L2103.16 254.269 Q2103.16 251.33 2101.22 249.732 Q2099.3 248.112 2095.8 248.112 Q2093.58 248.112 2091.47 248.644 Q2089.37 249.177 2087.42 250.242 L2087.42 246.306 Q2089.76 245.404 2091.96 244.964 Q2094.16 244.501 2096.24 244.501 Q2101.86 244.501 2104.64 247.418 Q2107.42 250.334 2107.42 256.26 Z" fill="#000000" fill-rule="nonzero" fill-opacity="1" /><path clip-path="url(#clip760)" d="M2133.25 257.788 Q2133.25 253.158 2131.33 250.612 Q2129.43 248.066 2125.99 248.066 Q2122.56 248.066 2120.64 250.612 Q2118.74 253.158 2118.74 257.788 Q2118.74 262.394 2120.64 264.941 Q2122.56 267.487 2125.99 267.487 Q2129.43 267.487 2131.33 264.941 Q2133.25 262.394 2133.25 257.788 M2137.51 267.834 Q2137.51 274.454 2134.57 277.672 Q2131.63 280.913 2125.57 280.913 Q2123.32 280.913 2121.33 280.566 Q2119.34 280.241 2117.47 279.547 L2117.47 275.404 Q2119.34 276.422 2121.17 276.908 Q2123 277.394 2124.9 277.394 Q2129.09 277.394 2131.17 275.195 Q2133.25 273.019 2133.25 268.598 L2133.25 266.492 Q2131.93 268.783 2129.87 269.917 Q2127.81 271.052 2124.94 271.052 Q2120.18 271.052 2117.26 267.417 Q2114.34 263.783 2114.34 257.788 Q2114.34 251.769 2117.26 248.135 Q2120.18 244.501 2124.94 244.501 Q2127.81 244.501 2129.87 245.635 Q2131.93 246.769 2133.25 249.061 L2133.25 245.126 L2137.51 245.126 L2137.51 267.834 Z" fill="#000000" fill-rule="nonzero" fill-opacity="1" /><path clip-path="url(#clip760)" d="M2167.84 255.404 L2167.84 271.052 L2163.58 271.052 L2163.58 255.543 Q2163.58 251.862 2162.14 250.033 Q2160.71 248.205 2157.84 248.205 Q2154.39 248.205 2152.4 250.404 Q2150.41 252.603 2150.41 256.399 L2150.41 271.052 L2146.12 271.052 L2146.12 235.033 L2150.41 235.033 L2150.41 249.154 Q2151.93 246.816 2153.99 245.658 Q2156.08 244.501 2158.79 244.501 Q2163.25 244.501 2165.55 247.279 Q2167.84 250.033 2167.84 255.404 Z" fill="#000000" fill-rule="nonzero" fill-opacity="1" /><path clip-path="url(#clip760)" d="M2193.39 249.061 L2193.39 235.033 L2197.65 235.033 L2197.65 271.052 L2193.39 271.052 L2193.39 267.163 Q2192.05 269.478 2189.99 270.612 Q2187.95 271.723 2185.08 271.723 Q2180.38 271.723 2177.42 267.973 Q2174.48 264.223 2174.48 258.112 Q2174.48 252.001 2177.42 248.251 Q2180.38 244.501 2185.08 244.501 Q2187.95 244.501 2189.99 245.635 Q2192.05 246.746 2193.39 249.061 M2178.88 258.112 Q2178.88 262.811 2180.8 265.496 Q2182.74 268.158 2186.12 268.158 Q2189.5 268.158 2191.45 265.496 Q2193.39 262.811 2193.39 258.112 Q2193.39 253.413 2191.45 250.751 Q2189.5 248.066 2186.12 248.066 Q2182.74 248.066 2180.8 250.751 Q2178.88 253.413 2178.88 258.112 Z" fill="#000000" fill-rule="nonzero" fill-opacity="1" /><path clip-path="url(#clip760)" d="M2206.42 245.126 L2210.68 245.126 L2210.68 271.052 L2206.42 271.052 L2206.42 245.126 M2206.42 235.033 L2210.68 235.033 L2210.68 240.427 L2206.42 240.427 L2206.42 235.033 Z" fill="#000000" fill-rule="nonzero" fill-opacity="1" /><polyline clip-path="url(#clip760)" style="stroke:#3da44d; stroke-linecap:round; stroke-linejoin:round; stroke-width:4; stroke-opacity:1; fill:none" points="1726.09,305.612 1865.9,305.612 "/>
<path clip-path="url(#clip760)" d="M1889.2 288.332 L1893.88 288.332 L1893.88 322.892 L1889.2 322.892 L1889.2 288.332 Z" fill="#000000" fill-rule="nonzero" fill-opacity="1" /><path clip-path="url(#clip760)" d="M1919.53 297.73 L1919.53 301.758 Q1917.72 300.832 1915.78 300.369 Q1913.83 299.906 1911.75 299.906 Q1908.58 299.906 1906.98 300.878 Q1905.41 301.85 1905.41 303.795 Q1905.41 305.276 1906.54 306.133 Q1907.68 306.966 1911.1 307.73 L1912.56 308.054 Q1917.1 309.026 1919 310.808 Q1920.92 312.568 1920.92 315.739 Q1920.92 319.35 1918.05 321.457 Q1915.2 323.563 1910.2 323.563 Q1908.12 323.563 1905.85 323.146 Q1903.6 322.753 1901.1 321.943 L1901.1 317.545 Q1903.46 318.771 1905.75 319.396 Q1908.05 319.998 1910.29 319.998 Q1913.3 319.998 1914.92 318.98 Q1916.54 317.938 1916.54 316.063 Q1916.54 314.327 1915.36 313.401 Q1914.2 312.475 1910.25 311.619 L1908.76 311.271 Q1904.81 310.438 1903.05 308.725 Q1901.29 306.989 1901.29 303.98 Q1901.29 300.322 1903.88 298.332 Q1906.47 296.341 1911.24 296.341 Q1913.6 296.341 1915.69 296.688 Q1917.77 297.035 1919.53 297.73 Z" fill="#000000" fill-rule="nonzero" fill-opacity="1" /><path clip-path="url(#clip760)" d="M1937.75 299.952 Q1934.32 299.952 1932.33 302.637 Q1930.34 305.299 1930.34 309.952 Q1930.34 314.605 1932.31 317.29 Q1934.3 319.952 1937.75 319.952 Q1941.15 319.952 1943.14 317.267 Q1945.13 314.582 1945.13 309.952 Q1945.13 305.346 1943.14 302.66 Q1941.15 299.952 1937.75 299.952 M1937.75 296.341 Q1943.3 296.341 1946.47 299.952 Q1949.64 303.563 1949.64 309.952 Q1949.64 316.318 1946.47 319.952 Q1943.3 323.563 1937.75 323.563 Q1932.17 323.563 1929 319.952 Q1925.85 316.318 1925.85 309.952 Q1925.85 303.563 1929 299.952 Q1932.17 296.341 1937.75 296.341 Z" fill="#000000" fill-rule="nonzero" fill-opacity="1" /><path clip-path="url(#clip760)" d="M1975.31 309.952 Q1975.31 305.253 1973.37 302.591 Q1971.45 299.906 1968.07 299.906 Q1964.69 299.906 1962.75 302.591 Q1960.82 305.253 1960.82 309.952 Q1960.82 314.651 1962.75 317.336 Q1964.69 319.998 1968.07 319.998 Q1971.45 319.998 1973.37 317.336 Q1975.31 314.651 1975.31 309.952 M1960.82 300.901 Q1962.17 298.586 1964.2 297.475 Q1966.26 296.341 1969.11 296.341 Q1973.83 296.341 1976.77 300.091 Q1979.74 303.841 1979.74 309.952 Q1979.74 316.063 1976.77 319.813 Q1973.83 323.563 1969.11 323.563 Q1966.26 323.563 1964.2 322.452 Q1962.17 321.318 1960.82 319.003 L1960.82 322.892 L1956.54 322.892 L1956.54 286.873 L1960.82 286.873 L1960.82 300.901 Z" fill="#000000" fill-rule="nonzero" fill-opacity="1" /><path clip-path="url(#clip760)" d="M2008.97 308.864 L2008.97 310.947 L1989.39 310.947 Q1989.67 315.345 1992.03 317.66 Q1994.41 319.952 1998.65 319.952 Q2001.1 319.952 2003.39 319.35 Q2005.71 318.748 2007.98 317.545 L2007.98 321.572 Q2005.68 322.544 2003.28 323.054 Q2000.87 323.563 1998.39 323.563 Q1992.19 323.563 1988.56 319.952 Q1984.94 316.341 1984.94 310.183 Q1984.94 303.818 1988.37 300.091 Q1991.82 296.341 1997.65 296.341 Q2002.88 296.341 2005.92 299.721 Q2008.97 303.077 2008.97 308.864 M2004.71 307.614 Q2004.67 304.119 2002.75 302.035 Q2000.85 299.952 1997.7 299.952 Q1994.13 299.952 1991.98 301.966 Q1989.85 303.98 1989.53 307.637 L2004.71 307.614 Z" fill="#000000" fill-rule="nonzero" fill-opacity="1" /><path clip-path="url(#clip760)" d="M2013.81 308.008 L2026.29 308.008 L2026.29 311.804 L2013.81 311.804 L2013.81 308.008 Z" fill="#000000" fill-rule="nonzero" fill-opacity="1" /><path clip-path="url(#clip760)" d="M2033.25 288.332 L2037.93 288.332 L2037.93 302.938 L2053.44 288.332 L2059.46 288.332 L2042.31 304.443 L2060.68 322.892 L2054.53 322.892 L2037.93 306.248 L2037.93 322.892 L2033.25 322.892 L2033.25 288.332 Z" fill="#000000" fill-rule="nonzero" fill-opacity="1" /><path clip-path="url(#clip760)" d="M2075.11 309.859 Q2069.94 309.859 2067.95 311.04 Q2065.96 312.22 2065.96 315.068 Q2065.96 317.336 2067.44 318.679 Q2068.95 319.998 2071.52 319.998 Q2075.06 319.998 2077.19 317.498 Q2079.34 314.975 2079.34 310.808 L2079.34 309.859 L2075.11 309.859 M2083.6 308.1 L2083.6 322.892 L2079.34 322.892 L2079.34 318.957 Q2077.88 321.318 2075.71 322.452 Q2073.53 323.563 2070.38 323.563 Q2066.4 323.563 2064.04 321.341 Q2061.7 319.095 2061.7 315.345 Q2061.7 310.97 2064.62 308.748 Q2067.56 306.526 2073.37 306.526 L2079.34 306.526 L2079.34 306.109 Q2079.34 303.17 2077.4 301.572 Q2075.48 299.952 2071.98 299.952 Q2069.76 299.952 2067.65 300.484 Q2065.55 301.017 2063.6 302.082 L2063.6 298.146 Q2065.94 297.244 2068.14 296.804 Q2070.34 296.341 2072.42 296.341 Q2078.05 296.341 2080.82 299.258 Q2083.6 302.174 2083.6 308.1 Z" fill="#000000" fill-rule="nonzero" fill-opacity="1" /><path clip-path="url(#clip760)" d="M2092.21 286.873 L2096.49 286.873 L2096.49 308.146 L2109.2 296.966 L2114.64 296.966 L2100.89 309.095 L2115.22 322.892 L2109.67 322.892 L2096.49 310.23 L2096.49 322.892 L2092.21 322.892 L2092.21 286.873 Z" fill="#000000" fill-rule="nonzero" fill-opacity="1" /><path clip-path="url(#clip760)" d="M2119.83 296.966 L2124.09 296.966 L2124.09 322.892 L2119.83 322.892 L2119.83 296.966 M2119.83 286.873 L2124.09 286.873 L2124.09 292.267 L2119.83 292.267 L2119.83 286.873 Z" fill="#000000" fill-rule="nonzero" fill-opacity="1" /><path clip-path="url(#clip760)" d="M2154.55 307.244 L2154.55 322.892 L2150.29 322.892 L2150.29 307.383 Q2150.29 303.702 2148.86 301.873 Q2147.42 300.045 2144.55 300.045 Q2141.1 300.045 2139.11 302.244 Q2137.12 304.443 2137.12 308.239 L2137.12 322.892 L2132.84 322.892 L2132.84 296.966 L2137.12 296.966 L2137.12 300.994 Q2138.65 298.656 2140.71 297.498 Q2142.79 296.341 2145.5 296.341 Q2149.97 296.341 2152.26 299.119 Q2154.55 301.873 2154.55 307.244 Z" fill="#000000" fill-rule="nonzero" fill-opacity="1" /><path clip-path="url(#clip760)" d="M2162.61 312.66 L2162.61 296.966 L2166.86 296.966 L2166.86 312.498 Q2166.86 316.179 2168.3 318.031 Q2169.73 319.859 2172.61 319.859 Q2176.05 319.859 2178.05 317.66 Q2180.06 315.461 2180.06 311.665 L2180.06 296.966 L2184.32 296.966 L2184.32 322.892 L2180.06 322.892 L2180.06 318.91 Q2178.51 321.271 2176.45 322.429 Q2174.41 323.563 2171.7 323.563 Q2167.23 323.563 2164.92 320.785 Q2162.61 318.007 2162.61 312.66 M2173.32 296.341 L2173.32 296.341 Z" fill="#000000" fill-rule="nonzero" fill-opacity="1" /><path clip-path="url(#clip760)" d="M2213.28 301.943 Q2214.87 299.072 2217.1 297.707 Q2219.32 296.341 2222.33 296.341 Q2226.38 296.341 2228.58 299.188 Q2230.78 302.012 2230.78 307.244 L2230.78 322.892 L2226.49 322.892 L2226.49 307.383 Q2226.49 303.656 2225.17 301.85 Q2223.86 300.045 2221.15 300.045 Q2217.84 300.045 2215.92 302.244 Q2213.99 304.443 2213.99 308.239 L2213.99 322.892 L2209.71 322.892 L2209.71 307.383 Q2209.71 303.633 2208.39 301.85 Q2207.07 300.045 2204.32 300.045 Q2201.05 300.045 2199.13 302.267 Q2197.21 304.466 2197.21 308.239 L2197.21 322.892 L2192.93 322.892 L2192.93 296.966 L2197.21 296.966 L2197.21 300.994 Q2198.67 298.609 2200.71 297.475 Q2202.74 296.341 2205.54 296.341 Q2208.37 296.341 2210.34 297.776 Q2212.33 299.211 2213.28 301.943 Z" fill="#000000" fill-rule="nonzero" fill-opacity="1" /><path clip-path="url(#clip760)" d="M2251.05 309.859 Q2245.89 309.859 2243.9 311.04 Q2241.91 312.22 2241.91 315.068 Q2241.91 317.336 2243.39 318.679 Q2244.9 319.998 2247.47 319.998 Q2251.01 319.998 2253.14 317.498 Q2255.29 314.975 2255.29 310.808 L2255.29 309.859 L2251.05 309.859 M2259.55 308.1 L2259.55 322.892 L2255.29 322.892 L2255.29 318.957 Q2253.83 321.318 2251.66 322.452 Q2249.48 323.563 2246.33 323.563 Q2242.35 323.563 2239.99 321.341 Q2237.65 319.095 2237.65 315.345 Q2237.65 310.97 2240.57 308.748 Q2243.51 306.526 2249.32 306.526 L2255.29 306.526 L2255.29 306.109 Q2255.29 303.17 2253.35 301.572 Q2251.42 299.952 2247.93 299.952 Q2245.71 299.952 2243.6 300.484 Q2241.49 301.017 2239.55 302.082 L2239.55 298.146 Q2241.89 297.244 2244.09 296.804 Q2246.29 296.341 2248.37 296.341 Q2253.99 296.341 2256.77 299.258 Q2259.55 302.174 2259.55 308.1 Z" fill="#000000" fill-rule="nonzero" fill-opacity="1" /></svg>
