<?xml version="1.0" encoding="UTF-8" standalone="no"?>
<!-- Created with Inkscape (http://www.inkscape.org/) -->

<svg
   xmlns:dc="http://purl.org/dc/elements/1.1/"
   xmlns:cc="http://creativecommons.org/ns#"
   xmlns:rdf="http://www.w3.org/1999/02/22-rdf-syntax-ns#"
   xmlns:svg="http://www.w3.org/2000/svg"
   xmlns="http://www.w3.org/2000/svg"
   xmlns:xlink="http://www.w3.org/1999/xlink"
   xmlns:sodipodi="http://sodipodi.sourceforge.net/DTD/sodipodi-0.dtd"
   xmlns:inkscape="http://www.inkscape.org/namespaces/inkscape"
   version="1.1"
   id="svg2"
   width="243"
   height="240"
   viewBox="0 0 243 240"
   sodipodi:docname="logo.svg"
   inkscape:version="0.92.3 (2405546, 2018-03-11)">
  <metadata
     id="metadata8">
    <rdf:RDF>
      <cc:Work
         rdf:about="">
        <dc:format>image/svg+xml</dc:format>
        <dc:type
           rdf:resource="http://purl.org/dc/dcmitype/StillImage" />
        <dc:title></dc:title>
      </cc:Work>
    </rdf:RDF>
  </metadata>
  <defs
     id="defs6">
    <inkscape:path-effect
       bendpath4-nodetypes="czzzzzzzc"
       bendpath2-nodetypes="czzzzzzzc"
       bendpath4="m 102.09223,147.69985 c 0,0 -3.70675,3.17895 -4.55854,4.76841 -0.8518,1.58947 2.30272,3.17894 1.45093,4.76842 -0.8518,1.58948 -5.709913,3.17895 -6.561706,4.76841 -0.851795,1.58947 2.302729,3.17894 1.450933,4.76841 -0.851795,1.58947 -5.709911,3.17895 -6.561704,4.76842 -0.851795,1.58946 2.302729,3.17893 1.450933,4.76841 -0.851796,1.58947 -5.70991,3.17895 -6.561706,4.76842 -0.851793,1.58947 -0.552224,4.76841 -0.552224,4.76841"
       bendpath3="M 81.649146,185.84716 H 177.72387"
       bendpath2="m 198.16698,147.69985 c 0,0 -3.70677,3.17895 -4.55857,4.76841 -0.85179,1.58947 2.30274,3.17894 1.45094,4.76842 -0.85179,1.58948 -5.70992,3.17895 -6.56171,4.76841 -0.85179,1.58947 2.30273,3.17894 1.45094,4.76841 -0.85179,1.58947 -5.70992,3.17895 -6.56171,4.76842 -0.8518,1.58946 2.30273,3.17893 1.45094,4.76841 -0.8518,1.58947 -5.70992,3.17895 -6.56171,4.76842 -0.8518,1.58947 -0.55223,4.76841 -0.55223,4.76841"
       bendpath1="m 102.09223,147.69985 h 96.07475"
       xx="true"
       yy="true"
       is_visible="true"
       id="path-effect9863"
       effect="envelope" />
    <linearGradient
       inkscape:collect="always"
       id="linearGradient9857">
      <stop
         style="stop-color:#9558b2;stop-opacity:1;"
         offset="0"
         id="stop9853" />
      <stop
         style="stop-color:#9558b2;stop-opacity:0;"
         offset="1"
         id="stop9855" />
    </linearGradient>
    <inkscape:path-effect
       effect="envelope"
       id="path-effect9851"
       is_visible="true"
       yy="true"
       xx="true"
       bendpath1="M 6.0922295,147.69985 H 102.16698"
       bendpath2="m 102.16698,147.69985 c 0,0 -3.706775,3.17895 -4.558568,4.76841 -0.851794,1.58947 2.30274,3.17894 1.450939,4.76842 -0.851794,1.58948 -5.709918,3.17895 -6.561711,4.76841 -0.851794,1.58947 2.302732,3.17894 1.450939,4.76841 -0.851794,1.58947 -5.709917,3.17895 -6.561712,4.76842 -0.851793,1.58946 2.302733,3.17893 1.450941,4.76841 -0.851795,1.58947 -5.709918,3.17895 -6.561713,4.76842 -0.851793,1.58947 -0.552221,4.76841 -0.552221,4.76841"
       bendpath3="M -14.350854,185.84716 H 81.723874"
       bendpath4="m 6.0922295,147.69985 c 0,0 -3.7067503,3.17895 -4.558544,4.76841 -0.85179555,1.58947 2.3027285,3.17894 1.4509328,4.76842 -0.8517956,1.58948 -5.7099111,3.17895 -6.5617039,4.76841 -0.8517957,1.58947 2.3027286,3.17894 1.4509329,4.76841 -0.8517957,1.58947 -5.7099112,3.17895 -6.5617039,4.76842 -0.8517958,1.58946 2.3027284,3.17893 1.4509328,4.76841 -0.8517958,1.58947 -5.7099102,3.17895 -6.5617062,4.76842 -0.851793,1.58947 -0.552224,4.76841 -0.552224,4.76841"
       bendpath2-nodetypes="czzzzzzzc"
       bendpath4-nodetypes="czzzzzzzc" />
    <inkscape:path-effect
       effect="envelope"
       id="path-effect9847"
       is_visible="true"
       yy="true"
       xx="true"
       bendpath1="M 122.14462,145.5 H 218.0678"
       bendpath2="m 218.0678,145.5 -4,5.32687 c -1.33333,1.77562 -3.01013,3.52191 -4,5.32687 -0.98987,1.80496 -1.33333,3.55125 -2,5.32687 -0.66667,1.77562 -1.33333,3.55125 -2,5.32687 -0.66667,1.77562 -1.33333,3.55125 -2,5.32687 -0.66667,1.77562 -1.33333,3.55125 -2,5.32687 -0.66667,1.77562 -3.33333,3.55125 -4,5.32687 -0.66667,1.77562 -6,5.32687 -6,5.32687"
       bendpath3="M 96.14462,188.11496 H 192.0678"
       bendpath4="m 122.14462,145.5 c 0,0 -1.33333,3.55125 -2,5.32687 -0.66667,1.77562 -1.01013,3.52191 -2,5.32687 -0.98987,1.80496 -2.66667,3.55125 -4,5.32687 -1.33333,1.77562 -1.01013,3.52191 -2,5.32687 -0.98987,1.80496 -1.33333,3.55125 -2,5.32687 -0.66667,1.77562 -3.33333,3.55125 -4,5.32687 -0.66667,1.77562 -1.33333,3.55125 -2,5.32687 -0.66667,1.77562 -8,5.32687 -8,5.32687"
       bendpath2-nodetypes="czzzzzzzc"
       bendpath4-nodetypes="czzzzzzzc"
       bendpath3-nodetypes="cc" />
    <inkscape:path-effect
       effect="envelope"
       id="path-effect9843"
       is_visible="true"
       yy="true"
       xx="true"
       bendpath1="M 93.901875,147.21222 H 206.04211"
       bendpath2="m 206.04211,147.21222 20,10.47675 -40,10.47676 40,16.47675 v 30.47676"
       bendpath3="M 93.901875,189.11924 H 206.04211"
       bendpath4="m 93.901875,147.21222 v 41.90702"
       bendpath2-nodetypes="ccccc" />
    <linearGradient
       inkscape:collect="always"
       xlink:href="#linearGradient9857"
       id="linearGradient9859"
       x1="47.043972"
       y1="141.00587"
       x2="46.401283"
       y2="185.3618"
       gradientUnits="userSpaceOnUse"
       gradientTransform="matrix(1.0015791,0,0,1.0015791,-0.3050439,-1.0037657)" />
    <linearGradient
       inkscape:collect="always"
       xlink:href="#linearGradient9857"
       id="linearGradient9865"
       gradientUnits="userSpaceOnUse"
       gradientTransform="matrix(1.0015791,0,0,1.0015791,95.694956,-1.0037657)"
       x1="47.043972"
       y1="141.00587"
       x2="46.401283"
       y2="185.3618" />
  </defs>
  <sodipodi:namedview
     pagecolor="#ffffff"
     bordercolor="#666666"
     borderopacity="1"
     objecttolerance="10"
     gridtolerance="10"
     guidetolerance="10"
     inkscape:pageopacity="0"
     inkscape:pageshadow="2"
     inkscape:window-width="1769"
     inkscape:window-height="850"
     id="namedview4"
     showgrid="false"
     showguides="false"
     inkscape:zoom="2.7812867"
     inkscape:cx="92.524493"
     inkscape:cy="117.41345"
     inkscape:window-x="2067"
     inkscape:window-y="66"
     inkscape:window-maximized="0"
     inkscape:current-layer="svg2"
     inkscape:lockguides="false" />
  <path
     style="fill:#000000;stroke-width:0.70531744"
     d=""
     id="path7193"
     inkscape:connector-curvature="0" />
  <path
     style="fill:#000000;stroke-width:0.70531744"
     d=""
     id="path7191"
     inkscape:connector-curvature="0" />
  <path
     style="fill:#000000;stroke-width:0.70531744"
     d=""
     id="path7189"
     inkscape:connector-curvature="0" />
  <path
     style="fill:#9558b2;fill-opacity:1;stroke:none;stroke-width:1.41063488px;stroke-linecap:butt;stroke-linejoin:miter;stroke-opacity:1"
     d="m 26.221446,71.5 19.748889,76.17428 H 57.255414 L 74.372115,85.606349 91.110648,147.67428 H 102.39573 L 122.14462,71.5 H 111.56486 L 96.75319,133.56793 79.825574,71.5 H 68.540494 L 51.612874,133.56793 36.801208,71.5 Z"
     id="path8927"
     inkscape:connector-curvature="0"
     sodipodi:nodetypes="cccccccccccccc" />
  <path
     sodipodi:nodetypes="cccccccccccccc"
     inkscape:connector-curvature="0"
     id="path9734"
     d="m 122.14462,71.5 19.74889,76.17428 h 11.28508 l 17.1167,-62.067931 16.73854,62.067931 h 11.28508 L 218.0678,71.5 H 207.48803 L 192.67636,133.56793 175.74875,71.5 H 164.46366 L 147.53605,133.56793 132.72438,71.5 Z"
     style="fill:#9558b2;fill-opacity:1;stroke:none;stroke-width:1.41063488px;stroke-linecap:butt;stroke-linejoin:miter;stroke-opacity:1" />
  <path
     sodipodi:nodetypes="cccccccccccccc"
     inkscape:connector-curvature="0"
     id="path9849"
     d="m -14.300035,185.67267 c 0.508089,-0.46548 1.008257,-0.93597 1.501564,-1.41079 0,0 3.2e-5,-3e-5 3.2e-5,-3e-5 0.952179,-0.88721 1.95398,-1.85712 3.1424591,-2.69968 0,0 6.36e-5,-4e-5 6.36e-5,-4e-5 0.6993401,-0.4958 1.5237222,-0.88332 2.3621608,-1.26096 6e-7,0 1.9e-6,0 1.9e-6,0 0,0 1.583e-4,-5e-5 1.583e-4,-5e-5 0,0 3.5e-6,0 3.5e-6,0 0,0 0,0 0,0 1.1200826,-0.50443 2.2530952,-0.95315 3.418246,-1.40843 0,0 2.357e-4,-9e-5 2.357e-4,-9e-5 0,0 0,0 0,0 1.1472891,-0.4483 2.335815,-0.89864 3.47491647,-1.37607 0,0 2.8074e-4,-4e-5 2.8074e-4,-4e-5 0.8575569,-0.35955 1.73823899,-0.73538 2.45602539,-1.22311 0,0 3.135e-4,-8.2e-4 3.135e-4,-8.2e-4 0,0 0,0 0,0 0.5069984,-0.34452 0.8593124,-0.74721 1.1193147,-1.10554 0,0 3.389e-4,1e-4 3.389e-4,1e-4 0,0 0,0 0,0 0.2963837,-0.4078 0.511967,-0.77548 0.7344975,-1.14555 0,0 1.323e-4,-3.7e-4 1.323e-4,-3.7e-4 0,0 0,0 0,0 0,0 1.2e-6,0 1.2e-6,0 0,0 0,0 0,0 0.2219272,-0.36908 0.4342715,-0.73857 0.7225158,-1.14576 0,0 1.8e-6,0 1.8e-6,0 0,0 4.347e-4,1.8e-4 4.347e-4,1.8e-4 0,0 1.8e-6,1e-5 1.8e-6,1e-5 -9e-7,-1e-5 1.8e-6,0 1.8e-6,0 0,0 0,0 0,0 0.2529654,-0.35814 0.597729,-0.76338 1.0992008,-1.10831 0,0 4.455e-4,-0.001 4.455e-4,-0.001 0,0 0,0 0,0 0,0 0,0 0,0 0.7129616,-0.49057 1.5881426,-0.86323 2.4494211,-1.22002 0,0 2.1e-6,0 2.1e-6,0 -5e-7,0 4.663e-4,5e-5 4.663e-4,5e-5 0,0 0,0 0,0 1.1487893,-0.47531 2.3290687,-0.90875 3.4973167,-1.34591 0,0 5.8e-4,-2e-4 5.8e-4,-2e-4 0,0 0,0 0,0 0,0 4e-6,0 4e-6,0 1.175082,-0.43971 2.332308,-0.87245 3.470574,-1.35718 0,0 5.54e-4,1.1e-4 5.54e-4,1.1e-4 0,0 2e-6,0 2e-6,0 0,0 10e-7,0 10e-7,0 0.851898,-0.36335 1.701565,-0.73979 2.405008,-1.23171 0,0 6.51e-4,-0.003 6.51e-4,-0.003 0,0 0,0 0,0 0.491272,-0.34345 0.837271,-0.74421 1.100465,-1.09718 0,0 8.75e-4,5.8e-4 8.75e-4,5.8e-4 0.298814,-0.39874 0.541244,-0.77223 0.791949,-1.13417 -1e-6,1e-5 2.79e-4,-8.2e-4 2.79e-4,-8.2e-4 0,0 1e-6,0 1e-6,0 0.25457,-0.36752 0.507288,-0.72878 0.840534,-1.12793 0,0 2e-6,0 2e-6,0 0,0 0.001,6.5e-4 0.001,6.5e-4 0.29129,-0.35059 0.665319,-0.7354 1.17595,-1.07105 0,0 8.05e-4,-0.003 8.05e-4,-0.003 0.719516,-0.47337 1.589801,-0.85676 2.420317,-1.22244 2e-6,0 3e-6,-1e-5 4e-6,-1e-5 0,0 7.37e-4,1.6e-4 7.37e-4,1.6e-4 0,0 3e-6,0 3e-6,0 1.117879,-0.49116 2.24374,-0.95396 3.347924,-1.43017 0,0 8.72e-4,-3.4e-4 8.72e-4,-3.4e-4 1.11657,-0.48156 2.178764,-0.95529 3.237679,-1.48497 0,0 7.97e-4,8e-5 7.97e-4,8e-5 0.796132,-0.39903 1.551439,-0.79624 2.236736,-1.28207 0,0 3e-6,-1e-5 3e-6,-1e-5 0,0 9.3e-4,-0.003 9.3e-4,-0.003 0.469129,-0.33237 0.858756,-0.70748 1.19703,-1.04117 0,0 0.0012,5.2e-4 0.0012,5.2e-4 0.397713,-0.39067 0.749157,-0.73861 1.146092,-1.10564 0,0 3e-6,-1e-5 3e-6,-1e-5 0,0 6.43e-4,-0.001 6.42e-4,-0.001 0,0 3e-6,0 3e-6,0 0.392635,-0.36303 0.793084,-0.71714 1.254963,-1.09341 0,0 0.0013,3.4e-4 0.0013,3.4e-4 0.40849,-0.33384 0.848315,-0.6663 1.369165,-0.98765 0,0 0.0022,-0.004 0.0022,-0.004 1.625594,-0.99685 3.336279,-1.91873 4.968164,-2.87363 10e-7,0 0.0011,-6e-4 0.0011,-6e-4 0,0 4e-6,0 4e-6,0 0.794491,-0.47287 1.564623,-0.93525 2.304123,-1.38804 0.231018,-0.14148 0.460145,-0.28285 0.686239,-0.4233 0.06291,-0.039 0.125732,-0.0781 0.188337,-0.11718 0.09334,-0.0582 0.208706,-0.13038 0.300523,-0.18797 3.791828,0.006 7.415536,0.008 11.218307,0.005 -0.03285,0.066 -0.06058,0.12117 -0.09461,0.18753 -0.01996,0.0389 -0.04015,0.0779 -0.06048,0.11693 -0.07314,0.14002 -0.149211,0.28107 -0.227235,0.42228 -0.250262,0.45299 -0.525279,0.91217 -0.826383,1.38431 0,0 -10e-7,1e-5 -10e-7,1e-5 0,0 -3.97e-4,6e-4 -3.97e-4,6e-4 -0.591292,0.9576 -1.251487,1.88543 -1.834833,2.8771 0,0 -0.0014,0.004 -0.0014,0.004 -0.18847,0.31727 -0.322337,0.64849 -0.413656,0.97646 2e-6,-1e-5 0,0 0,0 0,0 -6.78e-4,-2.9e-4 -6.78e-4,-2.9e-4 -0.105483,0.37375 -0.163812,0.72231 -0.210283,1.08448 0,0 -6.6e-5,9.8e-4 -6.6e-5,9.8e-4 -0.04769,0.37182 -0.07218,0.72243 -0.119871,1.09425 -2.23e-4,-1.7e-4 -4.45e-4,-3.3e-4 -6.67e-4,-4.9e-4 0,0 -3e-6,0 -3e-6,0 -0.04112,0.33045 -0.116841,0.69097 -0.27029,1.01976 0,0 -3.55e-4,0.003 -3.55e-4,0.003 -0.224444,0.4776 -0.524487,0.8766 -0.841845,1.28078 0,0 -10e-7,0 -10e-7,0 -7.6e-5,-2e-5 -1.51e-4,-4e-5 -2.27e-4,-6e-5 -0.420953,0.53559 -0.861248,1.02424 -1.326076,1.52155 0,0 -3.22e-4,3.6e-4 -3.22e-4,3.6e-4 10e-7,0 -10e-7,0 -10e-7,0 -0.460456,0.49263 -0.935956,0.97573 -1.40117,1.48352 0,0 -1e-6,0 -1e-6,0 0,0 -10e-7,0 -10e-7,0 -7.1e-5,-5e-5 -1.42e-4,-1e-4 -2.13e-4,-1.5e-4 -0.346749,0.37896 -0.713222,0.77256 -0.966836,1.23911 0,0 -3.36e-4,0.003 -3.36e-4,0.003 2e-6,0 0,0 0,0 -0.177973,0.32931 -0.249708,0.69883 -0.254722,1.03895 0,0 -6.54e-4,-7.5e-4 -6.54e-4,-7.5e-4 -0.0075,0.38764 0.04214,0.74545 0.09009,1.10752 0,0 1e-6,0 1e-6,0 0,1e-5 6.8e-5,8.5e-4 6.8e-5,8.5e-4 0.04771,0.36022 0.10434,0.72217 0.107522,1.1099 0,0 -2e-6,0 -2e-6,0 0,0 -5.96e-4,-7e-4 -5.96e-4,-7e-4 0,0 0,0 0,0 0.0043,0.34134 -0.05607,0.71619 -0.22798,1.04869 0,0 -2.76e-4,0.003 -2.76e-4,0.003 0,0 -10e-7,1e-5 -10e-7,1e-5 -0.246448,0.47407 -0.608432,0.86356 -0.961416,1.24253 0,0 -2e-6,0 -2e-6,0 -4.9e-5,-5e-5 -9.8e-5,-1e-4 -1.48e-4,-1.5e-4 0,0 -10e-7,0 -10e-7,0 -0.470077,0.50416 -0.962058,0.97959 -1.445444,1.45798 0,0 -2.07e-4,2.1e-4 -2.07e-4,2.1e-4 -0.486994,0.48198 -0.962727,0.95585 -1.419571,1.4726 -3.9e-5,-4e-5 -7.9e-5,-7e-5 -1.18e-4,-1e-4 -0.342647,0.38788 -0.681897,0.78069 -0.918162,1.25889 0,0 -1e-6,1e-5 -1e-6,1e-5 0,0 -1.78e-4,0.002 -1.78e-4,0.002 0,0 -10e-7,0 -10e-7,0 -0.164107,0.33337 -0.226665,0.70586 -0.236231,1.04517 0,0 -3.36e-4,-3.6e-4 -3.36e-4,-3.6e-4 -0.01166,0.38161 0.01795,0.75364 0.03193,1.11016 0,0 1.5e-5,4.2e-4 1.5e-5,4.2e-4 0,0 0,0 0,0 0.01429,0.36453 0.02261,0.71991 -0.02383,1.10481 0,0 -2.73e-4,-2.5e-4 -2.73e-4,-2.5e-4 -0.04006,0.33725 -0.139718,0.69418 -0.325239,1.02021 0,0 -1.34e-4,0.001 -1.34e-4,0.001 -0.258951,0.45425 -0.616043,0.86628 -0.939114,1.25464 0,0 -7.8e-5,0 -7.8e-5,0 -0.284669,0.34212 -0.547391,0.65328 -0.824524,0.99212 0.533886,-0.26584 1.473244,-0.72637 2.00713,-0.99221 0,0 2.44e-4,0 2.44e-4,0 0.782795,-0.38843 1.623506,-0.79947 2.343138,-1.25426 0,0 3.26e-4,-0.001 3.26e-4,-0.001 0.518421,-0.32756 0.940671,-0.68297 1.310593,-1.02241 0,0 4.82e-4,2.5e-4 4.82e-4,2.5e-4 0.420727,-0.38541 0.777142,-0.74263 1.133124,-1.10756 0,0 10e-7,-1e-5 10e-7,-1e-5 0,0 2.12e-4,-4.2e-4 2.12e-4,-4.2e-4 0.353654,-0.36256 0.689808,-0.72522 1.0672,-1.11437 0,0 5.83e-4,3.5e-4 5.83e-4,3.5e-4 0.329087,-0.34011 0.717191,-0.71848 1.205713,-1.05322 0,0 4.46e-4,-0.002 4.46e-4,-0.002 4e-6,0 10e-7,0 10e-7,0 0.703292,-0.48214 1.502769,-0.87462 2.319526,-1.26178 0,0 4.17e-4,10e-5 4.17e-4,10e-5 1.090429,-0.51621 2.186888,-0.98411 3.315724,-1.46038 0,0 5.46e-4,-2.1e-4 5.46e-4,-2.1e-4 1.111047,-0.46876 2.260402,-0.94175 3.365384,-1.43459 10e-7,0 2e-6,0 2e-6,0 0,0 5.28e-4,1.5e-4 5.28e-4,1.5e-4 -10e-7,0 2e-6,0 2e-6,0 0.832322,-0.37187 1.68367,-0.75747 2.402446,-1.23372 0,0 3e-6,-1e-5 3e-6,-1e-5 0,0 6.72e-4,-0.003 6.72e-4,-0.003 0.506419,-0.33532 0.88697,-0.7176 1.193467,-1.06424 0,0 9.75e-4,6.8e-4 9.75e-4,6.8e-4 0.350418,-0.39447 0.635338,-0.75643 0.927004,-1.12053 0,0 3.22e-4,-8.4e-4 3.22e-4,-8.4e-4 0.291171,-0.36348 0.574878,-0.72672 0.921078,-1.12103 0,0 0.001,7e-4 0.001,7e-4 0.302891,-0.34669 0.679917,-0.73074 1.183581,-1.06672 0,0 7.99e-4,-0.003 7.99e-4,-0.003 0.716838,-0.47854 1.565349,-0.86316 2.40037,-1.23486 0,0 3e-6,-1e-5 3e-6,-1e-5 0,0 7.35e-4,1.5e-4 7.35e-4,1.5e-4 0,0 2e-6,0 2e-6,0 1.111966,-0.49393 2.25549,-0.9588 3.379697,-1.42484 0,0 4e-6,0 4e-6,0 -10e-7,0 8.87e-4,-3.3e-4 8.87e-4,-3.3e-4 -10e-7,0 3e-6,-1e-5 3e-6,-1e-5 1.134873,-0.47046 2.245425,-0.93314 3.346534,-1.44221 0,0 8.47e-4,7e-5 8.47e-4,7e-5 10e-7,0 2e-6,0 3e-6,0 0.82444,-0.38195 1.638748,-0.77164 2.345247,-1.25425 0,0 9.65e-4,-0.003 9.65e-4,-0.003 0.491627,-0.3356 0.873272,-0.7168 1.191159,-1.05919 0,0 2e-6,0 2e-6,0 0,0 0.0012,4.6e-4 0.0012,4.6e-4 0.364688,-0.39111 0.682061,-0.7539 1.015099,-1.11664 0,0 10e-7,-1e-5 10e-7,-1e-5 0,0 5.49e-4,-9.9e-4 5.48e-4,-9.9e-4 0.335029,-0.36489 0.6688,-0.72278 1.069039,-1.11104 0,0 0.0012,3.1e-4 0.0012,3.1e-4 0,0 2e-6,0 2e-6,0 0.350693,-0.34145 0.761287,-0.70455 1.276717,-1.034 0,0 0.0022,-0.004 0.0022,-0.004 1.557799,-0.9899 3.487647,-1.98521 5.141575,-2.88286 0,0 0.0012,-5.5e-4 0.0012,-5.5e-4 0,0 3e-6,0 3e-6,0 0.851465,-0.47673 1.688808,-0.94169 2.508754,-1.39784 0.255803,-0.1424 0.512485,-0.28594 0.768352,-0.42957 0.07063,-0.0394 0.141666,-0.0792 0.213034,-0.1193 0.115446,-0.0649 0.23354,-0.13268 0.328114,-0.17789 3.723061,0.0106 7.471041,0.0342 11.15467,0.0819 -0.007,0.0188 -0.0641,0.0844 -0.1154,0.14496 0.006,-0.007 -0.10211,0.12013 -0.0957,0.11263 -0.11463,0.13458 -0.23066,0.2697 -0.34748,0.40457 -0.37544,0.43347 -0.76068,0.8661 -1.15478,1.3046 0,0 0,0 0,0 0,0 0,0 0,0 0,0 -5.8e-4,6.5e-4 -5.8e-4,6.5e-4 -0.795935,0.88558 -1.810159,1.87498 -2.463646,2.93071 0,0 -4.45e-4,7.3e-4 -4.45e-4,7.3e-4 -0.2136,0.34549 -0.267333,0.75337 -0.210515,1.11856 0,0 1.07e-4,7.1e-4 1.07e-4,7.1e-4 0.06496,0.41685 0.225325,0.78633 0.397182,1.1649 0,0 0,0 0,0 0,0 2.87e-4,6.3e-4 2.87e-4,6.3e-4 0,0 10e-7,1e-5 10e-7,1e-5 0.168812,0.37179 0.368496,0.7563 0.486622,1.17491 0,0 1.87e-4,6.8e-4 1.87e-4,6.8e-4 0.104569,0.371 0.111225,0.8021 -0.07008,1.16238 0,0 -3.27e-4,6.9e-4 -3.27e-4,6.9e-4 0,0 -10e-7,0 -10e-7,0 -0.259371,0.51493 -0.712063,0.88088 -1.166939,1.22941 0,0 0,0 0,0 0,0 -5.46e-4,4.1e-4 -5.46e-4,4.1e-4 -0.60753,0.46542 -1.25393,0.85997 -1.922157,1.25916 0,0 -5.64e-4,3.4e-4 -5.64e-4,3.4e-4 -0.658991,0.39366 -1.349642,0.7849 -1.995789,1.22186 0,0 -1e-6,0 -1e-6,0 0,0 -5.15e-4,3.4e-4 -5.15e-4,3.4e-4 0,0 -2e-6,0 -2e-6,0 -0.48595,0.32864 -0.999232,0.67953 -1.289232,1.18849 0,0 -2.94e-4,5.7e-4 -2.94e-4,5.7e-4 -0.204606,0.35956 -0.195144,0.80205 -0.0545,1.18121 0,0 1.79e-4,4.9e-4 1.79e-4,4.9e-4 0,0 10e-7,0 10e-7,0 0.160196,0.43171 0.429809,0.80855 0.692942,1.18799 0,0 0,0 0,0 0,0 3.03e-4,4.4e-4 3.03e-4,4.5e-4 0.262502,0.37851 0.539443,0.75759 0.709185,1.19014 0,0 1.71e-4,4.5e-4 1.71e-4,4.5e-4 0,0 1e-6,0 1e-6,0 0.149227,0.38051 0.169658,0.82735 -0.02937,1.18993 0,0 -2.39e-4,5e-4 -2.39e-4,5e-4 -0.282734,0.5147 -0.793301,0.86446 -1.284556,1.19199 0,0 -2e-6,0 -2e-6,0 0,0 -3.8e-4,2.4e-4 -3.8e-4,2.4e-4 -0.655717,0.43712 -1.351906,0.81424 -2.03767,1.19787 0,0 -2e-6,0 -2e-6,0 0,0 -3.63e-4,2e-4 -3.64e-4,2e-4 0,0 -2e-6,1e-5 -2e-6,1e-5 -0.688861,0.38536 -1.369355,0.76489 -2.010443,1.21324 0,0 -2.98e-4,2e-4 -2.98e-4,2e-4 0,0 -2e-6,1e-5 -2e-6,1e-5 -0.479811,0.33558 -0.967948,0.69214 -1.239422,1.21021 0,0 -2e-6,1e-5 -2e-6,1e-5 0,0 -1.57e-4,3.5e-4 -1.57e-4,3.5e-4 -0.190452,0.36375 -0.171309,0.80716 -0.03607,1.18554 0,0 10e-7,0 10e-7,0 0,0 9e-5,2.6e-4 9e-5,2.6e-4 0,0 10e-7,1e-5 10e-7,1e-5 0.153337,0.42898 0.403291,0.81169 0.629375,1.18901 0,0 10e-7,1e-5 10e-7,1e-5 1e-6,0 1.39e-4,2.4e-4 1.4e-4,2.4e-4 0.22821,0.38087 0.452821,0.75577 0.572427,1.1833 0,0 5.6e-5,2.2e-4 5.6e-5,2.2e-4 0.10486,0.37494 0.0852,0.80446 -0.126146,1.15919 0,0 -1.24e-4,2.5e-4 -1.24e-4,2.5e-4 -0.29791,0.49985 -0.797881,0.86388 -1.261198,1.20647 0,0 -10e-7,0 -2e-6,0 0,0 -1.62e-4,1.1e-4 -1.62e-4,1.1e-4 0,0 -2e-6,0 -2e-6,0 -0.62348,0.461 -1.263202,0.87894 -1.876975,1.31403 0,0 -1.28e-4,9e-5 -1.28e-4,9e-5 -0.619397,0.43907 -1.202725,0.87572 -1.748868,1.3821 0,0 -8.1e-5,7e-5 -8.1e-5,7e-5 -0.410241,0.38037 -0.802945,0.76954 -1.048626,1.28384 0,0 -2.8e-5,7e-5 -2.8e-5,7e-5 -0.411696,0.86189 -0.586051,1.87681 -0.763289,2.76559 0,0 -5e-6,3e-5 -5e-6,3e-5 -0.07911,0.48067 -0.170688,0.95345 -0.276011,1.41755 -9.02e-4,0 -10.506825,0.0101 -10.507727,0.0102 0.16433,-0.43697 0.314762,-0.88272 0.452576,-1.33646 0,0 1.1e-5,-2e-5 1.1e-5,-2e-5 0.270081,-0.82374 0.550394,-1.80807 0.969196,-2.62839 0,0 -5e-5,0 -5e-5,0 0.255511,-0.50046 0.610912,-0.90103 0.991765,-1.30326 0,0 6.2e-5,-3e-5 6.2e-5,-3e-5 0,0 10e-7,0 10e-7,0 0.505318,-0.53362 1.040044,-1.00635 1.612731,-1.48311 10e-7,0 2e-6,0 2e-6,0 0,0 1.08e-4,-9e-5 1.08e-4,-9e-5 -10e-7,0 10e-7,0 10e-7,0 0.586121,-0.48794 1.156964,-0.92606 1.743085,-1.414 0,0 1.26e-4,-3e-5 1.26e-4,-3e-5 0.432989,-0.36106 0.901451,-0.74208 1.208307,-1.22527 0,0 10e-7,-10e-6 10e-7,-10e-6 0,0 1.45e-4,-8.5e-4 1.45e-4,-8.5e-4 0.217951,-0.34357 0.284807,-0.74543 0.251613,-1.1059 0,0 1.49e-4,9e-5 1.49e-4,9e-5 -0.03741,-0.41116 -0.160885,-0.7788 -0.289306,-1.15338 0,0 0,0 0,0 -10e-7,0 -8.3e-5,-3.6e-4 -8.3e-5,-3.6e-4 -0.126846,-0.36999 -0.275129,-0.74752 -0.347746,-1.15915 0,0 10e-7,0 10e-7,0 0,0 1.65e-4,1.3e-4 1.65e-4,1.3e-4 0,0 -10e-7,-1e-5 -10e-7,-1e-5 -0.06466,-0.36359 -0.03737,-0.78023 0.158745,-1.1326 0,0 1.9e-4,-0.001 1.9e-4,-0.001 0.280727,-0.50329 0.735204,-0.87428 1.186286,-1.22973 0,0 2.23e-4,0 2.23e-4,0 0.602337,-0.47429 1.236198,-0.88948 1.880648,-1.31089 0,0 3.1e-4,-1.9e-4 3.11e-4,-1.9e-4 0.640712,-0.41896 1.29235,-0.83276 1.910166,-1.29446 0,0 1e-6,0 1e-6,0 0,0 2.86e-4,1e-5 2.86e-4,1e-5 0.463294,-0.34656 0.942664,-0.71121 1.23546,-1.21093 0,0 2.88e-4,-0.002 2.88e-4,-0.002 0,0 1e-6,-10e-6 1e-6,-10e-6 0.205238,-0.35128 0.230731,-0.77143 0.150703,-1.1374 0,0 2.67e-4,2.3e-4 2.67e-4,2.3e-4 -0.09002,-0.41605 -0.267767,-0.78845 -0.433543,-1.16023 0,0 -1e-6,0 -1e-6,0 0,0 -1.99e-4,-6.9e-4 -1.99e-4,-6.9e-4 0,0 -10e-7,0 -10e-7,0 -0.166216,-0.37279 -0.337605,-0.7428 -0.418834,-1.15819 9.8e-5,8e-5 1.97e-4,1.6e-4 2.95e-4,2.4e-4 -0.07226,-0.36475 -0.03702,-0.78074 0.173199,-1.12921 0,0 3.51e-4,-0.002 3.51e-4,-0.002 0.299195,-0.49429 0.78146,-0.86052 1.239839,-1.20796 0,0 3.91e-4,-2e-5 3.91e-4,-2e-5 0.607877,-0.46022 1.257151,-0.88934 1.872426,-1.31601 10e-7,0 2e-6,0 2e-6,0 0,0 4.84e-4,-3.3e-4 4.84e-4,-3.3e-4 0,0 1e-6,0 2e-6,0 0.625886,-0.43404 1.228966,-0.86237 1.801095,-1.35222 0,0 1e-6,0 1e-6,0 0,0 4.16e-4,-9e-5 4.16e-4,-9e-5 0,0 10e-7,0 10e-7,0 0.428976,-0.3677 0.851179,-0.74672 1.121361,-1.24786 0,0 3.9e-4,-0.002 3.9e-4,-0.002 0.187373,-0.34891 0.225576,-0.75445 0.188013,-1.111 0,0 3.45e-4,1.2e-4 3.45e-4,1.2e-4 -0.03695,-0.35982 -0.122389,-0.7005 -0.193665,-1.02742 -0.238903,0.32682 -0.476321,0.66167 -0.76064,1.01949 0,0 -9.61e-4,-1.6e-4 -9.61e-4,-1.6e-4 -0.279477,0.35298 -0.639625,0.75158 -1.140387,1.09457 0,0 -9.62e-4,0.003 -9.62e-4,0.003 -0.716302,0.49083 -1.574593,0.87031 -2.43316,1.23697 0,0 -9.2e-4,2e-5 -9.2e-4,2e-5 -1.147028,0.48897 -2.312787,0.92874 -3.492263,1.37492 0,0 -9.45e-4,3.3e-4 -9.45e-4,3.3e-4 0,0 0,0 -10e-7,0 -1.174897,0.44444 -2.355645,0.88415 -3.508802,1.36565 0,0 -7.86e-4,-9e-5 -7.86e-4,-9e-5 -0.864249,0.36155 -1.738942,0.73774 -2.46069,1.22655 0,0 -7.93e-4,0.003 -7.93e-4,0.003 -0.506306,0.34274 -0.864101,0.74266 -1.135293,1.09718 0,0 -9.36e-4,-5.7e-4 -9.36e-4,-5.7e-4 -0.309701,0.40286 -0.549483,0.77094 -0.798616,1.13719 0,0 -2e-6,0 -2e-6,0 10e-7,0 -2.73e-4,8.1e-4 -2.74e-4,8.1e-4 0,0 1e-6,0 1e-6,0 -0.250238,0.36787 -0.494383,0.73242 -0.816322,1.13519 0,0 -8.94e-4,-5.8e-4 -8.94e-4,-5.8e-4 -0.281517,0.35383 -0.649803,0.74824 -1.163474,1.08837 0,0 -3e-6,1e-5 -3e-6,1e-5 10e-7,-1e-5 -6.75e-4,0.003 -6.75e-4,0.003 -0.72785,0.48223 -1.609925,0.86078 -2.466593,1.2233 0,0 -5.55e-4,-1.3e-4 -5.55e-4,-1.3e-4 0,0 -3e-6,-1e-5 -3e-6,-1e-5 -1.134571,0.47931 -2.327154,0.93977 -3.465012,1.39326 0,0 -5.65e-4,2e-4 -5.65e-4,2e-4 -1.16083,0.46264 -2.284405,0.91781 -3.39892,1.42702 0,0 -4.31e-4,-1e-4 -4.31e-4,-1e-4 -0.834846,0.38194 -1.650245,0.77092 -2.356359,1.26005 0,0 -4.48e-4,0.002 -4.48e-4,0.002 -0.49014,0.33938 -0.866876,0.72746 -1.178411,1.07252 0,0 -5.63e-4,-3.4e-4 -5.63e-4,-3.4e-4 0,0 -3e-6,0 -3e-6,0 -0.357474,0.39499 -0.669413,0.76011 -1.00167,1.12506 0,0 -10e-7,0 -10e-7,0 0,0 -1.97e-4,4.3e-4 -1.97e-4,4.3e-4 0,0 -2e-6,0 -2e-6,0 -0.334517,0.36742 -0.671244,0.72672 -1.079191,1.11682 0,0 -4.77e-4,-2.5e-4 -4.77e-4,-2.5e-4 -0.358657,0.34357 -0.777149,0.7055 -1.301429,1.03562 0,0 -3.28e-4,0.001 -3.28e-4,0.001 0,0 -3e-6,1e-5 -3e-6,1e-5 -0.727305,0.45806 -1.586873,0.8659 -2.383659,1.25032 0,0 -2.48e-4,-1e-5 -2.48e-4,-1e-5 -1.132903,0.54633 -2.112199,1.00652 -3.211504,1.55663 0,0 -4e-6,0 -4e-6,0 1e-6,0 -2.05e-4,1e-4 -2.05e-4,1e-4 0,0 -2e-6,0 -2e-6,0 -1.065774,0.53333 -2.0602,1.05667 -3.062854,1.63352 0,0 -2e-6,0 -2e-6,0 0,0 -1.33e-4,3e-5 -1.33e-4,3e-5 0,0 -3e-6,0 -3e-6,0 -0.765538,0.44051 -1.439687,0.84908 -2.13634,1.33546 0,0 -1.6e-5,0 -1.6e-5,0 -1.169493,0.81644 -2.26497,1.6425 -3.409864,2.42823 0,0 -3.8e-5,3e-5 -3.8e-5,3e-5 -0.600494,0.41369 -1.214252,0.819 -1.842323,1.21525 7.63e-4,0 -11.224811,-8e-5 -11.225575,-8e-5 0.20183,-0.39642 0.39,-0.80148 0.565792,-1.21436 0,0 1.2e-5,-3e-5 1.2e-5,-3e-5 0.33817,-0.7842 0.63079,-1.60608 0.994672,-2.41735 0,0 -5e-5,0 -5e-5,0 0.216824,-0.4834 0.457725,-0.8901 0.738916,-1.33003 0,0 3.9e-5,-4e-5 3.9e-5,-4e-5 0,0 1e-6,0 1e-6,0 0.367225,-0.57449 0.754149,-1.10169 1.177359,-1.63657 1e-6,0 1e-6,0 1e-6,0 0,0 7.5e-5,-1e-4 7.5e-5,-1e-4 0,0 1e-6,0 1e-6,0 0.43076,-0.54442 0.846961,-1.02666 1.304298,-1.56916 0,0 7.9e-5,0 7.9e-5,0 0.326981,-0.38796 0.688057,-0.79937 0.949895,-1.25416 0,0 2e-6,-1e-5 2e-6,-1e-5 0,0 1.34e-4,-0.001 1.34e-4,-0.001 0.187541,-0.32633 0.288103,-0.68401 0.328399,-1.02166 0,0 2.73e-4,2.5e-4 2.73e-4,2.5e-4 0.0467,-0.38534 0.03808,-0.74094 0.02351,-1.10563 0,0 10e-7,0 10e-7,0 -10e-7,-1e-5 -1.6e-5,-4.3e-4 -1.6e-5,-4.3e-4 -0.01425,-0.35677 -0.04422,-0.72884 -0.03237,-1.111 0,0 2e-6,0 2e-6,0 0,0 3.35e-4,3.6e-4 3.35e-4,3.6e-4 0,0 0,0 0,0 0.0097,-0.33973 0.07312,-0.71298 0.239209,-1.04668 0,0 1.81e-4,-0.002 1.81e-4,-0.002 0.239082,-0.47864 0.58233,-0.87111 0.92891,-1.25843 4e-5,3e-5 8.1e-5,7e-5 1.21e-4,1e-4 0.46211,-0.51603 0.943283,-0.98889 1.43579,-1.4698 0,0 2.1e-4,-2.1e-4 2.11e-4,-2.1e-4 0.488859,-0.47735 0.986424,-0.95172 1.461844,-1.45512 0,0 0,0 0,0 5.1e-5,6e-5 1.02e-4,1.1e-4 1.53e-4,1.6e-4 0.35699,-0.37839 0.723125,-0.76746 0.972452,-1.24198 0,0 2.78e-4,-0.003 2.78e-4,-0.003 0,0 10e-7,-2e-5 10e-7,-2e-5 0.173934,-0.33283 0.235114,-0.70848 0.230893,-1.05025 0,0 5.98e-4,7e-4 5.98e-4,7e-4 -0.0031,-0.38824 -0.06026,-0.75035 -0.108471,-1.11078 0,0 0,0 0,0 0,0 -6.9e-5,-8.5e-4 -6.9e-5,-8.5e-4 0,0 -1e-6,0 -1e-6,0 -0.04845,-0.36225 -0.0987,-0.72029 -0.09116,-1.10842 0,0 6.54e-4,7.4e-4 6.54e-4,7.4e-4 0.005,-0.34056 0.0775,-0.71093 0.257476,-1.04057 0,0 3.39e-4,-0.003 3.39e-4,-0.003 0.256456,-0.46708 0.627046,-0.86016 0.977849,-1.23857 7.2e-5,5e-5 1.45e-4,10e-5 2.17e-4,1.5e-4 0.470617,-0.50701 0.951773,-0.98895 1.417894,-1.48044 1e-6,0 1e-6,0 1e-6,0 0,0 3.26e-4,-3.6e-4 3.26e-4,-3.6e-4 -1e-6,0 10e-7,0 10e-7,0 0.470524,-0.49614 0.916476,-0.98367 1.342977,-1.51839 0,0 1e-6,0 1e-6,0 7.6e-5,2e-5 1.53e-4,4e-5 2.3e-4,6e-5 0,0 1e-6,0 1e-6,0 0.321474,-0.40345 0.625811,-0.80218 0.853145,-1.28018 0,0 3.59e-4,-0.003 3.59e-4,-0.003 0.155485,-0.32917 0.231911,-0.69051 0.272949,-1.02144 2.23e-4,1.6e-4 4.47e-4,3.3e-4 6.71e-4,4.9e-4 0.04343,-0.33829 0.06742,-0.66035 0.104478,-0.98064 -0.354894,0.32557 -0.679753,0.63823 -1.038598,0.98201 0,0 -0.0012,-5e-4 -0.0012,-5e-4 -0.342475,0.32941 -0.731442,0.69637 -1.188704,1.02459 0,0 -9.1e-4,0.003 -9.1e-4,0.003 -0.66813,0.47988 -1.394581,0.87938 -2.160117,1.28305 0,0 -7.61e-4,-6e-5 -7.61e-4,-6e-5 -1.018006,0.53576 -2.036123,1.02016 -3.104083,1.51398 0,0 -8.3e-4,3.6e-4 -8.3e-4,3.6e-4 0,0 -10e-7,0 -10e-7,0 -1.05619,0.48836 -2.130785,0.9653 -3.19745,1.46736 0,0 -6.91e-4,-1.6e-4 -6.91e-4,-1.6e-4 -0.793107,0.3741 -1.620098,0.76435 -2.315643,1.23236 0,0 -7.84e-4,0.003 -7.84e-4,0.003 -0.493084,0.33151 -0.86709,0.70529 -1.170323,1.04947 0,0 -0.0011,-7.3e-4 -0.0011,-7.3e-4 -0.346963,0.39184 -0.624367,0.75047 -0.905065,1.11477 0,0 -10e-7,0 -10e-7,0 10e-7,0 -3.07e-4,8.5e-4 -3.07e-4,8.5e-4 0,0 1e-6,0 1e-6,0 -0.277184,0.35973 -0.548229,0.72829 -0.868968,1.11944 0,0 -9.46e-4,-6.8e-4 -9.46e-4,-6.8e-4 -0.28206,0.34574 -0.635897,0.73187 -1.114324,1.06897 0,0 -3e-6,1e-5 -3e-6,1e-5 1e-6,-1e-5 -6.4e-4,0.003 -6.4e-4,0.003 -0.684464,0.48246 -1.494481,0.86629 -2.304341,1.23932 0,0 -5.09e-4,-1.5e-4 -5.09e-4,-1.5e-4 0,0 -2e-6,0 -2e-6,0 -1.081644,0.49738 -2.180071,0.95195 -3.288767,1.41335 0,0 -5.4e-4,2e-4 -5.4e-4,2e-4 -1.106498,0.46048 -2.212329,0.9159 -3.297273,1.41095 0,0 -4.21e-4,-1e-4 -4.21e-4,-1e-4 -0.812741,0.37134 -1.630909,0.75471 -2.318386,1.23721 0,0 -4.38e-4,0.002 -4.38e-4,0.002 -0.482192,0.33829 -0.836302,0.72654 -1.116247,1.07485 0,0 -5.24e-4,-3.2e-4 -5.24e-4,-3.2e-4 0,0 -3e-6,0 -3e-6,0 -0.318486,0.39525 -0.580102,0.76304 -0.849654,1.12683 0,0 -1e-6,0 -1e-6,0 0,0 -1.6e-4,4.2e-4 -1.6e-4,4.2e-4 0,0 -1e-6,0 -1e-6,0 -0.271602,0.36654 -0.538548,0.72874 -0.875069,1.125 0,0 -4.24e-4,-2.2e-4 -4.24e-4,-2.2e-4 -0.295033,0.34811 -0.664078,0.72915 -1.157514,1.06516 0,0 -3.09e-4,0.001 -3.09e-4,0.001 0,0 -3e-6,1e-5 -3e-6,1e-5 -0.696173,0.47409 -1.526769,0.86346 -2.3292668,1.23773 0,0 -2.491e-4,0 -2.491e-4,0 -1.0775723,0.50232 -2.1671567,0.97674 -3.2411681,1.46171 0,0 -3.3e-6,0 -3.3e-6,0 5e-7,0 -2.103e-4,9e-5 -2.103e-4,9e-5 -8e-7,0 -1.6e-6,0 -2.4e-6,0 -1.0845506,0.48973 -2.1262122,0.97098 -3.1649051,1.50363 0,0 -2.5e-6,0 -2.5e-6,0 0,0 -1.386e-4,2e-5 -1.386e-4,2e-5 0,0 -2.8e-6,0 -2.8e-6,0 -0.7792712,0.39971 -1.5290762,0.79999 -2.2026753,1.28572 0,0 -2.13e-6,-1e-5 -2.13e-6,-1e-5 -1.11910232,0.80691 -2.17943177,1.75348 -3.14855527,2.57741 0,0 -3.49e-5,3e-5 -3.49e-5,3e-5 -0.5177351,0.44919 -1.0437469,0.89315 -1.5791124,1.33119 9.61e-4,0 -10.541182,-0.0103 -10.540221,-0.0103 z"
     style="fill:url(#linearGradient9859);fill-opacity:1;stroke:none;stroke-width:0.99904543px;stroke-linecap:butt;stroke-linejoin:miter;stroke-opacity:1"
     inkscape:path-effect="#path-effect9851"
     inkscape:original-d="M -14.350854,185.84716 25.87232,147.69984 h 11.302909 l 0.486418,31.08299 33.4223,-31.08299 h 11.302919 l -0.662995,38.14732 H 71.127395 l 1.822255,-31.08301 -33.611685,31.08301 h -11.30291 l -0.297038,-31.08301 -31.492394,31.08301 z" />
  <path
     inkscape:original-d="m 81.649146,185.84716 40.223174,-38.14732 h 11.30291 l 0.48642,31.08299 33.4223,-31.08299 h 11.30292 l -0.663,38.14732 H 167.1274 l 1.82225,-31.08301 -33.61169,31.08301 h -11.3029 l -0.29704,-31.08301 -31.492397,31.08301 z"
     inkscape:path-effect="#path-effect9863"
     style="fill:url(#linearGradient9865);fill-opacity:1;stroke:none;stroke-width:0.99904543px;stroke-linecap:butt;stroke-linejoin:miter;stroke-opacity:1"
     d="m 81.604464,185.67189 c 0.106602,-0.0969 0.212635,-0.19452 0.318465,-0.29275 0.398149,-0.36957 0.790935,-0.7469 1.181223,-1.13536 0,0 4.83e-4,-4.7e-4 4.82e-4,-4.7e-4 0.953381,-0.89601 1.950482,-1.85788 3.141134,-2.68328 0,0 3e-6,0 3e-6,0 0,0 0,0 0,0 0,0 7.22e-4,-5.3e-4 7.22e-4,-5.3e-4 0.699235,-0.49572 1.523931,-0.88288 2.362532,-1.26 0,0 0,0 0,0 0,0 5.84e-4,-3.4e-4 5.84e-4,-3.4e-4 1.12056,-0.50409 2.254152,-0.95241 3.419759,-1.40726 0,0 4.91e-4,-2e-4 4.91e-4,-2e-4 1.147909,-0.44795 2.336789,-0.89783 3.476382,-1.375 0,0 0,0 0,0 0,0 4.01e-4,-2.7e-4 4.01e-4,-2.7e-4 0,0 4e-6,0 4e-6,0 0.857732,-0.35899 1.73855,-0.73424 2.456141,-1.22162 0,0 0,0 0,0 0,0 2.29e-4,3.4e-4 2.29e-4,3.4e-4 0.507621,-0.34487 0.860226,-0.74811 1.120335,-1.1069 0,0 -4e-6,-3.4e-4 -4e-6,-3.4e-4 0.295702,-0.4083 0.510433,-0.77644 0.732121,-1.14695 0,0 0,0 0,0 0,0 10e-7,-1e-5 10e-7,-1e-5 0,0 5.7e-5,-3e-5 5.7e-5,-3e-5 0.221114,-0.36955 0.432604,-0.73951 0.720204,-1.14729 0,0 -1e-5,-1.8e-4 -1e-5,-1.8e-4 0,0 0,0 0,0 0.25315,-0.3587 0.59835,-0.76463 1.10066,-1.1101 0,0 0,0 0,0 0,0 4e-5,1.1e-4 4e-5,1.1e-4 0.71285,-0.49029 1.58833,-0.86239 2.44982,-1.21854 0,0 0,0 0,0 0,0 1e-5,0 1e-5,0 0,0 0,0 0,0 0,0 10e-6,0 10e-6,0 0,0 0,0 0,0 1.14934,-0.47514 2.33028,-0.90833 3.49908,-1.34524 0,0 1.1e-4,-4e-5 1.1e-4,-4e-5 0,0 0,0 0,0 0,0 0,0 0,0 0,0 0,0 0,0 1.17566,-0.43947 2.33341,-0.87197 3.47215,-1.35657 0,0 1.9e-4,4e-5 1.9e-4,4e-5 0,0 0,0 0,0 0.85204,-0.36277 1.70187,-0.73867 2.40517,-1.2303 0,0 2.7e-4,-0.001 2.7e-4,-0.001 0.49208,-0.34398 0.83855,-0.7454 1.102,-1.09892 0,0 1e-5,0 1e-5,0 0,0 4e-4,2.7e-4 4e-4,2.7e-4 0.2983,-0.39929 0.54007,-0.77328 0.79018,-1.13565 0,0 1.5e-4,-4.3e-4 1.5e-4,-4.3e-4 0.25397,-0.36797 0.5061,-0.72965 0.83892,-1.12926 0,0 1e-5,-1e-5 1e-5,-1e-5 0,0 5.7e-4,3.8e-4 5.7e-4,3.8e-4 0,0 0,-1e-5 0,-1e-5 0.29156,-0.35101 0.66599,-0.73629 1.17726,-1.0723 0,0 5e-4,-0.002 5e-4,-0.002 0.7194,-0.4731 1.58988,-0.85605 2.42054,-1.22132 0,0 0,0 0,0 0,0 4.9e-4,1e-4 4.9e-4,1e-4 0,0 1e-5,0 1e-5,0 1.11825,-0.49102 2.24452,-0.95365 3.34907,-1.4297 0,0 6.4e-4,-2.5e-4 6.4e-4,-2.5e-4 1.11693,-0.48141 2.17946,-0.955 3.23867,-1.48461 0,0 6.2e-4,6e-5 6.2e-4,6e-5 0.79625,-0.39876 1.55171,-0.79577 2.23697,-1.28154 0,0 0,-1e-5 0,-1e-5 0,0 7.6e-4,-0.003 7.6e-4,-0.003 0.46946,-0.33268 0.85919,-0.70813 1.19746,-1.04206 0,0 0.001,4.4e-4 0.001,4.4e-4 0.39741,-0.39092 0.74852,-0.73902 1.14516,-1.10622 0,0 5.5e-4,-8.7e-4 5.5e-4,-8.7e-4 0,0 0,0 0,0 0.39233,-0.36318 0.79251,-0.71741 1.25421,-1.09381 0,0 0.001,3e-4 0.001,3e-4 0.40848,-0.33395 0.84836,-0.66655 1.36936,-0.98799 0,0 0.002,-0.004 0.002,-0.004 1.6257,-0.99689 3.33671,-1.9187 4.96882,-2.87357 0,0 0.001,-5.7e-4 0.001,-5.7e-4 0,0 1e-5,-1e-5 1e-5,-1e-5 0.79465,-0.4729 1.56495,-0.93532 2.30458,-1.38814 0.23106,-0.14149 0.46023,-0.28286 0.68638,-0.42333 0.0629,-0.039 0.12575,-0.0781 0.18837,-0.11719 0.0933,-0.0582 0.20879,-0.13042 0.30058,-0.18799 3.7918,0.006 7.41531,0.008 11.21804,0.006 -0.0328,0.0661 -0.0606,0.12117 -0.0946,0.18753 -0.0199,0.0389 -0.0401,0.0779 -0.0605,0.11692 -0.0731,0.14002 -0.14918,0.28106 -0.22719,0.42227 -0.25022,0.45298 -0.5252,0.91216 -0.82626,1.38429 0,0 0,0 0,0 0,0 0,0 0,0 0,0 -3.9e-4,5.9e-4 -3.9e-4,5.9e-4 -0.59125,0.95764 -1.25139,1.88549 -1.8347,2.87709 0,0 -0.001,0.004 -0.001,0.004 -0.18855,0.31731 -0.32254,0.64856 -0.41403,0.97657 0,0 0,0 0,0 0,0 -6e-4,-2.5e-4 -6e-4,-2.5e-4 -0.10552,0.3738 -0.16389,0.72245 -0.21038,1.08474 0,0 -6e-5,8.5e-4 -6e-5,8.5e-4 0,0 0,0 0,0 -0.0476,0.3712 -0.0723,0.72345 -0.11989,1.09465 0,0 -5.6e-4,-4.1e-4 -5.6e-4,-4.1e-4 0,0 -1e-5,1e-5 -1e-5,1e-5 -0.0413,0.33061 -0.11731,0.69133 -0.27104,1.02037 0,0 -2.8e-4,0.003 -2.8e-4,0.003 -0.22437,0.47747 -0.5243,0.87632 -0.84153,1.28032 -6e-5,-1e-5 -1.1e-4,-3e-5 -1.7e-4,-5e-5 -0.42091,0.53563 -0.86115,1.02431 -1.32592,1.52167 0,0 0,0 0,0 0,0 0,0 0,0 0,0 -2.3e-4,2.6e-4 -2.3e-4,2.6e-4 0,-1e-5 0,0 0,0 -0.4604,0.49267 -0.93583,0.97579 -1.40098,1.48361 0,0 0,0 0,0 0,0 0,0 0,0 -4e-5,-3e-5 -9e-5,-7e-5 -1.4e-4,-1e-4 0,0 0,-10e-6 0,-10e-6 -0.34654,0.37865 -0.71278,0.7719 -0.96614,1.23805 0,0 -2e-4,0.002 -2e-4,0.002 0,0 0,10e-6 0,10e-6 -0.17852,0.3296 -0.25082,0.69944 -0.25646,1.0399 0,0 -3.7e-4,-4.3e-4 -3.7e-4,-4.3e-4 -0.007,0.38802 0.0423,0.74623 0.0904,1.10874 0,0 0,0 0,0 0,0 4e-5,4.4e-4 4e-5,4.4e-4 0.0478,0.36065 0.10459,0.72306 0.10791,1.11128 0,0 -2.8e-4,-3.3e-4 -2.8e-4,-3.3e-4 0,0 0,1e-5 0,1e-5 0.004,0.34183 -0.0575,0.7172 -0.23014,1.05021 0,0 -1.1e-4,0.001 -1.1e-4,0.001 0,0 0,2e-5 0,2e-5 -0.24617,0.47361 -0.60786,0.8626 -0.96053,1.24105 0,0 0,0 0,0 0,0 -5e-5,-5e-5 -5e-5,-5e-5 -0.47001,0.5042 -0.96192,0.97967 -1.44522,1.4581 0,0 -4e-5,4e-5 -4e-5,4e-5 -0.48692,0.48201 -0.96257,0.95591 -1.41933,1.4727 0,0 0,0 0,0 -0.34229,0.38728 -0.68118,0.7795 -0.91708,1.25712 0,0 0,0 0,0 0,0 -1e-5,-1.5e-4 -1e-5,-1.5e-4 0,0 0,0 0,0 -0.165,0.33389 -0.22845,0.70693 -0.23888,1.0468 0,0 8e-5,2.2e-4 8e-5,2.2e-4 -0.0115,0.38217 0.0183,0.75478 0.0324,1.11184 0,0 0,0 0,0 0,0 1e-5,1e-5 1e-5,1e-5 0,0 0,0 0,0 0.0145,0.36507 0.0229,0.72098 -0.0233,1.10641 0,0 1.4e-4,4.2e-4 1.4e-4,4.2e-4 -0.0409,0.33773 -0.14143,0.6951 -0.32775,1.02157 0,0 -6e-5,-6e-4 -6e-5,-6e-4 -0.25857,0.45359 -0.61523,0.86497 -0.93792,1.25274 0,0 -1.9e-4,3.4e-4 -1.9e-4,3.4e-4 -0.28451,0.34203 -0.54712,0.65313 -0.8241,0.99189 0.5347,-0.26627 1.47174,-0.72571 2.00644,-0.99198 0,0 3.9e-4,-3.4e-4 3.9e-4,-3.4e-4 0.78239,-0.38785 1.62259,-0.79823 2.3418,-1.25237 0,0 2.3e-4,6.1e-4 2.3e-4,6.1e-4 0.51921,-0.32799 0.9423,-0.68383 1.31315,-1.02374 0,0 -1e-5,-4.2e-4 -1e-5,-4.2e-4 0.42063,-0.38592 0.77699,-0.74366 1.13293,-1.10912 0,0 0,0 0,0 0,0 9e-5,-1e-5 9e-5,-1e-5 0,0 0,0 0,0 0.35363,-0.36311 0.68977,-0.72633 1.06715,-1.11602 0,0 -1e-5,-2.1e-4 -1e-5,-2.1e-4 0.33012,-0.34066 0.71926,-0.71955 1.20877,-1.05477 0,0 0,0 0,0 0,0 4e-5,1.5e-4 4e-5,1.5e-4 0,0 0,1e-5 0,1e-5 0.70303,-0.48151 1.5022,-0.87341 2.31861,-1.25999 0,0 1e-5,0 1e-5,0 1.09035,-0.51627 2.18671,-0.98427 3.3154,-1.46066 0,0 1.1e-4,-4e-5 1.1e-4,-4e-5 1.11095,-0.46889 2.26004,-0.94196 3.36489,-1.43495 0,0 1.8e-4,6e-5 1.8e-4,6e-5 -1e-5,0 0,0 0,0 0.83196,-0.37143 1.6829,-0.75657 2.40143,-1.23236 0,0 -1e-5,0 -1e-5,0 1e-5,0 2.9e-4,-0.001 2.9e-4,-0.001 0.50721,-0.33581 0.88862,-0.71853 1.196,-1.0656 0,0 4.5e-4,3.1e-4 4.5e-4,3.1e-4 0,0 1e-5,1e-5 1e-5,1e-5 0.35054,-0.3949 0.63567,-0.75731 0.92759,-1.1218 0,0 1.7e-4,-4.4e-4 1.7e-4,-4.4e-4 0.29142,-0.36389 0.57539,-0.72749 0.92186,-1.12212 0,0 6e-4,4e-4 6e-4,4e-4 0.3038,-0.34697 0.6816,-0.73122 1.18587,-1.06744 0,0 0,-1e-5 0,-1e-5 0,0 4.9e-4,-0.002 4.9e-4,-0.002 0.71664,-0.47807 1.56485,-0.8624 2.39954,-1.23387 0,0 0,0 0,0 0,0 4.9e-4,10e-5 4.9e-4,10e-5 0,0 0,0 0,0 1.11167,-0.49403 2.25499,-0.95913 3.37883,-1.42536 0,0 1e-5,0 1e-5,0 0,0 6.4e-4,-2.4e-4 6.4e-4,-2.4e-4 0,0 0,0 0,0 1.13457,-0.47068 2.24472,-0.93356 3.34551,-1.44284 0,0 6.6e-4,6e-5 6.6e-4,6e-5 0.82412,-0.38189 1.63803,-0.77151 2.34443,-1.25394 0,0 7.9e-4,-0.003 7.9e-4,-0.003 0.49186,-0.33577 0.87397,-0.71705 1.19241,-1.05951 0,0 0,-10e-6 0,-10e-6 0,0 9.9e-4,3.9e-4 9.9e-4,3.9e-4 0.36507,-0.39118 0.68296,-0.75408 1.01655,-1.1169 0,0 0,-1e-5 0,-1e-5 0,0 4.8e-4,-8.6e-4 4.8e-4,-8.6e-4 0.33557,-0.36496 0.66993,-0.72291 1.07066,-1.11115 0,0 0.001,2.8e-4 0.001,2.8e-4 0,0 0,0 0,0 0.35128,-0.34142 0.76225,-0.70438 1.2778,-1.03381 0,0 0.002,-0.004 0.002,-0.004 1.55729,-0.9893 3.48738,-1.98516 5.14032,-2.88264 0,0 0.001,-5.3e-4 0.001,-5.3e-4 0,0 0,0 0,0 0.85126,-0.47683 1.68837,-0.94189 2.50803,-1.39813 0.25572,-0.14243 0.51231,-0.286 0.76809,-0.42966 0.0706,-0.0394 0.14161,-0.0792 0.21296,-0.11933 0.11541,-0.0649 0.23343,-0.1327 0.32812,-0.17807 3.72322,0.0104 7.47166,0.0336 11.15568,0.0809 -0.007,0.0192 -0.0643,0.0848 -0.11563,0.14539 0.007,-0.008 -0.10223,0.12041 -0.0957,0.11272 -0.1146,0.13471 -0.2306,0.26995 -0.34737,0.40493 -0.37527,0.43378 -0.76044,0.86681 -1.15458,1.30578 0,0 -1e-5,0 -1e-5,0 0,0 -5.6e-4,6.2e-4 -5.6e-4,6.2e-4 -0.79486,0.88542 -1.8081,1.87511 -2.46108,2.93011 0,0 -4.2e-4,7e-4 -4.2e-4,7e-4 -0.21356,0.34538 -0.26767,0.753 -0.21147,1.11804 0,0 9e-5,6.3e-4 9e-5,6.3e-4 0.0642,0.4167 0.22368,0.78613 0.39464,1.16465 0,0 0,0 0,0 0,0 2.4e-4,5.5e-4 2.4e-4,5.5e-4 0,0 0,0 0,0 0.16792,0.37174 0.36669,0.75623 0.48411,1.17468 0,0 1.5e-4,5.5e-4 1.5e-4,5.5e-4 0.10398,0.37087 0.11029,0.80173 -0.071,1.16193 0,0 -2.7e-4,5.8e-4 -2.7e-4,5.8e-4 0,0 0,0 0,0 -0.25927,0.51483 -0.71146,0.88097 -1.16587,1.22973 0,0 -4.3e-4,3.2e-4 -4.3e-4,3.2e-4 -0.60689,0.46574 -1.25259,0.8607 -1.92012,1.2603 0,0 -4.1e-4,2.5e-4 -4.1e-4,2.5e-4 -0.65829,0.39406 -1.34827,0.78574 -1.99379,1.22299 0,0 0,0 0,0 0,0 -3.4e-4,2.2e-4 -3.4e-4,2.2e-4 -0.4855,0.32888 -0.99833,0.67995 -1.28827,1.18879 0,0 -1.8e-4,3.7e-4 -1.8e-4,3.7e-4 -0.20466,0.35947 -0.1956,0.80176 -0.0556,1.18084 0,0 1e-5,0 1e-5,0 0,0 9e-5,2.8e-4 9e-5,2.8e-4 0.15948,0.43162 0.42821,0.80846 0.69049,1.18791 0,0 1.6e-4,2.3e-4 1.6e-4,2.3e-4 0.26164,0.37852 0.53773,0.7576 0.70679,1.19007 0,0 8e-5,2e-4 8e-5,2e-4 0,0 0,0 0,0 0.14868,0.38041 0.16878,0.8271 -0.0302,1.18966 0,0 -10e-5,2.1e-4 -10e-5,2.1e-4 -0.28261,0.51467 -0.79272,0.86463 -1.28354,1.1924 0,0 -1.3e-4,8e-5 -1.3e-4,8e-5 -0.65512,0.43746 -1.35066,0.81502 -2.03577,1.19908 0,0 -1e-5,0 -1e-5,0 0,0 -7e-5,4e-5 -7e-5,4e-5 0,0 0,0 0,0 -0.68822,0.38581 -1.36806,0.76576 -2.00857,1.21446 0,0 -1e-5,0 -1e-5,0 0,0 0,0 0,0 -0.47939,0.33583 -0.9671,0.69255 -1.23853,1.21052 0,0 -2e-5,3e-5 -2e-5,3e-5 -0.19057,0.36367 -0.17187,0.80693 -0.0373,1.18525 0,0 0,1e-5 0,1e-5 0,0 3e-5,7e-5 3e-5,7e-5 0.15261,0.42891 0.40168,0.81164 0.6269,1.18897 0,0 6e-5,9e-5 6e-5,9e-5 0,0 0,0 0,0 0.22733,0.38087 0.45107,0.75575 0.57001,1.18316 0,0 5e-5,1.6e-4 5e-5,1.6e-4 0.10425,0.37481 0.0842,0.8041 -0.12704,1.15878 0,0 -10e-5,1.3e-4 -10e-5,1.3e-4 -0.29775,0.49969 -0.79714,0.86388 -1.25994,1.20663 0,1e-5 -1e-5,1e-5 -1e-5,1e-5 0,0 -2e-4,1.5e-4 -2e-4,1.5e-4 -0.62278,0.46126 -1.26172,0.87959 -1.87473,1.31503 0,0 -2.6e-4,1.8e-4 -2.6e-4,1.8e-4 -0.61859,0.43943 -1.20113,0.87641 -1.74656,1.38301 0,0 0,0 0,0 0,0 -2.7e-4,2.6e-4 -2.7e-4,2.6e-4 0,0 -10e-6,0 -10e-6,0 -0.40965,0.38049 -0.80172,0.76967 -1.04733,1.28365 0,0 -2.3e-4,4.1e-4 -2.3e-4,4.1e-4 0,0 0,1e-5 0,1e-5 -0.4115,0.85733 -0.5866,1.86762 -0.76454,2.75264 0,0 -9e-5,4.7e-4 -9e-5,4.7e-4 -0.0724,0.3647 -0.15108,0.77189 -0.22352,1.13658 0.15617,-0.78668 -0.21509,1.08367 -0.0589,0.29698 -3.48995,0.0304 -7.01409,0.0457 -10.50558,0.0527 0.0318,-0.10516 0.0637,-0.20798 0.0958,-0.30834 0.1204,-0.37703 0.23875,-0.76863 0.3602,-1.17735 0,0 1.1e-4,-4.5e-4 1.1e-4,-4.5e-4 0.27137,-0.80244 0.5513,-1.74604 0.97083,-2.52582 0,0 6.4e-4,-7.3e-4 6.4e-4,-7.3e-4 0.25525,-0.49987 0.60993,-0.90007 0.9901,-1.30198 0,0 0,0 0,0 0,0 2.9e-4,-4.2e-4 2.9e-4,-4.2e-4 0.50471,-0.53375 1.03875,-1.00669 1.61074,-1.48368 0,0 2.5e-4,-2.1e-4 2.5e-4,-2.1e-4 0,0 0,0 0,0 0.58323,-0.48634 1.1579,-0.9283 1.74112,-1.41465 0,0 2.3e-4,-2.8e-4 2.3e-4,-2.8e-4 0.43233,-0.36076 0.90009,-0.74147 1.20658,-1.2241 0,0 1e-5,0 1e-5,0 -1e-5,0 8e-5,3.8e-4 8e-5,3.8e-4 0.21845,-0.34385 0.28612,-0.74584 0.25395,-1.10653 0,0 -1.1e-4,-3.4e-4 -1.1e-4,-3.4e-4 -0.037,-0.41142 -0.15996,-0.77937 -0.28783,-1.15427 0,0 -3e-5,-4e-5 -3e-5,-4e-5 0,0 0,0 0,0 -0.12631,-0.37032 -0.27403,-0.74821 -0.34622,-1.16011 0,0 0,0 0,0 0,0 -6e-5,-1.7e-4 -6e-5,-1.7e-4 0,0 0,0 0,0 -0.0636,-0.36387 -0.0355,-0.7807 0.16127,-1.13331 0,0 1e-5,9e-5 1e-5,9e-5 0.28046,-0.50281 0.73437,-0.87353 1.18489,-1.22877 0,0 1e-5,0 1e-5,0 0.60183,-0.47454 1.23513,-0.89005 1.87903,-1.31178 0,0 6e-5,-4e-5 6e-5,-4e-5 0.64016,-0.41928 1.29124,-0.83341 1.90854,-1.29536 0,0 0,0 0,0 0,0 1e-4,0 1e-4,0 0,0 0,0 0,0 0.46277,-0.34642 0.94159,-0.71091 1.23413,-1.21028 0,0 0,0 0,0 0,0 1.2e-4,-8e-4 1.2e-4,-8e-4 0,0 0,-1e-5 0,-1e-5 0.20568,-0.35154 0.23185,-0.77184 0.15264,-1.13801 0,0 1.3e-4,1.1e-4 1.3e-4,1.1e-4 -0.0896,-0.41625 -0.26675,-0.78889 -0.43194,-1.16091 0,0 0,0 0,0 0,0 -1e-4,-3.6e-4 -1e-4,-3.6e-4 0,0 0,0 0,0 -0.16563,-0.37303 -0.3364,-0.74325 -0.41713,-1.15878 0,0 1.7e-4,1.4e-4 1.7e-4,1.4e-4 -0.0714,-0.36487 -0.0355,-0.78088 0.17502,-1.12944 0,0 2.2e-4,-0.001 2.2e-4,-0.001 0.29899,-0.49394 0.78076,-0.86009 1.23865,-1.20749 0,0 2.6e-4,-2e-5 2.6e-4,-2e-5 0.60733,-0.46042 1.25607,-0.88991 1.87075,-1.31688 0,0 0,0 0,0 0,0 3.5e-4,-2.4e-4 3.5e-4,-2.4e-4 0,0 0,0 0,0 0.62531,-0.43437 1.22781,-0.86301 1.79941,-1.35312 0,0 0,0 0,0 0,0 3.3e-4,-6e-5 3.3e-4,-6e-5 0,0 0,0 0,0 0.42853,-0.36776 0.85025,-0.7468 1.1203,-1.24775 0,0 3.2e-4,-0.002 3.2e-4,-0.002 0.18751,-0.34898 0.22615,-0.75445 0.1892,-1.11099 0,0 2.9e-4,9e-5 2.9e-4,9e-5 -0.0365,-0.35978 -0.12131,-0.70054 -0.19196,-1.02747 -0.23954,0.32683 -0.47762,0.66177 -0.76239,1.01959 0,0 -8.1e-4,-1.5e-4 -8.1e-4,-1.5e-4 -0.2801,0.353 -0.64071,0.75158 -1.14164,1.09469 0,0 -7.9e-4,0.002 -7.9e-4,0.002 -0.71619,0.49066 -1.57401,0.87015 -2.43218,1.23683 0,0 -10e-6,0 -10e-6,0 0,0 -7.1e-4,2e-5 -7.1e-4,2e-5 0,0 0,0 0,0 -1.1466,0.48923 -2.31182,0.92928 -3.49085,1.37575 0,0 -6.9e-4,2.4e-4 -6.9e-4,2.4e-4 -1.17442,0.44472 -2.35479,0.88472 -3.50755,1.36637 0,0 -5.2e-4,-5e-5 -5.2e-4,-5e-5 -0.86385,0.3614 -1.73817,0.73738 -2.45973,1.22574 0,0 -4.9e-4,0.002 -4.9e-4,0.002 -0.50685,0.34292 -0.86543,0.74295 -1.13759,1.09768 0,0 -5.4e-4,-3.2e-4 -5.4e-4,-3.2e-4 -0.31012,0.4031 -0.55036,0.77149 -0.79993,1.13811 0,0 0,-1e-5 0,-1e-5 0,1e-5 -1.5e-4,4.3e-4 -1.5e-4,4.3e-4 -0.25067,0.36823 -0.49521,0.73316 -0.81742,1.1363 0,0 -4.2e-4,-2.7e-4 -4.2e-4,-2.7e-4 -0.28246,0.3542 -0.65161,0.74897 -1.16602,1.08954 0,0 0,1e-5 0,1e-5 0,0 -2.8e-4,0.001 -2.8e-4,0.001 -0.72759,0.48178 -1.60919,0.85995 -2.46542,1.22209 0,0 0,1e-5 0,1e-5 0,0 -1.9e-4,-5e-5 -1.9e-4,-5e-5 -1.13431,0.47949 -2.32651,0.94013 -3.46412,1.39382 0,0 -1.1e-4,4e-5 -1.1e-4,4e-5 -1.16056,0.46283 -2.28389,0.91817 -3.3982,1.4275 0,0 -1e-5,-1e-5 -1e-5,-1e-5 -0.83442,0.38142 -1.64942,0.76985 -2.35526,1.25833 0,0 -4e-5,-1.5e-4 -4e-5,-1.5e-4 -0.49111,0.33983 -0.86895,0.72835 -1.18164,1.07392 0,0 2e-5,2.1e-4 2e-5,2.1e-4 0,0 0,0 0,0 -0.3576,0.3955 -0.66971,0.76116 -1.00212,1.12664 0,0 0,1e-5 0,1e-5 0,0 -9e-5,1e-5 -9e-5,1e-5 0,0 0,0 0,0 -0.33465,0.36794 -0.67148,0.72774 -1.07947,1.11832 0,0 1e-5,4.3e-4 1e-5,4.3e-4 -0.3597,0.34402 -0.77911,0.70633 -1.30418,1.03687 0,0 -2.2e-4,-6.1e-4 -2.2e-4,-6.1e-4 -0.72686,0.45736 -1.58582,0.86457 -2.38208,1.24844 0,0 -4e-4,3.4e-4 -4e-4,3.4e-4 -1.13247,0.5463 -2.11153,1.00657 -3.21045,1.55667 0,0 -4.6e-4,2.4e-4 -4.6e-4,2.4e-4 -1.0654,0.53331 -2.0595,1.05664 -3.0619,1.63343 0,0 0,0 0,0 0,0 -5.4e-4,4.7e-4 -5.4e-4,4.7e-4 0,0 0,0 0,0 -0.76501,0.43995 -1.43883,0.84813 -2.1352,1.33406 0,0 -9.3e-4,7e-4 -9.3e-4,7e-4 -1.16969,0.77545 -2.26537,1.58272 -3.41023,2.37703 0,0 -5.7e-4,4.2e-4 -5.7e-4,4.2e-4 -0.47794,0.36078 -0.95858,0.69845 -1.44904,1.01861 -0.13022,0.085 -0.26119,0.16963 -0.39273,0.25255 8.2e-4,0 -11.22478,6.4e-4 -11.2256,6.4e-4 0.0421,-0.0833 0.0835,-0.16809 0.1244,-0.25323 0.15375,-0.32041 0.29905,-0.65813 0.44091,-1.01733 0,0 1.5e-4,-4.2e-4 1.5e-4,-4.2e-4 0.33803,-0.79195 0.63072,-1.59561 0.99489,-2.36729 0,0 5.7e-4,-6.8e-4 5.7e-4,-6.8e-4 0.21665,-0.48304 0.4574,-0.88934 0.73833,-1.32868 0,0 0,0 0,0 0,0 2.3e-4,-4.6e-4 2.3e-4,-4.6e-4 0.36723,-0.57438 0.75414,-1.10145 1.17732,-1.63618 0,0 2e-4,-2.4e-4 2e-4,-2.4e-4 0,0 0,0 0,0 0.43077,-0.54431 0.84693,-1.02641 1.30425,-1.5688 0,0 1.9e-4,-3.4e-4 1.9e-4,-3.4e-4 0.3267,-0.38734 0.68744,-0.79805 0.94892,-1.25221 0,0 0,0 0,0 0,0 7e-5,6e-4 7e-5,6e-4 0.18836,-0.32679 0.28969,-0.68497 0.33073,-1.02313 0,0 -1.3e-4,-4.2e-4 -1.3e-4,-4.2e-4 0.0464,-0.38591 0.0374,-0.74205 0.0225,-1.1073 0,0 0,-1e-5 0,-1e-5 0,0 0,0 0,0 -0.0146,-0.35734 -0.0449,-0.73 -0.0334,-1.11275 0,0 -1e-5,-1e-5 -1e-5,-1e-5 0,0 -7e-5,-2.1e-4 -7e-5,-2.1e-4 0,0 0,0 0,0 0.0105,-0.34032 0.0747,-0.71419 0.24166,-1.04843 0,0 1e-5,1.6e-4 1e-5,1.6e-4 0.23872,-0.4781 0.58173,-0.86994 0.92805,-1.25663 0,0 0,0 0,0 0.46216,-0.51601 0.9434,-0.98883 1.43598,-1.4697 0,0 4e-5,-5e-5 4e-5,-5e-5 0.48893,-0.4773 0.98657,-0.95162 1.46206,-1.455 0,0 0,0 0,0 0,0 5e-5,5e-5 5e-5,5e-5 0,0 0,0 0,0 0.35677,-0.37783 0.72273,-0.76637 0.97179,-1.24047 0,0 0,0 0,0 0,0 1.2e-4,-0.001 1.2e-4,-0.001 0,0 0,-10e-6 0,-10e-6 0.17473,-0.33337 0.23655,-0.7096 0.23287,-1.0519 0,0 2.8e-4,3.3e-4 2.8e-4,3.3e-4 -0.003,-0.38877 -0.0609,-0.75136 -0.10936,-1.11223 0,0 0,0 0,0 0,0 -4e-5,-4.4e-4 -4e-5,-4.4e-4 0,0 0,-1e-5 0,-1e-5 -0.0487,-0.3627 -0.0993,-0.72115 -0.092,-1.1097 0,0 3.7e-4,4.3e-4 3.7e-4,4.3e-4 0.006,-0.34093 0.0785,-0.71168 0.25902,-1.04164 0,0 2.1e-4,-0.002 2.1e-4,-0.002 0.25621,-0.46673 0.62668,-0.85941 0.97737,-1.23747 5e-5,3e-5 10e-5,7e-5 1.5e-4,1e-4 0.47067,-0.50698 0.95191,-0.98888 1.41813,-1.48033 0,0 0,0 0,0 0,0 2.3e-4,-2.6e-4 2.3e-4,-2.6e-4 0,0 0,0 0,0 0.47061,-0.4961 0.91666,-0.98359 1.34325,-1.5183 0,0 0,0 0,0 6e-5,2e-5 1.2e-4,4e-5 1.8e-4,6e-5 0,0 0,-1e-5 0,-1e-5 0.32144,-0.40323 0.62578,-0.80178 0.85305,-1.27967 0,0 2.9e-4,-0.003 2.9e-4,-0.003 0.15578,-0.32943 0.23238,-0.69103 0.27352,-1.02216 0,0 5.6e-4,4.1e-4 5.6e-4,4.1e-4 0.0433,-0.33847 0.0671,-0.66067 0.10405,-0.98108 -0.35477,0.32569 -0.67951,0.63851 -1.03821,0.98247 0,0 -0.001,-4.2e-4 -0.001,-4.2e-4 -0.34258,0.32962 -0.73174,0.69686 -1.1893,1.02536 0,0 -7.4e-4,0.003 -7.4e-4,0.003 -0.66809,0.4798 -1.39457,0.87913 -2.16013,1.28258 0,0 0,0 0,0 0,0 -5.9e-4,-6e-5 -5.9e-4,-6e-5 0,0 0,0 0,0 -1.01817,0.53575 -2.03647,1.0201 -3.10464,1.51383 0,0 -6.1e-4,2.6e-4 -6.1e-4,2.6e-4 -1.05641,0.4883 -2.13125,0.96513 -3.19815,1.46712 0,0 -4.6e-4,-1.1e-4 -4.6e-4,-1.1e-4 -0.79314,0.37371 -1.6202,0.76354 -2.3156,1.23122 0,0 -4.8e-4,0.002 -4.8e-4,0.002 -0.49373,0.33185 -0.86824,0.70606 -1.17191,1.05063 0,0 -6.1e-4,-4.2e-4 -6.1e-4,-4.2e-4 -0.34668,0.39229 -0.62368,0.75135 -0.90395,1.1161 0,0 -1e-5,0 -1e-5,0 0,1e-5 -1.6e-4,4.5e-4 -1.6e-4,4.5e-4 -0.27675,0.36017 -0.54734,0.72926 -0.86768,1.12095 0,0 -4.5e-4,-3.2e-4 -4.5e-4,-3.2e-4 -0.28249,0.34629 -0.63693,0.73307 -1.11621,1.07072 0,0 0,1e-5 0,1e-5 0,0 -2.6e-4,0.001 -2.6e-4,0.001 -0.68428,0.48209 -1.49431,0.86536 -2.30416,1.23779 0,0 -1e-5,0 -1e-5,0 0,0 -1.7e-4,-5e-5 -1.7e-4,-5e-5 -1.08197,0.49731 -2.18073,0.9517 -3.28983,1.41294 0,0 -1.1e-4,4e-5 -1.1e-4,4e-5 -1.10688,0.46031 -2.21319,0.91556 -3.29852,1.41047 0,0 -1e-5,0 -1e-5,0 -0.81277,0.37064 -1.63105,0.75335 -2.31831,1.2354 0,0 -5e-5,-1.5e-4 -5e-5,-1.5e-4 -0.48316,0.33886 -0.83796,0.7278 -1.11842,1.07674 0,0 3e-5,2e-4 3e-5,2e-4 0,0 0,1e-5 0,1e-5 -0.31797,0.3959 -0.57887,0.76424 -0.84776,1.12861 0,0 0,0 0,0 0,0 -7e-5,2e-5 -7e-5,2e-5 0,0 0,0 0,0 -0.27091,0.36709 -0.53715,0.72985 -0.87307,1.12672 0,0 3e-5,4.1e-4 3e-5,4.1e-4 -0.29547,0.34866 -0.66509,0.73033 -1.15935,1.06683 0,0 -2.1e-4,-5.7e-4 -2.1e-4,-5.7e-4 -0.69587,0.47358 -1.52636,0.8622 -2.32883,1.23577 0,0 -3.9e-4,3.3e-4 -3.9e-4,3.3e-4 -1.07782,0.50207 -2.16772,0.97616 -3.24209,1.4608 0,0 -4.6e-4,2.2e-4 -4.6e-4,2.2e-4 -1.08483,0.48936 -2.12688,0.97027 -3.165874,1.50261 0,0 -4e-6,0 -4e-6,0 0,0 -5.62e-4,4.5e-4 -5.62e-4,4.5e-4 0,0 -3e-6,0 -3e-6,0 -0.779173,0.39896 -1.529082,0.79868 -2.202396,1.28401 0,0 -9.93e-4,7.6e-4 -9.93e-4,7.6e-4 -1.125541,0.76537 -2.173389,1.66692 -3.148141,2.47559 0,0 -4.7e-4,4.5e-4 -4.7e-4,4.5e-4 -0.414456,0.40705 -0.828499,0.79723 -1.245337,1.17377 -0.110834,0.1002 -0.221619,0.20308 -0.33236,0.30813 -3.501991,-0.008 -7.036575,-0.0255 -10.539646,-0.0583 z"
     id="path9861"
     inkscape:connector-curvature="0"
     sodipodi:nodetypes="cccccccccccccc" />
</svg>
